<?xml version="1.0" encoding="utf-8" standalone="no"?>
<!DOCTYPE svg PUBLIC "-//W3C//DTD SVG 1.1//EN"
  "http://www.w3.org/Graphics/SVG/1.1/DTD/svg11.dtd">
<svg xmlns:xlink="http://www.w3.org/1999/xlink" width="1142.620092pt" height="927.969688pt" viewBox="0 0 1142.620092 927.969688" xmlns="http://www.w3.org/2000/svg" version="1.1">
 <metadata>
  <rdf:RDF xmlns:dc="http://purl.org/dc/elements/1.1/" xmlns:cc="http://creativecommons.org/ns#" xmlns:rdf="http://www.w3.org/1999/02/22-rdf-syntax-ns#">
   <cc:Work>
    <dc:type rdf:resource="http://purl.org/dc/dcmitype/StillImage"/>
    <dc:date>2025-10-19T13:12:39.020069</dc:date>
    <dc:format>image/svg+xml</dc:format>
    <dc:creator>
     <cc:Agent>
      <dc:title>Matplotlib v3.10.1, https://matplotlib.org/</dc:title>
     </cc:Agent>
    </dc:creator>
   </cc:Work>
  </rdf:RDF>
 </metadata>
 <defs>
  <style type="text/css">*{stroke-linejoin: round; stroke-linecap: butt}</style>
 </defs>
 <g id="figure_1">
  <g id="patch_1">
   <path d="M 0 927.969688 
L 1142.620092 927.969688 
L 1142.620092 0 
L 0 0 
z
" style="fill: #ffffff"/>
  </g>
  <g id="axes_1">
   <g id="patch_2">
    <path d="M 45.716875 888.477813 
L 1132.938571 888.477813 
L 1132.938571 23.837812 
L 45.716875 23.837812 
z
" style="fill: #ffffff"/>
   </g>
   <g id="matplotlib.axis_1">
    <g id="xtick_1">
     <g id="line2d_1">
      <path d="M 95.136043 888.477813 
L 95.136043 23.837812 
" clip-path="url(#p1e6aa0fad9)" style="fill: none; stroke: #b0b0b0; stroke-opacity: 0.3; stroke-width: 0.8; stroke-linecap: square"/>
     </g>
     <g id="line2d_2">
      <defs>
       <path id="m4ee754d014" d="M 0 0 
L 0 3.5 
" style="stroke: #000000; stroke-width: 0.8"/>
      </defs>
      <g>
       <use xlink:href="#m4ee754d014" x="95.136043" y="888.477813" style="stroke: #000000; stroke-width: 0.8"/>
      </g>
     </g>
     <g id="text_1">
      <!-- 0 -->
      <g transform="translate(91.954793 903.07625) scale(0.1 -0.1)">
       <defs>
        <path id="DejaVuSans-30" d="M 2034 4250 
Q 1547 4250 1301 3770 
Q 1056 3291 1056 2328 
Q 1056 1369 1301 889 
Q 1547 409 2034 409 
Q 2525 409 2770 889 
Q 3016 1369 3016 2328 
Q 3016 3291 2770 3770 
Q 2525 4250 2034 4250 
z
M 2034 4750 
Q 2819 4750 3233 4129 
Q 3647 3509 3647 2328 
Q 3647 1150 3233 529 
Q 2819 -91 2034 -91 
Q 1250 -91 836 529 
Q 422 1150 422 2328 
Q 422 3509 836 4129 
Q 1250 4750 2034 4750 
z
" transform="scale(0.015625)"/>
       </defs>
       <use xlink:href="#DejaVuSans-30"/>
      </g>
     </g>
    </g>
    <g id="xtick_2">
     <g id="line2d_3">
      <path d="M 223.580924 888.477813 
L 223.580924 23.837812 
" clip-path="url(#p1e6aa0fad9)" style="fill: none; stroke: #b0b0b0; stroke-opacity: 0.3; stroke-width: 0.8; stroke-linecap: square"/>
     </g>
     <g id="line2d_4">
      <g>
       <use xlink:href="#m4ee754d014" x="223.580924" y="888.477813" style="stroke: #000000; stroke-width: 0.8"/>
      </g>
     </g>
     <g id="text_2">
      <!-- 200 -->
      <g transform="translate(214.037174 903.07625) scale(0.1 -0.1)">
       <defs>
        <path id="DejaVuSans-32" d="M 1228 531 
L 3431 531 
L 3431 0 
L 469 0 
L 469 531 
Q 828 903 1448 1529 
Q 2069 2156 2228 2338 
Q 2531 2678 2651 2914 
Q 2772 3150 2772 3378 
Q 2772 3750 2511 3984 
Q 2250 4219 1831 4219 
Q 1534 4219 1204 4116 
Q 875 4013 500 3803 
L 500 4441 
Q 881 4594 1212 4672 
Q 1544 4750 1819 4750 
Q 2544 4750 2975 4387 
Q 3406 4025 3406 3419 
Q 3406 3131 3298 2873 
Q 3191 2616 2906 2266 
Q 2828 2175 2409 1742 
Q 1991 1309 1228 531 
z
" transform="scale(0.015625)"/>
       </defs>
       <use xlink:href="#DejaVuSans-32"/>
       <use xlink:href="#DejaVuSans-30" transform="translate(63.623047 0)"/>
       <use xlink:href="#DejaVuSans-30" transform="translate(127.246094 0)"/>
      </g>
     </g>
    </g>
    <g id="xtick_3">
     <g id="line2d_5">
      <path d="M 352.025805 888.477813 
L 352.025805 23.837812 
" clip-path="url(#p1e6aa0fad9)" style="fill: none; stroke: #b0b0b0; stroke-opacity: 0.3; stroke-width: 0.8; stroke-linecap: square"/>
     </g>
     <g id="line2d_6">
      <g>
       <use xlink:href="#m4ee754d014" x="352.025805" y="888.477813" style="stroke: #000000; stroke-width: 0.8"/>
      </g>
     </g>
     <g id="text_3">
      <!-- 400 -->
      <g transform="translate(342.482055 903.07625) scale(0.1 -0.1)">
       <defs>
        <path id="DejaVuSans-34" d="M 2419 4116 
L 825 1625 
L 2419 1625 
L 2419 4116 
z
M 2253 4666 
L 3047 4666 
L 3047 1625 
L 3713 1625 
L 3713 1100 
L 3047 1100 
L 3047 0 
L 2419 0 
L 2419 1100 
L 313 1100 
L 313 1709 
L 2253 4666 
z
" transform="scale(0.015625)"/>
       </defs>
       <use xlink:href="#DejaVuSans-34"/>
       <use xlink:href="#DejaVuSans-30" transform="translate(63.623047 0)"/>
       <use xlink:href="#DejaVuSans-30" transform="translate(127.246094 0)"/>
      </g>
     </g>
    </g>
    <g id="xtick_4">
     <g id="line2d_7">
      <path d="M 480.470686 888.477813 
L 480.470686 23.837812 
" clip-path="url(#p1e6aa0fad9)" style="fill: none; stroke: #b0b0b0; stroke-opacity: 0.3; stroke-width: 0.8; stroke-linecap: square"/>
     </g>
     <g id="line2d_8">
      <g>
       <use xlink:href="#m4ee754d014" x="480.470686" y="888.477813" style="stroke: #000000; stroke-width: 0.8"/>
      </g>
     </g>
     <g id="text_4">
      <!-- 600 -->
      <g transform="translate(470.926936 903.07625) scale(0.1 -0.1)">
       <defs>
        <path id="DejaVuSans-36" d="M 2113 2584 
Q 1688 2584 1439 2293 
Q 1191 2003 1191 1497 
Q 1191 994 1439 701 
Q 1688 409 2113 409 
Q 2538 409 2786 701 
Q 3034 994 3034 1497 
Q 3034 2003 2786 2293 
Q 2538 2584 2113 2584 
z
M 3366 4563 
L 3366 3988 
Q 3128 4100 2886 4159 
Q 2644 4219 2406 4219 
Q 1781 4219 1451 3797 
Q 1122 3375 1075 2522 
Q 1259 2794 1537 2939 
Q 1816 3084 2150 3084 
Q 2853 3084 3261 2657 
Q 3669 2231 3669 1497 
Q 3669 778 3244 343 
Q 2819 -91 2113 -91 
Q 1303 -91 875 529 
Q 447 1150 447 2328 
Q 447 3434 972 4092 
Q 1497 4750 2381 4750 
Q 2619 4750 2861 4703 
Q 3103 4656 3366 4563 
z
" transform="scale(0.015625)"/>
       </defs>
       <use xlink:href="#DejaVuSans-36"/>
       <use xlink:href="#DejaVuSans-30" transform="translate(63.623047 0)"/>
       <use xlink:href="#DejaVuSans-30" transform="translate(127.246094 0)"/>
      </g>
     </g>
    </g>
    <g id="xtick_5">
     <g id="line2d_9">
      <path d="M 608.915567 888.477813 
L 608.915567 23.837812 
" clip-path="url(#p1e6aa0fad9)" style="fill: none; stroke: #b0b0b0; stroke-opacity: 0.3; stroke-width: 0.8; stroke-linecap: square"/>
     </g>
     <g id="line2d_10">
      <g>
       <use xlink:href="#m4ee754d014" x="608.915567" y="888.477813" style="stroke: #000000; stroke-width: 0.8"/>
      </g>
     </g>
     <g id="text_5">
      <!-- 800 -->
      <g transform="translate(599.371817 903.07625) scale(0.1 -0.1)">
       <defs>
        <path id="DejaVuSans-38" d="M 2034 2216 
Q 1584 2216 1326 1975 
Q 1069 1734 1069 1313 
Q 1069 891 1326 650 
Q 1584 409 2034 409 
Q 2484 409 2743 651 
Q 3003 894 3003 1313 
Q 3003 1734 2745 1975 
Q 2488 2216 2034 2216 
z
M 1403 2484 
Q 997 2584 770 2862 
Q 544 3141 544 3541 
Q 544 4100 942 4425 
Q 1341 4750 2034 4750 
Q 2731 4750 3128 4425 
Q 3525 4100 3525 3541 
Q 3525 3141 3298 2862 
Q 3072 2584 2669 2484 
Q 3125 2378 3379 2068 
Q 3634 1759 3634 1313 
Q 3634 634 3220 271 
Q 2806 -91 2034 -91 
Q 1263 -91 848 271 
Q 434 634 434 1313 
Q 434 1759 690 2068 
Q 947 2378 1403 2484 
z
M 1172 3481 
Q 1172 3119 1398 2916 
Q 1625 2713 2034 2713 
Q 2441 2713 2670 2916 
Q 2900 3119 2900 3481 
Q 2900 3844 2670 4047 
Q 2441 4250 2034 4250 
Q 1625 4250 1398 4047 
Q 1172 3844 1172 3481 
z
" transform="scale(0.015625)"/>
       </defs>
       <use xlink:href="#DejaVuSans-38"/>
       <use xlink:href="#DejaVuSans-30" transform="translate(63.623047 0)"/>
       <use xlink:href="#DejaVuSans-30" transform="translate(127.246094 0)"/>
      </g>
     </g>
    </g>
    <g id="xtick_6">
     <g id="line2d_11">
      <path d="M 737.360448 888.477813 
L 737.360448 23.837812 
" clip-path="url(#p1e6aa0fad9)" style="fill: none; stroke: #b0b0b0; stroke-opacity: 0.3; stroke-width: 0.8; stroke-linecap: square"/>
     </g>
     <g id="line2d_12">
      <g>
       <use xlink:href="#m4ee754d014" x="737.360448" y="888.477813" style="stroke: #000000; stroke-width: 0.8"/>
      </g>
     </g>
     <g id="text_6">
      <!-- 1000 -->
      <g transform="translate(724.635448 903.07625) scale(0.1 -0.1)">
       <defs>
        <path id="DejaVuSans-31" d="M 794 531 
L 1825 531 
L 1825 4091 
L 703 3866 
L 703 4441 
L 1819 4666 
L 2450 4666 
L 2450 531 
L 3481 531 
L 3481 0 
L 794 0 
L 794 531 
z
" transform="scale(0.015625)"/>
       </defs>
       <use xlink:href="#DejaVuSans-31"/>
       <use xlink:href="#DejaVuSans-30" transform="translate(63.623047 0)"/>
       <use xlink:href="#DejaVuSans-30" transform="translate(127.246094 0)"/>
       <use xlink:href="#DejaVuSans-30" transform="translate(190.869141 0)"/>
      </g>
     </g>
    </g>
    <g id="xtick_7">
     <g id="line2d_13">
      <path d="M 865.805329 888.477813 
L 865.805329 23.837812 
" clip-path="url(#p1e6aa0fad9)" style="fill: none; stroke: #b0b0b0; stroke-opacity: 0.3; stroke-width: 0.8; stroke-linecap: square"/>
     </g>
     <g id="line2d_14">
      <g>
       <use xlink:href="#m4ee754d014" x="865.805329" y="888.477813" style="stroke: #000000; stroke-width: 0.8"/>
      </g>
     </g>
     <g id="text_7">
      <!-- 1200 -->
      <g transform="translate(853.080329 903.07625) scale(0.1 -0.1)">
       <use xlink:href="#DejaVuSans-31"/>
       <use xlink:href="#DejaVuSans-32" transform="translate(63.623047 0)"/>
       <use xlink:href="#DejaVuSans-30" transform="translate(127.246094 0)"/>
       <use xlink:href="#DejaVuSans-30" transform="translate(190.869141 0)"/>
      </g>
     </g>
    </g>
    <g id="xtick_8">
     <g id="line2d_15">
      <path d="M 994.250211 888.477813 
L 994.250211 23.837812 
" clip-path="url(#p1e6aa0fad9)" style="fill: none; stroke: #b0b0b0; stroke-opacity: 0.3; stroke-width: 0.8; stroke-linecap: square"/>
     </g>
     <g id="line2d_16">
      <g>
       <use xlink:href="#m4ee754d014" x="994.250211" y="888.477813" style="stroke: #000000; stroke-width: 0.8"/>
      </g>
     </g>
     <g id="text_8">
      <!-- 1400 -->
      <g transform="translate(981.525211 903.07625) scale(0.1 -0.1)">
       <use xlink:href="#DejaVuSans-31"/>
       <use xlink:href="#DejaVuSans-34" transform="translate(63.623047 0)"/>
       <use xlink:href="#DejaVuSans-30" transform="translate(127.246094 0)"/>
       <use xlink:href="#DejaVuSans-30" transform="translate(190.869141 0)"/>
      </g>
     </g>
    </g>
    <g id="xtick_9">
     <g id="line2d_17">
      <path d="M 1122.695092 888.477813 
L 1122.695092 23.837812 
" clip-path="url(#p1e6aa0fad9)" style="fill: none; stroke: #b0b0b0; stroke-opacity: 0.3; stroke-width: 0.8; stroke-linecap: square"/>
     </g>
     <g id="line2d_18">
      <g>
       <use xlink:href="#m4ee754d014" x="1122.695092" y="888.477813" style="stroke: #000000; stroke-width: 0.8"/>
      </g>
     </g>
     <g id="text_9">
      <!-- 1600 -->
      <g transform="translate(1109.970092 903.07625) scale(0.1 -0.1)">
       <use xlink:href="#DejaVuSans-31"/>
       <use xlink:href="#DejaVuSans-36" transform="translate(63.623047 0)"/>
       <use xlink:href="#DejaVuSans-30" transform="translate(127.246094 0)"/>
       <use xlink:href="#DejaVuSans-30" transform="translate(190.869141 0)"/>
      </g>
     </g>
    </g>
    <g id="text_10">
     <!-- Iteraciones (x10) -->
     <g transform="translate(538.338035 918.274063) scale(0.12 -0.12)">
      <defs>
       <path id="DejaVuSans-49" d="M 628 4666 
L 1259 4666 
L 1259 0 
L 628 0 
L 628 4666 
z
" transform="scale(0.015625)"/>
       <path id="DejaVuSans-74" d="M 1172 4494 
L 1172 3500 
L 2356 3500 
L 2356 3053 
L 1172 3053 
L 1172 1153 
Q 1172 725 1289 603 
Q 1406 481 1766 481 
L 2356 481 
L 2356 0 
L 1766 0 
Q 1100 0 847 248 
Q 594 497 594 1153 
L 594 3053 
L 172 3053 
L 172 3500 
L 594 3500 
L 594 4494 
L 1172 4494 
z
" transform="scale(0.015625)"/>
       <path id="DejaVuSans-65" d="M 3597 1894 
L 3597 1613 
L 953 1613 
Q 991 1019 1311 708 
Q 1631 397 2203 397 
Q 2534 397 2845 478 
Q 3156 559 3463 722 
L 3463 178 
Q 3153 47 2828 -22 
Q 2503 -91 2169 -91 
Q 1331 -91 842 396 
Q 353 884 353 1716 
Q 353 2575 817 3079 
Q 1281 3584 2069 3584 
Q 2775 3584 3186 3129 
Q 3597 2675 3597 1894 
z
M 3022 2063 
Q 3016 2534 2758 2815 
Q 2500 3097 2075 3097 
Q 1594 3097 1305 2825 
Q 1016 2553 972 2059 
L 3022 2063 
z
" transform="scale(0.015625)"/>
       <path id="DejaVuSans-72" d="M 2631 2963 
Q 2534 3019 2420 3045 
Q 2306 3072 2169 3072 
Q 1681 3072 1420 2755 
Q 1159 2438 1159 1844 
L 1159 0 
L 581 0 
L 581 3500 
L 1159 3500 
L 1159 2956 
Q 1341 3275 1631 3429 
Q 1922 3584 2338 3584 
Q 2397 3584 2469 3576 
Q 2541 3569 2628 3553 
L 2631 2963 
z
" transform="scale(0.015625)"/>
       <path id="DejaVuSans-61" d="M 2194 1759 
Q 1497 1759 1228 1600 
Q 959 1441 959 1056 
Q 959 750 1161 570 
Q 1363 391 1709 391 
Q 2188 391 2477 730 
Q 2766 1069 2766 1631 
L 2766 1759 
L 2194 1759 
z
M 3341 1997 
L 3341 0 
L 2766 0 
L 2766 531 
Q 2569 213 2275 61 
Q 1981 -91 1556 -91 
Q 1019 -91 701 211 
Q 384 513 384 1019 
Q 384 1609 779 1909 
Q 1175 2209 1959 2209 
L 2766 2209 
L 2766 2266 
Q 2766 2663 2505 2880 
Q 2244 3097 1772 3097 
Q 1472 3097 1187 3025 
Q 903 2953 641 2809 
L 641 3341 
Q 956 3463 1253 3523 
Q 1550 3584 1831 3584 
Q 2591 3584 2966 3190 
Q 3341 2797 3341 1997 
z
" transform="scale(0.015625)"/>
       <path id="DejaVuSans-63" d="M 3122 3366 
L 3122 2828 
Q 2878 2963 2633 3030 
Q 2388 3097 2138 3097 
Q 1578 3097 1268 2742 
Q 959 2388 959 1747 
Q 959 1106 1268 751 
Q 1578 397 2138 397 
Q 2388 397 2633 464 
Q 2878 531 3122 666 
L 3122 134 
Q 2881 22 2623 -34 
Q 2366 -91 2075 -91 
Q 1284 -91 818 406 
Q 353 903 353 1747 
Q 353 2603 823 3093 
Q 1294 3584 2113 3584 
Q 2378 3584 2631 3529 
Q 2884 3475 3122 3366 
z
" transform="scale(0.015625)"/>
       <path id="DejaVuSans-69" d="M 603 3500 
L 1178 3500 
L 1178 0 
L 603 0 
L 603 3500 
z
M 603 4863 
L 1178 4863 
L 1178 4134 
L 603 4134 
L 603 4863 
z
" transform="scale(0.015625)"/>
       <path id="DejaVuSans-6f" d="M 1959 3097 
Q 1497 3097 1228 2736 
Q 959 2375 959 1747 
Q 959 1119 1226 758 
Q 1494 397 1959 397 
Q 2419 397 2687 759 
Q 2956 1122 2956 1747 
Q 2956 2369 2687 2733 
Q 2419 3097 1959 3097 
z
M 1959 3584 
Q 2709 3584 3137 3096 
Q 3566 2609 3566 1747 
Q 3566 888 3137 398 
Q 2709 -91 1959 -91 
Q 1206 -91 779 398 
Q 353 888 353 1747 
Q 353 2609 779 3096 
Q 1206 3584 1959 3584 
z
" transform="scale(0.015625)"/>
       <path id="DejaVuSans-6e" d="M 3513 2113 
L 3513 0 
L 2938 0 
L 2938 2094 
Q 2938 2591 2744 2837 
Q 2550 3084 2163 3084 
Q 1697 3084 1428 2787 
Q 1159 2491 1159 1978 
L 1159 0 
L 581 0 
L 581 3500 
L 1159 3500 
L 1159 2956 
Q 1366 3272 1645 3428 
Q 1925 3584 2291 3584 
Q 2894 3584 3203 3211 
Q 3513 2838 3513 2113 
z
" transform="scale(0.015625)"/>
       <path id="DejaVuSans-73" d="M 2834 3397 
L 2834 2853 
Q 2591 2978 2328 3040 
Q 2066 3103 1784 3103 
Q 1356 3103 1142 2972 
Q 928 2841 928 2578 
Q 928 2378 1081 2264 
Q 1234 2150 1697 2047 
L 1894 2003 
Q 2506 1872 2764 1633 
Q 3022 1394 3022 966 
Q 3022 478 2636 193 
Q 2250 -91 1575 -91 
Q 1294 -91 989 -36 
Q 684 19 347 128 
L 347 722 
Q 666 556 975 473 
Q 1284 391 1588 391 
Q 1994 391 2212 530 
Q 2431 669 2431 922 
Q 2431 1156 2273 1281 
Q 2116 1406 1581 1522 
L 1381 1569 
Q 847 1681 609 1914 
Q 372 2147 372 2553 
Q 372 3047 722 3315 
Q 1072 3584 1716 3584 
Q 2034 3584 2315 3537 
Q 2597 3491 2834 3397 
z
" transform="scale(0.015625)"/>
       <path id="DejaVuSans-20" transform="scale(0.015625)"/>
       <path id="DejaVuSans-28" d="M 1984 4856 
Q 1566 4138 1362 3434 
Q 1159 2731 1159 2009 
Q 1159 1288 1364 580 
Q 1569 -128 1984 -844 
L 1484 -844 
Q 1016 -109 783 600 
Q 550 1309 550 2009 
Q 550 2706 781 3412 
Q 1013 4119 1484 4856 
L 1984 4856 
z
" transform="scale(0.015625)"/>
       <path id="DejaVuSans-78" d="M 3513 3500 
L 2247 1797 
L 3578 0 
L 2900 0 
L 1881 1375 
L 863 0 
L 184 0 
L 1544 1831 
L 300 3500 
L 978 3500 
L 1906 2253 
L 2834 3500 
L 3513 3500 
z
" transform="scale(0.015625)"/>
       <path id="DejaVuSans-29" d="M 513 4856 
L 1013 4856 
Q 1481 4119 1714 3412 
Q 1947 2706 1947 2009 
Q 1947 1309 1714 600 
Q 1481 -109 1013 -844 
L 513 -844 
Q 928 -128 1133 580 
Q 1338 1288 1338 2009 
Q 1338 2731 1133 3434 
Q 928 4138 513 4856 
z
" transform="scale(0.015625)"/>
      </defs>
      <use xlink:href="#DejaVuSans-49"/>
      <use xlink:href="#DejaVuSans-74" transform="translate(29.492188 0)"/>
      <use xlink:href="#DejaVuSans-65" transform="translate(68.701172 0)"/>
      <use xlink:href="#DejaVuSans-72" transform="translate(130.224609 0)"/>
      <use xlink:href="#DejaVuSans-61" transform="translate(171.337891 0)"/>
      <use xlink:href="#DejaVuSans-63" transform="translate(232.617188 0)"/>
      <use xlink:href="#DejaVuSans-69" transform="translate(287.597656 0)"/>
      <use xlink:href="#DejaVuSans-6f" transform="translate(315.380859 0)"/>
      <use xlink:href="#DejaVuSans-6e" transform="translate(376.5625 0)"/>
      <use xlink:href="#DejaVuSans-65" transform="translate(439.941406 0)"/>
      <use xlink:href="#DejaVuSans-73" transform="translate(501.464844 0)"/>
      <use xlink:href="#DejaVuSans-20" transform="translate(553.564453 0)"/>
      <use xlink:href="#DejaVuSans-28" transform="translate(585.351562 0)"/>
      <use xlink:href="#DejaVuSans-78" transform="translate(624.365234 0)"/>
      <use xlink:href="#DejaVuSans-31" transform="translate(683.544922 0)"/>
      <use xlink:href="#DejaVuSans-30" transform="translate(747.167969 0)"/>
      <use xlink:href="#DejaVuSans-29" transform="translate(810.791016 0)"/>
     </g>
    </g>
   </g>
   <g id="matplotlib.axis_2">
    <g id="ytick_1">
     <g id="line2d_19">
      <path d="M 45.716875 849.175994 
L 1132.938571 849.175994 
" clip-path="url(#p1e6aa0fad9)" style="fill: none; stroke: #b0b0b0; stroke-opacity: 0.3; stroke-width: 0.8; stroke-linecap: square"/>
     </g>
     <g id="line2d_20">
      <defs>
       <path id="mb4a0ece20d" d="M 0 0 
L -3.5 0 
" style="stroke: #000000; stroke-width: 0.8"/>
      </defs>
      <g>
       <use xlink:href="#mb4a0ece20d" x="45.716875" y="849.175994" style="stroke: #000000; stroke-width: 0.8"/>
      </g>
     </g>
     <g id="text_11">
      <!-- 0.0 -->
      <g transform="translate(22.81375 852.975213) scale(0.1 -0.1)">
       <defs>
        <path id="DejaVuSans-2e" d="M 684 794 
L 1344 794 
L 1344 0 
L 684 0 
L 684 794 
z
" transform="scale(0.015625)"/>
       </defs>
       <use xlink:href="#DejaVuSans-30"/>
       <use xlink:href="#DejaVuSans-2e" transform="translate(63.623047 0)"/>
       <use xlink:href="#DejaVuSans-30" transform="translate(95.410156 0)"/>
      </g>
     </g>
    </g>
    <g id="ytick_2">
     <g id="line2d_21">
      <path d="M 45.716875 691.968722 
L 1132.938571 691.968722 
" clip-path="url(#p1e6aa0fad9)" style="fill: none; stroke: #b0b0b0; stroke-opacity: 0.3; stroke-width: 0.8; stroke-linecap: square"/>
     </g>
     <g id="line2d_22">
      <g>
       <use xlink:href="#mb4a0ece20d" x="45.716875" y="691.968722" style="stroke: #000000; stroke-width: 0.8"/>
      </g>
     </g>
     <g id="text_12">
      <!-- 0.2 -->
      <g transform="translate(22.81375 695.76794) scale(0.1 -0.1)">
       <use xlink:href="#DejaVuSans-30"/>
       <use xlink:href="#DejaVuSans-2e" transform="translate(63.623047 0)"/>
       <use xlink:href="#DejaVuSans-32" transform="translate(95.410156 0)"/>
      </g>
     </g>
    </g>
    <g id="ytick_3">
     <g id="line2d_23">
      <path d="M 45.716875 534.761449 
L 1132.938571 534.761449 
" clip-path="url(#p1e6aa0fad9)" style="fill: none; stroke: #b0b0b0; stroke-opacity: 0.3; stroke-width: 0.8; stroke-linecap: square"/>
     </g>
     <g id="line2d_24">
      <g>
       <use xlink:href="#mb4a0ece20d" x="45.716875" y="534.761449" style="stroke: #000000; stroke-width: 0.8"/>
      </g>
     </g>
     <g id="text_13">
      <!-- 0.4 -->
      <g transform="translate(22.81375 538.560668) scale(0.1 -0.1)">
       <use xlink:href="#DejaVuSans-30"/>
       <use xlink:href="#DejaVuSans-2e" transform="translate(63.623047 0)"/>
       <use xlink:href="#DejaVuSans-34" transform="translate(95.410156 0)"/>
      </g>
     </g>
    </g>
    <g id="ytick_4">
     <g id="line2d_25">
      <path d="M 45.716875 377.554176 
L 1132.938571 377.554176 
" clip-path="url(#p1e6aa0fad9)" style="fill: none; stroke: #b0b0b0; stroke-opacity: 0.3; stroke-width: 0.8; stroke-linecap: square"/>
     </g>
     <g id="line2d_26">
      <g>
       <use xlink:href="#mb4a0ece20d" x="45.716875" y="377.554176" style="stroke: #000000; stroke-width: 0.8"/>
      </g>
     </g>
     <g id="text_14">
      <!-- 0.6 -->
      <g transform="translate(22.81375 381.353395) scale(0.1 -0.1)">
       <use xlink:href="#DejaVuSans-30"/>
       <use xlink:href="#DejaVuSans-2e" transform="translate(63.623047 0)"/>
       <use xlink:href="#DejaVuSans-36" transform="translate(95.410156 0)"/>
      </g>
     </g>
    </g>
    <g id="ytick_5">
     <g id="line2d_27">
      <path d="M 45.716875 220.346903 
L 1132.938571 220.346903 
" clip-path="url(#p1e6aa0fad9)" style="fill: none; stroke: #b0b0b0; stroke-opacity: 0.3; stroke-width: 0.8; stroke-linecap: square"/>
     </g>
     <g id="line2d_28">
      <g>
       <use xlink:href="#mb4a0ece20d" x="45.716875" y="220.346903" style="stroke: #000000; stroke-width: 0.8"/>
      </g>
     </g>
     <g id="text_15">
      <!-- 0.8 -->
      <g transform="translate(22.81375 224.146122) scale(0.1 -0.1)">
       <use xlink:href="#DejaVuSans-30"/>
       <use xlink:href="#DejaVuSans-2e" transform="translate(63.623047 0)"/>
       <use xlink:href="#DejaVuSans-38" transform="translate(95.410156 0)"/>
      </g>
     </g>
    </g>
    <g id="ytick_6">
     <g id="line2d_29">
      <path d="M 45.716875 63.139631 
L 1132.938571 63.139631 
" clip-path="url(#p1e6aa0fad9)" style="fill: none; stroke: #b0b0b0; stroke-opacity: 0.3; stroke-width: 0.8; stroke-linecap: square"/>
     </g>
     <g id="line2d_30">
      <g>
       <use xlink:href="#mb4a0ece20d" x="45.716875" y="63.139631" style="stroke: #000000; stroke-width: 0.8"/>
      </g>
     </g>
     <g id="text_16">
      <!-- 1.0 -->
      <g transform="translate(22.81375 66.938849) scale(0.1 -0.1)">
       <use xlink:href="#DejaVuSans-31"/>
       <use xlink:href="#DejaVuSans-2e" transform="translate(63.623047 0)"/>
       <use xlink:href="#DejaVuSans-30" transform="translate(95.410156 0)"/>
      </g>
     </g>
    </g>
    <g id="text_17">
     <!-- Probabilidad -->
     <g transform="translate(16.318125 493.264063) rotate(-90) scale(0.12 -0.12)">
      <defs>
       <path id="DejaVuSans-50" d="M 1259 4147 
L 1259 2394 
L 2053 2394 
Q 2494 2394 2734 2622 
Q 2975 2850 2975 3272 
Q 2975 3691 2734 3919 
Q 2494 4147 2053 4147 
L 1259 4147 
z
M 628 4666 
L 2053 4666 
Q 2838 4666 3239 4311 
Q 3641 3956 3641 3272 
Q 3641 2581 3239 2228 
Q 2838 1875 2053 1875 
L 1259 1875 
L 1259 0 
L 628 0 
L 628 4666 
z
" transform="scale(0.015625)"/>
       <path id="DejaVuSans-62" d="M 3116 1747 
Q 3116 2381 2855 2742 
Q 2594 3103 2138 3103 
Q 1681 3103 1420 2742 
Q 1159 2381 1159 1747 
Q 1159 1113 1420 752 
Q 1681 391 2138 391 
Q 2594 391 2855 752 
Q 3116 1113 3116 1747 
z
M 1159 2969 
Q 1341 3281 1617 3432 
Q 1894 3584 2278 3584 
Q 2916 3584 3314 3078 
Q 3713 2572 3713 1747 
Q 3713 922 3314 415 
Q 2916 -91 2278 -91 
Q 1894 -91 1617 61 
Q 1341 213 1159 525 
L 1159 0 
L 581 0 
L 581 4863 
L 1159 4863 
L 1159 2969 
z
" transform="scale(0.015625)"/>
       <path id="DejaVuSans-6c" d="M 603 4863 
L 1178 4863 
L 1178 0 
L 603 0 
L 603 4863 
z
" transform="scale(0.015625)"/>
       <path id="DejaVuSans-64" d="M 2906 2969 
L 2906 4863 
L 3481 4863 
L 3481 0 
L 2906 0 
L 2906 525 
Q 2725 213 2448 61 
Q 2172 -91 1784 -91 
Q 1150 -91 751 415 
Q 353 922 353 1747 
Q 353 2572 751 3078 
Q 1150 3584 1784 3584 
Q 2172 3584 2448 3432 
Q 2725 3281 2906 2969 
z
M 947 1747 
Q 947 1113 1208 752 
Q 1469 391 1925 391 
Q 2381 391 2643 752 
Q 2906 1113 2906 1747 
Q 2906 2381 2643 2742 
Q 2381 3103 1925 3103 
Q 1469 3103 1208 2742 
Q 947 2381 947 1747 
z
" transform="scale(0.015625)"/>
      </defs>
      <use xlink:href="#DejaVuSans-50"/>
      <use xlink:href="#DejaVuSans-72" transform="translate(58.552734 0)"/>
      <use xlink:href="#DejaVuSans-6f" transform="translate(97.416016 0)"/>
      <use xlink:href="#DejaVuSans-62" transform="translate(158.597656 0)"/>
      <use xlink:href="#DejaVuSans-61" transform="translate(222.074219 0)"/>
      <use xlink:href="#DejaVuSans-62" transform="translate(283.353516 0)"/>
      <use xlink:href="#DejaVuSans-69" transform="translate(346.830078 0)"/>
      <use xlink:href="#DejaVuSans-6c" transform="translate(374.613281 0)"/>
      <use xlink:href="#DejaVuSans-69" transform="translate(402.396484 0)"/>
      <use xlink:href="#DejaVuSans-64" transform="translate(430.179688 0)"/>
      <use xlink:href="#DejaVuSans-61" transform="translate(493.65625 0)"/>
      <use xlink:href="#DejaVuSans-64" transform="translate(554.935547 0)"/>
     </g>
    </g>
   </g>
   <g id="line2d_31">
    <path d="M 95.136043 652.732648 
L 96.420492 652.724484 
L 102.200511 652.269814 
L 108.622756 651.905708 
L 120.825019 650.822691 
L 123.393917 650.646249 
L 125.32059 650.468588 
L 127.247263 650.372261 
L 129.816161 650.075434 
L 131.742834 649.764036 
L 137.522854 648.948634 
L 139.449527 648.804145 
L 140.733976 648.621963 
L 142.660649 648.159446 
L 146.513995 647.391457 
L 149.725117 647.116275 
L 157.43181 646.15814 
L 160.642932 645.940188 
L 169.634074 644.800949 
L 170.918523 644.69134 
L 172.202972 644.419953 
L 174.129645 644.179464 
L 175.414094 643.97299 
L 177.340767 643.475826 
L 178.625216 643.348859 
L 181.194113 642.537791 
L 183.763011 641.534608 
L 185.04746 641.222273 
L 186.331909 641.071131 
L 188.900806 640.503174 
L 192.754153 639.630941 
L 194.038601 639.460262 
L 194.680826 639.32383 
L 197.249723 638.394064 
L 199.818621 637.943588 
L 201.745294 637.675223 
L 204.314192 637.379895 
L 206.88309 636.199052 
L 208.167538 635.482764 
L 209.451987 635.224144 
L 210.736436 635.056018 
L 212.663109 634.324597 
L 213.947558 633.496568 
L 215.874231 632.83355 
L 217.15868 632.374992 
L 219.085353 631.565798 
L 220.369802 630.975118 
L 221.654251 630.539377 
L 222.9387 630.36427 
L 224.223148 629.643695 
L 225.507597 628.846893 
L 226.792046 628.541094 
L 228.076495 628.002232 
L 229.360944 627.418323 
L 232.572066 626.128597 
L 233.21429 625.735209 
L 234.498739 625.238256 
L 236.425412 624.469588 
L 237.709861 624.05678 
L 240.278759 622.790082 
L 241.563207 622.314446 
L 243.489881 621.351439 
L 245.416554 620.700696 
L 246.701003 620.062018 
L 247.985451 619.370678 
L 249.2699 618.596552 
L 250.554349 618.167018 
L 251.838798 617.102226 
L 254.407696 615.881067 
L 255.692144 614.825809 
L 256.976593 613.998976 
L 258.903266 612.596595 
L 260.187715 611.382136 
L 261.472164 610.283096 
L 262.114388 609.475916 
L 264.041062 607.975101 
L 265.967735 606.8606 
L 267.252184 606.30609 
L 268.536632 605.485979 
L 269.178857 604.963047 
L 271.10553 602.734958 
L 272.389979 601.574073 
L 274.958877 600.192612 
L 276.243325 598.740125 
L 276.88555 597.992001 
L 278.169999 596.945903 
L 278.812223 596.594142 
L 280.738896 594.516938 
L 283.950018 592.439944 
L 285.876691 590.864659 
L 287.16114 589.363118 
L 287.803365 588.295444 
L 289.087813 586.705752 
L 291.014487 583.641248 
L 292.94116 581.810435 
L 293.583384 581.412666 
L 294.867833 580.117412 
L 295.510057 579.387654 
L 296.794506 578.336707 
L 300.005628 575.340676 
L 301.932302 572.811472 
L 302.574526 572.333939 
L 303.21675 571.627185 
L 305.143424 568.738444 
L 306.427872 568.09911 
L 307.070097 567.640551 
L 310.281219 563.3841 
L 312.207892 559.936304 
L 312.850116 559.071286 
L 313.492341 558.39522 
L 314.134565 558.127207 
L 314.77679 557.603853 
L 316.061238 555.597183 
L 316.703463 554.771427 
L 317.345687 553.711812 
L 317.987912 552.988122 
L 320.556809 549.21923 
L 321.841258 546.797691 
L 322.483483 545.949469 
L 323.767931 542.985602 
L 324.410156 542.206673 
L 326.336829 538.419439 
L 328.905727 533.43419 
L 330.8324 530.551399 
L 331.474624 529.193903 
L 332.116849 527.508681 
L 332.759073 526.748376 
L 334.043522 525.664609 
L 335.327971 523.457157 
L 335.970195 521.306748 
L 336.612419 519.764891 
L 337.254644 518.547878 
L 343.034663 505.245004 
L 343.676888 503.973527 
L 344.319112 503.312477 
L 344.961337 503.123197 
L 345.603561 502.284627 
L 346.88801 499.972603 
L 347.530234 498.659896 
L 348.172459 497.703003 
L 348.814683 497.002153 
L 349.456908 496.591242 
L 350.741356 495.038141 
L 352.025805 492.574881 
L 352.66803 491.806776 
L 353.952478 489.012252 
L 354.594703 487.187624 
L 355.879152 484.690045 
L 357.805825 480.277649 
L 358.448049 478.363112 
L 359.732498 475.098552 
L 360.374722 472.891991 
L 361.016947 471.347019 
L 361.659171 469.48683 
L 362.301396 468.019748 
L 363.585844 466.131566 
L 366.796966 456.697939 
L 368.081415 454.081779 
L 370.650313 449.401369 
L 371.292537 447.213221 
L 372.576986 444.383817 
L 373.861435 442.099295 
L 375.788108 437.652627 
L 377.072557 434.170957 
L 378.99923 429.831719 
L 380.925903 425.777432 
L 382.210352 422.523039 
L 382.852577 421.172828 
L 384.137025 417.550651 
L 385.421474 412.804883 
L 386.063699 410.856286 
L 386.705923 408.097956 
L 387.990372 404.300461 
L 388.632596 403.05337 
L 389.274821 402.121589 
L 389.917045 400.811717 
L 391.201494 399.769788 
L 391.843718 398.67309 
L 392.485943 396.998995 
L 393.128167 395.814685 
L 394.412616 392.873166 
L 396.339289 387.650497 
L 396.981514 385.858103 
L 398.265962 381.092611 
L 398.908187 377.933279 
L 399.550411 375.792497 
L 400.192636 374.611326 
L 400.83486 373.185778 
L 401.477084 372.480477 
L 402.119309 371.50995 
L 402.761533 370.277195 
L 404.045982 366.831929 
L 405.330431 364.119185 
L 405.972655 362.250095 
L 407.257104 357.45251 
L 409.183777 352.261654 
L 410.468226 347.980277 
L 411.752675 344.91671 
L 412.394899 343.446138 
L 413.037124 342.492524 
L 413.679348 340.682935 
L 414.963797 338.767602 
L 416.248246 335.157513 
L 416.89047 332.417688 
L 417.532695 330.603414 
L 418.817143 328.276585 
L 419.459368 327.28877 
L 420.101592 325.235975 
L 421.386041 319.595205 
L 422.028265 317.332937 
L 422.67049 316.170319 
L 424.597163 310.231808 
L 425.239387 308.410975 
L 425.881612 306.946915 
L 426.523836 305.878468 
L 427.166061 305.163797 
L 431.019407 294.861264 
L 431.661631 293.273844 
L 432.303856 292.082881 
L 432.94608 290.656161 
L 434.230529 287.10562 
L 434.872753 285.552918 
L 435.514978 284.640346 
L 437.441651 280.60269 
L 438.083875 279.061747 
L 438.7261 278.056456 
L 440.010549 274.437793 
L 440.652773 272.278084 
L 443.221671 266.478628 
L 445.790568 262.822343 
L 446.432793 262.223676 
L 447.717242 259.54607 
L 450.928364 253.946857 
L 453.497261 249.624252 
L 454.139486 248.186194 
L 455.423934 244.968814 
L 456.066159 243.74318 
L 456.708383 242.824893 
L 457.350608 241.564027 
L 457.992832 240.659467 
L 458.635056 239.965129 
L 459.919505 238.147809 
L 464.415076 228.43893 
L 465.057301 227.818805 
L 468.910647 222.609162 
L 470.83732 220.257595 
L 472.121769 217.70677 
L 474.048442 215.43218 
L 474.690667 215.100097 
L 475.332891 214.454157 
L 475.975115 212.736537 
L 477.259564 210.204405 
L 479.186237 206.110622 
L 479.828462 205.12946 
L 480.470686 203.881853 
L 481.112911 202.922711 
L 482.397359 201.828637 
L 484.324033 200.316882 
L 486.250706 197.786296 
L 486.89293 196.103393 
L 488.177379 193.992081 
L 488.819604 193.211115 
L 490.104052 192.222597 
L 490.746277 192.326794 
L 491.388501 192.688628 
L 492.030726 192.540437 
L 493.315174 191.186899 
L 493.957399 191.178747 
L 495.884072 190.136772 
L 497.168521 188.741115 
L 497.810745 188.211131 
L 499.095194 186.539473 
L 499.737418 185.896625 
L 500.379643 185.702238 
L 501.021867 185.635662 
L 501.664092 185.724867 
L 502.94854 184.469811 
L 503.590765 184.325322 
L 504.232989 184.433876 
L 506.801887 183.668277 
L 508.086336 182.880658 
L 508.72856 182.090556 
L 510.013009 181.220384 
L 510.655233 180.412807 
L 511.297458 179.867081 
L 511.939682 179.166934 
L 513.224131 177.564334 
L 515.150804 175.745749 
L 515.793029 175.42805 
L 517.077477 175.103979 
L 519.646375 172.587589 
L 520.288599 172.14831 
L 520.930824 171.110973 
L 522.215273 170.393584 
L 523.499721 169.266151 
L 524.78417 167.598803 
L 526.068619 166.642238 
L 526.710843 165.974652 
L 529.279741 164.931599 
L 530.56419 163.654101 
L 531.206414 162.702455 
L 532.490863 161.283185 
L 533.775312 160.600138 
L 535.701985 160.027661 
L 536.34421 159.978701 
L 536.986434 159.719238 
L 538.270883 158.818285 
L 540.197556 157.475711 
L 542.124229 156.036435 
L 543.408678 155.693342 
L 544.050902 155.414623 
L 545.335351 154.515076 
L 545.977576 154.363512 
L 547.262024 153.906148 
L 547.904249 153.797453 
L 549.188698 152.554063 
L 549.830922 152.009087 
L 550.473146 151.676864 
L 553.042044 151.337051 
L 554.326493 151.528954 
L 554.968717 151.382262 
L 556.253166 150.42551 
L 557.537615 149.372524 
L 558.822064 148.911646 
L 559.464288 149.217165 
L 560.106513 149.365777 
L 561.390961 149.026854 
L 562.033186 149.077313 
L 563.959859 148.83556 
L 564.602083 148.874587 
L 565.886532 148.386911 
L 566.528757 147.990876 
L 567.813205 147.891925 
L 568.45543 147.628058 
L 569.097654 147.242002 
L 570.382103 146.224624 
L 571.024327 145.922011 
L 572.951001 144.232923 
L 573.593225 143.988125 
L 574.235449 144.245011 
L 574.877674 144.308776 
L 575.519898 144.068194 
L 576.162123 143.964652 
L 578.088796 143.12217 
L 578.73102 142.841905 
L 579.373245 142.801847 
L 580.015469 142.610178 
L 580.657693 141.973514 
L 581.942142 141.391432 
L 583.226591 141.134077 
L 587.079938 139.476146 
L 587.722162 139.338028 
L 589.006611 138.903949 
L 589.648835 138.759506 
L 592.217733 137.75787 
L 592.859957 137.575852 
L 594.144406 136.999392 
L 594.78663 136.957273 
L 596.071079 136.231638 
L 596.713304 136.028256 
L 599.282201 135.774368 
L 601.208874 135.086355 
L 601.851099 135.030743 
L 603.135548 134.522498 
L 604.419996 134.075864 
L 605.704445 133.746639 
L 610.842241 133.323945 
L 611.484465 133.359927 
L 612.768914 133.053753 
L 614.053363 132.313126 
L 614.695587 132.009904 
L 616.62226 131.712163 
L 618.548933 131.806756 
L 619.191158 131.647086 
L 619.833382 131.357591 
L 623.044504 131.098128 
L 624.328953 130.792376 
L 625.613402 130.760704 
L 627.540075 130.32686 
L 628.182299 130.088433 
L 628.824524 130.033149 
L 630.108973 129.725663 
L 631.393422 129.429562 
L 633.320095 128.877652 
L 639.100114 128.397472 
L 640.384563 128.058408 
L 645.522358 127.556395 
L 648.091256 126.947561 
L 650.017929 126.636983 
L 653.229051 125.975394 
L 654.5135 125.471554 
L 655.797949 125.115624 
L 657.724622 125.032181 
L 658.366847 124.853022 
L 660.935744 124.745685 
L 662.220193 124.925079 
L 663.504642 124.884693 
L 666.715764 124.269815 
L 667.357988 124.291414 
L 668.642437 123.98121 
L 674.422457 123.910746 
L 675.706905 124.340139 
L 676.34913 124.324772 
L 677.633579 124.422738 
L 678.275803 124.32688 
L 678.918028 124.118485 
L 680.844701 124.015693 
L 682.12915 123.807532 
L 682.771374 123.929486 
L 684.055823 123.895847 
L 685.340272 123.997702 
L 686.62472 124.124482 
L 689.835842 123.922833 
L 692.40474 123.647816 
L 694.331413 123.090893 
L 696.258086 123.120737 
L 697.542535 123.129733 
L 700.111433 123.667353 
L 703.964779 123.608742 
L 706.533677 123.144725 
L 707.818126 122.690407 
L 708.46035 122.410657 
L 709.744799 122.314987 
L 711.029248 122.440736 
L 714.882594 122.552476 
L 715.524819 122.508811 
L 716.809267 122.708351 
L 718.093716 122.279051 
L 721.304838 122.530035 
L 723.231511 122.450668 
L 725.800409 122.532283 
L 727.084858 122.424103 
L 727.727082 122.247567 
L 728.369307 122.26776 
L 730.938204 122.82309 
L 731.580429 122.811049 
L 732.222653 122.468565 
L 733.507102 122.291608 
L 734.149326 122.45198 
L 734.791551 122.493209 
L 736.076 122.387372 
L 737.360448 122.600265 
L 738.644897 122.691859 
L 739.287122 122.59825 
L 739.929346 122.67771 
L 742.498244 122.471517 
L 743.782692 122.477514 
L 745.709366 122.411688 
L 747.636039 121.991712 
L 750.847161 122.215943 
L 751.489385 122.773568 
L 753.416059 123.00745 
L 754.058283 123.033734 
L 755.342732 122.713645 
L 758.553854 121.821407 
L 759.838303 121.535238 
L 766.260547 122.103265 
L 767.544995 122.625377 
L 769.471669 122.203855 
L 770.756117 122.163375 
L 772.040566 121.988807 
L 772.682791 121.989697 
L 773.96724 121.64473 
L 774.609464 121.554541 
L 776.536137 121.794655 
L 777.178362 121.784254 
L 779.747259 122.280504 
L 780.389484 122.276803 
L 781.031708 122.155739 
L 781.673932 122.170872 
L 782.958381 122.496957 
L 784.24283 122.317844 
L 784.885054 122.179867 
L 785.527279 122.272164 
L 786.169503 122.214537 
L 787.453952 121.756237 
L 791.307298 121.749818 
L 792.591747 121.333637 
L 793.876196 121.304401 
L 796.445094 121.652133 
L 797.729543 121.538284 
L 799.013991 121.813536 
L 802.225113 121.612262 
L 803.509562 121.18985 
L 804.794011 121.037301 
L 805.436235 120.984968 
L 806.720684 120.458968 
L 808.005133 119.932358 
L 808.647357 119.790913 
L 809.931806 120.297049 
L 810.574031 120.400919 
L 811.216255 120.304545 
L 815.069601 120.424251 
L 816.996275 120.14839 
L 818.280723 119.760835 
L 818.922948 119.497811 
L 821.491846 119.906121 
L 824.060743 120.174626 
L 824.702968 120.283322 
L 825.345192 120.231598 
L 825.987416 120.058435 
L 826.629641 119.76463 
L 828.556314 119.458924 
L 830.482987 119.880118 
L 831.767436 120.130258 
L 832.40966 120.211358 
L 836.263007 119.919614 
L 836.905231 120.097509 
L 838.18968 120.208968 
L 838.831904 120.476068 
L 840.116353 120.606503 
L 840.758578 120.496214 
L 843.9697 120.660241 
L 845.254149 120.454845 
L 845.896373 120.661131 
L 846.538597 120.999446 
L 847.180822 121.105658 
L 853.603066 121.045547 
L 856.814188 121.787158 
L 857.456412 121.850033 
L 858.098637 121.49846 
L 858.740861 120.946035 
L 860.02531 120.50521 
L 861.309759 120.511957 
L 862.594207 120.000714 
L 864.520881 119.571836 
L 866.447554 119.653826 
L 867.732003 119.314153 
L 871.585349 119.487972 
L 872.227574 119.436342 
L 872.869798 118.874125 
L 873.512022 118.65575 
L 874.154247 118.826149 
L 875.438696 118.620752 
L 878.649818 118.455648 
L 879.934266 118.023818 
L 881.86094 117.958835 
L 883.787613 118.539559 
L 884.429837 118.542932 
L 885.072062 118.720546 
L 885.714286 118.766882 
L 886.998735 118.637994 
L 888.283184 118.695668 
L 888.925408 118.715345 
L 890.209857 119.18072 
L 890.852081 119.179127 
L 891.494306 119.296912 
L 892.13653 119.188872 
L 893.420979 118.416011 
L 894.063203 118.263698 
L 894.705428 118.28033 
L 895.347652 118.733758 
L 899.200999 118.876889 
L 901.127672 118.857539 
L 901.769896 119.003622 
L 904.338794 119.00901 
L 904.981018 118.706771 
L 906.265467 118.524566 
L 909.476589 118.65739 
L 910.118813 118.441358 
L 910.761038 118.080274 
L 911.403262 117.93049 
L 912.687711 118.04804 
L 917.825506 117.763184 
L 919.109955 117.963427 
L 920.394404 118.115413 
L 921.036628 118.276582 
L 922.321077 118.064532 
L 922.963302 118.191125 
L 924.889975 117.920745 
L 926.174424 117.758077 
L 926.816648 117.734604 
L 928.101097 118.274567 
L 929.385546 118.314906 
L 930.669994 117.856278 
L 931.312219 117.776677 
L 932.596668 118.016697 
L 933.238892 118.099718 
L 933.881116 117.72411 
L 934.523341 117.515059 
L 935.80779 117.909267 
L 936.450014 118.104168 
L 937.734463 118.187283 
L 938.376687 118.433487 
L 939.018912 118.499266 
L 940.303361 118.289325 
L 940.945585 117.971485 
L 941.587809 117.849344 
L 942.872258 117.954478 
L 943.514483 117.832149 
L 944.156707 117.580791 
L 945.441156 117.458087 
L 948.010053 117.475282 
L 948.652278 117.548698 
L 949.936727 117.153132 
L 951.221175 117.070532 
L 951.8634 117.391371 
L 953.147849 117.580932 
L 955.716746 117.270635 
L 956.358971 117.28633 
L 957.001195 117.527053 
L 957.643419 117.646149 
L 958.285644 117.39376 
L 958.927868 117.402756 
L 959.570093 117.182929 
L 963.423439 117.071282 
L 964.065664 117.109325 
L 965.350112 117.319407 
L 967.276786 117.220457 
L 967.91901 117.269932 
L 968.561234 117.171732 
L 970.487908 117.215866 
L 971.130132 117.540312 
L 971.772356 118.032298 
L 972.414581 118.380873 
L 973.056805 118.589268 
L 973.69903 118.579664 
L 974.341254 118.392024 
L 974.983478 118.680113 
L 975.625703 118.709208 
L 976.910152 118.430301 
L 978.1946 118.360539 
L 978.836825 118.179787 
L 979.479049 118.56692 
L 980.121274 118.529298 
L 981.405722 118.195716 
L 982.047947 117.661751 
L 982.690171 117.715349 
L 983.97462 118.085662 
L 984.616844 117.730013 
L 985.901293 117.443236 
L 986.543518 117.677071 
L 988.470191 117.747442 
L 991.039089 118.125252 
L 992.323537 118.456491 
L 992.965762 118.245707 
L 993.607986 118.177116 
L 994.892435 118.222703 
L 996.176884 118.093861 
L 996.819108 118.355292 
L 1001.956903 118.818559 
L 1002.599128 118.842547 
L 1003.883577 118.62614 
L 1005.81025 118.608711 
L 1008.379147 117.948294 
L 1009.021372 118.170979 
L 1010.305821 118.217408 
L 1011.59027 118.184284 
L 1012.232494 118.589409 
L 1013.516943 119.106461 
L 1014.159167 119.821039 
L 1014.801392 119.993827 
L 1018.654738 119.728601 
L 1021.223636 118.960847 
L 1021.86586 119.000577 
L 1023.792533 119.393519 
L 1025.076982 119.502964 
L 1025.719206 119.417601 
L 1026.361431 119.591514 
L 1027.64588 120.485954 
L 1028.288104 120.439103 
L 1030.857002 119.632649 
L 1031.499226 119.776577 
L 1032.783675 120.429545 
L 1034.068124 120.63288 
L 1035.352573 120.0463 
L 1035.994797 121.027697 
L 1036.637021 121.4934 
L 1037.92147 121.729203 
L 1038.563695 121.802854 
L 1039.205919 121.733701 
L 1039.848143 121.822906 
L 1041.774817 121.808898 
L 1042.417041 121.576514 
L 1043.70149 121.817706 
L 1044.985939 121.297655 
L 1045.628163 121.159818 
L 1049.481509 121.15874 
L 1051.408183 120.614889 
L 1052.692631 120.944723 
L 1053.334856 121.317895 
L 1054.619305 121.304308 
L 1055.903753 121.058525 
L 1057.188202 120.928747 
L 1059.114876 121.32778 
L 1061.041549 120.88213 
L 1062.968222 120.919002 
L 1063.610446 120.822394 
L 1064.894895 120.841275 
L 1066.821568 120.668862 
L 1067.463793 120.76294 
L 1068.748242 120.018705 
L 1069.390466 119.945242 
L 1071.317139 119.972978 
L 1071.959364 119.977335 
L 1072.601588 120.188916 
L 1075.81271 120.544378 
L 1078.381608 120.140753 
L 1079.023832 120.235346 
L 1080.308281 120.789176 
L 1080.950505 120.944489 
L 1082.234954 120.971335 
L 1082.877179 121.047047 
L 1083.519403 120.619902 
L 1083.519403 120.619902 
" clip-path="url(#p1e6aa0fad9)" style="fill: none; stroke-dasharray: 9.25,4; stroke-dashoffset: 0; stroke: #000000; stroke-width: 2.5"/>
   </g>
   <g id="line2d_32">
    <path d="M 95.136043 651.623077 
L 97.062716 651.546991 
L 100.916063 651.593116 
L 116.329448 651.190545 
L 118.256122 651.155242 
L 120.182795 651.075408 
L 121.467244 651.04814 
L 123.393917 650.993956 
L 127.247263 650.864201 
L 131.10061 650.711466 
L 132.385059 650.659625 
L 136.238405 650.401684 
L 138.165078 650.43434 
L 142.660649 650.407353 
L 144.587322 650.181553 
L 145.871771 650.147468 
L 147.798444 650.230677 
L 150.367342 650.091785 
L 155.505137 650.082579 
L 156.789586 650.028583 
L 157.43181 649.946476 
L 159.358484 650.082931 
L 160.642932 650.003072 
L 161.927381 650.1351 
L 165.138503 649.750285 
L 181.836338 649.623459 
L 183.120787 649.81911 
L 184.405235 649.878471 
L 188.258582 649.747498 
L 189.543031 649.931319 
L 190.827479 650.139738 
L 192.754153 650.245435 
L 194.038601 650.032378 
L 199.818621 649.303721 
L 201.10307 649.063139 
L 204.314192 648.934485 
L 205.598641 648.889367 
L 206.88309 649.13276 
L 207.525314 649.337852 
L 208.809763 649.576045 
L 211.37866 649.993561 
L 213.947558 650.303718 
L 216.516456 649.9383 
L 221.012026 650.436214 
L 221.654251 650.465988 
L 222.9387 650.33129 
L 224.223148 650.530057 
L 224.865373 650.449285 
L 228.076495 650.697973 
L 228.718719 650.994823 
L 229.360944 651.098716 
L 233.21429 651.001289 
L 234.498739 651.200641 
L 235.140963 651.116262 
L 236.425412 651.44031 
L 237.709861 651.780498 
L 238.352085 651.723339 
L 244.774329 652.324841 
L 245.416554 652.273937 
L 246.701003 652.64165 
L 247.343227 652.649475 
L 249.2699 652.364384 
L 249.912125 652.524264 
L 251.196574 653.328059 
L 251.838798 653.559657 
L 255.04992 652.962102 
L 255.692144 652.94164 
L 256.976593 653.553285 
L 258.261042 653.908501 
L 258.903266 653.972172 
L 260.187715 653.892958 
L 261.472164 653.885837 
L 264.041062 654.274985 
L 265.967735 654.294323 
L 266.609959 654.400605 
L 267.894408 654.393858 
L 269.178857 654.99912 
L 269.821081 655.428935 
L 271.10553 655.701563 
L 271.747754 656.034736 
L 272.389979 656.215383 
L 273.032203 656.111244 
L 274.958877 656.536444 
L 275.601101 656.821734 
L 276.88555 656.857821 
L 277.527774 657.053168 
L 278.812223 657.118304 
L 279.454447 657.440548 
L 280.738896 658.368487 
L 281.381121 658.507062 
L 282.023345 658.465247 
L 283.307794 658.627329 
L 284.592243 658.607089 
L 285.234467 658.516725 
L 285.876691 658.544086 
L 286.518916 658.951553 
L 288.445589 659.709 
L 289.087813 659.95716 
L 291.014487 660.404275 
L 291.656711 660.606895 
L 292.94116 660.669547 
L 293.583384 660.739204 
L 295.510057 661.37807 
L 296.794506 661.413923 
L 297.436731 661.564878 
L 298.078955 661.842332 
L 298.72118 662.275579 
L 300.005628 662.534339 
L 300.647853 662.47239 
L 302.574526 663.282509 
L 304.501199 663.610844 
L 305.143424 663.663669 
L 305.785648 663.525926 
L 306.427872 663.744254 
L 307.070097 663.656044 
L 307.712321 663.763931 
L 308.354546 664.199275 
L 308.99677 664.807933 
L 312.207892 666.793965 
L 312.850116 667.407519 
L 313.492341 667.856707 
L 315.419014 668.471187 
L 316.061238 668.47948 
L 316.703463 668.336267 
L 317.345687 668.454695 
L 317.987912 668.719335 
L 318.630136 669.217495 
L 321.199034 670.638534 
L 321.841258 670.786935 
L 322.483483 671.08142 
L 323.767931 672.190065 
L 325.05238 672.674345 
L 325.694605 672.880655 
L 326.979053 673.594073 
L 328.905727 674.33114 
L 329.547951 674.494803 
L 330.190175 675.104973 
L 330.8324 675.477781 
L 332.759073 676.109784 
L 333.401297 676.047623 
L 334.043522 676.185765 
L 335.327971 676.848244 
L 335.970195 677.597843 
L 339.823541 680.70599 
L 340.465766 681.129562 
L 341.750215 682.550788 
L 342.392439 682.969042 
L 343.034663 683.008456 
L 344.319112 683.637424 
L 346.245786 684.676027 
L 346.88801 685.097654 
L 347.530234 685.656439 
L 348.172459 685.668843 
L 349.456908 685.291994 
L 350.099132 685.497145 
L 350.741356 685.86446 
L 352.025805 687.322007 
L 352.66803 687.702207 
L 353.310254 688.32013 
L 354.594703 689.857735 
L 355.879152 690.170339 
L 357.1636 690.947686 
L 357.805825 691.702182 
L 358.448049 692.231216 
L 359.732498 692.710389 
L 361.016947 694.283132 
L 361.659171 694.92071 
L 363.585844 695.4971 
L 366.154742 698.537429 
L 367.439191 699.615398 
L 368.72364 700.330889 
L 369.365864 700.683973 
L 370.650313 701.618518 
L 372.576986 703.996439 
L 374.503659 705.035193 
L 377.714781 707.349806 
L 378.357006 707.857288 
L 379.641455 709.350373 
L 380.925903 710.367787 
L 382.210352 711.046945 
L 382.852577 711.29008 
L 386.063699 714.36091 
L 387.348147 716.015327 
L 388.632596 717.4684 
L 389.917045 718.392017 
L 390.559269 718.495887 
L 391.201494 718.74297 
L 391.843718 719.112135 
L 393.770392 720.823606 
L 394.412616 721.056282 
L 397.623738 724.181342 
L 398.265962 725.196811 
L 398.908187 726.548779 
L 399.550411 727.58676 
L 400.83486 728.614247 
L 402.119309 728.943894 
L 405.330431 732.141163 
L 406.61488 734.004971 
L 408.541553 736.537302 
L 409.183777 737.118061 
L 410.468226 738.626161 
L 411.752675 739.991001 
L 413.037124 740.845009 
L 413.679348 741.578433 
L 414.321572 741.709828 
L 414.963797 741.989027 
L 415.606021 742.535303 
L 416.248246 743.367337 
L 416.89047 744.497382 
L 417.532695 745.292919 
L 419.459368 746.928478 
L 422.028265 750.711437 
L 422.67049 750.838077 
L 423.312714 751.231143 
L 424.597163 752.767184 
L 425.239387 753.463677 
L 426.523836 754.289199 
L 427.166061 754.370065 
L 430.377183 757.426013 
L 434.230529 761.596738 
L 434.872753 761.988199 
L 435.514978 761.998243 
L 436.799427 762.903676 
L 440.010549 766.004572 
L 440.652773 766.812044 
L 441.294998 767.394665 
L 441.937222 767.718362 
L 443.221671 768.754668 
L 443.863895 768.997107 
L 444.50612 769.397657 
L 445.148344 769.999007 
L 446.432793 770.86133 
L 447.075017 771.533478 
L 450.286139 773.916125 
L 451.570588 774.474699 
L 452.855037 774.851209 
L 454.139486 775.700326 
L 455.423934 777.127854 
L 456.708383 777.813571 
L 457.992832 778.453743 
L 459.919505 778.946626 
L 460.56173 779.352664 
L 461.846178 780.814217 
L 464.415076 783.251446 
L 465.057301 783.302063 
L 466.341749 784.043469 
L 467.626198 784.964662 
L 470.195096 786.204842 
L 470.83732 786.409559 
L 471.479545 786.918108 
L 472.763993 787.463576 
L 473.406218 787.749697 
L 474.048442 788.209497 
L 475.332891 788.748446 
L 476.61734 790.074347 
L 477.259564 790.481416 
L 480.470686 793.54284 
L 481.112911 793.845348 
L 482.397359 793.898618 
L 483.681808 793.942576 
L 484.324033 794.124184 
L 486.250706 795.205322 
L 487.535155 796.409344 
L 488.177379 796.916224 
L 490.104052 797.447256 
L 490.746277 797.418301 
L 491.388501 797.169649 
L 492.030726 797.089973 
L 493.315174 797.45296 
L 494.599623 797.572677 
L 495.884072 797.791133 
L 497.168521 798.466555 
L 497.810745 798.668473 
L 499.737418 799.687538 
L 500.379643 799.777165 
L 501.664092 799.529983 
L 502.306316 799.665143 
L 502.94854 799.958667 
L 504.875214 800.077011 
L 505.517438 800.289254 
L 506.159662 800.334987 
L 510.013009 801.183419 
L 510.655233 801.600382 
L 515.793029 803.535135 
L 517.719702 803.822735 
L 519.004151 804.372179 
L 520.288599 804.891094 
L 520.930824 805.35393 
L 524.141946 806.443753 
L 524.78417 806.800436 
L 526.068619 807.151584 
L 526.710843 807.41517 
L 529.279741 807.689702 
L 532.490863 808.965893 
L 534.417536 809.035805 
L 535.701985 809.162725 
L 536.34421 809.121253 
L 536.986434 809.282149 
L 537.628658 809.697057 
L 538.913107 810.11428 
L 539.555332 810.088342 
L 540.197556 810.203825 
L 540.83978 810.440603 
L 541.482005 810.551905 
L 542.124229 810.817318 
L 545.335351 811.467598 
L 547.904249 811.483337 
L 549.830922 812.242125 
L 550.473146 812.453756 
L 553.684268 812.553406 
L 554.968717 812.47409 
L 558.179839 813.337951 
L 558.822064 813.511717 
L 560.748737 813.27895 
L 562.67541 813.308147 
L 563.317635 813.464549 
L 565.244308 813.573458 
L 566.528757 813.881995 
L 567.813205 813.666681 
L 570.382103 814.384321 
L 572.308776 814.644077 
L 573.593225 814.920893 
L 574.877674 814.897251 
L 578.73102 815.450876 
L 579.373245 815.355721 
L 580.015469 815.395109 
L 580.657693 815.688243 
L 585.795489 816.528348 
L 591.575508 816.950857 
L 592.859957 817.144541 
L 593.502182 817.379808 
L 595.428855 817.635532 
L 596.071079 817.842275 
L 597.355528 817.796352 
L 599.282201 817.695689 
L 601.208874 818.234477 
L 602.493323 818.06843 
L 605.704445 818.537372 
L 606.34667 818.448603 
L 608.273343 818.44325 
L 612.768914 818.553152 
L 614.695587 819.073674 
L 617.906709 818.996369 
L 619.191158 818.992243 
L 620.475607 819.163225 
L 621.760055 819.156824 
L 622.40228 819.048676 
L 624.328953 819.353433 
L 625.613402 819.126944 
L 626.897851 819.253124 
L 628.182299 819.455826 
L 629.466748 819.357274 
L 630.751197 819.423502 
L 633.962319 819.64122 
L 637.173441 819.562964 
L 640.384563 819.738458 
L 642.311236 819.686722 
L 645.522358 819.706517 
L 646.806807 819.738718 
L 648.091256 819.908329 
L 649.375705 819.839929 
L 658.366847 820.392746 
L 659.009071 820.307981 
L 660.935744 820.336132 
L 662.862417 820.104596 
L 664.789091 820.137986 
L 666.073539 820.324873 
L 669.284661 820.326112 
L 671.211335 820.364381 
L 674.422457 820.257563 
L 675.706905 819.925254 
L 676.34913 819.949752 
L 677.633579 819.725878 
L 679.560252 819.997587 
L 680.844701 819.870623 
L 682.12915 819.975939 
L 682.771374 819.853522 
L 683.413598 819.952873 
L 686.62472 819.690704 
L 687.909169 819.644564 
L 689.193618 819.782884 
L 689.835842 819.746507 
L 690.478067 819.827674 
L 692.40474 819.701905 
L 693.689189 820.049876 
L 698.826984 819.773678 
L 699.469208 819.640623 
L 700.753657 819.631484 
L 703.322555 819.464119 
L 704.607004 819.557154 
L 705.891453 819.593611 
L 709.744799 820.015783 
L 712.955921 819.841332 
L 714.24037 819.852049 
L 714.882594 819.782662 
L 715.524819 819.85787 
L 716.809267 819.688133 
L 718.735941 819.827382 
L 720.020389 819.721966 
L 722.589287 819.669258 
L 725.800409 819.565714 
L 727.084858 819.588533 
L 728.369307 819.626726 
L 730.938204 819.347755 
L 731.580429 819.371178 
L 732.222653 819.556229 
L 733.507102 819.623572 
L 734.149326 819.450895 
L 734.791551 819.398542 
L 735.433775 819.510564 
L 736.718224 819.410486 
L 738.002673 819.280731 
L 740.57157 819.294786 
L 745.709366 819.339752 
L 747.636039 819.562548 
L 749.562712 819.40848 
L 750.847161 819.480596 
L 751.489385 819.182788 
L 752.773834 819.063797 
L 754.700507 819.023177 
L 755.984956 819.199002 
L 757.269405 819.260831 
L 759.196078 819.543521 
L 760.480527 819.594334 
L 761.122751 819.459551 
L 763.049425 819.456881 
L 764.333873 819.370044 
L 765.618322 819.227303 
L 766.260547 819.291319 
L 767.544995 819.068333 
L 775.251688 819.378823 
L 776.536137 819.288959 
L 777.178362 819.366888 
L 778.46281 819.189573 
L 779.105035 819.009725 
L 780.389484 819.009045 
L 781.673932 819.097117 
L 782.958381 818.925913 
L 784.24283 818.996624 
L 784.885054 819.104783 
L 786.169503 819.055879 
L 787.453952 819.232881 
L 789.380625 819.153565 
L 791.307298 819.16909 
L 792.591747 819.436032 
L 793.876196 819.386434 
L 795.802869 819.250002 
L 801.582889 819.197491 
L 802.225113 819.210208 
L 803.509562 819.392439 
L 806.07846 819.576738 
L 808.005133 819.981142 
L 808.647357 820.024617 
L 809.931806 819.779008 
L 811.858479 819.746513 
L 817.638499 819.84168 
L 818.922948 820.131491 
L 820.849621 819.820787 
L 822.13407 819.841586 
L 823.418519 819.743646 
L 824.702968 819.609288 
L 828.556314 820.061404 
L 832.40966 819.611602 
L 833.694109 819.692587 
L 834.978558 819.689214 
L 835.620782 819.800829 
L 837.547456 819.66093 
L 840.116353 819.422679 
L 840.758578 819.523126 
L 845.896373 819.35307 
L 846.538597 819.210281 
L 849.107495 819.136411 
L 850.391944 819.130839 
L 854.887515 819.013994 
L 855.529739 818.824293 
L 856.171963 818.836298 
L 857.456412 818.734722 
L 860.02531 819.385866 
L 860.667534 819.300057 
L 861.309759 819.355679 
L 861.951983 819.555755 
L 865.163105 819.836424 
L 866.447554 819.811912 
L 867.732003 819.966709 
L 870.943125 819.805107 
L 872.227574 819.91803 
L 872.869798 820.222374 
L 873.512022 820.331371 
L 874.154247 820.194392 
L 878.649818 820.415566 
L 879.934266 820.683337 
L 881.86094 820.616582 
L 883.787613 820.267747 
L 888.925408 820.198782 
L 890.209857 819.944135 
L 892.13653 819.943386 
L 893.420979 820.313368 
L 894.705428 820.383941 
L 895.347652 820.139476 
L 903.696569 819.95798 
L 906.907691 820.208087 
L 909.476589 820.107497 
L 910.118813 820.239809 
L 910.761038 820.494681 
L 911.403262 820.528724 
L 912.045487 820.400246 
L 915.256609 820.466151 
L 915.898833 820.572015 
L 921.678853 820.301697 
L 922.321077 820.361968 
L 923.605526 820.299972 
L 926.816648 820.604966 
L 928.101097 820.20942 
L 929.385546 820.220278 
L 930.669994 820.44794 
L 931.954443 820.451548 
L 933.238892 820.256763 
L 934.523341 820.614524 
L 936.450014 820.26912 
L 937.734463 820.24211 
L 938.376687 820.103146 
L 940.303361 820.21455 
L 940.945585 820.387329 
L 944.156707 820.559567 
L 946.08338 820.555306 
L 946.725605 820.555031 
L 947.367829 820.672528 
L 949.294502 820.636664 
L 950.578951 820.748797 
L 951.221175 820.769186 
L 953.147849 820.449284 
L 955.074522 820.587944 
L 956.358971 820.672757 
L 957.643419 820.544422 
L 958.285644 820.630271 
L 958.927868 820.573845 
L 960.854541 820.806032 
L 963.423439 820.734554 
L 965.992337 820.668751 
L 967.276786 820.647384 
L 968.561234 820.662385 
L 970.487908 820.710765 
L 973.056805 819.909524 
L 978.836825 820.192512 
L 979.479049 819.988832 
L 980.763498 820.070725 
L 981.405722 820.148712 
L 982.047947 820.399399 
L 983.332396 820.213273 
L 983.97462 820.160773 
L 984.616844 820.372533 
L 985.901293 820.466406 
L 986.543518 820.32389 
L 991.039089 820.218664 
L 992.323537 819.975971 
L 993.607986 820.164934 
L 995.534659 820.135942 
L 996.176884 820.169994 
L 996.819108 819.956902 
L 998.103557 819.922279 
L 1000.03023 819.796085 
L 1000.672455 819.686731 
L 1004.525801 819.819191 
L 1005.168025 819.733093 
L 1005.81025 819.787558 
L 1007.094699 820.130865 
L 1008.379147 820.225847 
L 1009.021372 820.086482 
L 1011.59027 820.005086 
L 1012.874718 819.65655 
L 1013.516943 819.520967 
L 1014.159167 819.227022 
L 1016.08584 819.147857 
L 1016.728065 819.115266 
L 1019.939187 819.518517 
L 1021.86586 819.584858 
L 1023.150309 819.450099 
L 1026.361431 819.323764 
L 1027.64588 818.857346 
L 1028.930328 818.966598 
L 1029.572553 819.023859 
L 1030.857002 819.295802 
L 1031.499226 819.220747 
L 1032.783675 818.888394 
L 1033.425899 818.90476 
L 1034.068124 818.79535 
L 1035.352573 819.135237 
L 1035.994797 818.60352 
L 1036.637021 818.300084 
L 1037.92147 818.21841 
L 1041.774817 818.198255 
L 1042.417041 818.325381 
L 1043.70149 818.088439 
L 1045.628163 818.459367 
L 1049.481509 818.383819 
L 1051.408183 818.687056 
L 1052.692631 818.500432 
L 1053.334856 818.255607 
L 1056.545978 818.515062 
L 1057.188202 818.581766 
L 1059.114876 818.308189 
L 1062.325998 818.471636 
L 1063.610446 818.566282 
L 1066.821568 818.691668 
L 1067.463793 818.610463 
L 1068.748242 818.989274 
L 1069.390466 819.022275 
L 1070.03269 818.941281 
L 1071.959364 819.034702 
L 1073.243812 818.850799 
L 1075.81271 818.673329 
L 1077.097159 818.841815 
L 1078.381608 818.965831 
L 1079.023832 818.973072 
L 1080.950505 818.533966 
L 1082.877179 818.468313 
L 1083.519403 818.704224 
L 1083.519403 818.704224 
" clip-path="url(#p1e6aa0fad9)" style="fill: none; stroke: #1f77b4; stroke-width: 2; stroke-linecap: square"/>
   </g>
   <g id="line2d_33">
    <path d="M 95.136043 655.707935 
L 108.622756 656.372464 
L 113.760551 656.938054 
L 115.687224 657.239789 
L 118.256122 657.468811 
L 119.54057 657.6892 
L 122.751692 657.769772 
L 126.605039 657.992551 
L 131.10061 658.660359 
L 133.669507 659.025379 
L 136.880629 659.564943 
L 138.807303 659.731547 
L 141.3762 660.145713 
L 146.513995 661.109705 
L 147.798444 661.067597 
L 151.009566 661.589428 
L 154.220688 661.62842 
L 157.43181 662.22102 
L 160.000708 662.299942 
L 161.285157 662.448027 
L 161.927381 662.508501 
L 163.21183 662.819617 
L 166.422952 663.280073 
L 168.99185 663.634059 
L 170.276298 663.670849 
L 175.414094 664.470322 
L 179.26744 665.501182 
L 179.909665 665.598785 
L 181.194113 665.937837 
L 184.405235 666.578354 
L 186.331909 666.833261 
L 187.616357 667.008872 
L 188.900806 667.157848 
L 190.185255 667.255451 
L 192.111928 667.385522 
L 192.754153 667.497767 
L 197.249723 669.174333 
L 198.534172 669.148682 
L 201.10307 669.752503 
L 202.387519 669.703016 
L 203.029743 669.621296 
L 204.314192 669.782148 
L 207.525314 671.0752 
L 208.167538 671.220018 
L 209.451987 671.134058 
L 211.37866 671.272714 
L 213.305334 671.839265 
L 214.589782 672.306596 
L 223.580924 674.036761 
L 226.149822 675.025197 
L 228.076495 675.482279 
L 228.718719 675.458104 
L 231.287617 676.061573 
L 232.572066 676.50617 
L 233.21429 676.630104 
L 233.856515 676.635913 
L 234.498739 676.773094 
L 235.783188 677.263137 
L 237.709861 677.139261 
L 242.205432 678.297675 
L 242.847656 678.429889 
L 243.489881 678.690102 
L 244.132105 678.812232 
L 246.058778 679.584156 
L 247.985451 680.146994 
L 249.2699 680.839212 
L 249.912125 680.869536 
L 250.554349 680.724391 
L 251.838798 680.839985 
L 253.123247 681.173169 
L 256.334369 682.168105 
L 256.976593 682.328361 
L 260.187715 684.055409 
L 260.82994 684.177094 
L 263.398837 685.63586 
L 264.041062 685.871956 
L 266.609959 687.268222 
L 267.894408 687.523234 
L 268.536632 687.494924 
L 269.178857 687.581939 
L 271.10553 688.338625 
L 273.674428 688.853264 
L 279.454447 691.059017 
L 280.096672 691.19806 
L 283.950018 692.722676 
L 284.592243 693.215295 
L 287.16114 694.212691 
L 287.803365 694.664011 
L 289.087813 695.191523 
L 290.372262 696.318616 
L 292.94116 697.935306 
L 294.225609 698.222657 
L 295.510057 699.015126 
L 296.152282 699.028841 
L 296.794506 699.26564 
L 297.436731 699.620891 
L 298.078955 699.814598 
L 298.72118 699.824402 
L 299.363404 699.957999 
L 301.290077 701.042504 
L 302.574526 701.393901 
L 303.21675 701.677399 
L 305.143424 702.815514 
L 306.427872 703.003739 
L 308.99677 704.588032 
L 310.281219 705.321655 
L 312.850116 706.729259 
L 314.77679 707.43928 
L 316.703463 708.735553 
L 318.630136 709.680019 
L 319.914585 710.509044 
L 320.556809 710.80771 
L 321.841258 712.1454 
L 322.483483 712.507538 
L 323.125707 713.048437 
L 325.05238 713.909742 
L 326.979053 715.15045 
L 328.905727 716.846799 
L 330.190175 717.84676 
L 330.8324 718.144876 
L 332.116849 719.463345 
L 333.401297 719.697626 
L 334.043522 720.086258 
L 334.685746 720.671936 
L 335.327971 721.082554 
L 339.181317 724.294968 
L 340.465766 724.859129 
L 341.10799 724.930144 
L 341.750215 725.326156 
L 343.676888 726.870109 
L 344.319112 727.28396 
L 345.603561 727.85174 
L 346.88801 728.631301 
L 348.172459 729.610777 
L 350.099132 730.694216 
L 350.741356 730.802501 
L 351.383581 731.232597 
L 352.66803 731.319764 
L 353.952478 731.911146 
L 359.732498 736.691724 
L 360.374722 737.36464 
L 361.659171 737.992987 
L 366.154742 741.501514 
L 366.796966 742.216362 
L 368.72364 743.440987 
L 369.365864 744.038999 
L 370.008089 744.458881 
L 370.650313 745.028032 
L 371.292537 745.878163 
L 371.934762 746.145673 
L 373.219211 746.358226 
L 375.145884 747.687225 
L 375.788108 748.179247 
L 377.072557 749.59122 
L 378.99923 750.735531 
L 379.641455 750.958081 
L 380.925903 751.702562 
L 382.852577 753.583084 
L 383.494801 753.912461 
L 384.137025 754.43725 
L 385.421474 755.87242 
L 386.063699 756.386556 
L 387.348147 758.117458 
L 387.990372 758.724459 
L 388.632596 759.000408 
L 389.274821 759.151205 
L 389.917045 759.626044 
L 390.559269 759.763325 
L 391.201494 759.785152 
L 393.128167 760.679563 
L 393.770392 760.867367 
L 395.05484 761.943596 
L 399.550411 766.462662 
L 400.83486 766.615274 
L 401.477084 766.601594 
L 402.119309 766.93524 
L 402.761533 767.421107 
L 403.403758 768.211877 
L 404.688206 769.215639 
L 405.972655 769.766302 
L 407.899328 771.785012 
L 408.541553 772.234153 
L 411.11045 774.758039 
L 411.752675 775.229681 
L 412.394899 775.850866 
L 413.037124 776.147189 
L 414.321572 777.137904 
L 415.606021 777.899274 
L 416.248246 778.429386 
L 416.89047 779.2476 
L 417.532695 779.867034 
L 418.817143 780.336614 
L 419.459368 780.513338 
L 420.101592 780.898644 
L 422.028265 783.330226 
L 422.67049 783.731491 
L 423.312714 784.402872 
L 425.881612 786.113511 
L 427.166061 786.704208 
L 427.808285 787.209963 
L 429.092734 788.568244 
L 430.377183 789.67727 
L 432.94608 790.650269 
L 435.514978 792.352381 
L 436.799427 793.397366 
L 438.083875 794.246976 
L 438.7261 794.476641 
L 439.368324 794.872489 
L 441.294998 796.40798 
L 442.579446 797.083396 
L 443.863895 797.655235 
L 447.075017 798.274031 
L 447.717242 798.505541 
L 449.643915 799.458446 
L 453.497261 801.469549 
L 454.78171 802.374938 
L 456.708383 803.189067 
L 457.350608 803.766525 
L 457.992832 804.182618 
L 460.56173 805.35981 
L 463.130627 806.897184 
L 466.341749 808.166538 
L 467.626198 808.480208 
L 469.552871 809.065842 
L 470.83732 809.310407 
L 472.763993 810.514535 
L 474.048442 811.024682 
L 475.332891 811.136953 
L 477.901789 812.563763 
L 480.470686 813.478994 
L 483.039584 814.456467 
L 484.324033 814.788878 
L 488.177379 816.559018 
L 488.819604 816.862366 
L 490.104052 817.028033 
L 491.388501 816.935466 
L 492.030726 817.004408 
L 493.315174 817.349542 
L 493.957399 817.341536 
L 496.526296 817.813283 
L 498.45297 818.583515 
L 499.737418 818.8346 
L 501.021867 818.79875 
L 501.664092 818.855724 
L 502.94854 819.251993 
L 503.590765 819.3701 
L 506.159662 819.300655 
L 508.086336 819.50729 
L 510.013009 819.887281 
L 513.224131 820.983666 
L 514.50858 821.489029 
L 515.793029 821.724955 
L 517.719702 822.055023 
L 523.499721 823.145302 
L 525.426395 823.697303 
L 526.068619 823.779972 
L 527.353068 824.105449 
L 529.279741 824.370022 
L 533.775312 825.605918 
L 536.34421 825.940484 
L 539.555332 826.233158 
L 542.124229 826.818989 
L 544.050902 826.823317 
L 547.904249 827.608746 
L 549.188698 828.079572 
L 550.473146 828.182039 
L 553.684268 828.119185 
L 554.968717 828.121394 
L 558.822064 828.743435 
L 559.464288 828.60984 
L 563.959859 828.718746 
L 567.170981 829.122719 
L 569.097654 829.231949 
L 573.593225 830.135042 
L 574.877674 829.97415 
L 582.584367 830.690504 
L 584.51104 830.908812 
L 590.933284 831.664925 
L 592.217733 831.725769 
L 596.071079 832.054877 
L 597.355528 832.282724 
L 599.924426 832.484256 
L 602.493323 832.517829 
L 604.419996 832.729116 
L 610.842241 832.978913 
L 612.126689 833.044527 
L 614.695587 833.365039 
L 617.906709 833.409037 
L 623.044504 833.713108 
L 624.328953 833.73161 
L 625.613402 833.882605 
L 628.182299 833.932535 
L 630.751197 834.16192 
L 632.035646 834.292239 
L 647.449032 834.960363 
L 649.375705 835.13835 
L 651.302378 835.143705 
L 653.229051 835.300348 
L 655.155725 835.530002 
L 660.935744 835.633448 
L 662.862417 835.641183 
L 665.431315 835.750158 
L 666.715764 835.809273 
L 668.642437 835.907389 
L 672.495783 835.918753 
L 673.780232 835.876468 
L 675.064681 835.917383 
L 676.34913 835.817847 
L 678.275803 835.872697 
L 679.560252 835.853444 
L 680.844701 835.97748 
L 683.413598 835.94453 
L 684.698047 835.984613 
L 686.62472 835.907705 
L 687.909169 835.980595 
L 690.478067 835.913318 
L 692.40474 836.129665 
L 693.689189 836.124967 
L 694.973638 836.269004 
L 696.900311 836.246104 
L 698.826984 836.190305 
L 700.111433 836.065057 
L 702.680331 836.149581 
L 705.891453 836.232057 
L 708.46035 836.372089 
L 710.387023 836.429619 
L 712.955921 836.41791 
L 716.167043 836.373139 
L 718.093716 836.480387 
L 721.947063 836.487458 
L 725.158185 836.487226 
L 727.084858 836.556632 
L 728.369307 836.551282 
L 741.213795 836.544357 
L 742.498244 836.584605 
L 745.067141 836.557656 
L 748.278263 836.716934 
L 750.847161 836.631127 
L 751.489385 836.46141 
L 754.058283 836.415847 
L 755.984956 836.545752 
L 757.911629 836.668297 
L 759.196078 836.801929 
L 768.18722 836.566894 
L 774.609464 836.840214 
L 781.031708 836.725139 
L 782.316157 836.694364 
L 783.600606 836.661314 
L 785.527279 836.725813 
L 786.811728 836.808031 
L 788.096176 836.884194 
L 791.307298 836.891621 
L 794.51842 836.973645 
L 800.940665 836.88974 
L 811.858479 837.232347 
L 813.142928 837.153827 
L 813.785153 837.233123 
L 815.711826 837.243312 
L 820.849621 837.313616 
L 825.345192 837.203908 
L 828.556314 837.404772 
L 834.336334 837.299771 
L 836.263007 837.315207 
L 841.400802 837.13341 
L 842.685251 837.213166 
L 849.107495 837.062452 
L 852.960841 837.137672 
L 857.456412 836.963226 
L 863.236432 837.406625 
L 871.585349 837.468398 
L 872.227574 837.452176 
L 873.512022 837.654668 
L 875.438696 837.652081 
L 877.365369 837.740292 
L 880.576491 837.811659 
L 881.86094 837.826862 
L 892.778755 837.666156 
L 894.063203 837.795362 
L 895.347652 837.71608 
L 897.91655 837.656457 
L 899.200999 837.73706 
L 904.338794 837.652783 
L 905.623243 837.756463 
L 910.761038 837.883761 
L 912.687711 837.942698 
L 918.467731 837.946411 
L 924.24775 837.910219 
L 926.816648 837.972767 
L 933.881116 838.012588 
L 934.523341 838.078298 
L 937.734463 837.927347 
L 940.303361 837.898752 
L 941.587809 837.998742 
L 945.441156 838.127879 
L 946.725605 838.129288 
L 948.652278 838.061376 
L 950.578951 838.173923 
L 953.147849 838.069572 
L 961.496766 838.166812 
L 962.781215 838.223606 
L 965.350112 838.130037 
L 967.91901 838.157897 
L 970.487908 838.114796 
L 975.625703 837.804534 
L 978.836825 837.938202 
L 980.121274 837.881863 
L 981.405722 837.932184 
L 982.047947 838.069851 
L 988.470191 838.039259 
L 991.681313 837.908686 
L 995.534659 837.966391 
L 997.461333 837.948096 
L 1007.094699 837.883921 
L 1009.021372 837.900313 
L 1012.232494 837.83542 
L 1013.516943 837.745955 
L 1014.159167 837.57017 
L 1015.443616 837.53899 
L 1016.728065 837.557968 
L 1018.654738 837.588845 
L 1022.508084 837.756571 
L 1029.572553 837.572574 
L 1030.857002 837.647757 
L 1034.710348 837.466969 
L 1035.352573 837.561097 
L 1035.994797 837.3267 
L 1039.205919 837.184916 
L 1043.70149 837.200819 
L 1044.985939 837.310111 
L 1053.334856 837.30586 
L 1055.261529 837.297775 
L 1057.830427 837.310977 
L 1059.114876 837.271532 
L 1061.041549 837.378195 
L 1062.968222 837.381557 
L 1064.252671 837.410913 
L 1065.53712 837.427289 
L 1067.463793 837.419744 
L 1068.748242 837.573299 
L 1070.03269 837.65783 
L 1075.170486 837.454493 
L 1077.097159 837.576681 
L 1082.234954 837.377955 
L 1083.519403 837.407481 
L 1083.519403 837.407481 
" clip-path="url(#p1e6aa0fad9)" style="fill: none; stroke: #ff7f0e; stroke-width: 2; stroke-linecap: square"/>
   </g>
   <g id="line2d_34">
    <path d="M 95.136043 650.603965 
L 101.558287 650.894069 
L 107.338307 651.070793 
L 109.26498 651.046547 
L 115.045 650.989201 
L 117.613897 650.976083 
L 120.182795 651.042846 
L 125.32059 651.358765 
L 131.742834 651.458722 
L 134.953956 651.663697 
L 137.522854 651.728048 
L 138.807303 651.638374 
L 142.660649 651.736622 
L 143.945098 651.895331 
L 147.15622 652.011124 
L 151.651791 652.152826 
L 153.578464 652.497067 
L 154.862913 652.352835 
L 156.147362 652.234769 
L 158.716259 652.320226 
L 164.496279 652.352226 
L 165.780728 652.488095 
L 174.771869 652.671589 
L 179.26744 652.426321 
L 183.120787 652.797139 
L 186.331909 653.035331 
L 187.616357 653.089304 
L 188.900806 653.196875 
L 190.185255 653.132747 
L 191.469704 653.361066 
L 192.754153 653.293553 
L 195.32305 653.173098 
L 198.534172 653.709453 
L 200.460845 654.031627 
L 201.745294 654.17197 
L 203.029743 654.483192 
L 206.240865 654.691306 
L 207.525314 654.46697 
L 209.451987 654.605475 
L 210.094212 654.488287 
L 214.589782 654.904164 
L 216.516456 655.399688 
L 219.085353 655.63596 
L 219.727578 655.901326 
L 221.012026 656.102787 
L 224.223148 656.197052 
L 225.507597 656.468791 
L 226.149822 656.354297 
L 230.003168 656.610434 
L 233.856515 657.382452 
L 235.783188 657.493525 
L 237.067637 657.533466 
L 238.99431 657.899071 
L 242.205432 658.215189 
L 242.847656 658.356868 
L 246.058778 658.254767 
L 246.701003 658.207037 
L 249.2699 658.867454 
L 251.196574 658.97034 
L 253.123247 659.639191 
L 254.407696 660.147025 
L 255.04992 660.590614 
L 255.692144 660.814517 
L 258.261042 660.615329 
L 260.187715 661.337086 
L 260.82994 661.74166 
L 262.756613 662.210678 
L 265.32551 662.628639 
L 266.609959 662.404549 
L 269.178857 663.123437 
L 269.821081 663.188994 
L 271.10553 663.892456 
L 271.747754 664.047125 
L 273.032203 664.638799 
L 274.958877 664.629335 
L 275.601101 664.877871 
L 276.88555 665.717097 
L 278.812223 666.169904 
L 280.096672 666.44758 
L 281.381121 666.293744 
L 282.665569 666.649381 
L 283.307794 666.688174 
L 286.518916 667.634292 
L 289.730038 669.13554 
L 291.014487 669.893994 
L 295.510057 670.886811 
L 296.152282 671.337018 
L 296.794506 671.651285 
L 298.078955 671.882158 
L 298.72118 672.119577 
L 299.363404 672.211582 
L 300.005628 672.445124 
L 300.647853 672.926359 
L 301.932302 673.524019 
L 302.574526 673.657229 
L 303.21675 673.951702 
L 305.143424 675.45001 
L 305.785648 675.795621 
L 307.070097 675.949985 
L 307.712321 676.221501 
L 308.354546 676.262203 
L 308.99677 676.101093 
L 310.281219 676.384415 
L 311.565668 677.235611 
L 312.207892 677.44307 
L 313.492341 677.450753 
L 314.134565 677.292571 
L 314.77679 677.365027 
L 315.419014 677.786338 
L 316.061238 678.383471 
L 316.703463 678.824413 
L 317.345687 679.464369 
L 317.987912 679.674075 
L 319.27236 679.881627 
L 319.914585 680.209341 
L 321.199034 680.545008 
L 321.841258 680.937611 
L 322.483483 681.129187 
L 323.125707 681.574802 
L 323.767931 682.177663 
L 325.05238 683.090703 
L 327.621278 685.194484 
L 328.263502 685.54799 
L 328.905727 686.055461 
L 329.547951 686.267241 
L 330.190175 686.292401 
L 330.8324 686.493581 
L 331.474624 686.938329 
L 332.116849 687.718124 
L 333.401297 688.658901 
L 334.685746 688.905175 
L 335.327971 689.279588 
L 335.970195 690.131909 
L 337.896868 691.357542 
L 339.181317 692.040906 
L 339.823541 692.632534 
L 341.10799 694.05677 
L 341.750215 694.580932 
L 343.034663 695.989602 
L 343.676888 696.457062 
L 344.319112 696.433683 
L 344.961337 696.061741 
L 345.603561 696.173751 
L 346.88801 696.966032 
L 347.530234 697.231609 
L 348.814683 698.252232 
L 349.456908 698.408552 
L 350.099132 698.750017 
L 352.025805 699.474398 
L 353.952478 700.609526 
L 356.521376 702.868186 
L 357.805825 703.705351 
L 359.732498 706.166924 
L 360.374722 706.882369 
L 361.016947 707.386912 
L 362.301396 709.072017 
L 362.94362 709.512116 
L 363.585844 709.619499 
L 364.228069 710.089489 
L 364.870293 710.937008 
L 367.439191 713.127476 
L 368.081415 713.616312 
L 368.72364 713.941753 
L 370.008089 714.211243 
L 371.934762 715.561922 
L 375.145884 718.191036 
L 376.430333 719.524639 
L 378.357006 721.131256 
L 378.99923 721.424546 
L 380.925903 722.819851 
L 383.494801 725.346513 
L 386.705923 730.019368 
L 387.348147 730.510172 
L 390.559269 732.168325 
L 391.201494 732.369669 
L 391.843718 732.78865 
L 392.485943 733.516545 
L 393.128167 733.895105 
L 395.05484 735.856528 
L 396.339289 736.909771 
L 397.623738 738.41082 
L 398.265962 739.157069 
L 398.908187 740.141336 
L 399.550411 740.825706 
L 400.192636 741.327789 
L 400.83486 742.252414 
L 401.477084 742.846677 
L 402.119309 743.278565 
L 403.403758 743.547949 
L 405.972655 745.528195 
L 407.257104 747.06963 
L 409.183777 748.395021 
L 409.826002 749.220262 
L 410.468226 749.841723 
L 412.394899 750.94375 
L 413.037124 751.182968 
L 413.679348 751.704892 
L 414.963797 752.450135 
L 415.606021 753.171722 
L 416.248246 753.713331 
L 416.89047 754.504839 
L 418.817143 755.712124 
L 419.459368 755.936899 
L 420.101592 756.615003 
L 420.743817 757.670589 
L 422.028265 759.293118 
L 422.67049 759.927703 
L 423.954939 761.861811 
L 425.881612 763.662885 
L 427.166061 764.429486 
L 428.450509 765.825728 
L 430.377183 767.174762 
L 432.303856 768.820008 
L 432.94608 769.157713 
L 434.872753 771.151897 
L 435.514978 771.676633 
L 437.441651 772.704137 
L 438.083875 773.178971 
L 438.7261 773.500635 
L 440.010549 774.808076 
L 440.652773 775.563409 
L 441.937222 776.553514 
L 443.221671 778.084747 
L 445.790568 779.413635 
L 446.432793 779.549252 
L 449.00169 781.331141 
L 450.928364 782.346229 
L 452.212812 783.464737 
L 454.78171 785.447665 
L 456.708383 786.840182 
L 457.350608 787.179229 
L 458.635056 787.637406 
L 461.203954 789.594302 
L 461.846178 789.759969 
L 462.488403 790.08842 
L 463.772852 791.188568 
L 464.415076 791.448874 
L 466.341749 792.571715 
L 466.983974 792.726735 
L 469.552871 793.907713 
L 472.121769 795.488966 
L 472.763993 795.736605 
L 475.332891 796.327964 
L 476.61734 797.40222 
L 481.112911 800.147871 
L 486.250706 802.014698 
L 486.89293 802.635438 
L 489.461828 803.805031 
L 490.104052 803.969635 
L 492.030726 804.032682 
L 493.315174 804.678286 
L 493.957399 804.672617 
L 495.241848 804.948771 
L 495.884072 805.051244 
L 496.526296 805.283006 
L 497.810745 805.497342 
L 499.095194 805.963303 
L 499.737418 806.248804 
L 501.021867 806.549555 
L 501.664092 806.556896 
L 502.94854 806.987133 
L 504.232989 806.888876 
L 505.517438 807.189578 
L 506.801887 807.165314 
L 508.086336 807.491635 
L 509.370784 808.230888 
L 511.297458 808.704143 
L 513.224131 809.550514 
L 515.793029 809.979436 
L 517.077477 810.010089 
L 518.361926 810.650829 
L 520.288599 811.154393 
L 520.930824 811.52353 
L 522.215273 811.655408 
L 526.068619 813.093837 
L 526.710843 813.300124 
L 527.995292 813.538232 
L 528.637517 813.700472 
L 529.279741 813.676332 
L 529.921965 813.820552 
L 532.490863 815.105751 
L 534.417536 815.519918 
L 536.34421 815.627301 
L 538.270883 815.866747 
L 539.555332 816.287268 
L 540.197556 816.585135 
L 542.124229 816.994894 
L 543.408678 817.088038 
L 544.693127 817.429175 
L 545.977576 817.652117 
L 547.262024 817.791535 
L 547.904249 817.778139 
L 551.115371 818.428258 
L 555.610942 818.808808 
L 558.179839 819.456236 
L 558.822064 819.500637 
L 560.106513 819.35263 
L 562.033186 819.700411 
L 563.317635 819.747113 
L 564.602083 819.533342 
L 565.886532 819.581945 
L 567.813205 819.968375 
L 568.45543 820.013229 
L 571.024327 820.686941 
L 572.951001 821.528322 
L 573.593225 821.623404 
L 574.877674 821.487433 
L 580.015469 822.149663 
L 581.299918 822.500712 
L 581.942142 822.66774 
L 584.51104 822.858575 
L 586.437713 823.21138 
L 590.29106 823.775267 
L 592.217733 824.184083 
L 593.502182 824.260905 
L 594.78663 824.429362 
L 596.071079 824.538845 
L 600.56665 824.836119 
L 601.851099 825.112141 
L 603.135548 825.350332 
L 605.062221 825.517295 
L 606.988894 825.732132 
L 608.915567 825.772768 
L 610.842241 825.914264 
L 612.126689 825.819069 
L 616.62226 826.467394 
L 617.906709 826.425455 
L 624.971177 826.820446 
L 634.604544 827.907162 
L 636.531217 827.983558 
L 637.173441 828.10272 
L 639.100114 828.109045 
L 641.026788 828.352571 
L 642.953461 828.395358 
L 644.23791 828.582096 
L 645.522358 828.563751 
L 646.806807 828.785696 
L 649.375705 828.891624 
L 650.660154 829.176242 
L 652.586827 829.242209 
L 654.5135 829.575824 
L 657.082398 829.771832 
L 658.366847 829.811599 
L 659.009071 829.945916 
L 661.577969 829.953919 
L 673.138008 830.598978 
L 676.991354 830.533292 
L 678.275803 830.653935 
L 682.771374 830.92985 
L 684.055823 830.898036 
L 685.340272 830.959186 
L 688.551394 830.903629 
L 689.835842 831.110713 
L 691.762516 831.063492 
L 693.046964 831.303865 
L 698.18476 831.354855 
L 701.395882 831.265656 
L 707.818126 831.737763 
L 709.102575 831.886039 
L 711.029248 831.865589 
L 712.313697 831.874928 
L 713.598145 831.92841 
L 717.451492 831.950782 
L 718.093716 832.059389 
L 720.020389 831.993103 
L 720.662614 832.086183 
L 721.947063 831.985508 
L 724.51596 832.027437 
L 725.800409 832.087884 
L 729.011531 832.175726 
L 730.938204 831.998906 
L 738.002673 832.198494 
L 740.57157 832.230734 
L 742.498244 832.280503 
L 746.35159 832.330904 
L 747.636039 832.451187 
L 748.920488 832.434813 
L 749.562712 832.476518 
L 751.489385 832.249842 
L 752.13161 832.263196 
L 752.773834 832.150338 
L 761.122751 832.749865 
L 762.4072 832.649837 
L 763.691649 832.647795 
L 768.18722 832.531529 
L 769.471669 832.619647 
L 774.609464 832.793583 
L 776.536137 832.793342 
L 777.820586 832.701435 
L 783.600606 832.618353 
L 795.802869 832.964792 
L 796.445094 832.844542 
L 798.371767 832.92594 
L 800.940665 832.856905 
L 804.151787 833.117904 
L 806.07846 833.237609 
L 808.647357 833.548688 
L 811.216255 833.379296 
L 815.069601 833.324663 
L 816.996275 833.480339 
L 819.565172 833.63332 
L 822.13407 833.553841 
L 826.629641 833.694895 
L 827.271865 833.781344 
L 832.40966 833.595763 
L 834.336334 833.630414 
L 835.620782 833.714274 
L 837.547456 833.619206 
L 843.9697 833.463947 
L 845.254149 833.551117 
L 847.823046 833.325107 
L 854.24529 833.297344 
L 856.171963 833.22354 
L 857.456412 833.119776 
L 860.667534 833.542493 
L 868.374227 833.872889 
L 872.227574 833.860884 
L 872.869798 834.005162 
L 882.503164 834.232872 
L 885.714286 834.064844 
L 892.13653 833.951695 
L 894.063203 834.209382 
L 905.623243 834.121114 
L 910.761038 834.208852 
L 912.687711 834.279688 
L 920.394404 834.354314 
L 921.678853 834.28828 
L 922.963302 834.294505 
L 926.816648 834.355307 
L 930.02777 834.311054 
L 931.954443 834.379593 
L 933.238892 834.324595 
L 934.523341 834.459718 
L 937.092238 834.301873 
L 938.376687 834.229897 
L 940.303361 834.264995 
L 942.230034 834.38187 
L 944.798931 834.479674 
L 947.367829 834.505199 
L 948.652278 834.478472 
L 949.294502 834.615174 
L 951.8634 834.550591 
L 955.074522 834.589553 
L 956.358971 834.60511 
L 957.643419 834.47165 
L 958.927868 834.580539 
L 959.570093 834.669672 
L 960.854541 834.625815 
L 962.13899 834.703593 
L 971.772356 834.388095 
L 973.69903 834.271996 
L 974.341254 834.347471 
L 975.625703 834.197458 
L 976.910152 834.327383 
L 981.405722 834.390883 
L 982.047947 834.536721 
L 984.616844 834.505853 
L 985.901293 834.606155 
L 990.396864 834.379123 
L 991.681313 834.345752 
L 994.892435 834.385227 
L 996.176884 834.413912 
L 1000.672455 834.335377 
L 1004.525801 834.376507 
L 1009.663596 834.525859 
L 1010.948045 834.534075 
L 1011.59027 834.561055 
L 1015.443616 834.010493 
L 1016.08584 833.959452 
L 1017.370289 834.037256 
L 1018.012514 833.975119 
L 1021.86586 834.323395 
L 1025.076982 834.163251 
L 1026.361431 834.11572 
L 1027.64588 833.886317 
L 1031.499226 834.05797 
L 1033.425899 833.844901 
L 1035.352573 833.925123 
L 1036.637021 833.593117 
L 1043.059265 833.54409 
L 1044.985939 833.695722 
L 1047.554836 833.759398 
L 1048.839285 833.764938 
L 1052.692631 833.851951 
L 1053.97708 833.755483 
L 1057.188202 833.871595 
L 1058.472651 833.7685 
L 1059.7571 833.8316 
L 1061.041549 833.871671 
L 1064.252671 833.809136 
L 1066.821568 833.890767 
L 1068.106017 833.956171 
L 1068.748242 834.086426 
L 1077.097159 833.971516 
L 1078.381608 834.028875 
L 1080.308281 833.857417 
L 1082.877179 833.796946 
L 1083.519403 833.935981 
L 1083.519403 833.935981 
" clip-path="url(#p1e6aa0fad9)" style="fill: none; stroke: #2ca02c; stroke-width: 2; stroke-linecap: square"/>
   </g>
   <g id="patch_3">
    <path d="M 45.716875 888.477813 
L 45.716875 23.837812 
" style="fill: none; stroke: #000000; stroke-width: 0.8; stroke-linejoin: miter; stroke-linecap: square"/>
   </g>
   <g id="patch_4">
    <path d="M 1132.938571 888.477813 
L 1132.938571 23.837812 
" style="fill: none; stroke: #000000; stroke-width: 0.8; stroke-linejoin: miter; stroke-linecap: square"/>
   </g>
   <g id="patch_5">
    <path d="M 45.716875 888.477813 
L 1132.938571 888.477813 
" style="fill: none; stroke: #000000; stroke-width: 0.8; stroke-linejoin: miter; stroke-linecap: square"/>
   </g>
   <g id="patch_6">
    <path d="M 45.716875 23.837812 
L 1132.938571 23.837812 
" style="fill: none; stroke: #000000; stroke-width: 0.8; stroke-linejoin: miter; stroke-linecap: square"/>
   </g>
   <g id="text_18">
    <!-- Link 4: Evolucin de Probabilidades de Accin -->
    <g transform="translate(408.23991 17.837812) scale(0.14 -0.14)">
     <defs>
      <path id="DejaVuSans-Bold-4c" d="M 588 4666 
L 1791 4666 
L 1791 909 
L 3903 909 
L 3903 0 
L 588 0 
L 588 4666 
z
" transform="scale(0.015625)"/>
      <path id="DejaVuSans-Bold-69" d="M 538 3500 
L 1656 3500 
L 1656 0 
L 538 0 
L 538 3500 
z
M 538 4863 
L 1656 4863 
L 1656 3950 
L 538 3950 
L 538 4863 
z
" transform="scale(0.015625)"/>
      <path id="DejaVuSans-Bold-6e" d="M 4056 2131 
L 4056 0 
L 2931 0 
L 2931 347 
L 2931 1631 
Q 2931 2084 2911 2256 
Q 2891 2428 2841 2509 
Q 2775 2619 2662 2680 
Q 2550 2741 2406 2741 
Q 2056 2741 1856 2470 
Q 1656 2200 1656 1722 
L 1656 0 
L 538 0 
L 538 3500 
L 1656 3500 
L 1656 2988 
Q 1909 3294 2193 3439 
Q 2478 3584 2822 3584 
Q 3428 3584 3742 3212 
Q 4056 2841 4056 2131 
z
" transform="scale(0.015625)"/>
      <path id="DejaVuSans-Bold-6b" d="M 538 4863 
L 1656 4863 
L 1656 2216 
L 2944 3500 
L 4244 3500 
L 2534 1894 
L 4378 0 
L 3022 0 
L 1656 1459 
L 1656 0 
L 538 0 
L 538 4863 
z
" transform="scale(0.015625)"/>
      <path id="DejaVuSans-Bold-20" transform="scale(0.015625)"/>
      <path id="DejaVuSans-Bold-34" d="M 2356 3675 
L 1038 1722 
L 2356 1722 
L 2356 3675 
z
M 2156 4666 
L 3494 4666 
L 3494 1722 
L 4159 1722 
L 4159 850 
L 3494 850 
L 3494 0 
L 2356 0 
L 2356 850 
L 288 850 
L 288 1881 
L 2156 4666 
z
" transform="scale(0.015625)"/>
      <path id="DejaVuSans-Bold-3a" d="M 716 3500 
L 1844 3500 
L 1844 2291 
L 716 2291 
L 716 3500 
z
M 716 1209 
L 1844 1209 
L 1844 0 
L 716 0 
L 716 1209 
z
" transform="scale(0.015625)"/>
      <path id="DejaVuSans-Bold-45" d="M 588 4666 
L 3834 4666 
L 3834 3756 
L 1791 3756 
L 1791 2888 
L 3713 2888 
L 3713 1978 
L 1791 1978 
L 1791 909 
L 3903 909 
L 3903 0 
L 588 0 
L 588 4666 
z
" transform="scale(0.015625)"/>
      <path id="DejaVuSans-Bold-76" d="M 97 3500 
L 1216 3500 
L 2088 1081 
L 2956 3500 
L 4078 3500 
L 2700 0 
L 1472 0 
L 97 3500 
z
" transform="scale(0.015625)"/>
      <path id="DejaVuSans-Bold-6f" d="M 2203 2784 
Q 1831 2784 1636 2517 
Q 1441 2250 1441 1747 
Q 1441 1244 1636 976 
Q 1831 709 2203 709 
Q 2569 709 2762 976 
Q 2956 1244 2956 1747 
Q 2956 2250 2762 2517 
Q 2569 2784 2203 2784 
z
M 2203 3584 
Q 3106 3584 3614 3096 
Q 4122 2609 4122 1747 
Q 4122 884 3614 396 
Q 3106 -91 2203 -91 
Q 1297 -91 786 396 
Q 275 884 275 1747 
Q 275 2609 786 3096 
Q 1297 3584 2203 3584 
z
" transform="scale(0.015625)"/>
      <path id="DejaVuSans-Bold-6c" d="M 538 4863 
L 1656 4863 
L 1656 0 
L 538 0 
L 538 4863 
z
" transform="scale(0.015625)"/>
      <path id="DejaVuSans-Bold-75" d="M 500 1363 
L 500 3500 
L 1625 3500 
L 1625 3150 
Q 1625 2866 1622 2436 
Q 1619 2006 1619 1863 
Q 1619 1441 1641 1255 
Q 1663 1069 1716 984 
Q 1784 875 1895 815 
Q 2006 756 2150 756 
Q 2500 756 2700 1025 
Q 2900 1294 2900 1772 
L 2900 3500 
L 4019 3500 
L 4019 0 
L 2900 0 
L 2900 506 
Q 2647 200 2364 54 
Q 2081 -91 1741 -91 
Q 1134 -91 817 281 
Q 500 653 500 1363 
z
" transform="scale(0.015625)"/>
      <path id="DejaVuSans-Bold-63" d="M 3366 3391 
L 3366 2478 
Q 3138 2634 2908 2709 
Q 2678 2784 2431 2784 
Q 1963 2784 1702 2511 
Q 1441 2238 1441 1747 
Q 1441 1256 1702 982 
Q 1963 709 2431 709 
Q 2694 709 2930 787 
Q 3166 866 3366 1019 
L 3366 103 
Q 3103 6 2833 -42 
Q 2563 -91 2291 -91 
Q 1344 -91 809 395 
Q 275 881 275 1747 
Q 275 2613 809 3098 
Q 1344 3584 2291 3584 
Q 2566 3584 2833 3536 
Q 3100 3488 3366 3391 
z
" transform="scale(0.015625)"/>
      <path id="DejaVuSans-Bold-f3" d="M 2203 2784 
Q 1831 2784 1636 2517 
Q 1441 2250 1441 1747 
Q 1441 1244 1636 976 
Q 1831 709 2203 709 
Q 2569 709 2762 976 
Q 2956 1244 2956 1747 
Q 2956 2250 2762 2517 
Q 2569 2784 2203 2784 
z
M 2203 3584 
Q 3106 3584 3614 3096 
Q 4122 2609 4122 1747 
Q 4122 884 3614 396 
Q 3106 -91 2203 -91 
Q 1297 -91 786 396 
Q 275 884 275 1747 
Q 275 2609 786 3096 
Q 1297 3584 2203 3584 
z
M 2694 5119 
L 3578 5119 
L 2425 3944 
L 1813 3944 
L 2694 5119 
z
" transform="scale(0.015625)"/>
      <path id="DejaVuSans-Bold-64" d="M 2919 2988 
L 2919 4863 
L 4044 4863 
L 4044 0 
L 2919 0 
L 2919 506 
Q 2688 197 2409 53 
Q 2131 -91 1766 -91 
Q 1119 -91 703 423 
Q 288 938 288 1747 
Q 288 2556 703 3070 
Q 1119 3584 1766 3584 
Q 2128 3584 2408 3439 
Q 2688 3294 2919 2988 
z
M 2181 722 
Q 2541 722 2730 984 
Q 2919 1247 2919 1747 
Q 2919 2247 2730 2509 
Q 2541 2772 2181 2772 
Q 1825 2772 1636 2509 
Q 1447 2247 1447 1747 
Q 1447 1247 1636 984 
Q 1825 722 2181 722 
z
" transform="scale(0.015625)"/>
      <path id="DejaVuSans-Bold-65" d="M 4031 1759 
L 4031 1441 
L 1416 1441 
Q 1456 1047 1700 850 
Q 1944 653 2381 653 
Q 2734 653 3104 758 
Q 3475 863 3866 1075 
L 3866 213 
Q 3469 63 3072 -14 
Q 2675 -91 2278 -91 
Q 1328 -91 801 392 
Q 275 875 275 1747 
Q 275 2603 792 3093 
Q 1309 3584 2216 3584 
Q 3041 3584 3536 3087 
Q 4031 2591 4031 1759 
z
M 2881 2131 
Q 2881 2450 2695 2645 
Q 2509 2841 2209 2841 
Q 1884 2841 1681 2658 
Q 1478 2475 1428 2131 
L 2881 2131 
z
" transform="scale(0.015625)"/>
      <path id="DejaVuSans-Bold-50" d="M 588 4666 
L 2584 4666 
Q 3475 4666 3951 4270 
Q 4428 3875 4428 3144 
Q 4428 2409 3951 2014 
Q 3475 1619 2584 1619 
L 1791 1619 
L 1791 0 
L 588 0 
L 588 4666 
z
M 1791 3794 
L 1791 2491 
L 2456 2491 
Q 2806 2491 2997 2661 
Q 3188 2831 3188 3144 
Q 3188 3456 2997 3625 
Q 2806 3794 2456 3794 
L 1791 3794 
z
" transform="scale(0.015625)"/>
      <path id="DejaVuSans-Bold-72" d="M 3138 2547 
Q 2991 2616 2845 2648 
Q 2700 2681 2553 2681 
Q 2122 2681 1889 2404 
Q 1656 2128 1656 1613 
L 1656 0 
L 538 0 
L 538 3500 
L 1656 3500 
L 1656 2925 
Q 1872 3269 2151 3426 
Q 2431 3584 2822 3584 
Q 2878 3584 2943 3579 
Q 3009 3575 3134 3559 
L 3138 2547 
z
" transform="scale(0.015625)"/>
      <path id="DejaVuSans-Bold-62" d="M 2400 722 
Q 2759 722 2948 984 
Q 3138 1247 3138 1747 
Q 3138 2247 2948 2509 
Q 2759 2772 2400 2772 
Q 2041 2772 1848 2508 
Q 1656 2244 1656 1747 
Q 1656 1250 1848 986 
Q 2041 722 2400 722 
z
M 1656 2988 
Q 1888 3294 2169 3439 
Q 2450 3584 2816 3584 
Q 3463 3584 3878 3070 
Q 4294 2556 4294 1747 
Q 4294 938 3878 423 
Q 3463 -91 2816 -91 
Q 2450 -91 2169 54 
Q 1888 200 1656 506 
L 1656 0 
L 538 0 
L 538 4863 
L 1656 4863 
L 1656 2988 
z
" transform="scale(0.015625)"/>
      <path id="DejaVuSans-Bold-61" d="M 2106 1575 
Q 1756 1575 1579 1456 
Q 1403 1338 1403 1106 
Q 1403 894 1545 773 
Q 1688 653 1941 653 
Q 2256 653 2472 879 
Q 2688 1106 2688 1447 
L 2688 1575 
L 2106 1575 
z
M 3816 1997 
L 3816 0 
L 2688 0 
L 2688 519 
Q 2463 200 2181 54 
Q 1900 -91 1497 -91 
Q 953 -91 614 226 
Q 275 544 275 1050 
Q 275 1666 698 1953 
Q 1122 2241 2028 2241 
L 2688 2241 
L 2688 2328 
Q 2688 2594 2478 2717 
Q 2269 2841 1825 2841 
Q 1466 2841 1156 2769 
Q 847 2697 581 2553 
L 581 3406 
Q 941 3494 1303 3539 
Q 1666 3584 2028 3584 
Q 2975 3584 3395 3211 
Q 3816 2838 3816 1997 
z
" transform="scale(0.015625)"/>
      <path id="DejaVuSans-Bold-73" d="M 3272 3391 
L 3272 2541 
Q 2913 2691 2578 2766 
Q 2244 2841 1947 2841 
Q 1628 2841 1473 2761 
Q 1319 2681 1319 2516 
Q 1319 2381 1436 2309 
Q 1553 2238 1856 2203 
L 2053 2175 
Q 2913 2066 3209 1816 
Q 3506 1566 3506 1031 
Q 3506 472 3093 190 
Q 2681 -91 1863 -91 
Q 1516 -91 1145 -36 
Q 775 19 384 128 
L 384 978 
Q 719 816 1070 734 
Q 1422 653 1784 653 
Q 2113 653 2278 743 
Q 2444 834 2444 1013 
Q 2444 1163 2330 1236 
Q 2216 1309 1875 1350 
L 1678 1375 
Q 931 1469 631 1722 
Q 331 1975 331 2491 
Q 331 3047 712 3315 
Q 1094 3584 1881 3584 
Q 2191 3584 2531 3537 
Q 2872 3491 3272 3391 
z
" transform="scale(0.015625)"/>
      <path id="DejaVuSans-Bold-41" d="M 3419 850 
L 1538 850 
L 1241 0 
L 31 0 
L 1759 4666 
L 3194 4666 
L 4922 0 
L 3713 0 
L 3419 850 
z
M 1838 1716 
L 3116 1716 
L 2478 3572 
L 1838 1716 
z
" transform="scale(0.015625)"/>
     </defs>
     <use xlink:href="#DejaVuSans-Bold-4c"/>
     <use xlink:href="#DejaVuSans-Bold-69" transform="translate(63.720703 0)"/>
     <use xlink:href="#DejaVuSans-Bold-6e" transform="translate(97.998047 0)"/>
     <use xlink:href="#DejaVuSans-Bold-6b" transform="translate(169.189453 0)"/>
     <use xlink:href="#DejaVuSans-Bold-20" transform="translate(235.693359 0)"/>
     <use xlink:href="#DejaVuSans-Bold-34" transform="translate(270.507812 0)"/>
     <use xlink:href="#DejaVuSans-Bold-3a" transform="translate(340.087891 0)"/>
     <use xlink:href="#DejaVuSans-Bold-20" transform="translate(380.078125 0)"/>
     <use xlink:href="#DejaVuSans-Bold-45" transform="translate(414.892578 0)"/>
     <use xlink:href="#DejaVuSans-Bold-76" transform="translate(483.203125 0)"/>
     <use xlink:href="#DejaVuSans-Bold-6f" transform="translate(548.388672 0)"/>
     <use xlink:href="#DejaVuSans-Bold-6c" transform="translate(617.089844 0)"/>
     <use xlink:href="#DejaVuSans-Bold-75" transform="translate(651.367188 0)"/>
     <use xlink:href="#DejaVuSans-Bold-63" transform="translate(722.558594 0)"/>
     <use xlink:href="#DejaVuSans-Bold-69" transform="translate(781.835938 0)"/>
     <use xlink:href="#DejaVuSans-Bold-f3" transform="translate(816.113281 0)"/>
     <use xlink:href="#DejaVuSans-Bold-6e" transform="translate(884.814453 0)"/>
     <use xlink:href="#DejaVuSans-Bold-20" transform="translate(956.005859 0)"/>
     <use xlink:href="#DejaVuSans-Bold-64" transform="translate(990.820312 0)"/>
     <use xlink:href="#DejaVuSans-Bold-65" transform="translate(1062.402344 0)"/>
     <use xlink:href="#DejaVuSans-Bold-20" transform="translate(1130.224609 0)"/>
     <use xlink:href="#DejaVuSans-Bold-50" transform="translate(1165.039062 0)"/>
     <use xlink:href="#DejaVuSans-Bold-72" transform="translate(1238.330078 0)"/>
     <use xlink:href="#DejaVuSans-Bold-6f" transform="translate(1287.646484 0)"/>
     <use xlink:href="#DejaVuSans-Bold-62" transform="translate(1356.347656 0)"/>
     <use xlink:href="#DejaVuSans-Bold-61" transform="translate(1427.929688 0)"/>
     <use xlink:href="#DejaVuSans-Bold-62" transform="translate(1495.410156 0)"/>
     <use xlink:href="#DejaVuSans-Bold-69" transform="translate(1566.992188 0)"/>
     <use xlink:href="#DejaVuSans-Bold-6c" transform="translate(1601.269531 0)"/>
     <use xlink:href="#DejaVuSans-Bold-69" transform="translate(1635.546875 0)"/>
     <use xlink:href="#DejaVuSans-Bold-64" transform="translate(1669.824219 0)"/>
     <use xlink:href="#DejaVuSans-Bold-61" transform="translate(1741.40625 0)"/>
     <use xlink:href="#DejaVuSans-Bold-64" transform="translate(1808.886719 0)"/>
     <use xlink:href="#DejaVuSans-Bold-65" transform="translate(1880.46875 0)"/>
     <use xlink:href="#DejaVuSans-Bold-73" transform="translate(1948.291016 0)"/>
     <use xlink:href="#DejaVuSans-Bold-20" transform="translate(2007.8125 0)"/>
     <use xlink:href="#DejaVuSans-Bold-64" transform="translate(2042.626953 0)"/>
     <use xlink:href="#DejaVuSans-Bold-65" transform="translate(2114.208984 0)"/>
     <use xlink:href="#DejaVuSans-Bold-20" transform="translate(2182.03125 0)"/>
     <use xlink:href="#DejaVuSans-Bold-41" transform="translate(2216.845703 0)"/>
     <use xlink:href="#DejaVuSans-Bold-63" transform="translate(2294.238281 0)"/>
     <use xlink:href="#DejaVuSans-Bold-63" transform="translate(2353.515625 0)"/>
     <use xlink:href="#DejaVuSans-Bold-69" transform="translate(2412.792969 0)"/>
     <use xlink:href="#DejaVuSans-Bold-f3" transform="translate(2447.070312 0)"/>
     <use xlink:href="#DejaVuSans-Bold-6e" transform="translate(2515.771484 0)"/>
    </g>
   </g>
   <g id="legend_1">
    <g id="patch_7">
     <path d="M 1048.353727 97.221562 
L 1125.238571 97.221562 
Q 1127.438571 97.221562 1127.438571 95.021562 
L 1127.438571 31.537812 
Q 1127.438571 29.337812 1125.238571 29.337812 
L 1048.353727 29.337812 
Q 1046.153727 29.337812 1046.153727 31.537812 
L 1046.153727 95.021562 
Q 1046.153727 97.221562 1048.353727 97.221562 
z
" style="fill: #ffffff; opacity: 0.8; stroke: #cccccc; stroke-linejoin: miter"/>
    </g>
    <g id="line2d_35">
     <path d="M 1050.553727 38.246094 
L 1061.553727 38.246094 
L 1072.553727 38.246094 
" style="fill: none; stroke-dasharray: 9.25,4; stroke-dashoffset: 0; stroke: #000000; stroke-width: 2.5"/>
    </g>
    <g id="text_19">
     <!-- No TX -->
     <g transform="translate(1081.353727 42.096094) scale(0.11 -0.11)">
      <defs>
       <path id="DejaVuSans-4e" d="M 628 4666 
L 1478 4666 
L 3547 763 
L 3547 4666 
L 4159 4666 
L 4159 0 
L 3309 0 
L 1241 3903 
L 1241 0 
L 628 0 
L 628 4666 
z
" transform="scale(0.015625)"/>
       <path id="DejaVuSans-54" d="M -19 4666 
L 3928 4666 
L 3928 4134 
L 2272 4134 
L 2272 0 
L 1638 0 
L 1638 4134 
L -19 4134 
L -19 4666 
z
" transform="scale(0.015625)"/>
       <path id="DejaVuSans-58" d="M 403 4666 
L 1081 4666 
L 2241 2931 
L 3406 4666 
L 4084 4666 
L 2584 2425 
L 4184 0 
L 3506 0 
L 2194 1984 
L 872 0 
L 191 0 
L 1856 2491 
L 403 4666 
z
" transform="scale(0.015625)"/>
      </defs>
      <use xlink:href="#DejaVuSans-4e"/>
      <use xlink:href="#DejaVuSans-6f" transform="translate(74.804688 0)"/>
      <use xlink:href="#DejaVuSans-20" transform="translate(135.986328 0)"/>
      <use xlink:href="#DejaVuSans-54" transform="translate(167.773438 0)"/>
      <use xlink:href="#DejaVuSans-58" transform="translate(228.857422 0)"/>
     </g>
    </g>
    <g id="line2d_36">
     <path d="M 1050.553727 54.392031 
L 1061.553727 54.392031 
L 1072.553727 54.392031 
" style="fill: none; stroke: #1f77b4; stroke-width: 2; stroke-linecap: square"/>
    </g>
    <g id="text_20">
     <!-- Canal 0 -->
     <g transform="translate(1081.353727 58.242031) scale(0.11 -0.11)">
      <defs>
       <path id="DejaVuSans-43" d="M 4122 4306 
L 4122 3641 
Q 3803 3938 3442 4084 
Q 3081 4231 2675 4231 
Q 1875 4231 1450 3742 
Q 1025 3253 1025 2328 
Q 1025 1406 1450 917 
Q 1875 428 2675 428 
Q 3081 428 3442 575 
Q 3803 722 4122 1019 
L 4122 359 
Q 3791 134 3420 21 
Q 3050 -91 2638 -91 
Q 1578 -91 968 557 
Q 359 1206 359 2328 
Q 359 3453 968 4101 
Q 1578 4750 2638 4750 
Q 3056 4750 3426 4639 
Q 3797 4528 4122 4306 
z
" transform="scale(0.015625)"/>
      </defs>
      <use xlink:href="#DejaVuSans-43"/>
      <use xlink:href="#DejaVuSans-61" transform="translate(69.824219 0)"/>
      <use xlink:href="#DejaVuSans-6e" transform="translate(131.103516 0)"/>
      <use xlink:href="#DejaVuSans-61" transform="translate(194.482422 0)"/>
      <use xlink:href="#DejaVuSans-6c" transform="translate(255.761719 0)"/>
      <use xlink:href="#DejaVuSans-20" transform="translate(283.544922 0)"/>
      <use xlink:href="#DejaVuSans-30" transform="translate(315.332031 0)"/>
     </g>
    </g>
    <g id="line2d_37">
     <path d="M 1050.553727 70.537969 
L 1061.553727 70.537969 
L 1072.553727 70.537969 
" style="fill: none; stroke: #ff7f0e; stroke-width: 2; stroke-linecap: square"/>
    </g>
    <g id="text_21">
     <!-- Canal 1 -->
     <g transform="translate(1081.353727 74.387969) scale(0.11 -0.11)">
      <use xlink:href="#DejaVuSans-43"/>
      <use xlink:href="#DejaVuSans-61" transform="translate(69.824219 0)"/>
      <use xlink:href="#DejaVuSans-6e" transform="translate(131.103516 0)"/>
      <use xlink:href="#DejaVuSans-61" transform="translate(194.482422 0)"/>
      <use xlink:href="#DejaVuSans-6c" transform="translate(255.761719 0)"/>
      <use xlink:href="#DejaVuSans-20" transform="translate(283.544922 0)"/>
      <use xlink:href="#DejaVuSans-31" transform="translate(315.332031 0)"/>
     </g>
    </g>
    <g id="line2d_38">
     <path d="M 1050.553727 86.683906 
L 1061.553727 86.683906 
L 1072.553727 86.683906 
" style="fill: none; stroke: #2ca02c; stroke-width: 2; stroke-linecap: square"/>
    </g>
    <g id="text_22">
     <!-- Canal 2 -->
     <g transform="translate(1081.353727 90.533906) scale(0.11 -0.11)">
      <use xlink:href="#DejaVuSans-43"/>
      <use xlink:href="#DejaVuSans-61" transform="translate(69.824219 0)"/>
      <use xlink:href="#DejaVuSans-6e" transform="translate(131.103516 0)"/>
      <use xlink:href="#DejaVuSans-61" transform="translate(194.482422 0)"/>
      <use xlink:href="#DejaVuSans-6c" transform="translate(255.761719 0)"/>
      <use xlink:href="#DejaVuSans-20" transform="translate(283.544922 0)"/>
      <use xlink:href="#DejaVuSans-32" transform="translate(315.332031 0)"/>
     </g>
    </g>
   </g>
  </g>
 </g>
 <defs>
  <clipPath id="p1e6aa0fad9">
   <rect x="45.716875" y="23.837812" width="1087.221696" height="864.64"/>
  </clipPath>
 </defs>
</svg>
