<?xml version="1.0" encoding="utf-8" standalone="no"?>
<!DOCTYPE svg PUBLIC "-//W3C//DTD SVG 1.1//EN"
  "http://www.w3.org/Graphics/SVG/1.1/DTD/svg11.dtd">
<svg xmlns:xlink="http://www.w3.org/1999/xlink" width="1142.75382pt" height="927.969688pt" viewBox="0 0 1142.75382 927.969688" xmlns="http://www.w3.org/2000/svg" version="1.1">
 <metadata>
  <rdf:RDF xmlns:dc="http://purl.org/dc/elements/1.1/" xmlns:cc="http://creativecommons.org/ns#" xmlns:rdf="http://www.w3.org/1999/02/22-rdf-syntax-ns#">
   <cc:Work>
    <dc:type rdf:resource="http://purl.org/dc/dcmitype/StillImage"/>
    <dc:date>2025-10-22T19:51:19.869217</dc:date>
    <dc:format>image/svg+xml</dc:format>
    <dc:creator>
     <cc:Agent>
      <dc:title>Matplotlib v3.10.1, https://matplotlib.org/</dc:title>
     </cc:Agent>
    </dc:creator>
   </cc:Work>
  </rdf:RDF>
 </metadata>
 <defs>
  <style type="text/css">*{stroke-linejoin: round; stroke-linecap: butt}</style>
 </defs>
 <g id="figure_1">
  <g id="patch_1">
   <path d="M 0 927.969688 
L 1142.75382 927.969688 
L 1142.75382 0 
L 0 0 
z
" style="fill: #ffffff"/>
  </g>
  <g id="axes_1">
   <g id="patch_2">
    <path d="M 45.716875 888.477813 
L 1133.073571 888.477813 
L 1133.073571 23.837812 
L 45.716875 23.837812 
z
" style="fill: #ffffff"/>
   </g>
   <g id="matplotlib.axis_1">
    <g id="xtick_1">
     <g id="line2d_1">
      <path d="M 95.142179 888.477813 
L 95.142179 23.837812 
" clip-path="url(#pe50bdef438)" style="fill: none; stroke: #b0b0b0; stroke-opacity: 0.3; stroke-width: 0.8; stroke-linecap: square"/>
     </g>
     <g id="line2d_2">
      <defs>
       <path id="m60c70fd075" d="M 0 0 
L 0 3.5 
" style="stroke: #000000; stroke-width: 0.8"/>
      </defs>
      <g>
       <use xlink:href="#m60c70fd075" x="95.142179" y="888.477813" style="stroke: #000000; stroke-width: 0.8"/>
      </g>
     </g>
     <g id="text_1">
      <!-- 0 -->
      <g transform="translate(91.960929 903.07625) scale(0.1 -0.1)">
       <defs>
        <path id="DejaVuSans-30" d="M 2034 4250 
Q 1547 4250 1301 3770 
Q 1056 3291 1056 2328 
Q 1056 1369 1301 889 
Q 1547 409 2034 409 
Q 2525 409 2770 889 
Q 3016 1369 3016 2328 
Q 3016 3291 2770 3770 
Q 2525 4250 2034 4250 
z
M 2034 4750 
Q 2819 4750 3233 4129 
Q 3647 3509 3647 2328 
Q 3647 1150 3233 529 
Q 2819 -91 2034 -91 
Q 1250 -91 836 529 
Q 422 1150 422 2328 
Q 422 3509 836 4129 
Q 1250 4750 2034 4750 
z
" transform="scale(0.015625)"/>
       </defs>
       <use xlink:href="#DejaVuSans-30"/>
      </g>
     </g>
    </g>
    <g id="xtick_2">
     <g id="line2d_3">
      <path d="M 223.603009 888.477813 
L 223.603009 23.837812 
" clip-path="url(#pe50bdef438)" style="fill: none; stroke: #b0b0b0; stroke-opacity: 0.3; stroke-width: 0.8; stroke-linecap: square"/>
     </g>
     <g id="line2d_4">
      <g>
       <use xlink:href="#m60c70fd075" x="223.603009" y="888.477813" style="stroke: #000000; stroke-width: 0.8"/>
      </g>
     </g>
     <g id="text_2">
      <!-- 200 -->
      <g transform="translate(214.059259 903.07625) scale(0.1 -0.1)">
       <defs>
        <path id="DejaVuSans-32" d="M 1228 531 
L 3431 531 
L 3431 0 
L 469 0 
L 469 531 
Q 828 903 1448 1529 
Q 2069 2156 2228 2338 
Q 2531 2678 2651 2914 
Q 2772 3150 2772 3378 
Q 2772 3750 2511 3984 
Q 2250 4219 1831 4219 
Q 1534 4219 1204 4116 
Q 875 4013 500 3803 
L 500 4441 
Q 881 4594 1212 4672 
Q 1544 4750 1819 4750 
Q 2544 4750 2975 4387 
Q 3406 4025 3406 3419 
Q 3406 3131 3298 2873 
Q 3191 2616 2906 2266 
Q 2828 2175 2409 1742 
Q 1991 1309 1228 531 
z
" transform="scale(0.015625)"/>
       </defs>
       <use xlink:href="#DejaVuSans-32"/>
       <use xlink:href="#DejaVuSans-30" transform="translate(63.623047 0)"/>
       <use xlink:href="#DejaVuSans-30" transform="translate(127.246094 0)"/>
      </g>
     </g>
    </g>
    <g id="xtick_3">
     <g id="line2d_5">
      <path d="M 352.063839 888.477813 
L 352.063839 23.837812 
" clip-path="url(#pe50bdef438)" style="fill: none; stroke: #b0b0b0; stroke-opacity: 0.3; stroke-width: 0.8; stroke-linecap: square"/>
     </g>
     <g id="line2d_6">
      <g>
       <use xlink:href="#m60c70fd075" x="352.063839" y="888.477813" style="stroke: #000000; stroke-width: 0.8"/>
      </g>
     </g>
     <g id="text_3">
      <!-- 400 -->
      <g transform="translate(342.520089 903.07625) scale(0.1 -0.1)">
       <defs>
        <path id="DejaVuSans-34" d="M 2419 4116 
L 825 1625 
L 2419 1625 
L 2419 4116 
z
M 2253 4666 
L 3047 4666 
L 3047 1625 
L 3713 1625 
L 3713 1100 
L 3047 1100 
L 3047 0 
L 2419 0 
L 2419 1100 
L 313 1100 
L 313 1709 
L 2253 4666 
z
" transform="scale(0.015625)"/>
       </defs>
       <use xlink:href="#DejaVuSans-34"/>
       <use xlink:href="#DejaVuSans-30" transform="translate(63.623047 0)"/>
       <use xlink:href="#DejaVuSans-30" transform="translate(127.246094 0)"/>
      </g>
     </g>
    </g>
    <g id="xtick_4">
     <g id="line2d_7">
      <path d="M 480.524669 888.477813 
L 480.524669 23.837812 
" clip-path="url(#pe50bdef438)" style="fill: none; stroke: #b0b0b0; stroke-opacity: 0.3; stroke-width: 0.8; stroke-linecap: square"/>
     </g>
     <g id="line2d_8">
      <g>
       <use xlink:href="#m60c70fd075" x="480.524669" y="888.477813" style="stroke: #000000; stroke-width: 0.8"/>
      </g>
     </g>
     <g id="text_4">
      <!-- 600 -->
      <g transform="translate(470.980919 903.07625) scale(0.1 -0.1)">
       <defs>
        <path id="DejaVuSans-36" d="M 2113 2584 
Q 1688 2584 1439 2293 
Q 1191 2003 1191 1497 
Q 1191 994 1439 701 
Q 1688 409 2113 409 
Q 2538 409 2786 701 
Q 3034 994 3034 1497 
Q 3034 2003 2786 2293 
Q 2538 2584 2113 2584 
z
M 3366 4563 
L 3366 3988 
Q 3128 4100 2886 4159 
Q 2644 4219 2406 4219 
Q 1781 4219 1451 3797 
Q 1122 3375 1075 2522 
Q 1259 2794 1537 2939 
Q 1816 3084 2150 3084 
Q 2853 3084 3261 2657 
Q 3669 2231 3669 1497 
Q 3669 778 3244 343 
Q 2819 -91 2113 -91 
Q 1303 -91 875 529 
Q 447 1150 447 2328 
Q 447 3434 972 4092 
Q 1497 4750 2381 4750 
Q 2619 4750 2861 4703 
Q 3103 4656 3366 4563 
z
" transform="scale(0.015625)"/>
       </defs>
       <use xlink:href="#DejaVuSans-36"/>
       <use xlink:href="#DejaVuSans-30" transform="translate(63.623047 0)"/>
       <use xlink:href="#DejaVuSans-30" transform="translate(127.246094 0)"/>
      </g>
     </g>
    </g>
    <g id="xtick_5">
     <g id="line2d_9">
      <path d="M 608.9855 888.477813 
L 608.9855 23.837812 
" clip-path="url(#pe50bdef438)" style="fill: none; stroke: #b0b0b0; stroke-opacity: 0.3; stroke-width: 0.8; stroke-linecap: square"/>
     </g>
     <g id="line2d_10">
      <g>
       <use xlink:href="#m60c70fd075" x="608.9855" y="888.477813" style="stroke: #000000; stroke-width: 0.8"/>
      </g>
     </g>
     <g id="text_5">
      <!-- 800 -->
      <g transform="translate(599.44175 903.07625) scale(0.1 -0.1)">
       <defs>
        <path id="DejaVuSans-38" d="M 2034 2216 
Q 1584 2216 1326 1975 
Q 1069 1734 1069 1313 
Q 1069 891 1326 650 
Q 1584 409 2034 409 
Q 2484 409 2743 651 
Q 3003 894 3003 1313 
Q 3003 1734 2745 1975 
Q 2488 2216 2034 2216 
z
M 1403 2484 
Q 997 2584 770 2862 
Q 544 3141 544 3541 
Q 544 4100 942 4425 
Q 1341 4750 2034 4750 
Q 2731 4750 3128 4425 
Q 3525 4100 3525 3541 
Q 3525 3141 3298 2862 
Q 3072 2584 2669 2484 
Q 3125 2378 3379 2068 
Q 3634 1759 3634 1313 
Q 3634 634 3220 271 
Q 2806 -91 2034 -91 
Q 1263 -91 848 271 
Q 434 634 434 1313 
Q 434 1759 690 2068 
Q 947 2378 1403 2484 
z
M 1172 3481 
Q 1172 3119 1398 2916 
Q 1625 2713 2034 2713 
Q 2441 2713 2670 2916 
Q 2900 3119 2900 3481 
Q 2900 3844 2670 4047 
Q 2441 4250 2034 4250 
Q 1625 4250 1398 4047 
Q 1172 3844 1172 3481 
z
" transform="scale(0.015625)"/>
       </defs>
       <use xlink:href="#DejaVuSans-38"/>
       <use xlink:href="#DejaVuSans-30" transform="translate(63.623047 0)"/>
       <use xlink:href="#DejaVuSans-30" transform="translate(127.246094 0)"/>
      </g>
     </g>
    </g>
    <g id="xtick_6">
     <g id="line2d_11">
      <path d="M 737.44633 888.477813 
L 737.44633 23.837812 
" clip-path="url(#pe50bdef438)" style="fill: none; stroke: #b0b0b0; stroke-opacity: 0.3; stroke-width: 0.8; stroke-linecap: square"/>
     </g>
     <g id="line2d_12">
      <g>
       <use xlink:href="#m60c70fd075" x="737.44633" y="888.477813" style="stroke: #000000; stroke-width: 0.8"/>
      </g>
     </g>
     <g id="text_6">
      <!-- 1000 -->
      <g transform="translate(724.72133 903.07625) scale(0.1 -0.1)">
       <defs>
        <path id="DejaVuSans-31" d="M 794 531 
L 1825 531 
L 1825 4091 
L 703 3866 
L 703 4441 
L 1819 4666 
L 2450 4666 
L 2450 531 
L 3481 531 
L 3481 0 
L 794 0 
L 794 531 
z
" transform="scale(0.015625)"/>
       </defs>
       <use xlink:href="#DejaVuSans-31"/>
       <use xlink:href="#DejaVuSans-30" transform="translate(63.623047 0)"/>
       <use xlink:href="#DejaVuSans-30" transform="translate(127.246094 0)"/>
       <use xlink:href="#DejaVuSans-30" transform="translate(190.869141 0)"/>
      </g>
     </g>
    </g>
    <g id="xtick_7">
     <g id="line2d_13">
      <path d="M 865.90716 888.477813 
L 865.90716 23.837812 
" clip-path="url(#pe50bdef438)" style="fill: none; stroke: #b0b0b0; stroke-opacity: 0.3; stroke-width: 0.8; stroke-linecap: square"/>
     </g>
     <g id="line2d_14">
      <g>
       <use xlink:href="#m60c70fd075" x="865.90716" y="888.477813" style="stroke: #000000; stroke-width: 0.8"/>
      </g>
     </g>
     <g id="text_7">
      <!-- 1200 -->
      <g transform="translate(853.18216 903.07625) scale(0.1 -0.1)">
       <use xlink:href="#DejaVuSans-31"/>
       <use xlink:href="#DejaVuSans-32" transform="translate(63.623047 0)"/>
       <use xlink:href="#DejaVuSans-30" transform="translate(127.246094 0)"/>
       <use xlink:href="#DejaVuSans-30" transform="translate(190.869141 0)"/>
      </g>
     </g>
    </g>
    <g id="xtick_8">
     <g id="line2d_15">
      <path d="M 994.36799 888.477813 
L 994.36799 23.837812 
" clip-path="url(#pe50bdef438)" style="fill: none; stroke: #b0b0b0; stroke-opacity: 0.3; stroke-width: 0.8; stroke-linecap: square"/>
     </g>
     <g id="line2d_16">
      <g>
       <use xlink:href="#m60c70fd075" x="994.36799" y="888.477813" style="stroke: #000000; stroke-width: 0.8"/>
      </g>
     </g>
     <g id="text_8">
      <!-- 1400 -->
      <g transform="translate(981.64299 903.07625) scale(0.1 -0.1)">
       <use xlink:href="#DejaVuSans-31"/>
       <use xlink:href="#DejaVuSans-34" transform="translate(63.623047 0)"/>
       <use xlink:href="#DejaVuSans-30" transform="translate(127.246094 0)"/>
       <use xlink:href="#DejaVuSans-30" transform="translate(190.869141 0)"/>
      </g>
     </g>
    </g>
    <g id="xtick_9">
     <g id="line2d_17">
      <path d="M 1122.82882 888.477813 
L 1122.82882 23.837812 
" clip-path="url(#pe50bdef438)" style="fill: none; stroke: #b0b0b0; stroke-opacity: 0.3; stroke-width: 0.8; stroke-linecap: square"/>
     </g>
     <g id="line2d_18">
      <g>
       <use xlink:href="#m60c70fd075" x="1122.82882" y="888.477813" style="stroke: #000000; stroke-width: 0.8"/>
      </g>
     </g>
     <g id="text_9">
      <!-- 1600 -->
      <g transform="translate(1110.10382 903.07625) scale(0.1 -0.1)">
       <use xlink:href="#DejaVuSans-31"/>
       <use xlink:href="#DejaVuSans-36" transform="translate(63.623047 0)"/>
       <use xlink:href="#DejaVuSans-30" transform="translate(127.246094 0)"/>
       <use xlink:href="#DejaVuSans-30" transform="translate(190.869141 0)"/>
      </g>
     </g>
    </g>
    <g id="text_10">
     <!-- Iteraciones (x10) -->
     <g transform="translate(538.405535 918.274063) scale(0.12 -0.12)">
      <defs>
       <path id="DejaVuSans-49" d="M 628 4666 
L 1259 4666 
L 1259 0 
L 628 0 
L 628 4666 
z
" transform="scale(0.015625)"/>
       <path id="DejaVuSans-74" d="M 1172 4494 
L 1172 3500 
L 2356 3500 
L 2356 3053 
L 1172 3053 
L 1172 1153 
Q 1172 725 1289 603 
Q 1406 481 1766 481 
L 2356 481 
L 2356 0 
L 1766 0 
Q 1100 0 847 248 
Q 594 497 594 1153 
L 594 3053 
L 172 3053 
L 172 3500 
L 594 3500 
L 594 4494 
L 1172 4494 
z
" transform="scale(0.015625)"/>
       <path id="DejaVuSans-65" d="M 3597 1894 
L 3597 1613 
L 953 1613 
Q 991 1019 1311 708 
Q 1631 397 2203 397 
Q 2534 397 2845 478 
Q 3156 559 3463 722 
L 3463 178 
Q 3153 47 2828 -22 
Q 2503 -91 2169 -91 
Q 1331 -91 842 396 
Q 353 884 353 1716 
Q 353 2575 817 3079 
Q 1281 3584 2069 3584 
Q 2775 3584 3186 3129 
Q 3597 2675 3597 1894 
z
M 3022 2063 
Q 3016 2534 2758 2815 
Q 2500 3097 2075 3097 
Q 1594 3097 1305 2825 
Q 1016 2553 972 2059 
L 3022 2063 
z
" transform="scale(0.015625)"/>
       <path id="DejaVuSans-72" d="M 2631 2963 
Q 2534 3019 2420 3045 
Q 2306 3072 2169 3072 
Q 1681 3072 1420 2755 
Q 1159 2438 1159 1844 
L 1159 0 
L 581 0 
L 581 3500 
L 1159 3500 
L 1159 2956 
Q 1341 3275 1631 3429 
Q 1922 3584 2338 3584 
Q 2397 3584 2469 3576 
Q 2541 3569 2628 3553 
L 2631 2963 
z
" transform="scale(0.015625)"/>
       <path id="DejaVuSans-61" d="M 2194 1759 
Q 1497 1759 1228 1600 
Q 959 1441 959 1056 
Q 959 750 1161 570 
Q 1363 391 1709 391 
Q 2188 391 2477 730 
Q 2766 1069 2766 1631 
L 2766 1759 
L 2194 1759 
z
M 3341 1997 
L 3341 0 
L 2766 0 
L 2766 531 
Q 2569 213 2275 61 
Q 1981 -91 1556 -91 
Q 1019 -91 701 211 
Q 384 513 384 1019 
Q 384 1609 779 1909 
Q 1175 2209 1959 2209 
L 2766 2209 
L 2766 2266 
Q 2766 2663 2505 2880 
Q 2244 3097 1772 3097 
Q 1472 3097 1187 3025 
Q 903 2953 641 2809 
L 641 3341 
Q 956 3463 1253 3523 
Q 1550 3584 1831 3584 
Q 2591 3584 2966 3190 
Q 3341 2797 3341 1997 
z
" transform="scale(0.015625)"/>
       <path id="DejaVuSans-63" d="M 3122 3366 
L 3122 2828 
Q 2878 2963 2633 3030 
Q 2388 3097 2138 3097 
Q 1578 3097 1268 2742 
Q 959 2388 959 1747 
Q 959 1106 1268 751 
Q 1578 397 2138 397 
Q 2388 397 2633 464 
Q 2878 531 3122 666 
L 3122 134 
Q 2881 22 2623 -34 
Q 2366 -91 2075 -91 
Q 1284 -91 818 406 
Q 353 903 353 1747 
Q 353 2603 823 3093 
Q 1294 3584 2113 3584 
Q 2378 3584 2631 3529 
Q 2884 3475 3122 3366 
z
" transform="scale(0.015625)"/>
       <path id="DejaVuSans-69" d="M 603 3500 
L 1178 3500 
L 1178 0 
L 603 0 
L 603 3500 
z
M 603 4863 
L 1178 4863 
L 1178 4134 
L 603 4134 
L 603 4863 
z
" transform="scale(0.015625)"/>
       <path id="DejaVuSans-6f" d="M 1959 3097 
Q 1497 3097 1228 2736 
Q 959 2375 959 1747 
Q 959 1119 1226 758 
Q 1494 397 1959 397 
Q 2419 397 2687 759 
Q 2956 1122 2956 1747 
Q 2956 2369 2687 2733 
Q 2419 3097 1959 3097 
z
M 1959 3584 
Q 2709 3584 3137 3096 
Q 3566 2609 3566 1747 
Q 3566 888 3137 398 
Q 2709 -91 1959 -91 
Q 1206 -91 779 398 
Q 353 888 353 1747 
Q 353 2609 779 3096 
Q 1206 3584 1959 3584 
z
" transform="scale(0.015625)"/>
       <path id="DejaVuSans-6e" d="M 3513 2113 
L 3513 0 
L 2938 0 
L 2938 2094 
Q 2938 2591 2744 2837 
Q 2550 3084 2163 3084 
Q 1697 3084 1428 2787 
Q 1159 2491 1159 1978 
L 1159 0 
L 581 0 
L 581 3500 
L 1159 3500 
L 1159 2956 
Q 1366 3272 1645 3428 
Q 1925 3584 2291 3584 
Q 2894 3584 3203 3211 
Q 3513 2838 3513 2113 
z
" transform="scale(0.015625)"/>
       <path id="DejaVuSans-73" d="M 2834 3397 
L 2834 2853 
Q 2591 2978 2328 3040 
Q 2066 3103 1784 3103 
Q 1356 3103 1142 2972 
Q 928 2841 928 2578 
Q 928 2378 1081 2264 
Q 1234 2150 1697 2047 
L 1894 2003 
Q 2506 1872 2764 1633 
Q 3022 1394 3022 966 
Q 3022 478 2636 193 
Q 2250 -91 1575 -91 
Q 1294 -91 989 -36 
Q 684 19 347 128 
L 347 722 
Q 666 556 975 473 
Q 1284 391 1588 391 
Q 1994 391 2212 530 
Q 2431 669 2431 922 
Q 2431 1156 2273 1281 
Q 2116 1406 1581 1522 
L 1381 1569 
Q 847 1681 609 1914 
Q 372 2147 372 2553 
Q 372 3047 722 3315 
Q 1072 3584 1716 3584 
Q 2034 3584 2315 3537 
Q 2597 3491 2834 3397 
z
" transform="scale(0.015625)"/>
       <path id="DejaVuSans-20" transform="scale(0.015625)"/>
       <path id="DejaVuSans-28" d="M 1984 4856 
Q 1566 4138 1362 3434 
Q 1159 2731 1159 2009 
Q 1159 1288 1364 580 
Q 1569 -128 1984 -844 
L 1484 -844 
Q 1016 -109 783 600 
Q 550 1309 550 2009 
Q 550 2706 781 3412 
Q 1013 4119 1484 4856 
L 1984 4856 
z
" transform="scale(0.015625)"/>
       <path id="DejaVuSans-78" d="M 3513 3500 
L 2247 1797 
L 3578 0 
L 2900 0 
L 1881 1375 
L 863 0 
L 184 0 
L 1544 1831 
L 300 3500 
L 978 3500 
L 1906 2253 
L 2834 3500 
L 3513 3500 
z
" transform="scale(0.015625)"/>
       <path id="DejaVuSans-29" d="M 513 4856 
L 1013 4856 
Q 1481 4119 1714 3412 
Q 1947 2706 1947 2009 
Q 1947 1309 1714 600 
Q 1481 -109 1013 -844 
L 513 -844 
Q 928 -128 1133 580 
Q 1338 1288 1338 2009 
Q 1338 2731 1133 3434 
Q 928 4138 513 4856 
z
" transform="scale(0.015625)"/>
      </defs>
      <use xlink:href="#DejaVuSans-49"/>
      <use xlink:href="#DejaVuSans-74" transform="translate(29.492188 0)"/>
      <use xlink:href="#DejaVuSans-65" transform="translate(68.701172 0)"/>
      <use xlink:href="#DejaVuSans-72" transform="translate(130.224609 0)"/>
      <use xlink:href="#DejaVuSans-61" transform="translate(171.337891 0)"/>
      <use xlink:href="#DejaVuSans-63" transform="translate(232.617188 0)"/>
      <use xlink:href="#DejaVuSans-69" transform="translate(287.597656 0)"/>
      <use xlink:href="#DejaVuSans-6f" transform="translate(315.380859 0)"/>
      <use xlink:href="#DejaVuSans-6e" transform="translate(376.5625 0)"/>
      <use xlink:href="#DejaVuSans-65" transform="translate(439.941406 0)"/>
      <use xlink:href="#DejaVuSans-73" transform="translate(501.464844 0)"/>
      <use xlink:href="#DejaVuSans-20" transform="translate(553.564453 0)"/>
      <use xlink:href="#DejaVuSans-28" transform="translate(585.351562 0)"/>
      <use xlink:href="#DejaVuSans-78" transform="translate(624.365234 0)"/>
      <use xlink:href="#DejaVuSans-31" transform="translate(683.544922 0)"/>
      <use xlink:href="#DejaVuSans-30" transform="translate(747.167969 0)"/>
      <use xlink:href="#DejaVuSans-29" transform="translate(810.791016 0)"/>
     </g>
    </g>
   </g>
   <g id="matplotlib.axis_2">
    <g id="ytick_1">
     <g id="line2d_19">
      <path d="M 45.716875 849.175994 
L 1133.073571 849.175994 
" clip-path="url(#pe50bdef438)" style="fill: none; stroke: #b0b0b0; stroke-opacity: 0.3; stroke-width: 0.8; stroke-linecap: square"/>
     </g>
     <g id="line2d_20">
      <defs>
       <path id="mec5be7ca61" d="M 0 0 
L -3.5 0 
" style="stroke: #000000; stroke-width: 0.8"/>
      </defs>
      <g>
       <use xlink:href="#mec5be7ca61" x="45.716875" y="849.175994" style="stroke: #000000; stroke-width: 0.8"/>
      </g>
     </g>
     <g id="text_11">
      <!-- 0.0 -->
      <g transform="translate(22.81375 852.975213) scale(0.1 -0.1)">
       <defs>
        <path id="DejaVuSans-2e" d="M 684 794 
L 1344 794 
L 1344 0 
L 684 0 
L 684 794 
z
" transform="scale(0.015625)"/>
       </defs>
       <use xlink:href="#DejaVuSans-30"/>
       <use xlink:href="#DejaVuSans-2e" transform="translate(63.623047 0)"/>
       <use xlink:href="#DejaVuSans-30" transform="translate(95.410156 0)"/>
      </g>
     </g>
    </g>
    <g id="ytick_2">
     <g id="line2d_21">
      <path d="M 45.716875 691.968722 
L 1133.073571 691.968722 
" clip-path="url(#pe50bdef438)" style="fill: none; stroke: #b0b0b0; stroke-opacity: 0.3; stroke-width: 0.8; stroke-linecap: square"/>
     </g>
     <g id="line2d_22">
      <g>
       <use xlink:href="#mec5be7ca61" x="45.716875" y="691.968722" style="stroke: #000000; stroke-width: 0.8"/>
      </g>
     </g>
     <g id="text_12">
      <!-- 0.2 -->
      <g transform="translate(22.81375 695.76794) scale(0.1 -0.1)">
       <use xlink:href="#DejaVuSans-30"/>
       <use xlink:href="#DejaVuSans-2e" transform="translate(63.623047 0)"/>
       <use xlink:href="#DejaVuSans-32" transform="translate(95.410156 0)"/>
      </g>
     </g>
    </g>
    <g id="ytick_3">
     <g id="line2d_23">
      <path d="M 45.716875 534.761449 
L 1133.073571 534.761449 
" clip-path="url(#pe50bdef438)" style="fill: none; stroke: #b0b0b0; stroke-opacity: 0.3; stroke-width: 0.8; stroke-linecap: square"/>
     </g>
     <g id="line2d_24">
      <g>
       <use xlink:href="#mec5be7ca61" x="45.716875" y="534.761449" style="stroke: #000000; stroke-width: 0.8"/>
      </g>
     </g>
     <g id="text_13">
      <!-- 0.4 -->
      <g transform="translate(22.81375 538.560668) scale(0.1 -0.1)">
       <use xlink:href="#DejaVuSans-30"/>
       <use xlink:href="#DejaVuSans-2e" transform="translate(63.623047 0)"/>
       <use xlink:href="#DejaVuSans-34" transform="translate(95.410156 0)"/>
      </g>
     </g>
    </g>
    <g id="ytick_4">
     <g id="line2d_25">
      <path d="M 45.716875 377.554176 
L 1133.073571 377.554176 
" clip-path="url(#pe50bdef438)" style="fill: none; stroke: #b0b0b0; stroke-opacity: 0.3; stroke-width: 0.8; stroke-linecap: square"/>
     </g>
     <g id="line2d_26">
      <g>
       <use xlink:href="#mec5be7ca61" x="45.716875" y="377.554176" style="stroke: #000000; stroke-width: 0.8"/>
      </g>
     </g>
     <g id="text_14">
      <!-- 0.6 -->
      <g transform="translate(22.81375 381.353395) scale(0.1 -0.1)">
       <use xlink:href="#DejaVuSans-30"/>
       <use xlink:href="#DejaVuSans-2e" transform="translate(63.623047 0)"/>
       <use xlink:href="#DejaVuSans-36" transform="translate(95.410156 0)"/>
      </g>
     </g>
    </g>
    <g id="ytick_5">
     <g id="line2d_27">
      <path d="M 45.716875 220.346903 
L 1133.073571 220.346903 
" clip-path="url(#pe50bdef438)" style="fill: none; stroke: #b0b0b0; stroke-opacity: 0.3; stroke-width: 0.8; stroke-linecap: square"/>
     </g>
     <g id="line2d_28">
      <g>
       <use xlink:href="#mec5be7ca61" x="45.716875" y="220.346903" style="stroke: #000000; stroke-width: 0.8"/>
      </g>
     </g>
     <g id="text_15">
      <!-- 0.8 -->
      <g transform="translate(22.81375 224.146122) scale(0.1 -0.1)">
       <use xlink:href="#DejaVuSans-30"/>
       <use xlink:href="#DejaVuSans-2e" transform="translate(63.623047 0)"/>
       <use xlink:href="#DejaVuSans-38" transform="translate(95.410156 0)"/>
      </g>
     </g>
    </g>
    <g id="ytick_6">
     <g id="line2d_29">
      <path d="M 45.716875 63.139631 
L 1133.073571 63.139631 
" clip-path="url(#pe50bdef438)" style="fill: none; stroke: #b0b0b0; stroke-opacity: 0.3; stroke-width: 0.8; stroke-linecap: square"/>
     </g>
     <g id="line2d_30">
      <g>
       <use xlink:href="#mec5be7ca61" x="45.716875" y="63.139631" style="stroke: #000000; stroke-width: 0.8"/>
      </g>
     </g>
     <g id="text_16">
      <!-- 1.0 -->
      <g transform="translate(22.81375 66.938849) scale(0.1 -0.1)">
       <use xlink:href="#DejaVuSans-31"/>
       <use xlink:href="#DejaVuSans-2e" transform="translate(63.623047 0)"/>
       <use xlink:href="#DejaVuSans-30" transform="translate(95.410156 0)"/>
      </g>
     </g>
    </g>
    <g id="text_17">
     <!-- Probabilidad -->
     <g transform="translate(16.318125 493.264063) rotate(-90) scale(0.12 -0.12)">
      <defs>
       <path id="DejaVuSans-50" d="M 1259 4147 
L 1259 2394 
L 2053 2394 
Q 2494 2394 2734 2622 
Q 2975 2850 2975 3272 
Q 2975 3691 2734 3919 
Q 2494 4147 2053 4147 
L 1259 4147 
z
M 628 4666 
L 2053 4666 
Q 2838 4666 3239 4311 
Q 3641 3956 3641 3272 
Q 3641 2581 3239 2228 
Q 2838 1875 2053 1875 
L 1259 1875 
L 1259 0 
L 628 0 
L 628 4666 
z
" transform="scale(0.015625)"/>
       <path id="DejaVuSans-62" d="M 3116 1747 
Q 3116 2381 2855 2742 
Q 2594 3103 2138 3103 
Q 1681 3103 1420 2742 
Q 1159 2381 1159 1747 
Q 1159 1113 1420 752 
Q 1681 391 2138 391 
Q 2594 391 2855 752 
Q 3116 1113 3116 1747 
z
M 1159 2969 
Q 1341 3281 1617 3432 
Q 1894 3584 2278 3584 
Q 2916 3584 3314 3078 
Q 3713 2572 3713 1747 
Q 3713 922 3314 415 
Q 2916 -91 2278 -91 
Q 1894 -91 1617 61 
Q 1341 213 1159 525 
L 1159 0 
L 581 0 
L 581 4863 
L 1159 4863 
L 1159 2969 
z
" transform="scale(0.015625)"/>
       <path id="DejaVuSans-6c" d="M 603 4863 
L 1178 4863 
L 1178 0 
L 603 0 
L 603 4863 
z
" transform="scale(0.015625)"/>
       <path id="DejaVuSans-64" d="M 2906 2969 
L 2906 4863 
L 3481 4863 
L 3481 0 
L 2906 0 
L 2906 525 
Q 2725 213 2448 61 
Q 2172 -91 1784 -91 
Q 1150 -91 751 415 
Q 353 922 353 1747 
Q 353 2572 751 3078 
Q 1150 3584 1784 3584 
Q 2172 3584 2448 3432 
Q 2725 3281 2906 2969 
z
M 947 1747 
Q 947 1113 1208 752 
Q 1469 391 1925 391 
Q 2381 391 2643 752 
Q 2906 1113 2906 1747 
Q 2906 2381 2643 2742 
Q 2381 3103 1925 3103 
Q 1469 3103 1208 2742 
Q 947 2381 947 1747 
z
" transform="scale(0.015625)"/>
      </defs>
      <use xlink:href="#DejaVuSans-50"/>
      <use xlink:href="#DejaVuSans-72" transform="translate(58.552734 0)"/>
      <use xlink:href="#DejaVuSans-6f" transform="translate(97.416016 0)"/>
      <use xlink:href="#DejaVuSans-62" transform="translate(158.597656 0)"/>
      <use xlink:href="#DejaVuSans-61" transform="translate(222.074219 0)"/>
      <use xlink:href="#DejaVuSans-62" transform="translate(283.353516 0)"/>
      <use xlink:href="#DejaVuSans-69" transform="translate(346.830078 0)"/>
      <use xlink:href="#DejaVuSans-6c" transform="translate(374.613281 0)"/>
      <use xlink:href="#DejaVuSans-69" transform="translate(402.396484 0)"/>
      <use xlink:href="#DejaVuSans-64" transform="translate(430.179688 0)"/>
      <use xlink:href="#DejaVuSans-61" transform="translate(493.65625 0)"/>
      <use xlink:href="#DejaVuSans-64" transform="translate(554.935547 0)"/>
     </g>
    </g>
   </g>
   <g id="line2d_31">
    <path d="M 95.142179 652.732648 
L 97.069092 652.629774 
L 102.849829 652.029771 
L 106.703654 651.676488 
L 142.030382 646.737997 
L 147.168816 645.818538 
L 158.73029 644.165807 
L 160.014899 644.153438 
L 161.299507 643.948838 
L 163.868723 643.444249 
L 168.364852 642.643089 
L 170.291765 642.539126 
L 177.999415 640.846525 
L 179.284023 640.480639 
L 182.495544 640.03206 
L 188.918585 638.493084 
L 191.487802 637.845176 
L 194.699323 637.351409 
L 201.122364 635.725431 
L 201.764668 635.58073 
L 203.049277 635.080591 
L 204.333885 634.773925 
L 206.260797 634.094861 
L 207.545406 633.588444 
L 212.683839 632.265945 
L 213.968447 631.718369 
L 216.537664 631.014755 
L 217.179968 630.678385 
L 219.10688 630.131699 
L 219.749185 629.851411 
L 221.033793 629.42614 
L 222.318401 629.052453 
L 223.603009 628.732411 
L 225.529922 627.916939 
L 226.81453 627.625031 
L 228.099138 627.290489 
L 230.026051 626.27892 
L 231.952963 625.816566 
L 233.237572 625.134925 
L 234.52218 624.621293 
L 236.449092 623.782184 
L 239.018309 622.749696 
L 242.22983 621.0347 
L 244.799046 620.085162 
L 246.725959 618.878785 
L 247.368263 618.554011 
L 248.652871 617.736243 
L 249.93748 617.06683 
L 251.222088 616.311585 
L 252.506696 615.939468 
L 253.791304 615.858227 
L 254.433609 615.775862 
L 255.718217 615.315407 
L 257.002825 614.618187 
L 257.645129 614.10144 
L 258.929738 613.263174 
L 260.214346 611.947516 
L 262.783563 610.48943 
L 263.425867 610.150811 
L 264.710475 609.237021 
L 265.995083 608.410679 
L 267.921996 607.696429 
L 269.848908 606.641077 
L 271.133517 605.59355 
L 272.418125 605.057945 
L 273.702733 604.628083 
L 274.987341 604.300099 
L 275.629646 603.804013 
L 276.914254 602.567979 
L 278.841166 601.635448 
L 281.410383 599.370581 
L 282.694991 598.949433 
L 283.337295 598.62056 
L 284.621904 597.713165 
L 285.264208 597.44384 
L 285.906512 596.913107 
L 286.548816 595.987065 
L 289.118033 593.368352 
L 289.760337 592.534443 
L 291.044945 591.317361 
L 291.687249 590.959486 
L 292.971858 589.996338 
L 294.256466 589.128626 
L 295.541074 588.098293 
L 296.825683 586.808029 
L 298.752595 585.326165 
L 300.037203 584.477733 
L 301.964116 581.876027 
L 302.60642 581.380058 
L 304.533332 579.332182 
L 305.175636 578.488693 
L 306.460245 577.255235 
L 307.102549 576.724245 
L 311.598678 571.711026 
L 312.240982 570.702549 
L 312.883286 569.45178 
L 313.52559 568.693068 
L 314.167895 568.23704 
L 314.810199 567.527874 
L 318.021719 562.724643 
L 319.306328 560.837866 
L 320.590936 559.13046 
L 321.875544 556.424064 
L 322.517849 555.652585 
L 323.802457 553.362535 
L 324.444761 552.487069 
L 325.087065 551.229062 
L 325.729369 550.444137 
L 329.583194 542.594205 
L 330.225498 541.432922 
L 331.510107 539.535369 
L 332.152411 538.178623 
L 333.437019 536.982014 
L 334.079323 536.479767 
L 335.363932 534.235115 
L 336.006236 532.470878 
L 337.290844 529.727283 
L 337.933148 528.067009 
L 339.860061 524.455842 
L 343.713885 518.287314 
L 344.35619 517.609983 
L 344.998494 517.214229 
L 345.640798 516.293271 
L 346.925406 513.794779 
L 348.210015 511.152031 
L 349.494623 509.419723 
L 350.136927 508.727329 
L 350.779231 508.642247 
L 351.421535 507.568811 
L 352.063839 505.823338 
L 353.348448 503.289941 
L 353.990752 502.201231 
L 354.633056 500.837949 
L 355.917664 499.243033 
L 356.559968 498.200799 
L 357.844577 494.994991 
L 359.129185 491.435455 
L 359.771489 490.103797 
L 362.340706 486.324785 
L 362.98301 485.618757 
L 363.625314 484.313735 
L 364.909922 481.098978 
L 365.552227 479.881473 
L 367.479139 475.533287 
L 369.406052 471.186529 
L 371.332964 466.393817 
L 371.975268 465.286062 
L 372.617572 464.464733 
L 373.902181 462.014966 
L 376.471397 455.285158 
L 377.113701 453.164194 
L 377.756005 451.909373 
L 379.040614 448.614781 
L 379.682918 447.61441 
L 380.325222 446.057865 
L 381.60983 443.512334 
L 382.894439 441.905611 
L 383.536743 440.709541 
L 384.821351 437.601559 
L 386.105959 433.037668 
L 387.390568 428.812373 
L 388.675176 425.634395 
L 389.959784 422.992584 
L 391.244393 421.586713 
L 393.171305 420.007914 
L 395.740522 412.225472 
L 397.667434 406.827064 
L 399.594347 402.695378 
L 400.236651 401.859549 
L 400.878955 400.586877 
L 401.521259 399.765993 
L 402.163563 399.150412 
L 402.805867 398.098317 
L 406.017388 390.802708 
L 407.944301 387.967916 
L 408.586605 387.369389 
L 409.228909 386.024566 
L 409.871213 383.47524 
L 411.798125 379.408958 
L 412.44043 378.090325 
L 413.082734 377.155873 
L 413.725038 375.826652 
L 414.367342 374.794047 
L 415.009646 373.440603 
L 416.294254 370.210666 
L 416.936559 368.120905 
L 418.221167 365.574062 
L 418.863471 364.628976 
L 419.505775 364.023655 
L 420.148079 362.05271 
L 420.790384 359.383069 
L 421.432688 357.518055 
L 422.074992 356.095083 
L 422.717296 355.024247 
L 424.001904 351.206606 
L 427.213425 344.722136 
L 429.782642 337.396308 
L 431.06725 334.325478 
L 434.921075 325.692776 
L 435.563379 324.611539 
L 436.205683 322.160273 
L 436.847987 320.643974 
L 438.132596 318.766169 
L 438.7749 318.211542 
L 440.059508 314.73273 
L 440.701812 312.405761 
L 441.98642 309.930648 
L 443.913333 304.787955 
L 445.197941 302.191543 
L 446.48255 300.407722 
L 447.124854 299.29486 
L 448.409462 297.623951 
L 449.051766 296.125409 
L 449.69407 294.311041 
L 450.978679 291.944482 
L 452.263287 289.015659 
L 452.905591 287.548882 
L 454.832503 282.167434 
L 455.474808 281.046654 
L 456.759416 276.065177 
L 457.40172 273.998233 
L 458.686328 271.159131 
L 461.255545 264.990018 
L 462.540153 260.983706 
L 463.182457 259.298882 
L 463.824762 257.273167 
L 464.467066 255.808358 
L 467.036282 253.20951 
L 467.678586 251.773139 
L 468.963195 249.698464 
L 471.532411 246.770297 
L 472.174716 245.1208 
L 474.101628 241.876714 
L 475.386236 240.789808 
L 476.670845 237.834701 
L 477.955453 234.613619 
L 479.882365 230.638042 
L 480.524669 229.308446 
L 481.166974 227.555875 
L 481.809278 226.611585 
L 483.093886 224.302559 
L 483.73619 223.504961 
L 485.020799 222.671287 
L 486.305407 221.479996 
L 486.947711 220.39754 
L 488.232319 217.408186 
L 489.516928 215.561209 
L 490.159232 214.913301 
L 490.801536 214.802731 
L 491.44384 215.182556 
L 492.086144 214.802497 
L 492.728448 214.292613 
L 493.370752 213.361301 
L 494.013057 213.079115 
L 494.655361 212.661434 
L 495.939969 212.242536 
L 497.224577 210.531381 
L 497.866882 210.1152 
L 499.793794 207.601481 
L 501.078402 206.865492 
L 501.720706 206.696077 
L 503.647619 204.908227 
L 504.932227 203.404578 
L 506.85914 201.87174 
L 507.501444 201.103892 
L 508.143748 199.932232 
L 508.786052 198.507293 
L 510.712965 196.457778 
L 512.639877 193.800178 
L 514.566789 190.849147 
L 515.209094 190.081674 
L 515.851398 189.773439 
L 516.493702 189.607772 
L 517.136006 188.981088 
L 518.420614 186.865043 
L 519.062919 186.195255 
L 520.347527 185.748106 
L 520.989831 185.046974 
L 521.632135 184.574196 
L 522.916743 183.242117 
L 523.559048 182.733123 
L 524.201352 182.041737 
L 524.843656 180.85068 
L 526.128264 179.250751 
L 526.770568 178.47953 
L 528.055177 177.718522 
L 529.339785 176.950299 
L 529.982089 176.10599 
L 533.19361 173.506767 
L 534.478218 172.779399 
L 535.762826 171.887113 
L 536.405131 171.867858 
L 537.689739 170.925582 
L 538.332043 170.017789 
L 538.974347 169.478904 
L 539.616651 169.367116 
L 540.258955 168.665469 
L 541.543564 166.237535 
L 542.185868 165.457834 
L 542.828172 164.921104 
L 543.470476 164.544138 
L 544.11278 164.004315 
L 545.397389 163.350504 
L 546.039693 163.0976 
L 546.681997 162.323521 
L 549.251214 160.548649 
L 550.535822 158.975331 
L 551.178126 158.248057 
L 551.82043 157.761458 
L 552.462734 158.024575 
L 553.105038 158.461699 
L 553.747343 158.248057 
L 555.031951 157.203832 
L 556.958863 156.363411 
L 559.52808 156.005935 
L 561.454992 154.90249 
L 562.097297 154.888997 
L 562.739601 154.639373 
L 563.381905 154.186367 
L 564.024209 153.925638 
L 564.666513 153.927887 
L 565.308817 153.711996 
L 565.951121 153.200613 
L 566.593426 152.200101 
L 567.23573 151.709754 
L 567.878034 151.486975 
L 568.520338 151.055567 
L 569.162642 150.963973 
L 570.447251 149.273574 
L 571.731859 147.677627 
L 572.374163 147.02152 
L 573.016467 145.999222 
L 573.658771 145.283238 
L 574.301075 145.026212 
L 574.94338 144.503115 
L 575.585684 143.73761 
L 576.870292 142.723277 
L 578.1549 141.664903 
L 578.797204 140.975157 
L 580.081813 140.517934 
L 580.724117 139.772949 
L 582.008725 138.705206 
L 582.651029 138.506884 
L 583.293334 138.138631 
L 585.220246 136.656768 
L 586.504854 135.875708 
L 587.789463 135.55412 
L 588.431767 134.994011 
L 589.074071 134.887565 
L 589.716375 134.400966 
L 591.000983 133.852242 
L 592.285592 133.071978 
L 592.927896 132.494535 
L 593.5702 131.37249 
L 594.212504 130.872585 
L 594.854808 130.772277 
L 596.139417 130.091432 
L 596.781721 129.877836 
L 597.424025 129.789287 
L 598.066329 129.487423 
L 599.993241 129.158105 
L 601.920154 127.49755 
L 602.562458 126.690394 
L 603.204762 126.080154 
L 603.847066 125.877756 
L 605.131675 126.096552 
L 605.773979 125.974551 
L 607.058587 126.040424 
L 608.9855 125.791549 
L 609.627804 125.551155 
L 610.270108 125.434588 
L 611.554716 125.559166 
L 612.19702 125.37326 
L 612.839324 125.018782 
L 615.408541 122.50764 
L 616.693149 122.222596 
L 617.977758 122.045544 
L 619.262366 121.887514 
L 620.546974 121.03004 
L 621.189278 120.515142 
L 622.473887 120.228505 
L 623.116191 119.965528 
L 623.758495 119.580785 
L 624.400799 118.970826 
L 625.043103 118.516648 
L 625.685407 118.242193 
L 626.327712 117.753439 
L 627.61232 117.296169 
L 628.254624 117.059054 
L 629.539232 116.761454 
L 631.466145 116.08342 
L 632.108449 115.678998 
L 632.750753 115.032215 
L 634.035361 114.416025 
L 637.246882 113.305693 
L 637.889186 113.058458 
L 639.816099 112.891901 
L 640.458403 112.568252 
L 641.743011 112.456558 
L 642.385315 112.357046 
L 644.312228 111.528572 
L 646.23914 111.729471 
L 647.523749 111.767702 
L 648.166053 111.694004 
L 649.450661 111.835824 
L 650.092965 111.726285 
L 650.735269 111.1807 
L 651.377573 110.898795 
L 652.019878 110.748215 
L 655.231398 109.337331 
L 656.516007 109.205491 
L 657.800615 109.067701 
L 660.369832 108.208493 
L 661.012136 108.290108 
L 662.296744 108.716878 
L 662.939048 108.766165 
L 665.508265 108.122193 
L 666.150569 107.914641 
L 666.792873 107.858232 
L 668.077481 107.864182 
L 668.719786 107.728734 
L 669.36209 107.724752 
L 670.004394 107.551074 
L 670.646698 107.245228 
L 671.931306 107.038847 
L 673.215915 106.898902 
L 674.500523 106.867184 
L 675.785131 106.772872 
L 677.712044 106.533976 
L 678.996652 106.303093 
L 679.638956 106.347086 
L 680.28126 106.256476 
L 680.923564 106.020438 
L 682.850477 105.830596 
L 683.492781 105.892065 
L 684.777389 105.765473 
L 686.704302 106.052484 
L 687.346606 105.921207 
L 687.98891 105.92041 
L 688.631214 106.090575 
L 689.915822 105.96253 
L 691.200431 106.019735 
L 694.411952 104.400175 
L 695.054256 104.098405 
L 697.623472 103.875768 
L 698.265776 104.111055 
L 698.908081 104.545837 
L 700.192689 104.794055 
L 702.761905 104.409405 
L 704.688818 104.074324 
L 705.973426 103.784173 
L 707.258035 103.307366 
L 708.542643 103.299214 
L 709.184947 103.129893 
L 709.827251 103.17829 
L 711.111859 102.813365 
L 712.396468 102.399433 
L 714.32338 102.226598 
L 716.892597 102.584824 
L 718.819509 101.944412 
L 719.461813 101.632194 
L 720.746422 101.270126 
L 721.388726 101.52392 
L 722.673334 101.61172 
L 724.600247 101.409415 
L 726.527159 101.35071 
L 727.811767 100.972385 
L 728.454071 101.052595 
L 730.380984 100.992391 
L 731.665592 101.072835 
L 732.307896 100.87395 
L 734.234809 100.728102 
L 735.519417 100.582347 
L 736.161721 100.624467 
L 736.804025 100.826912 
L 738.088634 100.824616 
L 738.730938 100.783621 
L 740.65785 100.232601 
L 741.300154 100.31923 
L 743.227067 100.180784 
L 743.869371 100.248062 
L 745.153979 100.135057 
L 746.438588 99.750406 
L 749.650108 99.318858 
L 750.292413 99.395694 
L 750.934717 99.258654 
L 752.219325 98.871942 
L 753.503933 99.139698 
L 754.146237 99.171042 
L 755.430846 98.763247 
L 758.642367 97.778149 
L 761.211583 96.838216 
L 765.065408 96.147907 
L 766.350016 96.290008 
L 767.634625 96.267566 
L 768.276929 95.98641 
L 771.48845 95.597497 
L 772.130754 95.533685 
L 772.773058 95.340423 
L 774.057666 94.699449 
L 777.269187 94.583913 
L 778.553795 95.007591 
L 779.196099 95.144818 
L 781.123012 94.78589 
L 784.976837 94.798633 
L 785.619141 94.69645 
L 786.903749 94.723671 
L 788.188357 94.436378 
L 790.757574 94.927428 
L 792.042182 94.678694 
L 793.326791 94.704181 
L 795.896007 94.611837 
L 796.538311 94.75642 
L 797.82292 94.674711 
L 799.107528 94.425181 
L 799.749832 94.379219 
L 800.392136 94.073701 
L 806.172874 92.773012 
L 806.815178 92.466416 
L 808.099786 92.212201 
L 810.026699 92.164272 
L 810.669003 92.148342 
L 813.238219 91.440089 
L 814.522828 91.047287 
L 817.734348 90.546445 
L 818.376653 90.603604 
L 819.661261 90.505169 
L 821.588173 90.680581 
L 822.230477 90.920694 
L 822.872782 91.018239 
L 826.084302 90.481322 
L 827.368911 90.017305 
L 829.295823 89.733995 
L 830.580431 89.780425 
L 833.791952 90.227809 
L 834.434256 90.324651 
L 837.003473 90.159734 
L 837.645777 89.795511 
L 838.288081 89.646851 
L 840.857298 89.790263 
L 842.141906 90.223686 
L 842.78421 90.215206 
L 844.068819 90.474575 
L 847.922643 90.178709 
L 849.849556 90.395959 
L 851.134164 90.774424 
L 851.776468 91.087767 
L 854.345685 91.725555 
L 855.630293 91.749777 
L 856.914902 91.548129 
L 858.19951 91.635225 
L 859.484118 91.459673 
L 861.411031 90.849433 
L 862.053335 90.91184 
L 862.695639 90.788011 
L 863.980247 90.280517 
L 866.549464 89.804506 
L 867.191768 89.522554 
L 868.476376 89.299167 
L 871.687897 88.952092 
L 872.972505 88.856983 
L 874.899418 88.984325 
L 878.753243 89.305351 
L 880.680155 88.946001 
L 881.322459 89.058538 
L 881.964763 89.324092 
L 882.607068 89.45968 
L 884.53398 89.464178 
L 885.818588 89.624597 
L 889.030109 89.355435 
L 890.314717 89.427212 
L 891.599326 88.967084 
L 892.24163 88.626755 
L 893.526238 88.304418 
L 896.095455 87.869636 
L 896.737759 87.719197 
L 899.306975 87.713809 
L 901.233888 87.622261 
L 902.518496 87.819271 
L 904.445409 87.934338 
L 908.941538 87.370622 
L 910.226146 86.95758 
L 911.510754 86.748201 
L 912.795363 86.722807 
L 913.437667 86.844153 
L 916.006883 86.68214 
L 917.933796 86.533668 
L 918.5761 86.588625 
L 919.218404 86.762678 
L 920.503012 86.664337 
L 921.145317 86.78929 
L 924.356837 86.928766 
L 925.641446 87.10563 
L 928.210662 87.066275 
L 930.779879 87.148546 
L 931.422183 87.008554 
L 933.349095 86.942213 
L 934.633704 86.773032 
L 938.487529 87.082533 
L 939.772137 87.164991 
L 940.414441 87.238548 
L 942.341353 86.695727 
L 942.983658 86.755557 
L 944.91057 86.587782 
L 946.195178 86.662744 
L 949.406699 86.860644 
L 950.691307 87.3397 
L 951.975916 87.363641 
L 952.61822 87.234706 
L 953.260524 87.229693 
L 955.187437 86.604461 
L 955.829741 86.622264 
L 956.472045 86.767785 
L 957.114349 87.038539 
L 957.756653 87.060887 
L 958.398957 86.92052 
L 959.041261 86.958329 
L 959.683566 86.835251 
L 961.610478 86.853242 
L 963.53739 87.581781 
L 964.821999 87.700081 
L 966.106607 87.553905 
L 969.960432 87.049034 
L 971.887344 87.487235 
L 972.529649 87.810276 
L 973.814257 88.089276 
L 974.456561 88.002366 
L 975.098865 88.041909 
L 976.383473 87.970929 
L 977.668082 88.071379 
L 978.95269 88.255692 
L 979.594994 88.287223 
L 980.879603 88.093211 
L 986.018036 87.741685 
L 987.302644 87.721961 
L 990.514165 87.368748 
L 992.441077 87.487985 
L 993.083381 87.303906 
L 993.725686 87.265441 
L 996.294902 87.628492 
L 997.57951 87.791863 
L 998.864119 87.746792 
L 1000.148727 87.959591 
L 1004.002552 87.487423 
L 1005.28716 87.578127 
L 1010.425593 87.310418 
L 1011.067898 87.113267 
L 1011.710202 87.138848 
L 1012.352506 87.308169 
L 1014.279418 87.345088 
L 1018.133243 87.02022 
L 1019.417852 86.601275 
L 1026.483197 86.590686 
L 1027.767805 86.722058 
L 1028.41011 86.729554 
L 1030.979326 86.140444 
L 1032.263935 86.212408 
L 1032.906239 86.239207 
L 1034.190847 85.980072 
L 1038.044672 86.083895 
L 1038.686976 86.284419 
L 1039.971584 86.482928 
L 1040.613888 86.417102 
L 1041.898497 86.552549 
L 1042.540801 86.406373 
L 1043.183105 86.434952 
L 1044.467713 86.805828 
L 1048.963842 87.237705 
L 1050.248451 87.109753 
L 1052.175363 86.758696 
L 1054.102276 86.800909 
L 1055.386884 86.395035 
L 1056.671492 85.913028 
L 1057.313796 85.790933 
L 1061.167621 86.089376 
L 1061.809925 86.004481 
L 1062.45223 86.153094 
L 1063.736838 86.231945 
L 1064.379142 86.389366 
L 1065.66375 86.47843 
L 1066.948359 86.533809 
L 1069.517575 86.39124 
L 1070.159879 86.287792 
L 1071.444488 86.358397 
L 1072.086792 86.356992 
L 1074.013704 86.710579 
L 1075.298313 86.592139 
L 1077.225225 86.186218 
L 1078.509833 86.262445 
L 1079.794442 86.099028 
L 1080.436746 86.234569 
L 1081.07905 86.195823 
L 1081.721354 86.017178 
L 1083.648267 85.880794 
L 1083.648267 85.880794 
" clip-path="url(#pe50bdef438)" style="fill: none; stroke-dasharray: 9.25,4; stroke-dashoffset: 0; stroke: #000000; stroke-width: 2.5"/>
   </g>
   <g id="line2d_32">
    <path d="M 95.142179 651.623077 
L 102.849829 651.683562 
L 107.345958 651.629379 
L 112.484391 651.582035 
L 116.338216 651.358601 
L 121.47665 651.224676 
L 132.39582 651.032773 
L 133.680428 651.050881 
L 136.249645 650.830937 
L 140.745774 651.088924 
L 143.957295 651.09471 
L 145.241903 650.995456 
L 147.168816 650.907352 
L 151.664945 651.023332 
L 152.949553 651.016656 
L 154.876465 651.195816 
L 157.445682 650.930192 
L 161.299507 651.111764 
L 165.153332 651.120268 
L 169.007157 650.837871 
L 170.934069 651.094921 
L 172.860982 651.180378 
L 174.14559 651.330865 
L 177.357111 651.493697 
L 178.641719 651.40475 
L 179.284023 651.263563 
L 186.349369 651.404937 
L 188.276281 651.727205 
L 190.845498 651.896502 
L 196.626235 651.530827 
L 197.910843 651.687334 
L 201.122364 651.525837 
L 202.406972 651.470178 
L 205.618493 651.866822 
L 207.545406 652.153388 
L 208.830014 652.1826 
L 211.399231 652.283073 
L 213.326143 652.196913 
L 214.610751 652.462983 
L 216.537664 652.35677 
L 217.822272 652.448552 
L 219.749185 652.517143 
L 221.033793 652.637504 
L 222.960705 652.458672 
L 224.245314 652.751283 
L 226.172226 653.152706 
L 227.456834 653.051507 
L 228.741443 653.344199 
L 230.668355 653.279732 
L 232.595268 652.900036 
L 235.164484 653.147798 
L 237.733701 653.983194 
L 241.587526 654.092077 
L 242.22983 654.216385 
L 242.872134 654.516984 
L 244.799046 654.751054 
L 247.368263 655.159727 
L 249.295175 655.052566 
L 250.579784 655.194491 
L 252.506696 655.437521 
L 253.791304 655.512284 
L 255.075913 655.583674 
L 257.002825 655.651561 
L 259.572042 656.063631 
L 260.85665 656.488492 
L 261.498954 656.583881 
L 262.783563 656.390045 
L 264.710475 656.673672 
L 266.637387 656.624384 
L 267.279692 656.666187 
L 267.921996 656.905469 
L 268.5643 657.2904 
L 269.848908 657.549583 
L 272.418125 658.012264 
L 274.987341 658.231739 
L 275.629646 658.572759 
L 277.556558 658.861563 
L 280.768079 659.737192 
L 282.694991 659.749889 
L 283.337295 660.087219 
L 284.621904 660.315667 
L 285.906512 660.165204 
L 286.548816 660.419361 
L 287.19112 660.530211 
L 288.475729 660.911441 
L 291.687249 661.540527 
L 292.971858 661.986974 
L 293.614162 661.863603 
L 294.89877 662.254531 
L 296.825683 662.541671 
L 298.752595 663.238493 
L 299.394899 663.573738 
L 300.037203 663.723452 
L 300.679507 664.089279 
L 304.533332 665.156145 
L 305.175636 665.497024 
L 306.460245 665.667411 
L 307.102549 665.566212 
L 307.744853 665.753641 
L 309.029461 666.324139 
L 309.671766 666.460289 
L 310.31407 667.01248 
L 310.956374 667.325201 
L 312.240982 667.672429 
L 312.883286 667.95116 
L 314.167895 668.153558 
L 315.452503 668.590002 
L 316.737111 668.902232 
L 318.664024 670.155929 
L 319.948632 670.28511 
L 320.590936 670.683909 
L 321.875544 671.681411 
L 322.517849 671.936892 
L 323.802457 672.734689 
L 324.444761 672.947395 
L 325.087065 673.316713 
L 325.729369 673.528165 
L 327.013978 674.412673 
L 328.298586 675.240901 
L 328.94089 675.528849 
L 331.510107 677.520128 
L 332.152411 677.82054 
L 332.794715 677.830062 
L 334.079323 678.325727 
L 335.363932 678.861356 
L 336.006236 679.567442 
L 336.64854 679.996226 
L 337.290844 680.243636 
L 338.575452 681.250942 
L 339.217756 681.758027 
L 340.502365 682.43859 
L 342.429277 683.021937 
L 343.713885 683.788063 
L 344.35619 684.202359 
L 345.640798 684.776441 
L 347.56771 686.365641 
L 349.494623 687.026972 
L 350.136927 686.956344 
L 350.779231 686.757916 
L 351.421535 687.177459 
L 352.063839 687.866187 
L 353.348448 688.81816 
L 353.990752 689.165353 
L 354.633056 689.789156 
L 355.27536 690.111681 
L 356.559968 690.389276 
L 357.202273 690.819712 
L 357.844577 691.538225 
L 359.129185 693.169217 
L 360.413793 693.562956 
L 361.056098 693.769102 
L 362.340706 694.414152 
L 363.625314 694.89315 
L 364.909922 695.993537 
L 366.194531 697.302425 
L 366.836835 697.71583 
L 367.479139 697.94525 
L 368.121443 698.353045 
L 369.406052 699.454604 
L 370.048356 699.938731 
L 370.69066 700.271142 
L 371.332964 700.989257 
L 371.975268 701.431043 
L 372.617572 701.608844 
L 373.902181 702.765886 
L 375.829093 704.947042 
L 377.756005 706.229155 
L 379.040614 707.494553 
L 379.682918 707.760622 
L 380.967526 708.882819 
L 382.252135 709.4679 
L 384.821351 710.240761 
L 385.463655 710.897418 
L 388.032872 714.780628 
L 388.675176 715.394967 
L 389.31748 715.817192 
L 389.959784 716.075999 
L 390.602088 716.100936 
L 392.529001 716.625075 
L 393.171305 716.919629 
L 394.455913 717.907667 
L 395.098218 719.03004 
L 397.02513 721.277409 
L 397.667434 721.667212 
L 400.878955 724.185722 
L 401.521259 724.520546 
L 402.163563 724.573593 
L 402.805867 725.02537 
L 404.090476 726.556533 
L 406.017388 728.113417 
L 407.301996 728.540222 
L 408.586605 728.895754 
L 409.228909 729.348795 
L 409.871213 730.112602 
L 411.155821 730.937468 
L 411.798125 731.688309 
L 416.294254 735.459427 
L 417.578863 736.759647 
L 418.221167 737.341272 
L 419.505775 737.930277 
L 420.148079 738.660433 
L 420.790384 739.657056 
L 421.432688 740.324993 
L 422.074992 740.694054 
L 422.717296 740.918952 
L 423.3596 741.423472 
L 424.001904 742.164005 
L 429.140337 745.830925 
L 431.06725 747.711002 
L 433.636467 750.129742 
L 434.921075 750.927065 
L 435.563379 751.038396 
L 436.847987 752.535744 
L 438.132596 753.529088 
L 438.7749 753.840849 
L 439.417204 754.54646 
L 440.059508 754.964732 
L 440.701812 755.684715 
L 441.98642 756.344038 
L 445.197941 759.368777 
L 446.48255 760.216671 
L 449.051766 762.317676 
L 449.69407 762.640025 
L 450.336374 762.756779 
L 450.978679 763.03486 
L 452.263287 763.954102 
L 452.905591 764.56409 
L 454.832503 766.791892 
L 455.474808 767.171324 
L 457.40172 769.460157 
L 458.044024 770.066976 
L 458.686328 770.469102 
L 461.255545 772.815181 
L 462.540153 774.202475 
L 463.182457 774.741524 
L 464.467066 776.068467 
L 466.393978 776.745886 
L 467.036282 777.08338 
L 467.678586 777.595466 
L 470.890107 779.301444 
L 471.532411 779.614189 
L 472.174716 780.141185 
L 473.459324 780.71231 
L 474.101628 781.20921 
L 475.386236 781.749401 
L 477.955453 784.708946 
L 479.240061 785.670765 
L 480.524669 786.400529 
L 481.166974 787.013152 
L 483.73619 788.376001 
L 485.020799 788.567506 
L 486.305407 789.179843 
L 486.947711 789.688198 
L 488.232319 790.887079 
L 490.159232 791.733239 
L 490.801536 791.702264 
L 491.44384 791.454098 
L 492.728448 791.686803 
L 493.370752 792.046564 
L 495.939969 792.748152 
L 497.224577 793.442291 
L 497.866882 793.621351 
L 499.793794 794.427857 
L 502.363011 794.790921 
L 506.216835 796.168405 
L 506.85914 796.281218 
L 508.143748 796.886731 
L 508.786052 797.382683 
L 509.428356 797.485516 
L 511.997573 798.801297 
L 515.209094 800.893918 
L 517.136006 801.194274 
L 519.062919 802.171372 
L 520.347527 802.465411 
L 521.632135 802.832402 
L 523.559048 803.697273 
L 524.201352 803.950792 
L 524.843656 804.435095 
L 525.48596 804.720218 
L 526.128264 804.841812 
L 527.412872 805.276084 
L 529.339785 805.759813 
L 529.982089 806.13499 
L 531.266697 806.500955 
L 531.909002 806.757379 
L 533.19361 806.911983 
L 533.835914 806.891851 
L 535.120522 807.118785 
L 535.762826 807.389446 
L 537.047435 807.651913 
L 540.258955 808.623465 
L 542.185868 809.918813 
L 544.11278 810.507238 
L 545.397389 810.756897 
L 546.039693 810.768698 
L 546.681997 811.064945 
L 549.251214 811.676629 
L 551.178126 812.860289 
L 551.82043 813.100622 
L 552.462734 813.049648 
L 553.105038 812.847595 
L 553.747343 812.80838 
L 560.812688 814.07627 
L 563.381905 814.202737 
L 564.666513 814.468666 
L 565.951121 814.751039 
L 566.593426 815.160316 
L 567.878034 815.280618 
L 568.520338 815.358749 
L 569.162642 815.258018 
L 570.447251 815.929528 
L 571.731859 816.706761 
L 572.374163 816.910951 
L 573.658771 817.480372 
L 574.301075 817.528503 
L 579.439509 819.194381 
L 580.081813 819.363017 
L 580.724117 819.719995 
L 582.008725 820.162454 
L 583.293334 820.289829 
L 585.220246 820.765054 
L 585.86255 820.973801 
L 589.074071 821.506416 
L 589.716375 821.735698 
L 592.285592 822.074815 
L 592.927896 822.317974 
L 593.5702 822.774192 
L 594.212504 822.933197 
L 594.854808 822.921918 
L 596.781721 823.313303 
L 597.424025 823.296021 
L 598.066329 823.423667 
L 599.993241 823.390915 
L 601.920154 824.036973 
L 603.204762 824.623785 
L 603.847066 824.768793 
L 607.700891 824.449031 
L 611.554716 824.711583 
L 612.839324 825.030243 
L 614.766237 825.985006 
L 615.408541 826.216287 
L 619.90467 826.800266 
L 621.189278 827.237308 
L 622.473887 827.325529 
L 623.758495 827.534526 
L 625.043103 827.947669 
L 626.327712 828.167649 
L 628.254624 828.336953 
L 630.823841 828.434421 
L 632.108449 828.685939 
L 633.393057 829.100535 
L 635.31997 829.41212 
L 637.246882 829.690352 
L 638.53149 829.848878 
L 639.816099 829.852893 
L 641.100707 830.051387 
L 642.385315 830.18623 
L 644.954532 830.437591 
L 646.881444 830.227194 
L 648.808357 830.338537 
L 650.092965 830.300862 
L 651.377573 830.584946 
L 652.662182 830.784384 
L 653.94679 831.029885 
L 655.873703 831.107158 
L 657.800615 831.180318 
L 659.727527 831.562699 
L 660.369832 831.649753 
L 661.65444 831.505357 
L 662.939048 831.332494 
L 665.508265 831.564685 
L 666.792873 831.778547 
L 668.077481 831.721572 
L 670.646698 832.149906 
L 672.57361 832.164969 
L 675.142827 832.115948 
L 677.069739 832.158451 
L 678.996652 832.367276 
L 680.28126 832.400383 
L 681.565869 832.506867 
L 682.850477 832.513592 
L 684.135085 832.492174 
L 685.419693 832.481344 
L 686.704302 832.362849 
L 689.273518 832.572998 
L 691.842735 832.56961 
L 696.338864 833.267526 
L 697.623472 833.302806 
L 700.192689 832.977982 
L 711.111859 833.719609 
L 713.681076 834.00624 
L 716.250293 833.973198 
L 716.892597 833.906955 
L 720.746422 834.335339 
L 722.03103 834.196643 
L 726.527159 834.2492 
L 728.454071 834.338658 
L 731.665592 834.303981 
L 732.950201 834.385262 
L 736.161721 834.393999 
L 737.44633 834.289814 
L 740.015546 834.516093 
L 740.65785 834.599315 
L 741.942459 834.632913 
L 743.869371 834.67569 
L 747.723196 834.967272 
L 749.007804 835.029942 
L 750.292413 834.986161 
L 752.219325 835.223948 
L 754.146237 835.090669 
L 756.07315 835.325042 
L 759.284671 835.75223 
L 760.569279 835.994478 
L 765.065408 836.255722 
L 766.99232 836.140874 
L 768.276929 836.242546 
L 771.48845 836.478138 
L 775.342274 836.915927 
L 779.196099 836.736227 
L 783.049924 836.829548 
L 784.976837 836.845992 
L 788.188357 836.965858 
L 790.757574 836.654347 
L 792.042182 836.722562 
L 794.611399 836.745726 
L 795.896007 836.776266 
L 797.82292 836.711365 
L 800.392136 836.990808 
L 803.603657 837.12704 
L 806.172874 837.42059 
L 807.457482 837.619058 
L 811.311307 837.813154 
L 818.376653 838.355973 
L 822.230477 838.223138 
L 823.515086 838.174768 
L 825.441998 838.356023 
L 827.368911 838.674929 
L 831.86504 838.599736 
L 837.003473 838.415593 
L 838.288081 838.612779 
L 844.711123 838.397173 
L 845.995731 838.558599 
L 849.849556 838.334327 
L 854.345685 837.765014 
L 856.272597 837.78003 
L 865.90716 838.569759 
L 868.476376 838.878015 
L 873.614809 838.917668 
L 879.395547 838.827909 
L 881.322459 838.85364 
L 882.607068 838.701035 
L 891.599326 838.828952 
L 892.883934 839.025975 
L 898.022367 839.397971 
L 902.518496 839.421703 
L 905.730017 839.357182 
L 907.014625 839.444857 
L 908.941538 839.517547 
L 910.86845 839.794106 
L 912.795363 839.774075 
L 914.079971 839.701463 
L 917.933796 839.941302 
L 931.422183 839.694072 
L 934.633704 839.82121 
L 938.487529 839.597928 
L 941.699049 839.780603 
L 946.195178 839.884261 
L 949.406699 839.713843 
L 950.691307 839.500955 
L 953.902828 839.648641 
L 955.829741 839.791793 
L 959.041261 839.812363 
L 960.32587 839.881953 
L 961.610478 839.854412 
L 964.179695 839.539676 
L 966.106607 839.571595 
L 969.960432 839.836433 
L 971.887344 839.596645 
L 973.171953 839.31881 
L 973.814257 839.256785 
L 975.741169 839.363804 
L 978.95269 839.278834 
L 982.806515 839.266378 
L 985.375732 839.423899 
L 987.302644 839.343111 
L 991.156469 839.622158 
L 992.441077 839.569618 
L 993.725686 839.652749 
L 996.294902 839.395128 
L 998.221815 839.278891 
L 1002.075639 839.336128 
L 1003.360248 839.428533 
L 1009.783289 839.449827 
L 1011.710202 839.584407 
L 1013.637114 839.52308 
L 1018.133243 839.637525 
L 1019.417852 839.797442 
L 1029.052414 839.691453 
L 1032.263935 839.905085 
L 1033.548543 839.909321 
L 1035.475455 839.937407 
L 1038.044672 839.992335 
L 1039.971584 839.796665 
L 1042.540801 839.884125 
L 1043.825409 839.761167 
L 1045.110018 839.650261 
L 1047.03693 839.598437 
L 1048.321538 839.448002 
L 1050.890755 839.595555 
L 1052.175363 839.678575 
L 1054.74458 839.769388 
L 1057.313796 840.06536 
L 1063.094534 839.826817 
L 1067.590663 839.702206 
L 1070.802184 839.808397 
L 1072.729096 839.711234 
L 1074.656008 839.591206 
L 1079.152137 839.821257 
L 1083.648267 839.920793 
L 1083.648267 839.920793 
" clip-path="url(#pe50bdef438)" style="fill: none; stroke: #1f77b4; stroke-width: 2; stroke-linecap: square"/>
   </g>
   <g id="line2d_33">
    <path d="M 95.142179 655.707935 
L 97.069092 655.684849 
L 100.280613 655.769791 
L 101.565221 655.786259 
L 109.272871 656.510781 
L 110.557479 656.76208 
L 112.484391 656.972033 
L 115.053608 657.622694 
L 119.549737 658.159002 
L 121.47665 658.262099 
L 126.615083 658.963746 
L 128.541995 659.24592 
L 134.965037 659.8736 
L 136.891949 660.163318 
L 140.10347 660.414781 
L 146.526511 661.54342 
L 147.81112 661.484012 
L 149.095728 661.678118 
L 150.380336 661.888387 
L 152.307249 662.003864 
L 153.591857 662.17732 
L 154.876465 662.295807 
L 158.087986 662.774453 
L 160.014899 662.73826 
L 160.657203 662.883148 
L 162.584115 663.074665 
L 167.722548 664.046937 
L 168.364852 664.127334 
L 170.291765 663.904649 
L 175.430198 664.619028 
L 178.641719 665.52852 
L 179.284023 665.772194 
L 180.568631 665.895694 
L 181.210935 665.843584 
L 183.137848 666.129904 
L 185.06476 666.635419 
L 186.349369 666.818316 
L 188.276281 666.727717 
L 197.268539 668.286592 
L 198.553148 668.426174 
L 199.837756 668.686891 
L 200.48006 668.910524 
L 201.764668 669.087342 
L 202.406972 669.337212 
L 204.976189 669.698928 
L 205.618493 669.935598 
L 207.545406 670.324254 
L 208.830014 670.574628 
L 211.399231 671.057163 
L 215.89536 671.826334 
L 217.179968 672.268026 
L 218.464576 672.396047 
L 219.749185 672.63465 
L 221.033793 672.849604 
L 222.318401 673.208451 
L 223.603009 673.342048 
L 224.245314 673.487346 
L 224.887618 673.769169 
L 225.529922 673.911199 
L 226.172226 673.903351 
L 227.456834 674.135359 
L 228.099138 674.133087 
L 229.383747 674.596412 
L 230.026051 674.894915 
L 233.237572 675.390661 
L 234.52218 675.74836 
L 236.449092 676.421767 
L 237.733701 676.316609 
L 239.018309 676.384579 
L 239.660613 676.649254 
L 244.799046 677.852902 
L 246.083655 678.387442 
L 247.368263 678.816179 
L 248.652871 679.409271 
L 250.579784 680.063317 
L 253.149 680.15743 
L 253.791304 680.243074 
L 255.075913 680.056418 
L 257.002825 680.505688 
L 257.645129 680.892376 
L 258.929738 681.357951 
L 260.214346 682.00833 
L 260.85665 682.226201 
L 262.783563 683.224324 
L 263.425867 683.281447 
L 264.710475 683.669658 
L 265.995083 684.355317 
L 266.637387 684.387047 
L 268.5643 684.166845 
L 270.491212 684.692671 
L 271.775821 685.018745 
L 274.345037 685.301528 
L 274.987341 685.21401 
L 275.629646 685.440923 
L 276.914254 686.313015 
L 278.198862 686.584027 
L 279.48347 686.879882 
L 280.768079 687.515187 
L 281.410383 687.832067 
L 282.694991 688.021347 
L 283.337295 688.019156 
L 287.833424 689.441905 
L 288.475729 689.638248 
L 289.118033 689.977511 
L 290.402641 690.928723 
L 292.329553 691.975981 
L 293.614162 692.324767 
L 294.256466 692.390288 
L 295.541074 692.914087 
L 296.825683 693.561995 
L 297.467987 693.716183 
L 300.037203 693.834612 
L 301.964116 694.70688 
L 305.817941 696.528498 
L 306.460245 696.714534 
L 307.744853 697.501403 
L 308.387157 697.714226 
L 309.671766 698.394661 
L 310.31407 698.296999 
L 310.956374 698.407802 
L 311.598678 698.828868 
L 313.52559 700.458922 
L 315.452503 700.833851 
L 316.737111 701.509905 
L 320.590936 704.421276 
L 321.875544 705.297866 
L 325.729369 707.2435 
L 326.371673 707.823965 
L 327.013978 708.117607 
L 328.298586 709.142341 
L 328.94089 709.869323 
L 329.583194 710.360361 
L 330.867802 710.791733 
L 331.510107 710.974817 
L 332.152411 711.462634 
L 332.794715 711.696305 
L 333.437019 711.76773 
L 334.079323 712.012084 
L 334.721627 712.54352 
L 335.363932 712.920006 
L 337.933148 715.212856 
L 339.217756 715.841051 
L 339.860061 716.086845 
L 341.786973 717.252966 
L 343.071581 718.172108 
L 344.998494 718.450031 
L 345.640798 718.71651 
L 346.925406 719.773677 
L 348.210015 721.218423 
L 351.421535 722.302541 
L 352.706144 723.277074 
L 354.633056 724.278055 
L 355.27536 724.593939 
L 356.559968 725.637296 
L 357.202273 726.286903 
L 358.486881 727.137116 
L 359.771489 728.101564 
L 361.056098 728.643026 
L 362.340706 729.120008 
L 363.625314 730.101253 
L 364.267618 730.790425 
L 365.552227 731.235221 
L 367.479139 732.755339 
L 369.406052 733.837618 
L 372.617572 736.653939 
L 373.259876 737.134669 
L 374.544485 737.856357 
L 375.186789 738.261364 
L 377.113701 740.625124 
L 377.756005 740.992158 
L 378.39831 741.537192 
L 379.040614 741.935429 
L 379.682918 742.028195 
L 380.325222 742.337906 
L 380.967526 742.510015 
L 381.60983 743.039928 
L 382.894439 743.47253 
L 383.536743 743.942555 
L 384.821351 745.218905 
L 387.390568 747.613844 
L 389.31748 749.079708 
L 391.244393 750.148799 
L 391.886697 750.528108 
L 393.171305 750.804051 
L 398.309738 754.89025 
L 398.952042 755.358284 
L 400.878955 755.951247 
L 401.521259 756.049266 
L 402.805867 756.68576 
L 404.73278 758.258844 
L 407.301996 759.45243 
L 409.228909 760.405107 
L 409.871213 761.181933 
L 410.513517 761.678043 
L 411.798125 762.201748 
L 413.082734 763.082666 
L 414.367342 763.762292 
L 415.009646 764.036965 
L 418.221167 766.509765 
L 418.863471 766.835371 
L 419.505775 766.994864 
L 420.148079 767.454196 
L 422.074992 769.263849 
L 422.717296 769.684124 
L 424.001904 770.719822 
L 426.571121 772.468533 
L 427.213425 772.803714 
L 429.140337 774.416059 
L 430.424946 775.403312 
L 432.994162 776.554305 
L 435.563379 778.499219 
L 436.205683 779.368851 
L 436.847987 779.999038 
L 437.490291 780.253687 
L 438.132596 780.33064 
L 438.7749 780.291695 
L 440.059508 781.138265 
L 440.701812 781.869704 
L 441.344116 782.406627 
L 442.628725 783.140601 
L 444.555637 784.455574 
L 445.197941 784.904364 
L 445.840245 785.165467 
L 447.124854 785.460584 
L 448.409462 785.921608 
L 449.051766 786.327821 
L 449.69407 787.026428 
L 450.978679 787.728708 
L 451.620983 787.994074 
L 456.117112 791.251999 
L 457.40172 792.739836 
L 459.328633 794.076396 
L 460.613241 794.67005 
L 462.540153 796.214905 
L 465.10937 798.257322 
L 466.393978 798.849507 
L 467.678586 799.221408 
L 468.320891 799.370834 
L 468.963195 799.746635 
L 471.532411 800.552082 
L 472.174716 801.067134 
L 473.459324 801.700987 
L 474.101628 802.007401 
L 474.743932 802.181972 
L 475.386236 802.239646 
L 477.313149 803.080676 
L 478.597757 803.803312 
L 479.882365 804.422111 
L 480.524669 804.786208 
L 481.166974 805.291732 
L 481.809278 805.653686 
L 483.093886 806.648022 
L 483.73619 806.891702 
L 486.305407 807.410816 
L 486.947711 807.58252 
L 489.516928 808.897912 
L 490.159232 808.993966 
L 492.086144 808.858651 
L 492.728448 809.049757 
L 493.370752 809.399331 
L 495.939969 809.848073 
L 497.866882 810.42458 
L 499.15149 810.90288 
L 507.501444 813.322993 
L 508.786052 814.153382 
L 509.428356 814.371104 
L 511.355269 814.763341 
L 513.282181 815.404991 
L 513.924485 815.781223 
L 515.209094 816.179776 
L 517.136006 816.570646 
L 519.062919 817.416138 
L 520.989831 817.523721 
L 524.201352 818.40275 
L 524.843656 818.659223 
L 526.128264 818.91707 
L 527.412872 819.247947 
L 531.266697 820.242523 
L 533.19361 820.602491 
L 534.478218 820.820722 
L 535.120522 820.982503 
L 537.047435 821.16944 
L 537.689739 821.288417 
L 538.332043 821.599525 
L 538.974347 821.715347 
L 539.616651 821.639211 
L 540.258955 821.834581 
L 541.543564 822.529622 
L 542.828172 822.833228 
L 546.039693 823.287781 
L 549.893518 824.560119 
L 551.82043 824.962063 
L 553.105038 824.690836 
L 555.674255 825.087737 
L 556.958863 825.27088 
L 559.52808 825.369131 
L 561.454992 825.646394 
L 562.097297 825.593667 
L 564.666513 826.049426 
L 565.951121 826.285447 
L 567.23573 826.686277 
L 569.804946 827.162457 
L 571.731859 827.679351 
L 572.374163 827.786048 
L 573.658771 828.233419 
L 575.585684 828.686915 
L 578.797204 829.535943 
L 582.651029 829.914104 
L 584.577942 830.477052 
L 586.504854 830.667662 
L 593.5702 831.725971 
L 594.854808 831.958832 
L 598.066329 832.376005 
L 599.993241 832.572257 
L 602.562458 833.141556 
L 603.847066 833.360335 
L 607.700891 833.300718 
L 609.627804 833.509069 
L 610.912412 833.583375 
L 612.19702 833.5526 
L 613.481629 833.689204 
L 616.050845 834.22265 
L 618.620062 834.29877 
L 619.90467 834.386199 
L 621.189278 834.499927 
L 622.473887 834.561523 
L 624.400799 834.907809 
L 627.61232 835.490228 
L 630.823841 835.899182 
L 632.750753 836.300251 
L 650.092965 837.05688 
L 651.377573 837.258106 
L 653.94679 837.441552 
L 655.873703 837.674899 
L 659.085223 837.757754 
L 661.012136 837.869424 
L 662.939048 837.753208 
L 668.719786 838.013928 
L 670.004394 837.987301 
L 671.931306 838.096875 
L 675.785131 838.17471 
L 677.712044 838.215717 
L 682.850477 838.4925 
L 689.273518 838.342013 
L 691.842735 838.424499 
L 694.411952 838.829479 
L 695.69656 838.838381 
L 700.192689 838.634422 
L 705.331122 838.95874 
L 707.900339 839.217 
L 710.469555 839.240986 
L 713.038772 839.418473 
L 716.250293 839.306145 
L 716.892597 839.264129 
L 719.461813 839.559495 
L 750.934717 840.191484 
L 752.219325 840.301083 
L 754.146237 840.230865 
L 765.707712 841.035888 
L 768.919233 841.09998 
L 770.846145 841.141051 
L 773.415362 841.19416 
L 775.342274 841.281503 
L 777.911491 841.26868 
L 779.838403 841.217965 
L 783.692228 841.320814 
L 786.903749 841.354406 
L 788.188357 841.447084 
L 790.757574 841.347147 
L 794.611399 841.423295 
L 799.749832 841.476691 
L 801.676745 841.676153 
L 804.888265 841.798759 
L 808.74209 842.019664 
L 811.311307 841.987963 
L 813.238219 842.125745 
L 815.165132 842.300157 
L 817.734348 842.403869 
L 820.303565 842.362043 
L 825.441998 842.361747 
L 831.222736 842.64274 
L 839.572689 842.724536 
L 840.857298 842.70658 
L 842.78421 842.543145 
L 845.353427 842.499509 
L 847.280339 842.504357 
L 850.49186 842.394188 
L 854.987989 842.07092 
L 856.914902 842.137545 
L 862.695639 842.306018 
L 867.834072 842.650659 
L 874.899418 842.789548 
L 879.395547 842.713756 
L 881.964763 842.708783 
L 885.818588 842.721656 
L 891.599326 842.854322 
L 893.526238 842.991103 
L 895.453151 842.992967 
L 897.380063 843.081789 
L 899.94928 843.11355 
L 901.233888 843.117484 
L 903.803104 843.058056 
L 908.941538 843.134221 
L 912.153058 843.303778 
L 917.933796 843.42764 
L 931.422183 843.182392 
L 933.9914 843.279574 
L 935.918312 843.322675 
L 947.479787 843.303292 
L 950.691307 843.245148 
L 953.260524 843.190206 
L 955.829741 843.321178 
L 957.756653 843.190379 
L 961.610478 843.277998 
L 965.464303 843.080085 
L 968.675824 843.197626 
L 971.887344 843.114318 
L 973.814257 843.014753 
L 977.025778 842.994091 
L 980.879603 842.938752 
L 989.229556 843.15188 
L 1000.148727 843.082235 
L 1003.360248 843.211422 
L 1010.425593 843.180167 
L 1011.710202 843.23983 
L 1014.279418 843.182076 
L 1032.906239 843.478486 
L 1034.190847 843.573198 
L 1049.606147 843.237008 
L 1063.736838 843.49146 
L 1066.948359 843.359477 
L 1073.3714 843.420316 
L 1075.298313 843.395436 
L 1077.225225 843.472707 
L 1081.07905 843.457398 
L 1083.005962 843.558796 
L 1083.648267 843.593021 
L 1083.648267 843.593021 
" clip-path="url(#pe50bdef438)" style="fill: none; stroke: #ff7f0e; stroke-width: 2; stroke-linecap: square"/>
   </g>
   <g id="line2d_34">
    <path d="M 95.142179 650.603965 
L 102.849829 651.052357 
L 109.915175 651.233672 
L 113.126696 651.18935 
L 115.053608 651.14627 
L 116.98052 651.226293 
L 131.753516 651.993695 
L 136.249645 652.220831 
L 140.745774 652.042093 
L 148.453424 652.506672 
L 149.738032 652.466567 
L 152.307249 652.657346 
L 155.518769 652.60848 
L 156.803378 652.738446 
L 158.087986 652.700496 
L 160.657203 652.638605 
L 163.226419 652.793601 
L 164.511028 652.77349 
L 166.43794 652.992251 
L 167.722548 653.060842 
L 173.503286 653.23404 
L 177.357111 653.081398 
L 178.641719 653.10651 
L 183.137848 653.328867 
L 184.422456 653.234379 
L 186.349369 653.337675 
L 187.633977 653.440502 
L 188.918585 653.548507 
L 190.203194 653.442775 
L 192.77241 653.777797 
L 194.057018 653.642362 
L 197.268539 654.077869 
L 198.553148 654.202494 
L 199.195452 654.360688 
L 200.48006 654.396271 
L 202.406972 654.569832 
L 204.333885 654.70583 
L 206.260797 654.546571 
L 207.545406 654.601539 
L 212.041535 654.750714 
L 212.683839 654.963572 
L 213.968447 655.061374 
L 215.253055 655.077467 
L 215.89536 655.230414 
L 217.179968 655.277043 
L 217.822272 655.424379 
L 219.10688 655.451201 
L 219.749185 655.664305 
L 221.676097 655.825076 
L 223.603009 656.029383 
L 226.172226 655.795465 
L 227.456834 655.994842 
L 228.741443 656.04297 
L 230.668355 656.268056 
L 231.952963 656.870401 
L 233.237572 657.205131 
L 233.879876 657.162192 
L 234.52218 657.258143 
L 235.164484 657.213541 
L 235.806788 657.011951 
L 237.091397 657.002124 
L 242.22983 658.185263 
L 243.514438 657.930203 
L 247.368263 658.13779 
L 248.652871 658.501779 
L 249.93748 658.640225 
L 252.506696 659.123263 
L 254.433609 659.203438 
L 255.075913 659.460183 
L 256.360521 659.735143 
L 257.002825 659.892107 
L 258.287434 659.987004 
L 260.214346 660.394529 
L 262.141258 660.39925 
L 267.921996 661.824482 
L 269.206604 661.894243 
L 272.418125 662.490006 
L 273.702733 662.62372 
L 274.987341 662.921754 
L 275.629646 662.849977 
L 276.914254 663.021582 
L 277.556558 663.107461 
L 278.198862 663.075414 
L 280.125775 663.496503 
L 281.410383 663.75852 
L 282.052687 663.910295 
L 283.9796 664.106134 
L 285.264208 664.366089 
L 286.548816 665.112854 
L 287.19112 665.543348 
L 290.402641 666.671179 
L 291.044945 666.760033 
L 292.329553 666.447416 
L 292.971858 666.515046 
L 294.256466 667.078013 
L 295.541074 667.320762 
L 296.183378 667.638227 
L 297.467987 667.918551 
L 299.394899 668.489002 
L 300.679507 668.85668 
L 301.964116 669.61114 
L 305.817941 670.727141 
L 307.102549 671.254372 
L 308.387157 671.540564 
L 309.671766 672.042366 
L 310.31407 672.102383 
L 313.52559 673.468195 
L 314.167895 673.679589 
L 314.810199 674.087793 
L 315.452503 674.640956 
L 316.737111 675.517476 
L 317.379415 675.669685 
L 318.021719 675.610804 
L 319.306328 675.888891 
L 319.948632 676.236212 
L 321.23324 676.72041 
L 321.875544 677.26432 
L 322.517849 677.445295 
L 323.802457 678.254852 
L 324.444761 678.64188 
L 325.087065 679.222803 
L 325.729369 679.451812 
L 329.583194 681.67025 
L 330.867802 682.264678 
L 331.510107 682.637205 
L 332.794715 683.636429 
L 333.437019 683.867277 
L 334.079323 683.85013 
L 334.721627 684.175431 
L 337.290844 686.105838 
L 337.933148 686.695206 
L 339.217756 687.440951 
L 339.860061 688.018875 
L 340.502365 688.368199 
L 341.144669 688.897433 
L 341.786973 689.183953 
L 343.713885 690.328018 
L 344.998494 690.520401 
L 345.640798 690.881368 
L 347.56771 691.39917 
L 348.210015 691.718919 
L 350.136927 693.043327 
L 351.421535 693.618791 
L 352.063839 694.150074 
L 353.348448 694.907966 
L 354.633056 695.762513 
L 355.27536 695.899916 
L 356.559968 696.440183 
L 359.129185 698.437752 
L 360.413793 699.601471 
L 362.340706 700.808785 
L 362.98301 700.887648 
L 364.267618 701.938537 
L 364.909922 702.574135 
L 366.194531 703.26975 
L 368.763747 705.546541 
L 370.69066 707.376745 
L 371.332964 707.758795 
L 372.617572 707.940122 
L 373.259876 708.124377 
L 373.902181 708.432155 
L 374.544485 708.98697 
L 375.829093 709.650222 
L 376.471397 710.09107 
L 377.113701 710.961066 
L 381.60983 714.877727 
L 382.894439 715.633207 
L 384.179047 716.896016 
L 385.463655 718.468795 
L 386.748264 719.882595 
L 388.032872 720.697341 
L 388.675176 720.983463 
L 389.959784 722.201705 
L 391.244393 722.671156 
L 392.529001 722.79297 
L 393.171305 722.936148 
L 395.098218 725.132355 
L 396.382826 726.45394 
L 397.02513 726.956398 
L 397.667434 727.763788 
L 399.594347 728.998897 
L 400.236651 729.223995 
L 400.878955 729.943797 
L 402.163563 730.633274 
L 404.090476 731.325094 
L 405.375084 732.305155 
L 406.017388 732.970035 
L 409.228909 734.889198 
L 409.871213 735.897769 
L 411.155821 736.953366 
L 411.798125 737.368563 
L 412.44043 737.650972 
L 413.082734 737.788223 
L 413.725038 738.115551 
L 414.367342 738.279273 
L 415.65195 739.406506 
L 416.294254 739.957093 
L 416.936559 740.752255 
L 419.505775 741.718905 
L 420.148079 742.50027 
L 420.790384 743.534081 
L 422.074992 744.614709 
L 422.717296 745.040261 
L 424.001904 746.577128 
L 425.928817 747.877219 
L 427.213425 748.87348 
L 429.782642 751.838431 
L 431.709554 753.538171 
L 432.994162 754.33656 
L 436.205683 757.261763 
L 438.132596 758.041734 
L 438.7749 758.323575 
L 440.059508 759.831839 
L 440.701812 760.707305 
L 441.98642 761.664661 
L 443.271029 763.14051 
L 444.555637 763.930489 
L 446.48255 764.768315 
L 447.124854 765.153217 
L 448.409462 765.384107 
L 449.051766 765.896562 
L 449.69407 766.690225 
L 451.620983 768.617159 
L 452.263287 769.25059 
L 453.547895 770.184134 
L 454.190199 770.95672 
L 455.474808 771.871716 
L 456.759416 773.890046 
L 458.044024 774.955096 
L 458.686328 775.358686 
L 459.970937 776.577936 
L 461.255545 777.716735 
L 462.540153 779.26668 
L 463.824762 780.570795 
L 464.467066 780.866433 
L 465.751674 781.017025 
L 466.393978 781.075666 
L 467.036282 781.390976 
L 467.678586 782.07756 
L 468.963195 782.936516 
L 470.890107 783.426688 
L 471.532411 783.730941 
L 472.81702 784.929125 
L 474.101628 785.574251 
L 475.386236 785.888601 
L 476.670845 786.788751 
L 481.166974 790.806893 
L 485.663103 792.452883 
L 486.305407 792.597009 
L 487.590015 793.525359 
L 488.232319 794.030616 
L 488.874623 794.28554 
L 490.159232 795.027192 
L 490.801536 795.204507 
L 491.44384 795.199494 
L 492.728448 795.638451 
L 493.370752 795.860334 
L 495.939969 795.828867 
L 497.224577 796.399131 
L 497.866882 796.506485 
L 498.509186 796.773526 
L 499.793794 797.540806 
L 501.078402 797.824696 
L 501.720706 797.813528 
L 503.647619 798.260602 
L 505.574531 798.959748 
L 508.143748 800.099746 
L 508.786052 800.624186 
L 513.924485 803.140877 
L 515.851398 803.63713 
L 517.136006 803.921647 
L 518.420614 804.708239 
L 524.201352 806.272382 
L 526.770568 807.965765 
L 528.055177 808.116117 
L 528.697481 808.244109 
L 529.339785 808.221814 
L 532.551306 809.408461 
L 535.120522 810.282398 
L 535.762826 810.365776 
L 536.405131 810.287352 
L 537.689739 810.610902 
L 538.974347 811.206437 
L 539.616651 811.298134 
L 540.258955 811.544229 
L 541.543564 812.359061 
L 544.11278 813.143708 
L 545.397389 813.301164 
L 547.324301 813.847231 
L 547.966605 813.853261 
L 551.82043 814.843588 
L 553.105038 814.667409 
L 554.389647 815.106199 
L 555.031951 815.375838 
L 557.601168 815.523402 
L 558.885776 815.485388 
L 560.170384 815.588207 
L 562.097297 816.122005 
L 563.381905 816.348222 
L 565.308817 816.271965 
L 565.951121 816.430607 
L 567.23573 817.001632 
L 569.162642 817.457684 
L 572.374163 818.949234 
L 573.016467 819.408193 
L 573.658771 819.670611 
L 574.94338 819.935626 
L 576.227988 820.348668 
L 578.1549 820.805818 
L 578.797204 821.051621 
L 580.081813 821.208605 
L 582.008725 821.942644 
L 583.935638 822.307497 
L 585.220246 822.732354 
L 587.147158 823.110776 
L 587.789463 823.102849 
L 588.431767 823.321013 
L 589.074071 823.322588 
L 592.285592 824.111487 
L 592.927896 824.37531 
L 593.5702 824.794986 
L 594.212504 824.965921 
L 597.424025 825.28898 
L 601.27785 825.897494 
L 603.204762 826.664469 
L 605.131675 826.645914 
L 605.773979 826.800343 
L 607.700891 826.929436 
L 610.270108 827.025727 
L 612.19702 826.906479 
L 613.481629 827.249509 
L 615.408541 827.791344 
L 618.620062 827.939677 
L 619.262366 827.885725 
L 620.546974 828.161164 
L 621.189278 828.415075 
L 623.758495 828.816946 
L 625.043103 829.168754 
L 630.181536 829.921555 
L 631.466145 829.993076 
L 632.108449 830.129666 
L 633.393057 830.539603 
L 634.677666 830.817377 
L 636.604578 831.060472 
L 637.889186 831.334715 
L 639.816099 831.403776 
L 640.458403 831.466214 
L 641.743011 831.37682 
L 643.027619 831.562788 
L 644.312228 831.823211 
L 648.808357 831.60589 
L 649.450661 831.527302 
L 650.092965 831.583716 
L 651.377573 831.925904 
L 652.662182 832.112106 
L 655.231398 832.58298 
L 657.158311 832.712596 
L 659.085223 832.790304 
L 661.012136 832.903951 
L 662.296744 832.814574 
L 663.581352 832.886743 
L 665.508265 833.023507 
L 670.646698 833.220783 
L 672.57361 833.417429 
L 674.500523 833.555975 
L 678.354348 833.719689 
L 681.565869 833.792816 
L 682.850477 833.831051 
L 687.98891 833.849584 
L 688.631214 833.696634 
L 691.842735 834.00093 
L 695.69656 834.615415 
L 696.981168 834.630121 
L 697.623472 834.676369 
L 700.192689 834.261059 
L 705.331122 834.438115 
L 709.184947 834.769838 
L 710.469555 834.772964 
L 714.965684 835.053744 
L 716.250293 835.01067 
L 716.892597 834.911707 
L 718.177205 835.024872 
L 720.746422 835.43369 
L 722.673334 835.322206 
L 729.73868 835.602272 
L 731.665592 835.512411 
L 733.592505 835.631482 
L 735.519417 835.708052 
L 738.088634 835.671369 
L 739.373242 835.727479 
L 741.300154 835.886939 
L 745.153979 835.84712 
L 746.438588 836.050381 
L 749.650108 836.16676 
L 750.934717 836.146578 
L 752.219325 836.270516 
L 754.146237 836.175008 
L 762.496191 837.101598 
L 765.065408 837.24274 
L 766.99232 837.180156 
L 771.48845 837.455738 
L 772.773058 837.575738 
L 774.057666 837.835682 
L 777.911491 837.738053 
L 779.196099 837.600589 
L 781.765316 837.771173 
L 785.619141 837.716632 
L 787.546053 837.750176 
L 789.472966 837.878289 
L 795.253703 837.818507 
L 796.538311 837.791313 
L 797.82292 837.820203 
L 799.107528 837.927787 
L 800.392136 838.043663 
L 808.74209 838.767623 
L 812.595915 838.998464 
L 817.734348 839.30905 
L 819.018957 839.363733 
L 820.303565 839.413556 
L 821.588173 839.383555 
L 822.872782 839.251165 
L 825.441998 839.281115 
L 826.726606 839.380219 
L 829.295823 839.614689 
L 832.507344 839.510665 
L 835.07656 839.424804 
L 840.214994 839.646651 
L 842.78421 839.503015 
L 844.711123 839.377324 
L 847.280339 839.409559 
L 849.849556 839.502054 
L 853.703381 839.154063 
L 855.630293 839.104787 
L 856.914902 839.155226 
L 858.841814 839.08558 
L 860.126422 839.212618 
L 861.411031 839.357916 
L 862.695639 839.401489 
L 864.622551 839.594297 
L 866.549464 839.683784 
L 867.834072 839.808472 
L 871.687897 839.959115 
L 874.899418 840.011413 
L 880.037851 839.972334 
L 880.680155 840.057979 
L 881.964763 839.892124 
L 883.891676 839.747513 
L 885.176284 839.706 
L 887.103197 839.687236 
L 889.672413 839.79155 
L 890.957021 839.90282 
L 893.526238 840.287886 
L 897.380063 840.490913 
L 899.306975 840.417685 
L 900.591584 840.402887 
L 903.1608 840.341695 
L 904.445409 840.341555 
L 907.014625 840.4952 
L 908.941538 840.645139 
L 910.226146 840.744973 
L 913.437667 840.810357 
L 935.918312 840.745983 
L 937.845224 840.697763 
L 941.056745 840.708503 
L 942.341353 840.816046 
L 944.268266 840.842803 
L 946.837483 840.827236 
L 949.406699 840.777668 
L 951.333612 840.573641 
L 953.260524 840.675109 
L 955.187437 840.943885 
L 956.472045 840.858489 
L 957.756653 840.709701 
L 961.610478 840.681996 
L 963.53739 840.400584 
L 965.464303 840.394344 
L 970.602736 840.557492 
L 975.098865 840.29797 
L 977.025778 840.346247 
L 980.237298 840.295585 
L 984.091123 840.493767 
L 986.66034 840.488098 
L 996.294902 840.566567 
L 1000.791031 840.47763 
L 1004.002552 840.557204 
L 1005.929464 840.561751 
L 1008.498681 840.609411 
L 1009.783289 840.599881 
L 1011.067898 840.725096 
L 1016.206331 840.645604 
L 1021.344764 841.035486 
L 1023.913981 841.090783 
L 1026.483197 841.0641 
L 1028.41011 841.060732 
L 1030.979326 841.183709 
L 1034.190847 841.162119 
L 1038.044672 841.117129 
L 1039.971584 840.957732 
L 1043.825409 840.959939 
L 1046.394626 840.849236 
L 1050.890755 840.81614 
L 1052.175363 840.8992 
L 1054.74458 840.925425 
L 1057.313796 841.283427 
L 1063.736838 841.148485 
L 1065.021446 841.079172 
L 1076.582921 841.129662 
L 1079.794442 841.249439 
L 1081.07905 841.206974 
L 1082.363658 841.281385 
L 1083.648267 841.27316 
L 1083.648267 841.27316 
" clip-path="url(#pe50bdef438)" style="fill: none; stroke: #2ca02c; stroke-width: 2; stroke-linecap: square"/>
   </g>
   <g id="patch_3">
    <path d="M 45.716875 888.477813 
L 45.716875 23.837812 
" style="fill: none; stroke: #000000; stroke-width: 0.8; stroke-linejoin: miter; stroke-linecap: square"/>
   </g>
   <g id="patch_4">
    <path d="M 1133.073571 888.477813 
L 1133.073571 23.837812 
" style="fill: none; stroke: #000000; stroke-width: 0.8; stroke-linejoin: miter; stroke-linecap: square"/>
   </g>
   <g id="patch_5">
    <path d="M 45.716875 888.477813 
L 1133.073571 888.477813 
" style="fill: none; stroke: #000000; stroke-width: 0.8; stroke-linejoin: miter; stroke-linecap: square"/>
   </g>
   <g id="patch_6">
    <path d="M 45.716875 23.837812 
L 1133.073571 23.837812 
" style="fill: none; stroke: #000000; stroke-width: 0.8; stroke-linejoin: miter; stroke-linecap: square"/>
   </g>
   <g id="text_18">
    <!-- Link 3: Evolucin de Probabilidades de Accin -->
    <g transform="translate(408.30741 17.837812) scale(0.14 -0.14)">
     <defs>
      <path id="DejaVuSans-Bold-4c" d="M 588 4666 
L 1791 4666 
L 1791 909 
L 3903 909 
L 3903 0 
L 588 0 
L 588 4666 
z
" transform="scale(0.015625)"/>
      <path id="DejaVuSans-Bold-69" d="M 538 3500 
L 1656 3500 
L 1656 0 
L 538 0 
L 538 3500 
z
M 538 4863 
L 1656 4863 
L 1656 3950 
L 538 3950 
L 538 4863 
z
" transform="scale(0.015625)"/>
      <path id="DejaVuSans-Bold-6e" d="M 4056 2131 
L 4056 0 
L 2931 0 
L 2931 347 
L 2931 1631 
Q 2931 2084 2911 2256 
Q 2891 2428 2841 2509 
Q 2775 2619 2662 2680 
Q 2550 2741 2406 2741 
Q 2056 2741 1856 2470 
Q 1656 2200 1656 1722 
L 1656 0 
L 538 0 
L 538 3500 
L 1656 3500 
L 1656 2988 
Q 1909 3294 2193 3439 
Q 2478 3584 2822 3584 
Q 3428 3584 3742 3212 
Q 4056 2841 4056 2131 
z
" transform="scale(0.015625)"/>
      <path id="DejaVuSans-Bold-6b" d="M 538 4863 
L 1656 4863 
L 1656 2216 
L 2944 3500 
L 4244 3500 
L 2534 1894 
L 4378 0 
L 3022 0 
L 1656 1459 
L 1656 0 
L 538 0 
L 538 4863 
z
" transform="scale(0.015625)"/>
      <path id="DejaVuSans-Bold-20" transform="scale(0.015625)"/>
      <path id="DejaVuSans-Bold-33" d="M 2981 2516 
Q 3453 2394 3698 2092 
Q 3944 1791 3944 1325 
Q 3944 631 3412 270 
Q 2881 -91 1863 -91 
Q 1503 -91 1142 -33 
Q 781 25 428 141 
L 428 1069 
Q 766 900 1098 814 
Q 1431 728 1753 728 
Q 2231 728 2486 893 
Q 2741 1059 2741 1369 
Q 2741 1688 2480 1852 
Q 2219 2016 1709 2016 
L 1228 2016 
L 1228 2791 
L 1734 2791 
Q 2188 2791 2409 2933 
Q 2631 3075 2631 3366 
Q 2631 3634 2415 3781 
Q 2200 3928 1806 3928 
Q 1516 3928 1219 3862 
Q 922 3797 628 3669 
L 628 4550 
Q 984 4650 1334 4700 
Q 1684 4750 2022 4750 
Q 2931 4750 3382 4451 
Q 3834 4153 3834 3553 
Q 3834 3144 3618 2883 
Q 3403 2622 2981 2516 
z
" transform="scale(0.015625)"/>
      <path id="DejaVuSans-Bold-3a" d="M 716 3500 
L 1844 3500 
L 1844 2291 
L 716 2291 
L 716 3500 
z
M 716 1209 
L 1844 1209 
L 1844 0 
L 716 0 
L 716 1209 
z
" transform="scale(0.015625)"/>
      <path id="DejaVuSans-Bold-45" d="M 588 4666 
L 3834 4666 
L 3834 3756 
L 1791 3756 
L 1791 2888 
L 3713 2888 
L 3713 1978 
L 1791 1978 
L 1791 909 
L 3903 909 
L 3903 0 
L 588 0 
L 588 4666 
z
" transform="scale(0.015625)"/>
      <path id="DejaVuSans-Bold-76" d="M 97 3500 
L 1216 3500 
L 2088 1081 
L 2956 3500 
L 4078 3500 
L 2700 0 
L 1472 0 
L 97 3500 
z
" transform="scale(0.015625)"/>
      <path id="DejaVuSans-Bold-6f" d="M 2203 2784 
Q 1831 2784 1636 2517 
Q 1441 2250 1441 1747 
Q 1441 1244 1636 976 
Q 1831 709 2203 709 
Q 2569 709 2762 976 
Q 2956 1244 2956 1747 
Q 2956 2250 2762 2517 
Q 2569 2784 2203 2784 
z
M 2203 3584 
Q 3106 3584 3614 3096 
Q 4122 2609 4122 1747 
Q 4122 884 3614 396 
Q 3106 -91 2203 -91 
Q 1297 -91 786 396 
Q 275 884 275 1747 
Q 275 2609 786 3096 
Q 1297 3584 2203 3584 
z
" transform="scale(0.015625)"/>
      <path id="DejaVuSans-Bold-6c" d="M 538 4863 
L 1656 4863 
L 1656 0 
L 538 0 
L 538 4863 
z
" transform="scale(0.015625)"/>
      <path id="DejaVuSans-Bold-75" d="M 500 1363 
L 500 3500 
L 1625 3500 
L 1625 3150 
Q 1625 2866 1622 2436 
Q 1619 2006 1619 1863 
Q 1619 1441 1641 1255 
Q 1663 1069 1716 984 
Q 1784 875 1895 815 
Q 2006 756 2150 756 
Q 2500 756 2700 1025 
Q 2900 1294 2900 1772 
L 2900 3500 
L 4019 3500 
L 4019 0 
L 2900 0 
L 2900 506 
Q 2647 200 2364 54 
Q 2081 -91 1741 -91 
Q 1134 -91 817 281 
Q 500 653 500 1363 
z
" transform="scale(0.015625)"/>
      <path id="DejaVuSans-Bold-63" d="M 3366 3391 
L 3366 2478 
Q 3138 2634 2908 2709 
Q 2678 2784 2431 2784 
Q 1963 2784 1702 2511 
Q 1441 2238 1441 1747 
Q 1441 1256 1702 982 
Q 1963 709 2431 709 
Q 2694 709 2930 787 
Q 3166 866 3366 1019 
L 3366 103 
Q 3103 6 2833 -42 
Q 2563 -91 2291 -91 
Q 1344 -91 809 395 
Q 275 881 275 1747 
Q 275 2613 809 3098 
Q 1344 3584 2291 3584 
Q 2566 3584 2833 3536 
Q 3100 3488 3366 3391 
z
" transform="scale(0.015625)"/>
      <path id="DejaVuSans-Bold-f3" d="M 2203 2784 
Q 1831 2784 1636 2517 
Q 1441 2250 1441 1747 
Q 1441 1244 1636 976 
Q 1831 709 2203 709 
Q 2569 709 2762 976 
Q 2956 1244 2956 1747 
Q 2956 2250 2762 2517 
Q 2569 2784 2203 2784 
z
M 2203 3584 
Q 3106 3584 3614 3096 
Q 4122 2609 4122 1747 
Q 4122 884 3614 396 
Q 3106 -91 2203 -91 
Q 1297 -91 786 396 
Q 275 884 275 1747 
Q 275 2609 786 3096 
Q 1297 3584 2203 3584 
z
M 2694 5119 
L 3578 5119 
L 2425 3944 
L 1813 3944 
L 2694 5119 
z
" transform="scale(0.015625)"/>
      <path id="DejaVuSans-Bold-64" d="M 2919 2988 
L 2919 4863 
L 4044 4863 
L 4044 0 
L 2919 0 
L 2919 506 
Q 2688 197 2409 53 
Q 2131 -91 1766 -91 
Q 1119 -91 703 423 
Q 288 938 288 1747 
Q 288 2556 703 3070 
Q 1119 3584 1766 3584 
Q 2128 3584 2408 3439 
Q 2688 3294 2919 2988 
z
M 2181 722 
Q 2541 722 2730 984 
Q 2919 1247 2919 1747 
Q 2919 2247 2730 2509 
Q 2541 2772 2181 2772 
Q 1825 2772 1636 2509 
Q 1447 2247 1447 1747 
Q 1447 1247 1636 984 
Q 1825 722 2181 722 
z
" transform="scale(0.015625)"/>
      <path id="DejaVuSans-Bold-65" d="M 4031 1759 
L 4031 1441 
L 1416 1441 
Q 1456 1047 1700 850 
Q 1944 653 2381 653 
Q 2734 653 3104 758 
Q 3475 863 3866 1075 
L 3866 213 
Q 3469 63 3072 -14 
Q 2675 -91 2278 -91 
Q 1328 -91 801 392 
Q 275 875 275 1747 
Q 275 2603 792 3093 
Q 1309 3584 2216 3584 
Q 3041 3584 3536 3087 
Q 4031 2591 4031 1759 
z
M 2881 2131 
Q 2881 2450 2695 2645 
Q 2509 2841 2209 2841 
Q 1884 2841 1681 2658 
Q 1478 2475 1428 2131 
L 2881 2131 
z
" transform="scale(0.015625)"/>
      <path id="DejaVuSans-Bold-50" d="M 588 4666 
L 2584 4666 
Q 3475 4666 3951 4270 
Q 4428 3875 4428 3144 
Q 4428 2409 3951 2014 
Q 3475 1619 2584 1619 
L 1791 1619 
L 1791 0 
L 588 0 
L 588 4666 
z
M 1791 3794 
L 1791 2491 
L 2456 2491 
Q 2806 2491 2997 2661 
Q 3188 2831 3188 3144 
Q 3188 3456 2997 3625 
Q 2806 3794 2456 3794 
L 1791 3794 
z
" transform="scale(0.015625)"/>
      <path id="DejaVuSans-Bold-72" d="M 3138 2547 
Q 2991 2616 2845 2648 
Q 2700 2681 2553 2681 
Q 2122 2681 1889 2404 
Q 1656 2128 1656 1613 
L 1656 0 
L 538 0 
L 538 3500 
L 1656 3500 
L 1656 2925 
Q 1872 3269 2151 3426 
Q 2431 3584 2822 3584 
Q 2878 3584 2943 3579 
Q 3009 3575 3134 3559 
L 3138 2547 
z
" transform="scale(0.015625)"/>
      <path id="DejaVuSans-Bold-62" d="M 2400 722 
Q 2759 722 2948 984 
Q 3138 1247 3138 1747 
Q 3138 2247 2948 2509 
Q 2759 2772 2400 2772 
Q 2041 2772 1848 2508 
Q 1656 2244 1656 1747 
Q 1656 1250 1848 986 
Q 2041 722 2400 722 
z
M 1656 2988 
Q 1888 3294 2169 3439 
Q 2450 3584 2816 3584 
Q 3463 3584 3878 3070 
Q 4294 2556 4294 1747 
Q 4294 938 3878 423 
Q 3463 -91 2816 -91 
Q 2450 -91 2169 54 
Q 1888 200 1656 506 
L 1656 0 
L 538 0 
L 538 4863 
L 1656 4863 
L 1656 2988 
z
" transform="scale(0.015625)"/>
      <path id="DejaVuSans-Bold-61" d="M 2106 1575 
Q 1756 1575 1579 1456 
Q 1403 1338 1403 1106 
Q 1403 894 1545 773 
Q 1688 653 1941 653 
Q 2256 653 2472 879 
Q 2688 1106 2688 1447 
L 2688 1575 
L 2106 1575 
z
M 3816 1997 
L 3816 0 
L 2688 0 
L 2688 519 
Q 2463 200 2181 54 
Q 1900 -91 1497 -91 
Q 953 -91 614 226 
Q 275 544 275 1050 
Q 275 1666 698 1953 
Q 1122 2241 2028 2241 
L 2688 2241 
L 2688 2328 
Q 2688 2594 2478 2717 
Q 2269 2841 1825 2841 
Q 1466 2841 1156 2769 
Q 847 2697 581 2553 
L 581 3406 
Q 941 3494 1303 3539 
Q 1666 3584 2028 3584 
Q 2975 3584 3395 3211 
Q 3816 2838 3816 1997 
z
" transform="scale(0.015625)"/>
      <path id="DejaVuSans-Bold-73" d="M 3272 3391 
L 3272 2541 
Q 2913 2691 2578 2766 
Q 2244 2841 1947 2841 
Q 1628 2841 1473 2761 
Q 1319 2681 1319 2516 
Q 1319 2381 1436 2309 
Q 1553 2238 1856 2203 
L 2053 2175 
Q 2913 2066 3209 1816 
Q 3506 1566 3506 1031 
Q 3506 472 3093 190 
Q 2681 -91 1863 -91 
Q 1516 -91 1145 -36 
Q 775 19 384 128 
L 384 978 
Q 719 816 1070 734 
Q 1422 653 1784 653 
Q 2113 653 2278 743 
Q 2444 834 2444 1013 
Q 2444 1163 2330 1236 
Q 2216 1309 1875 1350 
L 1678 1375 
Q 931 1469 631 1722 
Q 331 1975 331 2491 
Q 331 3047 712 3315 
Q 1094 3584 1881 3584 
Q 2191 3584 2531 3537 
Q 2872 3491 3272 3391 
z
" transform="scale(0.015625)"/>
      <path id="DejaVuSans-Bold-41" d="M 3419 850 
L 1538 850 
L 1241 0 
L 31 0 
L 1759 4666 
L 3194 4666 
L 4922 0 
L 3713 0 
L 3419 850 
z
M 1838 1716 
L 3116 1716 
L 2478 3572 
L 1838 1716 
z
" transform="scale(0.015625)"/>
     </defs>
     <use xlink:href="#DejaVuSans-Bold-4c"/>
     <use xlink:href="#DejaVuSans-Bold-69" transform="translate(63.720703 0)"/>
     <use xlink:href="#DejaVuSans-Bold-6e" transform="translate(97.998047 0)"/>
     <use xlink:href="#DejaVuSans-Bold-6b" transform="translate(169.189453 0)"/>
     <use xlink:href="#DejaVuSans-Bold-20" transform="translate(235.693359 0)"/>
     <use xlink:href="#DejaVuSans-Bold-33" transform="translate(270.507812 0)"/>
     <use xlink:href="#DejaVuSans-Bold-3a" transform="translate(340.087891 0)"/>
     <use xlink:href="#DejaVuSans-Bold-20" transform="translate(380.078125 0)"/>
     <use xlink:href="#DejaVuSans-Bold-45" transform="translate(414.892578 0)"/>
     <use xlink:href="#DejaVuSans-Bold-76" transform="translate(483.203125 0)"/>
     <use xlink:href="#DejaVuSans-Bold-6f" transform="translate(548.388672 0)"/>
     <use xlink:href="#DejaVuSans-Bold-6c" transform="translate(617.089844 0)"/>
     <use xlink:href="#DejaVuSans-Bold-75" transform="translate(651.367188 0)"/>
     <use xlink:href="#DejaVuSans-Bold-63" transform="translate(722.558594 0)"/>
     <use xlink:href="#DejaVuSans-Bold-69" transform="translate(781.835938 0)"/>
     <use xlink:href="#DejaVuSans-Bold-f3" transform="translate(816.113281 0)"/>
     <use xlink:href="#DejaVuSans-Bold-6e" transform="translate(884.814453 0)"/>
     <use xlink:href="#DejaVuSans-Bold-20" transform="translate(956.005859 0)"/>
     <use xlink:href="#DejaVuSans-Bold-64" transform="translate(990.820312 0)"/>
     <use xlink:href="#DejaVuSans-Bold-65" transform="translate(1062.402344 0)"/>
     <use xlink:href="#DejaVuSans-Bold-20" transform="translate(1130.224609 0)"/>
     <use xlink:href="#DejaVuSans-Bold-50" transform="translate(1165.039062 0)"/>
     <use xlink:href="#DejaVuSans-Bold-72" transform="translate(1238.330078 0)"/>
     <use xlink:href="#DejaVuSans-Bold-6f" transform="translate(1287.646484 0)"/>
     <use xlink:href="#DejaVuSans-Bold-62" transform="translate(1356.347656 0)"/>
     <use xlink:href="#DejaVuSans-Bold-61" transform="translate(1427.929688 0)"/>
     <use xlink:href="#DejaVuSans-Bold-62" transform="translate(1495.410156 0)"/>
     <use xlink:href="#DejaVuSans-Bold-69" transform="translate(1566.992188 0)"/>
     <use xlink:href="#DejaVuSans-Bold-6c" transform="translate(1601.269531 0)"/>
     <use xlink:href="#DejaVuSans-Bold-69" transform="translate(1635.546875 0)"/>
     <use xlink:href="#DejaVuSans-Bold-64" transform="translate(1669.824219 0)"/>
     <use xlink:href="#DejaVuSans-Bold-61" transform="translate(1741.40625 0)"/>
     <use xlink:href="#DejaVuSans-Bold-64" transform="translate(1808.886719 0)"/>
     <use xlink:href="#DejaVuSans-Bold-65" transform="translate(1880.46875 0)"/>
     <use xlink:href="#DejaVuSans-Bold-73" transform="translate(1948.291016 0)"/>
     <use xlink:href="#DejaVuSans-Bold-20" transform="translate(2007.8125 0)"/>
     <use xlink:href="#DejaVuSans-Bold-64" transform="translate(2042.626953 0)"/>
     <use xlink:href="#DejaVuSans-Bold-65" transform="translate(2114.208984 0)"/>
     <use xlink:href="#DejaVuSans-Bold-20" transform="translate(2182.03125 0)"/>
     <use xlink:href="#DejaVuSans-Bold-41" transform="translate(2216.845703 0)"/>
     <use xlink:href="#DejaVuSans-Bold-63" transform="translate(2294.238281 0)"/>
     <use xlink:href="#DejaVuSans-Bold-63" transform="translate(2353.515625 0)"/>
     <use xlink:href="#DejaVuSans-Bold-69" transform="translate(2412.792969 0)"/>
     <use xlink:href="#DejaVuSans-Bold-f3" transform="translate(2447.070312 0)"/>
     <use xlink:href="#DejaVuSans-Bold-6e" transform="translate(2515.771484 0)"/>
    </g>
   </g>
   <g id="legend_1">
    <g id="patch_7">
     <path d="M 53.416875 97.221562 
L 130.301719 97.221562 
Q 132.501719 97.221562 132.501719 95.021562 
L 132.501719 31.537812 
Q 132.501719 29.337812 130.301719 29.337812 
L 53.416875 29.337812 
Q 51.216875 29.337812 51.216875 31.537812 
L 51.216875 95.021562 
Q 51.216875 97.221562 53.416875 97.221562 
z
" style="fill: #ffffff; opacity: 0.8; stroke: #cccccc; stroke-linejoin: miter"/>
    </g>
    <g id="line2d_35">
     <path d="M 55.616875 38.246094 
L 66.616875 38.246094 
L 77.616875 38.246094 
" style="fill: none; stroke-dasharray: 9.25,4; stroke-dashoffset: 0; stroke: #000000; stroke-width: 2.5"/>
    </g>
    <g id="text_19">
     <!-- No TX -->
     <g transform="translate(86.416875 42.096094) scale(0.11 -0.11)">
      <defs>
       <path id="DejaVuSans-4e" d="M 628 4666 
L 1478 4666 
L 3547 763 
L 3547 4666 
L 4159 4666 
L 4159 0 
L 3309 0 
L 1241 3903 
L 1241 0 
L 628 0 
L 628 4666 
z
" transform="scale(0.015625)"/>
       <path id="DejaVuSans-54" d="M -19 4666 
L 3928 4666 
L 3928 4134 
L 2272 4134 
L 2272 0 
L 1638 0 
L 1638 4134 
L -19 4134 
L -19 4666 
z
" transform="scale(0.015625)"/>
       <path id="DejaVuSans-58" d="M 403 4666 
L 1081 4666 
L 2241 2931 
L 3406 4666 
L 4084 4666 
L 2584 2425 
L 4184 0 
L 3506 0 
L 2194 1984 
L 872 0 
L 191 0 
L 1856 2491 
L 403 4666 
z
" transform="scale(0.015625)"/>
      </defs>
      <use xlink:href="#DejaVuSans-4e"/>
      <use xlink:href="#DejaVuSans-6f" transform="translate(74.804688 0)"/>
      <use xlink:href="#DejaVuSans-20" transform="translate(135.986328 0)"/>
      <use xlink:href="#DejaVuSans-54" transform="translate(167.773438 0)"/>
      <use xlink:href="#DejaVuSans-58" transform="translate(228.857422 0)"/>
     </g>
    </g>
    <g id="line2d_36">
     <path d="M 55.616875 54.392031 
L 66.616875 54.392031 
L 77.616875 54.392031 
" style="fill: none; stroke: #1f77b4; stroke-width: 2; stroke-linecap: square"/>
    </g>
    <g id="text_20">
     <!-- Canal 0 -->
     <g transform="translate(86.416875 58.242031) scale(0.11 -0.11)">
      <defs>
       <path id="DejaVuSans-43" d="M 4122 4306 
L 4122 3641 
Q 3803 3938 3442 4084 
Q 3081 4231 2675 4231 
Q 1875 4231 1450 3742 
Q 1025 3253 1025 2328 
Q 1025 1406 1450 917 
Q 1875 428 2675 428 
Q 3081 428 3442 575 
Q 3803 722 4122 1019 
L 4122 359 
Q 3791 134 3420 21 
Q 3050 -91 2638 -91 
Q 1578 -91 968 557 
Q 359 1206 359 2328 
Q 359 3453 968 4101 
Q 1578 4750 2638 4750 
Q 3056 4750 3426 4639 
Q 3797 4528 4122 4306 
z
" transform="scale(0.015625)"/>
      </defs>
      <use xlink:href="#DejaVuSans-43"/>
      <use xlink:href="#DejaVuSans-61" transform="translate(69.824219 0)"/>
      <use xlink:href="#DejaVuSans-6e" transform="translate(131.103516 0)"/>
      <use xlink:href="#DejaVuSans-61" transform="translate(194.482422 0)"/>
      <use xlink:href="#DejaVuSans-6c" transform="translate(255.761719 0)"/>
      <use xlink:href="#DejaVuSans-20" transform="translate(283.544922 0)"/>
      <use xlink:href="#DejaVuSans-30" transform="translate(315.332031 0)"/>
     </g>
    </g>
    <g id="line2d_37">
     <path d="M 55.616875 70.537969 
L 66.616875 70.537969 
L 77.616875 70.537969 
" style="fill: none; stroke: #ff7f0e; stroke-width: 2; stroke-linecap: square"/>
    </g>
    <g id="text_21">
     <!-- Canal 1 -->
     <g transform="translate(86.416875 74.387969) scale(0.11 -0.11)">
      <use xlink:href="#DejaVuSans-43"/>
      <use xlink:href="#DejaVuSans-61" transform="translate(69.824219 0)"/>
      <use xlink:href="#DejaVuSans-6e" transform="translate(131.103516 0)"/>
      <use xlink:href="#DejaVuSans-61" transform="translate(194.482422 0)"/>
      <use xlink:href="#DejaVuSans-6c" transform="translate(255.761719 0)"/>
      <use xlink:href="#DejaVuSans-20" transform="translate(283.544922 0)"/>
      <use xlink:href="#DejaVuSans-31" transform="translate(315.332031 0)"/>
     </g>
    </g>
    <g id="line2d_38">
     <path d="M 55.616875 86.683906 
L 66.616875 86.683906 
L 77.616875 86.683906 
" style="fill: none; stroke: #2ca02c; stroke-width: 2; stroke-linecap: square"/>
    </g>
    <g id="text_22">
     <!-- Canal 2 -->
     <g transform="translate(86.416875 90.533906) scale(0.11 -0.11)">
      <use xlink:href="#DejaVuSans-43"/>
      <use xlink:href="#DejaVuSans-61" transform="translate(69.824219 0)"/>
      <use xlink:href="#DejaVuSans-6e" transform="translate(131.103516 0)"/>
      <use xlink:href="#DejaVuSans-61" transform="translate(194.482422 0)"/>
      <use xlink:href="#DejaVuSans-6c" transform="translate(255.761719 0)"/>
      <use xlink:href="#DejaVuSans-20" transform="translate(283.544922 0)"/>
      <use xlink:href="#DejaVuSans-32" transform="translate(315.332031 0)"/>
     </g>
    </g>
   </g>
  </g>
 </g>
 <defs>
  <clipPath id="pe50bdef438">
   <rect x="45.716875" y="23.837812" width="1087.356696" height="864.64"/>
  </clipPath>
 </defs>
</svg>
