<?xml version="1.0" encoding="utf-8" standalone="no"?>
<!DOCTYPE svg PUBLIC "-//W3C//DTD SVG 1.1//EN"
  "http://www.w3.org/Graphics/SVG/1.1/DTD/svg11.dtd">
<svg xmlns:xlink="http://www.w3.org/1999/xlink" width="1144.461875pt" height="927.969688pt" viewBox="0 0 1144.461875 927.969688" xmlns="http://www.w3.org/2000/svg" version="1.1">
 <metadata>
  <rdf:RDF xmlns:dc="http://purl.org/dc/elements/1.1/" xmlns:cc="http://creativecommons.org/ns#" xmlns:rdf="http://www.w3.org/1999/02/22-rdf-syntax-ns#">
   <cc:Work>
    <dc:type rdf:resource="http://purl.org/dc/dcmitype/StillImage"/>
    <dc:date>2025-10-30T21:03:12.984422</dc:date>
    <dc:format>image/svg+xml</dc:format>
    <dc:creator>
     <cc:Agent>
      <dc:title>Matplotlib v3.10.1, https://matplotlib.org/</dc:title>
     </cc:Agent>
    </dc:creator>
   </cc:Work>
  </rdf:RDF>
 </metadata>
 <defs>
  <style type="text/css">*{stroke-linejoin: round; stroke-linecap: butt}</style>
 </defs>
 <g id="figure_1">
  <g id="patch_1">
   <path d="M 0 927.969688 
L 1144.461875 927.969688 
L 1144.461875 0 
L 0 0 
z
" style="fill: #ffffff"/>
  </g>
  <g id="axes_1">
   <g id="patch_2">
    <path d="M 45.716875 888.477813 
L 1137.261875 888.477813 
L 1137.261875 23.837812 
L 45.716875 23.837812 
z
" style="fill: #ffffff"/>
   </g>
   <g id="matplotlib.axis_1">
    <g id="xtick_1">
     <g id="line2d_1">
      <path d="M 95.332557 888.477813 
L 95.332557 23.837812 
" clip-path="url(#p79c0451f36)" style="fill: none; stroke: #b0b0b0; stroke-opacity: 0.3; stroke-width: 0.8; stroke-linecap: square"/>
     </g>
     <g id="line2d_2">
      <defs>
       <path id="m067610f6d5" d="M 0 0 
L 0 3.5 
" style="stroke: #000000; stroke-width: 0.8"/>
      </defs>
      <g>
       <use xlink:href="#m067610f6d5" x="95.332557" y="888.477813" style="stroke: #000000; stroke-width: 0.8"/>
      </g>
     </g>
     <g id="text_1">
      <!-- 0 -->
      <g transform="translate(92.151307 903.07625) scale(0.1 -0.1)">
       <defs>
        <path id="DejaVuSans-30" d="M 2034 4250 
Q 1547 4250 1301 3770 
Q 1056 3291 1056 2328 
Q 1056 1369 1301 889 
Q 1547 409 2034 409 
Q 2525 409 2770 889 
Q 3016 1369 3016 2328 
Q 3016 3291 2770 3770 
Q 2525 4250 2034 4250 
z
M 2034 4750 
Q 2819 4750 3233 4129 
Q 3647 3509 3647 2328 
Q 3647 1150 3233 529 
Q 2819 -91 2034 -91 
Q 1250 -91 836 529 
Q 422 1150 422 2328 
Q 422 3509 836 4129 
Q 1250 4750 2034 4750 
z
" transform="scale(0.015625)"/>
       </defs>
       <use xlink:href="#DejaVuSans-30"/>
      </g>
     </g>
    </g>
    <g id="xtick_2">
     <g id="line2d_3">
      <path d="M 294.592323 888.477813 
L 294.592323 23.837812 
" clip-path="url(#p79c0451f36)" style="fill: none; stroke: #b0b0b0; stroke-opacity: 0.3; stroke-width: 0.8; stroke-linecap: square"/>
     </g>
     <g id="line2d_4">
      <g>
       <use xlink:href="#m067610f6d5" x="294.592323" y="888.477813" style="stroke: #000000; stroke-width: 0.8"/>
      </g>
     </g>
     <g id="text_2">
      <!-- 50 -->
      <g transform="translate(288.229823 903.07625) scale(0.1 -0.1)">
       <defs>
        <path id="DejaVuSans-35" d="M 691 4666 
L 3169 4666 
L 3169 4134 
L 1269 4134 
L 1269 2991 
Q 1406 3038 1543 3061 
Q 1681 3084 1819 3084 
Q 2600 3084 3056 2656 
Q 3513 2228 3513 1497 
Q 3513 744 3044 326 
Q 2575 -91 1722 -91 
Q 1428 -91 1123 -41 
Q 819 9 494 109 
L 494 744 
Q 775 591 1075 516 
Q 1375 441 1709 441 
Q 2250 441 2565 725 
Q 2881 1009 2881 1497 
Q 2881 1984 2565 2268 
Q 2250 2553 1709 2553 
Q 1456 2553 1204 2497 
Q 953 2441 691 2322 
L 691 4666 
z
" transform="scale(0.015625)"/>
       </defs>
       <use xlink:href="#DejaVuSans-35"/>
       <use xlink:href="#DejaVuSans-30" transform="translate(63.623047 0)"/>
      </g>
     </g>
    </g>
    <g id="xtick_3">
     <g id="line2d_5">
      <path d="M 493.852089 888.477813 
L 493.852089 23.837812 
" clip-path="url(#p79c0451f36)" style="fill: none; stroke: #b0b0b0; stroke-opacity: 0.3; stroke-width: 0.8; stroke-linecap: square"/>
     </g>
     <g id="line2d_6">
      <g>
       <use xlink:href="#m067610f6d5" x="493.852089" y="888.477813" style="stroke: #000000; stroke-width: 0.8"/>
      </g>
     </g>
     <g id="text_3">
      <!-- 100 -->
      <g transform="translate(484.308339 903.07625) scale(0.1 -0.1)">
       <defs>
        <path id="DejaVuSans-31" d="M 794 531 
L 1825 531 
L 1825 4091 
L 703 3866 
L 703 4441 
L 1819 4666 
L 2450 4666 
L 2450 531 
L 3481 531 
L 3481 0 
L 794 0 
L 794 531 
z
" transform="scale(0.015625)"/>
       </defs>
       <use xlink:href="#DejaVuSans-31"/>
       <use xlink:href="#DejaVuSans-30" transform="translate(63.623047 0)"/>
       <use xlink:href="#DejaVuSans-30" transform="translate(127.246094 0)"/>
      </g>
     </g>
    </g>
    <g id="xtick_4">
     <g id="line2d_7">
      <path d="M 693.111856 888.477813 
L 693.111856 23.837812 
" clip-path="url(#p79c0451f36)" style="fill: none; stroke: #b0b0b0; stroke-opacity: 0.3; stroke-width: 0.8; stroke-linecap: square"/>
     </g>
     <g id="line2d_8">
      <g>
       <use xlink:href="#m067610f6d5" x="693.111856" y="888.477813" style="stroke: #000000; stroke-width: 0.8"/>
      </g>
     </g>
     <g id="text_4">
      <!-- 150 -->
      <g transform="translate(683.568106 903.07625) scale(0.1 -0.1)">
       <use xlink:href="#DejaVuSans-31"/>
       <use xlink:href="#DejaVuSans-35" transform="translate(63.623047 0)"/>
       <use xlink:href="#DejaVuSans-30" transform="translate(127.246094 0)"/>
      </g>
     </g>
    </g>
    <g id="xtick_5">
     <g id="line2d_9">
      <path d="M 892.371622 888.477813 
L 892.371622 23.837812 
" clip-path="url(#p79c0451f36)" style="fill: none; stroke: #b0b0b0; stroke-opacity: 0.3; stroke-width: 0.8; stroke-linecap: square"/>
     </g>
     <g id="line2d_10">
      <g>
       <use xlink:href="#m067610f6d5" x="892.371622" y="888.477813" style="stroke: #000000; stroke-width: 0.8"/>
      </g>
     </g>
     <g id="text_5">
      <!-- 200 -->
      <g transform="translate(882.827872 903.07625) scale(0.1 -0.1)">
       <defs>
        <path id="DejaVuSans-32" d="M 1228 531 
L 3431 531 
L 3431 0 
L 469 0 
L 469 531 
Q 828 903 1448 1529 
Q 2069 2156 2228 2338 
Q 2531 2678 2651 2914 
Q 2772 3150 2772 3378 
Q 2772 3750 2511 3984 
Q 2250 4219 1831 4219 
Q 1534 4219 1204 4116 
Q 875 4013 500 3803 
L 500 4441 
Q 881 4594 1212 4672 
Q 1544 4750 1819 4750 
Q 2544 4750 2975 4387 
Q 3406 4025 3406 3419 
Q 3406 3131 3298 2873 
Q 3191 2616 2906 2266 
Q 2828 2175 2409 1742 
Q 1991 1309 1228 531 
z
" transform="scale(0.015625)"/>
       </defs>
       <use xlink:href="#DejaVuSans-32"/>
       <use xlink:href="#DejaVuSans-30" transform="translate(63.623047 0)"/>
       <use xlink:href="#DejaVuSans-30" transform="translate(127.246094 0)"/>
      </g>
     </g>
    </g>
    <g id="xtick_6">
     <g id="line2d_11">
      <path d="M 1091.631389 888.477813 
L 1091.631389 23.837812 
" clip-path="url(#p79c0451f36)" style="fill: none; stroke: #b0b0b0; stroke-opacity: 0.3; stroke-width: 0.8; stroke-linecap: square"/>
     </g>
     <g id="line2d_12">
      <g>
       <use xlink:href="#m067610f6d5" x="1091.631389" y="888.477813" style="stroke: #000000; stroke-width: 0.8"/>
      </g>
     </g>
     <g id="text_6">
      <!-- 250 -->
      <g transform="translate(1082.087639 903.07625) scale(0.1 -0.1)">
       <use xlink:href="#DejaVuSans-32"/>
       <use xlink:href="#DejaVuSans-35" transform="translate(63.623047 0)"/>
       <use xlink:href="#DejaVuSans-30" transform="translate(127.246094 0)"/>
      </g>
     </g>
    </g>
    <g id="text_7">
     <!-- Iteraciones (x10) -->
     <g transform="translate(540.499688 918.274063) scale(0.12 -0.12)">
      <defs>
       <path id="DejaVuSans-49" d="M 628 4666 
L 1259 4666 
L 1259 0 
L 628 0 
L 628 4666 
z
" transform="scale(0.015625)"/>
       <path id="DejaVuSans-74" d="M 1172 4494 
L 1172 3500 
L 2356 3500 
L 2356 3053 
L 1172 3053 
L 1172 1153 
Q 1172 725 1289 603 
Q 1406 481 1766 481 
L 2356 481 
L 2356 0 
L 1766 0 
Q 1100 0 847 248 
Q 594 497 594 1153 
L 594 3053 
L 172 3053 
L 172 3500 
L 594 3500 
L 594 4494 
L 1172 4494 
z
" transform="scale(0.015625)"/>
       <path id="DejaVuSans-65" d="M 3597 1894 
L 3597 1613 
L 953 1613 
Q 991 1019 1311 708 
Q 1631 397 2203 397 
Q 2534 397 2845 478 
Q 3156 559 3463 722 
L 3463 178 
Q 3153 47 2828 -22 
Q 2503 -91 2169 -91 
Q 1331 -91 842 396 
Q 353 884 353 1716 
Q 353 2575 817 3079 
Q 1281 3584 2069 3584 
Q 2775 3584 3186 3129 
Q 3597 2675 3597 1894 
z
M 3022 2063 
Q 3016 2534 2758 2815 
Q 2500 3097 2075 3097 
Q 1594 3097 1305 2825 
Q 1016 2553 972 2059 
L 3022 2063 
z
" transform="scale(0.015625)"/>
       <path id="DejaVuSans-72" d="M 2631 2963 
Q 2534 3019 2420 3045 
Q 2306 3072 2169 3072 
Q 1681 3072 1420 2755 
Q 1159 2438 1159 1844 
L 1159 0 
L 581 0 
L 581 3500 
L 1159 3500 
L 1159 2956 
Q 1341 3275 1631 3429 
Q 1922 3584 2338 3584 
Q 2397 3584 2469 3576 
Q 2541 3569 2628 3553 
L 2631 2963 
z
" transform="scale(0.015625)"/>
       <path id="DejaVuSans-61" d="M 2194 1759 
Q 1497 1759 1228 1600 
Q 959 1441 959 1056 
Q 959 750 1161 570 
Q 1363 391 1709 391 
Q 2188 391 2477 730 
Q 2766 1069 2766 1631 
L 2766 1759 
L 2194 1759 
z
M 3341 1997 
L 3341 0 
L 2766 0 
L 2766 531 
Q 2569 213 2275 61 
Q 1981 -91 1556 -91 
Q 1019 -91 701 211 
Q 384 513 384 1019 
Q 384 1609 779 1909 
Q 1175 2209 1959 2209 
L 2766 2209 
L 2766 2266 
Q 2766 2663 2505 2880 
Q 2244 3097 1772 3097 
Q 1472 3097 1187 3025 
Q 903 2953 641 2809 
L 641 3341 
Q 956 3463 1253 3523 
Q 1550 3584 1831 3584 
Q 2591 3584 2966 3190 
Q 3341 2797 3341 1997 
z
" transform="scale(0.015625)"/>
       <path id="DejaVuSans-63" d="M 3122 3366 
L 3122 2828 
Q 2878 2963 2633 3030 
Q 2388 3097 2138 3097 
Q 1578 3097 1268 2742 
Q 959 2388 959 1747 
Q 959 1106 1268 751 
Q 1578 397 2138 397 
Q 2388 397 2633 464 
Q 2878 531 3122 666 
L 3122 134 
Q 2881 22 2623 -34 
Q 2366 -91 2075 -91 
Q 1284 -91 818 406 
Q 353 903 353 1747 
Q 353 2603 823 3093 
Q 1294 3584 2113 3584 
Q 2378 3584 2631 3529 
Q 2884 3475 3122 3366 
z
" transform="scale(0.015625)"/>
       <path id="DejaVuSans-69" d="M 603 3500 
L 1178 3500 
L 1178 0 
L 603 0 
L 603 3500 
z
M 603 4863 
L 1178 4863 
L 1178 4134 
L 603 4134 
L 603 4863 
z
" transform="scale(0.015625)"/>
       <path id="DejaVuSans-6f" d="M 1959 3097 
Q 1497 3097 1228 2736 
Q 959 2375 959 1747 
Q 959 1119 1226 758 
Q 1494 397 1959 397 
Q 2419 397 2687 759 
Q 2956 1122 2956 1747 
Q 2956 2369 2687 2733 
Q 2419 3097 1959 3097 
z
M 1959 3584 
Q 2709 3584 3137 3096 
Q 3566 2609 3566 1747 
Q 3566 888 3137 398 
Q 2709 -91 1959 -91 
Q 1206 -91 779 398 
Q 353 888 353 1747 
Q 353 2609 779 3096 
Q 1206 3584 1959 3584 
z
" transform="scale(0.015625)"/>
       <path id="DejaVuSans-6e" d="M 3513 2113 
L 3513 0 
L 2938 0 
L 2938 2094 
Q 2938 2591 2744 2837 
Q 2550 3084 2163 3084 
Q 1697 3084 1428 2787 
Q 1159 2491 1159 1978 
L 1159 0 
L 581 0 
L 581 3500 
L 1159 3500 
L 1159 2956 
Q 1366 3272 1645 3428 
Q 1925 3584 2291 3584 
Q 2894 3584 3203 3211 
Q 3513 2838 3513 2113 
z
" transform="scale(0.015625)"/>
       <path id="DejaVuSans-73" d="M 2834 3397 
L 2834 2853 
Q 2591 2978 2328 3040 
Q 2066 3103 1784 3103 
Q 1356 3103 1142 2972 
Q 928 2841 928 2578 
Q 928 2378 1081 2264 
Q 1234 2150 1697 2047 
L 1894 2003 
Q 2506 1872 2764 1633 
Q 3022 1394 3022 966 
Q 3022 478 2636 193 
Q 2250 -91 1575 -91 
Q 1294 -91 989 -36 
Q 684 19 347 128 
L 347 722 
Q 666 556 975 473 
Q 1284 391 1588 391 
Q 1994 391 2212 530 
Q 2431 669 2431 922 
Q 2431 1156 2273 1281 
Q 2116 1406 1581 1522 
L 1381 1569 
Q 847 1681 609 1914 
Q 372 2147 372 2553 
Q 372 3047 722 3315 
Q 1072 3584 1716 3584 
Q 2034 3584 2315 3537 
Q 2597 3491 2834 3397 
z
" transform="scale(0.015625)"/>
       <path id="DejaVuSans-20" transform="scale(0.015625)"/>
       <path id="DejaVuSans-28" d="M 1984 4856 
Q 1566 4138 1362 3434 
Q 1159 2731 1159 2009 
Q 1159 1288 1364 580 
Q 1569 -128 1984 -844 
L 1484 -844 
Q 1016 -109 783 600 
Q 550 1309 550 2009 
Q 550 2706 781 3412 
Q 1013 4119 1484 4856 
L 1984 4856 
z
" transform="scale(0.015625)"/>
       <path id="DejaVuSans-78" d="M 3513 3500 
L 2247 1797 
L 3578 0 
L 2900 0 
L 1881 1375 
L 863 0 
L 184 0 
L 1544 1831 
L 300 3500 
L 978 3500 
L 1906 2253 
L 2834 3500 
L 3513 3500 
z
" transform="scale(0.015625)"/>
       <path id="DejaVuSans-29" d="M 513 4856 
L 1013 4856 
Q 1481 4119 1714 3412 
Q 1947 2706 1947 2009 
Q 1947 1309 1714 600 
Q 1481 -109 1013 -844 
L 513 -844 
Q 928 -128 1133 580 
Q 1338 1288 1338 2009 
Q 1338 2731 1133 3434 
Q 928 4138 513 4856 
z
" transform="scale(0.015625)"/>
      </defs>
      <use xlink:href="#DejaVuSans-49"/>
      <use xlink:href="#DejaVuSans-74" transform="translate(29.492188 0)"/>
      <use xlink:href="#DejaVuSans-65" transform="translate(68.701172 0)"/>
      <use xlink:href="#DejaVuSans-72" transform="translate(130.224609 0)"/>
      <use xlink:href="#DejaVuSans-61" transform="translate(171.337891 0)"/>
      <use xlink:href="#DejaVuSans-63" transform="translate(232.617188 0)"/>
      <use xlink:href="#DejaVuSans-69" transform="translate(287.597656 0)"/>
      <use xlink:href="#DejaVuSans-6f" transform="translate(315.380859 0)"/>
      <use xlink:href="#DejaVuSans-6e" transform="translate(376.5625 0)"/>
      <use xlink:href="#DejaVuSans-65" transform="translate(439.941406 0)"/>
      <use xlink:href="#DejaVuSans-73" transform="translate(501.464844 0)"/>
      <use xlink:href="#DejaVuSans-20" transform="translate(553.564453 0)"/>
      <use xlink:href="#DejaVuSans-28" transform="translate(585.351562 0)"/>
      <use xlink:href="#DejaVuSans-78" transform="translate(624.365234 0)"/>
      <use xlink:href="#DejaVuSans-31" transform="translate(683.544922 0)"/>
      <use xlink:href="#DejaVuSans-30" transform="translate(747.167969 0)"/>
      <use xlink:href="#DejaVuSans-29" transform="translate(810.791016 0)"/>
     </g>
    </g>
   </g>
   <g id="matplotlib.axis_2">
    <g id="ytick_1">
     <g id="line2d_13">
      <path d="M 45.716875 849.175994 
L 1137.261875 849.175994 
" clip-path="url(#p79c0451f36)" style="fill: none; stroke: #b0b0b0; stroke-opacity: 0.3; stroke-width: 0.8; stroke-linecap: square"/>
     </g>
     <g id="line2d_14">
      <defs>
       <path id="mabef9ff295" d="M 0 0 
L -3.5 0 
" style="stroke: #000000; stroke-width: 0.8"/>
      </defs>
      <g>
       <use xlink:href="#mabef9ff295" x="45.716875" y="849.175994" style="stroke: #000000; stroke-width: 0.8"/>
      </g>
     </g>
     <g id="text_8">
      <!-- 0.0 -->
      <g transform="translate(22.81375 852.975213) scale(0.1 -0.1)">
       <defs>
        <path id="DejaVuSans-2e" d="M 684 794 
L 1344 794 
L 1344 0 
L 684 0 
L 684 794 
z
" transform="scale(0.015625)"/>
       </defs>
       <use xlink:href="#DejaVuSans-30"/>
       <use xlink:href="#DejaVuSans-2e" transform="translate(63.623047 0)"/>
       <use xlink:href="#DejaVuSans-30" transform="translate(95.410156 0)"/>
      </g>
     </g>
    </g>
    <g id="ytick_2">
     <g id="line2d_15">
      <path d="M 45.716875 691.968722 
L 1137.261875 691.968722 
" clip-path="url(#p79c0451f36)" style="fill: none; stroke: #b0b0b0; stroke-opacity: 0.3; stroke-width: 0.8; stroke-linecap: square"/>
     </g>
     <g id="line2d_16">
      <g>
       <use xlink:href="#mabef9ff295" x="45.716875" y="691.968722" style="stroke: #000000; stroke-width: 0.8"/>
      </g>
     </g>
     <g id="text_9">
      <!-- 0.2 -->
      <g transform="translate(22.81375 695.76794) scale(0.1 -0.1)">
       <use xlink:href="#DejaVuSans-30"/>
       <use xlink:href="#DejaVuSans-2e" transform="translate(63.623047 0)"/>
       <use xlink:href="#DejaVuSans-32" transform="translate(95.410156 0)"/>
      </g>
     </g>
    </g>
    <g id="ytick_3">
     <g id="line2d_17">
      <path d="M 45.716875 534.761449 
L 1137.261875 534.761449 
" clip-path="url(#p79c0451f36)" style="fill: none; stroke: #b0b0b0; stroke-opacity: 0.3; stroke-width: 0.8; stroke-linecap: square"/>
     </g>
     <g id="line2d_18">
      <g>
       <use xlink:href="#mabef9ff295" x="45.716875" y="534.761449" style="stroke: #000000; stroke-width: 0.8"/>
      </g>
     </g>
     <g id="text_10">
      <!-- 0.4 -->
      <g transform="translate(22.81375 538.560668) scale(0.1 -0.1)">
       <defs>
        <path id="DejaVuSans-34" d="M 2419 4116 
L 825 1625 
L 2419 1625 
L 2419 4116 
z
M 2253 4666 
L 3047 4666 
L 3047 1625 
L 3713 1625 
L 3713 1100 
L 3047 1100 
L 3047 0 
L 2419 0 
L 2419 1100 
L 313 1100 
L 313 1709 
L 2253 4666 
z
" transform="scale(0.015625)"/>
       </defs>
       <use xlink:href="#DejaVuSans-30"/>
       <use xlink:href="#DejaVuSans-2e" transform="translate(63.623047 0)"/>
       <use xlink:href="#DejaVuSans-34" transform="translate(95.410156 0)"/>
      </g>
     </g>
    </g>
    <g id="ytick_4">
     <g id="line2d_19">
      <path d="M 45.716875 377.554176 
L 1137.261875 377.554176 
" clip-path="url(#p79c0451f36)" style="fill: none; stroke: #b0b0b0; stroke-opacity: 0.3; stroke-width: 0.8; stroke-linecap: square"/>
     </g>
     <g id="line2d_20">
      <g>
       <use xlink:href="#mabef9ff295" x="45.716875" y="377.554176" style="stroke: #000000; stroke-width: 0.8"/>
      </g>
     </g>
     <g id="text_11">
      <!-- 0.6 -->
      <g transform="translate(22.81375 381.353395) scale(0.1 -0.1)">
       <defs>
        <path id="DejaVuSans-36" d="M 2113 2584 
Q 1688 2584 1439 2293 
Q 1191 2003 1191 1497 
Q 1191 994 1439 701 
Q 1688 409 2113 409 
Q 2538 409 2786 701 
Q 3034 994 3034 1497 
Q 3034 2003 2786 2293 
Q 2538 2584 2113 2584 
z
M 3366 4563 
L 3366 3988 
Q 3128 4100 2886 4159 
Q 2644 4219 2406 4219 
Q 1781 4219 1451 3797 
Q 1122 3375 1075 2522 
Q 1259 2794 1537 2939 
Q 1816 3084 2150 3084 
Q 2853 3084 3261 2657 
Q 3669 2231 3669 1497 
Q 3669 778 3244 343 
Q 2819 -91 2113 -91 
Q 1303 -91 875 529 
Q 447 1150 447 2328 
Q 447 3434 972 4092 
Q 1497 4750 2381 4750 
Q 2619 4750 2861 4703 
Q 3103 4656 3366 4563 
z
" transform="scale(0.015625)"/>
       </defs>
       <use xlink:href="#DejaVuSans-30"/>
       <use xlink:href="#DejaVuSans-2e" transform="translate(63.623047 0)"/>
       <use xlink:href="#DejaVuSans-36" transform="translate(95.410156 0)"/>
      </g>
     </g>
    </g>
    <g id="ytick_5">
     <g id="line2d_21">
      <path d="M 45.716875 220.346903 
L 1137.261875 220.346903 
" clip-path="url(#p79c0451f36)" style="fill: none; stroke: #b0b0b0; stroke-opacity: 0.3; stroke-width: 0.8; stroke-linecap: square"/>
     </g>
     <g id="line2d_22">
      <g>
       <use xlink:href="#mabef9ff295" x="45.716875" y="220.346903" style="stroke: #000000; stroke-width: 0.8"/>
      </g>
     </g>
     <g id="text_12">
      <!-- 0.8 -->
      <g transform="translate(22.81375 224.146122) scale(0.1 -0.1)">
       <defs>
        <path id="DejaVuSans-38" d="M 2034 2216 
Q 1584 2216 1326 1975 
Q 1069 1734 1069 1313 
Q 1069 891 1326 650 
Q 1584 409 2034 409 
Q 2484 409 2743 651 
Q 3003 894 3003 1313 
Q 3003 1734 2745 1975 
Q 2488 2216 2034 2216 
z
M 1403 2484 
Q 997 2584 770 2862 
Q 544 3141 544 3541 
Q 544 4100 942 4425 
Q 1341 4750 2034 4750 
Q 2731 4750 3128 4425 
Q 3525 4100 3525 3541 
Q 3525 3141 3298 2862 
Q 3072 2584 2669 2484 
Q 3125 2378 3379 2068 
Q 3634 1759 3634 1313 
Q 3634 634 3220 271 
Q 2806 -91 2034 -91 
Q 1263 -91 848 271 
Q 434 634 434 1313 
Q 434 1759 690 2068 
Q 947 2378 1403 2484 
z
M 1172 3481 
Q 1172 3119 1398 2916 
Q 1625 2713 2034 2713 
Q 2441 2713 2670 2916 
Q 2900 3119 2900 3481 
Q 2900 3844 2670 4047 
Q 2441 4250 2034 4250 
Q 1625 4250 1398 4047 
Q 1172 3844 1172 3481 
z
" transform="scale(0.015625)"/>
       </defs>
       <use xlink:href="#DejaVuSans-30"/>
       <use xlink:href="#DejaVuSans-2e" transform="translate(63.623047 0)"/>
       <use xlink:href="#DejaVuSans-38" transform="translate(95.410156 0)"/>
      </g>
     </g>
    </g>
    <g id="ytick_6">
     <g id="line2d_23">
      <path d="M 45.716875 63.139631 
L 1137.261875 63.139631 
" clip-path="url(#p79c0451f36)" style="fill: none; stroke: #b0b0b0; stroke-opacity: 0.3; stroke-width: 0.8; stroke-linecap: square"/>
     </g>
     <g id="line2d_24">
      <g>
       <use xlink:href="#mabef9ff295" x="45.716875" y="63.139631" style="stroke: #000000; stroke-width: 0.8"/>
      </g>
     </g>
     <g id="text_13">
      <!-- 1.0 -->
      <g transform="translate(22.81375 66.938849) scale(0.1 -0.1)">
       <use xlink:href="#DejaVuSans-31"/>
       <use xlink:href="#DejaVuSans-2e" transform="translate(63.623047 0)"/>
       <use xlink:href="#DejaVuSans-30" transform="translate(95.410156 0)"/>
      </g>
     </g>
    </g>
    <g id="text_14">
     <!-- Probabilidad -->
     <g transform="translate(16.318125 493.264063) rotate(-90) scale(0.12 -0.12)">
      <defs>
       <path id="DejaVuSans-50" d="M 1259 4147 
L 1259 2394 
L 2053 2394 
Q 2494 2394 2734 2622 
Q 2975 2850 2975 3272 
Q 2975 3691 2734 3919 
Q 2494 4147 2053 4147 
L 1259 4147 
z
M 628 4666 
L 2053 4666 
Q 2838 4666 3239 4311 
Q 3641 3956 3641 3272 
Q 3641 2581 3239 2228 
Q 2838 1875 2053 1875 
L 1259 1875 
L 1259 0 
L 628 0 
L 628 4666 
z
" transform="scale(0.015625)"/>
       <path id="DejaVuSans-62" d="M 3116 1747 
Q 3116 2381 2855 2742 
Q 2594 3103 2138 3103 
Q 1681 3103 1420 2742 
Q 1159 2381 1159 1747 
Q 1159 1113 1420 752 
Q 1681 391 2138 391 
Q 2594 391 2855 752 
Q 3116 1113 3116 1747 
z
M 1159 2969 
Q 1341 3281 1617 3432 
Q 1894 3584 2278 3584 
Q 2916 3584 3314 3078 
Q 3713 2572 3713 1747 
Q 3713 922 3314 415 
Q 2916 -91 2278 -91 
Q 1894 -91 1617 61 
Q 1341 213 1159 525 
L 1159 0 
L 581 0 
L 581 4863 
L 1159 4863 
L 1159 2969 
z
" transform="scale(0.015625)"/>
       <path id="DejaVuSans-6c" d="M 603 4863 
L 1178 4863 
L 1178 0 
L 603 0 
L 603 4863 
z
" transform="scale(0.015625)"/>
       <path id="DejaVuSans-64" d="M 2906 2969 
L 2906 4863 
L 3481 4863 
L 3481 0 
L 2906 0 
L 2906 525 
Q 2725 213 2448 61 
Q 2172 -91 1784 -91 
Q 1150 -91 751 415 
Q 353 922 353 1747 
Q 353 2572 751 3078 
Q 1150 3584 1784 3584 
Q 2172 3584 2448 3432 
Q 2725 3281 2906 2969 
z
M 947 1747 
Q 947 1113 1208 752 
Q 1469 391 1925 391 
Q 2381 391 2643 752 
Q 2906 1113 2906 1747 
Q 2906 2381 2643 2742 
Q 2381 3103 1925 3103 
Q 1469 3103 1208 2742 
Q 947 2381 947 1747 
z
" transform="scale(0.015625)"/>
      </defs>
      <use xlink:href="#DejaVuSans-50"/>
      <use xlink:href="#DejaVuSans-72" transform="translate(58.552734 0)"/>
      <use xlink:href="#DejaVuSans-6f" transform="translate(97.416016 0)"/>
      <use xlink:href="#DejaVuSans-62" transform="translate(158.597656 0)"/>
      <use xlink:href="#DejaVuSans-61" transform="translate(222.074219 0)"/>
      <use xlink:href="#DejaVuSans-62" transform="translate(283.353516 0)"/>
      <use xlink:href="#DejaVuSans-69" transform="translate(346.830078 0)"/>
      <use xlink:href="#DejaVuSans-6c" transform="translate(374.613281 0)"/>
      <use xlink:href="#DejaVuSans-69" transform="translate(402.396484 0)"/>
      <use xlink:href="#DejaVuSans-64" transform="translate(430.179688 0)"/>
      <use xlink:href="#DejaVuSans-61" transform="translate(493.65625 0)"/>
      <use xlink:href="#DejaVuSans-64" transform="translate(554.935547 0)"/>
     </g>
    </g>
   </g>
   <g id="line2d_25">
    <path d="M 95.332557 652.659501 
L 362.340644 652.457103 
L 374.29623 652.250629 
L 382.26662 651.908426 
L 390.237011 651.830371 
L 398.207402 651.496086 
L 410.162988 650.556903 
L 414.148183 650.396179 
L 418.133378 649.859449 
L 422.118574 649.052457 
L 426.103769 648.968124 
L 434.07416 649.101065 
L 438.059355 648.843593 
L 446.029746 647.56305 
L 461.970527 645.535813 
L 465.955722 644.756416 
L 469.940918 644.371368 
L 473.926113 644.178176 
L 477.911308 643.66609 
L 481.896504 643.393462 
L 485.881699 642.741149 
L 493.852089 641.125221 
L 497.837285 640.612853 
L 501.82248 639.224576 
L 505.807675 637.420234 
L 509.792871 636.38791 
L 513.778066 635.041939 
L 517.763261 634.525659 
L 521.748457 633.444258 
L 525.733652 632.851096 
L 529.718847 632.007677 
L 533.704043 631.364875 
L 541.674433 629.758457 
L 549.644824 625.623375 
L 553.630019 624.327722 
L 557.615215 623.202984 
L 561.60041 621.961819 
L 565.585605 622.351576 
L 569.570801 621.751573 
L 573.555996 620.7025 
L 577.541191 619.242071 
L 581.526387 618.794359 
L 585.511582 619.706251 
L 589.496777 620.120465 
L 593.481973 618.908231 
L 597.467168 619.398719 
L 601.452363 619.12527 
L 605.437559 617.868856 
L 609.422754 615.433707 
L 613.407949 614.88688 
L 617.393145 615.31194 
L 621.37834 615.394492 
L 625.363535 615.893061 
L 629.348731 615.752671 
L 633.333926 614.977467 
L 641.304317 614.80564 
L 645.289512 614.28908 
L 649.274707 616.04076 
L 653.259903 618.286021 
L 657.245098 618.472396 
L 661.230293 616.685858 
L 665.215489 616.79542 
L 669.200684 616.619516 
L 673.185879 616.892238 
L 677.171075 614.500379 
L 681.15627 614.009986 
L 685.141465 615.040998 
L 689.126661 614.197274 
L 693.111856 613.127563 
L 697.097051 612.205035 
L 701.082246 609.798933 
L 709.052637 608.928949 
L 713.037832 606.927785 
L 717.023028 605.974171 
L 721.008223 604.409849 
L 724.993418 605.296184 
L 728.978614 607.662064 
L 732.963809 607.490541 
L 736.949004 606.417924 
L 740.9342 605.731199 
L 744.919395 606.576868 
L 748.90459 608.139081 
L 752.889786 607.887723 
L 756.874981 608.261293 
L 760.860176 604.456279 
L 764.845372 603.78033 
L 768.830567 600.297653 
L 772.815762 599.550724 
L 776.800958 597.507089 
L 780.786153 598.424205 
L 784.771348 594.538021 
L 788.756544 591.167483 
L 792.741739 588.603539 
L 796.726934 588.576951 
L 800.71213 589.864709 
L 804.697325 589.867497 
L 808.68252 589.462466 
L 812.667716 588.021644 
L 816.652911 588.527687 
L 820.638106 591.287188 
L 824.623302 592.50474 
L 828.608497 596.433582 
L 832.593692 599.156517 
L 836.578888 600.031959 
L 840.564083 600.071337 
L 844.549278 601.026357 
L 852.519669 601.134279 
L 856.504864 598.733987 
L 860.49006 600.39651 
L 864.475255 603.109207 
L 868.46045 603.864264 
L 872.445646 604.486638 
L 876.430841 603.750603 
L 880.416036 605.167296 
L 884.401232 603.274264 
L 888.386427 600.647305 
L 892.371622 601.912926 
L 896.356817 602.834189 
L 900.342013 604.282155 
L 904.327208 606.913682 
L 908.312403 603.77185 
L 912.297599 606.071364 
L 916.282794 604.573032 
L 920.267989 604.866369 
L 924.253185 603.160954 
L 928.23838 604.105713 
L 932.223575 603.738445 
L 936.208771 604.221459 
L 940.193966 603.503555 
L 944.179161 603.029372 
L 948.164357 602.887225 
L 952.149552 604.461784 
L 956.134747 607.672277 
L 964.105138 604.140711 
L 968.090333 600.57424 
L 972.075529 599.031212 
L 976.060724 595.105485 
L 980.045919 591.493264 
L 984.031115 588.964764 
L 988.01631 596.044622 
L 992.001505 599.0407 
L 995.986701 596.642915 
L 999.971896 592.503381 
L 1003.957091 592.449267 
L 1007.942287 596.603559 
L 1011.927482 594.166302 
L 1015.912677 594.469665 
L 1019.897873 594.404494 
L 1023.883068 590.633283 
L 1027.868263 594.985171 
L 1031.853459 590.791875 
L 1035.838654 597.543211 
L 1039.823849 597.383261 
L 1043.809045 598.805365 
L 1047.79424 602.54282 
L 1051.779435 599.710066 
L 1055.764631 605.410548 
L 1059.749826 607.572343 
L 1063.735021 605.995512 
L 1067.720217 609.483623 
L 1071.705412 606.532874 
L 1075.690607 610.229451 
L 1079.675803 609.241261 
L 1083.660998 609.593162 
L 1087.646193 608.513377 
L 1087.646193 608.513377 
" clip-path="url(#p79c0451f36)" style="fill: none; stroke-dasharray: 9.25,4; stroke-dashoffset: 0; stroke: #000000; stroke-width: 2.5"/>
   </g>
   <g id="line2d_26">
    <path d="M 95.332557 652.695834 
L 282.636737 652.682048 
L 374.29623 652.835686 
L 386.251816 652.947965 
L 398.207402 653.080672 
L 418.133378 653.624734 
L 422.118574 653.887805 
L 438.059355 653.961619 
L 450.014941 654.548925 
L 473.926113 655.38548 
L 485.881699 655.855424 
L 501.82248 657.052922 
L 505.807675 657.641739 
L 509.792871 657.974092 
L 513.778066 658.455326 
L 517.763261 658.656108 
L 521.748457 659.03469 
L 533.704043 659.708742 
L 541.674433 660.283632 
L 549.644824 661.695547 
L 561.60041 662.950146 
L 565.585605 662.857005 
L 569.570801 663.121704 
L 573.555996 663.502079 
L 577.541191 664.052079 
L 581.526387 664.306459 
L 589.496777 663.898184 
L 593.481973 664.15808 
L 597.467168 663.842852 
L 601.452363 663.814332 
L 605.437559 664.483182 
L 609.422754 665.332517 
L 613.407949 665.550903 
L 621.37834 665.414296 
L 625.363535 665.198522 
L 629.348731 665.3828 
L 633.333926 665.974838 
L 637.319121 666.061443 
L 645.289512 666.019394 
L 649.274707 665.62077 
L 653.259903 664.794299 
L 657.245098 664.581781 
L 661.230293 665.126663 
L 665.215489 664.981213 
L 673.185879 664.875879 
L 677.171075 666.002972 
L 681.15627 666.353667 
L 685.141465 665.840234 
L 697.097051 666.425467 
L 701.082246 667.217033 
L 709.052637 666.694171 
L 713.037832 667.288528 
L 717.023028 667.230667 
L 721.008223 667.753927 
L 724.993418 667.283632 
L 728.978614 666.300631 
L 732.963809 666.358961 
L 740.9342 666.936018 
L 744.919395 666.614243 
L 748.90459 666.017051 
L 756.874981 665.384252 
L 760.860176 666.11572 
L 764.845372 666.418521 
L 768.830567 667.58395 
L 772.815762 667.562867 
L 776.800958 667.943066 
L 780.786153 667.968424 
L 784.771348 669.126709 
L 788.756544 670.082782 
L 792.741739 671.391565 
L 796.726934 671.436448 
L 800.71213 670.973439 
L 808.68252 670.985703 
L 812.667716 671.318594 
L 816.652911 671.196768 
L 824.623302 669.271304 
L 828.608497 667.93229 
L 832.593692 667.085252 
L 840.564083 666.768372 
L 844.549278 666.60978 
L 848.534474 666.304227 
L 852.519669 665.76246 
L 856.504864 665.840234 
L 860.49006 665.058284 
L 864.475255 664.715999 
L 868.46045 664.256726 
L 872.445646 664.409778 
L 876.430841 664.781392 
L 880.416036 664.369661 
L 884.401232 665.364071 
L 888.386427 665.748428 
L 892.371622 664.832963 
L 896.356817 664.497601 
L 904.327208 664.36849 
L 908.312403 665.551008 
L 912.297599 664.405093 
L 916.282794 663.693853 
L 920.267989 663.406631 
L 924.253185 663.797371 
L 928.23838 663.717373 
L 932.223575 663.092304 
L 936.208771 662.33768 
L 940.193966 662.583264 
L 944.179161 662.243286 
L 948.164357 662.457819 
L 952.149552 662.465468 
L 956.134747 661.337719 
L 960.119943 662.491751 
L 968.090333 664.24875 
L 972.075529 664.581008 
L 976.060724 666.049074 
L 980.045919 667.927066 
L 984.031115 669.317663 
L 988.01631 667.594468 
L 992.001505 667.173262 
L 995.986701 668.418795 
L 999.971896 669.898925 
L 1003.957091 669.268774 
L 1007.942287 667.66779 
L 1015.912677 667.18364 
L 1019.897873 667.83635 
L 1023.883068 669.421135 
L 1027.868263 668.502718 
L 1031.853459 670.363106 
L 1035.838654 669.652299 
L 1039.823849 669.83851 
L 1043.809045 668.973727 
L 1047.79424 666.860177 
L 1051.779435 666.988 
L 1055.764631 664.545307 
L 1059.749826 663.132093 
L 1067.720217 663.232015 
L 1071.705412 664.24807 
L 1075.690607 663.950177 
L 1083.660998 664.700643 
L 1087.646193 664.701323 
L 1087.646193 664.701323 
" clip-path="url(#p79c0451f36)" style="fill: none; stroke: #1f77b4; stroke-width: 2; stroke-linecap: square"/>
   </g>
   <g id="line2d_27">
    <path d="M 95.332557 652.694194 
L 238.799589 652.685269 
L 370.311034 652.798017 
L 398.207402 653.068514 
L 426.103769 653.912085 
L 434.07416 653.864555 
L 438.059355 653.944612 
L 450.014941 654.549042 
L 489.866894 656.309074 
L 497.837285 656.728629 
L 501.82248 657.19719 
L 505.807675 657.805227 
L 521.748457 659.111398 
L 529.718847 659.581142 
L 541.674433 660.355912 
L 549.644824 661.726562 
L 561.60041 662.981407 
L 565.585605 662.890281 
L 569.570801 663.151794 
L 573.555996 663.552784 
L 577.541191 664.10816 
L 581.526387 664.363524 
L 585.511582 664.137349 
L 589.496777 664.055277 
L 593.481973 664.359893 
L 597.467168 664.197061 
L 601.452363 664.336397 
L 605.437559 664.805028 
L 609.422754 665.576402 
L 613.407949 665.793687 
L 629.348731 665.981772 
L 633.333926 666.374972 
L 645.289512 666.808055 
L 649.274707 666.38159 
L 653.259903 665.770168 
L 657.245098 665.830571 
L 661.230293 666.46426 
L 665.215489 666.404653 
L 669.200684 666.562249 
L 673.185879 666.46221 
L 677.171075 667.266555 
L 681.15627 667.489579 
L 685.141465 667.251071 
L 697.097051 668.467451 
L 701.082246 669.191891 
L 709.052637 669.533929 
L 713.037832 670.215547 
L 721.008223 671.333258 
L 724.993418 671.0767 
L 728.978614 670.404136 
L 732.963809 670.473523 
L 736.949004 670.819403 
L 740.9342 670.994405 
L 744.919395 670.771779 
L 748.90459 670.436264 
L 752.889786 670.614815 
L 756.874981 670.494161 
L 760.860176 672.032164 
L 764.845372 672.073382 
L 768.830567 673.084892 
L 772.815762 673.364689 
L 776.800958 674.262198 
L 780.786153 673.868681 
L 784.771348 675.319131 
L 788.756544 676.584178 
L 792.741739 677.374678 
L 796.726934 677.41244 
L 800.71213 677.128029 
L 808.68252 677.250241 
L 812.667716 677.758743 
L 816.652911 677.514799 
L 820.638106 676.486902 
L 824.623302 676.115054 
L 828.608497 674.503623 
L 832.593692 673.242477 
L 836.578888 672.605239 
L 840.564083 672.845282 
L 844.549278 672.654983 
L 848.534474 673.020659 
L 852.519669 673.123884 
L 856.504864 674.17872 
L 860.49006 673.287431 
L 864.475255 671.533196 
L 872.445646 669.916764 
L 876.430841 669.057263 
L 880.416036 667.379151 
L 884.401232 667.174586 
L 888.386427 668.174922 
L 892.371622 667.643416 
L 896.356817 666.672479 
L 900.342013 665.061048 
L 904.327208 662.929273 
L 908.312403 663.77008 
L 912.297599 663.535308 
L 916.282794 664.614812 
L 924.253185 664.473836 
L 928.23838 664.239543 
L 932.223575 665.12158 
L 936.208771 665.696892 
L 940.193966 665.883255 
L 944.179161 666.337199 
L 948.164357 666.049449 
L 952.149552 664.795447 
L 956.134747 664.286348 
L 960.119943 664.727044 
L 964.105138 665.856503 
L 968.090333 667.435208 
L 972.075529 668.5294 
L 976.060724 669.285781 
L 980.045919 669.653611 
L 984.031115 669.604265 
L 988.01631 666.795089 
L 992.001505 664.992809 
L 995.986701 665.285361 
L 999.971896 666.090584 
L 1003.957091 666.699606 
L 1007.942287 666.154068 
L 1011.927482 667.809469 
L 1015.912677 668.371604 
L 1019.897873 668.362796 
L 1023.883068 669.550468 
L 1027.868263 667.461644 
L 1031.853459 667.65931 
L 1035.838654 663.967758 
L 1039.823849 663.506307 
L 1043.809045 664.365457 
L 1047.79424 664.168118 
L 1051.779435 665.747831 
L 1055.764631 665.64518 
L 1059.749826 666.134086 
L 1063.735021 667.037147 
L 1067.720217 665.969075 
L 1071.705412 667.05303 
L 1075.690607 665.472802 
L 1079.675803 665.628957 
L 1083.660998 665.12931 
L 1087.646193 665.146657 
L 1087.646193 665.146657 
" clip-path="url(#p79c0451f36)" style="fill: none; stroke: #ff7f0e; stroke-width: 2; stroke-linecap: square"/>
   </g>
   <g id="line2d_28">
    <path d="M 95.332557 652.618084 
L 155.110487 652.623097 
L 378.281425 652.812412 
L 406.177792 653.25914 
L 418.133378 653.567657 
L 422.118574 653.8436 
L 438.059355 653.917813 
L 454.000136 654.701403 
L 461.970527 655.04863 
L 465.955722 655.329259 
L 469.940918 655.497057 
L 473.926113 655.551908 
L 497.837285 656.725735 
L 501.82248 657.192903 
L 505.807675 657.800378 
L 513.778066 658.577959 
L 517.763261 658.728704 
L 521.748457 659.077267 
L 533.704043 659.785309 
L 541.674433 660.2696 
L 549.644824 661.62213 
L 561.60041 662.774265 
L 565.585605 662.568763 
L 569.570801 662.642531 
L 577.541191 663.265338 
L 581.526387 663.203284 
L 585.511582 662.773188 
L 589.496777 662.593688 
L 593.481973 663.241397 
L 597.467168 663.22897 
L 605.437559 663.510535 
L 609.422754 664.324965 
L 613.407949 664.436132 
L 617.393145 664.003061 
L 621.37834 663.956807 
L 629.348731 663.550394 
L 637.319121 663.203858 
L 641.304317 663.316278 
L 645.289512 663.551085 
L 649.274707 662.624505 
L 653.259903 661.817114 
L 657.245098 661.782878 
L 661.230293 662.390845 
L 669.200684 662.529865 
L 673.185879 662.437298 
L 677.171075 662.897707 
L 681.15627 662.814382 
L 685.141465 662.535311 
L 689.126661 662.791108 
L 693.111856 663.315633 
L 697.097051 663.56965 
L 701.082246 664.459722 
L 709.052637 665.51054 
L 713.037832 666.235753 
L 721.008223 667.170603 
L 724.993418 667.011098 
L 728.978614 666.300807 
L 732.963809 666.344613 
L 736.949004 666.783458 
L 740.9342 667.006003 
L 744.919395 666.704748 
L 748.90459 666.075194 
L 752.889786 666.436641 
L 756.874981 666.527919 
L 760.860176 668.063451 
L 764.845372 668.395346 
L 768.830567 669.701119 
L 772.815762 670.189322 
L 776.800958 670.955261 
L 780.786153 670.406326 
L 784.771348 671.683742 
L 788.756544 672.833183 
L 792.741739 673.297832 
L 796.726934 673.241797 
L 800.71213 672.701413 
L 804.697325 672.608846 
L 808.68252 672.969216 
L 812.667716 673.568609 
L 816.652911 673.428348 
L 820.638106 672.713431 
L 824.623302 672.776516 
L 828.608497 671.798106 
L 832.593692 671.18338 
L 836.578888 671.158045 
L 840.564083 670.982599 
L 844.549278 670.376505 
L 848.534474 670.293766 
L 852.519669 670.646978 
L 856.504864 671.914696 
L 860.49006 671.92539 
L 864.475255 671.3092 
L 868.46045 671.783828 
L 872.445646 671.854433 
L 876.430841 673.078345 
L 880.416036 673.751517 
L 884.401232 674.854681 
L 888.386427 676.096958 
L 892.371622 676.278296 
L 896.356817 676.663368 
L 900.342013 676.91899 
L 904.327208 676.456168 
L 908.312403 677.574722 
L 912.297599 676.655872 
L 916.282794 677.78594 
L 920.267989 677.854753 
L 924.253185 679.235441 
L 928.23838 678.604996 
L 932.223575 678.715285 
L 936.208771 678.411559 
L 948.164357 679.273086 
L 952.149552 678.944927 
L 956.134747 677.37127 
L 960.119943 677.485728 
L 964.105138 677.33934 
L 968.090333 678.409439 
L 972.075529 678.526028 
L 976.060724 680.227297 
L 980.045919 681.593672 
L 984.031115 682.78091 
L 988.01631 680.233458 
L 992.001505 679.460831 
L 995.986701 680.320531 
L 999.971896 682.174723 
L 1003.957091 682.249978 
L 1007.942287 680.242196 
L 1011.927482 681.286772 
L 1019.897873 680.06395 
L 1023.883068 681.062728 
L 1027.868263 679.718116 
L 1031.853459 681.853311 
L 1035.838654 679.504333 
L 1039.823849 679.939547 
L 1047.79424 677.096498 
L 1051.779435 678.221717 
L 1055.764631 675.06659 
L 1059.749826 673.82908 
L 1063.735021 674.429762 
L 1067.720217 671.9829 
L 1071.705412 672.833675 
L 1075.690607 671.015184 
L 1079.675803 671.483241 
L 1083.660998 671.244521 
L 1087.646193 672.306292 
L 1087.646193 672.306292 
" clip-path="url(#p79c0451f36)" style="fill: none; stroke: #2ca02c; stroke-width: 2; stroke-linecap: square"/>
   </g>
   <g id="patch_3">
    <path d="M 45.716875 888.477813 
L 45.716875 23.837812 
" style="fill: none; stroke: #000000; stroke-width: 0.8; stroke-linejoin: miter; stroke-linecap: square"/>
   </g>
   <g id="patch_4">
    <path d="M 1137.261875 888.477813 
L 1137.261875 23.837812 
" style="fill: none; stroke: #000000; stroke-width: 0.8; stroke-linejoin: miter; stroke-linecap: square"/>
   </g>
   <g id="patch_5">
    <path d="M 45.716875 888.477813 
L 1137.261875 888.477813 
" style="fill: none; stroke: #000000; stroke-width: 0.8; stroke-linejoin: miter; stroke-linecap: square"/>
   </g>
   <g id="patch_6">
    <path d="M 45.716875 23.837812 
L 1137.261875 23.837812 
" style="fill: none; stroke: #000000; stroke-width: 0.8; stroke-linejoin: miter; stroke-linecap: square"/>
   </g>
   <g id="text_15">
    <!-- Link 1: Evolución de Probabilidades de Acción -->
    <g transform="translate(410.401562 17.837812) scale(0.14 -0.14)">
     <defs>
      <path id="DejaVuSans-Bold-4c" d="M 588 4666 
L 1791 4666 
L 1791 909 
L 3903 909 
L 3903 0 
L 588 0 
L 588 4666 
z
" transform="scale(0.015625)"/>
      <path id="DejaVuSans-Bold-69" d="M 538 3500 
L 1656 3500 
L 1656 0 
L 538 0 
L 538 3500 
z
M 538 4863 
L 1656 4863 
L 1656 3950 
L 538 3950 
L 538 4863 
z
" transform="scale(0.015625)"/>
      <path id="DejaVuSans-Bold-6e" d="M 4056 2131 
L 4056 0 
L 2931 0 
L 2931 347 
L 2931 1631 
Q 2931 2084 2911 2256 
Q 2891 2428 2841 2509 
Q 2775 2619 2662 2680 
Q 2550 2741 2406 2741 
Q 2056 2741 1856 2470 
Q 1656 2200 1656 1722 
L 1656 0 
L 538 0 
L 538 3500 
L 1656 3500 
L 1656 2988 
Q 1909 3294 2193 3439 
Q 2478 3584 2822 3584 
Q 3428 3584 3742 3212 
Q 4056 2841 4056 2131 
z
" transform="scale(0.015625)"/>
      <path id="DejaVuSans-Bold-6b" d="M 538 4863 
L 1656 4863 
L 1656 2216 
L 2944 3500 
L 4244 3500 
L 2534 1894 
L 4378 0 
L 3022 0 
L 1656 1459 
L 1656 0 
L 538 0 
L 538 4863 
z
" transform="scale(0.015625)"/>
      <path id="DejaVuSans-Bold-20" transform="scale(0.015625)"/>
      <path id="DejaVuSans-Bold-31" d="M 750 831 
L 1813 831 
L 1813 3847 
L 722 3622 
L 722 4441 
L 1806 4666 
L 2950 4666 
L 2950 831 
L 4013 831 
L 4013 0 
L 750 0 
L 750 831 
z
" transform="scale(0.015625)"/>
      <path id="DejaVuSans-Bold-3a" d="M 716 3500 
L 1844 3500 
L 1844 2291 
L 716 2291 
L 716 3500 
z
M 716 1209 
L 1844 1209 
L 1844 0 
L 716 0 
L 716 1209 
z
" transform="scale(0.015625)"/>
      <path id="DejaVuSans-Bold-45" d="M 588 4666 
L 3834 4666 
L 3834 3756 
L 1791 3756 
L 1791 2888 
L 3713 2888 
L 3713 1978 
L 1791 1978 
L 1791 909 
L 3903 909 
L 3903 0 
L 588 0 
L 588 4666 
z
" transform="scale(0.015625)"/>
      <path id="DejaVuSans-Bold-76" d="M 97 3500 
L 1216 3500 
L 2088 1081 
L 2956 3500 
L 4078 3500 
L 2700 0 
L 1472 0 
L 97 3500 
z
" transform="scale(0.015625)"/>
      <path id="DejaVuSans-Bold-6f" d="M 2203 2784 
Q 1831 2784 1636 2517 
Q 1441 2250 1441 1747 
Q 1441 1244 1636 976 
Q 1831 709 2203 709 
Q 2569 709 2762 976 
Q 2956 1244 2956 1747 
Q 2956 2250 2762 2517 
Q 2569 2784 2203 2784 
z
M 2203 3584 
Q 3106 3584 3614 3096 
Q 4122 2609 4122 1747 
Q 4122 884 3614 396 
Q 3106 -91 2203 -91 
Q 1297 -91 786 396 
Q 275 884 275 1747 
Q 275 2609 786 3096 
Q 1297 3584 2203 3584 
z
" transform="scale(0.015625)"/>
      <path id="DejaVuSans-Bold-6c" d="M 538 4863 
L 1656 4863 
L 1656 0 
L 538 0 
L 538 4863 
z
" transform="scale(0.015625)"/>
      <path id="DejaVuSans-Bold-75" d="M 500 1363 
L 500 3500 
L 1625 3500 
L 1625 3150 
Q 1625 2866 1622 2436 
Q 1619 2006 1619 1863 
Q 1619 1441 1641 1255 
Q 1663 1069 1716 984 
Q 1784 875 1895 815 
Q 2006 756 2150 756 
Q 2500 756 2700 1025 
Q 2900 1294 2900 1772 
L 2900 3500 
L 4019 3500 
L 4019 0 
L 2900 0 
L 2900 506 
Q 2647 200 2364 54 
Q 2081 -91 1741 -91 
Q 1134 -91 817 281 
Q 500 653 500 1363 
z
" transform="scale(0.015625)"/>
      <path id="DejaVuSans-Bold-63" d="M 3366 3391 
L 3366 2478 
Q 3138 2634 2908 2709 
Q 2678 2784 2431 2784 
Q 1963 2784 1702 2511 
Q 1441 2238 1441 1747 
Q 1441 1256 1702 982 
Q 1963 709 2431 709 
Q 2694 709 2930 787 
Q 3166 866 3366 1019 
L 3366 103 
Q 3103 6 2833 -42 
Q 2563 -91 2291 -91 
Q 1344 -91 809 395 
Q 275 881 275 1747 
Q 275 2613 809 3098 
Q 1344 3584 2291 3584 
Q 2566 3584 2833 3536 
Q 3100 3488 3366 3391 
z
" transform="scale(0.015625)"/>
      <path id="DejaVuSans-Bold-f3" d="M 2203 2784 
Q 1831 2784 1636 2517 
Q 1441 2250 1441 1747 
Q 1441 1244 1636 976 
Q 1831 709 2203 709 
Q 2569 709 2762 976 
Q 2956 1244 2956 1747 
Q 2956 2250 2762 2517 
Q 2569 2784 2203 2784 
z
M 2203 3584 
Q 3106 3584 3614 3096 
Q 4122 2609 4122 1747 
Q 4122 884 3614 396 
Q 3106 -91 2203 -91 
Q 1297 -91 786 396 
Q 275 884 275 1747 
Q 275 2609 786 3096 
Q 1297 3584 2203 3584 
z
M 2694 5119 
L 3578 5119 
L 2425 3944 
L 1813 3944 
L 2694 5119 
z
" transform="scale(0.015625)"/>
      <path id="DejaVuSans-Bold-64" d="M 2919 2988 
L 2919 4863 
L 4044 4863 
L 4044 0 
L 2919 0 
L 2919 506 
Q 2688 197 2409 53 
Q 2131 -91 1766 -91 
Q 1119 -91 703 423 
Q 288 938 288 1747 
Q 288 2556 703 3070 
Q 1119 3584 1766 3584 
Q 2128 3584 2408 3439 
Q 2688 3294 2919 2988 
z
M 2181 722 
Q 2541 722 2730 984 
Q 2919 1247 2919 1747 
Q 2919 2247 2730 2509 
Q 2541 2772 2181 2772 
Q 1825 2772 1636 2509 
Q 1447 2247 1447 1747 
Q 1447 1247 1636 984 
Q 1825 722 2181 722 
z
" transform="scale(0.015625)"/>
      <path id="DejaVuSans-Bold-65" d="M 4031 1759 
L 4031 1441 
L 1416 1441 
Q 1456 1047 1700 850 
Q 1944 653 2381 653 
Q 2734 653 3104 758 
Q 3475 863 3866 1075 
L 3866 213 
Q 3469 63 3072 -14 
Q 2675 -91 2278 -91 
Q 1328 -91 801 392 
Q 275 875 275 1747 
Q 275 2603 792 3093 
Q 1309 3584 2216 3584 
Q 3041 3584 3536 3087 
Q 4031 2591 4031 1759 
z
M 2881 2131 
Q 2881 2450 2695 2645 
Q 2509 2841 2209 2841 
Q 1884 2841 1681 2658 
Q 1478 2475 1428 2131 
L 2881 2131 
z
" transform="scale(0.015625)"/>
      <path id="DejaVuSans-Bold-50" d="M 588 4666 
L 2584 4666 
Q 3475 4666 3951 4270 
Q 4428 3875 4428 3144 
Q 4428 2409 3951 2014 
Q 3475 1619 2584 1619 
L 1791 1619 
L 1791 0 
L 588 0 
L 588 4666 
z
M 1791 3794 
L 1791 2491 
L 2456 2491 
Q 2806 2491 2997 2661 
Q 3188 2831 3188 3144 
Q 3188 3456 2997 3625 
Q 2806 3794 2456 3794 
L 1791 3794 
z
" transform="scale(0.015625)"/>
      <path id="DejaVuSans-Bold-72" d="M 3138 2547 
Q 2991 2616 2845 2648 
Q 2700 2681 2553 2681 
Q 2122 2681 1889 2404 
Q 1656 2128 1656 1613 
L 1656 0 
L 538 0 
L 538 3500 
L 1656 3500 
L 1656 2925 
Q 1872 3269 2151 3426 
Q 2431 3584 2822 3584 
Q 2878 3584 2943 3579 
Q 3009 3575 3134 3559 
L 3138 2547 
z
" transform="scale(0.015625)"/>
      <path id="DejaVuSans-Bold-62" d="M 2400 722 
Q 2759 722 2948 984 
Q 3138 1247 3138 1747 
Q 3138 2247 2948 2509 
Q 2759 2772 2400 2772 
Q 2041 2772 1848 2508 
Q 1656 2244 1656 1747 
Q 1656 1250 1848 986 
Q 2041 722 2400 722 
z
M 1656 2988 
Q 1888 3294 2169 3439 
Q 2450 3584 2816 3584 
Q 3463 3584 3878 3070 
Q 4294 2556 4294 1747 
Q 4294 938 3878 423 
Q 3463 -91 2816 -91 
Q 2450 -91 2169 54 
Q 1888 200 1656 506 
L 1656 0 
L 538 0 
L 538 4863 
L 1656 4863 
L 1656 2988 
z
" transform="scale(0.015625)"/>
      <path id="DejaVuSans-Bold-61" d="M 2106 1575 
Q 1756 1575 1579 1456 
Q 1403 1338 1403 1106 
Q 1403 894 1545 773 
Q 1688 653 1941 653 
Q 2256 653 2472 879 
Q 2688 1106 2688 1447 
L 2688 1575 
L 2106 1575 
z
M 3816 1997 
L 3816 0 
L 2688 0 
L 2688 519 
Q 2463 200 2181 54 
Q 1900 -91 1497 -91 
Q 953 -91 614 226 
Q 275 544 275 1050 
Q 275 1666 698 1953 
Q 1122 2241 2028 2241 
L 2688 2241 
L 2688 2328 
Q 2688 2594 2478 2717 
Q 2269 2841 1825 2841 
Q 1466 2841 1156 2769 
Q 847 2697 581 2553 
L 581 3406 
Q 941 3494 1303 3539 
Q 1666 3584 2028 3584 
Q 2975 3584 3395 3211 
Q 3816 2838 3816 1997 
z
" transform="scale(0.015625)"/>
      <path id="DejaVuSans-Bold-73" d="M 3272 3391 
L 3272 2541 
Q 2913 2691 2578 2766 
Q 2244 2841 1947 2841 
Q 1628 2841 1473 2761 
Q 1319 2681 1319 2516 
Q 1319 2381 1436 2309 
Q 1553 2238 1856 2203 
L 2053 2175 
Q 2913 2066 3209 1816 
Q 3506 1566 3506 1031 
Q 3506 472 3093 190 
Q 2681 -91 1863 -91 
Q 1516 -91 1145 -36 
Q 775 19 384 128 
L 384 978 
Q 719 816 1070 734 
Q 1422 653 1784 653 
Q 2113 653 2278 743 
Q 2444 834 2444 1013 
Q 2444 1163 2330 1236 
Q 2216 1309 1875 1350 
L 1678 1375 
Q 931 1469 631 1722 
Q 331 1975 331 2491 
Q 331 3047 712 3315 
Q 1094 3584 1881 3584 
Q 2191 3584 2531 3537 
Q 2872 3491 3272 3391 
z
" transform="scale(0.015625)"/>
      <path id="DejaVuSans-Bold-41" d="M 3419 850 
L 1538 850 
L 1241 0 
L 31 0 
L 1759 4666 
L 3194 4666 
L 4922 0 
L 3713 0 
L 3419 850 
z
M 1838 1716 
L 3116 1716 
L 2478 3572 
L 1838 1716 
z
" transform="scale(0.015625)"/>
     </defs>
     <use xlink:href="#DejaVuSans-Bold-4c"/>
     <use xlink:href="#DejaVuSans-Bold-69" transform="translate(63.720703 0)"/>
     <use xlink:href="#DejaVuSans-Bold-6e" transform="translate(97.998047 0)"/>
     <use xlink:href="#DejaVuSans-Bold-6b" transform="translate(169.189453 0)"/>
     <use xlink:href="#DejaVuSans-Bold-20" transform="translate(235.693359 0)"/>
     <use xlink:href="#DejaVuSans-Bold-31" transform="translate(270.507812 0)"/>
     <use xlink:href="#DejaVuSans-Bold-3a" transform="translate(340.087891 0)"/>
     <use xlink:href="#DejaVuSans-Bold-20" transform="translate(380.078125 0)"/>
     <use xlink:href="#DejaVuSans-Bold-45" transform="translate(414.892578 0)"/>
     <use xlink:href="#DejaVuSans-Bold-76" transform="translate(483.203125 0)"/>
     <use xlink:href="#DejaVuSans-Bold-6f" transform="translate(548.388672 0)"/>
     <use xlink:href="#DejaVuSans-Bold-6c" transform="translate(617.089844 0)"/>
     <use xlink:href="#DejaVuSans-Bold-75" transform="translate(651.367188 0)"/>
     <use xlink:href="#DejaVuSans-Bold-63" transform="translate(722.558594 0)"/>
     <use xlink:href="#DejaVuSans-Bold-69" transform="translate(781.835938 0)"/>
     <use xlink:href="#DejaVuSans-Bold-f3" transform="translate(816.113281 0)"/>
     <use xlink:href="#DejaVuSans-Bold-6e" transform="translate(884.814453 0)"/>
     <use xlink:href="#DejaVuSans-Bold-20" transform="translate(956.005859 0)"/>
     <use xlink:href="#DejaVuSans-Bold-64" transform="translate(990.820312 0)"/>
     <use xlink:href="#DejaVuSans-Bold-65" transform="translate(1062.402344 0)"/>
     <use xlink:href="#DejaVuSans-Bold-20" transform="translate(1130.224609 0)"/>
     <use xlink:href="#DejaVuSans-Bold-50" transform="translate(1165.039062 0)"/>
     <use xlink:href="#DejaVuSans-Bold-72" transform="translate(1238.330078 0)"/>
     <use xlink:href="#DejaVuSans-Bold-6f" transform="translate(1287.646484 0)"/>
     <use xlink:href="#DejaVuSans-Bold-62" transform="translate(1356.347656 0)"/>
     <use xlink:href="#DejaVuSans-Bold-61" transform="translate(1427.929688 0)"/>
     <use xlink:href="#DejaVuSans-Bold-62" transform="translate(1495.410156 0)"/>
     <use xlink:href="#DejaVuSans-Bold-69" transform="translate(1566.992188 0)"/>
     <use xlink:href="#DejaVuSans-Bold-6c" transform="translate(1601.269531 0)"/>
     <use xlink:href="#DejaVuSans-Bold-69" transform="translate(1635.546875 0)"/>
     <use xlink:href="#DejaVuSans-Bold-64" transform="translate(1669.824219 0)"/>
     <use xlink:href="#DejaVuSans-Bold-61" transform="translate(1741.40625 0)"/>
     <use xlink:href="#DejaVuSans-Bold-64" transform="translate(1808.886719 0)"/>
     <use xlink:href="#DejaVuSans-Bold-65" transform="translate(1880.46875 0)"/>
     <use xlink:href="#DejaVuSans-Bold-73" transform="translate(1948.291016 0)"/>
     <use xlink:href="#DejaVuSans-Bold-20" transform="translate(2007.8125 0)"/>
     <use xlink:href="#DejaVuSans-Bold-64" transform="translate(2042.626953 0)"/>
     <use xlink:href="#DejaVuSans-Bold-65" transform="translate(2114.208984 0)"/>
     <use xlink:href="#DejaVuSans-Bold-20" transform="translate(2182.03125 0)"/>
     <use xlink:href="#DejaVuSans-Bold-41" transform="translate(2216.845703 0)"/>
     <use xlink:href="#DejaVuSans-Bold-63" transform="translate(2294.238281 0)"/>
     <use xlink:href="#DejaVuSans-Bold-63" transform="translate(2353.515625 0)"/>
     <use xlink:href="#DejaVuSans-Bold-69" transform="translate(2412.792969 0)"/>
     <use xlink:href="#DejaVuSans-Bold-f3" transform="translate(2447.070312 0)"/>
     <use xlink:href="#DejaVuSans-Bold-6e" transform="translate(2515.771484 0)"/>
    </g>
   </g>
   <g id="legend_1">
    <g id="patch_7">
     <path d="M 1052.677031 97.221562 
L 1129.561875 97.221562 
Q 1131.761875 97.221562 1131.761875 95.021562 
L 1131.761875 31.537812 
Q 1131.761875 29.337812 1129.561875 29.337812 
L 1052.677031 29.337812 
Q 1050.477031 29.337812 1050.477031 31.537812 
L 1050.477031 95.021562 
Q 1050.477031 97.221562 1052.677031 97.221562 
z
" style="fill: #ffffff; opacity: 0.8; stroke: #cccccc; stroke-linejoin: miter"/>
    </g>
    <g id="line2d_29">
     <path d="M 1054.877031 38.246094 
L 1065.877031 38.246094 
L 1076.877031 38.246094 
" style="fill: none; stroke-dasharray: 9.25,4; stroke-dashoffset: 0; stroke: #000000; stroke-width: 2.5"/>
    </g>
    <g id="text_16">
     <!-- No TX -->
     <g transform="translate(1085.677031 42.096094) scale(0.11 -0.11)">
      <defs>
       <path id="DejaVuSans-4e" d="M 628 4666 
L 1478 4666 
L 3547 763 
L 3547 4666 
L 4159 4666 
L 4159 0 
L 3309 0 
L 1241 3903 
L 1241 0 
L 628 0 
L 628 4666 
z
" transform="scale(0.015625)"/>
       <path id="DejaVuSans-54" d="M -19 4666 
L 3928 4666 
L 3928 4134 
L 2272 4134 
L 2272 0 
L 1638 0 
L 1638 4134 
L -19 4134 
L -19 4666 
z
" transform="scale(0.015625)"/>
       <path id="DejaVuSans-58" d="M 403 4666 
L 1081 4666 
L 2241 2931 
L 3406 4666 
L 4084 4666 
L 2584 2425 
L 4184 0 
L 3506 0 
L 2194 1984 
L 872 0 
L 191 0 
L 1856 2491 
L 403 4666 
z
" transform="scale(0.015625)"/>
      </defs>
      <use xlink:href="#DejaVuSans-4e"/>
      <use xlink:href="#DejaVuSans-6f" transform="translate(74.804688 0)"/>
      <use xlink:href="#DejaVuSans-20" transform="translate(135.986328 0)"/>
      <use xlink:href="#DejaVuSans-54" transform="translate(167.773438 0)"/>
      <use xlink:href="#DejaVuSans-58" transform="translate(228.857422 0)"/>
     </g>
    </g>
    <g id="line2d_30">
     <path d="M 1054.877031 54.392031 
L 1065.877031 54.392031 
L 1076.877031 54.392031 
" style="fill: none; stroke: #1f77b4; stroke-width: 2; stroke-linecap: square"/>
    </g>
    <g id="text_17">
     <!-- Canal 0 -->
     <g transform="translate(1085.677031 58.242031) scale(0.11 -0.11)">
      <defs>
       <path id="DejaVuSans-43" d="M 4122 4306 
L 4122 3641 
Q 3803 3938 3442 4084 
Q 3081 4231 2675 4231 
Q 1875 4231 1450 3742 
Q 1025 3253 1025 2328 
Q 1025 1406 1450 917 
Q 1875 428 2675 428 
Q 3081 428 3442 575 
Q 3803 722 4122 1019 
L 4122 359 
Q 3791 134 3420 21 
Q 3050 -91 2638 -91 
Q 1578 -91 968 557 
Q 359 1206 359 2328 
Q 359 3453 968 4101 
Q 1578 4750 2638 4750 
Q 3056 4750 3426 4639 
Q 3797 4528 4122 4306 
z
" transform="scale(0.015625)"/>
      </defs>
      <use xlink:href="#DejaVuSans-43"/>
      <use xlink:href="#DejaVuSans-61" transform="translate(69.824219 0)"/>
      <use xlink:href="#DejaVuSans-6e" transform="translate(131.103516 0)"/>
      <use xlink:href="#DejaVuSans-61" transform="translate(194.482422 0)"/>
      <use xlink:href="#DejaVuSans-6c" transform="translate(255.761719 0)"/>
      <use xlink:href="#DejaVuSans-20" transform="translate(283.544922 0)"/>
      <use xlink:href="#DejaVuSans-30" transform="translate(315.332031 0)"/>
     </g>
    </g>
    <g id="line2d_31">
     <path d="M 1054.877031 70.537969 
L 1065.877031 70.537969 
L 1076.877031 70.537969 
" style="fill: none; stroke: #ff7f0e; stroke-width: 2; stroke-linecap: square"/>
    </g>
    <g id="text_18">
     <!-- Canal 1 -->
     <g transform="translate(1085.677031 74.387969) scale(0.11 -0.11)">
      <use xlink:href="#DejaVuSans-43"/>
      <use xlink:href="#DejaVuSans-61" transform="translate(69.824219 0)"/>
      <use xlink:href="#DejaVuSans-6e" transform="translate(131.103516 0)"/>
      <use xlink:href="#DejaVuSans-61" transform="translate(194.482422 0)"/>
      <use xlink:href="#DejaVuSans-6c" transform="translate(255.761719 0)"/>
      <use xlink:href="#DejaVuSans-20" transform="translate(283.544922 0)"/>
      <use xlink:href="#DejaVuSans-31" transform="translate(315.332031 0)"/>
     </g>
    </g>
    <g id="line2d_32">
     <path d="M 1054.877031 86.683906 
L 1065.877031 86.683906 
L 1076.877031 86.683906 
" style="fill: none; stroke: #2ca02c; stroke-width: 2; stroke-linecap: square"/>
    </g>
    <g id="text_19">
     <!-- Canal 2 -->
     <g transform="translate(1085.677031 90.533906) scale(0.11 -0.11)">
      <use xlink:href="#DejaVuSans-43"/>
      <use xlink:href="#DejaVuSans-61" transform="translate(69.824219 0)"/>
      <use xlink:href="#DejaVuSans-6e" transform="translate(131.103516 0)"/>
      <use xlink:href="#DejaVuSans-61" transform="translate(194.482422 0)"/>
      <use xlink:href="#DejaVuSans-6c" transform="translate(255.761719 0)"/>
      <use xlink:href="#DejaVuSans-20" transform="translate(283.544922 0)"/>
      <use xlink:href="#DejaVuSans-32" transform="translate(315.332031 0)"/>
     </g>
    </g>
   </g>
  </g>
 </g>
 <defs>
  <clipPath id="p79c0451f36">
   <rect x="45.716875" y="23.837812" width="1091.545" height="864.64"/>
  </clipPath>
 </defs>
</svg>
