<?xml version="1.0" encoding="utf-8" standalone="no"?>
<!DOCTYPE svg PUBLIC "-//W3C//DTD SVG 1.1//EN"
  "http://www.w3.org/Graphics/SVG/1.1/DTD/svg11.dtd">
<svg xmlns:xlink="http://www.w3.org/1999/xlink" width="1144.461875pt" height="927.969688pt" viewBox="0 0 1144.461875 927.969688" xmlns="http://www.w3.org/2000/svg" version="1.1">
 <metadata>
  <rdf:RDF xmlns:dc="http://purl.org/dc/elements/1.1/" xmlns:cc="http://creativecommons.org/ns#" xmlns:rdf="http://www.w3.org/1999/02/22-rdf-syntax-ns#">
   <cc:Work>
    <dc:type rdf:resource="http://purl.org/dc/dcmitype/StillImage"/>
    <dc:date>2025-10-14T19:32:02.141641</dc:date>
    <dc:format>image/svg+xml</dc:format>
    <dc:creator>
     <cc:Agent>
      <dc:title>Matplotlib v3.10.1, https://matplotlib.org/</dc:title>
     </cc:Agent>
    </dc:creator>
   </cc:Work>
  </rdf:RDF>
 </metadata>
 <defs>
  <style type="text/css">*{stroke-linejoin: round; stroke-linecap: butt}</style>
 </defs>
 <g id="figure_1">
  <g id="patch_1">
   <path d="M 0 927.969688 
L 1144.461875 927.969688 
L 1144.461875 0 
L 0 0 
z
" style="fill: #ffffff"/>
  </g>
  <g id="axes_1">
   <g id="patch_2">
    <path d="M 45.716875 888.477813 
L 1137.261875 888.477813 
L 1137.261875 23.837812 
L 45.716875 23.837812 
z
" style="fill: #ffffff"/>
   </g>
   <g id="matplotlib.axis_1">
    <g id="xtick_1">
     <g id="line2d_1">
      <path d="M 95.332557 888.477813 
L 95.332557 23.837812 
" clip-path="url(#p8cc36053f9)" style="fill: none; stroke: #b0b0b0; stroke-opacity: 0.3; stroke-width: 0.8; stroke-linecap: square"/>
     </g>
     <g id="line2d_2">
      <defs>
       <path id="mf837b4d3c9" d="M 0 0 
L 0 3.5 
" style="stroke: #000000; stroke-width: 0.8"/>
      </defs>
      <g>
       <use xlink:href="#mf837b4d3c9" x="95.332557" y="888.477813" style="stroke: #000000; stroke-width: 0.8"/>
      </g>
     </g>
     <g id="text_1">
      <!-- 0 -->
      <g transform="translate(92.151307 903.07625) scale(0.1 -0.1)">
       <defs>
        <path id="DejaVuSans-30" d="M 2034 4250 
Q 1547 4250 1301 3770 
Q 1056 3291 1056 2328 
Q 1056 1369 1301 889 
Q 1547 409 2034 409 
Q 2525 409 2770 889 
Q 3016 1369 3016 2328 
Q 3016 3291 2770 3770 
Q 2525 4250 2034 4250 
z
M 2034 4750 
Q 2819 4750 3233 4129 
Q 3647 3509 3647 2328 
Q 3647 1150 3233 529 
Q 2819 -91 2034 -91 
Q 1250 -91 836 529 
Q 422 1150 422 2328 
Q 422 3509 836 4129 
Q 1250 4750 2034 4750 
z
" transform="scale(0.015625)"/>
       </defs>
       <use xlink:href="#DejaVuSans-30"/>
      </g>
     </g>
    </g>
    <g id="xtick_2">
     <g id="line2d_3">
      <path d="M 321.37211 888.477813 
L 321.37211 23.837812 
" clip-path="url(#p8cc36053f9)" style="fill: none; stroke: #b0b0b0; stroke-opacity: 0.3; stroke-width: 0.8; stroke-linecap: square"/>
     </g>
     <g id="line2d_4">
      <g>
       <use xlink:href="#mf837b4d3c9" x="321.37211" y="888.477813" style="stroke: #000000; stroke-width: 0.8"/>
      </g>
     </g>
     <g id="text_2">
      <!-- 100 -->
      <g transform="translate(311.82836 903.07625) scale(0.1 -0.1)">
       <defs>
        <path id="DejaVuSans-31" d="M 794 531 
L 1825 531 
L 1825 4091 
L 703 3866 
L 703 4441 
L 1819 4666 
L 2450 4666 
L 2450 531 
L 3481 531 
L 3481 0 
L 794 0 
L 794 531 
z
" transform="scale(0.015625)"/>
       </defs>
       <use xlink:href="#DejaVuSans-31"/>
       <use xlink:href="#DejaVuSans-30" transform="translate(63.623047 0)"/>
       <use xlink:href="#DejaVuSans-30" transform="translate(127.246094 0)"/>
      </g>
     </g>
    </g>
    <g id="xtick_3">
     <g id="line2d_5">
      <path d="M 547.411662 888.477813 
L 547.411662 23.837812 
" clip-path="url(#p8cc36053f9)" style="fill: none; stroke: #b0b0b0; stroke-opacity: 0.3; stroke-width: 0.8; stroke-linecap: square"/>
     </g>
     <g id="line2d_6">
      <g>
       <use xlink:href="#mf837b4d3c9" x="547.411662" y="888.477813" style="stroke: #000000; stroke-width: 0.8"/>
      </g>
     </g>
     <g id="text_3">
      <!-- 200 -->
      <g transform="translate(537.867912 903.07625) scale(0.1 -0.1)">
       <defs>
        <path id="DejaVuSans-32" d="M 1228 531 
L 3431 531 
L 3431 0 
L 469 0 
L 469 531 
Q 828 903 1448 1529 
Q 2069 2156 2228 2338 
Q 2531 2678 2651 2914 
Q 2772 3150 2772 3378 
Q 2772 3750 2511 3984 
Q 2250 4219 1831 4219 
Q 1534 4219 1204 4116 
Q 875 4013 500 3803 
L 500 4441 
Q 881 4594 1212 4672 
Q 1544 4750 1819 4750 
Q 2544 4750 2975 4387 
Q 3406 4025 3406 3419 
Q 3406 3131 3298 2873 
Q 3191 2616 2906 2266 
Q 2828 2175 2409 1742 
Q 1991 1309 1228 531 
z
" transform="scale(0.015625)"/>
       </defs>
       <use xlink:href="#DejaVuSans-32"/>
       <use xlink:href="#DejaVuSans-30" transform="translate(63.623047 0)"/>
       <use xlink:href="#DejaVuSans-30" transform="translate(127.246094 0)"/>
      </g>
     </g>
    </g>
    <g id="xtick_4">
     <g id="line2d_7">
      <path d="M 773.451215 888.477813 
L 773.451215 23.837812 
" clip-path="url(#p8cc36053f9)" style="fill: none; stroke: #b0b0b0; stroke-opacity: 0.3; stroke-width: 0.8; stroke-linecap: square"/>
     </g>
     <g id="line2d_8">
      <g>
       <use xlink:href="#mf837b4d3c9" x="773.451215" y="888.477813" style="stroke: #000000; stroke-width: 0.8"/>
      </g>
     </g>
     <g id="text_4">
      <!-- 300 -->
      <g transform="translate(763.907465 903.07625) scale(0.1 -0.1)">
       <defs>
        <path id="DejaVuSans-33" d="M 2597 2516 
Q 3050 2419 3304 2112 
Q 3559 1806 3559 1356 
Q 3559 666 3084 287 
Q 2609 -91 1734 -91 
Q 1441 -91 1130 -33 
Q 819 25 488 141 
L 488 750 
Q 750 597 1062 519 
Q 1375 441 1716 441 
Q 2309 441 2620 675 
Q 2931 909 2931 1356 
Q 2931 1769 2642 2001 
Q 2353 2234 1838 2234 
L 1294 2234 
L 1294 2753 
L 1863 2753 
Q 2328 2753 2575 2939 
Q 2822 3125 2822 3475 
Q 2822 3834 2567 4026 
Q 2313 4219 1838 4219 
Q 1578 4219 1281 4162 
Q 984 4106 628 3988 
L 628 4550 
Q 988 4650 1302 4700 
Q 1616 4750 1894 4750 
Q 2613 4750 3031 4423 
Q 3450 4097 3450 3541 
Q 3450 3153 3228 2886 
Q 3006 2619 2597 2516 
z
" transform="scale(0.015625)"/>
       </defs>
       <use xlink:href="#DejaVuSans-33"/>
       <use xlink:href="#DejaVuSans-30" transform="translate(63.623047 0)"/>
       <use xlink:href="#DejaVuSans-30" transform="translate(127.246094 0)"/>
      </g>
     </g>
    </g>
    <g id="xtick_5">
     <g id="line2d_9">
      <path d="M 999.490768 888.477813 
L 999.490768 23.837812 
" clip-path="url(#p8cc36053f9)" style="fill: none; stroke: #b0b0b0; stroke-opacity: 0.3; stroke-width: 0.8; stroke-linecap: square"/>
     </g>
     <g id="line2d_10">
      <g>
       <use xlink:href="#mf837b4d3c9" x="999.490768" y="888.477813" style="stroke: #000000; stroke-width: 0.8"/>
      </g>
     </g>
     <g id="text_5">
      <!-- 400 -->
      <g transform="translate(989.947018 903.07625) scale(0.1 -0.1)">
       <defs>
        <path id="DejaVuSans-34" d="M 2419 4116 
L 825 1625 
L 2419 1625 
L 2419 4116 
z
M 2253 4666 
L 3047 4666 
L 3047 1625 
L 3713 1625 
L 3713 1100 
L 3047 1100 
L 3047 0 
L 2419 0 
L 2419 1100 
L 313 1100 
L 313 1709 
L 2253 4666 
z
" transform="scale(0.015625)"/>
       </defs>
       <use xlink:href="#DejaVuSans-34"/>
       <use xlink:href="#DejaVuSans-30" transform="translate(63.623047 0)"/>
       <use xlink:href="#DejaVuSans-30" transform="translate(127.246094 0)"/>
      </g>
     </g>
    </g>
    <g id="text_6">
     <!-- Iteraciones (x10) -->
     <g transform="translate(540.499688 918.274063) scale(0.12 -0.12)">
      <defs>
       <path id="DejaVuSans-49" d="M 628 4666 
L 1259 4666 
L 1259 0 
L 628 0 
L 628 4666 
z
" transform="scale(0.015625)"/>
       <path id="DejaVuSans-74" d="M 1172 4494 
L 1172 3500 
L 2356 3500 
L 2356 3053 
L 1172 3053 
L 1172 1153 
Q 1172 725 1289 603 
Q 1406 481 1766 481 
L 2356 481 
L 2356 0 
L 1766 0 
Q 1100 0 847 248 
Q 594 497 594 1153 
L 594 3053 
L 172 3053 
L 172 3500 
L 594 3500 
L 594 4494 
L 1172 4494 
z
" transform="scale(0.015625)"/>
       <path id="DejaVuSans-65" d="M 3597 1894 
L 3597 1613 
L 953 1613 
Q 991 1019 1311 708 
Q 1631 397 2203 397 
Q 2534 397 2845 478 
Q 3156 559 3463 722 
L 3463 178 
Q 3153 47 2828 -22 
Q 2503 -91 2169 -91 
Q 1331 -91 842 396 
Q 353 884 353 1716 
Q 353 2575 817 3079 
Q 1281 3584 2069 3584 
Q 2775 3584 3186 3129 
Q 3597 2675 3597 1894 
z
M 3022 2063 
Q 3016 2534 2758 2815 
Q 2500 3097 2075 3097 
Q 1594 3097 1305 2825 
Q 1016 2553 972 2059 
L 3022 2063 
z
" transform="scale(0.015625)"/>
       <path id="DejaVuSans-72" d="M 2631 2963 
Q 2534 3019 2420 3045 
Q 2306 3072 2169 3072 
Q 1681 3072 1420 2755 
Q 1159 2438 1159 1844 
L 1159 0 
L 581 0 
L 581 3500 
L 1159 3500 
L 1159 2956 
Q 1341 3275 1631 3429 
Q 1922 3584 2338 3584 
Q 2397 3584 2469 3576 
Q 2541 3569 2628 3553 
L 2631 2963 
z
" transform="scale(0.015625)"/>
       <path id="DejaVuSans-61" d="M 2194 1759 
Q 1497 1759 1228 1600 
Q 959 1441 959 1056 
Q 959 750 1161 570 
Q 1363 391 1709 391 
Q 2188 391 2477 730 
Q 2766 1069 2766 1631 
L 2766 1759 
L 2194 1759 
z
M 3341 1997 
L 3341 0 
L 2766 0 
L 2766 531 
Q 2569 213 2275 61 
Q 1981 -91 1556 -91 
Q 1019 -91 701 211 
Q 384 513 384 1019 
Q 384 1609 779 1909 
Q 1175 2209 1959 2209 
L 2766 2209 
L 2766 2266 
Q 2766 2663 2505 2880 
Q 2244 3097 1772 3097 
Q 1472 3097 1187 3025 
Q 903 2953 641 2809 
L 641 3341 
Q 956 3463 1253 3523 
Q 1550 3584 1831 3584 
Q 2591 3584 2966 3190 
Q 3341 2797 3341 1997 
z
" transform="scale(0.015625)"/>
       <path id="DejaVuSans-63" d="M 3122 3366 
L 3122 2828 
Q 2878 2963 2633 3030 
Q 2388 3097 2138 3097 
Q 1578 3097 1268 2742 
Q 959 2388 959 1747 
Q 959 1106 1268 751 
Q 1578 397 2138 397 
Q 2388 397 2633 464 
Q 2878 531 3122 666 
L 3122 134 
Q 2881 22 2623 -34 
Q 2366 -91 2075 -91 
Q 1284 -91 818 406 
Q 353 903 353 1747 
Q 353 2603 823 3093 
Q 1294 3584 2113 3584 
Q 2378 3584 2631 3529 
Q 2884 3475 3122 3366 
z
" transform="scale(0.015625)"/>
       <path id="DejaVuSans-69" d="M 603 3500 
L 1178 3500 
L 1178 0 
L 603 0 
L 603 3500 
z
M 603 4863 
L 1178 4863 
L 1178 4134 
L 603 4134 
L 603 4863 
z
" transform="scale(0.015625)"/>
       <path id="DejaVuSans-6f" d="M 1959 3097 
Q 1497 3097 1228 2736 
Q 959 2375 959 1747 
Q 959 1119 1226 758 
Q 1494 397 1959 397 
Q 2419 397 2687 759 
Q 2956 1122 2956 1747 
Q 2956 2369 2687 2733 
Q 2419 3097 1959 3097 
z
M 1959 3584 
Q 2709 3584 3137 3096 
Q 3566 2609 3566 1747 
Q 3566 888 3137 398 
Q 2709 -91 1959 -91 
Q 1206 -91 779 398 
Q 353 888 353 1747 
Q 353 2609 779 3096 
Q 1206 3584 1959 3584 
z
" transform="scale(0.015625)"/>
       <path id="DejaVuSans-6e" d="M 3513 2113 
L 3513 0 
L 2938 0 
L 2938 2094 
Q 2938 2591 2744 2837 
Q 2550 3084 2163 3084 
Q 1697 3084 1428 2787 
Q 1159 2491 1159 1978 
L 1159 0 
L 581 0 
L 581 3500 
L 1159 3500 
L 1159 2956 
Q 1366 3272 1645 3428 
Q 1925 3584 2291 3584 
Q 2894 3584 3203 3211 
Q 3513 2838 3513 2113 
z
" transform="scale(0.015625)"/>
       <path id="DejaVuSans-73" d="M 2834 3397 
L 2834 2853 
Q 2591 2978 2328 3040 
Q 2066 3103 1784 3103 
Q 1356 3103 1142 2972 
Q 928 2841 928 2578 
Q 928 2378 1081 2264 
Q 1234 2150 1697 2047 
L 1894 2003 
Q 2506 1872 2764 1633 
Q 3022 1394 3022 966 
Q 3022 478 2636 193 
Q 2250 -91 1575 -91 
Q 1294 -91 989 -36 
Q 684 19 347 128 
L 347 722 
Q 666 556 975 473 
Q 1284 391 1588 391 
Q 1994 391 2212 530 
Q 2431 669 2431 922 
Q 2431 1156 2273 1281 
Q 2116 1406 1581 1522 
L 1381 1569 
Q 847 1681 609 1914 
Q 372 2147 372 2553 
Q 372 3047 722 3315 
Q 1072 3584 1716 3584 
Q 2034 3584 2315 3537 
Q 2597 3491 2834 3397 
z
" transform="scale(0.015625)"/>
       <path id="DejaVuSans-20" transform="scale(0.015625)"/>
       <path id="DejaVuSans-28" d="M 1984 4856 
Q 1566 4138 1362 3434 
Q 1159 2731 1159 2009 
Q 1159 1288 1364 580 
Q 1569 -128 1984 -844 
L 1484 -844 
Q 1016 -109 783 600 
Q 550 1309 550 2009 
Q 550 2706 781 3412 
Q 1013 4119 1484 4856 
L 1984 4856 
z
" transform="scale(0.015625)"/>
       <path id="DejaVuSans-78" d="M 3513 3500 
L 2247 1797 
L 3578 0 
L 2900 0 
L 1881 1375 
L 863 0 
L 184 0 
L 1544 1831 
L 300 3500 
L 978 3500 
L 1906 2253 
L 2834 3500 
L 3513 3500 
z
" transform="scale(0.015625)"/>
       <path id="DejaVuSans-29" d="M 513 4856 
L 1013 4856 
Q 1481 4119 1714 3412 
Q 1947 2706 1947 2009 
Q 1947 1309 1714 600 
Q 1481 -109 1013 -844 
L 513 -844 
Q 928 -128 1133 580 
Q 1338 1288 1338 2009 
Q 1338 2731 1133 3434 
Q 928 4138 513 4856 
z
" transform="scale(0.015625)"/>
      </defs>
      <use xlink:href="#DejaVuSans-49"/>
      <use xlink:href="#DejaVuSans-74" transform="translate(29.492188 0)"/>
      <use xlink:href="#DejaVuSans-65" transform="translate(68.701172 0)"/>
      <use xlink:href="#DejaVuSans-72" transform="translate(130.224609 0)"/>
      <use xlink:href="#DejaVuSans-61" transform="translate(171.337891 0)"/>
      <use xlink:href="#DejaVuSans-63" transform="translate(232.617188 0)"/>
      <use xlink:href="#DejaVuSans-69" transform="translate(287.597656 0)"/>
      <use xlink:href="#DejaVuSans-6f" transform="translate(315.380859 0)"/>
      <use xlink:href="#DejaVuSans-6e" transform="translate(376.5625 0)"/>
      <use xlink:href="#DejaVuSans-65" transform="translate(439.941406 0)"/>
      <use xlink:href="#DejaVuSans-73" transform="translate(501.464844 0)"/>
      <use xlink:href="#DejaVuSans-20" transform="translate(553.564453 0)"/>
      <use xlink:href="#DejaVuSans-28" transform="translate(585.351562 0)"/>
      <use xlink:href="#DejaVuSans-78" transform="translate(624.365234 0)"/>
      <use xlink:href="#DejaVuSans-31" transform="translate(683.544922 0)"/>
      <use xlink:href="#DejaVuSans-30" transform="translate(747.167969 0)"/>
      <use xlink:href="#DejaVuSans-29" transform="translate(810.791016 0)"/>
     </g>
    </g>
   </g>
   <g id="matplotlib.axis_2">
    <g id="ytick_1">
     <g id="line2d_11">
      <path d="M 45.716875 849.175994 
L 1137.261875 849.175994 
" clip-path="url(#p8cc36053f9)" style="fill: none; stroke: #b0b0b0; stroke-opacity: 0.3; stroke-width: 0.8; stroke-linecap: square"/>
     </g>
     <g id="line2d_12">
      <defs>
       <path id="me4543ec690" d="M 0 0 
L -3.5 0 
" style="stroke: #000000; stroke-width: 0.8"/>
      </defs>
      <g>
       <use xlink:href="#me4543ec690" x="45.716875" y="849.175994" style="stroke: #000000; stroke-width: 0.8"/>
      </g>
     </g>
     <g id="text_7">
      <!-- 0.0 -->
      <g transform="translate(22.81375 852.975213) scale(0.1 -0.1)">
       <defs>
        <path id="DejaVuSans-2e" d="M 684 794 
L 1344 794 
L 1344 0 
L 684 0 
L 684 794 
z
" transform="scale(0.015625)"/>
       </defs>
       <use xlink:href="#DejaVuSans-30"/>
       <use xlink:href="#DejaVuSans-2e" transform="translate(63.623047 0)"/>
       <use xlink:href="#DejaVuSans-30" transform="translate(95.410156 0)"/>
      </g>
     </g>
    </g>
    <g id="ytick_2">
     <g id="line2d_13">
      <path d="M 45.716875 691.968722 
L 1137.261875 691.968722 
" clip-path="url(#p8cc36053f9)" style="fill: none; stroke: #b0b0b0; stroke-opacity: 0.3; stroke-width: 0.8; stroke-linecap: square"/>
     </g>
     <g id="line2d_14">
      <g>
       <use xlink:href="#me4543ec690" x="45.716875" y="691.968722" style="stroke: #000000; stroke-width: 0.8"/>
      </g>
     </g>
     <g id="text_8">
      <!-- 0.2 -->
      <g transform="translate(22.81375 695.76794) scale(0.1 -0.1)">
       <use xlink:href="#DejaVuSans-30"/>
       <use xlink:href="#DejaVuSans-2e" transform="translate(63.623047 0)"/>
       <use xlink:href="#DejaVuSans-32" transform="translate(95.410156 0)"/>
      </g>
     </g>
    </g>
    <g id="ytick_3">
     <g id="line2d_15">
      <path d="M 45.716875 534.761449 
L 1137.261875 534.761449 
" clip-path="url(#p8cc36053f9)" style="fill: none; stroke: #b0b0b0; stroke-opacity: 0.3; stroke-width: 0.8; stroke-linecap: square"/>
     </g>
     <g id="line2d_16">
      <g>
       <use xlink:href="#me4543ec690" x="45.716875" y="534.761449" style="stroke: #000000; stroke-width: 0.8"/>
      </g>
     </g>
     <g id="text_9">
      <!-- 0.4 -->
      <g transform="translate(22.81375 538.560668) scale(0.1 -0.1)">
       <use xlink:href="#DejaVuSans-30"/>
       <use xlink:href="#DejaVuSans-2e" transform="translate(63.623047 0)"/>
       <use xlink:href="#DejaVuSans-34" transform="translate(95.410156 0)"/>
      </g>
     </g>
    </g>
    <g id="ytick_4">
     <g id="line2d_17">
      <path d="M 45.716875 377.554176 
L 1137.261875 377.554176 
" clip-path="url(#p8cc36053f9)" style="fill: none; stroke: #b0b0b0; stroke-opacity: 0.3; stroke-width: 0.8; stroke-linecap: square"/>
     </g>
     <g id="line2d_18">
      <g>
       <use xlink:href="#me4543ec690" x="45.716875" y="377.554176" style="stroke: #000000; stroke-width: 0.8"/>
      </g>
     </g>
     <g id="text_10">
      <!-- 0.6 -->
      <g transform="translate(22.81375 381.353395) scale(0.1 -0.1)">
       <defs>
        <path id="DejaVuSans-36" d="M 2113 2584 
Q 1688 2584 1439 2293 
Q 1191 2003 1191 1497 
Q 1191 994 1439 701 
Q 1688 409 2113 409 
Q 2538 409 2786 701 
Q 3034 994 3034 1497 
Q 3034 2003 2786 2293 
Q 2538 2584 2113 2584 
z
M 3366 4563 
L 3366 3988 
Q 3128 4100 2886 4159 
Q 2644 4219 2406 4219 
Q 1781 4219 1451 3797 
Q 1122 3375 1075 2522 
Q 1259 2794 1537 2939 
Q 1816 3084 2150 3084 
Q 2853 3084 3261 2657 
Q 3669 2231 3669 1497 
Q 3669 778 3244 343 
Q 2819 -91 2113 -91 
Q 1303 -91 875 529 
Q 447 1150 447 2328 
Q 447 3434 972 4092 
Q 1497 4750 2381 4750 
Q 2619 4750 2861 4703 
Q 3103 4656 3366 4563 
z
" transform="scale(0.015625)"/>
       </defs>
       <use xlink:href="#DejaVuSans-30"/>
       <use xlink:href="#DejaVuSans-2e" transform="translate(63.623047 0)"/>
       <use xlink:href="#DejaVuSans-36" transform="translate(95.410156 0)"/>
      </g>
     </g>
    </g>
    <g id="ytick_5">
     <g id="line2d_19">
      <path d="M 45.716875 220.346903 
L 1137.261875 220.346903 
" clip-path="url(#p8cc36053f9)" style="fill: none; stroke: #b0b0b0; stroke-opacity: 0.3; stroke-width: 0.8; stroke-linecap: square"/>
     </g>
     <g id="line2d_20">
      <g>
       <use xlink:href="#me4543ec690" x="45.716875" y="220.346903" style="stroke: #000000; stroke-width: 0.8"/>
      </g>
     </g>
     <g id="text_11">
      <!-- 0.8 -->
      <g transform="translate(22.81375 224.146122) scale(0.1 -0.1)">
       <defs>
        <path id="DejaVuSans-38" d="M 2034 2216 
Q 1584 2216 1326 1975 
Q 1069 1734 1069 1313 
Q 1069 891 1326 650 
Q 1584 409 2034 409 
Q 2484 409 2743 651 
Q 3003 894 3003 1313 
Q 3003 1734 2745 1975 
Q 2488 2216 2034 2216 
z
M 1403 2484 
Q 997 2584 770 2862 
Q 544 3141 544 3541 
Q 544 4100 942 4425 
Q 1341 4750 2034 4750 
Q 2731 4750 3128 4425 
Q 3525 4100 3525 3541 
Q 3525 3141 3298 2862 
Q 3072 2584 2669 2484 
Q 3125 2378 3379 2068 
Q 3634 1759 3634 1313 
Q 3634 634 3220 271 
Q 2806 -91 2034 -91 
Q 1263 -91 848 271 
Q 434 634 434 1313 
Q 434 1759 690 2068 
Q 947 2378 1403 2484 
z
M 1172 3481 
Q 1172 3119 1398 2916 
Q 1625 2713 2034 2713 
Q 2441 2713 2670 2916 
Q 2900 3119 2900 3481 
Q 2900 3844 2670 4047 
Q 2441 4250 2034 4250 
Q 1625 4250 1398 4047 
Q 1172 3844 1172 3481 
z
" transform="scale(0.015625)"/>
       </defs>
       <use xlink:href="#DejaVuSans-30"/>
       <use xlink:href="#DejaVuSans-2e" transform="translate(63.623047 0)"/>
       <use xlink:href="#DejaVuSans-38" transform="translate(95.410156 0)"/>
      </g>
     </g>
    </g>
    <g id="ytick_6">
     <g id="line2d_21">
      <path d="M 45.716875 63.139631 
L 1137.261875 63.139631 
" clip-path="url(#p8cc36053f9)" style="fill: none; stroke: #b0b0b0; stroke-opacity: 0.3; stroke-width: 0.8; stroke-linecap: square"/>
     </g>
     <g id="line2d_22">
      <g>
       <use xlink:href="#me4543ec690" x="45.716875" y="63.139631" style="stroke: #000000; stroke-width: 0.8"/>
      </g>
     </g>
     <g id="text_12">
      <!-- 1.0 -->
      <g transform="translate(22.81375 66.938849) scale(0.1 -0.1)">
       <use xlink:href="#DejaVuSans-31"/>
       <use xlink:href="#DejaVuSans-2e" transform="translate(63.623047 0)"/>
       <use xlink:href="#DejaVuSans-30" transform="translate(95.410156 0)"/>
      </g>
     </g>
    </g>
    <g id="text_13">
     <!-- Probabilidad -->
     <g transform="translate(16.318125 493.264063) rotate(-90) scale(0.12 -0.12)">
      <defs>
       <path id="DejaVuSans-50" d="M 1259 4147 
L 1259 2394 
L 2053 2394 
Q 2494 2394 2734 2622 
Q 2975 2850 2975 3272 
Q 2975 3691 2734 3919 
Q 2494 4147 2053 4147 
L 1259 4147 
z
M 628 4666 
L 2053 4666 
Q 2838 4666 3239 4311 
Q 3641 3956 3641 3272 
Q 3641 2581 3239 2228 
Q 2838 1875 2053 1875 
L 1259 1875 
L 1259 0 
L 628 0 
L 628 4666 
z
" transform="scale(0.015625)"/>
       <path id="DejaVuSans-62" d="M 3116 1747 
Q 3116 2381 2855 2742 
Q 2594 3103 2138 3103 
Q 1681 3103 1420 2742 
Q 1159 2381 1159 1747 
Q 1159 1113 1420 752 
Q 1681 391 2138 391 
Q 2594 391 2855 752 
Q 3116 1113 3116 1747 
z
M 1159 2969 
Q 1341 3281 1617 3432 
Q 1894 3584 2278 3584 
Q 2916 3584 3314 3078 
Q 3713 2572 3713 1747 
Q 3713 922 3314 415 
Q 2916 -91 2278 -91 
Q 1894 -91 1617 61 
Q 1341 213 1159 525 
L 1159 0 
L 581 0 
L 581 4863 
L 1159 4863 
L 1159 2969 
z
" transform="scale(0.015625)"/>
       <path id="DejaVuSans-6c" d="M 603 4863 
L 1178 4863 
L 1178 0 
L 603 0 
L 603 4863 
z
" transform="scale(0.015625)"/>
       <path id="DejaVuSans-64" d="M 2906 2969 
L 2906 4863 
L 3481 4863 
L 3481 0 
L 2906 0 
L 2906 525 
Q 2725 213 2448 61 
Q 2172 -91 1784 -91 
Q 1150 -91 751 415 
Q 353 922 353 1747 
Q 353 2572 751 3078 
Q 1150 3584 1784 3584 
Q 2172 3584 2448 3432 
Q 2725 3281 2906 2969 
z
M 947 1747 
Q 947 1113 1208 752 
Q 1469 391 1925 391 
Q 2381 391 2643 752 
Q 2906 1113 2906 1747 
Q 2906 2381 2643 2742 
Q 2381 3103 1925 3103 
Q 1469 3103 1208 2742 
Q 947 2381 947 1747 
z
" transform="scale(0.015625)"/>
      </defs>
      <use xlink:href="#DejaVuSans-50"/>
      <use xlink:href="#DejaVuSans-72" transform="translate(58.552734 0)"/>
      <use xlink:href="#DejaVuSans-6f" transform="translate(97.416016 0)"/>
      <use xlink:href="#DejaVuSans-62" transform="translate(158.597656 0)"/>
      <use xlink:href="#DejaVuSans-61" transform="translate(222.074219 0)"/>
      <use xlink:href="#DejaVuSans-62" transform="translate(283.353516 0)"/>
      <use xlink:href="#DejaVuSans-69" transform="translate(346.830078 0)"/>
      <use xlink:href="#DejaVuSans-6c" transform="translate(374.613281 0)"/>
      <use xlink:href="#DejaVuSans-69" transform="translate(402.396484 0)"/>
      <use xlink:href="#DejaVuSans-64" transform="translate(430.179688 0)"/>
      <use xlink:href="#DejaVuSans-61" transform="translate(493.65625 0)"/>
      <use xlink:href="#DejaVuSans-64" transform="translate(554.935547 0)"/>
     </g>
    </g>
   </g>
   <g id="line2d_23">
    <path d="M 95.332557 651.232664 
L 102.113743 657.583725 
L 106.634534 663.023327 
L 108.89493 669.886404 
L 111.155326 680.46043 
L 113.415721 695.19 
L 115.676117 697.069749 
L 117.936512 697.841416 
L 120.196908 699.089889 
L 122.457303 706.451207 
L 124.717699 712.082396 
L 126.978094 722.236738 
L 129.23849 738.044266 
L 131.498885 786.895122 
L 133.759281 825.837865 
L 136.019676 828.993305 
L 138.280072 839.4838 
L 140.540467 834.506331 
L 142.800863 827.819676 
L 145.061258 831.232785 
L 147.321654 830.652616 
L 149.582049 834.705339 
L 151.842445 830.575085 
L 154.102841 820.650353 
L 156.363236 837.06033 
L 158.623632 829.180652 
L 160.884027 823.830841 
L 163.144423 834.637326 
L 165.404818 823.144483 
L 167.665214 837.7107 
L 169.925609 826.880426 
L 172.186005 829.796702 
L 174.4464 828.853287 
L 176.706796 838.651397 
L 178.967191 839.116427 
L 181.227587 832.748353 
L 183.487982 828.541362 
L 185.748378 845.697537 
L 188.008773 844.825922 
L 190.269169 842.14528 
L 192.529564 839.254189 
L 194.78996 841.788978 
L 197.050356 845.119532 
L 199.310751 843.540501 
L 201.571147 848.555628 
L 203.831542 834.428219 
L 206.091938 841.290704 
L 208.352333 830.70288 
L 210.612729 846.416154 
L 212.873124 833.997776 
L 215.13352 843.012662 
L 217.393915 846.243214 
L 219.654311 841.876527 
L 221.914706 840.875847 
L 224.175102 807.388594 
L 226.435497 827.904434 
L 228.695893 828.35904 
L 230.956288 835.363411 
L 233.216684 839.561306 
L 235.477079 830.872803 
L 237.737475 820.449308 
L 239.997871 773.337615 
L 242.258266 793.983027 
L 244.518662 817.488278 
L 246.779057 843.508242 
L 249.039453 836.62433 
L 251.299848 836.736681 
L 253.560244 837.637115 
L 255.820639 848.21439 
L 258.081035 837.474494 
L 260.34143 836.79917 
L 262.601826 844.714731 
L 264.862221 848.162028 
L 267.122617 827.232708 
L 269.383012 847.581893 
L 271.643408 831.481853 
L 273.903803 846.439807 
L 276.164199 848.00416 
L 278.424595 834.814869 
L 280.68499 835.199569 
L 282.945386 835.247719 
L 285.205781 843.97064 
L 287.466177 839.161078 
L 289.726572 845.566494 
L 291.986968 834.406597 
L 294.247363 831.996647 
L 296.507759 832.234009 
L 301.02855 843.397119 
L 303.288945 836.005741 
L 307.809736 833.998643 
L 310.070132 830.075825 
L 312.330527 823.994394 
L 314.590923 839.3211 
L 316.851318 841.956451 
L 319.111714 843.290679 
L 321.37211 848.45155 
L 323.632505 847.982759 
L 325.892901 848.310966 
L 328.153296 839.373646 
L 330.413692 835.492777 
L 332.674087 845.2259 
L 334.934483 845.471162 
L 337.194878 849.109214 
L 339.455274 848.681372 
L 341.715669 838.227058 
L 343.976065 848.159597 
L 346.23646 846.254948 
L 348.496856 848.227821 
L 350.757251 846.828555 
L 353.017647 846.213611 
L 355.278042 848.266492 
L 357.538438 840.843937 
L 359.798833 844.877154 
L 362.059229 845.225721 
L 364.319625 846.949491 
L 366.58002 846.445242 
L 368.840416 838.852153 
L 371.100811 844.19213 
L 373.361207 848.690653 
L 375.621602 848.145013 
L 377.881998 848.558623 
L 380.142393 848.673997 
L 382.402789 846.787219 
L 384.663184 849.01923 
L 386.92358 848.792313 
L 389.183975 846.641915 
L 391.444371 848.601612 
L 393.704766 843.617283 
L 395.965162 847.825797 
L 398.225557 847.127261 
L 400.485953 847.206516 
L 402.746348 846.988196 
L 405.006744 848.624064 
L 407.26714 848.187375 
L 409.527535 849.020155 
L 411.787931 840.985124 
L 414.048326 845.27431 
L 416.308722 846.952064 
L 418.569117 848.946201 
L 420.829513 835.471583 
L 423.089908 836.968575 
L 425.350304 836.684103 
L 427.610699 848.486075 
L 429.871095 833.74672 
L 432.13149 835.638889 
L 434.391886 847.843034 
L 436.652281 849.166035 
L 438.912677 849.169521 
L 441.173072 848.96795 
L 443.433468 848.971984 
L 445.693864 847.363046 
L 447.954259 849.175994 
L 450.214655 849.173254 
L 452.47505 848.922873 
L 454.735446 849.174475 
L 459.256237 849.175969 
L 461.516632 846.045668 
L 463.777028 849.175994 
L 477.339401 849.17598 
L 479.599796 837.155116 
L 481.860192 847.588537 
L 484.120587 849.175994 
L 486.380983 849.08322 
L 490.901774 849.175994 
L 493.16217 837.002554 
L 495.422565 849.175994 
L 497.682961 849.175994 
L 499.943356 839.64841 
L 502.203752 849.175989 
L 506.724543 849.175994 
L 508.984938 842.748758 
L 511.245334 849.149815 
L 518.02652 849.175989 
L 522.547311 849.175994 
L 524.807707 849.175994 
L 527.068102 840.221786 
L 529.328498 849.118207 
L 533.849289 849.154199 
L 545.151267 849.175994 
L 547.411662 836.958185 
L 549.672058 849.175994 
L 551.932453 830.695757 
L 554.192849 849.175994 
L 558.71364 849.175994 
L 560.974035 848.963538 
L 563.234431 849.175994 
L 565.494826 849.175994 
L 567.755222 842.465589 
L 570.015617 849.175994 
L 576.796804 849.166517 
L 579.0572 837.067609 
L 581.317595 849.171137 
L 601.661155 849.173855 
L 603.92155 841.520995 
L 606.181946 849.175795 
L 633.306692 849.174459 
L 635.567088 848.161732 
L 637.827483 832.920148 
L 640.087879 849.175994 
L 673.993812 849.175789 
L 676.254207 836.89703 
L 678.514603 849.175992 
L 689.81658 849.174026 
L 692.076976 836.909483 
L 694.337371 849.175994 
L 696.597767 849.175994 
L 698.858163 836.902703 
L 701.118558 849.175994 
L 705.639349 849.175994 
L 707.899745 841.143858 
L 710.16014 849.086726 
L 714.680931 849.175994 
L 773.451215 849.175994 
L 775.71161 836.896232 
L 777.972006 849.175994 
L 780.232402 836.897721 
L 782.492797 849.175994 
L 809.617543 849.175994 
L 811.877939 848.995848 
L 814.138334 849.175994 
L 872.908618 849.175994 
L 875.169014 839.377506 
L 877.429409 849.175994 
L 1087.646193 849.175994 
L 1087.646193 849.175994 
" clip-path="url(#p8cc36053f9)" style="fill: none; stroke-dasharray: 9.25,4; stroke-dashoffset: 0; stroke: #000000; stroke-width: 2.5"/>
   </g>
   <g id="line2d_24">
    <path d="M 95.332557 651.546686 
L 102.113743 650.046597 
L 104.374139 649.185164 
L 106.634534 649.229602 
L 108.89493 646.642514 
L 111.155326 641.542596 
L 113.415721 637.332317 
L 115.676117 636.935696 
L 117.936512 637.160911 
L 120.196908 636.763049 
L 122.457303 635.397424 
L 124.717699 636.025303 
L 126.978094 627.05677 
L 129.23849 610.628789 
L 131.498885 585.758252 
L 133.759281 600.844784 
L 136.019676 618.141063 
L 138.280072 531.855485 
L 140.540467 560.649968 
L 142.800863 621.110646 
L 145.061258 618.752286 
L 147.321654 604.094469 
L 149.582049 531.38751 
L 151.842445 512.372182 
L 154.102841 616.7001 
L 156.363236 681.569379 
L 158.623632 664.986835 
L 160.884027 595.456683 
L 163.144423 500.574222 
L 165.404818 570.854348 
L 167.665214 646.096179 
L 169.925609 696.511444 
L 172.186005 700.073897 
L 174.4464 660.036503 
L 176.706796 566.187923 
L 178.967191 533.646521 
L 181.227587 631.161962 
L 183.487982 641.309885 
L 185.748378 585.277979 
L 188.008773 594.191765 
L 190.269169 579.340733 
L 192.529564 638.21139 
L 194.78996 660.354729 
L 197.050356 644.905919 
L 199.310751 636.049408 
L 201.571147 625.094282 
L 203.831542 575.624291 
L 206.091938 530.60406 
L 208.352333 558.263545 
L 210.612729 614.17762 
L 212.873124 617.112276 
L 215.13352 663.939238 
L 217.393915 648.425796 
L 219.654311 596.771522 
L 221.914706 562.425895 
L 224.175102 599.378194 
L 226.435497 621.571781 
L 228.695893 593.857504 
L 230.956288 597.706934 
L 233.216684 656.652226 
L 235.477079 628.975031 
L 237.737475 580.231167 
L 239.997871 596.21837 
L 242.258266 592.526572 
L 244.518662 592.57422 
L 246.779057 555.574554 
L 249.039453 521.844766 
L 251.299848 565.943757 
L 253.560244 622.02809 
L 255.820639 636.609775 
L 258.081035 595.909877 
L 260.34143 608.244474 
L 262.601826 600.905597 
L 264.862221 614.835929 
L 267.122617 596.846882 
L 269.383012 523.868068 
L 271.643408 564.927643 
L 273.903803 665.321214 
L 276.164199 695.882078 
L 278.424595 627.918298 
L 280.68499 590.582309 
L 282.945386 565.029709 
L 285.205781 532.876471 
L 287.466177 592.230003 
L 289.726572 621.304681 
L 291.986968 617.529605 
L 294.247363 642.008299 
L 296.507759 614.667452 
L 298.768154 594.043973 
L 301.02855 600.340288 
L 303.288945 597.810592 
L 305.549341 595.499693 
L 307.809736 593.392691 
L 310.070132 614.945983 
L 312.330527 668.435884 
L 314.590923 664.115727 
L 316.851318 640.290914 
L 319.111714 605.841956 
L 321.37211 583.408185 
L 323.632505 615.487867 
L 325.892901 642.500005 
L 328.153296 637.756744 
L 330.413692 559.308472 
L 332.674087 583.409521 
L 334.934483 603.870097 
L 337.194878 619.155232 
L 339.455274 595.128583 
L 341.715669 625.02616 
L 343.976065 590.008988 
L 346.23646 525.671683 
L 348.496856 576.392912 
L 350.757251 617.337092 
L 353.017647 619.468785 
L 355.278042 564.452359 
L 357.538438 583.258776 
L 359.798833 634.442217 
L 362.059229 603.674375 
L 364.319625 600.250427 
L 366.58002 653.357435 
L 368.840416 696.400852 
L 371.100811 626.101681 
L 373.361207 563.184044 
L 375.621602 534.377895 
L 377.881998 581.328381 
L 380.142393 574.161097 
L 382.402789 583.859294 
L 384.663184 568.447965 
L 386.92358 654.44844 
L 389.183975 651.210878 
L 391.444371 587.936141 
L 393.704766 533.539231 
L 395.965162 589.175829 
L 398.225557 634.703976 
L 400.485953 631.303266 
L 402.746348 592.784372 
L 405.006744 541.87021 
L 407.26714 556.911951 
L 409.527535 526.880895 
L 411.787931 553.501613 
L 414.048326 610.68473 
L 416.308722 664.235046 
L 418.569117 696.310124 
L 420.829513 684.874583 
L 423.089908 631.574442 
L 425.350304 610.375909 
L 427.610699 644.803479 
L 429.871095 706.575785 
L 432.13149 764.537888 
L 434.391886 791.513693 
L 436.652281 803.908412 
L 438.912677 796.406276 
L 441.173072 804.113445 
L 443.433468 818.167702 
L 445.693864 823.693016 
L 447.954259 839.432545 
L 450.214655 838.70968 
L 452.47505 828.8158 
L 454.735446 841.818327 
L 456.995841 847.230071 
L 459.256237 848.436443 
L 461.516632 849.043721 
L 463.777028 848.925953 
L 466.037423 849.02579 
L 468.297819 848.747258 
L 470.558214 847.718972 
L 472.81861 848.743574 
L 475.079005 847.867438 
L 477.339401 848.832048 
L 479.599796 849.040248 
L 481.860192 848.921876 
L 484.120587 848.984641 
L 486.380983 848.265813 
L 488.641379 848.827496 
L 490.901774 849.116185 
L 493.16217 849.138489 
L 495.422565 848.662 
L 497.682961 849.019169 
L 499.943356 849.164382 
L 511.245334 849.082288 
L 513.505729 848.770271 
L 518.02652 848.704886 
L 520.286916 849.09959 
L 524.807707 848.989495 
L 527.068102 849.140209 
L 531.588894 849.143727 
L 533.849289 848.943257 
L 536.109685 847.954102 
L 538.37008 849.086862 
L 540.630476 848.94359 
L 542.890871 849.147927 
L 545.151267 848.540088 
L 547.411662 848.973601 
L 549.672058 848.938692 
L 551.932453 848.303256 
L 554.192849 849.170741 
L 556.453244 849.056615 
L 558.71364 849.175231 
L 563.234431 849.073141 
L 565.494826 848.982554 
L 572.276013 849.161537 
L 574.536409 848.415261 
L 576.796804 848.065466 
L 579.0572 846.356616 
L 581.317595 849.175184 
L 588.098782 849.174912 
L 590.359177 848.81077 
L 592.619573 849.175614 
L 721.462118 849.174939 
L 723.722513 848.63671 
L 725.982909 849.174354 
L 762.149237 849.151062 
L 764.409633 849.06897 
L 768.930424 849.175966 
L 884.210596 849.175092 
L 886.470991 836.177836 
L 888.731387 849.175993 
L 1087.646193 849.175952 
L 1087.646193 849.175952 
" clip-path="url(#p8cc36053f9)" style="fill: none; stroke: #1f77b4; stroke-width: 2; stroke-linecap: square"/>
   </g>
   <g id="line2d_25">
    <path d="M 95.332557 658.075677 
L 97.592952 657.146508 
L 99.853348 657.122801 
L 102.113743 655.661611 
L 104.374139 655.206988 
L 106.634534 657.267396 
L 108.89493 658.712259 
L 111.155326 662.927493 
L 113.415721 663.691698 
L 115.676117 657.859329 
L 117.936512 652.814989 
L 120.196908 650.065291 
L 122.457303 642.66703 
L 124.717699 635.963014 
L 126.978094 631.75229 
L 129.23849 635.541094 
L 131.498885 624.082244 
L 133.759281 611.002312 
L 136.019676 619.320922 
L 138.280072 642.618609 
L 140.540467 572.330566 
L 142.800863 557.82375 
L 145.061258 570.283838 
L 147.321654 653.812538 
L 149.582049 684.317625 
L 151.842445 665.120947 
L 154.102841 605.75254 
L 156.363236 573.441085 
L 158.623632 558.120109 
L 160.884027 631.952088 
L 163.144423 662.319467 
L 165.404818 627.326471 
L 167.665214 576.062726 
L 169.925609 517.135683 
L 172.186005 465.47082 
L 174.4464 598.798314 
L 176.706796 630.831636 
L 178.967191 642.45484 
L 181.227587 574.941502 
L 183.487982 544.066042 
L 185.748378 542.338256 
L 188.008773 521.930317 
L 190.269169 570.667364 
L 192.529564 596.866232 
L 194.78996 570.085188 
L 197.050356 557.35212 
L 199.310751 579.789616 
L 201.571147 594.984234 
L 203.831542 592.878075 
L 206.091938 570.762847 
L 208.352333 593.061124 
L 210.612729 600.384235 
L 212.873124 600.456151 
L 215.13352 500.917901 
L 217.393915 550.271325 
L 219.654311 569.146871 
L 221.914706 612.8878 
L 224.175102 618.976377 
L 226.435497 601.414872 
L 228.695893 596.883379 
L 230.956288 585.511884 
L 233.216684 578.788401 
L 235.477079 557.026573 
L 237.737475 601.17593 
L 239.997871 623.585924 
L 242.258266 617.823363 
L 244.518662 604.910784 
L 246.779057 626.332119 
L 249.039453 637.635001 
L 251.299848 656.515173 
L 253.560244 635.811778 
L 255.820639 541.615432 
L 258.081035 556.837177 
L 260.34143 558.189707 
L 262.601826 554.573761 
L 264.862221 595.938175 
L 267.122617 610.207782 
L 269.383012 602.063225 
L 271.643408 589.113236 
L 273.903803 483.935667 
L 276.164199 520.800987 
L 278.424595 612.967635 
L 280.68499 602.402359 
L 282.945386 604.831137 
L 285.205781 596.177422 
L 287.466177 567.880665 
L 289.726572 586.59544 
L 291.986968 580.268438 
L 294.247363 584.888315 
L 296.507759 592.983186 
L 298.768154 605.042694 
L 301.02855 610.580087 
L 303.288945 590.77611 
L 305.549341 562.262735 
L 307.809736 565.62744 
L 310.070132 568.141604 
L 312.330527 554.038203 
L 314.590923 566.232877 
L 316.851318 591.594768 
L 319.111714 564.622875 
L 321.37211 515.427246 
L 323.632505 547.383614 
L 325.892901 545.259559 
L 328.153296 567.601829 
L 330.413692 593.581737 
L 332.674087 579.596588 
L 334.934483 558.557771 
L 337.194878 510.556526 
L 339.455274 568.46933 
L 341.715669 549.966088 
L 343.976065 557.936639 
L 346.23646 608.103662 
L 348.496856 611.833222 
L 350.757251 588.674425 
L 353.017647 578.968592 
L 355.278042 565.262608 
L 357.538438 572.474025 
L 359.798833 572.425791 
L 362.059229 607.578785 
L 364.319625 615.265463 
L 366.58002 564.086637 
L 368.840416 521.969836 
L 371.100811 541.124593 
L 373.361207 598.055297 
L 375.621602 621.421224 
L 377.881998 623.985215 
L 380.142393 561.898629 
L 382.402789 530.233044 
L 384.663184 566.437805 
L 386.92358 531.030338 
L 389.183975 509.591035 
L 391.444371 561.664372 
L 393.704766 597.810077 
L 395.965162 596.280167 
L 398.225557 540.714503 
L 400.485953 505.259083 
L 402.746348 511.160113 
L 405.006744 570.287938 
L 407.26714 528.339099 
L 409.527535 556.184091 
L 411.787931 562.856576 
L 414.048326 567.282583 
L 416.308722 555.554502 
L 418.569117 501.76303 
L 420.829513 480.572742 
L 423.089908 465.644545 
L 425.350304 500.816303 
L 429.871095 380.066705 
L 432.13149 330.76224 
L 434.391886 310.364398 
L 436.652281 262.066302 
L 438.912677 250.297225 
L 441.173072 173.404818 
L 443.433468 133.167977 
L 445.693864 113.726325 
L 447.954259 77.370234 
L 450.214655 77.515801 
L 452.47505 99.480495 
L 454.735446 83.156571 
L 456.995841 94.338927 
L 459.256237 82.279981 
L 461.516632 67.527453 
L 463.777028 65.606264 
L 466.037423 64.286835 
L 468.297819 64.066024 
L 470.558214 64.636299 
L 472.81861 63.58247 
L 475.079005 64.451752 
L 477.339401 63.48516 
L 479.599796 75.302071 
L 481.860192 64.99996 
L 484.120587 63.410479 
L 486.380983 64.179685 
L 488.641379 63.52653 
L 490.901774 63.392441 
L 493.16217 75.862321 
L 495.422565 64.518468 
L 497.682961 63.666897 
L 499.943356 73.07274 
L 502.203752 63.702691 
L 504.464147 63.506852 
L 506.724543 63.679921 
L 508.984938 69.648464 
L 511.245334 63.262944 
L 513.505729 63.546582 
L 518.02652 63.610815 
L 520.286916 63.254791 
L 524.807707 63.326193 
L 527.068102 72.129668 
L 529.328498 63.221152 
L 531.588894 63.172192 
L 533.849289 63.394174 
L 536.109685 64.369949 
L 538.37008 63.228742 
L 540.630476 63.372014 
L 542.890871 63.171536 
L 545.151267 63.775545 
L 547.411662 75.559801 
L 549.672058 63.376933 
L 551.932453 82.492593 
L 554.192849 63.144878 
L 556.453244 63.259008 
L 558.71364 63.14038 
L 560.974035 63.356131 
L 563.234431 63.242423 
L 565.494826 63.333033 
L 567.755222 69.998069 
L 570.015617 63.149657 
L 572.276013 63.154061 
L 574.536409 63.90031 
L 576.796804 64.259661 
L 579.0572 78.06743 
L 581.317595 63.145347 
L 588.098782 63.140661 
L 590.359177 63.504837 
L 592.619573 63.165212 
L 599.400759 63.18517 
L 601.661155 63.210048 
L 603.92155 70.892884 
L 606.181946 63.147595 
L 633.306692 63.152843 
L 635.567088 64.154948 
L 637.827483 79.395574 
L 640.087879 63.139631 
L 673.993812 63.23071 
L 676.254207 75.426977 
L 678.514603 63.139818 
L 689.81658 63.178377 
L 692.076976 75.406175 
L 694.337371 63.139631 
L 696.597767 63.139631 
L 698.858163 75.412922 
L 701.118558 63.139631 
L 705.639349 63.139678 
L 707.899745 71.171838 
L 710.16014 63.278592 
L 712.420536 63.14441 
L 721.462118 63.141317 
L 723.722513 63.678891 
L 725.982909 63.14127 
L 762.149237 63.164556 
L 764.409633 63.246639 
L 768.930424 63.139631 
L 773.451215 63.140052 
L 775.71161 75.428102 
L 777.972006 63.143941 
L 780.232402 75.419059 
L 782.492797 63.139678 
L 809.617543 63.139631 
L 811.877939 63.319774 
L 814.138334 63.139631 
L 872.908618 63.14113 
L 875.169014 72.96353 
L 877.429409 63.139818 
L 884.210596 63.140521 
L 886.470991 76.137807 
L 888.731387 63.139631 
L 1087.646193 63.139678 
L 1087.646193 63.139678 
" clip-path="url(#p8cc36053f9)" style="fill: none; stroke: #ff7f0e; stroke-width: 2; stroke-linecap: square"/>
   </g>
   <g id="line2d_26">
    <path d="M 95.332557 649.812598 
L 97.592952 649.076726 
L 99.853348 647.473658 
L 102.113743 647.375715 
L 104.374139 645.90348 
L 106.634534 641.147311 
L 108.89493 635.426425 
L 111.155326 625.737083 
L 113.415721 614.453622 
L 115.676117 618.802839 
L 117.936512 622.850286 
L 120.196908 624.749361 
L 122.457303 626.151952 
L 124.717699 626.5969 
L 126.978094 629.621792 
L 129.23849 626.453488 
L 131.498885 613.932025 
L 133.759281 572.982667 
L 136.019676 544.212359 
L 138.280072 596.709748 
L 140.540467 643.18078 
L 142.800863 603.913528 
L 145.061258 590.398721 
L 147.321654 522.108024 
L 149.582049 560.257143 
L 151.842445 602.599393 
L 154.102841 567.564605 
L 156.363236 518.596815 
L 158.623632 558.380041 
L 160.884027 559.427966 
L 163.144423 613.136581 
L 165.404818 589.342363 
L 167.665214 550.798005 
L 169.925609 570.140098 
L 172.186005 615.326183 
L 174.4464 522.979531 
L 176.706796 574.996669 
L 178.967191 595.44982 
L 181.227587 571.815809 
L 183.487982 596.750298 
L 185.748378 637.353845 
L 188.008773 649.719598 
L 190.269169 618.514258 
L 192.529564 536.335839 
L 194.78996 538.438695 
L 197.050356 563.290046 
L 199.310751 551.288118 
L 201.571147 542.033464 
L 203.831542 607.737026 
L 206.091938 668.009982 
L 208.352333 628.640091 
L 210.612729 549.689641 
L 212.873124 559.101388 
L 215.13352 602.797809 
L 217.393915 565.72728 
L 219.654311 602.872677 
L 221.914706 594.478051 
L 224.175102 584.924485 
L 226.435497 559.776517 
L 228.695893 591.567641 
L 230.956288 592.085396 
L 233.216684 535.665653 
L 235.477079 593.793224 
L 237.737475 608.811188 
L 239.997871 617.525693 
L 244.518662 595.69429 
L 246.779057 585.252702 
L 249.039453 614.563488 
L 251.299848 551.47201 
L 253.560244 515.190623 
L 255.820639 584.228038 
L 258.081035 620.446059 
L 260.34143 607.434249 
L 262.601826 610.4735 
L 264.862221 551.73152 
L 267.122617 576.380238 
L 269.383012 637.154446 
L 271.643408 625.144905 
L 273.903803 614.970932 
L 276.164199 545.980368 
L 278.424595 534.966841 
L 280.68499 582.483385 
L 282.945386 605.559067 
L 285.205781 637.643059 
L 287.466177 611.395864 
L 289.726572 557.201001 
L 291.986968 578.462971 
L 294.247363 551.774389 
L 296.507759 570.782993 
L 298.768154 573.780149 
L 301.02855 556.350086 
L 303.288945 586.075179 
L 305.549341 617.851123 
L 307.809736 617.648842 
L 310.070132 597.504231 
L 312.330527 564.199104 
L 314.590923 540.997907 
L 316.851318 536.825483 
L 319.111714 596.912076 
L 321.37211 663.380651 
L 323.632505 599.81335 
L 325.892901 574.597073 
L 328.153296 565.935394 
L 330.413692 622.284649 
L 332.674087 602.4356 
L 334.934483 602.768597 
L 337.194878 631.846649 
L 339.455274 598.388341 
L 341.715669 597.448267 
L 343.976065 614.562387 
L 346.23646 630.637343 
L 348.496856 574.213688 
L 350.757251 557.827545 
L 353.017647 566.016611 
L 355.278042 632.686203 
L 357.538438 614.090898 
L 359.798833 558.922463 
L 362.059229 554.188783 
L 364.319625 548.202249 
L 366.58002 546.778294 
L 368.840416 553.444782 
L 371.100811 599.249212 
L 373.361207 600.737635 
L 375.621602 606.723513 
L 377.881998 556.795385 
L 380.142393 625.933906 
L 382.402789 649.788071 
L 384.663184 626.762614 
L 386.92358 576.396566 
L 389.183975 603.223782 
L 391.444371 612.465505 
L 393.704766 635.700998 
L 395.965162 577.38581 
L 398.225557 588.121813 
L 400.485953 626.898717 
L 402.746348 659.734932 
L 405.006744 649.885428 
L 407.26714 677.229205 
L 409.527535 678.582426 
L 411.787931 653.324299 
L 414.048326 587.426022 
L 416.308722 543.92598 
L 418.569117 563.648248 
L 420.829513 609.748685 
L 423.089908 676.48005 
L 425.350304 662.791307 
L 427.610699 678.14173 
L 429.871095 690.278355 
L 432.13149 679.728611 
L 434.391886 660.946451 
L 436.652281 695.526862 
L 438.912677 714.794648 
L 441.173072 784.181376 
L 443.433468 810.359957 
L 445.693864 825.885217 
L 447.954259 844.688844 
L 450.214655 845.268908 
L 452.47505 833.448497 
L 454.735446 836.518249 
L 456.995841 819.922648 
L 459.256237 830.775176 
L 461.516632 848.05079 
L 463.777028 846.959323 
L 466.037423 848.179072 
L 470.558214 849.136357 
L 479.599796 849.170173 
L 488.641379 849.137607 
L 490.901774 848.982985 
L 495.422565 848.311157 
L 497.682961 848.805575 
L 499.943356 848.782101 
L 502.203752 848.642625 
L 504.464147 848.853863 
L 506.724543 848.639804 
L 508.984938 849.096149 
L 513.505729 849.174739 
L 741.805678 849.175994 
L 1087.646193 849.175994 
L 1087.646193 849.175994 
" clip-path="url(#p8cc36053f9)" style="fill: none; stroke: #2ca02c; stroke-width: 2; stroke-linecap: square"/>
   </g>
   <g id="patch_3">
    <path d="M 45.716875 888.477813 
L 45.716875 23.837812 
" style="fill: none; stroke: #000000; stroke-width: 0.8; stroke-linejoin: miter; stroke-linecap: square"/>
   </g>
   <g id="patch_4">
    <path d="M 1137.261875 888.477813 
L 1137.261875 23.837812 
" style="fill: none; stroke: #000000; stroke-width: 0.8; stroke-linejoin: miter; stroke-linecap: square"/>
   </g>
   <g id="patch_5">
    <path d="M 45.716875 888.477813 
L 1137.261875 888.477813 
" style="fill: none; stroke: #000000; stroke-width: 0.8; stroke-linejoin: miter; stroke-linecap: square"/>
   </g>
   <g id="patch_6">
    <path d="M 45.716875 23.837812 
L 1137.261875 23.837812 
" style="fill: none; stroke: #000000; stroke-width: 0.8; stroke-linejoin: miter; stroke-linecap: square"/>
   </g>
   <g id="text_14">
    <!-- Link 0: Evolución de Probabilidades de Acción -->
    <g transform="translate(410.401562 17.837812) scale(0.14 -0.14)">
     <defs>
      <path id="DejaVuSans-Bold-4c" d="M 588 4666 
L 1791 4666 
L 1791 909 
L 3903 909 
L 3903 0 
L 588 0 
L 588 4666 
z
" transform="scale(0.015625)"/>
      <path id="DejaVuSans-Bold-69" d="M 538 3500 
L 1656 3500 
L 1656 0 
L 538 0 
L 538 3500 
z
M 538 4863 
L 1656 4863 
L 1656 3950 
L 538 3950 
L 538 4863 
z
" transform="scale(0.015625)"/>
      <path id="DejaVuSans-Bold-6e" d="M 4056 2131 
L 4056 0 
L 2931 0 
L 2931 347 
L 2931 1631 
Q 2931 2084 2911 2256 
Q 2891 2428 2841 2509 
Q 2775 2619 2662 2680 
Q 2550 2741 2406 2741 
Q 2056 2741 1856 2470 
Q 1656 2200 1656 1722 
L 1656 0 
L 538 0 
L 538 3500 
L 1656 3500 
L 1656 2988 
Q 1909 3294 2193 3439 
Q 2478 3584 2822 3584 
Q 3428 3584 3742 3212 
Q 4056 2841 4056 2131 
z
" transform="scale(0.015625)"/>
      <path id="DejaVuSans-Bold-6b" d="M 538 4863 
L 1656 4863 
L 1656 2216 
L 2944 3500 
L 4244 3500 
L 2534 1894 
L 4378 0 
L 3022 0 
L 1656 1459 
L 1656 0 
L 538 0 
L 538 4863 
z
" transform="scale(0.015625)"/>
      <path id="DejaVuSans-Bold-20" transform="scale(0.015625)"/>
      <path id="DejaVuSans-Bold-30" d="M 2944 2338 
Q 2944 3213 2780 3570 
Q 2616 3928 2228 3928 
Q 1841 3928 1675 3570 
Q 1509 3213 1509 2338 
Q 1509 1453 1675 1090 
Q 1841 728 2228 728 
Q 2613 728 2778 1090 
Q 2944 1453 2944 2338 
z
M 4147 2328 
Q 4147 1169 3647 539 
Q 3147 -91 2228 -91 
Q 1306 -91 806 539 
Q 306 1169 306 2328 
Q 306 3491 806 4120 
Q 1306 4750 2228 4750 
Q 3147 4750 3647 4120 
Q 4147 3491 4147 2328 
z
" transform="scale(0.015625)"/>
      <path id="DejaVuSans-Bold-3a" d="M 716 3500 
L 1844 3500 
L 1844 2291 
L 716 2291 
L 716 3500 
z
M 716 1209 
L 1844 1209 
L 1844 0 
L 716 0 
L 716 1209 
z
" transform="scale(0.015625)"/>
      <path id="DejaVuSans-Bold-45" d="M 588 4666 
L 3834 4666 
L 3834 3756 
L 1791 3756 
L 1791 2888 
L 3713 2888 
L 3713 1978 
L 1791 1978 
L 1791 909 
L 3903 909 
L 3903 0 
L 588 0 
L 588 4666 
z
" transform="scale(0.015625)"/>
      <path id="DejaVuSans-Bold-76" d="M 97 3500 
L 1216 3500 
L 2088 1081 
L 2956 3500 
L 4078 3500 
L 2700 0 
L 1472 0 
L 97 3500 
z
" transform="scale(0.015625)"/>
      <path id="DejaVuSans-Bold-6f" d="M 2203 2784 
Q 1831 2784 1636 2517 
Q 1441 2250 1441 1747 
Q 1441 1244 1636 976 
Q 1831 709 2203 709 
Q 2569 709 2762 976 
Q 2956 1244 2956 1747 
Q 2956 2250 2762 2517 
Q 2569 2784 2203 2784 
z
M 2203 3584 
Q 3106 3584 3614 3096 
Q 4122 2609 4122 1747 
Q 4122 884 3614 396 
Q 3106 -91 2203 -91 
Q 1297 -91 786 396 
Q 275 884 275 1747 
Q 275 2609 786 3096 
Q 1297 3584 2203 3584 
z
" transform="scale(0.015625)"/>
      <path id="DejaVuSans-Bold-6c" d="M 538 4863 
L 1656 4863 
L 1656 0 
L 538 0 
L 538 4863 
z
" transform="scale(0.015625)"/>
      <path id="DejaVuSans-Bold-75" d="M 500 1363 
L 500 3500 
L 1625 3500 
L 1625 3150 
Q 1625 2866 1622 2436 
Q 1619 2006 1619 1863 
Q 1619 1441 1641 1255 
Q 1663 1069 1716 984 
Q 1784 875 1895 815 
Q 2006 756 2150 756 
Q 2500 756 2700 1025 
Q 2900 1294 2900 1772 
L 2900 3500 
L 4019 3500 
L 4019 0 
L 2900 0 
L 2900 506 
Q 2647 200 2364 54 
Q 2081 -91 1741 -91 
Q 1134 -91 817 281 
Q 500 653 500 1363 
z
" transform="scale(0.015625)"/>
      <path id="DejaVuSans-Bold-63" d="M 3366 3391 
L 3366 2478 
Q 3138 2634 2908 2709 
Q 2678 2784 2431 2784 
Q 1963 2784 1702 2511 
Q 1441 2238 1441 1747 
Q 1441 1256 1702 982 
Q 1963 709 2431 709 
Q 2694 709 2930 787 
Q 3166 866 3366 1019 
L 3366 103 
Q 3103 6 2833 -42 
Q 2563 -91 2291 -91 
Q 1344 -91 809 395 
Q 275 881 275 1747 
Q 275 2613 809 3098 
Q 1344 3584 2291 3584 
Q 2566 3584 2833 3536 
Q 3100 3488 3366 3391 
z
" transform="scale(0.015625)"/>
      <path id="DejaVuSans-Bold-f3" d="M 2203 2784 
Q 1831 2784 1636 2517 
Q 1441 2250 1441 1747 
Q 1441 1244 1636 976 
Q 1831 709 2203 709 
Q 2569 709 2762 976 
Q 2956 1244 2956 1747 
Q 2956 2250 2762 2517 
Q 2569 2784 2203 2784 
z
M 2203 3584 
Q 3106 3584 3614 3096 
Q 4122 2609 4122 1747 
Q 4122 884 3614 396 
Q 3106 -91 2203 -91 
Q 1297 -91 786 396 
Q 275 884 275 1747 
Q 275 2609 786 3096 
Q 1297 3584 2203 3584 
z
M 2694 5119 
L 3578 5119 
L 2425 3944 
L 1813 3944 
L 2694 5119 
z
" transform="scale(0.015625)"/>
      <path id="DejaVuSans-Bold-64" d="M 2919 2988 
L 2919 4863 
L 4044 4863 
L 4044 0 
L 2919 0 
L 2919 506 
Q 2688 197 2409 53 
Q 2131 -91 1766 -91 
Q 1119 -91 703 423 
Q 288 938 288 1747 
Q 288 2556 703 3070 
Q 1119 3584 1766 3584 
Q 2128 3584 2408 3439 
Q 2688 3294 2919 2988 
z
M 2181 722 
Q 2541 722 2730 984 
Q 2919 1247 2919 1747 
Q 2919 2247 2730 2509 
Q 2541 2772 2181 2772 
Q 1825 2772 1636 2509 
Q 1447 2247 1447 1747 
Q 1447 1247 1636 984 
Q 1825 722 2181 722 
z
" transform="scale(0.015625)"/>
      <path id="DejaVuSans-Bold-65" d="M 4031 1759 
L 4031 1441 
L 1416 1441 
Q 1456 1047 1700 850 
Q 1944 653 2381 653 
Q 2734 653 3104 758 
Q 3475 863 3866 1075 
L 3866 213 
Q 3469 63 3072 -14 
Q 2675 -91 2278 -91 
Q 1328 -91 801 392 
Q 275 875 275 1747 
Q 275 2603 792 3093 
Q 1309 3584 2216 3584 
Q 3041 3584 3536 3087 
Q 4031 2591 4031 1759 
z
M 2881 2131 
Q 2881 2450 2695 2645 
Q 2509 2841 2209 2841 
Q 1884 2841 1681 2658 
Q 1478 2475 1428 2131 
L 2881 2131 
z
" transform="scale(0.015625)"/>
      <path id="DejaVuSans-Bold-50" d="M 588 4666 
L 2584 4666 
Q 3475 4666 3951 4270 
Q 4428 3875 4428 3144 
Q 4428 2409 3951 2014 
Q 3475 1619 2584 1619 
L 1791 1619 
L 1791 0 
L 588 0 
L 588 4666 
z
M 1791 3794 
L 1791 2491 
L 2456 2491 
Q 2806 2491 2997 2661 
Q 3188 2831 3188 3144 
Q 3188 3456 2997 3625 
Q 2806 3794 2456 3794 
L 1791 3794 
z
" transform="scale(0.015625)"/>
      <path id="DejaVuSans-Bold-72" d="M 3138 2547 
Q 2991 2616 2845 2648 
Q 2700 2681 2553 2681 
Q 2122 2681 1889 2404 
Q 1656 2128 1656 1613 
L 1656 0 
L 538 0 
L 538 3500 
L 1656 3500 
L 1656 2925 
Q 1872 3269 2151 3426 
Q 2431 3584 2822 3584 
Q 2878 3584 2943 3579 
Q 3009 3575 3134 3559 
L 3138 2547 
z
" transform="scale(0.015625)"/>
      <path id="DejaVuSans-Bold-62" d="M 2400 722 
Q 2759 722 2948 984 
Q 3138 1247 3138 1747 
Q 3138 2247 2948 2509 
Q 2759 2772 2400 2772 
Q 2041 2772 1848 2508 
Q 1656 2244 1656 1747 
Q 1656 1250 1848 986 
Q 2041 722 2400 722 
z
M 1656 2988 
Q 1888 3294 2169 3439 
Q 2450 3584 2816 3584 
Q 3463 3584 3878 3070 
Q 4294 2556 4294 1747 
Q 4294 938 3878 423 
Q 3463 -91 2816 -91 
Q 2450 -91 2169 54 
Q 1888 200 1656 506 
L 1656 0 
L 538 0 
L 538 4863 
L 1656 4863 
L 1656 2988 
z
" transform="scale(0.015625)"/>
      <path id="DejaVuSans-Bold-61" d="M 2106 1575 
Q 1756 1575 1579 1456 
Q 1403 1338 1403 1106 
Q 1403 894 1545 773 
Q 1688 653 1941 653 
Q 2256 653 2472 879 
Q 2688 1106 2688 1447 
L 2688 1575 
L 2106 1575 
z
M 3816 1997 
L 3816 0 
L 2688 0 
L 2688 519 
Q 2463 200 2181 54 
Q 1900 -91 1497 -91 
Q 953 -91 614 226 
Q 275 544 275 1050 
Q 275 1666 698 1953 
Q 1122 2241 2028 2241 
L 2688 2241 
L 2688 2328 
Q 2688 2594 2478 2717 
Q 2269 2841 1825 2841 
Q 1466 2841 1156 2769 
Q 847 2697 581 2553 
L 581 3406 
Q 941 3494 1303 3539 
Q 1666 3584 2028 3584 
Q 2975 3584 3395 3211 
Q 3816 2838 3816 1997 
z
" transform="scale(0.015625)"/>
      <path id="DejaVuSans-Bold-73" d="M 3272 3391 
L 3272 2541 
Q 2913 2691 2578 2766 
Q 2244 2841 1947 2841 
Q 1628 2841 1473 2761 
Q 1319 2681 1319 2516 
Q 1319 2381 1436 2309 
Q 1553 2238 1856 2203 
L 2053 2175 
Q 2913 2066 3209 1816 
Q 3506 1566 3506 1031 
Q 3506 472 3093 190 
Q 2681 -91 1863 -91 
Q 1516 -91 1145 -36 
Q 775 19 384 128 
L 384 978 
Q 719 816 1070 734 
Q 1422 653 1784 653 
Q 2113 653 2278 743 
Q 2444 834 2444 1013 
Q 2444 1163 2330 1236 
Q 2216 1309 1875 1350 
L 1678 1375 
Q 931 1469 631 1722 
Q 331 1975 331 2491 
Q 331 3047 712 3315 
Q 1094 3584 1881 3584 
Q 2191 3584 2531 3537 
Q 2872 3491 3272 3391 
z
" transform="scale(0.015625)"/>
      <path id="DejaVuSans-Bold-41" d="M 3419 850 
L 1538 850 
L 1241 0 
L 31 0 
L 1759 4666 
L 3194 4666 
L 4922 0 
L 3713 0 
L 3419 850 
z
M 1838 1716 
L 3116 1716 
L 2478 3572 
L 1838 1716 
z
" transform="scale(0.015625)"/>
     </defs>
     <use xlink:href="#DejaVuSans-Bold-4c"/>
     <use xlink:href="#DejaVuSans-Bold-69" transform="translate(63.720703 0)"/>
     <use xlink:href="#DejaVuSans-Bold-6e" transform="translate(97.998047 0)"/>
     <use xlink:href="#DejaVuSans-Bold-6b" transform="translate(169.189453 0)"/>
     <use xlink:href="#DejaVuSans-Bold-20" transform="translate(235.693359 0)"/>
     <use xlink:href="#DejaVuSans-Bold-30" transform="translate(270.507812 0)"/>
     <use xlink:href="#DejaVuSans-Bold-3a" transform="translate(340.087891 0)"/>
     <use xlink:href="#DejaVuSans-Bold-20" transform="translate(380.078125 0)"/>
     <use xlink:href="#DejaVuSans-Bold-45" transform="translate(414.892578 0)"/>
     <use xlink:href="#DejaVuSans-Bold-76" transform="translate(483.203125 0)"/>
     <use xlink:href="#DejaVuSans-Bold-6f" transform="translate(548.388672 0)"/>
     <use xlink:href="#DejaVuSans-Bold-6c" transform="translate(617.089844 0)"/>
     <use xlink:href="#DejaVuSans-Bold-75" transform="translate(651.367188 0)"/>
     <use xlink:href="#DejaVuSans-Bold-63" transform="translate(722.558594 0)"/>
     <use xlink:href="#DejaVuSans-Bold-69" transform="translate(781.835938 0)"/>
     <use xlink:href="#DejaVuSans-Bold-f3" transform="translate(816.113281 0)"/>
     <use xlink:href="#DejaVuSans-Bold-6e" transform="translate(884.814453 0)"/>
     <use xlink:href="#DejaVuSans-Bold-20" transform="translate(956.005859 0)"/>
     <use xlink:href="#DejaVuSans-Bold-64" transform="translate(990.820312 0)"/>
     <use xlink:href="#DejaVuSans-Bold-65" transform="translate(1062.402344 0)"/>
     <use xlink:href="#DejaVuSans-Bold-20" transform="translate(1130.224609 0)"/>
     <use xlink:href="#DejaVuSans-Bold-50" transform="translate(1165.039062 0)"/>
     <use xlink:href="#DejaVuSans-Bold-72" transform="translate(1238.330078 0)"/>
     <use xlink:href="#DejaVuSans-Bold-6f" transform="translate(1287.646484 0)"/>
     <use xlink:href="#DejaVuSans-Bold-62" transform="translate(1356.347656 0)"/>
     <use xlink:href="#DejaVuSans-Bold-61" transform="translate(1427.929688 0)"/>
     <use xlink:href="#DejaVuSans-Bold-62" transform="translate(1495.410156 0)"/>
     <use xlink:href="#DejaVuSans-Bold-69" transform="translate(1566.992188 0)"/>
     <use xlink:href="#DejaVuSans-Bold-6c" transform="translate(1601.269531 0)"/>
     <use xlink:href="#DejaVuSans-Bold-69" transform="translate(1635.546875 0)"/>
     <use xlink:href="#DejaVuSans-Bold-64" transform="translate(1669.824219 0)"/>
     <use xlink:href="#DejaVuSans-Bold-61" transform="translate(1741.40625 0)"/>
     <use xlink:href="#DejaVuSans-Bold-64" transform="translate(1808.886719 0)"/>
     <use xlink:href="#DejaVuSans-Bold-65" transform="translate(1880.46875 0)"/>
     <use xlink:href="#DejaVuSans-Bold-73" transform="translate(1948.291016 0)"/>
     <use xlink:href="#DejaVuSans-Bold-20" transform="translate(2007.8125 0)"/>
     <use xlink:href="#DejaVuSans-Bold-64" transform="translate(2042.626953 0)"/>
     <use xlink:href="#DejaVuSans-Bold-65" transform="translate(2114.208984 0)"/>
     <use xlink:href="#DejaVuSans-Bold-20" transform="translate(2182.03125 0)"/>
     <use xlink:href="#DejaVuSans-Bold-41" transform="translate(2216.845703 0)"/>
     <use xlink:href="#DejaVuSans-Bold-63" transform="translate(2294.238281 0)"/>
     <use xlink:href="#DejaVuSans-Bold-63" transform="translate(2353.515625 0)"/>
     <use xlink:href="#DejaVuSans-Bold-69" transform="translate(2412.792969 0)"/>
     <use xlink:href="#DejaVuSans-Bold-f3" transform="translate(2447.070312 0)"/>
     <use xlink:href="#DejaVuSans-Bold-6e" transform="translate(2515.771484 0)"/>
    </g>
   </g>
   <g id="legend_1">
    <g id="patch_7">
     <path d="M 53.416875 97.221562 
L 130.301719 97.221562 
Q 132.501719 97.221562 132.501719 95.021562 
L 132.501719 31.537812 
Q 132.501719 29.337812 130.301719 29.337812 
L 53.416875 29.337812 
Q 51.216875 29.337812 51.216875 31.537812 
L 51.216875 95.021562 
Q 51.216875 97.221562 53.416875 97.221562 
z
" style="fill: #ffffff; opacity: 0.8; stroke: #cccccc; stroke-linejoin: miter"/>
    </g>
    <g id="line2d_27">
     <path d="M 55.616875 38.246094 
L 66.616875 38.246094 
L 77.616875 38.246094 
" style="fill: none; stroke-dasharray: 9.25,4; stroke-dashoffset: 0; stroke: #000000; stroke-width: 2.5"/>
    </g>
    <g id="text_15">
     <!-- No TX -->
     <g transform="translate(86.416875 42.096094) scale(0.11 -0.11)">
      <defs>
       <path id="DejaVuSans-4e" d="M 628 4666 
L 1478 4666 
L 3547 763 
L 3547 4666 
L 4159 4666 
L 4159 0 
L 3309 0 
L 1241 3903 
L 1241 0 
L 628 0 
L 628 4666 
z
" transform="scale(0.015625)"/>
       <path id="DejaVuSans-54" d="M -19 4666 
L 3928 4666 
L 3928 4134 
L 2272 4134 
L 2272 0 
L 1638 0 
L 1638 4134 
L -19 4134 
L -19 4666 
z
" transform="scale(0.015625)"/>
       <path id="DejaVuSans-58" d="M 403 4666 
L 1081 4666 
L 2241 2931 
L 3406 4666 
L 4084 4666 
L 2584 2425 
L 4184 0 
L 3506 0 
L 2194 1984 
L 872 0 
L 191 0 
L 1856 2491 
L 403 4666 
z
" transform="scale(0.015625)"/>
      </defs>
      <use xlink:href="#DejaVuSans-4e"/>
      <use xlink:href="#DejaVuSans-6f" transform="translate(74.804688 0)"/>
      <use xlink:href="#DejaVuSans-20" transform="translate(135.986328 0)"/>
      <use xlink:href="#DejaVuSans-54" transform="translate(167.773438 0)"/>
      <use xlink:href="#DejaVuSans-58" transform="translate(228.857422 0)"/>
     </g>
    </g>
    <g id="line2d_28">
     <path d="M 55.616875 54.392031 
L 66.616875 54.392031 
L 77.616875 54.392031 
" style="fill: none; stroke: #1f77b4; stroke-width: 2; stroke-linecap: square"/>
    </g>
    <g id="text_16">
     <!-- Canal 0 -->
     <g transform="translate(86.416875 58.242031) scale(0.11 -0.11)">
      <defs>
       <path id="DejaVuSans-43" d="M 4122 4306 
L 4122 3641 
Q 3803 3938 3442 4084 
Q 3081 4231 2675 4231 
Q 1875 4231 1450 3742 
Q 1025 3253 1025 2328 
Q 1025 1406 1450 917 
Q 1875 428 2675 428 
Q 3081 428 3442 575 
Q 3803 722 4122 1019 
L 4122 359 
Q 3791 134 3420 21 
Q 3050 -91 2638 -91 
Q 1578 -91 968 557 
Q 359 1206 359 2328 
Q 359 3453 968 4101 
Q 1578 4750 2638 4750 
Q 3056 4750 3426 4639 
Q 3797 4528 4122 4306 
z
" transform="scale(0.015625)"/>
      </defs>
      <use xlink:href="#DejaVuSans-43"/>
      <use xlink:href="#DejaVuSans-61" transform="translate(69.824219 0)"/>
      <use xlink:href="#DejaVuSans-6e" transform="translate(131.103516 0)"/>
      <use xlink:href="#DejaVuSans-61" transform="translate(194.482422 0)"/>
      <use xlink:href="#DejaVuSans-6c" transform="translate(255.761719 0)"/>
      <use xlink:href="#DejaVuSans-20" transform="translate(283.544922 0)"/>
      <use xlink:href="#DejaVuSans-30" transform="translate(315.332031 0)"/>
     </g>
    </g>
    <g id="line2d_29">
     <path d="M 55.616875 70.537969 
L 66.616875 70.537969 
L 77.616875 70.537969 
" style="fill: none; stroke: #ff7f0e; stroke-width: 2; stroke-linecap: square"/>
    </g>
    <g id="text_17">
     <!-- Canal 1 -->
     <g transform="translate(86.416875 74.387969) scale(0.11 -0.11)">
      <use xlink:href="#DejaVuSans-43"/>
      <use xlink:href="#DejaVuSans-61" transform="translate(69.824219 0)"/>
      <use xlink:href="#DejaVuSans-6e" transform="translate(131.103516 0)"/>
      <use xlink:href="#DejaVuSans-61" transform="translate(194.482422 0)"/>
      <use xlink:href="#DejaVuSans-6c" transform="translate(255.761719 0)"/>
      <use xlink:href="#DejaVuSans-20" transform="translate(283.544922 0)"/>
      <use xlink:href="#DejaVuSans-31" transform="translate(315.332031 0)"/>
     </g>
    </g>
    <g id="line2d_30">
     <path d="M 55.616875 86.683906 
L 66.616875 86.683906 
L 77.616875 86.683906 
" style="fill: none; stroke: #2ca02c; stroke-width: 2; stroke-linecap: square"/>
    </g>
    <g id="text_18">
     <!-- Canal 2 -->
     <g transform="translate(86.416875 90.533906) scale(0.11 -0.11)">
      <use xlink:href="#DejaVuSans-43"/>
      <use xlink:href="#DejaVuSans-61" transform="translate(69.824219 0)"/>
      <use xlink:href="#DejaVuSans-6e" transform="translate(131.103516 0)"/>
      <use xlink:href="#DejaVuSans-61" transform="translate(194.482422 0)"/>
      <use xlink:href="#DejaVuSans-6c" transform="translate(255.761719 0)"/>
      <use xlink:href="#DejaVuSans-20" transform="translate(283.544922 0)"/>
      <use xlink:href="#DejaVuSans-32" transform="translate(315.332031 0)"/>
     </g>
    </g>
   </g>
  </g>
 </g>
 <defs>
  <clipPath id="p8cc36053f9">
   <rect x="45.716875" y="23.837812" width="1091.545" height="864.64"/>
  </clipPath>
 </defs>
</svg>
