<?xml version="1.0" encoding="utf-8" standalone="no"?>
<!DOCTYPE svg PUBLIC "-//W3C//DTD SVG 1.1//EN"
  "http://www.w3.org/Graphics/SVG/1.1/DTD/svg11.dtd">
<svg xmlns:xlink="http://www.w3.org/1999/xlink" width="1144.461875pt" height="927.969688pt" viewBox="0 0 1144.461875 927.969688" xmlns="http://www.w3.org/2000/svg" version="1.1">
 <metadata>
  <rdf:RDF xmlns:dc="http://purl.org/dc/elements/1.1/" xmlns:cc="http://creativecommons.org/ns#" xmlns:rdf="http://www.w3.org/1999/02/22-rdf-syntax-ns#">
   <cc:Work>
    <dc:type rdf:resource="http://purl.org/dc/dcmitype/StillImage"/>
    <dc:date>2025-10-14T19:32:02.399342</dc:date>
    <dc:format>image/svg+xml</dc:format>
    <dc:creator>
     <cc:Agent>
      <dc:title>Matplotlib v3.10.1, https://matplotlib.org/</dc:title>
     </cc:Agent>
    </dc:creator>
   </cc:Work>
  </rdf:RDF>
 </metadata>
 <defs>
  <style type="text/css">*{stroke-linejoin: round; stroke-linecap: butt}</style>
 </defs>
 <g id="figure_1">
  <g id="patch_1">
   <path d="M 0 927.969688 
L 1144.461875 927.969688 
L 1144.461875 0 
L 0 0 
z
" style="fill: #ffffff"/>
  </g>
  <g id="axes_1">
   <g id="patch_2">
    <path d="M 45.716875 888.477813 
L 1137.261875 888.477813 
L 1137.261875 23.837812 
L 45.716875 23.837812 
z
" style="fill: #ffffff"/>
   </g>
   <g id="matplotlib.axis_1">
    <g id="xtick_1">
     <g id="line2d_1">
      <path d="M 95.332557 888.477813 
L 95.332557 23.837812 
" clip-path="url(#paa9aa98570)" style="fill: none; stroke: #b0b0b0; stroke-opacity: 0.3; stroke-width: 0.8; stroke-linecap: square"/>
     </g>
     <g id="line2d_2">
      <defs>
       <path id="mf24e17469a" d="M 0 0 
L 0 3.5 
" style="stroke: #000000; stroke-width: 0.8"/>
      </defs>
      <g>
       <use xlink:href="#mf24e17469a" x="95.332557" y="888.477813" style="stroke: #000000; stroke-width: 0.8"/>
      </g>
     </g>
     <g id="text_1">
      <!-- 0 -->
      <g transform="translate(92.151307 903.07625) scale(0.1 -0.1)">
       <defs>
        <path id="DejaVuSans-30" d="M 2034 4250 
Q 1547 4250 1301 3770 
Q 1056 3291 1056 2328 
Q 1056 1369 1301 889 
Q 1547 409 2034 409 
Q 2525 409 2770 889 
Q 3016 1369 3016 2328 
Q 3016 3291 2770 3770 
Q 2525 4250 2034 4250 
z
M 2034 4750 
Q 2819 4750 3233 4129 
Q 3647 3509 3647 2328 
Q 3647 1150 3233 529 
Q 2819 -91 2034 -91 
Q 1250 -91 836 529 
Q 422 1150 422 2328 
Q 422 3509 836 4129 
Q 1250 4750 2034 4750 
z
" transform="scale(0.015625)"/>
       </defs>
       <use xlink:href="#DejaVuSans-30"/>
      </g>
     </g>
    </g>
    <g id="xtick_2">
     <g id="line2d_3">
      <path d="M 321.37211 888.477813 
L 321.37211 23.837812 
" clip-path="url(#paa9aa98570)" style="fill: none; stroke: #b0b0b0; stroke-opacity: 0.3; stroke-width: 0.8; stroke-linecap: square"/>
     </g>
     <g id="line2d_4">
      <g>
       <use xlink:href="#mf24e17469a" x="321.37211" y="888.477813" style="stroke: #000000; stroke-width: 0.8"/>
      </g>
     </g>
     <g id="text_2">
      <!-- 100 -->
      <g transform="translate(311.82836 903.07625) scale(0.1 -0.1)">
       <defs>
        <path id="DejaVuSans-31" d="M 794 531 
L 1825 531 
L 1825 4091 
L 703 3866 
L 703 4441 
L 1819 4666 
L 2450 4666 
L 2450 531 
L 3481 531 
L 3481 0 
L 794 0 
L 794 531 
z
" transform="scale(0.015625)"/>
       </defs>
       <use xlink:href="#DejaVuSans-31"/>
       <use xlink:href="#DejaVuSans-30" transform="translate(63.623047 0)"/>
       <use xlink:href="#DejaVuSans-30" transform="translate(127.246094 0)"/>
      </g>
     </g>
    </g>
    <g id="xtick_3">
     <g id="line2d_5">
      <path d="M 547.411662 888.477813 
L 547.411662 23.837812 
" clip-path="url(#paa9aa98570)" style="fill: none; stroke: #b0b0b0; stroke-opacity: 0.3; stroke-width: 0.8; stroke-linecap: square"/>
     </g>
     <g id="line2d_6">
      <g>
       <use xlink:href="#mf24e17469a" x="547.411662" y="888.477813" style="stroke: #000000; stroke-width: 0.8"/>
      </g>
     </g>
     <g id="text_3">
      <!-- 200 -->
      <g transform="translate(537.867912 903.07625) scale(0.1 -0.1)">
       <defs>
        <path id="DejaVuSans-32" d="M 1228 531 
L 3431 531 
L 3431 0 
L 469 0 
L 469 531 
Q 828 903 1448 1529 
Q 2069 2156 2228 2338 
Q 2531 2678 2651 2914 
Q 2772 3150 2772 3378 
Q 2772 3750 2511 3984 
Q 2250 4219 1831 4219 
Q 1534 4219 1204 4116 
Q 875 4013 500 3803 
L 500 4441 
Q 881 4594 1212 4672 
Q 1544 4750 1819 4750 
Q 2544 4750 2975 4387 
Q 3406 4025 3406 3419 
Q 3406 3131 3298 2873 
Q 3191 2616 2906 2266 
Q 2828 2175 2409 1742 
Q 1991 1309 1228 531 
z
" transform="scale(0.015625)"/>
       </defs>
       <use xlink:href="#DejaVuSans-32"/>
       <use xlink:href="#DejaVuSans-30" transform="translate(63.623047 0)"/>
       <use xlink:href="#DejaVuSans-30" transform="translate(127.246094 0)"/>
      </g>
     </g>
    </g>
    <g id="xtick_4">
     <g id="line2d_7">
      <path d="M 773.451215 888.477813 
L 773.451215 23.837812 
" clip-path="url(#paa9aa98570)" style="fill: none; stroke: #b0b0b0; stroke-opacity: 0.3; stroke-width: 0.8; stroke-linecap: square"/>
     </g>
     <g id="line2d_8">
      <g>
       <use xlink:href="#mf24e17469a" x="773.451215" y="888.477813" style="stroke: #000000; stroke-width: 0.8"/>
      </g>
     </g>
     <g id="text_4">
      <!-- 300 -->
      <g transform="translate(763.907465 903.07625) scale(0.1 -0.1)">
       <defs>
        <path id="DejaVuSans-33" d="M 2597 2516 
Q 3050 2419 3304 2112 
Q 3559 1806 3559 1356 
Q 3559 666 3084 287 
Q 2609 -91 1734 -91 
Q 1441 -91 1130 -33 
Q 819 25 488 141 
L 488 750 
Q 750 597 1062 519 
Q 1375 441 1716 441 
Q 2309 441 2620 675 
Q 2931 909 2931 1356 
Q 2931 1769 2642 2001 
Q 2353 2234 1838 2234 
L 1294 2234 
L 1294 2753 
L 1863 2753 
Q 2328 2753 2575 2939 
Q 2822 3125 2822 3475 
Q 2822 3834 2567 4026 
Q 2313 4219 1838 4219 
Q 1578 4219 1281 4162 
Q 984 4106 628 3988 
L 628 4550 
Q 988 4650 1302 4700 
Q 1616 4750 1894 4750 
Q 2613 4750 3031 4423 
Q 3450 4097 3450 3541 
Q 3450 3153 3228 2886 
Q 3006 2619 2597 2516 
z
" transform="scale(0.015625)"/>
       </defs>
       <use xlink:href="#DejaVuSans-33"/>
       <use xlink:href="#DejaVuSans-30" transform="translate(63.623047 0)"/>
       <use xlink:href="#DejaVuSans-30" transform="translate(127.246094 0)"/>
      </g>
     </g>
    </g>
    <g id="xtick_5">
     <g id="line2d_9">
      <path d="M 999.490768 888.477813 
L 999.490768 23.837812 
" clip-path="url(#paa9aa98570)" style="fill: none; stroke: #b0b0b0; stroke-opacity: 0.3; stroke-width: 0.8; stroke-linecap: square"/>
     </g>
     <g id="line2d_10">
      <g>
       <use xlink:href="#mf24e17469a" x="999.490768" y="888.477813" style="stroke: #000000; stroke-width: 0.8"/>
      </g>
     </g>
     <g id="text_5">
      <!-- 400 -->
      <g transform="translate(989.947018 903.07625) scale(0.1 -0.1)">
       <defs>
        <path id="DejaVuSans-34" d="M 2419 4116 
L 825 1625 
L 2419 1625 
L 2419 4116 
z
M 2253 4666 
L 3047 4666 
L 3047 1625 
L 3713 1625 
L 3713 1100 
L 3047 1100 
L 3047 0 
L 2419 0 
L 2419 1100 
L 313 1100 
L 313 1709 
L 2253 4666 
z
" transform="scale(0.015625)"/>
       </defs>
       <use xlink:href="#DejaVuSans-34"/>
       <use xlink:href="#DejaVuSans-30" transform="translate(63.623047 0)"/>
       <use xlink:href="#DejaVuSans-30" transform="translate(127.246094 0)"/>
      </g>
     </g>
    </g>
    <g id="text_6">
     <!-- Iteraciones (x10) -->
     <g transform="translate(540.499688 918.274063) scale(0.12 -0.12)">
      <defs>
       <path id="DejaVuSans-49" d="M 628 4666 
L 1259 4666 
L 1259 0 
L 628 0 
L 628 4666 
z
" transform="scale(0.015625)"/>
       <path id="DejaVuSans-74" d="M 1172 4494 
L 1172 3500 
L 2356 3500 
L 2356 3053 
L 1172 3053 
L 1172 1153 
Q 1172 725 1289 603 
Q 1406 481 1766 481 
L 2356 481 
L 2356 0 
L 1766 0 
Q 1100 0 847 248 
Q 594 497 594 1153 
L 594 3053 
L 172 3053 
L 172 3500 
L 594 3500 
L 594 4494 
L 1172 4494 
z
" transform="scale(0.015625)"/>
       <path id="DejaVuSans-65" d="M 3597 1894 
L 3597 1613 
L 953 1613 
Q 991 1019 1311 708 
Q 1631 397 2203 397 
Q 2534 397 2845 478 
Q 3156 559 3463 722 
L 3463 178 
Q 3153 47 2828 -22 
Q 2503 -91 2169 -91 
Q 1331 -91 842 396 
Q 353 884 353 1716 
Q 353 2575 817 3079 
Q 1281 3584 2069 3584 
Q 2775 3584 3186 3129 
Q 3597 2675 3597 1894 
z
M 3022 2063 
Q 3016 2534 2758 2815 
Q 2500 3097 2075 3097 
Q 1594 3097 1305 2825 
Q 1016 2553 972 2059 
L 3022 2063 
z
" transform="scale(0.015625)"/>
       <path id="DejaVuSans-72" d="M 2631 2963 
Q 2534 3019 2420 3045 
Q 2306 3072 2169 3072 
Q 1681 3072 1420 2755 
Q 1159 2438 1159 1844 
L 1159 0 
L 581 0 
L 581 3500 
L 1159 3500 
L 1159 2956 
Q 1341 3275 1631 3429 
Q 1922 3584 2338 3584 
Q 2397 3584 2469 3576 
Q 2541 3569 2628 3553 
L 2631 2963 
z
" transform="scale(0.015625)"/>
       <path id="DejaVuSans-61" d="M 2194 1759 
Q 1497 1759 1228 1600 
Q 959 1441 959 1056 
Q 959 750 1161 570 
Q 1363 391 1709 391 
Q 2188 391 2477 730 
Q 2766 1069 2766 1631 
L 2766 1759 
L 2194 1759 
z
M 3341 1997 
L 3341 0 
L 2766 0 
L 2766 531 
Q 2569 213 2275 61 
Q 1981 -91 1556 -91 
Q 1019 -91 701 211 
Q 384 513 384 1019 
Q 384 1609 779 1909 
Q 1175 2209 1959 2209 
L 2766 2209 
L 2766 2266 
Q 2766 2663 2505 2880 
Q 2244 3097 1772 3097 
Q 1472 3097 1187 3025 
Q 903 2953 641 2809 
L 641 3341 
Q 956 3463 1253 3523 
Q 1550 3584 1831 3584 
Q 2591 3584 2966 3190 
Q 3341 2797 3341 1997 
z
" transform="scale(0.015625)"/>
       <path id="DejaVuSans-63" d="M 3122 3366 
L 3122 2828 
Q 2878 2963 2633 3030 
Q 2388 3097 2138 3097 
Q 1578 3097 1268 2742 
Q 959 2388 959 1747 
Q 959 1106 1268 751 
Q 1578 397 2138 397 
Q 2388 397 2633 464 
Q 2878 531 3122 666 
L 3122 134 
Q 2881 22 2623 -34 
Q 2366 -91 2075 -91 
Q 1284 -91 818 406 
Q 353 903 353 1747 
Q 353 2603 823 3093 
Q 1294 3584 2113 3584 
Q 2378 3584 2631 3529 
Q 2884 3475 3122 3366 
z
" transform="scale(0.015625)"/>
       <path id="DejaVuSans-69" d="M 603 3500 
L 1178 3500 
L 1178 0 
L 603 0 
L 603 3500 
z
M 603 4863 
L 1178 4863 
L 1178 4134 
L 603 4134 
L 603 4863 
z
" transform="scale(0.015625)"/>
       <path id="DejaVuSans-6f" d="M 1959 3097 
Q 1497 3097 1228 2736 
Q 959 2375 959 1747 
Q 959 1119 1226 758 
Q 1494 397 1959 397 
Q 2419 397 2687 759 
Q 2956 1122 2956 1747 
Q 2956 2369 2687 2733 
Q 2419 3097 1959 3097 
z
M 1959 3584 
Q 2709 3584 3137 3096 
Q 3566 2609 3566 1747 
Q 3566 888 3137 398 
Q 2709 -91 1959 -91 
Q 1206 -91 779 398 
Q 353 888 353 1747 
Q 353 2609 779 3096 
Q 1206 3584 1959 3584 
z
" transform="scale(0.015625)"/>
       <path id="DejaVuSans-6e" d="M 3513 2113 
L 3513 0 
L 2938 0 
L 2938 2094 
Q 2938 2591 2744 2837 
Q 2550 3084 2163 3084 
Q 1697 3084 1428 2787 
Q 1159 2491 1159 1978 
L 1159 0 
L 581 0 
L 581 3500 
L 1159 3500 
L 1159 2956 
Q 1366 3272 1645 3428 
Q 1925 3584 2291 3584 
Q 2894 3584 3203 3211 
Q 3513 2838 3513 2113 
z
" transform="scale(0.015625)"/>
       <path id="DejaVuSans-73" d="M 2834 3397 
L 2834 2853 
Q 2591 2978 2328 3040 
Q 2066 3103 1784 3103 
Q 1356 3103 1142 2972 
Q 928 2841 928 2578 
Q 928 2378 1081 2264 
Q 1234 2150 1697 2047 
L 1894 2003 
Q 2506 1872 2764 1633 
Q 3022 1394 3022 966 
Q 3022 478 2636 193 
Q 2250 -91 1575 -91 
Q 1294 -91 989 -36 
Q 684 19 347 128 
L 347 722 
Q 666 556 975 473 
Q 1284 391 1588 391 
Q 1994 391 2212 530 
Q 2431 669 2431 922 
Q 2431 1156 2273 1281 
Q 2116 1406 1581 1522 
L 1381 1569 
Q 847 1681 609 1914 
Q 372 2147 372 2553 
Q 372 3047 722 3315 
Q 1072 3584 1716 3584 
Q 2034 3584 2315 3537 
Q 2597 3491 2834 3397 
z
" transform="scale(0.015625)"/>
       <path id="DejaVuSans-20" transform="scale(0.015625)"/>
       <path id="DejaVuSans-28" d="M 1984 4856 
Q 1566 4138 1362 3434 
Q 1159 2731 1159 2009 
Q 1159 1288 1364 580 
Q 1569 -128 1984 -844 
L 1484 -844 
Q 1016 -109 783 600 
Q 550 1309 550 2009 
Q 550 2706 781 3412 
Q 1013 4119 1484 4856 
L 1984 4856 
z
" transform="scale(0.015625)"/>
       <path id="DejaVuSans-78" d="M 3513 3500 
L 2247 1797 
L 3578 0 
L 2900 0 
L 1881 1375 
L 863 0 
L 184 0 
L 1544 1831 
L 300 3500 
L 978 3500 
L 1906 2253 
L 2834 3500 
L 3513 3500 
z
" transform="scale(0.015625)"/>
       <path id="DejaVuSans-29" d="M 513 4856 
L 1013 4856 
Q 1481 4119 1714 3412 
Q 1947 2706 1947 2009 
Q 1947 1309 1714 600 
Q 1481 -109 1013 -844 
L 513 -844 
Q 928 -128 1133 580 
Q 1338 1288 1338 2009 
Q 1338 2731 1133 3434 
Q 928 4138 513 4856 
z
" transform="scale(0.015625)"/>
      </defs>
      <use xlink:href="#DejaVuSans-49"/>
      <use xlink:href="#DejaVuSans-74" transform="translate(29.492188 0)"/>
      <use xlink:href="#DejaVuSans-65" transform="translate(68.701172 0)"/>
      <use xlink:href="#DejaVuSans-72" transform="translate(130.224609 0)"/>
      <use xlink:href="#DejaVuSans-61" transform="translate(171.337891 0)"/>
      <use xlink:href="#DejaVuSans-63" transform="translate(232.617188 0)"/>
      <use xlink:href="#DejaVuSans-69" transform="translate(287.597656 0)"/>
      <use xlink:href="#DejaVuSans-6f" transform="translate(315.380859 0)"/>
      <use xlink:href="#DejaVuSans-6e" transform="translate(376.5625 0)"/>
      <use xlink:href="#DejaVuSans-65" transform="translate(439.941406 0)"/>
      <use xlink:href="#DejaVuSans-73" transform="translate(501.464844 0)"/>
      <use xlink:href="#DejaVuSans-20" transform="translate(553.564453 0)"/>
      <use xlink:href="#DejaVuSans-28" transform="translate(585.351562 0)"/>
      <use xlink:href="#DejaVuSans-78" transform="translate(624.365234 0)"/>
      <use xlink:href="#DejaVuSans-31" transform="translate(683.544922 0)"/>
      <use xlink:href="#DejaVuSans-30" transform="translate(747.167969 0)"/>
      <use xlink:href="#DejaVuSans-29" transform="translate(810.791016 0)"/>
     </g>
    </g>
   </g>
   <g id="matplotlib.axis_2">
    <g id="ytick_1">
     <g id="line2d_11">
      <path d="M 45.716875 849.175994 
L 1137.261875 849.175994 
" clip-path="url(#paa9aa98570)" style="fill: none; stroke: #b0b0b0; stroke-opacity: 0.3; stroke-width: 0.8; stroke-linecap: square"/>
     </g>
     <g id="line2d_12">
      <defs>
       <path id="mbc50e89ac7" d="M 0 0 
L -3.5 0 
" style="stroke: #000000; stroke-width: 0.8"/>
      </defs>
      <g>
       <use xlink:href="#mbc50e89ac7" x="45.716875" y="849.175994" style="stroke: #000000; stroke-width: 0.8"/>
      </g>
     </g>
     <g id="text_7">
      <!-- 0.0 -->
      <g transform="translate(22.81375 852.975213) scale(0.1 -0.1)">
       <defs>
        <path id="DejaVuSans-2e" d="M 684 794 
L 1344 794 
L 1344 0 
L 684 0 
L 684 794 
z
" transform="scale(0.015625)"/>
       </defs>
       <use xlink:href="#DejaVuSans-30"/>
       <use xlink:href="#DejaVuSans-2e" transform="translate(63.623047 0)"/>
       <use xlink:href="#DejaVuSans-30" transform="translate(95.410156 0)"/>
      </g>
     </g>
    </g>
    <g id="ytick_2">
     <g id="line2d_13">
      <path d="M 45.716875 691.968722 
L 1137.261875 691.968722 
" clip-path="url(#paa9aa98570)" style="fill: none; stroke: #b0b0b0; stroke-opacity: 0.3; stroke-width: 0.8; stroke-linecap: square"/>
     </g>
     <g id="line2d_14">
      <g>
       <use xlink:href="#mbc50e89ac7" x="45.716875" y="691.968722" style="stroke: #000000; stroke-width: 0.8"/>
      </g>
     </g>
     <g id="text_8">
      <!-- 0.2 -->
      <g transform="translate(22.81375 695.76794) scale(0.1 -0.1)">
       <use xlink:href="#DejaVuSans-30"/>
       <use xlink:href="#DejaVuSans-2e" transform="translate(63.623047 0)"/>
       <use xlink:href="#DejaVuSans-32" transform="translate(95.410156 0)"/>
      </g>
     </g>
    </g>
    <g id="ytick_3">
     <g id="line2d_15">
      <path d="M 45.716875 534.761449 
L 1137.261875 534.761449 
" clip-path="url(#paa9aa98570)" style="fill: none; stroke: #b0b0b0; stroke-opacity: 0.3; stroke-width: 0.8; stroke-linecap: square"/>
     </g>
     <g id="line2d_16">
      <g>
       <use xlink:href="#mbc50e89ac7" x="45.716875" y="534.761449" style="stroke: #000000; stroke-width: 0.8"/>
      </g>
     </g>
     <g id="text_9">
      <!-- 0.4 -->
      <g transform="translate(22.81375 538.560668) scale(0.1 -0.1)">
       <use xlink:href="#DejaVuSans-30"/>
       <use xlink:href="#DejaVuSans-2e" transform="translate(63.623047 0)"/>
       <use xlink:href="#DejaVuSans-34" transform="translate(95.410156 0)"/>
      </g>
     </g>
    </g>
    <g id="ytick_4">
     <g id="line2d_17">
      <path d="M 45.716875 377.554176 
L 1137.261875 377.554176 
" clip-path="url(#paa9aa98570)" style="fill: none; stroke: #b0b0b0; stroke-opacity: 0.3; stroke-width: 0.8; stroke-linecap: square"/>
     </g>
     <g id="line2d_18">
      <g>
       <use xlink:href="#mbc50e89ac7" x="45.716875" y="377.554176" style="stroke: #000000; stroke-width: 0.8"/>
      </g>
     </g>
     <g id="text_10">
      <!-- 0.6 -->
      <g transform="translate(22.81375 381.353395) scale(0.1 -0.1)">
       <defs>
        <path id="DejaVuSans-36" d="M 2113 2584 
Q 1688 2584 1439 2293 
Q 1191 2003 1191 1497 
Q 1191 994 1439 701 
Q 1688 409 2113 409 
Q 2538 409 2786 701 
Q 3034 994 3034 1497 
Q 3034 2003 2786 2293 
Q 2538 2584 2113 2584 
z
M 3366 4563 
L 3366 3988 
Q 3128 4100 2886 4159 
Q 2644 4219 2406 4219 
Q 1781 4219 1451 3797 
Q 1122 3375 1075 2522 
Q 1259 2794 1537 2939 
Q 1816 3084 2150 3084 
Q 2853 3084 3261 2657 
Q 3669 2231 3669 1497 
Q 3669 778 3244 343 
Q 2819 -91 2113 -91 
Q 1303 -91 875 529 
Q 447 1150 447 2328 
Q 447 3434 972 4092 
Q 1497 4750 2381 4750 
Q 2619 4750 2861 4703 
Q 3103 4656 3366 4563 
z
" transform="scale(0.015625)"/>
       </defs>
       <use xlink:href="#DejaVuSans-30"/>
       <use xlink:href="#DejaVuSans-2e" transform="translate(63.623047 0)"/>
       <use xlink:href="#DejaVuSans-36" transform="translate(95.410156 0)"/>
      </g>
     </g>
    </g>
    <g id="ytick_5">
     <g id="line2d_19">
      <path d="M 45.716875 220.346903 
L 1137.261875 220.346903 
" clip-path="url(#paa9aa98570)" style="fill: none; stroke: #b0b0b0; stroke-opacity: 0.3; stroke-width: 0.8; stroke-linecap: square"/>
     </g>
     <g id="line2d_20">
      <g>
       <use xlink:href="#mbc50e89ac7" x="45.716875" y="220.346903" style="stroke: #000000; stroke-width: 0.8"/>
      </g>
     </g>
     <g id="text_11">
      <!-- 0.8 -->
      <g transform="translate(22.81375 224.146122) scale(0.1 -0.1)">
       <defs>
        <path id="DejaVuSans-38" d="M 2034 2216 
Q 1584 2216 1326 1975 
Q 1069 1734 1069 1313 
Q 1069 891 1326 650 
Q 1584 409 2034 409 
Q 2484 409 2743 651 
Q 3003 894 3003 1313 
Q 3003 1734 2745 1975 
Q 2488 2216 2034 2216 
z
M 1403 2484 
Q 997 2584 770 2862 
Q 544 3141 544 3541 
Q 544 4100 942 4425 
Q 1341 4750 2034 4750 
Q 2731 4750 3128 4425 
Q 3525 4100 3525 3541 
Q 3525 3141 3298 2862 
Q 3072 2584 2669 2484 
Q 3125 2378 3379 2068 
Q 3634 1759 3634 1313 
Q 3634 634 3220 271 
Q 2806 -91 2034 -91 
Q 1263 -91 848 271 
Q 434 634 434 1313 
Q 434 1759 690 2068 
Q 947 2378 1403 2484 
z
M 1172 3481 
Q 1172 3119 1398 2916 
Q 1625 2713 2034 2713 
Q 2441 2713 2670 2916 
Q 2900 3119 2900 3481 
Q 2900 3844 2670 4047 
Q 2441 4250 2034 4250 
Q 1625 4250 1398 4047 
Q 1172 3844 1172 3481 
z
" transform="scale(0.015625)"/>
       </defs>
       <use xlink:href="#DejaVuSans-30"/>
       <use xlink:href="#DejaVuSans-2e" transform="translate(63.623047 0)"/>
       <use xlink:href="#DejaVuSans-38" transform="translate(95.410156 0)"/>
      </g>
     </g>
    </g>
    <g id="ytick_6">
     <g id="line2d_21">
      <path d="M 45.716875 63.139631 
L 1137.261875 63.139631 
" clip-path="url(#paa9aa98570)" style="fill: none; stroke: #b0b0b0; stroke-opacity: 0.3; stroke-width: 0.8; stroke-linecap: square"/>
     </g>
     <g id="line2d_22">
      <g>
       <use xlink:href="#mbc50e89ac7" x="45.716875" y="63.139631" style="stroke: #000000; stroke-width: 0.8"/>
      </g>
     </g>
     <g id="text_12">
      <!-- 1.0 -->
      <g transform="translate(22.81375 66.938849) scale(0.1 -0.1)">
       <use xlink:href="#DejaVuSans-31"/>
       <use xlink:href="#DejaVuSans-2e" transform="translate(63.623047 0)"/>
       <use xlink:href="#DejaVuSans-30" transform="translate(95.410156 0)"/>
      </g>
     </g>
    </g>
    <g id="text_13">
     <!-- Probabilidad -->
     <g transform="translate(16.318125 493.264063) rotate(-90) scale(0.12 -0.12)">
      <defs>
       <path id="DejaVuSans-50" d="M 1259 4147 
L 1259 2394 
L 2053 2394 
Q 2494 2394 2734 2622 
Q 2975 2850 2975 3272 
Q 2975 3691 2734 3919 
Q 2494 4147 2053 4147 
L 1259 4147 
z
M 628 4666 
L 2053 4666 
Q 2838 4666 3239 4311 
Q 3641 3956 3641 3272 
Q 3641 2581 3239 2228 
Q 2838 1875 2053 1875 
L 1259 1875 
L 1259 0 
L 628 0 
L 628 4666 
z
" transform="scale(0.015625)"/>
       <path id="DejaVuSans-62" d="M 3116 1747 
Q 3116 2381 2855 2742 
Q 2594 3103 2138 3103 
Q 1681 3103 1420 2742 
Q 1159 2381 1159 1747 
Q 1159 1113 1420 752 
Q 1681 391 2138 391 
Q 2594 391 2855 752 
Q 3116 1113 3116 1747 
z
M 1159 2969 
Q 1341 3281 1617 3432 
Q 1894 3584 2278 3584 
Q 2916 3584 3314 3078 
Q 3713 2572 3713 1747 
Q 3713 922 3314 415 
Q 2916 -91 2278 -91 
Q 1894 -91 1617 61 
Q 1341 213 1159 525 
L 1159 0 
L 581 0 
L 581 4863 
L 1159 4863 
L 1159 2969 
z
" transform="scale(0.015625)"/>
       <path id="DejaVuSans-6c" d="M 603 4863 
L 1178 4863 
L 1178 0 
L 603 0 
L 603 4863 
z
" transform="scale(0.015625)"/>
       <path id="DejaVuSans-64" d="M 2906 2969 
L 2906 4863 
L 3481 4863 
L 3481 0 
L 2906 0 
L 2906 525 
Q 2725 213 2448 61 
Q 2172 -91 1784 -91 
Q 1150 -91 751 415 
Q 353 922 353 1747 
Q 353 2572 751 3078 
Q 1150 3584 1784 3584 
Q 2172 3584 2448 3432 
Q 2725 3281 2906 2969 
z
M 947 1747 
Q 947 1113 1208 752 
Q 1469 391 1925 391 
Q 2381 391 2643 752 
Q 2906 1113 2906 1747 
Q 2906 2381 2643 2742 
Q 2381 3103 1925 3103 
Q 1469 3103 1208 2742 
Q 947 2381 947 1747 
z
" transform="scale(0.015625)"/>
      </defs>
      <use xlink:href="#DejaVuSans-50"/>
      <use xlink:href="#DejaVuSans-72" transform="translate(58.552734 0)"/>
      <use xlink:href="#DejaVuSans-6f" transform="translate(97.416016 0)"/>
      <use xlink:href="#DejaVuSans-62" transform="translate(158.597656 0)"/>
      <use xlink:href="#DejaVuSans-61" transform="translate(222.074219 0)"/>
      <use xlink:href="#DejaVuSans-62" transform="translate(283.353516 0)"/>
      <use xlink:href="#DejaVuSans-69" transform="translate(346.830078 0)"/>
      <use xlink:href="#DejaVuSans-6c" transform="translate(374.613281 0)"/>
      <use xlink:href="#DejaVuSans-69" transform="translate(402.396484 0)"/>
      <use xlink:href="#DejaVuSans-64" transform="translate(430.179688 0)"/>
      <use xlink:href="#DejaVuSans-61" transform="translate(493.65625 0)"/>
      <use xlink:href="#DejaVuSans-64" transform="translate(554.935547 0)"/>
     </g>
    </g>
   </g>
   <g id="line2d_23">
    <path d="M 95.332557 651.183096 
L 102.113743 657.577881 
L 106.634534 662.978889 
L 108.89493 670.605456 
L 111.155326 679.646902 
L 113.415721 694.618999 
L 115.676117 696.776998 
L 117.936512 697.885971 
L 120.196908 700.794039 
L 124.717699 713.625799 
L 126.978094 722.023354 
L 129.23849 740.75325 
L 131.498885 789.995602 
L 133.759281 819.927228 
L 136.019676 832.074181 
L 138.280072 835.559748 
L 140.540467 833.170865 
L 142.800863 827.340588 
L 145.061258 827.955599 
L 147.321654 819.098508 
L 149.582049 832.136816 
L 151.842445 824.606888 
L 154.102841 820.341081 
L 156.363236 836.331798 
L 158.623632 819.470166 
L 160.884027 826.530762 
L 163.144423 834.064428 
L 165.404818 823.403047 
L 167.665214 830.587961 
L 169.925609 829.828397 
L 172.186005 837.227766 
L 174.4464 829.208421 
L 176.706796 839.683418 
L 178.967191 832.087736 
L 181.227587 841.81638 
L 183.487982 835.500854 
L 185.748378 843.565854 
L 188.008773 844.5425 
L 190.269169 842.955987 
L 192.529564 833.971943 
L 194.78996 841.139723 
L 197.050356 843.387597 
L 199.310751 840.622994 
L 201.571147 846.966421 
L 203.831542 835.810269 
L 206.091938 844.523097 
L 208.352333 844.461911 
L 210.612729 845.751312 
L 212.873124 844.914096 
L 215.13352 835.169567 
L 217.393915 845.977526 
L 219.654311 844.472968 
L 221.914706 837.704369 
L 224.175102 813.811024 
L 226.435497 833.957736 
L 228.695893 827.09194 
L 230.956288 830.55332 
L 233.216684 840.011213 
L 235.477079 830.16922 
L 237.737475 827.340416 
L 239.997871 789.815974 
L 242.258266 792.613202 
L 244.518662 819.319714 
L 246.779057 837.245041 
L 249.039453 836.093078 
L 251.299848 844.314352 
L 253.560244 836.154995 
L 255.820639 847.21889 
L 258.081035 842.467784 
L 260.34143 835.661067 
L 262.601826 847.424468 
L 264.862221 846.920958 
L 267.122617 847.332213 
L 269.383012 845.337515 
L 271.643408 837.816334 
L 273.903803 836.686544 
L 276.164199 846.418974 
L 278.424595 844.868072 
L 280.68499 845.179116 
L 282.945386 841.541985 
L 285.205781 844.552554 
L 287.466177 840.022794 
L 289.726572 837.457489 
L 291.986968 843.754503 
L 294.247363 840.684918 
L 296.507759 835.515105 
L 298.768154 845.908726 
L 301.02855 844.487794 
L 303.288945 840.007777 
L 305.549341 842.796686 
L 307.809736 834.435851 
L 310.070132 830.357787 
L 312.330527 840.181616 
L 314.590923 832.217831 
L 316.851318 845.104968 
L 319.111714 844.339649 
L 321.37211 848.141658 
L 323.632505 848.00725 
L 325.892901 848.353157 
L 328.153296 843.585021 
L 330.413692 848.833321 
L 332.674087 845.238323 
L 334.934483 848.989257 
L 337.194878 849.067022 
L 339.455274 846.766994 
L 341.715669 847.487831 
L 343.976065 848.342136 
L 346.23646 847.824679 
L 348.496856 842.233096 
L 350.757251 845.159487 
L 353.017647 841.613784 
L 355.278042 843.80512 
L 357.538438 838.174901 
L 359.798833 847.014986 
L 362.059229 842.010475 
L 364.319625 846.958851 
L 366.58002 845.042183 
L 368.840416 848.834874 
L 371.100811 841.040483 
L 373.361207 848.363082 
L 375.621602 847.758873 
L 377.881998 845.433207 
L 380.142393 848.542099 
L 382.402789 846.067988 
L 384.663184 847.097627 
L 386.92358 848.804623 
L 389.183975 845.573629 
L 391.444371 848.087427 
L 393.704766 848.566675 
L 395.965162 848.555064 
L 398.225557 846.588889 
L 400.485953 847.36334 
L 402.746348 847.267962 
L 405.006744 848.724661 
L 407.26714 848.383 
L 409.527535 848.998337 
L 411.787931 848.309115 
L 414.048326 844.144885 
L 416.308722 848.378731 
L 418.569117 848.862673 
L 420.829513 847.025604 
L 423.089908 844.889526 
L 425.350304 847.951748 
L 427.610699 847.782959 
L 429.871095 833.50825 
L 432.13149 842.345388 
L 434.391886 840.707893 
L 436.652281 846.016007 
L 438.912677 846.947888 
L 441.173072 847.494642 
L 443.433468 849.051249 
L 445.693864 845.430964 
L 447.954259 840.169778 
L 450.214655 849.175822 
L 452.47505 844.833148 
L 454.735446 849.175559 
L 459.256237 849.175808 
L 461.516632 846.54614 
L 463.777028 849.152158 
L 475.079005 849.175994 
L 479.599796 849.175994 
L 481.860192 848.344944 
L 484.120587 849.170628 
L 490.901774 849.175994 
L 493.16217 841.094687 
L 495.422565 849.175994 
L 502.203752 849.175994 
L 504.464147 848.73948 
L 506.724543 849.175994 
L 524.807707 849.175994 
L 527.068102 848.507851 
L 529.328498 849.175994 
L 549.672058 849.175994 
L 551.932453 836.912317 
L 554.192849 849.175994 
L 633.306692 849.175994 
L 635.567088 845.123567 
L 637.827483 836.95687 
L 640.087879 849.17599 
L 662.691834 849.175989 
L 664.95223 848.799435 
L 667.212625 849.175994 
L 669.473021 849.175994 
L 671.733416 837.007886 
L 673.993812 849.175994 
L 676.254207 836.899148 
L 678.514603 849.175994 
L 689.81658 849.175439 
L 692.076976 848.951361 
L 694.337371 849.175994 
L 728.243304 849.175994 
L 730.5037 843.019042 
L 732.764095 849.175836 
L 735.024491 836.9075 
L 737.284886 849.175994 
L 773.451215 849.175994 
L 775.71161 836.897698 
L 777.972006 849.175994 
L 1013.053141 849.175994 
L 1015.313536 837.097531 
L 1017.573932 849.175994 
L 1056.000656 849.175994 
L 1058.261051 836.998492 
L 1060.521447 849.175994 
L 1087.646193 849.175994 
L 1087.646193 849.175994 
" clip-path="url(#paa9aa98570)" style="fill: none; stroke-dasharray: 9.25,4; stroke-dashoffset: 0; stroke: #000000; stroke-width: 2.5"/>
   </g>
   <g id="line2d_24">
    <path d="M 95.332557 651.541298 
L 99.853348 650.621605 
L 102.113743 650.052454 
L 104.374139 649.246586 
L 106.634534 649.246937 
L 108.89493 646.341283 
L 113.415721 637.551582 
L 115.676117 637.057768 
L 117.936512 637.140906 
L 122.457303 635.114394 
L 124.717699 635.451584 
L 126.978094 627.133607 
L 129.23849 609.046359 
L 131.498885 584.592964 
L 133.759281 602.121977 
L 136.019676 614.259938 
L 138.280072 539.755477 
L 140.540467 563.782806 
L 142.800863 618.166948 
L 145.061258 616.952419 
L 147.321654 605.670972 
L 149.582049 534.509548 
L 151.842445 523.10289 
L 154.102841 614.014577 
L 156.363236 673.989429 
L 158.623632 659.866467 
L 160.884027 592.682189 
L 163.144423 511.99805 
L 165.404818 571.139814 
L 167.665214 639.48678 
L 169.925609 685.095312 
L 172.186005 688.584161 
L 174.4464 653.078048 
L 176.706796 566.0298 
L 178.967191 545.960877 
L 181.227587 625.035928 
L 183.487982 635.484474 
L 185.748378 586.239042 
L 188.008773 593.808872 
L 190.269169 576.079593 
L 192.529564 634.873625 
L 194.78996 654.510893 
L 197.050356 640.025337 
L 199.310751 632.364802 
L 201.571147 621.841856 
L 203.831542 574.405147 
L 206.091938 531.826086 
L 208.352333 553.022417 
L 210.612729 610.782673 
L 212.873124 612.122904 
L 215.13352 660.666549 
L 217.393915 645.847773 
L 219.654311 594.283009 
L 221.914706 564.416494 
L 224.175102 596.866021 
L 226.435497 618.71087 
L 228.695893 594.074567 
L 230.956288 600.003824 
L 233.216684 659.541646 
L 235.477079 632.416268 
L 237.737475 576.435382 
L 239.997871 586.702824 
L 242.258266 591.950183 
L 244.518662 592.526268 
L 249.039453 521.003314 
L 251.299848 563.052415 
L 253.560244 624.660695 
L 255.820639 639.197472 
L 258.081035 595.407044 
L 260.34143 609.926299 
L 262.601826 600.539172 
L 264.862221 618.038458 
L 267.122617 588.765762 
L 269.383012 527.760882 
L 271.643408 560.336954 
L 273.903803 670.873458 
L 276.164199 699.942889 
L 278.424595 627.235672 
L 280.68499 587.391891 
L 282.945386 563.54644 
L 285.205781 528.732416 
L 287.466177 592.090854 
L 289.726572 625.069333 
L 291.986968 616.582597 
L 294.247363 642.05576 
L 296.507759 614.458471 
L 298.768154 592.725644 
L 301.02855 600.869147 
L 305.549341 592.268398 
L 307.809736 593.52268 
L 310.070132 615.946214 
L 312.330527 667.112507 
L 314.590923 666.224017 
L 316.851318 638.186161 
L 319.111714 604.159428 
L 321.37211 584.142839 
L 323.632505 613.115639 
L 325.892901 640.401062 
L 328.153296 636.200012 
L 330.413692 554.195858 
L 332.674087 579.834968 
L 334.934483 601.990816 
L 337.194878 622.061027 
L 339.455274 594.532539 
L 341.715669 623.163207 
L 343.976065 588.477462 
L 346.23646 523.367437 
L 348.496856 580.317655 
L 350.757251 617.15997 
L 353.017647 619.413079 
L 355.278042 567.145519 
L 357.538438 582.624361 
L 359.798833 631.938712 
L 362.059229 603.140035 
L 364.319625 599.459879 
L 366.58002 652.002738 
L 368.840416 693.327867 
L 371.100811 626.959038 
L 373.361207 564.381215 
L 375.621602 530.315362 
L 377.881998 580.536029 
L 380.142393 576.157741 
L 382.402789 582.748634 
L 384.663184 574.868741 
L 386.92358 648.169027 
L 389.183975 646.347982 
L 391.444371 584.974335 
L 393.704766 533.611874 
L 395.965162 586.332417 
L 398.225557 630.8943 
L 400.485953 627.276785 
L 402.746348 591.750994 
L 405.006744 542.161485 
L 407.26714 556.323802 
L 409.527535 528.589355 
L 411.787931 542.02243 
L 414.048326 612.29164 
L 416.308722 660.661957 
L 418.569117 692.041398 
L 420.829513 677.202886 
L 423.089908 621.749512 
L 425.350304 602.350448 
L 427.610699 634.611585 
L 432.13149 744.792112 
L 434.391886 773.045385 
L 436.652281 783.804825 
L 438.912677 775.451387 
L 441.173072 785.515816 
L 443.433468 805.983233 
L 445.693864 815.342585 
L 447.954259 839.100838 
L 450.214655 832.522437 
L 452.47505 828.395115 
L 454.735446 839.27093 
L 456.995841 846.971827 
L 459.256237 848.201552 
L 461.516632 848.975075 
L 463.777028 848.828673 
L 466.037423 848.932628 
L 468.297819 848.233168 
L 470.558214 847.013715 
L 472.81861 848.54941 
L 475.079005 847.919837 
L 477.339401 848.57376 
L 479.599796 849.052614 
L 481.860192 848.847075 
L 484.120587 849.003769 
L 486.380983 847.7893 
L 488.641379 848.666186 
L 490.901774 849.102278 
L 493.16217 849.124859 
L 495.422565 848.875677 
L 502.203752 849.154625 
L 506.724543 849.169821 
L 511.245334 849.085587 
L 513.505729 848.61377 
L 515.766125 848.727196 
L 518.02652 848.692883 
L 520.286916 849.086287 
L 524.807707 848.675293 
L 527.068102 849.139805 
L 531.588894 849.138845 
L 533.849289 848.881406 
L 536.109685 846.496588 
L 538.37008 849.0894 
L 542.890871 849.146639 
L 545.151267 848.882579 
L 549.672058 848.971368 
L 551.932453 844.864805 
L 554.192849 849.150243 
L 556.453244 849.089004 
L 560.974035 849.170572 
L 563.234431 849.146165 
L 565.494826 848.965365 
L 572.276013 849.145427 
L 574.536409 848.547082 
L 576.796804 847.729016 
L 579.0572 831.995418 
L 581.317595 849.175803 
L 588.098782 849.150442 
L 590.359177 848.865837 
L 592.619573 849.173638 
L 622.004715 849.172292 
L 624.26511 848.488928 
L 626.525506 849.175501 
L 651.389856 849.174087 
L 653.650252 848.887432 
L 655.910648 849.170896 
L 658.171043 849.02234 
L 660.431439 849.173421 
L 671.733416 849.173326 
L 673.993812 849.017405 
L 676.254207 849.172112 
L 716.941327 849.175615 
L 723.722513 849.129134 
L 730.5037 849.175994 
L 757.628446 849.175353 
L 759.888842 848.948141 
L 762.149237 849.153173 
L 771.190819 849.175968 
L 839.002685 849.17388 
L 841.263081 849.046755 
L 843.523476 849.165875 
L 884.210596 849.073346 
L 886.470991 813.483764 
L 888.731387 849.175991 
L 1087.646193 849.175727 
L 1087.646193 849.175727 
" clip-path="url(#paa9aa98570)" style="fill: none; stroke: #1f77b4; stroke-width: 2; stroke-linecap: square"/>
   </g>
   <g id="line2d_25">
    <path d="M 95.332557 658.179582 
L 97.592952 657.084664 
L 99.853348 657.122731 
L 102.113743 655.655614 
L 104.374139 655.179194 
L 106.634534 657.257616 
L 108.89493 658.837926 
L 111.155326 662.767694 
L 113.415721 663.617321 
L 115.676117 657.81557 
L 117.936512 652.818737 
L 120.196908 649.904989 
L 122.457303 642.527952 
L 124.717699 635.615377 
L 126.978094 631.823129 
L 129.23849 635.034185 
L 131.498885 623.066669 
L 133.759281 611.928494 
L 136.019676 618.826522 
L 138.280072 638.515175 
L 140.540467 575.254024 
L 142.800863 562.323173 
L 145.061258 574.210807 
L 147.321654 650.807441 
L 149.582049 681.286256 
L 151.842445 660.220125 
L 154.102841 606.208897 
L 156.363236 576.026838 
L 158.623632 566.601879 
L 160.884027 630.194785 
L 163.144423 654.787106 
L 165.404818 626.457517 
L 167.665214 580.898964 
L 169.925609 526.496128 
L 172.186005 475.719896 
L 174.4464 597.376303 
L 176.706796 629.314915 
L 178.967191 635.888192 
L 181.227587 574.620359 
L 183.487982 546.061233 
L 185.748378 547.070413 
L 188.008773 527.558156 
L 190.269169 574.549144 
L 192.529564 598.47354 
L 194.78996 572.976764 
L 197.050356 562.086292 
L 199.310751 578.846075 
L 201.571147 594.168644 
L 203.831542 594.64681 
L 206.091938 572.770102 
L 208.352333 590.859435 
L 210.612729 602.419062 
L 212.873124 596.693163 
L 215.13352 511.234536 
L 217.393915 552.201393 
L 219.654311 570.250714 
L 221.914706 613.311712 
L 224.175102 616.602298 
L 226.435497 600.476977 
L 228.695893 597.59435 
L 230.956288 586.320844 
L 233.216684 578.58947 
L 235.477079 553.622654 
L 237.737475 598.467566 
L 239.997871 620.45496 
L 242.258266 618.79628 
L 244.518662 603.602224 
L 246.779057 630.032117 
L 249.039453 637.72772 
L 251.299848 655.873344 
L 253.560244 633.851468 
L 255.820639 539.366283 
L 258.081035 552.478847 
L 260.34143 556.507811 
L 262.601826 551.751338 
L 264.862221 593.944085 
L 267.122617 607.589936 
L 269.383012 598.080878 
L 271.643408 587.092065 
L 273.903803 484.123494 
L 276.164199 518.718066 
L 278.424595 612.391621 
L 280.68499 599.22506 
L 282.945386 600.800978 
L 285.205781 598.485159 
L 287.466177 566.75506 
L 289.726572 586.535588 
L 291.986968 574.661283 
L 294.247363 580.621088 
L 296.507759 593.101205 
L 298.768154 601.696847 
L 301.02855 612.047755 
L 303.288945 589.891063 
L 305.549341 557.727752 
L 307.809736 563.331931 
L 310.070132 566.560064 
L 312.330527 546.758757 
L 316.851318 589.571302 
L 319.111714 566.153066 
L 321.37211 518.433959 
L 323.632505 550.684555 
L 325.892901 547.535952 
L 328.153296 565.598134 
L 330.413692 589.358995 
L 332.674087 583.93264 
L 334.934483 558.151382 
L 337.194878 507.721734 
L 339.455274 570.681841 
L 341.715669 545.288021 
L 343.976065 559.672859 
L 346.23646 609.731046 
L 348.496856 611.164676 
L 350.757251 589.26555 
L 353.017647 581.941759 
L 355.278042 566.859655 
L 357.538438 575.506741 
L 359.798833 574.227814 
L 362.059229 610.367569 
L 364.319625 615.503843 
L 368.840416 518.536985 
L 371.100811 542.704048 
L 373.361207 597.633986 
L 375.621602 626.145698 
L 377.881998 625.456396 
L 380.142393 562.315443 
L 382.402789 535.354607 
L 384.663184 564.172305 
L 386.92358 538.533077 
L 389.183975 516.957812 
L 391.444371 568.396194 
L 393.704766 598.585796 
L 395.965162 599.084553 
L 398.225557 545.663277 
L 400.485953 511.847025 
L 402.746348 514.767039 
L 405.006744 571.937389 
L 407.26714 529.649744 
L 409.527535 554.633754 
L 411.787931 569.913642 
L 414.048326 565.855114 
L 416.308722 559.471444 
L 418.569117 506.771681 
L 420.829513 482.730016 
L 423.089908 475.012135 
L 425.350304 508.614558 
L 429.871095 413.575683 
L 432.13149 362.493956 
L 434.391886 350.377243 
L 436.652281 308.226568 
L 438.912677 298.81721 
L 441.173072 215.298092 
L 443.433468 158.197129 
L 445.693864 131.595643 
L 447.954259 87.841619 
L 450.214655 85.514556 
L 452.47505 106.098539 
L 454.735446 89.731793 
L 456.995841 93.257315 
L 459.256237 84.358872 
L 461.516632 67.520941 
L 466.037423 64.993307 
L 468.297819 65.118822 
L 470.558214 65.360013 
L 472.81861 63.782994 
L 475.079005 64.400543 
L 477.339401 63.744623 
L 479.599796 63.270955 
L 481.860192 64.325253 
L 484.120587 63.406403 
L 486.380983 64.58823 
L 488.641379 63.708547 
L 490.901774 63.44379 
L 493.16217 71.852729 
L 495.422565 63.965387 
L 499.943356 63.516644 
L 502.203752 63.488486 
L 504.464147 63.986142 
L 506.724543 63.792271 
L 508.984938 63.337906 
L 511.245334 63.252589 
L 513.505729 63.70419 
L 515.766125 63.598915 
L 518.02652 63.623372 
L 520.286916 63.22982 
L 527.068102 63.843995 
L 529.328498 63.166523 
L 531.588894 63.177112 
L 533.849289 63.534354 
L 536.109685 65.820656 
L 538.37008 63.227992 
L 542.890871 63.188544 
L 545.151267 63.433014 
L 549.672058 63.344231 
L 551.932453 79.714491 
L 554.192849 63.165352 
L 556.453244 63.226634 
L 560.974035 63.157013 
L 563.234431 63.169428 
L 565.494826 63.350322 
L 572.276013 63.170178 
L 574.536409 63.768564 
L 576.796804 64.58659 
L 579.0572 80.320233 
L 581.317595 63.144737 
L 588.098782 63.165118 
L 590.359177 63.44974 
L 592.619573 63.164087 
L 601.661155 63.206253 
L 622.004715 63.143379 
L 624.26511 63.826707 
L 626.525506 63.140099 
L 633.306692 63.142301 
L 635.567088 67.192278 
L 637.827483 75.358902 
L 640.087879 63.139631 
L 651.389856 63.141505 
L 653.650252 63.428282 
L 655.910648 63.144691 
L 658.171043 63.293303 
L 660.431439 63.142161 
L 662.691834 63.147736 
L 664.95223 63.517909 
L 667.212625 63.196368 
L 669.473021 63.150875 
L 671.733416 75.310411 
L 673.993812 63.298223 
L 676.254207 75.420371 
L 678.514603 63.139818 
L 689.81658 63.144691 
L 692.076976 63.36433 
L 694.337371 63.139631 
L 728.243304 63.139631 
L 730.5037 69.296563 
L 732.764095 63.139818 
L 735.024491 75.40819 
L 737.284886 63.153967 
L 741.805678 63.142348 
L 757.628446 63.140287 
L 759.888842 63.367469 
L 762.149237 63.162447 
L 771.190819 63.139631 
L 773.451215 63.139865 
L 775.71161 75.429226 
L 777.972006 63.140287 
L 805.096752 63.156731 
L 820.919521 63.142348 
L 823.179917 63.200022 
L 827.700708 63.140287 
L 852.565058 63.178986 
L 859.346245 63.141692 
L 884.210596 63.242235 
L 886.470991 98.831838 
L 888.731387 63.139631 
L 1013.053141 63.140755 
L 1015.313536 75.218863 
L 1017.573932 63.139818 
L 1056.000656 63.139631 
L 1058.261051 75.317158 
L 1060.521447 63.14024 
L 1083.125402 63.141786 
L 1085.385798 63.267863 
L 1087.646193 63.139912 
L 1087.646193 63.139912 
" clip-path="url(#paa9aa98570)" style="fill: none; stroke: #ff7f0e; stroke-width: 2; stroke-linecap: square"/>
   </g>
   <g id="line2d_26">
    <path d="M 95.332557 649.763638 
L 97.592952 649.133369 
L 99.853348 647.472534 
L 102.113743 647.381642 
L 104.374139 645.990576 
L 106.634534 641.184136 
L 108.89493 634.882948 
L 111.155326 626.355662 
L 113.415721 614.879689 
L 115.676117 619.017278 
L 117.936512 622.822011 
L 120.196908 623.879659 
L 122.457303 625.838306 
L 124.717699 625.974807 
L 126.978094 629.687501 
L 129.23849 625.833784 
L 131.498885 613.012355 
L 133.759281 576.689903 
L 136.019676 545.506981 
L 138.280072 596.837207 
L 140.540467 638.45996 
L 142.800863 602.836883 
L 145.061258 591.54876 
L 147.321654 535.090693 
L 149.582049 562.734997 
L 151.842445 602.737698 
L 154.102841 570.103062 
L 156.363236 524.319551 
L 158.623632 564.729111 
L 160.884027 561.25988 
L 163.144423 609.818025 
L 165.404818 589.66723 
L 167.665214 559.693918 
L 169.925609 569.247766 
L 172.186005 609.135751 
L 174.4464 531.004851 
L 176.706796 575.639494 
L 178.967191 596.730808 
L 181.227587 569.194941 
L 183.487982 593.621045 
L 185.748378 633.792294 
L 188.008773 644.758056 
L 190.269169 617.082876 
L 192.529564 543.348513 
L 194.78996 542.04021 
L 197.050356 565.168413 
L 199.310751 558.83375 
L 201.571147 547.690726 
L 206.091938 661.548339 
L 208.352333 622.323863 
L 210.612729 551.71456 
L 212.873124 556.937415 
L 215.13352 603.597 
L 217.393915 566.640953 
L 219.654311 601.660889 
L 221.914706 595.235053 
L 224.175102 583.388297 
L 226.435497 557.522004 
L 228.695893 591.906751 
L 230.956288 593.789593 
L 233.216684 532.525296 
L 235.477079 594.459498 
L 237.737475 608.424266 
L 239.997871 613.693856 
L 242.258266 607.307937 
L 244.518662 595.219404 
L 246.779057 587.327213 
L 249.039453 615.843469 
L 251.299848 547.427491 
L 253.560244 516.000473 
L 255.820639 584.884942 
L 258.081035 620.313938 
L 260.34143 608.572457 
L 262.601826 610.952649 
L 264.862221 551.764082 
L 267.122617 566.979712 
L 269.383012 639.488302 
L 271.643408 625.422265 
L 273.903803 618.98413 
L 276.164199 545.587706 
L 278.424595 526.172244 
L 280.68499 578.871539 
L 282.945386 604.778242 
L 285.205781 638.897482 
L 287.466177 611.798903 
L 289.726572 561.605175 
L 291.986968 575.669221 
L 294.247363 547.305865 
L 296.507759 567.592833 
L 298.768154 570.336405 
L 301.02855 553.262929 
L 303.288945 584.113393 
L 305.549341 617.874736 
L 307.809736 619.377144 
L 310.070132 597.803541 
L 312.330527 556.614796 
L 314.590923 543.875474 
L 316.851318 537.805217 
L 319.111714 596.01548 
L 321.37211 659.949136 
L 323.632505 598.860181 
L 325.892901 574.377434 
L 328.153296 565.28444 
L 330.413692 618.279462 
L 332.674087 601.661662 
L 334.934483 601.53617 
L 337.194878 631.817858 
L 339.455274 598.686222 
L 341.715669 594.728519 
L 343.976065 614.17516 
L 346.23646 629.744449 
L 348.496856 576.952177 
L 350.757251 559.082578 
L 353.017647 567.698975 
L 355.278042 632.857327 
L 357.538438 614.361652 
L 359.798833 557.486092 
L 362.059229 555.149518 
L 364.319625 548.745023 
L 366.58002 547.060715 
L 368.840416 549.967892 
L 371.100811 599.964071 
L 373.361207 600.289337 
L 375.621602 606.447651 
L 377.881998 559.24199 
L 380.142393 623.652312 
L 382.402789 646.496384 
L 384.663184 624.528949 
L 386.92358 575.160907 
L 389.183975 601.788184 
L 391.444371 609.209683 
L 393.704766 629.903299 
L 395.965162 576.695548 
L 398.225557 587.521154 
L 400.485953 624.180491 
L 402.746348 656.881645 
L 405.006744 647.844065 
L 407.26714 676.311034 
L 409.527535 678.446123 
L 411.787931 650.422439 
L 414.048326 588.375935 
L 416.308722 542.155488 
L 418.569117 562.99179 
L 420.829513 603.709139 
L 423.089908 669.016455 
L 425.350304 651.750864 
L 427.610699 666.102953 
L 429.871095 674.657788 
L 432.13149 661.036195 
L 434.391886 646.537122 
L 436.652281 672.620196 
L 438.912677 689.451147 
L 441.173072 762.359045 
L 443.433468 797.436005 
L 445.693864 818.298397 
L 447.954259 843.555364 
L 450.214655 843.454837 
L 452.47505 831.340815 
L 454.735446 832.489355 
L 456.995841 821.262675 
L 459.256237 828.931359 
L 461.516632 847.625419 
L 463.777028 846.447492 
L 466.037423 847.565668 
L 468.297819 848.139635 
L 470.558214 849.117916 
L 477.339401 849.173282 
L 488.641379 849.116843 
L 490.901774 848.945567 
L 493.16217 848.595311 
L 504.464147 848.820393 
L 506.724543 848.52951 
L 508.984938 848.98203 
L 511.245334 849.171426 
L 624.26511 849.175994 
L 1087.646193 849.175994 
L 1087.646193 849.175994 
" clip-path="url(#paa9aa98570)" style="fill: none; stroke: #2ca02c; stroke-width: 2; stroke-linecap: square"/>
   </g>
   <g id="patch_3">
    <path d="M 45.716875 888.477813 
L 45.716875 23.837812 
" style="fill: none; stroke: #000000; stroke-width: 0.8; stroke-linejoin: miter; stroke-linecap: square"/>
   </g>
   <g id="patch_4">
    <path d="M 1137.261875 888.477813 
L 1137.261875 23.837812 
" style="fill: none; stroke: #000000; stroke-width: 0.8; stroke-linejoin: miter; stroke-linecap: square"/>
   </g>
   <g id="patch_5">
    <path d="M 45.716875 888.477813 
L 1137.261875 888.477813 
" style="fill: none; stroke: #000000; stroke-width: 0.8; stroke-linejoin: miter; stroke-linecap: square"/>
   </g>
   <g id="patch_6">
    <path d="M 45.716875 23.837812 
L 1137.261875 23.837812 
" style="fill: none; stroke: #000000; stroke-width: 0.8; stroke-linejoin: miter; stroke-linecap: square"/>
   </g>
   <g id="text_14">
    <!-- Link 2: Evolución de Probabilidades de Acción -->
    <g transform="translate(410.401562 17.837812) scale(0.14 -0.14)">
     <defs>
      <path id="DejaVuSans-Bold-4c" d="M 588 4666 
L 1791 4666 
L 1791 909 
L 3903 909 
L 3903 0 
L 588 0 
L 588 4666 
z
" transform="scale(0.015625)"/>
      <path id="DejaVuSans-Bold-69" d="M 538 3500 
L 1656 3500 
L 1656 0 
L 538 0 
L 538 3500 
z
M 538 4863 
L 1656 4863 
L 1656 3950 
L 538 3950 
L 538 4863 
z
" transform="scale(0.015625)"/>
      <path id="DejaVuSans-Bold-6e" d="M 4056 2131 
L 4056 0 
L 2931 0 
L 2931 347 
L 2931 1631 
Q 2931 2084 2911 2256 
Q 2891 2428 2841 2509 
Q 2775 2619 2662 2680 
Q 2550 2741 2406 2741 
Q 2056 2741 1856 2470 
Q 1656 2200 1656 1722 
L 1656 0 
L 538 0 
L 538 3500 
L 1656 3500 
L 1656 2988 
Q 1909 3294 2193 3439 
Q 2478 3584 2822 3584 
Q 3428 3584 3742 3212 
Q 4056 2841 4056 2131 
z
" transform="scale(0.015625)"/>
      <path id="DejaVuSans-Bold-6b" d="M 538 4863 
L 1656 4863 
L 1656 2216 
L 2944 3500 
L 4244 3500 
L 2534 1894 
L 4378 0 
L 3022 0 
L 1656 1459 
L 1656 0 
L 538 0 
L 538 4863 
z
" transform="scale(0.015625)"/>
      <path id="DejaVuSans-Bold-20" transform="scale(0.015625)"/>
      <path id="DejaVuSans-Bold-32" d="M 1844 884 
L 3897 884 
L 3897 0 
L 506 0 
L 506 884 
L 2209 2388 
Q 2438 2594 2547 2791 
Q 2656 2988 2656 3200 
Q 2656 3528 2436 3728 
Q 2216 3928 1850 3928 
Q 1569 3928 1234 3808 
Q 900 3688 519 3450 
L 519 4475 
Q 925 4609 1322 4679 
Q 1719 4750 2100 4750 
Q 2938 4750 3402 4381 
Q 3866 4013 3866 3353 
Q 3866 2972 3669 2642 
Q 3472 2313 2841 1759 
L 1844 884 
z
" transform="scale(0.015625)"/>
      <path id="DejaVuSans-Bold-3a" d="M 716 3500 
L 1844 3500 
L 1844 2291 
L 716 2291 
L 716 3500 
z
M 716 1209 
L 1844 1209 
L 1844 0 
L 716 0 
L 716 1209 
z
" transform="scale(0.015625)"/>
      <path id="DejaVuSans-Bold-45" d="M 588 4666 
L 3834 4666 
L 3834 3756 
L 1791 3756 
L 1791 2888 
L 3713 2888 
L 3713 1978 
L 1791 1978 
L 1791 909 
L 3903 909 
L 3903 0 
L 588 0 
L 588 4666 
z
" transform="scale(0.015625)"/>
      <path id="DejaVuSans-Bold-76" d="M 97 3500 
L 1216 3500 
L 2088 1081 
L 2956 3500 
L 4078 3500 
L 2700 0 
L 1472 0 
L 97 3500 
z
" transform="scale(0.015625)"/>
      <path id="DejaVuSans-Bold-6f" d="M 2203 2784 
Q 1831 2784 1636 2517 
Q 1441 2250 1441 1747 
Q 1441 1244 1636 976 
Q 1831 709 2203 709 
Q 2569 709 2762 976 
Q 2956 1244 2956 1747 
Q 2956 2250 2762 2517 
Q 2569 2784 2203 2784 
z
M 2203 3584 
Q 3106 3584 3614 3096 
Q 4122 2609 4122 1747 
Q 4122 884 3614 396 
Q 3106 -91 2203 -91 
Q 1297 -91 786 396 
Q 275 884 275 1747 
Q 275 2609 786 3096 
Q 1297 3584 2203 3584 
z
" transform="scale(0.015625)"/>
      <path id="DejaVuSans-Bold-6c" d="M 538 4863 
L 1656 4863 
L 1656 0 
L 538 0 
L 538 4863 
z
" transform="scale(0.015625)"/>
      <path id="DejaVuSans-Bold-75" d="M 500 1363 
L 500 3500 
L 1625 3500 
L 1625 3150 
Q 1625 2866 1622 2436 
Q 1619 2006 1619 1863 
Q 1619 1441 1641 1255 
Q 1663 1069 1716 984 
Q 1784 875 1895 815 
Q 2006 756 2150 756 
Q 2500 756 2700 1025 
Q 2900 1294 2900 1772 
L 2900 3500 
L 4019 3500 
L 4019 0 
L 2900 0 
L 2900 506 
Q 2647 200 2364 54 
Q 2081 -91 1741 -91 
Q 1134 -91 817 281 
Q 500 653 500 1363 
z
" transform="scale(0.015625)"/>
      <path id="DejaVuSans-Bold-63" d="M 3366 3391 
L 3366 2478 
Q 3138 2634 2908 2709 
Q 2678 2784 2431 2784 
Q 1963 2784 1702 2511 
Q 1441 2238 1441 1747 
Q 1441 1256 1702 982 
Q 1963 709 2431 709 
Q 2694 709 2930 787 
Q 3166 866 3366 1019 
L 3366 103 
Q 3103 6 2833 -42 
Q 2563 -91 2291 -91 
Q 1344 -91 809 395 
Q 275 881 275 1747 
Q 275 2613 809 3098 
Q 1344 3584 2291 3584 
Q 2566 3584 2833 3536 
Q 3100 3488 3366 3391 
z
" transform="scale(0.015625)"/>
      <path id="DejaVuSans-Bold-f3" d="M 2203 2784 
Q 1831 2784 1636 2517 
Q 1441 2250 1441 1747 
Q 1441 1244 1636 976 
Q 1831 709 2203 709 
Q 2569 709 2762 976 
Q 2956 1244 2956 1747 
Q 2956 2250 2762 2517 
Q 2569 2784 2203 2784 
z
M 2203 3584 
Q 3106 3584 3614 3096 
Q 4122 2609 4122 1747 
Q 4122 884 3614 396 
Q 3106 -91 2203 -91 
Q 1297 -91 786 396 
Q 275 884 275 1747 
Q 275 2609 786 3096 
Q 1297 3584 2203 3584 
z
M 2694 5119 
L 3578 5119 
L 2425 3944 
L 1813 3944 
L 2694 5119 
z
" transform="scale(0.015625)"/>
      <path id="DejaVuSans-Bold-64" d="M 2919 2988 
L 2919 4863 
L 4044 4863 
L 4044 0 
L 2919 0 
L 2919 506 
Q 2688 197 2409 53 
Q 2131 -91 1766 -91 
Q 1119 -91 703 423 
Q 288 938 288 1747 
Q 288 2556 703 3070 
Q 1119 3584 1766 3584 
Q 2128 3584 2408 3439 
Q 2688 3294 2919 2988 
z
M 2181 722 
Q 2541 722 2730 984 
Q 2919 1247 2919 1747 
Q 2919 2247 2730 2509 
Q 2541 2772 2181 2772 
Q 1825 2772 1636 2509 
Q 1447 2247 1447 1747 
Q 1447 1247 1636 984 
Q 1825 722 2181 722 
z
" transform="scale(0.015625)"/>
      <path id="DejaVuSans-Bold-65" d="M 4031 1759 
L 4031 1441 
L 1416 1441 
Q 1456 1047 1700 850 
Q 1944 653 2381 653 
Q 2734 653 3104 758 
Q 3475 863 3866 1075 
L 3866 213 
Q 3469 63 3072 -14 
Q 2675 -91 2278 -91 
Q 1328 -91 801 392 
Q 275 875 275 1747 
Q 275 2603 792 3093 
Q 1309 3584 2216 3584 
Q 3041 3584 3536 3087 
Q 4031 2591 4031 1759 
z
M 2881 2131 
Q 2881 2450 2695 2645 
Q 2509 2841 2209 2841 
Q 1884 2841 1681 2658 
Q 1478 2475 1428 2131 
L 2881 2131 
z
" transform="scale(0.015625)"/>
      <path id="DejaVuSans-Bold-50" d="M 588 4666 
L 2584 4666 
Q 3475 4666 3951 4270 
Q 4428 3875 4428 3144 
Q 4428 2409 3951 2014 
Q 3475 1619 2584 1619 
L 1791 1619 
L 1791 0 
L 588 0 
L 588 4666 
z
M 1791 3794 
L 1791 2491 
L 2456 2491 
Q 2806 2491 2997 2661 
Q 3188 2831 3188 3144 
Q 3188 3456 2997 3625 
Q 2806 3794 2456 3794 
L 1791 3794 
z
" transform="scale(0.015625)"/>
      <path id="DejaVuSans-Bold-72" d="M 3138 2547 
Q 2991 2616 2845 2648 
Q 2700 2681 2553 2681 
Q 2122 2681 1889 2404 
Q 1656 2128 1656 1613 
L 1656 0 
L 538 0 
L 538 3500 
L 1656 3500 
L 1656 2925 
Q 1872 3269 2151 3426 
Q 2431 3584 2822 3584 
Q 2878 3584 2943 3579 
Q 3009 3575 3134 3559 
L 3138 2547 
z
" transform="scale(0.015625)"/>
      <path id="DejaVuSans-Bold-62" d="M 2400 722 
Q 2759 722 2948 984 
Q 3138 1247 3138 1747 
Q 3138 2247 2948 2509 
Q 2759 2772 2400 2772 
Q 2041 2772 1848 2508 
Q 1656 2244 1656 1747 
Q 1656 1250 1848 986 
Q 2041 722 2400 722 
z
M 1656 2988 
Q 1888 3294 2169 3439 
Q 2450 3584 2816 3584 
Q 3463 3584 3878 3070 
Q 4294 2556 4294 1747 
Q 4294 938 3878 423 
Q 3463 -91 2816 -91 
Q 2450 -91 2169 54 
Q 1888 200 1656 506 
L 1656 0 
L 538 0 
L 538 4863 
L 1656 4863 
L 1656 2988 
z
" transform="scale(0.015625)"/>
      <path id="DejaVuSans-Bold-61" d="M 2106 1575 
Q 1756 1575 1579 1456 
Q 1403 1338 1403 1106 
Q 1403 894 1545 773 
Q 1688 653 1941 653 
Q 2256 653 2472 879 
Q 2688 1106 2688 1447 
L 2688 1575 
L 2106 1575 
z
M 3816 1997 
L 3816 0 
L 2688 0 
L 2688 519 
Q 2463 200 2181 54 
Q 1900 -91 1497 -91 
Q 953 -91 614 226 
Q 275 544 275 1050 
Q 275 1666 698 1953 
Q 1122 2241 2028 2241 
L 2688 2241 
L 2688 2328 
Q 2688 2594 2478 2717 
Q 2269 2841 1825 2841 
Q 1466 2841 1156 2769 
Q 847 2697 581 2553 
L 581 3406 
Q 941 3494 1303 3539 
Q 1666 3584 2028 3584 
Q 2975 3584 3395 3211 
Q 3816 2838 3816 1997 
z
" transform="scale(0.015625)"/>
      <path id="DejaVuSans-Bold-73" d="M 3272 3391 
L 3272 2541 
Q 2913 2691 2578 2766 
Q 2244 2841 1947 2841 
Q 1628 2841 1473 2761 
Q 1319 2681 1319 2516 
Q 1319 2381 1436 2309 
Q 1553 2238 1856 2203 
L 2053 2175 
Q 2913 2066 3209 1816 
Q 3506 1566 3506 1031 
Q 3506 472 3093 190 
Q 2681 -91 1863 -91 
Q 1516 -91 1145 -36 
Q 775 19 384 128 
L 384 978 
Q 719 816 1070 734 
Q 1422 653 1784 653 
Q 2113 653 2278 743 
Q 2444 834 2444 1013 
Q 2444 1163 2330 1236 
Q 2216 1309 1875 1350 
L 1678 1375 
Q 931 1469 631 1722 
Q 331 1975 331 2491 
Q 331 3047 712 3315 
Q 1094 3584 1881 3584 
Q 2191 3584 2531 3537 
Q 2872 3491 3272 3391 
z
" transform="scale(0.015625)"/>
      <path id="DejaVuSans-Bold-41" d="M 3419 850 
L 1538 850 
L 1241 0 
L 31 0 
L 1759 4666 
L 3194 4666 
L 4922 0 
L 3713 0 
L 3419 850 
z
M 1838 1716 
L 3116 1716 
L 2478 3572 
L 1838 1716 
z
" transform="scale(0.015625)"/>
     </defs>
     <use xlink:href="#DejaVuSans-Bold-4c"/>
     <use xlink:href="#DejaVuSans-Bold-69" transform="translate(63.720703 0)"/>
     <use xlink:href="#DejaVuSans-Bold-6e" transform="translate(97.998047 0)"/>
     <use xlink:href="#DejaVuSans-Bold-6b" transform="translate(169.189453 0)"/>
     <use xlink:href="#DejaVuSans-Bold-20" transform="translate(235.693359 0)"/>
     <use xlink:href="#DejaVuSans-Bold-32" transform="translate(270.507812 0)"/>
     <use xlink:href="#DejaVuSans-Bold-3a" transform="translate(340.087891 0)"/>
     <use xlink:href="#DejaVuSans-Bold-20" transform="translate(380.078125 0)"/>
     <use xlink:href="#DejaVuSans-Bold-45" transform="translate(414.892578 0)"/>
     <use xlink:href="#DejaVuSans-Bold-76" transform="translate(483.203125 0)"/>
     <use xlink:href="#DejaVuSans-Bold-6f" transform="translate(548.388672 0)"/>
     <use xlink:href="#DejaVuSans-Bold-6c" transform="translate(617.089844 0)"/>
     <use xlink:href="#DejaVuSans-Bold-75" transform="translate(651.367188 0)"/>
     <use xlink:href="#DejaVuSans-Bold-63" transform="translate(722.558594 0)"/>
     <use xlink:href="#DejaVuSans-Bold-69" transform="translate(781.835938 0)"/>
     <use xlink:href="#DejaVuSans-Bold-f3" transform="translate(816.113281 0)"/>
     <use xlink:href="#DejaVuSans-Bold-6e" transform="translate(884.814453 0)"/>
     <use xlink:href="#DejaVuSans-Bold-20" transform="translate(956.005859 0)"/>
     <use xlink:href="#DejaVuSans-Bold-64" transform="translate(990.820312 0)"/>
     <use xlink:href="#DejaVuSans-Bold-65" transform="translate(1062.402344 0)"/>
     <use xlink:href="#DejaVuSans-Bold-20" transform="translate(1130.224609 0)"/>
     <use xlink:href="#DejaVuSans-Bold-50" transform="translate(1165.039062 0)"/>
     <use xlink:href="#DejaVuSans-Bold-72" transform="translate(1238.330078 0)"/>
     <use xlink:href="#DejaVuSans-Bold-6f" transform="translate(1287.646484 0)"/>
     <use xlink:href="#DejaVuSans-Bold-62" transform="translate(1356.347656 0)"/>
     <use xlink:href="#DejaVuSans-Bold-61" transform="translate(1427.929688 0)"/>
     <use xlink:href="#DejaVuSans-Bold-62" transform="translate(1495.410156 0)"/>
     <use xlink:href="#DejaVuSans-Bold-69" transform="translate(1566.992188 0)"/>
     <use xlink:href="#DejaVuSans-Bold-6c" transform="translate(1601.269531 0)"/>
     <use xlink:href="#DejaVuSans-Bold-69" transform="translate(1635.546875 0)"/>
     <use xlink:href="#DejaVuSans-Bold-64" transform="translate(1669.824219 0)"/>
     <use xlink:href="#DejaVuSans-Bold-61" transform="translate(1741.40625 0)"/>
     <use xlink:href="#DejaVuSans-Bold-64" transform="translate(1808.886719 0)"/>
     <use xlink:href="#DejaVuSans-Bold-65" transform="translate(1880.46875 0)"/>
     <use xlink:href="#DejaVuSans-Bold-73" transform="translate(1948.291016 0)"/>
     <use xlink:href="#DejaVuSans-Bold-20" transform="translate(2007.8125 0)"/>
     <use xlink:href="#DejaVuSans-Bold-64" transform="translate(2042.626953 0)"/>
     <use xlink:href="#DejaVuSans-Bold-65" transform="translate(2114.208984 0)"/>
     <use xlink:href="#DejaVuSans-Bold-20" transform="translate(2182.03125 0)"/>
     <use xlink:href="#DejaVuSans-Bold-41" transform="translate(2216.845703 0)"/>
     <use xlink:href="#DejaVuSans-Bold-63" transform="translate(2294.238281 0)"/>
     <use xlink:href="#DejaVuSans-Bold-63" transform="translate(2353.515625 0)"/>
     <use xlink:href="#DejaVuSans-Bold-69" transform="translate(2412.792969 0)"/>
     <use xlink:href="#DejaVuSans-Bold-f3" transform="translate(2447.070312 0)"/>
     <use xlink:href="#DejaVuSans-Bold-6e" transform="translate(2515.771484 0)"/>
    </g>
   </g>
   <g id="legend_1">
    <g id="patch_7">
     <path d="M 53.416875 97.221562 
L 130.301719 97.221562 
Q 132.501719 97.221562 132.501719 95.021562 
L 132.501719 31.537812 
Q 132.501719 29.337812 130.301719 29.337812 
L 53.416875 29.337812 
Q 51.216875 29.337812 51.216875 31.537812 
L 51.216875 95.021562 
Q 51.216875 97.221562 53.416875 97.221562 
z
" style="fill: #ffffff; opacity: 0.8; stroke: #cccccc; stroke-linejoin: miter"/>
    </g>
    <g id="line2d_27">
     <path d="M 55.616875 38.246094 
L 66.616875 38.246094 
L 77.616875 38.246094 
" style="fill: none; stroke-dasharray: 9.25,4; stroke-dashoffset: 0; stroke: #000000; stroke-width: 2.5"/>
    </g>
    <g id="text_15">
     <!-- No TX -->
     <g transform="translate(86.416875 42.096094) scale(0.11 -0.11)">
      <defs>
       <path id="DejaVuSans-4e" d="M 628 4666 
L 1478 4666 
L 3547 763 
L 3547 4666 
L 4159 4666 
L 4159 0 
L 3309 0 
L 1241 3903 
L 1241 0 
L 628 0 
L 628 4666 
z
" transform="scale(0.015625)"/>
       <path id="DejaVuSans-54" d="M -19 4666 
L 3928 4666 
L 3928 4134 
L 2272 4134 
L 2272 0 
L 1638 0 
L 1638 4134 
L -19 4134 
L -19 4666 
z
" transform="scale(0.015625)"/>
       <path id="DejaVuSans-58" d="M 403 4666 
L 1081 4666 
L 2241 2931 
L 3406 4666 
L 4084 4666 
L 2584 2425 
L 4184 0 
L 3506 0 
L 2194 1984 
L 872 0 
L 191 0 
L 1856 2491 
L 403 4666 
z
" transform="scale(0.015625)"/>
      </defs>
      <use xlink:href="#DejaVuSans-4e"/>
      <use xlink:href="#DejaVuSans-6f" transform="translate(74.804688 0)"/>
      <use xlink:href="#DejaVuSans-20" transform="translate(135.986328 0)"/>
      <use xlink:href="#DejaVuSans-54" transform="translate(167.773438 0)"/>
      <use xlink:href="#DejaVuSans-58" transform="translate(228.857422 0)"/>
     </g>
    </g>
    <g id="line2d_28">
     <path d="M 55.616875 54.392031 
L 66.616875 54.392031 
L 77.616875 54.392031 
" style="fill: none; stroke: #1f77b4; stroke-width: 2; stroke-linecap: square"/>
    </g>
    <g id="text_16">
     <!-- Canal 0 -->
     <g transform="translate(86.416875 58.242031) scale(0.11 -0.11)">
      <defs>
       <path id="DejaVuSans-43" d="M 4122 4306 
L 4122 3641 
Q 3803 3938 3442 4084 
Q 3081 4231 2675 4231 
Q 1875 4231 1450 3742 
Q 1025 3253 1025 2328 
Q 1025 1406 1450 917 
Q 1875 428 2675 428 
Q 3081 428 3442 575 
Q 3803 722 4122 1019 
L 4122 359 
Q 3791 134 3420 21 
Q 3050 -91 2638 -91 
Q 1578 -91 968 557 
Q 359 1206 359 2328 
Q 359 3453 968 4101 
Q 1578 4750 2638 4750 
Q 3056 4750 3426 4639 
Q 3797 4528 4122 4306 
z
" transform="scale(0.015625)"/>
      </defs>
      <use xlink:href="#DejaVuSans-43"/>
      <use xlink:href="#DejaVuSans-61" transform="translate(69.824219 0)"/>
      <use xlink:href="#DejaVuSans-6e" transform="translate(131.103516 0)"/>
      <use xlink:href="#DejaVuSans-61" transform="translate(194.482422 0)"/>
      <use xlink:href="#DejaVuSans-6c" transform="translate(255.761719 0)"/>
      <use xlink:href="#DejaVuSans-20" transform="translate(283.544922 0)"/>
      <use xlink:href="#DejaVuSans-30" transform="translate(315.332031 0)"/>
     </g>
    </g>
    <g id="line2d_29">
     <path d="M 55.616875 70.537969 
L 66.616875 70.537969 
L 77.616875 70.537969 
" style="fill: none; stroke: #ff7f0e; stroke-width: 2; stroke-linecap: square"/>
    </g>
    <g id="text_17">
     <!-- Canal 1 -->
     <g transform="translate(86.416875 74.387969) scale(0.11 -0.11)">
      <use xlink:href="#DejaVuSans-43"/>
      <use xlink:href="#DejaVuSans-61" transform="translate(69.824219 0)"/>
      <use xlink:href="#DejaVuSans-6e" transform="translate(131.103516 0)"/>
      <use xlink:href="#DejaVuSans-61" transform="translate(194.482422 0)"/>
      <use xlink:href="#DejaVuSans-6c" transform="translate(255.761719 0)"/>
      <use xlink:href="#DejaVuSans-20" transform="translate(283.544922 0)"/>
      <use xlink:href="#DejaVuSans-31" transform="translate(315.332031 0)"/>
     </g>
    </g>
    <g id="line2d_30">
     <path d="M 55.616875 86.683906 
L 66.616875 86.683906 
L 77.616875 86.683906 
" style="fill: none; stroke: #2ca02c; stroke-width: 2; stroke-linecap: square"/>
    </g>
    <g id="text_18">
     <!-- Canal 2 -->
     <g transform="translate(86.416875 90.533906) scale(0.11 -0.11)">
      <use xlink:href="#DejaVuSans-43"/>
      <use xlink:href="#DejaVuSans-61" transform="translate(69.824219 0)"/>
      <use xlink:href="#DejaVuSans-6e" transform="translate(131.103516 0)"/>
      <use xlink:href="#DejaVuSans-61" transform="translate(194.482422 0)"/>
      <use xlink:href="#DejaVuSans-6c" transform="translate(255.761719 0)"/>
      <use xlink:href="#DejaVuSans-20" transform="translate(283.544922 0)"/>
      <use xlink:href="#DejaVuSans-32" transform="translate(315.332031 0)"/>
     </g>
    </g>
   </g>
  </g>
 </g>
 <defs>
  <clipPath id="paa9aa98570">
   <rect x="45.716875" y="23.837812" width="1091.545" height="864.64"/>
  </clipPath>
 </defs>
</svg>
