<?xml version="1.0" encoding="utf-8" standalone="no"?>
<!DOCTYPE svg PUBLIC "-//W3C//DTD SVG 1.1//EN"
  "http://www.w3.org/Graphics/SVG/1.1/DTD/svg11.dtd">
<svg xmlns:xlink="http://www.w3.org/1999/xlink" width="1144.461875pt" height="927.969688pt" viewBox="0 0 1144.461875 927.969688" xmlns="http://www.w3.org/2000/svg" version="1.1">
 <metadata>
  <rdf:RDF xmlns:dc="http://purl.org/dc/elements/1.1/" xmlns:cc="http://creativecommons.org/ns#" xmlns:rdf="http://www.w3.org/1999/02/22-rdf-syntax-ns#">
   <cc:Work>
    <dc:type rdf:resource="http://purl.org/dc/dcmitype/StillImage"/>
    <dc:date>2025-10-17T20:07:16.394369</dc:date>
    <dc:format>image/svg+xml</dc:format>
    <dc:creator>
     <cc:Agent>
      <dc:title>Matplotlib v3.10.1, https://matplotlib.org/</dc:title>
     </cc:Agent>
    </dc:creator>
   </cc:Work>
  </rdf:RDF>
 </metadata>
 <defs>
  <style type="text/css">*{stroke-linejoin: round; stroke-linecap: butt}</style>
 </defs>
 <g id="figure_1">
  <g id="patch_1">
   <path d="M 0 927.969688 
L 1144.461875 927.969688 
L 1144.461875 0 
L 0 0 
z
" style="fill: #ffffff"/>
  </g>
  <g id="axes_1">
   <g id="patch_2">
    <path d="M 45.716875 888.477813 
L 1137.261875 888.477813 
L 1137.261875 23.837812 
L 45.716875 23.837812 
z
" style="fill: #ffffff"/>
   </g>
   <g id="matplotlib.axis_1">
    <g id="xtick_1">
     <g id="line2d_1">
      <path d="M 95.332557 888.477813 
L 95.332557 23.837812 
" clip-path="url(#p2bfcbb4c16)" style="fill: none; stroke: #b0b0b0; stroke-opacity: 0.3; stroke-width: 0.8; stroke-linecap: square"/>
     </g>
     <g id="line2d_2">
      <defs>
       <path id="m207177ec58" d="M 0 0 
L 0 3.5 
" style="stroke: #000000; stroke-width: 0.8"/>
      </defs>
      <g>
       <use xlink:href="#m207177ec58" x="95.332557" y="888.477813" style="stroke: #000000; stroke-width: 0.8"/>
      </g>
     </g>
     <g id="text_1">
      <!-- 0 -->
      <g transform="translate(92.151307 903.07625) scale(0.1 -0.1)">
       <defs>
        <path id="DejaVuSans-30" d="M 2034 4250 
Q 1547 4250 1301 3770 
Q 1056 3291 1056 2328 
Q 1056 1369 1301 889 
Q 1547 409 2034 409 
Q 2525 409 2770 889 
Q 3016 1369 3016 2328 
Q 3016 3291 2770 3770 
Q 2525 4250 2034 4250 
z
M 2034 4750 
Q 2819 4750 3233 4129 
Q 3647 3509 3647 2328 
Q 3647 1150 3233 529 
Q 2819 -91 2034 -91 
Q 1250 -91 836 529 
Q 422 1150 422 2328 
Q 422 3509 836 4129 
Q 1250 4750 2034 4750 
z
" transform="scale(0.015625)"/>
       </defs>
       <use xlink:href="#DejaVuSans-30"/>
      </g>
     </g>
    </g>
    <g id="xtick_2">
     <g id="line2d_3">
      <path d="M 321.37211 888.477813 
L 321.37211 23.837812 
" clip-path="url(#p2bfcbb4c16)" style="fill: none; stroke: #b0b0b0; stroke-opacity: 0.3; stroke-width: 0.8; stroke-linecap: square"/>
     </g>
     <g id="line2d_4">
      <g>
       <use xlink:href="#m207177ec58" x="321.37211" y="888.477813" style="stroke: #000000; stroke-width: 0.8"/>
      </g>
     </g>
     <g id="text_2">
      <!-- 100 -->
      <g transform="translate(311.82836 903.07625) scale(0.1 -0.1)">
       <defs>
        <path id="DejaVuSans-31" d="M 794 531 
L 1825 531 
L 1825 4091 
L 703 3866 
L 703 4441 
L 1819 4666 
L 2450 4666 
L 2450 531 
L 3481 531 
L 3481 0 
L 794 0 
L 794 531 
z
" transform="scale(0.015625)"/>
       </defs>
       <use xlink:href="#DejaVuSans-31"/>
       <use xlink:href="#DejaVuSans-30" transform="translate(63.623047 0)"/>
       <use xlink:href="#DejaVuSans-30" transform="translate(127.246094 0)"/>
      </g>
     </g>
    </g>
    <g id="xtick_3">
     <g id="line2d_5">
      <path d="M 547.411662 888.477813 
L 547.411662 23.837812 
" clip-path="url(#p2bfcbb4c16)" style="fill: none; stroke: #b0b0b0; stroke-opacity: 0.3; stroke-width: 0.8; stroke-linecap: square"/>
     </g>
     <g id="line2d_6">
      <g>
       <use xlink:href="#m207177ec58" x="547.411662" y="888.477813" style="stroke: #000000; stroke-width: 0.8"/>
      </g>
     </g>
     <g id="text_3">
      <!-- 200 -->
      <g transform="translate(537.867912 903.07625) scale(0.1 -0.1)">
       <defs>
        <path id="DejaVuSans-32" d="M 1228 531 
L 3431 531 
L 3431 0 
L 469 0 
L 469 531 
Q 828 903 1448 1529 
Q 2069 2156 2228 2338 
Q 2531 2678 2651 2914 
Q 2772 3150 2772 3378 
Q 2772 3750 2511 3984 
Q 2250 4219 1831 4219 
Q 1534 4219 1204 4116 
Q 875 4013 500 3803 
L 500 4441 
Q 881 4594 1212 4672 
Q 1544 4750 1819 4750 
Q 2544 4750 2975 4387 
Q 3406 4025 3406 3419 
Q 3406 3131 3298 2873 
Q 3191 2616 2906 2266 
Q 2828 2175 2409 1742 
Q 1991 1309 1228 531 
z
" transform="scale(0.015625)"/>
       </defs>
       <use xlink:href="#DejaVuSans-32"/>
       <use xlink:href="#DejaVuSans-30" transform="translate(63.623047 0)"/>
       <use xlink:href="#DejaVuSans-30" transform="translate(127.246094 0)"/>
      </g>
     </g>
    </g>
    <g id="xtick_4">
     <g id="line2d_7">
      <path d="M 773.451215 888.477813 
L 773.451215 23.837812 
" clip-path="url(#p2bfcbb4c16)" style="fill: none; stroke: #b0b0b0; stroke-opacity: 0.3; stroke-width: 0.8; stroke-linecap: square"/>
     </g>
     <g id="line2d_8">
      <g>
       <use xlink:href="#m207177ec58" x="773.451215" y="888.477813" style="stroke: #000000; stroke-width: 0.8"/>
      </g>
     </g>
     <g id="text_4">
      <!-- 300 -->
      <g transform="translate(763.907465 903.07625) scale(0.1 -0.1)">
       <defs>
        <path id="DejaVuSans-33" d="M 2597 2516 
Q 3050 2419 3304 2112 
Q 3559 1806 3559 1356 
Q 3559 666 3084 287 
Q 2609 -91 1734 -91 
Q 1441 -91 1130 -33 
Q 819 25 488 141 
L 488 750 
Q 750 597 1062 519 
Q 1375 441 1716 441 
Q 2309 441 2620 675 
Q 2931 909 2931 1356 
Q 2931 1769 2642 2001 
Q 2353 2234 1838 2234 
L 1294 2234 
L 1294 2753 
L 1863 2753 
Q 2328 2753 2575 2939 
Q 2822 3125 2822 3475 
Q 2822 3834 2567 4026 
Q 2313 4219 1838 4219 
Q 1578 4219 1281 4162 
Q 984 4106 628 3988 
L 628 4550 
Q 988 4650 1302 4700 
Q 1616 4750 1894 4750 
Q 2613 4750 3031 4423 
Q 3450 4097 3450 3541 
Q 3450 3153 3228 2886 
Q 3006 2619 2597 2516 
z
" transform="scale(0.015625)"/>
       </defs>
       <use xlink:href="#DejaVuSans-33"/>
       <use xlink:href="#DejaVuSans-30" transform="translate(63.623047 0)"/>
       <use xlink:href="#DejaVuSans-30" transform="translate(127.246094 0)"/>
      </g>
     </g>
    </g>
    <g id="xtick_5">
     <g id="line2d_9">
      <path d="M 999.490768 888.477813 
L 999.490768 23.837812 
" clip-path="url(#p2bfcbb4c16)" style="fill: none; stroke: #b0b0b0; stroke-opacity: 0.3; stroke-width: 0.8; stroke-linecap: square"/>
     </g>
     <g id="line2d_10">
      <g>
       <use xlink:href="#m207177ec58" x="999.490768" y="888.477813" style="stroke: #000000; stroke-width: 0.8"/>
      </g>
     </g>
     <g id="text_5">
      <!-- 400 -->
      <g transform="translate(989.947018 903.07625) scale(0.1 -0.1)">
       <defs>
        <path id="DejaVuSans-34" d="M 2419 4116 
L 825 1625 
L 2419 1625 
L 2419 4116 
z
M 2253 4666 
L 3047 4666 
L 3047 1625 
L 3713 1625 
L 3713 1100 
L 3047 1100 
L 3047 0 
L 2419 0 
L 2419 1100 
L 313 1100 
L 313 1709 
L 2253 4666 
z
" transform="scale(0.015625)"/>
       </defs>
       <use xlink:href="#DejaVuSans-34"/>
       <use xlink:href="#DejaVuSans-30" transform="translate(63.623047 0)"/>
       <use xlink:href="#DejaVuSans-30" transform="translate(127.246094 0)"/>
      </g>
     </g>
    </g>
    <g id="text_6">
     <!-- Iteraciones (x10) -->
     <g transform="translate(540.499688 918.274063) scale(0.12 -0.12)">
      <defs>
       <path id="DejaVuSans-49" d="M 628 4666 
L 1259 4666 
L 1259 0 
L 628 0 
L 628 4666 
z
" transform="scale(0.015625)"/>
       <path id="DejaVuSans-74" d="M 1172 4494 
L 1172 3500 
L 2356 3500 
L 2356 3053 
L 1172 3053 
L 1172 1153 
Q 1172 725 1289 603 
Q 1406 481 1766 481 
L 2356 481 
L 2356 0 
L 1766 0 
Q 1100 0 847 248 
Q 594 497 594 1153 
L 594 3053 
L 172 3053 
L 172 3500 
L 594 3500 
L 594 4494 
L 1172 4494 
z
" transform="scale(0.015625)"/>
       <path id="DejaVuSans-65" d="M 3597 1894 
L 3597 1613 
L 953 1613 
Q 991 1019 1311 708 
Q 1631 397 2203 397 
Q 2534 397 2845 478 
Q 3156 559 3463 722 
L 3463 178 
Q 3153 47 2828 -22 
Q 2503 -91 2169 -91 
Q 1331 -91 842 396 
Q 353 884 353 1716 
Q 353 2575 817 3079 
Q 1281 3584 2069 3584 
Q 2775 3584 3186 3129 
Q 3597 2675 3597 1894 
z
M 3022 2063 
Q 3016 2534 2758 2815 
Q 2500 3097 2075 3097 
Q 1594 3097 1305 2825 
Q 1016 2553 972 2059 
L 3022 2063 
z
" transform="scale(0.015625)"/>
       <path id="DejaVuSans-72" d="M 2631 2963 
Q 2534 3019 2420 3045 
Q 2306 3072 2169 3072 
Q 1681 3072 1420 2755 
Q 1159 2438 1159 1844 
L 1159 0 
L 581 0 
L 581 3500 
L 1159 3500 
L 1159 2956 
Q 1341 3275 1631 3429 
Q 1922 3584 2338 3584 
Q 2397 3584 2469 3576 
Q 2541 3569 2628 3553 
L 2631 2963 
z
" transform="scale(0.015625)"/>
       <path id="DejaVuSans-61" d="M 2194 1759 
Q 1497 1759 1228 1600 
Q 959 1441 959 1056 
Q 959 750 1161 570 
Q 1363 391 1709 391 
Q 2188 391 2477 730 
Q 2766 1069 2766 1631 
L 2766 1759 
L 2194 1759 
z
M 3341 1997 
L 3341 0 
L 2766 0 
L 2766 531 
Q 2569 213 2275 61 
Q 1981 -91 1556 -91 
Q 1019 -91 701 211 
Q 384 513 384 1019 
Q 384 1609 779 1909 
Q 1175 2209 1959 2209 
L 2766 2209 
L 2766 2266 
Q 2766 2663 2505 2880 
Q 2244 3097 1772 3097 
Q 1472 3097 1187 3025 
Q 903 2953 641 2809 
L 641 3341 
Q 956 3463 1253 3523 
Q 1550 3584 1831 3584 
Q 2591 3584 2966 3190 
Q 3341 2797 3341 1997 
z
" transform="scale(0.015625)"/>
       <path id="DejaVuSans-63" d="M 3122 3366 
L 3122 2828 
Q 2878 2963 2633 3030 
Q 2388 3097 2138 3097 
Q 1578 3097 1268 2742 
Q 959 2388 959 1747 
Q 959 1106 1268 751 
Q 1578 397 2138 397 
Q 2388 397 2633 464 
Q 2878 531 3122 666 
L 3122 134 
Q 2881 22 2623 -34 
Q 2366 -91 2075 -91 
Q 1284 -91 818 406 
Q 353 903 353 1747 
Q 353 2603 823 3093 
Q 1294 3584 2113 3584 
Q 2378 3584 2631 3529 
Q 2884 3475 3122 3366 
z
" transform="scale(0.015625)"/>
       <path id="DejaVuSans-69" d="M 603 3500 
L 1178 3500 
L 1178 0 
L 603 0 
L 603 3500 
z
M 603 4863 
L 1178 4863 
L 1178 4134 
L 603 4134 
L 603 4863 
z
" transform="scale(0.015625)"/>
       <path id="DejaVuSans-6f" d="M 1959 3097 
Q 1497 3097 1228 2736 
Q 959 2375 959 1747 
Q 959 1119 1226 758 
Q 1494 397 1959 397 
Q 2419 397 2687 759 
Q 2956 1122 2956 1747 
Q 2956 2369 2687 2733 
Q 2419 3097 1959 3097 
z
M 1959 3584 
Q 2709 3584 3137 3096 
Q 3566 2609 3566 1747 
Q 3566 888 3137 398 
Q 2709 -91 1959 -91 
Q 1206 -91 779 398 
Q 353 888 353 1747 
Q 353 2609 779 3096 
Q 1206 3584 1959 3584 
z
" transform="scale(0.015625)"/>
       <path id="DejaVuSans-6e" d="M 3513 2113 
L 3513 0 
L 2938 0 
L 2938 2094 
Q 2938 2591 2744 2837 
Q 2550 3084 2163 3084 
Q 1697 3084 1428 2787 
Q 1159 2491 1159 1978 
L 1159 0 
L 581 0 
L 581 3500 
L 1159 3500 
L 1159 2956 
Q 1366 3272 1645 3428 
Q 1925 3584 2291 3584 
Q 2894 3584 3203 3211 
Q 3513 2838 3513 2113 
z
" transform="scale(0.015625)"/>
       <path id="DejaVuSans-73" d="M 2834 3397 
L 2834 2853 
Q 2591 2978 2328 3040 
Q 2066 3103 1784 3103 
Q 1356 3103 1142 2972 
Q 928 2841 928 2578 
Q 928 2378 1081 2264 
Q 1234 2150 1697 2047 
L 1894 2003 
Q 2506 1872 2764 1633 
Q 3022 1394 3022 966 
Q 3022 478 2636 193 
Q 2250 -91 1575 -91 
Q 1294 -91 989 -36 
Q 684 19 347 128 
L 347 722 
Q 666 556 975 473 
Q 1284 391 1588 391 
Q 1994 391 2212 530 
Q 2431 669 2431 922 
Q 2431 1156 2273 1281 
Q 2116 1406 1581 1522 
L 1381 1569 
Q 847 1681 609 1914 
Q 372 2147 372 2553 
Q 372 3047 722 3315 
Q 1072 3584 1716 3584 
Q 2034 3584 2315 3537 
Q 2597 3491 2834 3397 
z
" transform="scale(0.015625)"/>
       <path id="DejaVuSans-20" transform="scale(0.015625)"/>
       <path id="DejaVuSans-28" d="M 1984 4856 
Q 1566 4138 1362 3434 
Q 1159 2731 1159 2009 
Q 1159 1288 1364 580 
Q 1569 -128 1984 -844 
L 1484 -844 
Q 1016 -109 783 600 
Q 550 1309 550 2009 
Q 550 2706 781 3412 
Q 1013 4119 1484 4856 
L 1984 4856 
z
" transform="scale(0.015625)"/>
       <path id="DejaVuSans-78" d="M 3513 3500 
L 2247 1797 
L 3578 0 
L 2900 0 
L 1881 1375 
L 863 0 
L 184 0 
L 1544 1831 
L 300 3500 
L 978 3500 
L 1906 2253 
L 2834 3500 
L 3513 3500 
z
" transform="scale(0.015625)"/>
       <path id="DejaVuSans-29" d="M 513 4856 
L 1013 4856 
Q 1481 4119 1714 3412 
Q 1947 2706 1947 2009 
Q 1947 1309 1714 600 
Q 1481 -109 1013 -844 
L 513 -844 
Q 928 -128 1133 580 
Q 1338 1288 1338 2009 
Q 1338 2731 1133 3434 
Q 928 4138 513 4856 
z
" transform="scale(0.015625)"/>
      </defs>
      <use xlink:href="#DejaVuSans-49"/>
      <use xlink:href="#DejaVuSans-74" transform="translate(29.492188 0)"/>
      <use xlink:href="#DejaVuSans-65" transform="translate(68.701172 0)"/>
      <use xlink:href="#DejaVuSans-72" transform="translate(130.224609 0)"/>
      <use xlink:href="#DejaVuSans-61" transform="translate(171.337891 0)"/>
      <use xlink:href="#DejaVuSans-63" transform="translate(232.617188 0)"/>
      <use xlink:href="#DejaVuSans-69" transform="translate(287.597656 0)"/>
      <use xlink:href="#DejaVuSans-6f" transform="translate(315.380859 0)"/>
      <use xlink:href="#DejaVuSans-6e" transform="translate(376.5625 0)"/>
      <use xlink:href="#DejaVuSans-65" transform="translate(439.941406 0)"/>
      <use xlink:href="#DejaVuSans-73" transform="translate(501.464844 0)"/>
      <use xlink:href="#DejaVuSans-20" transform="translate(553.564453 0)"/>
      <use xlink:href="#DejaVuSans-28" transform="translate(585.351562 0)"/>
      <use xlink:href="#DejaVuSans-78" transform="translate(624.365234 0)"/>
      <use xlink:href="#DejaVuSans-31" transform="translate(683.544922 0)"/>
      <use xlink:href="#DejaVuSans-30" transform="translate(747.167969 0)"/>
      <use xlink:href="#DejaVuSans-29" transform="translate(810.791016 0)"/>
     </g>
    </g>
   </g>
   <g id="matplotlib.axis_2">
    <g id="ytick_1">
     <g id="line2d_11">
      <path d="M 45.716875 849.175994 
L 1137.261875 849.175994 
" clip-path="url(#p2bfcbb4c16)" style="fill: none; stroke: #b0b0b0; stroke-opacity: 0.3; stroke-width: 0.8; stroke-linecap: square"/>
     </g>
     <g id="line2d_12">
      <defs>
       <path id="m46e0264493" d="M 0 0 
L -3.5 0 
" style="stroke: #000000; stroke-width: 0.8"/>
      </defs>
      <g>
       <use xlink:href="#m46e0264493" x="45.716875" y="849.175994" style="stroke: #000000; stroke-width: 0.8"/>
      </g>
     </g>
     <g id="text_7">
      <!-- 0.0 -->
      <g transform="translate(22.81375 852.975213) scale(0.1 -0.1)">
       <defs>
        <path id="DejaVuSans-2e" d="M 684 794 
L 1344 794 
L 1344 0 
L 684 0 
L 684 794 
z
" transform="scale(0.015625)"/>
       </defs>
       <use xlink:href="#DejaVuSans-30"/>
       <use xlink:href="#DejaVuSans-2e" transform="translate(63.623047 0)"/>
       <use xlink:href="#DejaVuSans-30" transform="translate(95.410156 0)"/>
      </g>
     </g>
    </g>
    <g id="ytick_2">
     <g id="line2d_13">
      <path d="M 45.716875 691.968722 
L 1137.261875 691.968722 
" clip-path="url(#p2bfcbb4c16)" style="fill: none; stroke: #b0b0b0; stroke-opacity: 0.3; stroke-width: 0.8; stroke-linecap: square"/>
     </g>
     <g id="line2d_14">
      <g>
       <use xlink:href="#m46e0264493" x="45.716875" y="691.968722" style="stroke: #000000; stroke-width: 0.8"/>
      </g>
     </g>
     <g id="text_8">
      <!-- 0.2 -->
      <g transform="translate(22.81375 695.76794) scale(0.1 -0.1)">
       <use xlink:href="#DejaVuSans-30"/>
       <use xlink:href="#DejaVuSans-2e" transform="translate(63.623047 0)"/>
       <use xlink:href="#DejaVuSans-32" transform="translate(95.410156 0)"/>
      </g>
     </g>
    </g>
    <g id="ytick_3">
     <g id="line2d_15">
      <path d="M 45.716875 534.761449 
L 1137.261875 534.761449 
" clip-path="url(#p2bfcbb4c16)" style="fill: none; stroke: #b0b0b0; stroke-opacity: 0.3; stroke-width: 0.8; stroke-linecap: square"/>
     </g>
     <g id="line2d_16">
      <g>
       <use xlink:href="#m46e0264493" x="45.716875" y="534.761449" style="stroke: #000000; stroke-width: 0.8"/>
      </g>
     </g>
     <g id="text_9">
      <!-- 0.4 -->
      <g transform="translate(22.81375 538.560668) scale(0.1 -0.1)">
       <use xlink:href="#DejaVuSans-30"/>
       <use xlink:href="#DejaVuSans-2e" transform="translate(63.623047 0)"/>
       <use xlink:href="#DejaVuSans-34" transform="translate(95.410156 0)"/>
      </g>
     </g>
    </g>
    <g id="ytick_4">
     <g id="line2d_17">
      <path d="M 45.716875 377.554176 
L 1137.261875 377.554176 
" clip-path="url(#p2bfcbb4c16)" style="fill: none; stroke: #b0b0b0; stroke-opacity: 0.3; stroke-width: 0.8; stroke-linecap: square"/>
     </g>
     <g id="line2d_18">
      <g>
       <use xlink:href="#m46e0264493" x="45.716875" y="377.554176" style="stroke: #000000; stroke-width: 0.8"/>
      </g>
     </g>
     <g id="text_10">
      <!-- 0.6 -->
      <g transform="translate(22.81375 381.353395) scale(0.1 -0.1)">
       <defs>
        <path id="DejaVuSans-36" d="M 2113 2584 
Q 1688 2584 1439 2293 
Q 1191 2003 1191 1497 
Q 1191 994 1439 701 
Q 1688 409 2113 409 
Q 2538 409 2786 701 
Q 3034 994 3034 1497 
Q 3034 2003 2786 2293 
Q 2538 2584 2113 2584 
z
M 3366 4563 
L 3366 3988 
Q 3128 4100 2886 4159 
Q 2644 4219 2406 4219 
Q 1781 4219 1451 3797 
Q 1122 3375 1075 2522 
Q 1259 2794 1537 2939 
Q 1816 3084 2150 3084 
Q 2853 3084 3261 2657 
Q 3669 2231 3669 1497 
Q 3669 778 3244 343 
Q 2819 -91 2113 -91 
Q 1303 -91 875 529 
Q 447 1150 447 2328 
Q 447 3434 972 4092 
Q 1497 4750 2381 4750 
Q 2619 4750 2861 4703 
Q 3103 4656 3366 4563 
z
" transform="scale(0.015625)"/>
       </defs>
       <use xlink:href="#DejaVuSans-30"/>
       <use xlink:href="#DejaVuSans-2e" transform="translate(63.623047 0)"/>
       <use xlink:href="#DejaVuSans-36" transform="translate(95.410156 0)"/>
      </g>
     </g>
    </g>
    <g id="ytick_5">
     <g id="line2d_19">
      <path d="M 45.716875 220.346903 
L 1137.261875 220.346903 
" clip-path="url(#p2bfcbb4c16)" style="fill: none; stroke: #b0b0b0; stroke-opacity: 0.3; stroke-width: 0.8; stroke-linecap: square"/>
     </g>
     <g id="line2d_20">
      <g>
       <use xlink:href="#m46e0264493" x="45.716875" y="220.346903" style="stroke: #000000; stroke-width: 0.8"/>
      </g>
     </g>
     <g id="text_11">
      <!-- 0.8 -->
      <g transform="translate(22.81375 224.146122) scale(0.1 -0.1)">
       <defs>
        <path id="DejaVuSans-38" d="M 2034 2216 
Q 1584 2216 1326 1975 
Q 1069 1734 1069 1313 
Q 1069 891 1326 650 
Q 1584 409 2034 409 
Q 2484 409 2743 651 
Q 3003 894 3003 1313 
Q 3003 1734 2745 1975 
Q 2488 2216 2034 2216 
z
M 1403 2484 
Q 997 2584 770 2862 
Q 544 3141 544 3541 
Q 544 4100 942 4425 
Q 1341 4750 2034 4750 
Q 2731 4750 3128 4425 
Q 3525 4100 3525 3541 
Q 3525 3141 3298 2862 
Q 3072 2584 2669 2484 
Q 3125 2378 3379 2068 
Q 3634 1759 3634 1313 
Q 3634 634 3220 271 
Q 2806 -91 2034 -91 
Q 1263 -91 848 271 
Q 434 634 434 1313 
Q 434 1759 690 2068 
Q 947 2378 1403 2484 
z
M 1172 3481 
Q 1172 3119 1398 2916 
Q 1625 2713 2034 2713 
Q 2441 2713 2670 2916 
Q 2900 3119 2900 3481 
Q 2900 3844 2670 4047 
Q 2441 4250 2034 4250 
Q 1625 4250 1398 4047 
Q 1172 3844 1172 3481 
z
" transform="scale(0.015625)"/>
       </defs>
       <use xlink:href="#DejaVuSans-30"/>
       <use xlink:href="#DejaVuSans-2e" transform="translate(63.623047 0)"/>
       <use xlink:href="#DejaVuSans-38" transform="translate(95.410156 0)"/>
      </g>
     </g>
    </g>
    <g id="ytick_6">
     <g id="line2d_21">
      <path d="M 45.716875 63.139631 
L 1137.261875 63.139631 
" clip-path="url(#p2bfcbb4c16)" style="fill: none; stroke: #b0b0b0; stroke-opacity: 0.3; stroke-width: 0.8; stroke-linecap: square"/>
     </g>
     <g id="line2d_22">
      <g>
       <use xlink:href="#m46e0264493" x="45.716875" y="63.139631" style="stroke: #000000; stroke-width: 0.8"/>
      </g>
     </g>
     <g id="text_12">
      <!-- 1.0 -->
      <g transform="translate(22.81375 66.938849) scale(0.1 -0.1)">
       <use xlink:href="#DejaVuSans-31"/>
       <use xlink:href="#DejaVuSans-2e" transform="translate(63.623047 0)"/>
       <use xlink:href="#DejaVuSans-30" transform="translate(95.410156 0)"/>
      </g>
     </g>
    </g>
    <g id="text_13">
     <!-- Probabilidad -->
     <g transform="translate(16.318125 493.264063) rotate(-90) scale(0.12 -0.12)">
      <defs>
       <path id="DejaVuSans-50" d="M 1259 4147 
L 1259 2394 
L 2053 2394 
Q 2494 2394 2734 2622 
Q 2975 2850 2975 3272 
Q 2975 3691 2734 3919 
Q 2494 4147 2053 4147 
L 1259 4147 
z
M 628 4666 
L 2053 4666 
Q 2838 4666 3239 4311 
Q 3641 3956 3641 3272 
Q 3641 2581 3239 2228 
Q 2838 1875 2053 1875 
L 1259 1875 
L 1259 0 
L 628 0 
L 628 4666 
z
" transform="scale(0.015625)"/>
       <path id="DejaVuSans-62" d="M 3116 1747 
Q 3116 2381 2855 2742 
Q 2594 3103 2138 3103 
Q 1681 3103 1420 2742 
Q 1159 2381 1159 1747 
Q 1159 1113 1420 752 
Q 1681 391 2138 391 
Q 2594 391 2855 752 
Q 3116 1113 3116 1747 
z
M 1159 2969 
Q 1341 3281 1617 3432 
Q 1894 3584 2278 3584 
Q 2916 3584 3314 3078 
Q 3713 2572 3713 1747 
Q 3713 922 3314 415 
Q 2916 -91 2278 -91 
Q 1894 -91 1617 61 
Q 1341 213 1159 525 
L 1159 0 
L 581 0 
L 581 4863 
L 1159 4863 
L 1159 2969 
z
" transform="scale(0.015625)"/>
       <path id="DejaVuSans-6c" d="M 603 4863 
L 1178 4863 
L 1178 0 
L 603 0 
L 603 4863 
z
" transform="scale(0.015625)"/>
       <path id="DejaVuSans-64" d="M 2906 2969 
L 2906 4863 
L 3481 4863 
L 3481 0 
L 2906 0 
L 2906 525 
Q 2725 213 2448 61 
Q 2172 -91 1784 -91 
Q 1150 -91 751 415 
Q 353 922 353 1747 
Q 353 2572 751 3078 
Q 1150 3584 1784 3584 
Q 2172 3584 2448 3432 
Q 2725 3281 2906 2969 
z
M 947 1747 
Q 947 1113 1208 752 
Q 1469 391 1925 391 
Q 2381 391 2643 752 
Q 2906 1113 2906 1747 
Q 2906 2381 2643 2742 
Q 2381 3103 1925 3103 
Q 1469 3103 1208 2742 
Q 947 2381 947 1747 
z
" transform="scale(0.015625)"/>
      </defs>
      <use xlink:href="#DejaVuSans-50"/>
      <use xlink:href="#DejaVuSans-72" transform="translate(58.552734 0)"/>
      <use xlink:href="#DejaVuSans-6f" transform="translate(97.416016 0)"/>
      <use xlink:href="#DejaVuSans-62" transform="translate(158.597656 0)"/>
      <use xlink:href="#DejaVuSans-61" transform="translate(222.074219 0)"/>
      <use xlink:href="#DejaVuSans-62" transform="translate(283.353516 0)"/>
      <use xlink:href="#DejaVuSans-69" transform="translate(346.830078 0)"/>
      <use xlink:href="#DejaVuSans-6c" transform="translate(374.613281 0)"/>
      <use xlink:href="#DejaVuSans-69" transform="translate(402.396484 0)"/>
      <use xlink:href="#DejaVuSans-64" transform="translate(430.179688 0)"/>
      <use xlink:href="#DejaVuSans-61" transform="translate(493.65625 0)"/>
      <use xlink:href="#DejaVuSans-64" transform="translate(554.935547 0)"/>
     </g>
    </g>
   </g>
   <g id="line2d_23">
    <path d="M 95.332557 651.167026 
L 104.374139 653.994626 
L 106.634534 653.967862 
L 108.89493 656.07347 
L 111.155326 659.960615 
L 113.415721 664.392947 
L 115.676117 663.915027 
L 117.936512 659.52601 
L 122.457303 652.297667 
L 124.717699 645.662593 
L 126.978094 640.370842 
L 129.23849 633.87658 
L 131.498885 633.001677 
L 133.759281 635.244735 
L 136.019676 638.30432 
L 138.280072 644.025815 
L 140.540467 640.187091 
L 142.800863 643.298822 
L 145.061258 631.024921 
L 147.321654 631.241516 
L 149.582049 621.701161 
L 151.842445 625.112202 
L 154.102841 629.48597 
L 156.363236 632.020608 
L 158.623632 632.447049 
L 160.884027 619.888058 
L 163.144423 613.108939 
L 165.404818 610.393735 
L 167.665214 608.692771 
L 169.925609 613.285967 
L 172.186005 606.626249 
L 174.4464 611.438639 
L 176.706796 614.002536 
L 178.967191 623.490768 
L 181.227587 635.736769 
L 183.487982 645.028881 
L 185.748378 646.599317 
L 188.008773 657.335565 
L 190.269169 664.82822 
L 192.529564 675.045542 
L 194.78996 681.376012 
L 197.050356 688.573432 
L 199.310751 735.359996 
L 201.571147 758.633397 
L 203.831542 709.147858 
L 206.091938 716.121152 
L 208.352333 725.758302 
L 210.612729 752.686078 
L 212.873124 752.346142 
L 215.13352 754.425215 
L 217.393915 739.440181 
L 219.654311 717.880423 
L 221.914706 674.393464 
L 224.175102 672.630574 
L 226.435497 682.99761 
L 228.695893 684.799843 
L 230.956288 682.278347 
L 233.216684 683.98245 
L 235.477079 699.193454 
L 237.737475 694.649206 
L 239.997871 686.408428 
L 242.258266 693.435532 
L 244.518662 692.149835 
L 246.779057 702.512643 
L 249.039453 698.117429 
L 251.299848 711.131312 
L 253.560244 707.313437 
L 255.820639 697.477732 
L 258.081035 691.721637 
L 260.34143 700.960537 
L 262.601826 700.231131 
L 264.862221 707.34081 
L 267.122617 697.539786 
L 269.383012 701.669809 
L 271.643408 704.885808 
L 273.903803 709.377184 
L 276.164199 708.414293 
L 278.424595 697.362875 
L 280.68499 704.288429 
L 282.945386 696.601305 
L 285.205781 693.482594 
L 287.466177 696.36822 
L 289.726572 696.724642 
L 291.986968 698.402988 
L 294.247363 691.869851 
L 296.507759 688.391286 
L 298.768154 701.051815 
L 301.02855 705.731686 
L 303.288945 713.122217 
L 305.549341 718.299005 
L 307.809736 719.424505 
L 310.070132 724.042076 
L 312.330527 719.419445 
L 314.590923 730.276934 
L 316.851318 726.223302 
L 319.111714 712.952849 
L 321.37211 711.690894 
L 323.632505 715.96796 
L 325.892901 710.717286 
L 328.153296 708.352766 
L 330.413692 705.489699 
L 332.674087 714.020721 
L 334.934483 715.585969 
L 337.194878 713.614906 
L 339.455274 723.120461 
L 341.715669 714.974206 
L 343.976065 714.539542 
L 346.23646 728.484094 
L 348.496856 726.442895 
L 350.757251 722.60307 
L 353.017647 726.108821 
L 355.278042 739.313378 
L 357.538438 745.826791 
L 359.798833 752.822668 
L 362.059229 753.105311 
L 364.319625 753.672084 
L 366.58002 753.762343 
L 368.840416 749.15686 
L 371.100811 754.189335 
L 373.361207 755.40342 
L 375.621602 753.511834 
L 377.881998 750.554883 
L 380.142393 757.29388 
L 382.402789 757.992938 
L 384.663184 763.158828 
L 386.92358 765.194464 
L 389.183975 759.182268 
L 391.444371 758.622007 
L 393.704766 761.531567 
L 395.965162 765.356828 
L 398.225557 770.497594 
L 400.485953 763.278587 
L 402.746348 760.89088 
L 405.006744 762.823443 
L 407.26714 758.657643 
L 409.527535 745.28438 
L 411.787931 751.715908 
L 416.308722 753.5595 
L 418.569117 747.009859 
L 420.829513 751.798097 
L 423.089908 763.27892 
L 425.350304 764.266296 
L 427.610699 769.727093 
L 429.871095 772.918711 
L 432.13149 777.537699 
L 434.391886 778.673453 
L 436.652281 763.318814 
L 438.912677 780.584259 
L 441.173072 775.277487 
L 443.433468 763.008512 
L 445.693864 778.801035 
L 447.954259 780.30667 
L 450.214655 774.873428 
L 452.47505 772.37893 
L 454.735446 761.886643 
L 456.995841 767.698819 
L 459.256237 761.753063 
L 461.516632 753.742478 
L 463.777028 752.311507 
L 466.037423 747.222155 
L 468.297819 749.43059 
L 470.558214 744.693373 
L 472.81861 749.875069 
L 475.079005 754.51439 
L 477.339401 752.630741 
L 479.599796 752.878854 
L 481.860192 745.570595 
L 484.120587 749.595261 
L 486.380983 751.55016 
L 488.641379 751.12045 
L 490.901774 750.963217 
L 493.16217 749.773331 
L 495.422565 749.659014 
L 497.682961 742.853939 
L 499.943356 757.042487 
L 502.203752 756.916955 
L 504.464147 766.24075 
L 506.724543 756.796904 
L 508.984938 758.348956 
L 511.245334 749.503596 
L 513.505729 755.509807 
L 515.766125 754.127983 
L 518.02652 754.63084 
L 520.286916 753.514353 
L 522.547311 758.03822 
L 524.807707 754.301193 
L 527.068102 756.767083 
L 529.328498 758.382274 
L 531.588894 759.855312 
L 533.849289 761.595449 
L 536.109685 748.250754 
L 538.37008 747.807259 
L 540.630476 749.703827 
L 542.890871 742.687945 
L 545.151267 745.788993 
L 547.411662 749.868487 
L 549.672058 754.523146 
L 551.932453 743.774054 
L 554.192849 742.782584 
L 556.453244 723.525316 
L 558.71364 746.139875 
L 560.974035 748.024251 
L 563.234431 749.507215 
L 567.755222 743.583287 
L 570.015617 744.392797 
L 572.276013 746.179101 
L 574.536409 744.745495 
L 576.796804 749.117693 
L 579.0572 757.608036 
L 581.317595 746.558469 
L 583.577991 754.249071 
L 585.838386 761.102965 
L 588.098782 759.499159 
L 590.359177 762.083752 
L 592.619573 759.174771 
L 594.879968 767.733612 
L 597.140364 770.08991 
L 599.400759 762.183675 
L 601.661155 767.825417 
L 606.181946 775.817824 
L 608.442341 784.462133 
L 610.702737 786.857406 
L 612.963133 794.147206 
L 615.223528 779.051403 
L 617.483924 793.718814 
L 619.744319 801.482639 
L 622.004715 810.484562 
L 624.26511 799.930498 
L 626.525506 798.908405 
L 628.785901 824.475247 
L 631.046297 845.221737 
L 633.306692 845.093167 
L 635.567088 847.763905 
L 637.827483 848.890005 
L 640.087879 848.960225 
L 642.348274 841.129123 
L 644.60867 848.270756 
L 646.869065 848.976243 
L 649.129461 849.031966 
L 651.389856 847.267174 
L 653.650252 849.16189 
L 655.910648 845.302648 
L 658.171043 832.625352 
L 660.431439 849.1641 
L 662.691834 836.954419 
L 664.95223 848.90496 
L 667.212625 849.175994 
L 669.473021 849.175842 
L 671.733416 847.711962 
L 673.993812 849.175994 
L 676.254207 842.190578 
L 678.514603 837.115256 
L 680.774998 849.175977 
L 683.035394 838.62919 
L 685.295789 849.165544 
L 687.556185 849.109761 
L 692.076976 849.163959 
L 696.597767 849.175992 
L 698.858163 847.929972 
L 701.118558 836.971053 
L 703.378954 849.175621 
L 716.941327 849.175994 
L 719.201722 848.74541 
L 721.462118 849.175994 
L 723.722513 836.936618 
L 725.982909 849.175994 
L 732.764095 849.175655 
L 735.024491 808.306846 
L 737.284886 841.755599 
L 739.545282 849.150447 
L 741.805678 836.952319 
L 744.066073 849.175993 
L 766.670028 849.175994 
L 768.930424 847.630178 
L 771.190819 849.175994 
L 775.71161 849.175816 
L 777.972006 843.301425 
L 780.232402 849.175994 
L 782.492797 848.821402 
L 784.753193 849.168172 
L 800.575961 849.175994 
L 802.836357 846.846931 
L 805.096752 849.175994 
L 809.617543 849.175994 
L 811.877939 847.820934 
L 814.138334 849.17597 
L 827.700708 849.175994 
L 829.961103 845.674608 
L 832.221499 849.175994 
L 834.481894 846.705648 
L 836.74229 849.175625 
L 854.825454 849.175994 
L 857.085849 848.407953 
L 859.346245 849.175994 
L 866.127432 849.175994 
L 924.897715 849.175994 
L 927.158111 836.914914 
L 929.418506 849.175222 
L 933.939297 849.175994 
L 936.199693 836.894864 
L 938.460088 849.175994 
L 976.886812 849.175994 
L 979.147208 836.88492 
L 981.407603 849.175994 
L 983.667999 849.175994 
L 985.928394 848.584883 
L 988.18879 836.894323 
L 990.449186 849.158493 
L 999.490768 849.175994 
L 1001.751163 848.700085 
L 1004.011559 849.175994 
L 1013.053141 849.175994 
L 1015.313536 836.48374 
L 1017.573932 849.175994 
L 1031.136305 849.175994 
L 1033.396701 848.995992 
L 1035.657096 849.175994 
L 1046.959074 849.175994 
L 1049.219469 836.89718 
L 1051.479865 849.097511 
L 1056.000656 849.175994 
L 1062.781842 849.134019 
L 1065.042238 848.061395 
L 1067.302633 849.175994 
L 1080.865007 849.175994 
L 1083.125402 836.89439 
L 1085.385798 849.175994 
L 1087.646193 848.473674 
L 1087.646193 848.473674 
" clip-path="url(#p2bfcbb4c16)" style="fill: none; stroke-dasharray: 9.25,4; stroke-dashoffset: 0; stroke: #000000; stroke-width: 2.5"/>
   </g>
   <g id="line2d_24">
    <path d="M 95.332557 652.106748 
L 97.592952 652.921201 
L 104.374139 652.03872 
L 106.634534 652.030638 
L 108.89493 649.811848 
L 111.155326 647.099221 
L 113.415721 646.475488 
L 115.676117 648.272287 
L 117.936512 652.560199 
L 122.457303 658.374004 
L 124.717699 660.515301 
L 126.978094 660.457193 
L 129.23849 658.223751 
L 131.498885 658.341149 
L 133.759281 662.698823 
L 136.019676 666.298862 
L 138.280072 660.822271 
L 140.540467 656.283704 
L 142.800863 652.202489 
L 145.061258 654.881453 
L 147.321654 654.367914 
L 149.582049 655.208136 
L 151.842445 649.171225 
L 154.102841 650.853707 
L 156.363236 656.697871 
L 158.623632 657.494345 
L 160.884027 660.190925 
L 163.144423 656.240039 
L 165.404818 660.736287 
L 169.925609 678.979573 
L 172.186005 690.309956 
L 174.4464 695.56733 
L 176.706796 692.296421 
L 178.967191 680.82388 
L 181.227587 675.169593 
L 183.487982 668.406649 
L 185.748378 660.100982 
L 188.008773 658.311164 
L 190.269169 658.945392 
L 192.529564 661.066707 
L 194.78996 664.374827 
L 197.050356 664.765099 
L 199.310751 685.606507 
L 201.571147 678.06152 
L 203.831542 642.771087 
L 206.091938 635.73958 
L 208.352333 615.294886 
L 210.612729 612.206604 
L 215.13352 671.898638 
L 217.393915 677.217117 
L 219.654311 656.430899 
L 221.914706 658.977298 
L 224.175102 655.519827 
L 226.435497 655.149701 
L 228.695893 651.01757 
L 230.956288 657.524857 
L 233.216684 671.594595 
L 235.477079 666.389965 
L 237.737475 657.459874 
L 239.997871 656.102143 
L 242.258266 655.217752 
L 244.518662 663.57977 
L 246.779057 657.627157 
L 249.039453 646.242098 
L 251.299848 628.902037 
L 253.560244 633.523039 
L 255.820639 647.92383 
L 258.081035 655.984429 
L 260.34143 658.720107 
L 262.601826 655.415126 
L 264.862221 653.221694 
L 267.122617 648.116881 
L 269.383012 633.006643 
L 271.643408 622.845437 
L 273.903803 634.08036 
L 276.164199 647.258282 
L 278.424595 649.039104 
L 280.68499 641.445661 
L 282.945386 636.659788 
L 285.205781 627.729486 
L 287.466177 624.305585 
L 289.726572 627.86826 
L 291.986968 624.890736 
L 294.247363 628.780551 
L 296.507759 635.805265 
L 298.768154 639.22153 
L 301.02855 635.980138 
L 303.288945 623.185625 
L 305.549341 618.519388 
L 307.809736 621.822577 
L 310.070132 634.240522 
L 312.330527 651.783754 
L 314.590923 653.164231 
L 316.851318 650.570209 
L 319.111714 654.658838 
L 321.37211 653.123634 
L 325.892901 659.26452 
L 328.153296 659.393057 
L 330.413692 652.467129 
L 332.674087 642.999675 
L 334.934483 634.872641 
L 337.194878 637.325688 
L 339.455274 632.653055 
L 341.715669 634.681112 
L 343.976065 632.154439 
L 346.23646 616.072338 
L 348.496856 615.792167 
L 350.757251 626.187887 
L 353.017647 632.519247 
L 355.278042 623.382354 
L 357.538438 622.706476 
L 359.798833 626.286744 
L 362.059229 627.196411 
L 364.319625 634.823611 
L 366.58002 641.762142 
L 368.840416 640.850507 
L 371.100811 621.57246 
L 375.621602 610.558934 
L 377.881998 610.950447 
L 380.142393 604.747413 
L 382.402789 606.284468 
L 384.663184 604.849151 
L 386.92358 619.300869 
L 391.444371 639.726799 
L 393.704766 634.803559 
L 395.965162 625.608663 
L 398.225557 624.615366 
L 400.485953 629.222454 
L 402.746348 626.218598 
L 405.006744 615.749345 
L 407.26714 610.672548 
L 409.527535 616.824725 
L 411.787931 614.305009 
L 414.048326 619.763152 
L 416.308722 622.839721 
L 418.569117 627.198402 
L 420.829513 625.79211 
L 423.089908 616.120478 
L 425.350304 616.322712 
L 427.610699 614.202639 
L 429.871095 609.293196 
L 432.13149 610.170371 
L 434.391886 628.013593 
L 436.652281 637.554533 
L 438.912677 619.712319 
L 441.173072 614.946171 
L 443.433468 623.541485 
L 445.693864 616.364621 
L 447.954259 618.360936 
L 450.214655 627.554332 
L 452.47505 632.814458 
L 454.735446 629.23412 
L 456.995841 621.173169 
L 459.256237 614.223652 
L 461.516632 615.485313 
L 463.777028 620.182941 
L 466.037423 631.248567 
L 468.297819 634.783225 
L 470.558214 633.21991 
L 472.81861 637.558797 
L 475.079005 625.316123 
L 477.339401 615.152293 
L 479.599796 614.684224 
L 481.860192 618.551153 
L 484.120587 619.528614 
L 486.380983 614.145761 
L 488.641379 616.61708 
L 490.901774 620.001087 
L 493.16217 628.670731 
L 495.422565 635.37695 
L 497.682961 648.632012 
L 499.943356 645.191151 
L 502.203752 644.635048 
L 504.464147 638.941593 
L 506.724543 638.012904 
L 511.245334 620.465104 
L 513.505729 606.857672 
L 515.766125 602.398986 
L 518.02652 616.486083 
L 520.286916 634.301405 
L 524.807707 648.36346 
L 527.068102 650.041561 
L 529.328498 635.535987 
L 531.588894 635.525445 
L 533.849289 633.406192 
L 536.109685 632.231392 
L 538.37008 635.989766 
L 540.630476 636.430966 
L 542.890871 646.438171 
L 545.151267 646.619744 
L 547.411662 650.408126 
L 549.672058 643.783757 
L 551.932453 638.45722 
L 554.192849 625.824625 
L 556.453244 628.366478 
L 558.71364 629.733767 
L 560.974035 635.108913 
L 563.234431 635.789359 
L 565.494826 635.390911 
L 567.755222 636.460037 
L 570.015617 638.015106 
L 572.276013 635.655036 
L 574.536409 640.442197 
L 576.796804 644.261665 
L 579.0572 634.955521 
L 581.317595 642.610973 
L 583.577991 645.879257 
L 585.838386 647.662001 
L 588.098782 643.280479 
L 590.359177 641.05745 
L 592.619573 641.704421 
L 594.879968 633.759264 
L 597.140364 624.369584 
L 599.400759 617.939414 
L 601.661155 606.692192 
L 603.92155 606.628592 
L 606.181946 615.051024 
L 608.442341 630.735895 
L 610.702737 638.915918 
L 612.963133 633.420716 
L 615.223528 636.332953 
L 617.483924 624.580439 
L 619.744319 610.982447 
L 622.004715 604.298132 
L 624.26511 618.710448 
L 626.525506 622.256702 
L 628.785901 623.713102 
L 631.046297 642.441371 
L 633.306692 671.968493 
L 635.567088 687.668556 
L 637.827483 655.29494 
L 640.087879 701.45626 
L 642.348274 710.603227 
L 644.60867 685.146473 
L 646.869065 714.751861 
L 649.129461 682.767944 
L 651.389856 759.896986 
L 653.650252 765.730684 
L 655.910648 773.77413 
L 658.171043 770.607841 
L 660.431439 791.382246 
L 662.691834 826.0951 
L 664.95223 821.474314 
L 667.212625 822.686346 
L 669.473021 823.284744 
L 671.733416 804.706432 
L 673.993812 825.578253 
L 676.254207 841.975685 
L 678.514603 840.659988 
L 680.774998 836.614948 
L 683.035394 833.411378 
L 685.295789 831.122275 
L 687.556185 814.158603 
L 689.81658 845.524912 
L 692.076976 846.55429 
L 694.337371 819.276075 
L 696.597767 840.195471 
L 698.858163 833.629793 
L 701.118558 842.246158 
L 703.378954 846.344899 
L 705.639349 811.24342 
L 707.899745 827.766671 
L 710.16014 833.310636 
L 712.420536 834.931834 
L 714.680931 829.653281 
L 716.941327 813.537567 
L 719.201722 847.804078 
L 721.462118 834.469801 
L 723.722513 825.232931 
L 725.982909 822.353496 
L 728.243304 820.654704 
L 730.5037 835.932672 
L 732.764095 848.299782 
L 735.024491 835.192111 
L 737.284886 824.099716 
L 739.545282 828.546595 
L 741.805678 838.839904 
L 744.066073 836.596238 
L 746.326469 836.25105 
L 748.586864 836.501662 
L 750.84726 836.212495 
L 753.107655 824.321783 
L 755.368051 831.653239 
L 757.628446 846.614167 
L 759.888842 846.694409 
L 762.149237 822.937168 
L 764.409633 836.100251 
L 766.670028 808.619439 
L 768.930424 848.47023 
L 771.190819 836.390976 
L 773.451215 817.338274 
L 775.71161 843.659584 
L 777.972006 835.671089 
L 780.232402 848.347622 
L 782.492797 849.069231 
L 784.753193 836.785679 
L 787.013588 836.721151 
L 789.273984 823.316281 
L 791.534379 849.169769 
L 793.794775 806.647146 
L 796.05517 848.745693 
L 798.315566 829.540546 
L 800.575961 837.059526 
L 802.836357 831.022847 
L 805.096752 836.941969 
L 807.357148 832.047034 
L 809.617543 849.056123 
L 811.877939 836.912248 
L 814.138334 846.630167 
L 816.39873 849.16984 
L 818.659125 837.370775 
L 820.919521 833.052768 
L 823.179917 829.777649 
L 825.440312 817.82918 
L 827.700708 824.842251 
L 829.961103 837.363388 
L 832.221499 820.295392 
L 834.481894 849.139789 
L 836.74229 816.368163 
L 839.002685 837.100897 
L 841.263081 849.134384 
L 843.523476 824.905642 
L 845.783872 849.173224 
L 852.565058 849.170252 
L 854.825454 824.532219 
L 857.085849 838.045101 
L 859.346245 846.229394 
L 861.60664 810.580812 
L 863.867036 836.892558 
L 866.127432 847.064006 
L 868.387827 838.651906 
L 870.648223 848.179296 
L 872.908618 807.09046 
L 875.169014 849.175839 
L 877.429409 849.117114 
L 879.689805 824.641186 
L 881.9502 836.68581 
L 884.210596 836.842266 
L 886.470991 848.865452 
L 888.731387 812.329819 
L 890.991782 848.285447 
L 893.252178 838.960677 
L 895.512573 823.84186 
L 897.772969 845.00555 
L 900.033364 836.895552 
L 902.29376 804.292423 
L 904.554155 837.323427 
L 906.814551 849.17412 
L 911.335342 849.152276 
L 913.595738 832.510164 
L 915.856133 849.175989 
L 920.376924 849.175993 
L 922.63732 837.707988 
L 924.897715 849.174999 
L 927.158111 848.318664 
L 929.418506 849.17599 
L 931.678902 849.142413 
L 933.939297 822.263149 
L 936.199693 837.015719 
L 938.460088 825.290291 
L 940.720484 849.175981 
L 945.241275 849.175994 
L 947.501671 826.561236 
L 949.762066 836.999822 
L 952.022462 849.170725 
L 954.282857 837.460143 
L 956.543253 849.175993 
L 967.84523 849.175942 
L 970.105626 812.323954 
L 972.366021 836.892372 
L 974.626417 849.175994 
L 976.886812 828.429747 
L 979.147208 825.00474 
L 981.407603 849.175528 
L 983.667999 841.204822 
L 985.928394 849.175944 
L 990.449186 849.175989 
L 992.709581 831.450497 
L 994.969977 836.894177 
L 997.230372 840.325316 
L 999.490768 824.613023 
L 1001.751163 836.896018 
L 1004.011559 826.905225 
L 1006.271954 824.602994 
L 1008.53235 838.069549 
L 1010.792745 815.197563 
L 1013.053141 824.613111 
L 1015.313536 836.903392 
L 1017.573932 836.744082 
L 1019.834327 838.615842 
L 1022.094723 824.753461 
L 1024.355118 837.706422 
L 1026.615514 849.175532 
L 1028.875909 836.910141 
L 1033.396701 836.902893 
L 1035.657096 825.170433 
L 1040.177887 849.175994 
L 1044.698678 849.175994 
L 1046.959074 836.915264 
L 1049.219469 836.434959 
L 1051.479865 849.175994 
L 1053.74026 835.507816 
L 1056.000656 837.95054 
L 1058.261051 836.894684 
L 1060.521447 825.72876 
L 1062.781842 836.897357 
L 1065.042238 824.632627 
L 1069.563029 849.144986 
L 1071.823424 836.938319 
L 1074.08382 842.562065 
L 1076.344216 812.338988 
L 1078.604611 849.175994 
L 1080.865007 849.175943 
L 1083.125402 836.748293 
L 1085.385798 842.271629 
L 1087.646193 848.884197 
L 1087.646193 848.884197 
" clip-path="url(#p2bfcbb4c16)" style="fill: none; stroke: #1f77b4; stroke-width: 2; stroke-linecap: square"/>
   </g>
   <g id="line2d_25">
    <path d="M 95.332557 656.801061 
L 97.592952 656.057049 
L 99.853348 656.225995 
L 102.113743 655.52402 
L 104.374139 655.276551 
L 106.634534 657.754124 
L 108.89493 660.742753 
L 111.155326 664.238911 
L 113.415721 664.444507 
L 115.676117 663.814964 
L 117.936512 665.118921 
L 120.196908 666.022322 
L 122.457303 664.441473 
L 124.717699 662.183352 
L 126.978094 658.803619 
L 129.23849 660.37135 
L 131.498885 658.692183 
L 133.759281 654.47586 
L 136.019676 654.09832 
L 138.280072 656.875601 
L 140.540467 656.72597 
L 142.800863 655.744151 
L 145.061258 658.806477 
L 147.321654 665.848304 
L 149.582049 676.773856 
L 151.842445 682.444927 
L 154.102841 677.872943 
L 156.363236 671.796853 
L 158.623632 666.174671 
L 160.884027 673.862696 
L 163.144423 675.497471 
L 165.404818 674.129362 
L 167.665214 671.221799 
L 169.925609 663.782555 
L 172.186005 653.661184 
L 174.4464 648.93322 
L 176.706796 651.590445 
L 178.967191 656.630194 
L 181.227587 649.531138 
L 183.487982 642.963085 
L 185.748378 641.309932 
L 188.008773 628.82663 
L 190.269169 619.99167 
L 192.529564 614.134938 
L 194.78996 613.670852 
L 197.050356 623.454716 
L 199.310751 613.732555 
L 201.571147 597.051482 
L 203.831542 615.531111 
L 206.091938 595.04172 
L 208.352333 607.88941 
L 210.612729 603.327066 
L 212.873124 594.983812 
L 215.13352 560.561958 
L 219.654311 611.437374 
L 221.914706 640.473634 
L 224.175102 650.881982 
L 226.435497 650.64065 
L 228.695893 653.880379 
L 230.956288 653.76147 
L 233.216684 646.448924 
L 235.477079 631.140504 
L 237.737475 631.397437 
L 239.997871 633.821319 
L 242.258266 631.447592 
L 244.518662 627.082937 
L 246.779057 630.154047 
L 249.039453 638.023493 
L 251.299848 647.858777 
L 253.560244 650.213716 
L 255.820639 637.165596 
L 258.081035 628.9621 
L 260.34143 621.972665 
L 262.601826 617.481254 
L 264.862221 614.164197 
L 267.122617 622.240515 
L 269.383012 628.085182 
L 271.643408 634.538872 
L 273.903803 624.510771 
L 276.164199 619.730684 
L 278.424595 634.900799 
L 280.68499 640.071368 
L 282.945386 646.896355 
L 285.205781 646.637688 
L 287.466177 645.919596 
L 289.726572 645.913342 
L 291.986968 643.772466 
L 294.247363 648.122738 
L 296.507759 647.719909 
L 298.768154 645.86984 
L 301.02855 647.920902 
L 303.288945 645.28982 
L 305.549341 638.200263 
L 307.809736 633.877704 
L 310.070132 628.602492 
L 312.330527 627.321223 
L 314.590923 621.554282 
L 319.111714 614.699381 
L 321.37211 602.943025 
L 323.632505 602.793639 
L 325.892901 604.579076 
L 330.413692 622.006797 
L 334.934483 631.565118 
L 337.194878 626.126723 
L 339.455274 615.379687 
L 341.715669 613.113437 
L 343.976065 617.24784 
L 346.23646 619.591184 
L 348.496856 629.084055 
L 350.757251 632.819588 
L 353.017647 632.224763 
L 355.278042 624.221627 
L 357.538438 619.344793 
L 359.798833 619.316448 
L 362.059229 624.697146 
L 364.319625 623.033709 
L 366.58002 614.016966 
L 368.840416 612.548245 
L 371.100811 614.875214 
L 373.361207 620.101677 
L 375.621602 626.383398 
L 377.881998 637.676862 
L 380.142393 635.250263 
L 382.402789 634.571738 
L 384.663184 633.38211 
L 386.92358 615.139433 
L 391.444371 596.057342 
L 393.704766 597.659707 
L 395.965162 610.459819 
L 398.225557 619.418935 
L 400.485953 616.364785 
L 402.746348 606.516218 
L 405.006744 607.32382 
L 407.26714 605.135226 
L 409.527535 607.439918 
L 411.787931 608.987701 
L 416.308722 625.52234 
L 418.569117 631.020471 
L 420.829513 624.172058 
L 423.089908 616.767145 
L 425.350304 614.949239 
L 427.610699 611.463025 
L 429.871095 603.898161 
L 432.13149 598.275171 
L 434.391886 602.309172 
L 436.652281 622.13948 
L 438.912677 625.235843 
L 443.433468 604.92334 
L 445.693864 590.672498 
L 447.954259 591.431772 
L 450.214655 601.418339 
L 452.47505 604.86651 
L 454.735446 611.803143 
L 456.995841 617.847304 
L 459.256237 623.313037 
L 461.516632 626.879133 
L 463.777028 618.207451 
L 466.037423 615.154097 
L 468.297819 612.587858 
L 470.558214 613.990495 
L 472.81861 612.642955 
L 475.079005 614.815807 
L 477.339401 618.00763 
L 479.599796 617.390245 
L 481.860192 624.948644 
L 484.120587 625.520629 
L 486.380983 634.928839 
L 488.641379 637.297834 
L 490.901774 633.139303 
L 493.16217 623.756205 
L 495.422565 617.068399 
L 497.682961 615.274599 
L 499.943356 611.997249 
L 504.464147 606.358212 
L 506.724543 608.274786 
L 508.984938 609.330747 
L 511.245334 621.701677 
L 513.505729 632.158913 
L 515.766125 638.201434 
L 518.02652 631.408541 
L 520.286916 621.185538 
L 522.547311 617.358995 
L 524.807707 617.540193 
L 527.068102 610.649708 
L 529.328498 608.093753 
L 531.588894 607.010899 
L 533.849289 607.552525 
L 536.109685 614.586281 
L 538.37008 623.281952 
L 540.630476 620.013362 
L 542.890871 613.811617 
L 545.151267 610.460897 
L 547.411662 609.100683 
L 549.672058 604.330834 
L 551.932453 607.695633 
L 554.192849 612.092826 
L 556.453244 627.704679 
L 558.71364 608.507099 
L 560.974035 603.855339 
L 563.234431 600.679469 
L 565.494826 605.656682 
L 567.755222 615.478848 
L 570.015617 617.754351 
L 572.276013 613.656632 
L 574.536409 607.509796 
L 576.796804 605.257274 
L 579.0572 614.366197 
L 581.317595 624.80057 
L 583.577991 624.392986 
L 585.838386 620.136441 
L 588.098782 619.694421 
L 590.359177 605.533791 
L 592.619573 595.29938 
L 594.879968 593.846166 
L 597.140364 594.185722 
L 599.400759 601.735875 
L 601.661155 624.451035 
L 603.92155 626.010742 
L 606.181946 606.879996 
L 608.442341 583.810171 
L 610.702737 589.50311 
L 612.963133 597.251069 
L 615.223528 596.455157 
L 617.483924 584.055719 
L 619.744319 595.147511 
L 622.004715 600.964841 
L 624.26511 599.57832 
L 626.525506 596.116937 
L 628.785901 573.166981 
L 631.046297 529.703388 
L 633.306692 544.044936 
L 635.567088 566.789402 
L 637.827483 550.49654 
L 640.087879 488.543527 
L 642.348274 540.834676 
L 644.60867 555.964827 
L 646.869065 523.949706 
L 649.129461 468.235265 
L 651.389856 405.719262 
L 653.650252 529.474543 
L 655.910648 420.776933 
L 658.171043 541.813379 
L 660.431439 414.381246 
L 662.691834 540.859016 
L 664.95223 453.249323 
L 667.212625 491.112344 
L 669.473021 470.266742 
L 671.733416 330.98858 
L 673.993812 462.604591 
L 676.254207 495.591457 
L 678.514603 433.46575 
L 680.774998 401.384054 
L 683.035394 485.374123 
L 685.295789 450.785548 
L 687.556185 460.60776 
L 689.81658 473.326538 
L 692.076976 422.090366 
L 696.597767 463.381411 
L 698.858163 574.108671 
L 701.118558 458.68219 
L 703.378954 416.300936 
L 705.639349 511.708438 
L 707.899745 368.930029 
L 710.16014 525.355577 
L 712.420536 384.776022 
L 714.680931 507.123043 
L 716.941327 523.270455 
L 719.201722 423.407875 
L 721.462118 499.83999 
L 723.722513 587.734094 
L 725.982909 532.891721 
L 728.243304 394.270369 
L 730.5037 477.948922 
L 732.764095 587.668057 
L 735.024491 484.139307 
L 737.284886 549.708616 
L 739.545282 407.589383 
L 741.805678 623.896478 
L 744.066073 342.869771 
L 746.326469 669.188424 
L 748.586864 445.462618 
L 750.84726 585.047376 
L 753.107655 418.504733 
L 757.628446 551.3572 
L 759.888842 554.440563 
L 762.149237 560.920348 
L 764.409633 548.791429 
L 766.670028 412.410207 
L 768.930424 620.462808 
L 771.190819 503.289379 
L 773.451215 496.137557 
L 775.71161 483.220058 
L 780.232402 639.204242 
L 782.492797 595.063436 
L 784.753193 632.621407 
L 787.013588 637.484092 
L 789.273984 583.65713 
L 791.534379 762.221654 
L 793.794775 657.705328 
L 796.05517 604.658583 
L 798.315566 695.109896 
L 800.575961 591.567688 
L 802.836357 674.915424 
L 805.096752 608.246512 
L 807.357148 728.627963 
L 809.617543 660.544138 
L 811.877939 609.563154 
L 814.138334 688.269893 
L 816.39873 776.014202 
L 818.659125 575.399849 
L 820.919521 796.340127 
L 823.179917 615.228497 
L 825.440312 702.651791 
L 827.700708 766.774938 
L 829.961103 774.47149 
L 832.221499 763.202717 
L 834.481894 778.905145 
L 836.74229 718.262344 
L 839.002685 708.10033 
L 841.263081 733.520973 
L 843.523476 801.865356 
L 845.783872 776.036772 
L 848.044267 748.210673 
L 850.304663 819.863038 
L 852.565058 837.583024 
L 854.825454 497.76555 
L 857.085849 840.07733 
L 859.346245 430.536552 
L 861.60664 657.191931 
L 863.867036 719.809753 
L 866.127432 822.031817 
L 868.387827 788.325243 
L 870.648223 773.082744 
L 872.908618 812.309679 
L 875.169014 742.53323 
L 877.429409 806.647243 
L 879.689805 835.813137 
L 881.9502 645.902566 
L 884.210596 835.442204 
L 886.470991 683.008643 
L 888.731387 846.423953 
L 890.991782 719.65772 
L 893.252178 804.387409 
L 895.512573 781.348165 
L 897.772969 772.038437 
L 900.033364 696.171725 
L 902.29376 809.673505 
L 904.554155 723.748528 
L 906.814551 827.43014 
L 909.074947 701.326669 
L 911.335342 800.550506 
L 913.595738 788.176549 
L 915.856133 804.268418 
L 918.116529 790.478693 
L 920.376924 841.893692 
L 922.63732 784.783042 
L 924.897715 774.576109 
L 927.158111 794.085344 
L 929.418506 508.148831 
L 931.678902 809.965427 
L 933.939297 810.956212 
L 936.199693 793.962254 
L 938.460088 682.598049 
L 940.720484 834.30801 
L 942.980879 811.11033 
L 945.241275 846.073368 
L 947.501671 668.378163 
L 949.762066 817.276006 
L 952.022462 805.578712 
L 954.282857 767.384463 
L 956.543253 773.287795 
L 958.803648 811.127108 
L 961.064044 770.47032 
L 963.324439 813.654795 
L 965.584835 836.008443 
L 967.84523 769.638784 
L 970.105626 816.739024 
L 972.366021 802.151317 
L 974.626417 772.160532 
L 976.886812 808.559534 
L 979.147208 776.608694 
L 981.407603 763.995173 
L 983.667999 821.911239 
L 985.928394 818.661584 
L 988.18879 704.164518 
L 990.449186 814.0623 
L 992.709581 808.4469 
L 994.969977 824.849474 
L 997.230372 771.069275 
L 999.490768 818.401942 
L 1001.751163 816.379855 
L 1004.011559 796.213886 
L 1006.271954 818.051528 
L 1008.53235 825.05359 
L 1010.792745 811.080292 
L 1013.053141 703.753128 
L 1015.313536 834.223099 
L 1017.573932 823.213679 
L 1019.834327 755.496338 
L 1022.094723 816.581966 
L 1024.355118 708.100764 
L 1026.615514 811.444896 
L 1028.875909 804.432779 
L 1031.136305 788.711984 
L 1033.396701 828.054647 
L 1035.657096 789.3701 
L 1037.917492 794.384608 
L 1040.177887 810.05935 
L 1042.438283 849.151227 
L 1044.698678 832.525482 
L 1046.959074 835.429517 
L 1049.219469 718.773001 
L 1051.479865 815.255122 
L 1053.74026 823.964169 
L 1056.000656 799.372246 
L 1058.261051 799.447577 
L 1060.521447 790.752024 
L 1062.781842 842.974326 
L 1065.042238 835.284266 
L 1067.302633 836.656269 
L 1069.563029 811.165058 
L 1071.823424 793.336284 
L 1074.08382 779.420762 
L 1076.344216 824.420818 
L 1078.604611 786.241849 
L 1080.865007 820.089293 
L 1083.125402 819.39875 
L 1085.385798 804.549951 
L 1087.646193 767.376516 
L 1087.646193 767.376516 
" clip-path="url(#p2bfcbb4c16)" style="fill: none; stroke: #ff7f0e; stroke-width: 2; stroke-linecap: square"/>
   </g>
   <g id="line2d_26">
    <path d="M 95.332557 650.592768 
L 97.592952 649.806976 
L 99.853348 649.268231 
L 102.113743 649.622545 
L 104.374139 649.357694 
L 106.634534 646.914978 
L 108.89493 644.039543 
L 111.155326 639.368878 
L 113.415721 635.354672 
L 115.676117 634.665324 
L 117.936512 633.46246 
L 120.196908 633.385226 
L 122.457303 635.554446 
L 124.717699 642.306392 
L 126.978094 651.035959 
L 129.23849 658.195945 
L 131.498885 660.632605 
L 133.759281 658.248207 
L 136.019676 651.9661 
L 138.280072 648.943926 
L 140.540467 657.470837 
L 142.800863 659.422152 
L 145.061258 665.954774 
L 147.321654 659.209891 
L 149.582049 656.984449 
L 151.842445 653.939247 
L 154.102841 652.454994 
L 156.363236 650.152294 
L 158.623632 654.551525 
L 160.884027 656.725935 
L 163.144423 665.821177 
L 165.404818 665.408217 
L 167.665214 661.00464 
L 169.925609 654.619495 
L 172.186005 660.070212 
L 174.4464 654.728401 
L 176.706796 652.778234 
L 178.967191 649.72276 
L 181.227587 650.230114 
L 183.487982 654.269011 
L 185.748378 662.657394 
L 188.008773 666.19422 
L 190.269169 666.902309 
L 192.529564 660.420473 
L 194.78996 651.245947 
L 197.050356 633.874354 
L 199.310751 575.968532 
L 201.571147 576.921232 
L 203.831542 643.217558 
L 206.091938 663.765138 
L 208.352333 661.725028 
L 210.612729 642.447859 
L 212.873124 621.760381 
L 215.13352 623.781786 
L 217.393915 608.227326 
L 219.654311 624.91887 
L 221.914706 636.82323 
L 224.175102 631.635255 
L 226.435497 621.879665 
L 228.695893 620.969811 
L 230.956288 617.102929 
L 233.216684 608.641656 
L 235.477079 613.943714 
L 237.737475 627.161085 
L 239.997871 634.335677 
L 242.258266 630.566715 
L 244.518662 627.855095 
L 246.779057 620.37379 
L 249.039453 628.284582 
L 251.299848 622.775464 
L 253.560244 619.617444 
L 255.820639 628.100456 
L 258.081035 633.999424 
L 260.34143 629.014269 
L 262.601826 637.540103 
L 264.862221 635.940924 
L 267.122617 642.770408 
L 269.383012 647.906026 
L 271.643408 648.397474 
L 273.903803 642.699311 
L 276.164199 635.264342 
L 278.424595 629.364812 
L 280.68499 624.86218 
L 282.945386 630.510165 
L 285.205781 642.817845 
L 287.466177 644.074213 
L 289.726572 640.161393 
L 291.986968 643.601435 
L 294.247363 641.894497 
L 296.507759 638.751142 
L 298.768154 624.524451 
L 301.02855 621.034911 
L 303.288945 629.069952 
L 305.549341 635.649016 
L 307.809736 635.542827 
L 312.330527 612.143214 
L 314.590923 605.67212 
L 316.851318 615.812992 
L 319.111714 628.356569 
L 321.37211 642.910049 
L 323.632505 635.674058 
L 325.892901 636.106731 
L 328.153296 629.567538 
L 330.413692 630.703989 
L 332.674087 626.877493 
L 334.934483 628.643886 
L 337.194878 633.600297 
L 339.455274 639.514422 
L 341.715669 647.898858 
L 343.976065 646.725769 
L 346.23646 646.520021 
L 348.496856 639.348521 
L 350.757251 629.057068 
L 353.017647 619.814783 
L 355.278042 623.750278 
L 357.538438 622.789543 
L 359.798833 612.241766 
L 364.319625 599.138221 
L 366.58002 601.12615 
L 368.840416 608.111978 
L 371.100811 620.030604 
L 373.361207 619.041594 
L 375.621602 620.213465 
L 377.881998 611.48542 
L 380.142393 613.376039 
L 382.402789 611.818487 
L 384.663184 609.277524 
L 386.92358 611.032906 
L 389.183975 616.335713 
L 391.444371 616.261477 
L 393.704766 616.672786 
L 395.965162 609.242338 
L 398.225557 596.135748 
L 400.485953 601.801794 
L 402.746348 617.041928 
L 405.006744 624.77103 
L 407.26714 636.202191 
L 409.527535 641.118591 
L 411.787931 635.658995 
L 414.048326 620.922655 
L 416.308722 608.746041 
L 418.569117 605.438893 
L 420.829513 608.905313 
L 423.089908 614.501035 
L 425.350304 615.129407 
L 427.610699 615.27488 
L 429.871095 624.557552 
L 432.13149 624.684379 
L 434.391886 601.67143 
L 436.652281 587.654751 
L 438.912677 585.135175 
L 441.173072 605.239072 
L 443.433468 619.194259 
L 445.693864 624.829477 
L 447.954259 620.5682 
L 450.214655 606.821526 
L 452.47505 600.607716 
L 454.735446 607.743726 
L 456.995841 603.948316 
L 459.256237 611.377826 
L 461.516632 614.560701 
L 463.777028 619.965714 
L 466.037423 617.042795 
L 468.297819 613.865964 
L 470.558214 618.763858 
L 472.81861 610.590793 
L 475.079005 616.02127 
L 477.339401 624.876938 
L 479.599796 625.714313 
L 481.860192 621.597198 
L 484.120587 616.023097 
L 486.380983 610.042865 
L 488.641379 605.632273 
L 490.901774 606.56403 
L 493.16217 608.467322 
L 495.422565 608.563227 
L 497.682961 603.90704 
L 499.943356 596.436721 
L 502.203752 599.947017 
L 504.464147 599.12707 
L 506.724543 607.583049 
L 508.984938 613.953436 
L 511.245334 618.997225 
L 513.505729 616.14121 
L 515.766125 615.93921 
L 518.02652 608.142197 
L 520.286916 601.6663 
L 522.547311 594.08731 
L 524.807707 590.462767 
L 527.068102 593.209268 
L 529.328498 608.655571 
L 531.588894 608.275934 
L 533.849289 608.113454 
L 536.109685 615.599186 
L 538.37008 603.588637 
L 540.630476 604.519481 
L 542.890871 607.729881 
L 545.151267 607.798003 
L 547.411662 601.290294 
L 549.672058 608.029894 
L 551.932453 620.740707 
L 554.192849 629.967579 
L 556.453244 631.071117 
L 558.71364 626.286861 
L 560.974035 623.679134 
L 563.234431 624.691547 
L 565.494826 623.073627 
L 567.755222 615.145406 
L 570.015617 610.505382 
L 572.276013 615.176867 
L 574.536409 617.970102 
L 576.796804 612.030982 
L 579.0572 603.737859 
L 581.317595 596.69759 
L 583.577991 586.146323 
L 585.838386 581.766231 
L 588.098782 588.193542 
L 590.359177 601.99262 
L 592.619573 614.489041 
L 594.879968 615.328572 
L 599.400759 628.808662 
L 601.661155 611.698969 
L 603.92155 606.305223 
L 606.181946 612.918769 
L 608.442341 611.659403 
L 610.702737 595.391232 
L 612.963133 585.848629 
L 615.223528 598.828112 
L 617.483924 608.312689 
L 619.744319 603.055 
L 622.004715 594.920094 
L 624.26511 592.44833 
L 626.525506 593.385546 
L 628.785901 589.312307 
L 631.046297 593.301097 
L 633.306692 549.560987 
L 635.567088 508.445776 
L 637.827483 555.986121 
L 640.087879 571.707629 
L 642.348274 518.100611 
L 644.60867 521.285547 
L 646.869065 522.989768 
L 649.129461 610.63242 
L 651.389856 597.784215 
L 653.650252 466.300489 
L 655.910648 570.813915 
L 658.171043 465.621026 
L 660.431439 555.740033 
L 662.691834 406.759083 
L 664.95223 487.039035 
L 667.212625 447.692886 
L 669.473021 467.940288 
L 671.733416 627.260597 
L 673.993812 473.308805 
L 676.254207 430.909864 
L 678.514603 499.42662 
L 680.774998 523.492624 
L 683.035394 453.252931 
L 685.295789 479.594274 
L 687.556185 486.791448 
L 689.81658 442.644083 
L 692.076976 492.859058 
L 694.337371 499.42067 
L 696.597767 457.914764 
L 698.858163 354.999182 
L 701.118558 472.76821 
L 703.378954 498.846154 
L 705.639349 438.539805 
L 707.899745 564.794937 
L 710.16014 402.825438 
L 712.420536 541.787166 
L 714.680931 424.716763 
L 716.941327 424.683592 
L 719.201722 490.710265 
L 723.722513 360.763921 
L 725.982909 406.246341 
L 728.243304 546.566526 
L 730.5037 447.610099 
L 732.764095 325.524158 
L 735.024491 483.029373 
L 737.284886 395.103668 
L 739.545282 525.381205 
L 741.805678 310.978901 
L 744.066073 582.025623 
L 746.326469 256.052126 
L 748.586864 479.5273 
L 750.84726 340.231802 
L 753.107655 518.665522 
L 755.368051 444.806932 
L 757.628446 363.522486 
L 759.888842 360.356642 
L 762.149237 377.634086 
L 764.409633 376.605932 
L 766.670028 540.461973 
L 768.930424 294.104426 
L 771.190819 421.811225 
L 773.451215 448.015786 
L 775.71161 434.612157 
L 777.972006 370.492477 
L 780.232402 273.939763 
L 782.492797 317.713511 
L 784.753193 292.092298 
L 787.013588 287.286326 
L 789.273984 354.518205 
L 791.534379 150.100173 
L 793.794775 297.139086 
L 796.05517 308.087653 
L 798.315566 236.841264 
L 800.575961 332.86437 
L 802.836357 257.882423 
L 805.096752 316.30319 
L 807.357148 200.816599 
L 809.617543 251.891345 
L 811.877939 316.371265 
L 816.39873 136.307537 
L 818.659125 348.72231 
L 820.919521 132.098687 
L 823.179917 316.485489 
L 825.440312 241.010618 
L 827.700708 169.874423 
L 829.961103 153.158165 
L 832.221499 177.993493 
L 834.481894 135.917031 
L 836.74229 226.86149 
L 839.002685 216.290405 
L 841.263081 178.836631 
L 843.523476 134.721008 
L 845.783872 136.281629 
L 848.044267 164.109263 
L 850.304663 92.452595 
L 852.565058 74.738355 
L 854.825454 439.193851 
L 857.085849 84.137218 
L 859.346245 484.725652 
L 861.60664 293.751072 
L 863.867036 204.789272 
L 866.127432 92.395811 
L 868.387827 134.514487 
L 870.648223 140.22961 
L 872.908618 142.091439 
L 875.169014 169.782548 
L 877.429409 105.732536 
L 879.689805 101.037368 
L 881.9502 278.903249 
L 884.210596 89.235636 
L 886.470991 229.617525 
L 888.731387 102.73784 
L 890.991782 193.548398 
L 893.252178 118.143571 
L 895.512573 156.301614 
L 897.772969 144.447643 
L 900.033364 228.42436 
L 902.29376 147.525688 
L 904.554155 200.419627 
L 906.814551 84.887309 
L 909.074947 210.992915 
L 911.335342 111.788832 
L 913.595738 140.804852 
L 915.856133 108.04723 
L 918.116529 121.836962 
L 920.376924 70.421934 
L 922.63732 139.000604 
L 924.897715 137.740488 
L 927.158111 131.348736 
L 929.418506 404.16759 
L 931.678902 102.383784 
L 933.939297 128.272238 
L 936.199693 142.794819 
L 938.460088 253.603296 
L 940.720484 78.007647 
L 942.980879 101.205377 
L 945.241275 66.242225 
L 947.501671 266.552231 
L 949.762066 107.215758 
L 952.022462 106.742231 
L 954.282857 156.64705 
L 956.543253 139.027824 
L 958.803648 101.188558 
L 961.064044 141.845422 
L 963.324439 98.692408 
L 965.584835 76.308721 
L 967.84523 142.676941 
L 972.366021 122.447951 
L 974.626417 140.15507 
L 976.886812 124.502339 
L 979.147208 172.169253 
L 981.407603 148.320944 
L 983.667999 98.375505 
L 985.928394 94.245224 
L 988.18879 220.432773 
L 990.449186 98.270839 
L 992.709581 121.594177 
L 994.969977 99.747923 
L 997.230372 150.096987 
L 999.490768 118.476637 
L 1001.751163 108.691625 
L 1004.011559 138.372514 
L 1008.53235 98.368477 
L 1010.792745 135.213744 
L 1013.053141 233.125337 
L 1015.313536 103.057367 
L 1017.573932 101.533853 
L 1019.834327 167.379398 
L 1022.094723 120.156214 
L 1024.355118 215.684381 
L 1026.615514 100.871186 
L 1028.875909 120.148717 
L 1031.136305 135.889482 
L 1033.396701 96.714107 
L 1035.657096 146.951055 
L 1037.917492 130.209216 
L 1040.177887 102.256255 
L 1042.438283 63.164368 
L 1044.698678 79.790156 
L 1046.959074 89.146806 
L 1049.219469 218.562464 
L 1051.479865 97.139002 
L 1053.74026 102.019655 
L 1056.000656 124.16885 
L 1058.261051 125.149404 
L 1060.521447 145.010891 
L 1062.781842 81.661917 
L 1065.042238 102.689349 
L 1067.302633 87.926561 
L 1069.563029 101.181577 
L 1071.823424 131.21699 
L 1074.08382 139.508754 
L 1076.344216 124.731817 
L 1078.604611 126.073782 
L 1080.865007 92.22635 
L 1083.125402 117.626143 
L 1085.385798 114.670053 
L 1087.646193 145.933255 
L 1087.646193 145.933255 
" clip-path="url(#p2bfcbb4c16)" style="fill: none; stroke: #2ca02c; stroke-width: 2; stroke-linecap: square"/>
   </g>
   <g id="patch_3">
    <path d="M 45.716875 888.477813 
L 45.716875 23.837812 
" style="fill: none; stroke: #000000; stroke-width: 0.8; stroke-linejoin: miter; stroke-linecap: square"/>
   </g>
   <g id="patch_4">
    <path d="M 1137.261875 888.477813 
L 1137.261875 23.837812 
" style="fill: none; stroke: #000000; stroke-width: 0.8; stroke-linejoin: miter; stroke-linecap: square"/>
   </g>
   <g id="patch_5">
    <path d="M 45.716875 888.477813 
L 1137.261875 888.477813 
" style="fill: none; stroke: #000000; stroke-width: 0.8; stroke-linejoin: miter; stroke-linecap: square"/>
   </g>
   <g id="patch_6">
    <path d="M 45.716875 23.837812 
L 1137.261875 23.837812 
" style="fill: none; stroke: #000000; stroke-width: 0.8; stroke-linejoin: miter; stroke-linecap: square"/>
   </g>
   <g id="text_14">
    <!-- Link 0: Evolucin de Probabilidades de Accin -->
    <g transform="translate(410.401562 17.837812) scale(0.14 -0.14)">
     <defs>
      <path id="DejaVuSans-Bold-4c" d="M 588 4666 
L 1791 4666 
L 1791 909 
L 3903 909 
L 3903 0 
L 588 0 
L 588 4666 
z
" transform="scale(0.015625)"/>
      <path id="DejaVuSans-Bold-69" d="M 538 3500 
L 1656 3500 
L 1656 0 
L 538 0 
L 538 3500 
z
M 538 4863 
L 1656 4863 
L 1656 3950 
L 538 3950 
L 538 4863 
z
" transform="scale(0.015625)"/>
      <path id="DejaVuSans-Bold-6e" d="M 4056 2131 
L 4056 0 
L 2931 0 
L 2931 347 
L 2931 1631 
Q 2931 2084 2911 2256 
Q 2891 2428 2841 2509 
Q 2775 2619 2662 2680 
Q 2550 2741 2406 2741 
Q 2056 2741 1856 2470 
Q 1656 2200 1656 1722 
L 1656 0 
L 538 0 
L 538 3500 
L 1656 3500 
L 1656 2988 
Q 1909 3294 2193 3439 
Q 2478 3584 2822 3584 
Q 3428 3584 3742 3212 
Q 4056 2841 4056 2131 
z
" transform="scale(0.015625)"/>
      <path id="DejaVuSans-Bold-6b" d="M 538 4863 
L 1656 4863 
L 1656 2216 
L 2944 3500 
L 4244 3500 
L 2534 1894 
L 4378 0 
L 3022 0 
L 1656 1459 
L 1656 0 
L 538 0 
L 538 4863 
z
" transform="scale(0.015625)"/>
      <path id="DejaVuSans-Bold-20" transform="scale(0.015625)"/>
      <path id="DejaVuSans-Bold-30" d="M 2944 2338 
Q 2944 3213 2780 3570 
Q 2616 3928 2228 3928 
Q 1841 3928 1675 3570 
Q 1509 3213 1509 2338 
Q 1509 1453 1675 1090 
Q 1841 728 2228 728 
Q 2613 728 2778 1090 
Q 2944 1453 2944 2338 
z
M 4147 2328 
Q 4147 1169 3647 539 
Q 3147 -91 2228 -91 
Q 1306 -91 806 539 
Q 306 1169 306 2328 
Q 306 3491 806 4120 
Q 1306 4750 2228 4750 
Q 3147 4750 3647 4120 
Q 4147 3491 4147 2328 
z
" transform="scale(0.015625)"/>
      <path id="DejaVuSans-Bold-3a" d="M 716 3500 
L 1844 3500 
L 1844 2291 
L 716 2291 
L 716 3500 
z
M 716 1209 
L 1844 1209 
L 1844 0 
L 716 0 
L 716 1209 
z
" transform="scale(0.015625)"/>
      <path id="DejaVuSans-Bold-45" d="M 588 4666 
L 3834 4666 
L 3834 3756 
L 1791 3756 
L 1791 2888 
L 3713 2888 
L 3713 1978 
L 1791 1978 
L 1791 909 
L 3903 909 
L 3903 0 
L 588 0 
L 588 4666 
z
" transform="scale(0.015625)"/>
      <path id="DejaVuSans-Bold-76" d="M 97 3500 
L 1216 3500 
L 2088 1081 
L 2956 3500 
L 4078 3500 
L 2700 0 
L 1472 0 
L 97 3500 
z
" transform="scale(0.015625)"/>
      <path id="DejaVuSans-Bold-6f" d="M 2203 2784 
Q 1831 2784 1636 2517 
Q 1441 2250 1441 1747 
Q 1441 1244 1636 976 
Q 1831 709 2203 709 
Q 2569 709 2762 976 
Q 2956 1244 2956 1747 
Q 2956 2250 2762 2517 
Q 2569 2784 2203 2784 
z
M 2203 3584 
Q 3106 3584 3614 3096 
Q 4122 2609 4122 1747 
Q 4122 884 3614 396 
Q 3106 -91 2203 -91 
Q 1297 -91 786 396 
Q 275 884 275 1747 
Q 275 2609 786 3096 
Q 1297 3584 2203 3584 
z
" transform="scale(0.015625)"/>
      <path id="DejaVuSans-Bold-6c" d="M 538 4863 
L 1656 4863 
L 1656 0 
L 538 0 
L 538 4863 
z
" transform="scale(0.015625)"/>
      <path id="DejaVuSans-Bold-75" d="M 500 1363 
L 500 3500 
L 1625 3500 
L 1625 3150 
Q 1625 2866 1622 2436 
Q 1619 2006 1619 1863 
Q 1619 1441 1641 1255 
Q 1663 1069 1716 984 
Q 1784 875 1895 815 
Q 2006 756 2150 756 
Q 2500 756 2700 1025 
Q 2900 1294 2900 1772 
L 2900 3500 
L 4019 3500 
L 4019 0 
L 2900 0 
L 2900 506 
Q 2647 200 2364 54 
Q 2081 -91 1741 -91 
Q 1134 -91 817 281 
Q 500 653 500 1363 
z
" transform="scale(0.015625)"/>
      <path id="DejaVuSans-Bold-63" d="M 3366 3391 
L 3366 2478 
Q 3138 2634 2908 2709 
Q 2678 2784 2431 2784 
Q 1963 2784 1702 2511 
Q 1441 2238 1441 1747 
Q 1441 1256 1702 982 
Q 1963 709 2431 709 
Q 2694 709 2930 787 
Q 3166 866 3366 1019 
L 3366 103 
Q 3103 6 2833 -42 
Q 2563 -91 2291 -91 
Q 1344 -91 809 395 
Q 275 881 275 1747 
Q 275 2613 809 3098 
Q 1344 3584 2291 3584 
Q 2566 3584 2833 3536 
Q 3100 3488 3366 3391 
z
" transform="scale(0.015625)"/>
      <path id="DejaVuSans-Bold-f3" d="M 2203 2784 
Q 1831 2784 1636 2517 
Q 1441 2250 1441 1747 
Q 1441 1244 1636 976 
Q 1831 709 2203 709 
Q 2569 709 2762 976 
Q 2956 1244 2956 1747 
Q 2956 2250 2762 2517 
Q 2569 2784 2203 2784 
z
M 2203 3584 
Q 3106 3584 3614 3096 
Q 4122 2609 4122 1747 
Q 4122 884 3614 396 
Q 3106 -91 2203 -91 
Q 1297 -91 786 396 
Q 275 884 275 1747 
Q 275 2609 786 3096 
Q 1297 3584 2203 3584 
z
M 2694 5119 
L 3578 5119 
L 2425 3944 
L 1813 3944 
L 2694 5119 
z
" transform="scale(0.015625)"/>
      <path id="DejaVuSans-Bold-64" d="M 2919 2988 
L 2919 4863 
L 4044 4863 
L 4044 0 
L 2919 0 
L 2919 506 
Q 2688 197 2409 53 
Q 2131 -91 1766 -91 
Q 1119 -91 703 423 
Q 288 938 288 1747 
Q 288 2556 703 3070 
Q 1119 3584 1766 3584 
Q 2128 3584 2408 3439 
Q 2688 3294 2919 2988 
z
M 2181 722 
Q 2541 722 2730 984 
Q 2919 1247 2919 1747 
Q 2919 2247 2730 2509 
Q 2541 2772 2181 2772 
Q 1825 2772 1636 2509 
Q 1447 2247 1447 1747 
Q 1447 1247 1636 984 
Q 1825 722 2181 722 
z
" transform="scale(0.015625)"/>
      <path id="DejaVuSans-Bold-65" d="M 4031 1759 
L 4031 1441 
L 1416 1441 
Q 1456 1047 1700 850 
Q 1944 653 2381 653 
Q 2734 653 3104 758 
Q 3475 863 3866 1075 
L 3866 213 
Q 3469 63 3072 -14 
Q 2675 -91 2278 -91 
Q 1328 -91 801 392 
Q 275 875 275 1747 
Q 275 2603 792 3093 
Q 1309 3584 2216 3584 
Q 3041 3584 3536 3087 
Q 4031 2591 4031 1759 
z
M 2881 2131 
Q 2881 2450 2695 2645 
Q 2509 2841 2209 2841 
Q 1884 2841 1681 2658 
Q 1478 2475 1428 2131 
L 2881 2131 
z
" transform="scale(0.015625)"/>
      <path id="DejaVuSans-Bold-50" d="M 588 4666 
L 2584 4666 
Q 3475 4666 3951 4270 
Q 4428 3875 4428 3144 
Q 4428 2409 3951 2014 
Q 3475 1619 2584 1619 
L 1791 1619 
L 1791 0 
L 588 0 
L 588 4666 
z
M 1791 3794 
L 1791 2491 
L 2456 2491 
Q 2806 2491 2997 2661 
Q 3188 2831 3188 3144 
Q 3188 3456 2997 3625 
Q 2806 3794 2456 3794 
L 1791 3794 
z
" transform="scale(0.015625)"/>
      <path id="DejaVuSans-Bold-72" d="M 3138 2547 
Q 2991 2616 2845 2648 
Q 2700 2681 2553 2681 
Q 2122 2681 1889 2404 
Q 1656 2128 1656 1613 
L 1656 0 
L 538 0 
L 538 3500 
L 1656 3500 
L 1656 2925 
Q 1872 3269 2151 3426 
Q 2431 3584 2822 3584 
Q 2878 3584 2943 3579 
Q 3009 3575 3134 3559 
L 3138 2547 
z
" transform="scale(0.015625)"/>
      <path id="DejaVuSans-Bold-62" d="M 2400 722 
Q 2759 722 2948 984 
Q 3138 1247 3138 1747 
Q 3138 2247 2948 2509 
Q 2759 2772 2400 2772 
Q 2041 2772 1848 2508 
Q 1656 2244 1656 1747 
Q 1656 1250 1848 986 
Q 2041 722 2400 722 
z
M 1656 2988 
Q 1888 3294 2169 3439 
Q 2450 3584 2816 3584 
Q 3463 3584 3878 3070 
Q 4294 2556 4294 1747 
Q 4294 938 3878 423 
Q 3463 -91 2816 -91 
Q 2450 -91 2169 54 
Q 1888 200 1656 506 
L 1656 0 
L 538 0 
L 538 4863 
L 1656 4863 
L 1656 2988 
z
" transform="scale(0.015625)"/>
      <path id="DejaVuSans-Bold-61" d="M 2106 1575 
Q 1756 1575 1579 1456 
Q 1403 1338 1403 1106 
Q 1403 894 1545 773 
Q 1688 653 1941 653 
Q 2256 653 2472 879 
Q 2688 1106 2688 1447 
L 2688 1575 
L 2106 1575 
z
M 3816 1997 
L 3816 0 
L 2688 0 
L 2688 519 
Q 2463 200 2181 54 
Q 1900 -91 1497 -91 
Q 953 -91 614 226 
Q 275 544 275 1050 
Q 275 1666 698 1953 
Q 1122 2241 2028 2241 
L 2688 2241 
L 2688 2328 
Q 2688 2594 2478 2717 
Q 2269 2841 1825 2841 
Q 1466 2841 1156 2769 
Q 847 2697 581 2553 
L 581 3406 
Q 941 3494 1303 3539 
Q 1666 3584 2028 3584 
Q 2975 3584 3395 3211 
Q 3816 2838 3816 1997 
z
" transform="scale(0.015625)"/>
      <path id="DejaVuSans-Bold-73" d="M 3272 3391 
L 3272 2541 
Q 2913 2691 2578 2766 
Q 2244 2841 1947 2841 
Q 1628 2841 1473 2761 
Q 1319 2681 1319 2516 
Q 1319 2381 1436 2309 
Q 1553 2238 1856 2203 
L 2053 2175 
Q 2913 2066 3209 1816 
Q 3506 1566 3506 1031 
Q 3506 472 3093 190 
Q 2681 -91 1863 -91 
Q 1516 -91 1145 -36 
Q 775 19 384 128 
L 384 978 
Q 719 816 1070 734 
Q 1422 653 1784 653 
Q 2113 653 2278 743 
Q 2444 834 2444 1013 
Q 2444 1163 2330 1236 
Q 2216 1309 1875 1350 
L 1678 1375 
Q 931 1469 631 1722 
Q 331 1975 331 2491 
Q 331 3047 712 3315 
Q 1094 3584 1881 3584 
Q 2191 3584 2531 3537 
Q 2872 3491 3272 3391 
z
" transform="scale(0.015625)"/>
      <path id="DejaVuSans-Bold-41" d="M 3419 850 
L 1538 850 
L 1241 0 
L 31 0 
L 1759 4666 
L 3194 4666 
L 4922 0 
L 3713 0 
L 3419 850 
z
M 1838 1716 
L 3116 1716 
L 2478 3572 
L 1838 1716 
z
" transform="scale(0.015625)"/>
     </defs>
     <use xlink:href="#DejaVuSans-Bold-4c"/>
     <use xlink:href="#DejaVuSans-Bold-69" transform="translate(63.720703 0)"/>
     <use xlink:href="#DejaVuSans-Bold-6e" transform="translate(97.998047 0)"/>
     <use xlink:href="#DejaVuSans-Bold-6b" transform="translate(169.189453 0)"/>
     <use xlink:href="#DejaVuSans-Bold-20" transform="translate(235.693359 0)"/>
     <use xlink:href="#DejaVuSans-Bold-30" transform="translate(270.507812 0)"/>
     <use xlink:href="#DejaVuSans-Bold-3a" transform="translate(340.087891 0)"/>
     <use xlink:href="#DejaVuSans-Bold-20" transform="translate(380.078125 0)"/>
     <use xlink:href="#DejaVuSans-Bold-45" transform="translate(414.892578 0)"/>
     <use xlink:href="#DejaVuSans-Bold-76" transform="translate(483.203125 0)"/>
     <use xlink:href="#DejaVuSans-Bold-6f" transform="translate(548.388672 0)"/>
     <use xlink:href="#DejaVuSans-Bold-6c" transform="translate(617.089844 0)"/>
     <use xlink:href="#DejaVuSans-Bold-75" transform="translate(651.367188 0)"/>
     <use xlink:href="#DejaVuSans-Bold-63" transform="translate(722.558594 0)"/>
     <use xlink:href="#DejaVuSans-Bold-69" transform="translate(781.835938 0)"/>
     <use xlink:href="#DejaVuSans-Bold-f3" transform="translate(816.113281 0)"/>
     <use xlink:href="#DejaVuSans-Bold-6e" transform="translate(884.814453 0)"/>
     <use xlink:href="#DejaVuSans-Bold-20" transform="translate(956.005859 0)"/>
     <use xlink:href="#DejaVuSans-Bold-64" transform="translate(990.820312 0)"/>
     <use xlink:href="#DejaVuSans-Bold-65" transform="translate(1062.402344 0)"/>
     <use xlink:href="#DejaVuSans-Bold-20" transform="translate(1130.224609 0)"/>
     <use xlink:href="#DejaVuSans-Bold-50" transform="translate(1165.039062 0)"/>
     <use xlink:href="#DejaVuSans-Bold-72" transform="translate(1238.330078 0)"/>
     <use xlink:href="#DejaVuSans-Bold-6f" transform="translate(1287.646484 0)"/>
     <use xlink:href="#DejaVuSans-Bold-62" transform="translate(1356.347656 0)"/>
     <use xlink:href="#DejaVuSans-Bold-61" transform="translate(1427.929688 0)"/>
     <use xlink:href="#DejaVuSans-Bold-62" transform="translate(1495.410156 0)"/>
     <use xlink:href="#DejaVuSans-Bold-69" transform="translate(1566.992188 0)"/>
     <use xlink:href="#DejaVuSans-Bold-6c" transform="translate(1601.269531 0)"/>
     <use xlink:href="#DejaVuSans-Bold-69" transform="translate(1635.546875 0)"/>
     <use xlink:href="#DejaVuSans-Bold-64" transform="translate(1669.824219 0)"/>
     <use xlink:href="#DejaVuSans-Bold-61" transform="translate(1741.40625 0)"/>
     <use xlink:href="#DejaVuSans-Bold-64" transform="translate(1808.886719 0)"/>
     <use xlink:href="#DejaVuSans-Bold-65" transform="translate(1880.46875 0)"/>
     <use xlink:href="#DejaVuSans-Bold-73" transform="translate(1948.291016 0)"/>
     <use xlink:href="#DejaVuSans-Bold-20" transform="translate(2007.8125 0)"/>
     <use xlink:href="#DejaVuSans-Bold-64" transform="translate(2042.626953 0)"/>
     <use xlink:href="#DejaVuSans-Bold-65" transform="translate(2114.208984 0)"/>
     <use xlink:href="#DejaVuSans-Bold-20" transform="translate(2182.03125 0)"/>
     <use xlink:href="#DejaVuSans-Bold-41" transform="translate(2216.845703 0)"/>
     <use xlink:href="#DejaVuSans-Bold-63" transform="translate(2294.238281 0)"/>
     <use xlink:href="#DejaVuSans-Bold-63" transform="translate(2353.515625 0)"/>
     <use xlink:href="#DejaVuSans-Bold-69" transform="translate(2412.792969 0)"/>
     <use xlink:href="#DejaVuSans-Bold-f3" transform="translate(2447.070312 0)"/>
     <use xlink:href="#DejaVuSans-Bold-6e" transform="translate(2515.771484 0)"/>
    </g>
   </g>
   <g id="legend_1">
    <g id="patch_7">
     <path d="M 53.416875 97.221562 
L 130.301719 97.221562 
Q 132.501719 97.221562 132.501719 95.021562 
L 132.501719 31.537812 
Q 132.501719 29.337812 130.301719 29.337812 
L 53.416875 29.337812 
Q 51.216875 29.337812 51.216875 31.537812 
L 51.216875 95.021562 
Q 51.216875 97.221562 53.416875 97.221562 
z
" style="fill: #ffffff; opacity: 0.8; stroke: #cccccc; stroke-linejoin: miter"/>
    </g>
    <g id="line2d_27">
     <path d="M 55.616875 38.246094 
L 66.616875 38.246094 
L 77.616875 38.246094 
" style="fill: none; stroke-dasharray: 9.25,4; stroke-dashoffset: 0; stroke: #000000; stroke-width: 2.5"/>
    </g>
    <g id="text_15">
     <!-- No TX -->
     <g transform="translate(86.416875 42.096094) scale(0.11 -0.11)">
      <defs>
       <path id="DejaVuSans-4e" d="M 628 4666 
L 1478 4666 
L 3547 763 
L 3547 4666 
L 4159 4666 
L 4159 0 
L 3309 0 
L 1241 3903 
L 1241 0 
L 628 0 
L 628 4666 
z
" transform="scale(0.015625)"/>
       <path id="DejaVuSans-54" d="M -19 4666 
L 3928 4666 
L 3928 4134 
L 2272 4134 
L 2272 0 
L 1638 0 
L 1638 4134 
L -19 4134 
L -19 4666 
z
" transform="scale(0.015625)"/>
       <path id="DejaVuSans-58" d="M 403 4666 
L 1081 4666 
L 2241 2931 
L 3406 4666 
L 4084 4666 
L 2584 2425 
L 4184 0 
L 3506 0 
L 2194 1984 
L 872 0 
L 191 0 
L 1856 2491 
L 403 4666 
z
" transform="scale(0.015625)"/>
      </defs>
      <use xlink:href="#DejaVuSans-4e"/>
      <use xlink:href="#DejaVuSans-6f" transform="translate(74.804688 0)"/>
      <use xlink:href="#DejaVuSans-20" transform="translate(135.986328 0)"/>
      <use xlink:href="#DejaVuSans-54" transform="translate(167.773438 0)"/>
      <use xlink:href="#DejaVuSans-58" transform="translate(228.857422 0)"/>
     </g>
    </g>
    <g id="line2d_28">
     <path d="M 55.616875 54.392031 
L 66.616875 54.392031 
L 77.616875 54.392031 
" style="fill: none; stroke: #1f77b4; stroke-width: 2; stroke-linecap: square"/>
    </g>
    <g id="text_16">
     <!-- Canal 0 -->
     <g transform="translate(86.416875 58.242031) scale(0.11 -0.11)">
      <defs>
       <path id="DejaVuSans-43" d="M 4122 4306 
L 4122 3641 
Q 3803 3938 3442 4084 
Q 3081 4231 2675 4231 
Q 1875 4231 1450 3742 
Q 1025 3253 1025 2328 
Q 1025 1406 1450 917 
Q 1875 428 2675 428 
Q 3081 428 3442 575 
Q 3803 722 4122 1019 
L 4122 359 
Q 3791 134 3420 21 
Q 3050 -91 2638 -91 
Q 1578 -91 968 557 
Q 359 1206 359 2328 
Q 359 3453 968 4101 
Q 1578 4750 2638 4750 
Q 3056 4750 3426 4639 
Q 3797 4528 4122 4306 
z
" transform="scale(0.015625)"/>
      </defs>
      <use xlink:href="#DejaVuSans-43"/>
      <use xlink:href="#DejaVuSans-61" transform="translate(69.824219 0)"/>
      <use xlink:href="#DejaVuSans-6e" transform="translate(131.103516 0)"/>
      <use xlink:href="#DejaVuSans-61" transform="translate(194.482422 0)"/>
      <use xlink:href="#DejaVuSans-6c" transform="translate(255.761719 0)"/>
      <use xlink:href="#DejaVuSans-20" transform="translate(283.544922 0)"/>
      <use xlink:href="#DejaVuSans-30" transform="translate(315.332031 0)"/>
     </g>
    </g>
    <g id="line2d_29">
     <path d="M 55.616875 70.537969 
L 66.616875 70.537969 
L 77.616875 70.537969 
" style="fill: none; stroke: #ff7f0e; stroke-width: 2; stroke-linecap: square"/>
    </g>
    <g id="text_17">
     <!-- Canal 1 -->
     <g transform="translate(86.416875 74.387969) scale(0.11 -0.11)">
      <use xlink:href="#DejaVuSans-43"/>
      <use xlink:href="#DejaVuSans-61" transform="translate(69.824219 0)"/>
      <use xlink:href="#DejaVuSans-6e" transform="translate(131.103516 0)"/>
      <use xlink:href="#DejaVuSans-61" transform="translate(194.482422 0)"/>
      <use xlink:href="#DejaVuSans-6c" transform="translate(255.761719 0)"/>
      <use xlink:href="#DejaVuSans-20" transform="translate(283.544922 0)"/>
      <use xlink:href="#DejaVuSans-31" transform="translate(315.332031 0)"/>
     </g>
    </g>
    <g id="line2d_30">
     <path d="M 55.616875 86.683906 
L 66.616875 86.683906 
L 77.616875 86.683906 
" style="fill: none; stroke: #2ca02c; stroke-width: 2; stroke-linecap: square"/>
    </g>
    <g id="text_18">
     <!-- Canal 2 -->
     <g transform="translate(86.416875 90.533906) scale(0.11 -0.11)">
      <use xlink:href="#DejaVuSans-43"/>
      <use xlink:href="#DejaVuSans-61" transform="translate(69.824219 0)"/>
      <use xlink:href="#DejaVuSans-6e" transform="translate(131.103516 0)"/>
      <use xlink:href="#DejaVuSans-61" transform="translate(194.482422 0)"/>
      <use xlink:href="#DejaVuSans-6c" transform="translate(255.761719 0)"/>
      <use xlink:href="#DejaVuSans-20" transform="translate(283.544922 0)"/>
      <use xlink:href="#DejaVuSans-32" transform="translate(315.332031 0)"/>
     </g>
    </g>
   </g>
  </g>
 </g>
 <defs>
  <clipPath id="p2bfcbb4c16">
   <rect x="45.716875" y="23.837812" width="1091.545" height="864.64"/>
  </clipPath>
 </defs>
</svg>
