<?xml version="1.0" encoding="utf-8" standalone="no"?>
<!DOCTYPE svg PUBLIC "-//W3C//DTD SVG 1.1//EN"
  "http://www.w3.org/Graphics/SVG/1.1/DTD/svg11.dtd">
<svg xmlns:xlink="http://www.w3.org/1999/xlink" width="1144.461875pt" height="927.969688pt" viewBox="0 0 1144.461875 927.969688" xmlns="http://www.w3.org/2000/svg" version="1.1">
 <metadata>
  <rdf:RDF xmlns:dc="http://purl.org/dc/elements/1.1/" xmlns:cc="http://creativecommons.org/ns#" xmlns:rdf="http://www.w3.org/1999/02/22-rdf-syntax-ns#">
   <cc:Work>
    <dc:type rdf:resource="http://purl.org/dc/dcmitype/StillImage"/>
    <dc:date>2025-10-17T20:07:16.532986</dc:date>
    <dc:format>image/svg+xml</dc:format>
    <dc:creator>
     <cc:Agent>
      <dc:title>Matplotlib v3.10.1, https://matplotlib.org/</dc:title>
     </cc:Agent>
    </dc:creator>
   </cc:Work>
  </rdf:RDF>
 </metadata>
 <defs>
  <style type="text/css">*{stroke-linejoin: round; stroke-linecap: butt}</style>
 </defs>
 <g id="figure_1">
  <g id="patch_1">
   <path d="M 0 927.969688 
L 1144.461875 927.969688 
L 1144.461875 0 
L 0 0 
z
" style="fill: #ffffff"/>
  </g>
  <g id="axes_1">
   <g id="patch_2">
    <path d="M 45.716875 888.477813 
L 1137.261875 888.477813 
L 1137.261875 23.837812 
L 45.716875 23.837812 
z
" style="fill: #ffffff"/>
   </g>
   <g id="matplotlib.axis_1">
    <g id="xtick_1">
     <g id="line2d_1">
      <path d="M 95.332557 888.477813 
L 95.332557 23.837812 
" clip-path="url(#p13f4662456)" style="fill: none; stroke: #b0b0b0; stroke-opacity: 0.3; stroke-width: 0.8; stroke-linecap: square"/>
     </g>
     <g id="line2d_2">
      <defs>
       <path id="m2708a3252d" d="M 0 0 
L 0 3.5 
" style="stroke: #000000; stroke-width: 0.8"/>
      </defs>
      <g>
       <use xlink:href="#m2708a3252d" x="95.332557" y="888.477813" style="stroke: #000000; stroke-width: 0.8"/>
      </g>
     </g>
     <g id="text_1">
      <!-- 0 -->
      <g transform="translate(92.151307 903.07625) scale(0.1 -0.1)">
       <defs>
        <path id="DejaVuSans-30" d="M 2034 4250 
Q 1547 4250 1301 3770 
Q 1056 3291 1056 2328 
Q 1056 1369 1301 889 
Q 1547 409 2034 409 
Q 2525 409 2770 889 
Q 3016 1369 3016 2328 
Q 3016 3291 2770 3770 
Q 2525 4250 2034 4250 
z
M 2034 4750 
Q 2819 4750 3233 4129 
Q 3647 3509 3647 2328 
Q 3647 1150 3233 529 
Q 2819 -91 2034 -91 
Q 1250 -91 836 529 
Q 422 1150 422 2328 
Q 422 3509 836 4129 
Q 1250 4750 2034 4750 
z
" transform="scale(0.015625)"/>
       </defs>
       <use xlink:href="#DejaVuSans-30"/>
      </g>
     </g>
    </g>
    <g id="xtick_2">
     <g id="line2d_3">
      <path d="M 321.37211 888.477813 
L 321.37211 23.837812 
" clip-path="url(#p13f4662456)" style="fill: none; stroke: #b0b0b0; stroke-opacity: 0.3; stroke-width: 0.8; stroke-linecap: square"/>
     </g>
     <g id="line2d_4">
      <g>
       <use xlink:href="#m2708a3252d" x="321.37211" y="888.477813" style="stroke: #000000; stroke-width: 0.8"/>
      </g>
     </g>
     <g id="text_2">
      <!-- 100 -->
      <g transform="translate(311.82836 903.07625) scale(0.1 -0.1)">
       <defs>
        <path id="DejaVuSans-31" d="M 794 531 
L 1825 531 
L 1825 4091 
L 703 3866 
L 703 4441 
L 1819 4666 
L 2450 4666 
L 2450 531 
L 3481 531 
L 3481 0 
L 794 0 
L 794 531 
z
" transform="scale(0.015625)"/>
       </defs>
       <use xlink:href="#DejaVuSans-31"/>
       <use xlink:href="#DejaVuSans-30" transform="translate(63.623047 0)"/>
       <use xlink:href="#DejaVuSans-30" transform="translate(127.246094 0)"/>
      </g>
     </g>
    </g>
    <g id="xtick_3">
     <g id="line2d_5">
      <path d="M 547.411662 888.477813 
L 547.411662 23.837812 
" clip-path="url(#p13f4662456)" style="fill: none; stroke: #b0b0b0; stroke-opacity: 0.3; stroke-width: 0.8; stroke-linecap: square"/>
     </g>
     <g id="line2d_6">
      <g>
       <use xlink:href="#m2708a3252d" x="547.411662" y="888.477813" style="stroke: #000000; stroke-width: 0.8"/>
      </g>
     </g>
     <g id="text_3">
      <!-- 200 -->
      <g transform="translate(537.867912 903.07625) scale(0.1 -0.1)">
       <defs>
        <path id="DejaVuSans-32" d="M 1228 531 
L 3431 531 
L 3431 0 
L 469 0 
L 469 531 
Q 828 903 1448 1529 
Q 2069 2156 2228 2338 
Q 2531 2678 2651 2914 
Q 2772 3150 2772 3378 
Q 2772 3750 2511 3984 
Q 2250 4219 1831 4219 
Q 1534 4219 1204 4116 
Q 875 4013 500 3803 
L 500 4441 
Q 881 4594 1212 4672 
Q 1544 4750 1819 4750 
Q 2544 4750 2975 4387 
Q 3406 4025 3406 3419 
Q 3406 3131 3298 2873 
Q 3191 2616 2906 2266 
Q 2828 2175 2409 1742 
Q 1991 1309 1228 531 
z
" transform="scale(0.015625)"/>
       </defs>
       <use xlink:href="#DejaVuSans-32"/>
       <use xlink:href="#DejaVuSans-30" transform="translate(63.623047 0)"/>
       <use xlink:href="#DejaVuSans-30" transform="translate(127.246094 0)"/>
      </g>
     </g>
    </g>
    <g id="xtick_4">
     <g id="line2d_7">
      <path d="M 773.451215 888.477813 
L 773.451215 23.837812 
" clip-path="url(#p13f4662456)" style="fill: none; stroke: #b0b0b0; stroke-opacity: 0.3; stroke-width: 0.8; stroke-linecap: square"/>
     </g>
     <g id="line2d_8">
      <g>
       <use xlink:href="#m2708a3252d" x="773.451215" y="888.477813" style="stroke: #000000; stroke-width: 0.8"/>
      </g>
     </g>
     <g id="text_4">
      <!-- 300 -->
      <g transform="translate(763.907465 903.07625) scale(0.1 -0.1)">
       <defs>
        <path id="DejaVuSans-33" d="M 2597 2516 
Q 3050 2419 3304 2112 
Q 3559 1806 3559 1356 
Q 3559 666 3084 287 
Q 2609 -91 1734 -91 
Q 1441 -91 1130 -33 
Q 819 25 488 141 
L 488 750 
Q 750 597 1062 519 
Q 1375 441 1716 441 
Q 2309 441 2620 675 
Q 2931 909 2931 1356 
Q 2931 1769 2642 2001 
Q 2353 2234 1838 2234 
L 1294 2234 
L 1294 2753 
L 1863 2753 
Q 2328 2753 2575 2939 
Q 2822 3125 2822 3475 
Q 2822 3834 2567 4026 
Q 2313 4219 1838 4219 
Q 1578 4219 1281 4162 
Q 984 4106 628 3988 
L 628 4550 
Q 988 4650 1302 4700 
Q 1616 4750 1894 4750 
Q 2613 4750 3031 4423 
Q 3450 4097 3450 3541 
Q 3450 3153 3228 2886 
Q 3006 2619 2597 2516 
z
" transform="scale(0.015625)"/>
       </defs>
       <use xlink:href="#DejaVuSans-33"/>
       <use xlink:href="#DejaVuSans-30" transform="translate(63.623047 0)"/>
       <use xlink:href="#DejaVuSans-30" transform="translate(127.246094 0)"/>
      </g>
     </g>
    </g>
    <g id="xtick_5">
     <g id="line2d_9">
      <path d="M 999.490768 888.477813 
L 999.490768 23.837812 
" clip-path="url(#p13f4662456)" style="fill: none; stroke: #b0b0b0; stroke-opacity: 0.3; stroke-width: 0.8; stroke-linecap: square"/>
     </g>
     <g id="line2d_10">
      <g>
       <use xlink:href="#m2708a3252d" x="999.490768" y="888.477813" style="stroke: #000000; stroke-width: 0.8"/>
      </g>
     </g>
     <g id="text_5">
      <!-- 400 -->
      <g transform="translate(989.947018 903.07625) scale(0.1 -0.1)">
       <defs>
        <path id="DejaVuSans-34" d="M 2419 4116 
L 825 1625 
L 2419 1625 
L 2419 4116 
z
M 2253 4666 
L 3047 4666 
L 3047 1625 
L 3713 1625 
L 3713 1100 
L 3047 1100 
L 3047 0 
L 2419 0 
L 2419 1100 
L 313 1100 
L 313 1709 
L 2253 4666 
z
" transform="scale(0.015625)"/>
       </defs>
       <use xlink:href="#DejaVuSans-34"/>
       <use xlink:href="#DejaVuSans-30" transform="translate(63.623047 0)"/>
       <use xlink:href="#DejaVuSans-30" transform="translate(127.246094 0)"/>
      </g>
     </g>
    </g>
    <g id="text_6">
     <!-- Iteraciones (x10) -->
     <g transform="translate(540.499688 918.274063) scale(0.12 -0.12)">
      <defs>
       <path id="DejaVuSans-49" d="M 628 4666 
L 1259 4666 
L 1259 0 
L 628 0 
L 628 4666 
z
" transform="scale(0.015625)"/>
       <path id="DejaVuSans-74" d="M 1172 4494 
L 1172 3500 
L 2356 3500 
L 2356 3053 
L 1172 3053 
L 1172 1153 
Q 1172 725 1289 603 
Q 1406 481 1766 481 
L 2356 481 
L 2356 0 
L 1766 0 
Q 1100 0 847 248 
Q 594 497 594 1153 
L 594 3053 
L 172 3053 
L 172 3500 
L 594 3500 
L 594 4494 
L 1172 4494 
z
" transform="scale(0.015625)"/>
       <path id="DejaVuSans-65" d="M 3597 1894 
L 3597 1613 
L 953 1613 
Q 991 1019 1311 708 
Q 1631 397 2203 397 
Q 2534 397 2845 478 
Q 3156 559 3463 722 
L 3463 178 
Q 3153 47 2828 -22 
Q 2503 -91 2169 -91 
Q 1331 -91 842 396 
Q 353 884 353 1716 
Q 353 2575 817 3079 
Q 1281 3584 2069 3584 
Q 2775 3584 3186 3129 
Q 3597 2675 3597 1894 
z
M 3022 2063 
Q 3016 2534 2758 2815 
Q 2500 3097 2075 3097 
Q 1594 3097 1305 2825 
Q 1016 2553 972 2059 
L 3022 2063 
z
" transform="scale(0.015625)"/>
       <path id="DejaVuSans-72" d="M 2631 2963 
Q 2534 3019 2420 3045 
Q 2306 3072 2169 3072 
Q 1681 3072 1420 2755 
Q 1159 2438 1159 1844 
L 1159 0 
L 581 0 
L 581 3500 
L 1159 3500 
L 1159 2956 
Q 1341 3275 1631 3429 
Q 1922 3584 2338 3584 
Q 2397 3584 2469 3576 
Q 2541 3569 2628 3553 
L 2631 2963 
z
" transform="scale(0.015625)"/>
       <path id="DejaVuSans-61" d="M 2194 1759 
Q 1497 1759 1228 1600 
Q 959 1441 959 1056 
Q 959 750 1161 570 
Q 1363 391 1709 391 
Q 2188 391 2477 730 
Q 2766 1069 2766 1631 
L 2766 1759 
L 2194 1759 
z
M 3341 1997 
L 3341 0 
L 2766 0 
L 2766 531 
Q 2569 213 2275 61 
Q 1981 -91 1556 -91 
Q 1019 -91 701 211 
Q 384 513 384 1019 
Q 384 1609 779 1909 
Q 1175 2209 1959 2209 
L 2766 2209 
L 2766 2266 
Q 2766 2663 2505 2880 
Q 2244 3097 1772 3097 
Q 1472 3097 1187 3025 
Q 903 2953 641 2809 
L 641 3341 
Q 956 3463 1253 3523 
Q 1550 3584 1831 3584 
Q 2591 3584 2966 3190 
Q 3341 2797 3341 1997 
z
" transform="scale(0.015625)"/>
       <path id="DejaVuSans-63" d="M 3122 3366 
L 3122 2828 
Q 2878 2963 2633 3030 
Q 2388 3097 2138 3097 
Q 1578 3097 1268 2742 
Q 959 2388 959 1747 
Q 959 1106 1268 751 
Q 1578 397 2138 397 
Q 2388 397 2633 464 
Q 2878 531 3122 666 
L 3122 134 
Q 2881 22 2623 -34 
Q 2366 -91 2075 -91 
Q 1284 -91 818 406 
Q 353 903 353 1747 
Q 353 2603 823 3093 
Q 1294 3584 2113 3584 
Q 2378 3584 2631 3529 
Q 2884 3475 3122 3366 
z
" transform="scale(0.015625)"/>
       <path id="DejaVuSans-69" d="M 603 3500 
L 1178 3500 
L 1178 0 
L 603 0 
L 603 3500 
z
M 603 4863 
L 1178 4863 
L 1178 4134 
L 603 4134 
L 603 4863 
z
" transform="scale(0.015625)"/>
       <path id="DejaVuSans-6f" d="M 1959 3097 
Q 1497 3097 1228 2736 
Q 959 2375 959 1747 
Q 959 1119 1226 758 
Q 1494 397 1959 397 
Q 2419 397 2687 759 
Q 2956 1122 2956 1747 
Q 2956 2369 2687 2733 
Q 2419 3097 1959 3097 
z
M 1959 3584 
Q 2709 3584 3137 3096 
Q 3566 2609 3566 1747 
Q 3566 888 3137 398 
Q 2709 -91 1959 -91 
Q 1206 -91 779 398 
Q 353 888 353 1747 
Q 353 2609 779 3096 
Q 1206 3584 1959 3584 
z
" transform="scale(0.015625)"/>
       <path id="DejaVuSans-6e" d="M 3513 2113 
L 3513 0 
L 2938 0 
L 2938 2094 
Q 2938 2591 2744 2837 
Q 2550 3084 2163 3084 
Q 1697 3084 1428 2787 
Q 1159 2491 1159 1978 
L 1159 0 
L 581 0 
L 581 3500 
L 1159 3500 
L 1159 2956 
Q 1366 3272 1645 3428 
Q 1925 3584 2291 3584 
Q 2894 3584 3203 3211 
Q 3513 2838 3513 2113 
z
" transform="scale(0.015625)"/>
       <path id="DejaVuSans-73" d="M 2834 3397 
L 2834 2853 
Q 2591 2978 2328 3040 
Q 2066 3103 1784 3103 
Q 1356 3103 1142 2972 
Q 928 2841 928 2578 
Q 928 2378 1081 2264 
Q 1234 2150 1697 2047 
L 1894 2003 
Q 2506 1872 2764 1633 
Q 3022 1394 3022 966 
Q 3022 478 2636 193 
Q 2250 -91 1575 -91 
Q 1294 -91 989 -36 
Q 684 19 347 128 
L 347 722 
Q 666 556 975 473 
Q 1284 391 1588 391 
Q 1994 391 2212 530 
Q 2431 669 2431 922 
Q 2431 1156 2273 1281 
Q 2116 1406 1581 1522 
L 1381 1569 
Q 847 1681 609 1914 
Q 372 2147 372 2553 
Q 372 3047 722 3315 
Q 1072 3584 1716 3584 
Q 2034 3584 2315 3537 
Q 2597 3491 2834 3397 
z
" transform="scale(0.015625)"/>
       <path id="DejaVuSans-20" transform="scale(0.015625)"/>
       <path id="DejaVuSans-28" d="M 1984 4856 
Q 1566 4138 1362 3434 
Q 1159 2731 1159 2009 
Q 1159 1288 1364 580 
Q 1569 -128 1984 -844 
L 1484 -844 
Q 1016 -109 783 600 
Q 550 1309 550 2009 
Q 550 2706 781 3412 
Q 1013 4119 1484 4856 
L 1984 4856 
z
" transform="scale(0.015625)"/>
       <path id="DejaVuSans-78" d="M 3513 3500 
L 2247 1797 
L 3578 0 
L 2900 0 
L 1881 1375 
L 863 0 
L 184 0 
L 1544 1831 
L 300 3500 
L 978 3500 
L 1906 2253 
L 2834 3500 
L 3513 3500 
z
" transform="scale(0.015625)"/>
       <path id="DejaVuSans-29" d="M 513 4856 
L 1013 4856 
Q 1481 4119 1714 3412 
Q 1947 2706 1947 2009 
Q 1947 1309 1714 600 
Q 1481 -109 1013 -844 
L 513 -844 
Q 928 -128 1133 580 
Q 1338 1288 1338 2009 
Q 1338 2731 1133 3434 
Q 928 4138 513 4856 
z
" transform="scale(0.015625)"/>
      </defs>
      <use xlink:href="#DejaVuSans-49"/>
      <use xlink:href="#DejaVuSans-74" transform="translate(29.492188 0)"/>
      <use xlink:href="#DejaVuSans-65" transform="translate(68.701172 0)"/>
      <use xlink:href="#DejaVuSans-72" transform="translate(130.224609 0)"/>
      <use xlink:href="#DejaVuSans-61" transform="translate(171.337891 0)"/>
      <use xlink:href="#DejaVuSans-63" transform="translate(232.617188 0)"/>
      <use xlink:href="#DejaVuSans-69" transform="translate(287.597656 0)"/>
      <use xlink:href="#DejaVuSans-6f" transform="translate(315.380859 0)"/>
      <use xlink:href="#DejaVuSans-6e" transform="translate(376.5625 0)"/>
      <use xlink:href="#DejaVuSans-65" transform="translate(439.941406 0)"/>
      <use xlink:href="#DejaVuSans-73" transform="translate(501.464844 0)"/>
      <use xlink:href="#DejaVuSans-20" transform="translate(553.564453 0)"/>
      <use xlink:href="#DejaVuSans-28" transform="translate(585.351562 0)"/>
      <use xlink:href="#DejaVuSans-78" transform="translate(624.365234 0)"/>
      <use xlink:href="#DejaVuSans-31" transform="translate(683.544922 0)"/>
      <use xlink:href="#DejaVuSans-30" transform="translate(747.167969 0)"/>
      <use xlink:href="#DejaVuSans-29" transform="translate(810.791016 0)"/>
     </g>
    </g>
   </g>
   <g id="matplotlib.axis_2">
    <g id="ytick_1">
     <g id="line2d_11">
      <path d="M 45.716875 849.175994 
L 1137.261875 849.175994 
" clip-path="url(#p13f4662456)" style="fill: none; stroke: #b0b0b0; stroke-opacity: 0.3; stroke-width: 0.8; stroke-linecap: square"/>
     </g>
     <g id="line2d_12">
      <defs>
       <path id="m67cb9bddc3" d="M 0 0 
L -3.5 0 
" style="stroke: #000000; stroke-width: 0.8"/>
      </defs>
      <g>
       <use xlink:href="#m67cb9bddc3" x="45.716875" y="849.175994" style="stroke: #000000; stroke-width: 0.8"/>
      </g>
     </g>
     <g id="text_7">
      <!-- 0.0 -->
      <g transform="translate(22.81375 852.975213) scale(0.1 -0.1)">
       <defs>
        <path id="DejaVuSans-2e" d="M 684 794 
L 1344 794 
L 1344 0 
L 684 0 
L 684 794 
z
" transform="scale(0.015625)"/>
       </defs>
       <use xlink:href="#DejaVuSans-30"/>
       <use xlink:href="#DejaVuSans-2e" transform="translate(63.623047 0)"/>
       <use xlink:href="#DejaVuSans-30" transform="translate(95.410156 0)"/>
      </g>
     </g>
    </g>
    <g id="ytick_2">
     <g id="line2d_13">
      <path d="M 45.716875 691.968722 
L 1137.261875 691.968722 
" clip-path="url(#p13f4662456)" style="fill: none; stroke: #b0b0b0; stroke-opacity: 0.3; stroke-width: 0.8; stroke-linecap: square"/>
     </g>
     <g id="line2d_14">
      <g>
       <use xlink:href="#m67cb9bddc3" x="45.716875" y="691.968722" style="stroke: #000000; stroke-width: 0.8"/>
      </g>
     </g>
     <g id="text_8">
      <!-- 0.2 -->
      <g transform="translate(22.81375 695.76794) scale(0.1 -0.1)">
       <use xlink:href="#DejaVuSans-30"/>
       <use xlink:href="#DejaVuSans-2e" transform="translate(63.623047 0)"/>
       <use xlink:href="#DejaVuSans-32" transform="translate(95.410156 0)"/>
      </g>
     </g>
    </g>
    <g id="ytick_3">
     <g id="line2d_15">
      <path d="M 45.716875 534.761449 
L 1137.261875 534.761449 
" clip-path="url(#p13f4662456)" style="fill: none; stroke: #b0b0b0; stroke-opacity: 0.3; stroke-width: 0.8; stroke-linecap: square"/>
     </g>
     <g id="line2d_16">
      <g>
       <use xlink:href="#m67cb9bddc3" x="45.716875" y="534.761449" style="stroke: #000000; stroke-width: 0.8"/>
      </g>
     </g>
     <g id="text_9">
      <!-- 0.4 -->
      <g transform="translate(22.81375 538.560668) scale(0.1 -0.1)">
       <use xlink:href="#DejaVuSans-30"/>
       <use xlink:href="#DejaVuSans-2e" transform="translate(63.623047 0)"/>
       <use xlink:href="#DejaVuSans-34" transform="translate(95.410156 0)"/>
      </g>
     </g>
    </g>
    <g id="ytick_4">
     <g id="line2d_17">
      <path d="M 45.716875 377.554176 
L 1137.261875 377.554176 
" clip-path="url(#p13f4662456)" style="fill: none; stroke: #b0b0b0; stroke-opacity: 0.3; stroke-width: 0.8; stroke-linecap: square"/>
     </g>
     <g id="line2d_18">
      <g>
       <use xlink:href="#m67cb9bddc3" x="45.716875" y="377.554176" style="stroke: #000000; stroke-width: 0.8"/>
      </g>
     </g>
     <g id="text_10">
      <!-- 0.6 -->
      <g transform="translate(22.81375 381.353395) scale(0.1 -0.1)">
       <defs>
        <path id="DejaVuSans-36" d="M 2113 2584 
Q 1688 2584 1439 2293 
Q 1191 2003 1191 1497 
Q 1191 994 1439 701 
Q 1688 409 2113 409 
Q 2538 409 2786 701 
Q 3034 994 3034 1497 
Q 3034 2003 2786 2293 
Q 2538 2584 2113 2584 
z
M 3366 4563 
L 3366 3988 
Q 3128 4100 2886 4159 
Q 2644 4219 2406 4219 
Q 1781 4219 1451 3797 
Q 1122 3375 1075 2522 
Q 1259 2794 1537 2939 
Q 1816 3084 2150 3084 
Q 2853 3084 3261 2657 
Q 3669 2231 3669 1497 
Q 3669 778 3244 343 
Q 2819 -91 2113 -91 
Q 1303 -91 875 529 
Q 447 1150 447 2328 
Q 447 3434 972 4092 
Q 1497 4750 2381 4750 
Q 2619 4750 2861 4703 
Q 3103 4656 3366 4563 
z
" transform="scale(0.015625)"/>
       </defs>
       <use xlink:href="#DejaVuSans-30"/>
       <use xlink:href="#DejaVuSans-2e" transform="translate(63.623047 0)"/>
       <use xlink:href="#DejaVuSans-36" transform="translate(95.410156 0)"/>
      </g>
     </g>
    </g>
    <g id="ytick_5">
     <g id="line2d_19">
      <path d="M 45.716875 220.346903 
L 1137.261875 220.346903 
" clip-path="url(#p13f4662456)" style="fill: none; stroke: #b0b0b0; stroke-opacity: 0.3; stroke-width: 0.8; stroke-linecap: square"/>
     </g>
     <g id="line2d_20">
      <g>
       <use xlink:href="#m67cb9bddc3" x="45.716875" y="220.346903" style="stroke: #000000; stroke-width: 0.8"/>
      </g>
     </g>
     <g id="text_11">
      <!-- 0.8 -->
      <g transform="translate(22.81375 224.146122) scale(0.1 -0.1)">
       <defs>
        <path id="DejaVuSans-38" d="M 2034 2216 
Q 1584 2216 1326 1975 
Q 1069 1734 1069 1313 
Q 1069 891 1326 650 
Q 1584 409 2034 409 
Q 2484 409 2743 651 
Q 3003 894 3003 1313 
Q 3003 1734 2745 1975 
Q 2488 2216 2034 2216 
z
M 1403 2484 
Q 997 2584 770 2862 
Q 544 3141 544 3541 
Q 544 4100 942 4425 
Q 1341 4750 2034 4750 
Q 2731 4750 3128 4425 
Q 3525 4100 3525 3541 
Q 3525 3141 3298 2862 
Q 3072 2584 2669 2484 
Q 3125 2378 3379 2068 
Q 3634 1759 3634 1313 
Q 3634 634 3220 271 
Q 2806 -91 2034 -91 
Q 1263 -91 848 271 
Q 434 634 434 1313 
Q 434 1759 690 2068 
Q 947 2378 1403 2484 
z
M 1172 3481 
Q 1172 3119 1398 2916 
Q 1625 2713 2034 2713 
Q 2441 2713 2670 2916 
Q 2900 3119 2900 3481 
Q 2900 3844 2670 4047 
Q 2441 4250 2034 4250 
Q 1625 4250 1398 4047 
Q 1172 3844 1172 3481 
z
" transform="scale(0.015625)"/>
       </defs>
       <use xlink:href="#DejaVuSans-30"/>
       <use xlink:href="#DejaVuSans-2e" transform="translate(63.623047 0)"/>
       <use xlink:href="#DejaVuSans-38" transform="translate(95.410156 0)"/>
      </g>
     </g>
    </g>
    <g id="ytick_6">
     <g id="line2d_21">
      <path d="M 45.716875 63.139631 
L 1137.261875 63.139631 
" clip-path="url(#p13f4662456)" style="fill: none; stroke: #b0b0b0; stroke-opacity: 0.3; stroke-width: 0.8; stroke-linecap: square"/>
     </g>
     <g id="line2d_22">
      <g>
       <use xlink:href="#m67cb9bddc3" x="45.716875" y="63.139631" style="stroke: #000000; stroke-width: 0.8"/>
      </g>
     </g>
     <g id="text_12">
      <!-- 1.0 -->
      <g transform="translate(22.81375 66.938849) scale(0.1 -0.1)">
       <use xlink:href="#DejaVuSans-31"/>
       <use xlink:href="#DejaVuSans-2e" transform="translate(63.623047 0)"/>
       <use xlink:href="#DejaVuSans-30" transform="translate(95.410156 0)"/>
      </g>
     </g>
    </g>
    <g id="text_13">
     <!-- Probabilidad -->
     <g transform="translate(16.318125 493.264063) rotate(-90) scale(0.12 -0.12)">
      <defs>
       <path id="DejaVuSans-50" d="M 1259 4147 
L 1259 2394 
L 2053 2394 
Q 2494 2394 2734 2622 
Q 2975 2850 2975 3272 
Q 2975 3691 2734 3919 
Q 2494 4147 2053 4147 
L 1259 4147 
z
M 628 4666 
L 2053 4666 
Q 2838 4666 3239 4311 
Q 3641 3956 3641 3272 
Q 3641 2581 3239 2228 
Q 2838 1875 2053 1875 
L 1259 1875 
L 1259 0 
L 628 0 
L 628 4666 
z
" transform="scale(0.015625)"/>
       <path id="DejaVuSans-62" d="M 3116 1747 
Q 3116 2381 2855 2742 
Q 2594 3103 2138 3103 
Q 1681 3103 1420 2742 
Q 1159 2381 1159 1747 
Q 1159 1113 1420 752 
Q 1681 391 2138 391 
Q 2594 391 2855 752 
Q 3116 1113 3116 1747 
z
M 1159 2969 
Q 1341 3281 1617 3432 
Q 1894 3584 2278 3584 
Q 2916 3584 3314 3078 
Q 3713 2572 3713 1747 
Q 3713 922 3314 415 
Q 2916 -91 2278 -91 
Q 1894 -91 1617 61 
Q 1341 213 1159 525 
L 1159 0 
L 581 0 
L 581 4863 
L 1159 4863 
L 1159 2969 
z
" transform="scale(0.015625)"/>
       <path id="DejaVuSans-6c" d="M 603 4863 
L 1178 4863 
L 1178 0 
L 603 0 
L 603 4863 
z
" transform="scale(0.015625)"/>
       <path id="DejaVuSans-64" d="M 2906 2969 
L 2906 4863 
L 3481 4863 
L 3481 0 
L 2906 0 
L 2906 525 
Q 2725 213 2448 61 
Q 2172 -91 1784 -91 
Q 1150 -91 751 415 
Q 353 922 353 1747 
Q 353 2572 751 3078 
Q 1150 3584 1784 3584 
Q 2172 3584 2448 3432 
Q 2725 3281 2906 2969 
z
M 947 1747 
Q 947 1113 1208 752 
Q 1469 391 1925 391 
Q 2381 391 2643 752 
Q 2906 1113 2906 1747 
Q 2906 2381 2643 2742 
Q 2381 3103 1925 3103 
Q 1469 3103 1208 2742 
Q 947 2381 947 1747 
z
" transform="scale(0.015625)"/>
      </defs>
      <use xlink:href="#DejaVuSans-50"/>
      <use xlink:href="#DejaVuSans-72" transform="translate(58.552734 0)"/>
      <use xlink:href="#DejaVuSans-6f" transform="translate(97.416016 0)"/>
      <use xlink:href="#DejaVuSans-62" transform="translate(158.597656 0)"/>
      <use xlink:href="#DejaVuSans-61" transform="translate(222.074219 0)"/>
      <use xlink:href="#DejaVuSans-62" transform="translate(283.353516 0)"/>
      <use xlink:href="#DejaVuSans-69" transform="translate(346.830078 0)"/>
      <use xlink:href="#DejaVuSans-6c" transform="translate(374.613281 0)"/>
      <use xlink:href="#DejaVuSans-69" transform="translate(402.396484 0)"/>
      <use xlink:href="#DejaVuSans-64" transform="translate(430.179688 0)"/>
      <use xlink:href="#DejaVuSans-61" transform="translate(493.65625 0)"/>
      <use xlink:href="#DejaVuSans-64" transform="translate(554.935547 0)"/>
     </g>
    </g>
   </g>
   <g id="line2d_23">
    <path d="M 95.332557 651.85375 
L 97.592952 652.242148 
L 102.113743 654.44536 
L 104.374139 655.505162 
L 106.634534 656.07381 
L 108.89493 659.741749 
L 111.155326 666.098373 
L 113.415721 673.60458 
L 115.676117 672.681314 
L 117.936512 671.890111 
L 120.196908 669.647087 
L 122.457303 668.355909 
L 124.717699 662.615416 
L 126.978094 662.055693 
L 129.23849 658.569714 
L 131.498885 658.751521 
L 133.759281 661.842227 
L 136.019676 666.275238 
L 138.280072 671.996088 
L 140.540467 674.899002 
L 142.800863 679.417224 
L 145.061258 675.970565 
L 147.321654 673.334329 
L 149.582049 668.065161 
L 151.842445 668.619073 
L 154.102841 681.065445 
L 156.363236 684.800511 
L 158.623632 686.258492 
L 160.884027 668.396927 
L 163.144423 662.804473 
L 165.404818 667.191077 
L 167.665214 670.099824 
L 169.925609 666.56294 
L 172.186005 661.240666 
L 174.4464 662.033579 
L 176.706796 671.408642 
L 178.967191 688.860093 
L 181.227587 694.934965 
L 183.487982 707.023931 
L 185.748378 706.893766 
L 188.008773 712.731921 
L 190.269169 717.702423 
L 192.529564 725.228998 
L 194.78996 736.531071 
L 197.050356 743.908752 
L 199.310751 811.716728 
L 201.571147 821.384081 
L 203.831542 782.925407 
L 206.091938 793.287517 
L 208.352333 818.236671 
L 210.612729 834.814098 
L 212.873124 828.372981 
L 215.13352 831.200989 
L 217.393915 812.453712 
L 219.654311 799.187335 
L 221.914706 737.680231 
L 224.175102 741.355537 
L 226.435497 744.011532 
L 228.695893 744.15717 
L 230.956288 742.001688 
L 233.216684 743.309967 
L 235.477079 760.472052 
L 237.737475 754.577464 
L 239.997871 747.107861 
L 242.258266 746.848257 
L 244.518662 755.787466 
L 246.779057 762.393065 
L 249.039453 758.917018 
L 251.299848 771.762494 
L 253.560244 766.558414 
L 255.820639 757.691555 
L 258.081035 755.813768 
L 260.34143 757.342834 
L 264.862221 764.247691 
L 267.122617 757.283994 
L 269.383012 760.650556 
L 271.643408 767.072486 
L 273.903803 774.772182 
L 276.164199 767.200595 
L 278.424595 749.22387 
L 280.68499 760.006993 
L 282.945386 762.405399 
L 285.205781 754.984673 
L 287.466177 754.28148 
L 289.726572 757.348597 
L 291.986968 746.860403 
L 294.247363 751.532491 
L 296.507759 748.757511 
L 298.768154 756.837114 
L 301.02855 767.722859 
L 303.288945 773.445631 
L 305.549341 777.888721 
L 307.809736 774.021043 
L 310.070132 775.88707 
L 312.330527 775.977658 
L 314.590923 783.180554 
L 316.851318 778.601407 
L 319.111714 766.104611 
L 321.37211 769.984289 
L 323.632505 772.572239 
L 325.892901 766.66226 
L 328.153296 770.955297 
L 330.413692 762.321506 
L 332.674087 771.409715 
L 334.934483 767.338625 
L 337.194878 768.291413 
L 339.455274 776.844959 
L 341.715669 772.141229 
L 343.976065 776.239487 
L 346.23646 778.926515 
L 348.496856 778.172389 
L 350.757251 783.928976 
L 353.017647 778.955253 
L 355.278042 788.338596 
L 357.538438 794.290905 
L 359.798833 799.450851 
L 362.059229 798.383405 
L 364.319625 799.4769 
L 366.58002 804.901515 
L 368.840416 798.941968 
L 371.100811 795.076486 
L 373.361207 803.408214 
L 375.621602 803.466164 
L 377.881998 798.293386 
L 380.142393 802.382537 
L 382.402789 804.531735 
L 384.663184 809.458343 
L 386.92358 810.502509 
L 389.183975 808.905212 
L 391.444371 803.750903 
L 393.704766 809.085277 
L 395.965162 810.906467 
L 400.485953 807.394731 
L 402.746348 810.30575 
L 405.006744 804.192741 
L 407.26714 805.25358 
L 409.527535 805.13189 
L 411.787931 796.404864 
L 414.048326 796.493618 
L 416.308722 800.998868 
L 418.569117 799.090142 
L 420.829513 797.519922 
L 423.089908 801.140682 
L 425.350304 810.769357 
L 427.610699 813.814102 
L 429.871095 811.611877 
L 432.13149 818.047927 
L 434.391886 819.360273 
L 436.652281 816.779867 
L 438.912677 819.917333 
L 441.173072 815.6767 
L 443.433468 810.710388 
L 445.693864 821.355271 
L 447.954259 813.38335 
L 450.214655 819.394111 
L 452.47505 811.470471 
L 454.735446 810.572929 
L 456.995841 804.055074 
L 459.256237 810.674673 
L 461.516632 807.653462 
L 463.777028 804.413616 
L 466.037423 799.516472 
L 468.297819 802.974543 
L 470.558214 802.058191 
L 472.81861 801.480659 
L 475.079005 799.870827 
L 477.339401 806.426207 
L 479.599796 804.246049 
L 481.860192 790.430366 
L 484.120587 802.795073 
L 488.641379 801.430569 
L 490.901774 803.034879 
L 493.16217 802.252899 
L 495.422565 797.349951 
L 497.682961 802.740461 
L 499.943356 807.836883 
L 502.203752 807.285406 
L 504.464147 812.2027 
L 506.724543 805.574817 
L 508.984938 800.305725 
L 511.245334 798.916165 
L 513.505729 803.274524 
L 515.766125 806.206506 
L 518.02652 808.312791 
L 520.286916 805.617999 
L 522.547311 807.096721 
L 524.807707 805.601136 
L 527.068102 807.387739 
L 529.328498 807.542383 
L 533.849289 808.932412 
L 536.109685 801.050007 
L 538.37008 790.262444 
L 540.630476 796.833643 
L 542.890871 796.675408 
L 545.151267 796.253253 
L 547.411662 801.246683 
L 549.672058 803.233239 
L 551.932453 795.272097 
L 554.192849 793.643945 
L 556.453244 781.075238 
L 558.71364 789.829572 
L 560.974035 796.34931 
L 563.234431 800.046467 
L 565.494826 796.367793 
L 567.755222 796.857525 
L 570.015617 796.544973 
L 572.276013 795.785881 
L 574.536409 797.936595 
L 576.796804 799.354887 
L 579.0572 798.334036 
L 581.317595 798.22616 
L 583.577991 804.729664 
L 585.838386 805.907547 
L 588.098782 807.56571 
L 590.359177 806.045158 
L 592.619573 806.811941 
L 594.879968 804.514924 
L 597.140364 809.001301 
L 599.400759 812.408694 
L 601.661155 807.222221 
L 603.92155 813.723693 
L 606.181946 821.773475 
L 608.442341 821.449682 
L 610.702737 827.515764 
L 612.963133 823.564986 
L 615.223528 823.701938 
L 617.483924 827.020181 
L 619.744319 842.845061 
L 622.004715 844.305285 
L 624.26511 830.127856 
L 626.525506 828.673811 
L 628.785901 840.153964 
L 631.046297 849.014054 
L 633.306692 849.165073 
L 635.567088 849.142013 
L 637.827483 848.956202 
L 640.087879 849.175588 
L 642.348274 848.181216 
L 644.60867 849.175135 
L 655.910648 849.175988 
L 658.171043 843.421126 
L 660.431439 849.17593 
L 662.691834 844.668269 
L 664.95223 849.175933 
L 673.993812 849.175994 
L 676.254207 844.406059 
L 678.514603 837.142402 
L 680.774998 849.175994 
L 683.035394 848.833567 
L 685.295789 849.175993 
L 721.462118 849.175994 
L 723.722513 848.804174 
L 725.982909 849.175994 
L 732.764095 849.175994 
L 735.024491 836.621117 
L 737.284886 849.174627 
L 744.066073 849.175994 
L 746.326469 837.135086 
L 748.586864 849.175994 
L 802.836357 849.141607 
L 805.096752 841.30678 
L 807.357148 849.175994 
L 809.617543 849.175994 
L 811.877939 848.941579 
L 814.138334 849.175994 
L 818.659125 849.175994 
L 820.919521 837.718114 
L 823.179917 849.175994 
L 933.939297 849.175994 
L 936.199693 836.918772 
L 938.460088 849.175994 
L 985.928394 849.175992 
L 988.18879 836.908565 
L 990.449186 849.175994 
L 1013.053141 849.175994 
L 1015.313536 840.931873 
L 1017.573932 849.175994 
L 1087.646193 849.175994 
L 1087.646193 849.175994 
" clip-path="url(#p13f4662456)" style="fill: none; stroke-dasharray: 9.25,4; stroke-dashoffset: 0; stroke: #000000; stroke-width: 2.5"/>
   </g>
   <g id="line2d_24">
    <path d="M 95.332557 652.028717 
L 97.592952 652.62558 
L 102.113743 651.562943 
L 106.634534 650.828126 
L 108.89493 647.702785 
L 111.155326 643.463458 
L 113.415721 641.703765 
L 115.676117 644.093937 
L 117.936512 647.396025 
L 120.196908 649.671435 
L 122.457303 651.546663 
L 124.717699 652.884165 
L 126.978094 649.338204 
L 129.23849 644.432134 
L 131.498885 644.639616 
L 133.759281 650.079932 
L 136.019676 654.540808 
L 138.280072 648.137027 
L 140.540467 638.55617 
L 142.800863 633.04745 
L 145.061258 630.588711 
L 147.321654 632.999287 
L 149.582049 630.658426 
L 151.842445 625.052443 
L 154.102841 623.240137 
L 156.363236 631.299728 
L 158.623632 631.74983 
L 160.884027 637.28912 
L 163.144423 630.609162 
L 165.404818 632.338612 
L 167.665214 642.62477 
L 169.925609 659.514074 
L 172.186005 673.458157 
L 174.4464 681.906007 
L 176.706796 675.967039 
L 178.967191 658.980366 
L 181.227587 654.796722 
L 183.487982 645.580369 
L 185.748378 634.599919 
L 188.008773 635.36355 
L 190.269169 637.715257 
L 192.529564 642.333425 
L 194.78996 644.959142 
L 197.050356 645.656174 
L 199.310751 680.333556 
L 201.571147 669.953718 
L 203.831542 608.824892 
L 206.091938 598.373137 
L 208.352333 549.091489 
L 210.612729 548.171515 
L 212.873124 611.669828 
L 215.13352 671.749779 
L 217.393915 686.467039 
L 219.654311 656.907308 
L 221.914706 634.086568 
L 224.175102 626.750011 
L 226.435497 630.874763 
L 228.695893 626.335797 
L 230.956288 634.77088 
L 233.216684 653.799536 
L 235.477079 647.411838 
L 237.737475 635.641894 
L 239.997871 633.02365 
L 242.258266 635.213017 
L 244.518662 642.193644 
L 246.779057 635.990984 
L 249.039453 619.50992 
L 251.299848 596.797056 
L 253.560244 604.098709 
L 255.820639 622.086022 
L 258.081035 631.17918 
L 260.34143 638.609135 
L 262.601826 632.80982 
L 264.862221 632.056683 
L 267.122617 623.404749 
L 269.383012 603.158354 
L 271.643408 588.172131 
L 273.903803 601.347055 
L 276.164199 622.615209 
L 278.424595 627.054498 
L 280.68499 616.490956 
L 282.945386 604.288082 
L 285.205781 594.64353 
L 287.466177 592.270318 
L 289.726572 595.43963 
L 291.986968 598.250246 
L 294.247363 596.647506 
L 296.507759 604.516155 
L 298.768154 613.071692 
L 301.02855 605.348845 
L 303.288945 589.08297 
L 305.549341 583.402235 
L 307.809736 591.806161 
L 310.070132 609.484841 
L 312.330527 629.857525 
L 314.590923 634.266712 
L 316.851318 630.344006 
L 319.111714 634.60868 
L 321.37211 630.913228 
L 323.632505 635.941392 
L 325.892901 640.4336 
L 328.153296 638.422901 
L 330.413692 631.130197 
L 332.674087 618.481813 
L 334.934483 609.654537 
L 337.194878 611.813872 
L 339.455274 606.97658 
L 341.715669 607.915459 
L 343.976065 602.066692 
L 346.23646 587.476809 
L 348.496856 586.292687 
L 350.757251 593.398993 
L 353.017647 607.290368 
L 355.278042 598.146587 
L 357.538438 597.828021 
L 359.798833 603.021454 
L 362.059229 604.792836 
L 364.319625 615.306458 
L 366.58002 620.494386 
L 368.840416 619.488697 
L 371.100811 598.520907 
L 373.361207 586.091226 
L 375.621602 577.794355 
L 377.881998 580.292098 
L 380.142393 574.332948 
L 382.402789 573.821144 
L 384.663184 572.567001 
L 386.92358 591.514207 
L 389.183975 601.773894 
L 391.444371 617.673673 
L 393.704766 610.492545 
L 395.965162 599.004788 
L 398.225557 602.697055 
L 400.485953 605.930107 
L 402.746348 598.697162 
L 405.006744 589.785647 
L 407.26714 582.058068 
L 409.527535 582.099555 
L 411.787931 587.217346 
L 414.048326 594.050415 
L 416.308722 597.592968 
L 420.829513 602.088291 
L 423.089908 595.223012 
L 425.350304 587.048494 
L 427.610699 585.7051 
L 429.871095 581.909854 
L 432.13149 581.703754 
L 434.391886 603.944193 
L 436.652281 609.474487 
L 438.912677 594.527339 
L 441.173072 588.017451 
L 443.433468 593.302619 
L 445.693864 588.028906 
L 447.954259 594.530244 
L 450.214655 598.203863 
L 452.47505 609.418945 
L 454.735446 601.362445 
L 456.995841 598.109715 
L 459.256237 581.323063 
L 461.516632 579.540249 
L 463.777028 587.650816 
L 466.037423 602.197384 
L 468.297819 606.296837 
L 470.558214 603.177703 
L 472.81861 612.910687 
L 475.079005 600.823584 
L 477.339401 582.254422 
L 479.599796 583.173038 
L 481.860192 591.318204 
L 484.120587 588.003818 
L 486.380983 582.077511 
L 488.641379 584.230287 
L 490.901774 587.509231 
L 493.16217 598.56579 
L 495.422565 610.403527 
L 497.682961 621.28163 
L 499.943356 621.440995 
L 502.203752 620.914128 
L 504.464147 616.540852 
L 506.724543 612.525452 
L 508.984938 605.604677 
L 511.245334 589.746292 
L 513.505729 571.998131 
L 515.766125 561.514916 
L 518.02652 579.491875 
L 520.286916 604.012221 
L 522.547311 614.961116 
L 524.807707 622.87739 
L 527.068102 625.282976 
L 529.328498 607.562575 
L 531.588894 607.4785 
L 533.849289 605.544075 
L 536.109685 601.953898 
L 538.37008 612.66357 
L 540.630476 610.170723 
L 542.890871 619.371334 
L 545.151267 620.910872 
L 547.411662 625.184236 
L 549.672058 618.091658 
L 551.932453 609.833369 
L 554.192849 594.768694 
L 556.453244 591.731902 
L 558.71364 603.601147 
L 560.974035 608.124838 
L 563.234431 606.892506 
L 565.494826 606.754786 
L 567.755222 605.833991 
L 570.015617 608.464347 
L 572.276013 606.896418 
L 574.536409 609.736129 
L 576.796804 616.605882 
L 579.0572 611.409381 
L 581.317595 613.461637 
L 583.577991 617.764049 
L 585.838386 625.012245 
L 588.098782 616.694033 
L 590.359177 616.654912 
L 592.619573 614.485738 
L 594.879968 611.348216 
L 597.140364 597.337791 
L 599.400759 579.870341 
L 601.661155 572.514083 
L 603.92155 571.163005 
L 606.181946 576.196534 
L 608.442341 603.629304 
L 610.702737 608.746791 
L 612.963133 610.406643 
L 615.223528 605.300307 
L 617.483924 597.199884 
L 619.744319 576.01461 
L 622.004715 570.077294 
L 624.26511 589.489429 
L 626.525506 593.12784 
L 628.785901 591.535946 
L 631.046297 606.373486 
L 633.306692 632.249805 
L 635.567088 648.166614 
L 637.827483 582.187237 
L 640.087879 613.731735 
L 642.348274 632.476261 
L 644.60867 549.095776 
L 646.869065 615.796641 
L 649.129461 495.406557 
L 651.389856 641.423032 
L 653.650252 667.75183 
L 655.910648 653.184494 
L 658.171043 649.704067 
L 660.431439 674.192495 
L 662.691834 689.465823 
L 664.95223 756.716255 
L 667.212625 741.413645 
L 669.473021 804.701773 
L 671.733416 685.65822 
L 673.993812 588.778506 
L 676.254207 815.075755 
L 678.514603 770.283477 
L 680.774998 748.809387 
L 683.035394 813.60513 
L 685.295789 726.296086 
L 687.556185 496.723012 
L 689.81658 784.4775 
L 692.076976 837.862708 
L 694.337371 751.531062 
L 696.597767 756.490712 
L 698.858163 779.299792 
L 701.118558 696.228556 
L 703.378954 811.611142 
L 705.639349 753.00964 
L 707.899745 768.743084 
L 710.16014 658.524994 
L 712.420536 790.181965 
L 714.680931 703.066473 
L 716.941327 814.014626 
L 719.201722 767.671862 
L 721.462118 731.866801 
L 723.722513 796.768285 
L 725.982909 779.226903 
L 728.243304 674.459852 
L 730.5037 763.719412 
L 732.764095 775.873565 
L 735.024491 777.83777 
L 737.284886 799.582281 
L 739.545282 805.120025 
L 741.805678 757.103769 
L 744.066073 741.052233 
L 746.326469 820.054362 
L 748.586864 768.853759 
L 750.84726 802.267233 
L 753.107655 781.372997 
L 755.368051 827.631624 
L 757.628446 792.29261 
L 759.888842 780.326131 
L 762.149237 785.104788 
L 764.409633 802.662873 
L 766.670028 733.348712 
L 768.930424 795.289531 
L 771.190819 788.578616 
L 773.451215 835.891254 
L 775.71161 794.576171 
L 777.972006 748.903219 
L 780.232402 830.243549 
L 782.492797 808.305447 
L 784.753193 797.034114 
L 787.013588 801.588025 
L 789.273984 789.275941 
L 791.534379 818.758671 
L 793.794775 783.231604 
L 796.05517 736.596347 
L 798.315566 825.866746 
L 800.575961 810.498579 
L 802.836357 811.566308 
L 805.096752 805.12543 
L 807.357148 796.902128 
L 809.617543 830.226691 
L 811.877939 822.99977 
L 814.138334 804.630697 
L 816.39873 825.268738 
L 818.659125 838.566355 
L 820.919521 800.415428 
L 823.179917 818.754575 
L 825.440312 777.920551 
L 827.700708 808.361762 
L 829.961103 791.136657 
L 832.221499 767.327931 
L 834.481894 693.636876 
L 836.74229 833.220827 
L 839.002685 846.422325 
L 841.263081 790.872432 
L 843.523476 806.248839 
L 845.783872 815.514758 
L 848.044267 735.828241 
L 850.304663 847.585423 
L 852.565058 790.019824 
L 854.825454 812.819645 
L 857.085849 768.498695 
L 859.346245 843.305684 
L 861.60664 499.028102 
L 863.867036 787.437046 
L 866.127432 827.165668 
L 868.387827 810.480951 
L 870.648223 823.148075 
L 872.908618 774.423619 
L 875.169014 823.818549 
L 877.429409 831.951331 
L 879.689805 825.953724 
L 881.9502 823.036715 
L 884.210596 782.183632 
L 886.470991 835.286765 
L 888.731387 692.604598 
L 890.991782 816.653245 
L 893.252178 800.471605 
L 895.512573 825.533797 
L 897.772969 837.62318 
L 900.033364 812.077917 
L 902.29376 783.986006 
L 904.554155 800.31892 
L 906.814551 826.654286 
L 909.074947 817.782982 
L 911.335342 789.07079 
L 913.595738 829.963449 
L 915.856133 825.933711 
L 918.116529 813.579256 
L 920.376924 811.939143 
L 922.63732 834.904508 
L 924.897715 823.314211 
L 927.158111 786.013208 
L 929.418506 849.137869 
L 931.678902 770.937845 
L 933.939297 803.1338 
L 936.199693 841.306551 
L 938.460088 808.335288 
L 940.720484 835.108226 
L 942.980879 846.187216 
L 945.241275 810.177984 
L 947.501671 828.800204 
L 949.762066 836.475292 
L 952.022462 834.116386 
L 954.282857 771.068455 
L 956.543253 813.292751 
L 958.803648 842.484547 
L 961.064044 835.440418 
L 963.324439 820.406067 
L 965.584835 810.481912 
L 967.84523 835.861827 
L 970.105626 780.043172 
L 972.366021 748.807525 
L 974.626417 832.845432 
L 976.886812 751.348962 
L 979.147208 740.232157 
L 981.407603 750.761873 
L 983.667999 821.573607 
L 985.928394 763.724817 
L 988.18879 817.06166 
L 990.449186 788.453698 
L 992.709581 814.154987 
L 994.969977 804.867252 
L 997.230372 837.792726 
L 999.490768 805.745072 
L 1001.751163 810.020273 
L 1004.011559 780.359062 
L 1006.271954 769.658573 
L 1008.53235 829.409183 
L 1010.792745 824.814826 
L 1013.053141 814.457184 
L 1015.313536 728.811937 
L 1017.573932 788.559424 
L 1019.834327 824.680256 
L 1022.094723 810.522953 
L 1024.355118 818.648257 
L 1026.615514 784.241024 
L 1028.875909 835.252744 
L 1031.136305 756.45056 
L 1033.396701 774.746672 
L 1035.657096 800.295752 
L 1040.177887 800.380725 
L 1042.438283 832.629003 
L 1044.698678 811.493908 
L 1049.219469 836.173206 
L 1051.479865 762.217607 
L 1053.74026 805.180527 
L 1056.000656 808.695028 
L 1058.261051 780.735501 
L 1060.521447 833.454771 
L 1062.781842 800.412751 
L 1065.042238 775.459422 
L 1067.302633 788.515273 
L 1069.563029 837.812624 
L 1071.823424 805.59055 
L 1074.08382 826.650343 
L 1076.344216 835.411339 
L 1078.604611 822.034991 
L 1080.865007 773.564189 
L 1083.125402 769.630883 
L 1085.385798 841.430969 
L 1087.646193 755.253946 
L 1087.646193 755.253946 
" clip-path="url(#p13f4662456)" style="fill: none; stroke: #1f77b4; stroke-width: 2; stroke-linecap: square"/>
   </g>
   <g id="line2d_25">
    <path d="M 95.332557 655.725891 
L 97.592952 656.544584 
L 99.853348 657.086644 
L 102.113743 656.247734 
L 104.374139 655.820601 
L 106.634534 658.634697 
L 108.89493 661.937909 
L 111.155326 666.030392 
L 113.415721 665.988776 
L 115.676117 664.462872 
L 117.936512 665.631534 
L 120.196908 666.310458 
L 122.457303 663.593497 
L 124.717699 660.136425 
L 126.978094 654.959109 
L 129.23849 655.935352 
L 131.498885 653.18836 
L 133.759281 647.850507 
L 136.019676 647.131643 
L 138.280072 651.11146 
L 140.540467 649.313888 
L 142.800863 648.328603 
L 145.061258 649.541352 
L 147.321654 658.626216 
L 149.582049 672.042448 
L 151.842445 679.51512 
L 154.102841 673.091123 
L 156.363236 664.506327 
L 158.623632 656.993187 
L 160.884027 665.835748 
L 163.144423 667.031923 
L 165.404818 663.730421 
L 167.665214 658.333336 
L 169.925609 650.597875 
L 172.186005 636.099071 
L 174.4464 631.376541 
L 176.706796 632.863816 
L 178.967191 638.031832 
L 181.227587 631.880991 
L 183.487982 623.537222 
L 185.748378 622.264596 
L 188.008773 608.640391 
L 190.269169 598.846126 
L 192.529564 593.75593 
L 194.78996 591.709273 
L 197.050356 605.386537 
L 199.310751 595.289096 
L 201.571147 581.832853 
L 203.831542 590.390452 
L 206.091938 556.298479 
L 208.352333 579.334759 
L 210.612729 583.683344 
L 212.873124 562.550309 
L 215.13352 493.878124 
L 217.393915 532.892377 
L 219.654311 559.72135 
L 221.914706 621.811122 
L 224.175102 634.148178 
L 226.435497 636.068032 
L 228.695893 640.606692 
L 230.956288 639.950773 
L 233.216684 630.454154 
L 235.477079 611.667321 
L 237.737475 611.586034 
L 239.997871 613.078626 
L 242.258266 613.117677 
L 244.518662 603.648982 
L 246.779057 610.302211 
L 249.039453 620.072348 
L 251.299848 635.144918 
L 253.560244 637.426465 
L 255.820639 618.931399 
L 258.081035 606.138549 
L 260.34143 600.757875 
L 262.601826 592.95873 
L 264.862221 590.768824 
L 267.122617 599.603268 
L 269.383012 608.946659 
L 271.643408 617.46174 
L 273.903803 603.804903 
L 276.164199 598.655417 
L 278.424595 619.311224 
L 280.68499 625.475512 
L 282.945386 631.29003 
L 285.205781 631.372114 
L 287.466177 631.633193 
L 289.726572 630.843934 
L 291.986968 631.299986 
L 294.247363 633.138951 
L 296.507759 632.259761 
L 298.768154 631.850935 
L 301.02855 634.025567 
L 303.288945 632.326313 
L 305.549341 624.028833 
L 307.809736 619.495069 
L 310.070132 614.19547 
L 312.330527 610.36771 
L 314.590923 604.396684 
L 316.851318 599.619783 
L 319.111714 593.583189 
L 321.37211 575.769718 
L 323.632505 576.178777 
L 325.892901 577.722742 
L 328.153296 585.509284 
L 330.413692 599.227824 
L 332.674087 606.527088 
L 334.934483 615.347149 
L 337.194878 607.320259 
L 339.455274 595.10832 
L 341.715669 590.087042 
L 343.976065 593.607716 
L 346.23646 602.618696 
L 348.496856 614.168062 
L 350.757251 616.07454 
L 353.017647 617.496762 
L 355.278042 609.861621 
L 357.538438 604.583105 
L 359.798833 606.00172 
L 362.059229 613.188493 
L 364.319625 610.691874 
L 366.58002 598.312933 
L 368.840416 596.199396 
L 371.100811 603.040171 
L 373.361207 608.628585 
L 375.621602 616.03809 
L 377.881998 630.120806 
L 380.142393 628.30016 
L 382.402789 627.841555 
L 384.663184 626.818929 
L 386.92358 604.308744 
L 389.183975 590.677206 
L 391.444371 579.787531 
L 393.704766 581.238168 
L 395.965162 598.381571 
L 398.225557 611.321136 
L 400.485953 605.264536 
L 402.746348 591.682521 
L 405.006744 595.30615 
L 407.26714 589.787334 
L 409.527535 586.093334 
L 411.787931 593.854693 
L 414.048326 604.553003 
L 416.308722 613.296462 
L 418.569117 618.486967 
L 420.829513 611.492144 
L 423.089908 605.653403 
L 425.350304 602.140273 
L 427.610699 599.262705 
L 429.871095 592.278658 
L 432.13149 584.662351 
L 434.391886 589.058443 
L 436.652281 608.832459 
L 438.912677 618.361592 
L 441.173072 605.31804 
L 443.433468 588.811817 
L 445.693864 573.736553 
L 447.954259 578.150004 
L 450.214655 585.628193 
L 452.47505 591.282316 
L 454.735446 595.815753 
L 456.995841 607.86999 
L 459.256237 611.057854 
L 461.516632 613.643186 
L 463.777028 602.580207 
L 466.037423 597.70096 
L 468.297819 593.795121 
L 470.558214 593.681015 
L 472.81861 593.935488 
L 475.079005 599.569605 
L 477.339401 601.240585 
L 479.599796 601.761268 
L 481.860192 612.591863 
L 484.120587 611.607562 
L 486.380983 624.907883 
L 488.641379 628.307282 
L 490.901774 622.759769 
L 493.16217 610.040593 
L 495.422565 602.619727 
L 497.682961 595.607592 
L 499.943356 595.801838 
L 502.203752 592.335793 
L 504.464147 590.974549 
L 506.724543 591.969673 
L 508.984938 595.809475 
L 511.245334 608.539895 
L 513.505729 623.75918 
L 515.766125 631.396945 
L 518.02652 622.226506 
L 520.286916 609.212471 
L 522.547311 605.112808 
L 524.807707 604.070855 
L 527.068102 595.483389 
L 529.328498 593.011086 
L 531.588894 592.719952 
L 533.849289 594.49131 
L 536.109685 600.404568 
L 538.37008 613.514813 
L 540.630476 608.63922 
L 542.890871 598.008868 
L 545.151267 595.311538 
L 547.411662 594.028699 
L 549.672058 589.50229 
L 551.932453 591.661719 
L 554.192849 597.364543 
L 556.453244 613.827312 
L 558.71364 595.4557 
L 560.974035 588.08904 
L 563.234431 583.688404 
L 565.494826 589.913177 
L 567.755222 600.999768 
L 570.015617 604.315584 
L 572.276013 600.181672 
L 574.536409 591.903683 
L 576.796804 590.317786 
L 579.0572 604.698407 
L 581.317595 614.608559 
L 583.577991 615.688485 
L 585.838386 611.436344 
L 588.098782 610.725608 
L 590.359177 593.837077 
L 592.619573 580.158571 
L 594.879968 582.978652 
L 597.140364 583.759993 
L 599.400759 590.153665 
L 601.661155 621.090922 
L 603.92155 622.743418 
L 606.181946 600.540578 
L 608.442341 574.072783 
L 610.702737 581.943446 
L 612.963133 594.306645 
L 615.223528 588.741423 
L 617.483924 578.627795 
L 619.744319 589.281245 
L 622.004715 603.964714 
L 626.525506 597.643099 
L 628.785901 579.96976 
L 631.046297 535.210937 
L 633.306692 565.261413 
L 635.567088 601.779657 
L 637.827483 593.376199 
L 640.087879 533.828679 
L 642.348274 589.753086 
L 644.60867 636.099117 
L 646.869065 583.262688 
L 649.129461 570.833569 
L 651.389856 453.711372 
L 653.650252 597.782622 
L 655.910648 466.623061 
L 658.171043 609.119447 
L 660.431439 455.997487 
L 662.691834 621.521018 
L 664.95223 480.855514 
L 667.212625 536.108399 
L 669.473021 485.449225 
L 671.733416 363.594777 
L 673.993812 587.428552 
L 676.254207 530.298776 
L 678.514603 466.737519 
L 680.774998 422.95871 
L 683.035394 493.353341 
L 685.295789 485.139772 
L 687.556185 609.462376 
L 689.81658 490.521782 
L 692.076976 379.784753 
L 694.337371 441.737133 
L 696.597767 475.471092 
L 698.858163 616.857591 
L 701.118558 491.277191 
L 703.378954 375.722033 
L 705.639349 517.437992 
L 707.899745 312.657025 
L 710.16014 581.944688 
L 712.420536 312.65473 
L 714.680931 519.628741 
L 716.941327 459.696008 
L 719.201722 340.8888 
L 721.462118 455.187894 
L 723.722513 542.1129 
L 725.982909 488.942561 
L 728.243304 384.371648 
L 730.5037 398.079295 
L 732.764095 557.856499 
L 735.024491 366.409845 
L 737.284886 440.332294 
L 739.545282 247.300093 
L 741.805678 606.211216 
L 744.066073 260.026391 
L 746.326469 639.849339 
L 748.586864 321.448881 
L 750.84726 497.060881 
L 753.107655 282.997594 
L 755.368051 308.345945 
L 757.628446 441.946559 
L 759.888842 437.441889 
L 762.149237 419.622983 
L 764.409633 420.168849 
L 766.670028 286.872675 
L 768.930424 495.45711 
L 771.190819 309.745397 
L 773.451215 248.641637 
L 775.71161 267.114495 
L 777.972006 380.525943 
L 780.232402 430.927762 
L 782.492797 327.505552 
L 784.753193 388.41352 
L 787.013588 389.141638 
L 789.273984 293.781666 
L 791.534379 498.283 
L 793.794775 331.801686 
L 796.05517 345.027326 
L 798.315566 324.03761 
L 800.575961 236.515834 
L 802.836357 278.082553 
L 805.096752 239.556819 
L 807.357148 382.012726 
L 809.617543 280.482142 
L 811.877939 221.362726 
L 814.138334 266.578796 
L 816.39873 401.877774 
L 818.659125 166.034903 
L 820.919521 454.21123 
L 823.179917 164.908079 
L 825.440312 233.676404 
L 827.700708 274.952081 
L 829.961103 327.531226 
L 832.221499 372.099481 
L 834.481894 400.336503 
L 836.74229 203.754605 
L 839.002685 222.778998 
L 841.263081 230.075263 
L 843.523476 330.247765 
L 845.783872 192.707603 
L 848.044267 290.857482 
L 850.304663 257.790032 
L 852.565058 470.819589 
L 854.825454 146.548508 
L 857.085849 471.546395 
L 859.346245 108.993863 
L 861.60664 522.007504 
L 863.867036 201.452326 
L 866.127432 298.10802 
L 868.387827 335.149314 
L 870.648223 232.599336 
L 872.908618 308.034149 
L 875.169014 160.026115 
L 877.429409 232.762707 
L 879.689805 442.887055 
L 881.9502 150.62861 
L 884.210596 448.964386 
L 886.470991 154.043985 
L 888.731387 555.705785 
L 890.991782 195.391627 
L 893.252178 243.583932 
L 895.512573 165.60312 
L 897.772969 183.565111 
L 900.033364 185.194603 
L 902.29376 271.063507 
L 904.554155 208.073181 
L 906.814551 204.832422 
L 909.074947 168.212041 
L 911.335342 214.7913 
L 913.595738 232.032715 
L 915.856133 159.404162 
L 918.116529 226.819745 
L 920.376924 276.174388 
L 922.63732 148.147125 
L 924.897715 193.817278 
L 927.158111 214.644374 
L 929.418506 103.216053 
L 931.678902 275.073755 
L 933.939297 198.349216 
L 936.199693 375.356404 
L 938.460088 128.46208 
L 940.720484 176.293958 
L 942.980879 322.767374 
L 945.241275 260.477757 
L 947.501671 121.479391 
L 949.762066 207.775159 
L 954.282857 174.230387 
L 956.543253 121.652742 
L 958.803648 204.431046 
L 961.064044 181.663599 
L 963.324439 161.327928 
L 965.584835 215.658613 
L 967.84523 84.843831 
L 970.105626 221.13442 
L 972.366021 242.257944 
L 974.626417 146.235259 
L 976.886812 301.681284 
L 979.147208 199.174363 
L 981.407603 191.656678 
L 983.667999 269.453927 
L 985.928394 297.646346 
L 988.18879 157.207346 
L 990.449186 212.984428 
L 992.709581 159.905379 
L 994.969977 277.573231 
L 997.230372 162.656072 
L 999.490768 195.224742 
L 1001.751163 194.678173 
L 1004.011559 212.392788 
L 1006.271954 286.330839 
L 1008.53235 255.212455 
L 1010.792745 194.738752 
L 1013.053141 142.265117 
L 1015.313536 269.975664 
L 1017.573932 203.129747 
L 1019.834327 112.74863 
L 1022.094723 186.638376 
L 1024.355118 181.353817 
L 1026.615514 267.85962 
L 1028.875909 118.873469 
L 1031.136305 228.697925 
L 1033.396701 241.735925 
L 1035.657096 245.790634 
L 1037.917492 189.196979 
L 1040.177887 220.477094 
L 1042.438283 247.064946 
L 1044.698678 196.579029 
L 1046.959074 202.093441 
L 1049.219469 119.254277 
L 1051.479865 237.570412 
L 1053.74026 222.285137 
L 1056.000656 170.200697 
L 1058.261051 247.229441 
L 1060.521447 164.660282 
L 1062.781842 188.219424 
L 1065.042238 280.750835 
L 1067.302633 311.848463 
L 1069.563029 203.29682 
L 1071.823424 187.455371 
L 1074.08382 180.380667 
L 1076.344216 230.990833 
L 1078.604611 160.430583 
L 1080.865007 184.102965 
L 1083.125402 310.431817 
L 1085.385798 123.263493 
L 1087.646193 229.55896 
L 1087.646193 229.55896 
" clip-path="url(#p13f4662456)" style="fill: none; stroke: #ff7f0e; stroke-width: 2; stroke-linecap: square"/>
   </g>
   <g id="line2d_26">
    <path d="M 95.332557 651.059244 
L 97.592952 649.255324 
L 99.853348 648.187674 
L 102.113743 648.411576 
L 104.374139 648.152512 
L 106.634534 645.13097 
L 108.89493 641.285148 
L 111.155326 635.075414 
L 113.415721 629.370457 
L 115.676117 629.42949 
L 117.936512 625.749967 
L 120.196908 625.038646 
L 122.457303 627.171556 
L 124.717699 635.031584 
L 126.978094 644.314607 
L 129.23849 651.730437 
L 131.498885 654.088106 
L 133.759281 650.894912 
L 136.019676 642.719926 
L 138.280072 639.423015 
L 140.540467 647.898553 
L 142.800863 649.874325 
L 145.061258 654.566986 
L 147.321654 645.707805 
L 149.582049 639.901579 
L 151.842445 637.480977 
L 154.102841 633.270885 
L 156.363236 630.061071 
L 158.623632 635.66607 
L 160.884027 639.145818 
L 163.144423 650.222032 
L 165.404818 647.407527 
L 167.665214 639.609694 
L 169.925609 633.992678 
L 172.186005 639.86972 
L 174.4464 635.351509 
L 176.706796 630.428105 
L 178.967191 624.795299 
L 181.227587 629.054936 
L 183.487982 634.526081 
L 185.748378 646.909356 
L 188.008773 653.931775 
L 190.269169 656.403784 
L 192.529564 649.349284 
L 194.78996 637.468116 
L 197.050356 615.71615 
L 199.310751 523.328199 
L 201.571147 537.496935 
L 203.831542 628.526851 
L 206.091938 662.708509 
L 208.352333 664.004666 
L 210.612729 643.998618 
L 212.873124 608.074543 
L 215.13352 613.838697 
L 217.393915 578.854509 
L 219.654311 594.851597 
L 221.914706 617.08967 
L 226.435497 599.713252 
L 228.695893 599.567942 
L 230.956288 593.944296 
L 233.216684 583.104003 
L 235.477079 591.116415 
L 237.737475 608.862233 
L 239.997871 617.4575 
L 242.258266 615.488663 
L 244.518662 609.037481 
L 246.779057 601.981399 
L 249.039453 612.168327 
L 251.299848 606.963158 
L 253.560244 602.584026 
L 255.820639 611.958643 
L 258.081035 617.536117 
L 260.34143 613.957746 
L 262.601826 624.024195 
L 264.862221 623.594427 
L 267.122617 630.375584 
L 269.383012 637.91201 
L 271.643408 637.961227 
L 273.903803 630.743485 
L 276.164199 622.196404 
L 278.424595 615.077987 
L 280.68499 608.694153 
L 282.945386 612.68409 
L 285.205781 629.667285 
L 287.466177 632.482633 
L 289.726572 627.035453 
L 291.986968 634.256943 
L 294.247363 629.348625 
L 296.507759 625.134176 
L 298.768154 608.907913 
L 301.02855 603.570342 
L 303.288945 615.812688 
L 305.549341 625.347841 
L 307.809736 625.345358 
L 310.070132 611.100231 
L 312.330527 594.464745 
L 314.590923 588.823694 
L 316.851318 602.102417 
L 319.111714 616.37111 
L 321.37211 634.000338 
L 323.632505 625.975182 
L 325.892901 625.849058 
L 328.153296 615.780149 
L 330.413692 617.988093 
L 332.674087 614.249022 
L 334.934483 618.327344 
L 337.194878 623.242034 
L 341.715669 640.523906 
L 343.976065 638.753695 
L 346.23646 641.645646 
L 348.496856 632.034499 
L 350.757251 617.265128 
L 353.017647 606.925208 
L 355.278042 614.320798 
L 357.538438 613.96557 
L 359.798833 602.193566 
L 362.059229 594.302897 
L 364.319625 585.192381 
L 366.58002 586.958773 
L 368.840416 596.037571 
L 371.100811 614.030038 
L 373.361207 612.539624 
L 375.621602 613.369011 
L 377.881998 601.9613 
L 380.142393 605.65195 
L 382.402789 604.473192 
L 384.663184 601.82337 
L 386.92358 604.342172 
L 389.183975 609.311304 
L 391.444371 609.455489 
L 393.704766 609.851618 
L 395.965162 602.374787 
L 398.225557 587.506607 
L 400.485953 592.078228 
L 402.746348 609.982169 
L 405.006744 621.38311 
L 407.26714 633.568626 
L 409.527535 637.342835 
L 411.787931 633.190675 
L 416.308722 598.779316 
L 418.569117 593.269519 
L 420.829513 599.567239 
L 423.089908 608.650511 
L 425.350304 610.709491 
L 427.610699 611.885742 
L 429.871095 624.867216 
L 432.13149 626.253573 
L 434.391886 598.304734 
L 436.652281 575.580813 
L 438.912677 577.861352 
L 441.173072 601.655431 
L 443.433468 617.842806 
L 445.693864 627.54686 
L 447.954259 624.603981 
L 450.214655 607.441417 
L 452.47505 598.495865 
L 454.735446 602.91646 
L 456.995841 600.632805 
L 459.256237 607.61205 
L 461.516632 609.830699 
L 463.777028 616.02298 
L 466.037423 611.25278 
L 468.297819 607.60111 
L 470.558214 611.750717 
L 472.81861 602.340797 
L 475.079005 610.403574 
L 477.339401 620.746423 
L 479.599796 621.487261 
L 481.860192 616.327163 
L 484.120587 608.261129 
L 486.380983 601.571426 
L 488.641379 596.699488 
L 490.901774 597.363724 
L 493.16217 599.808337 
L 495.422565 600.294373 
L 497.682961 591.037939 
L 499.943356 585.587924 
L 502.203752 590.132254 
L 504.464147 590.949554 
L 506.724543 600.59769 
L 508.984938 608.947737 
L 511.245334 613.465268 
L 513.505729 611.635767 
L 515.766125 611.549255 
L 518.02652 600.636436 
L 520.286916 591.824925 
L 522.547311 583.496969 
L 524.807707 578.118239 
L 527.068102 582.513511 
L 529.328498 602.551605 
L 531.588894 602.228002 
L 533.849289 601.699822 
L 536.109685 607.259188 
L 538.37008 594.22681 
L 540.630476 595.024011 
L 545.151267 598.191916 
L 547.411662 590.208013 
L 549.672058 599.84043 
L 551.932453 613.90047 
L 554.192849 624.890431 
L 556.453244 624.033191 
L 558.71364 621.781207 
L 560.974035 618.104425 
L 563.234431 620.040232 
L 565.494826 617.631905 
L 567.755222 606.97637 
L 570.015617 601.342697 
L 572.276013 607.803649 
L 574.536409 611.091236 
L 576.796804 604.389023 
L 579.0572 596.225773 
L 583.577991 572.485457 
L 585.838386 568.31144 
L 588.098782 575.682269 
L 590.359177 594.130414 
L 592.619573 609.211323 
L 594.879968 611.825796 
L 597.140364 620.568528 
L 599.400759 628.234896 
L 601.661155 609.840397 
L 603.92155 603.037524 
L 606.181946 612.157035 
L 608.442341 611.51585 
L 610.702737 592.461613 
L 612.963133 582.389354 
L 615.223528 592.923966 
L 617.483924 607.819765 
L 619.744319 602.52668 
L 622.004715 592.320332 
L 624.26511 590.282319 
L 626.525506 591.222885 
L 628.785901 599.007927 
L 631.046297 620.069116 
L 633.306692 563.991318 
L 635.567088 511.579316 
L 637.827483 586.147986 
L 640.087879 613.931603 
L 642.348274 540.257045 
L 644.60867 576.297592 
L 646.869065 562.433274 
L 649.129461 695.359298 
L 651.389856 666.358001 
L 653.650252 495.957928 
L 655.910648 641.684064 
L 658.171043 508.423006 
L 660.431439 631.30172 
L 662.691834 455.012576 
L 664.95223 523.919909 
L 667.212625 483.969611 
L 669.473021 471.34067 
L 671.733416 712.275471 
L 673.993812 585.284561 
L 676.254207 420.887034 
L 678.514603 536.5042 
L 680.774998 589.723522 
L 683.035394 454.875583 
L 685.295789 550.055738 
L 687.556185 655.306231 
L 689.81658 486.492349 
L 692.076976 543.844154 
L 694.337371 568.223336 
L 696.597767 529.529827 
L 698.858163 365.371664 
L 701.118558 573.985873 
L 703.378954 574.158497 
L 705.639349 491.044925 
L 707.899745 680.091545 
L 710.16014 521.021914 
L 712.420536 658.654925 
L 714.680931 538.796405 
L 716.941327 487.781044 
L 719.201722 652.930981 
L 721.462118 574.436959 
L 723.722513 422.982276 
L 725.982909 493.322091 
L 728.243304 702.660107 
L 730.5037 599.692965 
L 732.764095 427.76159 
L 735.024491 629.79896 
L 737.284886 521.578392 
L 739.545282 709.071537 
L 741.805678 398.176652 
L 744.066073 760.412961 
L 746.326469 313.628864 
L 748.586864 671.188956 
L 750.84726 462.163508 
L 753.107655 697.121028 
L 755.368051 625.514023 
L 757.628446 527.252427 
L 759.888842 543.723605 
L 762.149237 556.763854 
L 764.409633 538.65988 
L 766.670028 741.270244 
L 768.930424 470.744955 
L 771.190819 663.167571 
L 773.451215 676.958696 
L 775.71161 699.800918 
L 777.972006 632.160061 
L 780.232402 500.320264 
L 782.492797 625.683602 
L 784.753193 576.044009 
L 787.013588 570.761957 
L 789.273984 678.434059 
L 791.534379 444.449924 
L 793.794775 646.458317 
L 796.05517 679.867994 
L 798.315566 611.587275 
L 800.575961 714.477195 
L 802.836357 671.87718 
L 805.096752 724.678552 
L 807.357148 582.576807 
L 811.877939 717.363511 
L 814.138334 690.282162 
L 816.39873 534.345099 
L 818.659125 756.890331 
L 820.919521 518.322851 
L 823.179917 777.828968 
L 825.440312 749.894653 
L 827.700708 678.177817 
L 829.961103 642.823772 
L 832.221499 622.064213 
L 834.481894 667.550803 
L 836.74229 724.516212 
L 839.002685 692.290296 
L 841.263081 740.543907 
L 843.523476 624.995003 
L 845.783872 753.269314 
L 848.044267 734.805896 
L 850.304663 656.116152 
L 852.565058 500.65223 
L 854.825454 802.123446 
L 857.085849 521.450652 
L 859.346245 809.192063 
L 861.60664 740.456002 
L 863.867036 772.602276 
L 866.127432 636.217956 
L 868.387827 615.861319 
L 870.648223 705.744196 
L 872.908618 679.033839 
L 875.169014 777.646939 
L 877.429409 696.777607 
L 879.689805 492.650827 
L 881.9502 787.826288 
L 884.210596 530.34359 
L 886.470991 772.160854 
L 888.731387 513.181236 
L 890.991782 749.446718 
L 893.252178 717.436155 
L 895.512573 770.354738 
L 897.772969 740.303289 
L 900.033364 764.219117 
L 902.29376 706.442083 
L 904.554155 753.099548 
L 906.814551 730.004926 
L 909.074947 775.496581 
L 911.335342 757.629489 
L 913.595738 699.495458 
L 915.856133 776.153737 
L 918.116529 721.092615 
L 920.376924 673.378053 
L 922.63732 778.439981 
L 924.897715 744.360165 
L 927.158111 760.834067 
L 929.418506 809.13768 
L 931.678902 715.480026 
L 933.939297 760.008598 
L 936.199693 557.085887 
L 938.460088 824.694243 
L 940.720484 750.089426 
L 942.980879 592.53702 
L 945.241275 690.835922 
L 947.501671 811.212003 
L 949.762066 717.241124 
L 952.022462 736.030288 
L 954.282857 816.192783 
L 956.543253 826.546089 
L 958.803648 714.57604 
L 961.064044 744.387655 
L 963.324439 779.757618 
L 965.584835 735.351118 
L 967.84523 840.785971 
L 970.105626 760.313987 
L 972.366021 770.426163 
L 974.626417 782.410949 
L 976.886812 708.461367 
L 979.147208 822.085383 
L 981.407603 819.07308 
L 983.667999 670.464094 
L 985.928394 700.120479 
L 988.18879 799.489983 
L 990.449186 760.053516 
L 992.709581 787.431248 
L 994.969977 679.051444 
L 997.230372 761.042796 
L 999.490768 760.521785 
L 1001.751163 756.793173 
L 1004.011559 768.739758 
L 1006.271954 705.502185 
L 1008.53235 676.86996 
L 1013.053141 804.769312 
L 1015.313536 770.948111 
L 1017.573932 769.802453 
L 1019.834327 824.062721 
L 1022.094723 764.330266 
L 1024.355118 761.4896 
L 1026.615514 709.39097 
L 1028.875909 807.365461 
L 1035.657096 715.405228 
L 1037.917492 771.950497 
L 1040.177887 740.633838 
L 1042.438283 681.797639 
L 1044.698678 753.418653 
L 1046.959074 735.296981 
L 1049.219469 806.064148 
L 1051.479865 761.703682 
L 1053.74026 734.025926 
L 1056.000656 782.595854 
L 1058.261051 733.526618 
L 1060.521447 763.443152 
L 1062.781842 772.859467 
L 1065.042238 705.281491 
L 1067.302633 661.127895 
L 1069.563029 720.382207 
L 1071.823424 768.445706 
L 1074.08382 754.460652 
L 1076.344216 695.089457 
L 1078.604611 779.025998 
L 1080.865007 803.82448 
L 1083.125402 681.428884 
L 1085.385798 796.797128 
L 1087.646193 776.678713 
L 1087.646193 776.678713 
" clip-path="url(#p13f4662456)" style="fill: none; stroke: #2ca02c; stroke-width: 2; stroke-linecap: square"/>
   </g>
   <g id="patch_3">
    <path d="M 45.716875 888.477813 
L 45.716875 23.837812 
" style="fill: none; stroke: #000000; stroke-width: 0.8; stroke-linejoin: miter; stroke-linecap: square"/>
   </g>
   <g id="patch_4">
    <path d="M 1137.261875 888.477813 
L 1137.261875 23.837812 
" style="fill: none; stroke: #000000; stroke-width: 0.8; stroke-linejoin: miter; stroke-linecap: square"/>
   </g>
   <g id="patch_5">
    <path d="M 45.716875 888.477813 
L 1137.261875 888.477813 
" style="fill: none; stroke: #000000; stroke-width: 0.8; stroke-linejoin: miter; stroke-linecap: square"/>
   </g>
   <g id="patch_6">
    <path d="M 45.716875 23.837812 
L 1137.261875 23.837812 
" style="fill: none; stroke: #000000; stroke-width: 0.8; stroke-linejoin: miter; stroke-linecap: square"/>
   </g>
   <g id="text_14">
    <!-- Link 1: Evolucin de Probabilidades de Accin -->
    <g transform="translate(410.401562 17.837812) scale(0.14 -0.14)">
     <defs>
      <path id="DejaVuSans-Bold-4c" d="M 588 4666 
L 1791 4666 
L 1791 909 
L 3903 909 
L 3903 0 
L 588 0 
L 588 4666 
z
" transform="scale(0.015625)"/>
      <path id="DejaVuSans-Bold-69" d="M 538 3500 
L 1656 3500 
L 1656 0 
L 538 0 
L 538 3500 
z
M 538 4863 
L 1656 4863 
L 1656 3950 
L 538 3950 
L 538 4863 
z
" transform="scale(0.015625)"/>
      <path id="DejaVuSans-Bold-6e" d="M 4056 2131 
L 4056 0 
L 2931 0 
L 2931 347 
L 2931 1631 
Q 2931 2084 2911 2256 
Q 2891 2428 2841 2509 
Q 2775 2619 2662 2680 
Q 2550 2741 2406 2741 
Q 2056 2741 1856 2470 
Q 1656 2200 1656 1722 
L 1656 0 
L 538 0 
L 538 3500 
L 1656 3500 
L 1656 2988 
Q 1909 3294 2193 3439 
Q 2478 3584 2822 3584 
Q 3428 3584 3742 3212 
Q 4056 2841 4056 2131 
z
" transform="scale(0.015625)"/>
      <path id="DejaVuSans-Bold-6b" d="M 538 4863 
L 1656 4863 
L 1656 2216 
L 2944 3500 
L 4244 3500 
L 2534 1894 
L 4378 0 
L 3022 0 
L 1656 1459 
L 1656 0 
L 538 0 
L 538 4863 
z
" transform="scale(0.015625)"/>
      <path id="DejaVuSans-Bold-20" transform="scale(0.015625)"/>
      <path id="DejaVuSans-Bold-31" d="M 750 831 
L 1813 831 
L 1813 3847 
L 722 3622 
L 722 4441 
L 1806 4666 
L 2950 4666 
L 2950 831 
L 4013 831 
L 4013 0 
L 750 0 
L 750 831 
z
" transform="scale(0.015625)"/>
      <path id="DejaVuSans-Bold-3a" d="M 716 3500 
L 1844 3500 
L 1844 2291 
L 716 2291 
L 716 3500 
z
M 716 1209 
L 1844 1209 
L 1844 0 
L 716 0 
L 716 1209 
z
" transform="scale(0.015625)"/>
      <path id="DejaVuSans-Bold-45" d="M 588 4666 
L 3834 4666 
L 3834 3756 
L 1791 3756 
L 1791 2888 
L 3713 2888 
L 3713 1978 
L 1791 1978 
L 1791 909 
L 3903 909 
L 3903 0 
L 588 0 
L 588 4666 
z
" transform="scale(0.015625)"/>
      <path id="DejaVuSans-Bold-76" d="M 97 3500 
L 1216 3500 
L 2088 1081 
L 2956 3500 
L 4078 3500 
L 2700 0 
L 1472 0 
L 97 3500 
z
" transform="scale(0.015625)"/>
      <path id="DejaVuSans-Bold-6f" d="M 2203 2784 
Q 1831 2784 1636 2517 
Q 1441 2250 1441 1747 
Q 1441 1244 1636 976 
Q 1831 709 2203 709 
Q 2569 709 2762 976 
Q 2956 1244 2956 1747 
Q 2956 2250 2762 2517 
Q 2569 2784 2203 2784 
z
M 2203 3584 
Q 3106 3584 3614 3096 
Q 4122 2609 4122 1747 
Q 4122 884 3614 396 
Q 3106 -91 2203 -91 
Q 1297 -91 786 396 
Q 275 884 275 1747 
Q 275 2609 786 3096 
Q 1297 3584 2203 3584 
z
" transform="scale(0.015625)"/>
      <path id="DejaVuSans-Bold-6c" d="M 538 4863 
L 1656 4863 
L 1656 0 
L 538 0 
L 538 4863 
z
" transform="scale(0.015625)"/>
      <path id="DejaVuSans-Bold-75" d="M 500 1363 
L 500 3500 
L 1625 3500 
L 1625 3150 
Q 1625 2866 1622 2436 
Q 1619 2006 1619 1863 
Q 1619 1441 1641 1255 
Q 1663 1069 1716 984 
Q 1784 875 1895 815 
Q 2006 756 2150 756 
Q 2500 756 2700 1025 
Q 2900 1294 2900 1772 
L 2900 3500 
L 4019 3500 
L 4019 0 
L 2900 0 
L 2900 506 
Q 2647 200 2364 54 
Q 2081 -91 1741 -91 
Q 1134 -91 817 281 
Q 500 653 500 1363 
z
" transform="scale(0.015625)"/>
      <path id="DejaVuSans-Bold-63" d="M 3366 3391 
L 3366 2478 
Q 3138 2634 2908 2709 
Q 2678 2784 2431 2784 
Q 1963 2784 1702 2511 
Q 1441 2238 1441 1747 
Q 1441 1256 1702 982 
Q 1963 709 2431 709 
Q 2694 709 2930 787 
Q 3166 866 3366 1019 
L 3366 103 
Q 3103 6 2833 -42 
Q 2563 -91 2291 -91 
Q 1344 -91 809 395 
Q 275 881 275 1747 
Q 275 2613 809 3098 
Q 1344 3584 2291 3584 
Q 2566 3584 2833 3536 
Q 3100 3488 3366 3391 
z
" transform="scale(0.015625)"/>
      <path id="DejaVuSans-Bold-f3" d="M 2203 2784 
Q 1831 2784 1636 2517 
Q 1441 2250 1441 1747 
Q 1441 1244 1636 976 
Q 1831 709 2203 709 
Q 2569 709 2762 976 
Q 2956 1244 2956 1747 
Q 2956 2250 2762 2517 
Q 2569 2784 2203 2784 
z
M 2203 3584 
Q 3106 3584 3614 3096 
Q 4122 2609 4122 1747 
Q 4122 884 3614 396 
Q 3106 -91 2203 -91 
Q 1297 -91 786 396 
Q 275 884 275 1747 
Q 275 2609 786 3096 
Q 1297 3584 2203 3584 
z
M 2694 5119 
L 3578 5119 
L 2425 3944 
L 1813 3944 
L 2694 5119 
z
" transform="scale(0.015625)"/>
      <path id="DejaVuSans-Bold-64" d="M 2919 2988 
L 2919 4863 
L 4044 4863 
L 4044 0 
L 2919 0 
L 2919 506 
Q 2688 197 2409 53 
Q 2131 -91 1766 -91 
Q 1119 -91 703 423 
Q 288 938 288 1747 
Q 288 2556 703 3070 
Q 1119 3584 1766 3584 
Q 2128 3584 2408 3439 
Q 2688 3294 2919 2988 
z
M 2181 722 
Q 2541 722 2730 984 
Q 2919 1247 2919 1747 
Q 2919 2247 2730 2509 
Q 2541 2772 2181 2772 
Q 1825 2772 1636 2509 
Q 1447 2247 1447 1747 
Q 1447 1247 1636 984 
Q 1825 722 2181 722 
z
" transform="scale(0.015625)"/>
      <path id="DejaVuSans-Bold-65" d="M 4031 1759 
L 4031 1441 
L 1416 1441 
Q 1456 1047 1700 850 
Q 1944 653 2381 653 
Q 2734 653 3104 758 
Q 3475 863 3866 1075 
L 3866 213 
Q 3469 63 3072 -14 
Q 2675 -91 2278 -91 
Q 1328 -91 801 392 
Q 275 875 275 1747 
Q 275 2603 792 3093 
Q 1309 3584 2216 3584 
Q 3041 3584 3536 3087 
Q 4031 2591 4031 1759 
z
M 2881 2131 
Q 2881 2450 2695 2645 
Q 2509 2841 2209 2841 
Q 1884 2841 1681 2658 
Q 1478 2475 1428 2131 
L 2881 2131 
z
" transform="scale(0.015625)"/>
      <path id="DejaVuSans-Bold-50" d="M 588 4666 
L 2584 4666 
Q 3475 4666 3951 4270 
Q 4428 3875 4428 3144 
Q 4428 2409 3951 2014 
Q 3475 1619 2584 1619 
L 1791 1619 
L 1791 0 
L 588 0 
L 588 4666 
z
M 1791 3794 
L 1791 2491 
L 2456 2491 
Q 2806 2491 2997 2661 
Q 3188 2831 3188 3144 
Q 3188 3456 2997 3625 
Q 2806 3794 2456 3794 
L 1791 3794 
z
" transform="scale(0.015625)"/>
      <path id="DejaVuSans-Bold-72" d="M 3138 2547 
Q 2991 2616 2845 2648 
Q 2700 2681 2553 2681 
Q 2122 2681 1889 2404 
Q 1656 2128 1656 1613 
L 1656 0 
L 538 0 
L 538 3500 
L 1656 3500 
L 1656 2925 
Q 1872 3269 2151 3426 
Q 2431 3584 2822 3584 
Q 2878 3584 2943 3579 
Q 3009 3575 3134 3559 
L 3138 2547 
z
" transform="scale(0.015625)"/>
      <path id="DejaVuSans-Bold-62" d="M 2400 722 
Q 2759 722 2948 984 
Q 3138 1247 3138 1747 
Q 3138 2247 2948 2509 
Q 2759 2772 2400 2772 
Q 2041 2772 1848 2508 
Q 1656 2244 1656 1747 
Q 1656 1250 1848 986 
Q 2041 722 2400 722 
z
M 1656 2988 
Q 1888 3294 2169 3439 
Q 2450 3584 2816 3584 
Q 3463 3584 3878 3070 
Q 4294 2556 4294 1747 
Q 4294 938 3878 423 
Q 3463 -91 2816 -91 
Q 2450 -91 2169 54 
Q 1888 200 1656 506 
L 1656 0 
L 538 0 
L 538 4863 
L 1656 4863 
L 1656 2988 
z
" transform="scale(0.015625)"/>
      <path id="DejaVuSans-Bold-61" d="M 2106 1575 
Q 1756 1575 1579 1456 
Q 1403 1338 1403 1106 
Q 1403 894 1545 773 
Q 1688 653 1941 653 
Q 2256 653 2472 879 
Q 2688 1106 2688 1447 
L 2688 1575 
L 2106 1575 
z
M 3816 1997 
L 3816 0 
L 2688 0 
L 2688 519 
Q 2463 200 2181 54 
Q 1900 -91 1497 -91 
Q 953 -91 614 226 
Q 275 544 275 1050 
Q 275 1666 698 1953 
Q 1122 2241 2028 2241 
L 2688 2241 
L 2688 2328 
Q 2688 2594 2478 2717 
Q 2269 2841 1825 2841 
Q 1466 2841 1156 2769 
Q 847 2697 581 2553 
L 581 3406 
Q 941 3494 1303 3539 
Q 1666 3584 2028 3584 
Q 2975 3584 3395 3211 
Q 3816 2838 3816 1997 
z
" transform="scale(0.015625)"/>
      <path id="DejaVuSans-Bold-73" d="M 3272 3391 
L 3272 2541 
Q 2913 2691 2578 2766 
Q 2244 2841 1947 2841 
Q 1628 2841 1473 2761 
Q 1319 2681 1319 2516 
Q 1319 2381 1436 2309 
Q 1553 2238 1856 2203 
L 2053 2175 
Q 2913 2066 3209 1816 
Q 3506 1566 3506 1031 
Q 3506 472 3093 190 
Q 2681 -91 1863 -91 
Q 1516 -91 1145 -36 
Q 775 19 384 128 
L 384 978 
Q 719 816 1070 734 
Q 1422 653 1784 653 
Q 2113 653 2278 743 
Q 2444 834 2444 1013 
Q 2444 1163 2330 1236 
Q 2216 1309 1875 1350 
L 1678 1375 
Q 931 1469 631 1722 
Q 331 1975 331 2491 
Q 331 3047 712 3315 
Q 1094 3584 1881 3584 
Q 2191 3584 2531 3537 
Q 2872 3491 3272 3391 
z
" transform="scale(0.015625)"/>
      <path id="DejaVuSans-Bold-41" d="M 3419 850 
L 1538 850 
L 1241 0 
L 31 0 
L 1759 4666 
L 3194 4666 
L 4922 0 
L 3713 0 
L 3419 850 
z
M 1838 1716 
L 3116 1716 
L 2478 3572 
L 1838 1716 
z
" transform="scale(0.015625)"/>
     </defs>
     <use xlink:href="#DejaVuSans-Bold-4c"/>
     <use xlink:href="#DejaVuSans-Bold-69" transform="translate(63.720703 0)"/>
     <use xlink:href="#DejaVuSans-Bold-6e" transform="translate(97.998047 0)"/>
     <use xlink:href="#DejaVuSans-Bold-6b" transform="translate(169.189453 0)"/>
     <use xlink:href="#DejaVuSans-Bold-20" transform="translate(235.693359 0)"/>
     <use xlink:href="#DejaVuSans-Bold-31" transform="translate(270.507812 0)"/>
     <use xlink:href="#DejaVuSans-Bold-3a" transform="translate(340.087891 0)"/>
     <use xlink:href="#DejaVuSans-Bold-20" transform="translate(380.078125 0)"/>
     <use xlink:href="#DejaVuSans-Bold-45" transform="translate(414.892578 0)"/>
     <use xlink:href="#DejaVuSans-Bold-76" transform="translate(483.203125 0)"/>
     <use xlink:href="#DejaVuSans-Bold-6f" transform="translate(548.388672 0)"/>
     <use xlink:href="#DejaVuSans-Bold-6c" transform="translate(617.089844 0)"/>
     <use xlink:href="#DejaVuSans-Bold-75" transform="translate(651.367188 0)"/>
     <use xlink:href="#DejaVuSans-Bold-63" transform="translate(722.558594 0)"/>
     <use xlink:href="#DejaVuSans-Bold-69" transform="translate(781.835938 0)"/>
     <use xlink:href="#DejaVuSans-Bold-f3" transform="translate(816.113281 0)"/>
     <use xlink:href="#DejaVuSans-Bold-6e" transform="translate(884.814453 0)"/>
     <use xlink:href="#DejaVuSans-Bold-20" transform="translate(956.005859 0)"/>
     <use xlink:href="#DejaVuSans-Bold-64" transform="translate(990.820312 0)"/>
     <use xlink:href="#DejaVuSans-Bold-65" transform="translate(1062.402344 0)"/>
     <use xlink:href="#DejaVuSans-Bold-20" transform="translate(1130.224609 0)"/>
     <use xlink:href="#DejaVuSans-Bold-50" transform="translate(1165.039062 0)"/>
     <use xlink:href="#DejaVuSans-Bold-72" transform="translate(1238.330078 0)"/>
     <use xlink:href="#DejaVuSans-Bold-6f" transform="translate(1287.646484 0)"/>
     <use xlink:href="#DejaVuSans-Bold-62" transform="translate(1356.347656 0)"/>
     <use xlink:href="#DejaVuSans-Bold-61" transform="translate(1427.929688 0)"/>
     <use xlink:href="#DejaVuSans-Bold-62" transform="translate(1495.410156 0)"/>
     <use xlink:href="#DejaVuSans-Bold-69" transform="translate(1566.992188 0)"/>
     <use xlink:href="#DejaVuSans-Bold-6c" transform="translate(1601.269531 0)"/>
     <use xlink:href="#DejaVuSans-Bold-69" transform="translate(1635.546875 0)"/>
     <use xlink:href="#DejaVuSans-Bold-64" transform="translate(1669.824219 0)"/>
     <use xlink:href="#DejaVuSans-Bold-61" transform="translate(1741.40625 0)"/>
     <use xlink:href="#DejaVuSans-Bold-64" transform="translate(1808.886719 0)"/>
     <use xlink:href="#DejaVuSans-Bold-65" transform="translate(1880.46875 0)"/>
     <use xlink:href="#DejaVuSans-Bold-73" transform="translate(1948.291016 0)"/>
     <use xlink:href="#DejaVuSans-Bold-20" transform="translate(2007.8125 0)"/>
     <use xlink:href="#DejaVuSans-Bold-64" transform="translate(2042.626953 0)"/>
     <use xlink:href="#DejaVuSans-Bold-65" transform="translate(2114.208984 0)"/>
     <use xlink:href="#DejaVuSans-Bold-20" transform="translate(2182.03125 0)"/>
     <use xlink:href="#DejaVuSans-Bold-41" transform="translate(2216.845703 0)"/>
     <use xlink:href="#DejaVuSans-Bold-63" transform="translate(2294.238281 0)"/>
     <use xlink:href="#DejaVuSans-Bold-63" transform="translate(2353.515625 0)"/>
     <use xlink:href="#DejaVuSans-Bold-69" transform="translate(2412.792969 0)"/>
     <use xlink:href="#DejaVuSans-Bold-f3" transform="translate(2447.070312 0)"/>
     <use xlink:href="#DejaVuSans-Bold-6e" transform="translate(2515.771484 0)"/>
    </g>
   </g>
   <g id="legend_1">
    <g id="patch_7">
     <path d="M 1052.677031 97.221562 
L 1129.561875 97.221562 
Q 1131.761875 97.221562 1131.761875 95.021562 
L 1131.761875 31.537812 
Q 1131.761875 29.337812 1129.561875 29.337812 
L 1052.677031 29.337812 
Q 1050.477031 29.337812 1050.477031 31.537812 
L 1050.477031 95.021562 
Q 1050.477031 97.221562 1052.677031 97.221562 
z
" style="fill: #ffffff; opacity: 0.8; stroke: #cccccc; stroke-linejoin: miter"/>
    </g>
    <g id="line2d_27">
     <path d="M 1054.877031 38.246094 
L 1065.877031 38.246094 
L 1076.877031 38.246094 
" style="fill: none; stroke-dasharray: 9.25,4; stroke-dashoffset: 0; stroke: #000000; stroke-width: 2.5"/>
    </g>
    <g id="text_15">
     <!-- No TX -->
     <g transform="translate(1085.677031 42.096094) scale(0.11 -0.11)">
      <defs>
       <path id="DejaVuSans-4e" d="M 628 4666 
L 1478 4666 
L 3547 763 
L 3547 4666 
L 4159 4666 
L 4159 0 
L 3309 0 
L 1241 3903 
L 1241 0 
L 628 0 
L 628 4666 
z
" transform="scale(0.015625)"/>
       <path id="DejaVuSans-54" d="M -19 4666 
L 3928 4666 
L 3928 4134 
L 2272 4134 
L 2272 0 
L 1638 0 
L 1638 4134 
L -19 4134 
L -19 4666 
z
" transform="scale(0.015625)"/>
       <path id="DejaVuSans-58" d="M 403 4666 
L 1081 4666 
L 2241 2931 
L 3406 4666 
L 4084 4666 
L 2584 2425 
L 4184 0 
L 3506 0 
L 2194 1984 
L 872 0 
L 191 0 
L 1856 2491 
L 403 4666 
z
" transform="scale(0.015625)"/>
      </defs>
      <use xlink:href="#DejaVuSans-4e"/>
      <use xlink:href="#DejaVuSans-6f" transform="translate(74.804688 0)"/>
      <use xlink:href="#DejaVuSans-20" transform="translate(135.986328 0)"/>
      <use xlink:href="#DejaVuSans-54" transform="translate(167.773438 0)"/>
      <use xlink:href="#DejaVuSans-58" transform="translate(228.857422 0)"/>
     </g>
    </g>
    <g id="line2d_28">
     <path d="M 1054.877031 54.392031 
L 1065.877031 54.392031 
L 1076.877031 54.392031 
" style="fill: none; stroke: #1f77b4; stroke-width: 2; stroke-linecap: square"/>
    </g>
    <g id="text_16">
     <!-- Canal 0 -->
     <g transform="translate(1085.677031 58.242031) scale(0.11 -0.11)">
      <defs>
       <path id="DejaVuSans-43" d="M 4122 4306 
L 4122 3641 
Q 3803 3938 3442 4084 
Q 3081 4231 2675 4231 
Q 1875 4231 1450 3742 
Q 1025 3253 1025 2328 
Q 1025 1406 1450 917 
Q 1875 428 2675 428 
Q 3081 428 3442 575 
Q 3803 722 4122 1019 
L 4122 359 
Q 3791 134 3420 21 
Q 3050 -91 2638 -91 
Q 1578 -91 968 557 
Q 359 1206 359 2328 
Q 359 3453 968 4101 
Q 1578 4750 2638 4750 
Q 3056 4750 3426 4639 
Q 3797 4528 4122 4306 
z
" transform="scale(0.015625)"/>
      </defs>
      <use xlink:href="#DejaVuSans-43"/>
      <use xlink:href="#DejaVuSans-61" transform="translate(69.824219 0)"/>
      <use xlink:href="#DejaVuSans-6e" transform="translate(131.103516 0)"/>
      <use xlink:href="#DejaVuSans-61" transform="translate(194.482422 0)"/>
      <use xlink:href="#DejaVuSans-6c" transform="translate(255.761719 0)"/>
      <use xlink:href="#DejaVuSans-20" transform="translate(283.544922 0)"/>
      <use xlink:href="#DejaVuSans-30" transform="translate(315.332031 0)"/>
     </g>
    </g>
    <g id="line2d_29">
     <path d="M 1054.877031 70.537969 
L 1065.877031 70.537969 
L 1076.877031 70.537969 
" style="fill: none; stroke: #ff7f0e; stroke-width: 2; stroke-linecap: square"/>
    </g>
    <g id="text_17">
     <!-- Canal 1 -->
     <g transform="translate(1085.677031 74.387969) scale(0.11 -0.11)">
      <use xlink:href="#DejaVuSans-43"/>
      <use xlink:href="#DejaVuSans-61" transform="translate(69.824219 0)"/>
      <use xlink:href="#DejaVuSans-6e" transform="translate(131.103516 0)"/>
      <use xlink:href="#DejaVuSans-61" transform="translate(194.482422 0)"/>
      <use xlink:href="#DejaVuSans-6c" transform="translate(255.761719 0)"/>
      <use xlink:href="#DejaVuSans-20" transform="translate(283.544922 0)"/>
      <use xlink:href="#DejaVuSans-31" transform="translate(315.332031 0)"/>
     </g>
    </g>
    <g id="line2d_30">
     <path d="M 1054.877031 86.683906 
L 1065.877031 86.683906 
L 1076.877031 86.683906 
" style="fill: none; stroke: #2ca02c; stroke-width: 2; stroke-linecap: square"/>
    </g>
    <g id="text_18">
     <!-- Canal 2 -->
     <g transform="translate(1085.677031 90.533906) scale(0.11 -0.11)">
      <use xlink:href="#DejaVuSans-43"/>
      <use xlink:href="#DejaVuSans-61" transform="translate(69.824219 0)"/>
      <use xlink:href="#DejaVuSans-6e" transform="translate(131.103516 0)"/>
      <use xlink:href="#DejaVuSans-61" transform="translate(194.482422 0)"/>
      <use xlink:href="#DejaVuSans-6c" transform="translate(255.761719 0)"/>
      <use xlink:href="#DejaVuSans-20" transform="translate(283.544922 0)"/>
      <use xlink:href="#DejaVuSans-32" transform="translate(315.332031 0)"/>
     </g>
    </g>
   </g>
  </g>
 </g>
 <defs>
  <clipPath id="p13f4662456">
   <rect x="45.716875" y="23.837812" width="1091.545" height="864.64"/>
  </clipPath>
 </defs>
</svg>
