<?xml version="1.0" encoding="utf-8" standalone="no"?>
<!DOCTYPE svg PUBLIC "-//W3C//DTD SVG 1.1//EN"
  "http://www.w3.org/Graphics/SVG/1.1/DTD/svg11.dtd">
<svg xmlns:xlink="http://www.w3.org/1999/xlink" width="1144.461875pt" height="927.969688pt" viewBox="0 0 1144.461875 927.969688" xmlns="http://www.w3.org/2000/svg" version="1.1">
 <metadata>
  <rdf:RDF xmlns:dc="http://purl.org/dc/elements/1.1/" xmlns:cc="http://creativecommons.org/ns#" xmlns:rdf="http://www.w3.org/1999/02/22-rdf-syntax-ns#">
   <cc:Work>
    <dc:type rdf:resource="http://purl.org/dc/dcmitype/StillImage"/>
    <dc:date>2025-10-14T19:32:02.271070</dc:date>
    <dc:format>image/svg+xml</dc:format>
    <dc:creator>
     <cc:Agent>
      <dc:title>Matplotlib v3.10.1, https://matplotlib.org/</dc:title>
     </cc:Agent>
    </dc:creator>
   </cc:Work>
  </rdf:RDF>
 </metadata>
 <defs>
  <style type="text/css">*{stroke-linejoin: round; stroke-linecap: butt}</style>
 </defs>
 <g id="figure_1">
  <g id="patch_1">
   <path d="M 0 927.969688 
L 1144.461875 927.969688 
L 1144.461875 0 
L 0 0 
z
" style="fill: #ffffff"/>
  </g>
  <g id="axes_1">
   <g id="patch_2">
    <path d="M 45.716875 888.477813 
L 1137.261875 888.477813 
L 1137.261875 23.837812 
L 45.716875 23.837812 
z
" style="fill: #ffffff"/>
   </g>
   <g id="matplotlib.axis_1">
    <g id="xtick_1">
     <g id="line2d_1">
      <path d="M 95.332557 888.477813 
L 95.332557 23.837812 
" clip-path="url(#p4805107e41)" style="fill: none; stroke: #b0b0b0; stroke-opacity: 0.3; stroke-width: 0.8; stroke-linecap: square"/>
     </g>
     <g id="line2d_2">
      <defs>
       <path id="m3846f45784" d="M 0 0 
L 0 3.5 
" style="stroke: #000000; stroke-width: 0.8"/>
      </defs>
      <g>
       <use xlink:href="#m3846f45784" x="95.332557" y="888.477813" style="stroke: #000000; stroke-width: 0.8"/>
      </g>
     </g>
     <g id="text_1">
      <!-- 0 -->
      <g transform="translate(92.151307 903.07625) scale(0.1 -0.1)">
       <defs>
        <path id="DejaVuSans-30" d="M 2034 4250 
Q 1547 4250 1301 3770 
Q 1056 3291 1056 2328 
Q 1056 1369 1301 889 
Q 1547 409 2034 409 
Q 2525 409 2770 889 
Q 3016 1369 3016 2328 
Q 3016 3291 2770 3770 
Q 2525 4250 2034 4250 
z
M 2034 4750 
Q 2819 4750 3233 4129 
Q 3647 3509 3647 2328 
Q 3647 1150 3233 529 
Q 2819 -91 2034 -91 
Q 1250 -91 836 529 
Q 422 1150 422 2328 
Q 422 3509 836 4129 
Q 1250 4750 2034 4750 
z
" transform="scale(0.015625)"/>
       </defs>
       <use xlink:href="#DejaVuSans-30"/>
      </g>
     </g>
    </g>
    <g id="xtick_2">
     <g id="line2d_3">
      <path d="M 321.37211 888.477813 
L 321.37211 23.837812 
" clip-path="url(#p4805107e41)" style="fill: none; stroke: #b0b0b0; stroke-opacity: 0.3; stroke-width: 0.8; stroke-linecap: square"/>
     </g>
     <g id="line2d_4">
      <g>
       <use xlink:href="#m3846f45784" x="321.37211" y="888.477813" style="stroke: #000000; stroke-width: 0.8"/>
      </g>
     </g>
     <g id="text_2">
      <!-- 100 -->
      <g transform="translate(311.82836 903.07625) scale(0.1 -0.1)">
       <defs>
        <path id="DejaVuSans-31" d="M 794 531 
L 1825 531 
L 1825 4091 
L 703 3866 
L 703 4441 
L 1819 4666 
L 2450 4666 
L 2450 531 
L 3481 531 
L 3481 0 
L 794 0 
L 794 531 
z
" transform="scale(0.015625)"/>
       </defs>
       <use xlink:href="#DejaVuSans-31"/>
       <use xlink:href="#DejaVuSans-30" transform="translate(63.623047 0)"/>
       <use xlink:href="#DejaVuSans-30" transform="translate(127.246094 0)"/>
      </g>
     </g>
    </g>
    <g id="xtick_3">
     <g id="line2d_5">
      <path d="M 547.411662 888.477813 
L 547.411662 23.837812 
" clip-path="url(#p4805107e41)" style="fill: none; stroke: #b0b0b0; stroke-opacity: 0.3; stroke-width: 0.8; stroke-linecap: square"/>
     </g>
     <g id="line2d_6">
      <g>
       <use xlink:href="#m3846f45784" x="547.411662" y="888.477813" style="stroke: #000000; stroke-width: 0.8"/>
      </g>
     </g>
     <g id="text_3">
      <!-- 200 -->
      <g transform="translate(537.867912 903.07625) scale(0.1 -0.1)">
       <defs>
        <path id="DejaVuSans-32" d="M 1228 531 
L 3431 531 
L 3431 0 
L 469 0 
L 469 531 
Q 828 903 1448 1529 
Q 2069 2156 2228 2338 
Q 2531 2678 2651 2914 
Q 2772 3150 2772 3378 
Q 2772 3750 2511 3984 
Q 2250 4219 1831 4219 
Q 1534 4219 1204 4116 
Q 875 4013 500 3803 
L 500 4441 
Q 881 4594 1212 4672 
Q 1544 4750 1819 4750 
Q 2544 4750 2975 4387 
Q 3406 4025 3406 3419 
Q 3406 3131 3298 2873 
Q 3191 2616 2906 2266 
Q 2828 2175 2409 1742 
Q 1991 1309 1228 531 
z
" transform="scale(0.015625)"/>
       </defs>
       <use xlink:href="#DejaVuSans-32"/>
       <use xlink:href="#DejaVuSans-30" transform="translate(63.623047 0)"/>
       <use xlink:href="#DejaVuSans-30" transform="translate(127.246094 0)"/>
      </g>
     </g>
    </g>
    <g id="xtick_4">
     <g id="line2d_7">
      <path d="M 773.451215 888.477813 
L 773.451215 23.837812 
" clip-path="url(#p4805107e41)" style="fill: none; stroke: #b0b0b0; stroke-opacity: 0.3; stroke-width: 0.8; stroke-linecap: square"/>
     </g>
     <g id="line2d_8">
      <g>
       <use xlink:href="#m3846f45784" x="773.451215" y="888.477813" style="stroke: #000000; stroke-width: 0.8"/>
      </g>
     </g>
     <g id="text_4">
      <!-- 300 -->
      <g transform="translate(763.907465 903.07625) scale(0.1 -0.1)">
       <defs>
        <path id="DejaVuSans-33" d="M 2597 2516 
Q 3050 2419 3304 2112 
Q 3559 1806 3559 1356 
Q 3559 666 3084 287 
Q 2609 -91 1734 -91 
Q 1441 -91 1130 -33 
Q 819 25 488 141 
L 488 750 
Q 750 597 1062 519 
Q 1375 441 1716 441 
Q 2309 441 2620 675 
Q 2931 909 2931 1356 
Q 2931 1769 2642 2001 
Q 2353 2234 1838 2234 
L 1294 2234 
L 1294 2753 
L 1863 2753 
Q 2328 2753 2575 2939 
Q 2822 3125 2822 3475 
Q 2822 3834 2567 4026 
Q 2313 4219 1838 4219 
Q 1578 4219 1281 4162 
Q 984 4106 628 3988 
L 628 4550 
Q 988 4650 1302 4700 
Q 1616 4750 1894 4750 
Q 2613 4750 3031 4423 
Q 3450 4097 3450 3541 
Q 3450 3153 3228 2886 
Q 3006 2619 2597 2516 
z
" transform="scale(0.015625)"/>
       </defs>
       <use xlink:href="#DejaVuSans-33"/>
       <use xlink:href="#DejaVuSans-30" transform="translate(63.623047 0)"/>
       <use xlink:href="#DejaVuSans-30" transform="translate(127.246094 0)"/>
      </g>
     </g>
    </g>
    <g id="xtick_5">
     <g id="line2d_9">
      <path d="M 999.490768 888.477813 
L 999.490768 23.837812 
" clip-path="url(#p4805107e41)" style="fill: none; stroke: #b0b0b0; stroke-opacity: 0.3; stroke-width: 0.8; stroke-linecap: square"/>
     </g>
     <g id="line2d_10">
      <g>
       <use xlink:href="#m3846f45784" x="999.490768" y="888.477813" style="stroke: #000000; stroke-width: 0.8"/>
      </g>
     </g>
     <g id="text_5">
      <!-- 400 -->
      <g transform="translate(989.947018 903.07625) scale(0.1 -0.1)">
       <defs>
        <path id="DejaVuSans-34" d="M 2419 4116 
L 825 1625 
L 2419 1625 
L 2419 4116 
z
M 2253 4666 
L 3047 4666 
L 3047 1625 
L 3713 1625 
L 3713 1100 
L 3047 1100 
L 3047 0 
L 2419 0 
L 2419 1100 
L 313 1100 
L 313 1709 
L 2253 4666 
z
" transform="scale(0.015625)"/>
       </defs>
       <use xlink:href="#DejaVuSans-34"/>
       <use xlink:href="#DejaVuSans-30" transform="translate(63.623047 0)"/>
       <use xlink:href="#DejaVuSans-30" transform="translate(127.246094 0)"/>
      </g>
     </g>
    </g>
    <g id="text_6">
     <!-- Iteraciones (x10) -->
     <g transform="translate(540.499688 918.274063) scale(0.12 -0.12)">
      <defs>
       <path id="DejaVuSans-49" d="M 628 4666 
L 1259 4666 
L 1259 0 
L 628 0 
L 628 4666 
z
" transform="scale(0.015625)"/>
       <path id="DejaVuSans-74" d="M 1172 4494 
L 1172 3500 
L 2356 3500 
L 2356 3053 
L 1172 3053 
L 1172 1153 
Q 1172 725 1289 603 
Q 1406 481 1766 481 
L 2356 481 
L 2356 0 
L 1766 0 
Q 1100 0 847 248 
Q 594 497 594 1153 
L 594 3053 
L 172 3053 
L 172 3500 
L 594 3500 
L 594 4494 
L 1172 4494 
z
" transform="scale(0.015625)"/>
       <path id="DejaVuSans-65" d="M 3597 1894 
L 3597 1613 
L 953 1613 
Q 991 1019 1311 708 
Q 1631 397 2203 397 
Q 2534 397 2845 478 
Q 3156 559 3463 722 
L 3463 178 
Q 3153 47 2828 -22 
Q 2503 -91 2169 -91 
Q 1331 -91 842 396 
Q 353 884 353 1716 
Q 353 2575 817 3079 
Q 1281 3584 2069 3584 
Q 2775 3584 3186 3129 
Q 3597 2675 3597 1894 
z
M 3022 2063 
Q 3016 2534 2758 2815 
Q 2500 3097 2075 3097 
Q 1594 3097 1305 2825 
Q 1016 2553 972 2059 
L 3022 2063 
z
" transform="scale(0.015625)"/>
       <path id="DejaVuSans-72" d="M 2631 2963 
Q 2534 3019 2420 3045 
Q 2306 3072 2169 3072 
Q 1681 3072 1420 2755 
Q 1159 2438 1159 1844 
L 1159 0 
L 581 0 
L 581 3500 
L 1159 3500 
L 1159 2956 
Q 1341 3275 1631 3429 
Q 1922 3584 2338 3584 
Q 2397 3584 2469 3576 
Q 2541 3569 2628 3553 
L 2631 2963 
z
" transform="scale(0.015625)"/>
       <path id="DejaVuSans-61" d="M 2194 1759 
Q 1497 1759 1228 1600 
Q 959 1441 959 1056 
Q 959 750 1161 570 
Q 1363 391 1709 391 
Q 2188 391 2477 730 
Q 2766 1069 2766 1631 
L 2766 1759 
L 2194 1759 
z
M 3341 1997 
L 3341 0 
L 2766 0 
L 2766 531 
Q 2569 213 2275 61 
Q 1981 -91 1556 -91 
Q 1019 -91 701 211 
Q 384 513 384 1019 
Q 384 1609 779 1909 
Q 1175 2209 1959 2209 
L 2766 2209 
L 2766 2266 
Q 2766 2663 2505 2880 
Q 2244 3097 1772 3097 
Q 1472 3097 1187 3025 
Q 903 2953 641 2809 
L 641 3341 
Q 956 3463 1253 3523 
Q 1550 3584 1831 3584 
Q 2591 3584 2966 3190 
Q 3341 2797 3341 1997 
z
" transform="scale(0.015625)"/>
       <path id="DejaVuSans-63" d="M 3122 3366 
L 3122 2828 
Q 2878 2963 2633 3030 
Q 2388 3097 2138 3097 
Q 1578 3097 1268 2742 
Q 959 2388 959 1747 
Q 959 1106 1268 751 
Q 1578 397 2138 397 
Q 2388 397 2633 464 
Q 2878 531 3122 666 
L 3122 134 
Q 2881 22 2623 -34 
Q 2366 -91 2075 -91 
Q 1284 -91 818 406 
Q 353 903 353 1747 
Q 353 2603 823 3093 
Q 1294 3584 2113 3584 
Q 2378 3584 2631 3529 
Q 2884 3475 3122 3366 
z
" transform="scale(0.015625)"/>
       <path id="DejaVuSans-69" d="M 603 3500 
L 1178 3500 
L 1178 0 
L 603 0 
L 603 3500 
z
M 603 4863 
L 1178 4863 
L 1178 4134 
L 603 4134 
L 603 4863 
z
" transform="scale(0.015625)"/>
       <path id="DejaVuSans-6f" d="M 1959 3097 
Q 1497 3097 1228 2736 
Q 959 2375 959 1747 
Q 959 1119 1226 758 
Q 1494 397 1959 397 
Q 2419 397 2687 759 
Q 2956 1122 2956 1747 
Q 2956 2369 2687 2733 
Q 2419 3097 1959 3097 
z
M 1959 3584 
Q 2709 3584 3137 3096 
Q 3566 2609 3566 1747 
Q 3566 888 3137 398 
Q 2709 -91 1959 -91 
Q 1206 -91 779 398 
Q 353 888 353 1747 
Q 353 2609 779 3096 
Q 1206 3584 1959 3584 
z
" transform="scale(0.015625)"/>
       <path id="DejaVuSans-6e" d="M 3513 2113 
L 3513 0 
L 2938 0 
L 2938 2094 
Q 2938 2591 2744 2837 
Q 2550 3084 2163 3084 
Q 1697 3084 1428 2787 
Q 1159 2491 1159 1978 
L 1159 0 
L 581 0 
L 581 3500 
L 1159 3500 
L 1159 2956 
Q 1366 3272 1645 3428 
Q 1925 3584 2291 3584 
Q 2894 3584 3203 3211 
Q 3513 2838 3513 2113 
z
" transform="scale(0.015625)"/>
       <path id="DejaVuSans-73" d="M 2834 3397 
L 2834 2853 
Q 2591 2978 2328 3040 
Q 2066 3103 1784 3103 
Q 1356 3103 1142 2972 
Q 928 2841 928 2578 
Q 928 2378 1081 2264 
Q 1234 2150 1697 2047 
L 1894 2003 
Q 2506 1872 2764 1633 
Q 3022 1394 3022 966 
Q 3022 478 2636 193 
Q 2250 -91 1575 -91 
Q 1294 -91 989 -36 
Q 684 19 347 128 
L 347 722 
Q 666 556 975 473 
Q 1284 391 1588 391 
Q 1994 391 2212 530 
Q 2431 669 2431 922 
Q 2431 1156 2273 1281 
Q 2116 1406 1581 1522 
L 1381 1569 
Q 847 1681 609 1914 
Q 372 2147 372 2553 
Q 372 3047 722 3315 
Q 1072 3584 1716 3584 
Q 2034 3584 2315 3537 
Q 2597 3491 2834 3397 
z
" transform="scale(0.015625)"/>
       <path id="DejaVuSans-20" transform="scale(0.015625)"/>
       <path id="DejaVuSans-28" d="M 1984 4856 
Q 1566 4138 1362 3434 
Q 1159 2731 1159 2009 
Q 1159 1288 1364 580 
Q 1569 -128 1984 -844 
L 1484 -844 
Q 1016 -109 783 600 
Q 550 1309 550 2009 
Q 550 2706 781 3412 
Q 1013 4119 1484 4856 
L 1984 4856 
z
" transform="scale(0.015625)"/>
       <path id="DejaVuSans-78" d="M 3513 3500 
L 2247 1797 
L 3578 0 
L 2900 0 
L 1881 1375 
L 863 0 
L 184 0 
L 1544 1831 
L 300 3500 
L 978 3500 
L 1906 2253 
L 2834 3500 
L 3513 3500 
z
" transform="scale(0.015625)"/>
       <path id="DejaVuSans-29" d="M 513 4856 
L 1013 4856 
Q 1481 4119 1714 3412 
Q 1947 2706 1947 2009 
Q 1947 1309 1714 600 
Q 1481 -109 1013 -844 
L 513 -844 
Q 928 -128 1133 580 
Q 1338 1288 1338 2009 
Q 1338 2731 1133 3434 
Q 928 4138 513 4856 
z
" transform="scale(0.015625)"/>
      </defs>
      <use xlink:href="#DejaVuSans-49"/>
      <use xlink:href="#DejaVuSans-74" transform="translate(29.492188 0)"/>
      <use xlink:href="#DejaVuSans-65" transform="translate(68.701172 0)"/>
      <use xlink:href="#DejaVuSans-72" transform="translate(130.224609 0)"/>
      <use xlink:href="#DejaVuSans-61" transform="translate(171.337891 0)"/>
      <use xlink:href="#DejaVuSans-63" transform="translate(232.617188 0)"/>
      <use xlink:href="#DejaVuSans-69" transform="translate(287.597656 0)"/>
      <use xlink:href="#DejaVuSans-6f" transform="translate(315.380859 0)"/>
      <use xlink:href="#DejaVuSans-6e" transform="translate(376.5625 0)"/>
      <use xlink:href="#DejaVuSans-65" transform="translate(439.941406 0)"/>
      <use xlink:href="#DejaVuSans-73" transform="translate(501.464844 0)"/>
      <use xlink:href="#DejaVuSans-20" transform="translate(553.564453 0)"/>
      <use xlink:href="#DejaVuSans-28" transform="translate(585.351562 0)"/>
      <use xlink:href="#DejaVuSans-78" transform="translate(624.365234 0)"/>
      <use xlink:href="#DejaVuSans-31" transform="translate(683.544922 0)"/>
      <use xlink:href="#DejaVuSans-30" transform="translate(747.167969 0)"/>
      <use xlink:href="#DejaVuSans-29" transform="translate(810.791016 0)"/>
     </g>
    </g>
   </g>
   <g id="matplotlib.axis_2">
    <g id="ytick_1">
     <g id="line2d_11">
      <path d="M 45.716875 849.175994 
L 1137.261875 849.175994 
" clip-path="url(#p4805107e41)" style="fill: none; stroke: #b0b0b0; stroke-opacity: 0.3; stroke-width: 0.8; stroke-linecap: square"/>
     </g>
     <g id="line2d_12">
      <defs>
       <path id="m14538af643" d="M 0 0 
L -3.5 0 
" style="stroke: #000000; stroke-width: 0.8"/>
      </defs>
      <g>
       <use xlink:href="#m14538af643" x="45.716875" y="849.175994" style="stroke: #000000; stroke-width: 0.8"/>
      </g>
     </g>
     <g id="text_7">
      <!-- 0.0 -->
      <g transform="translate(22.81375 852.975213) scale(0.1 -0.1)">
       <defs>
        <path id="DejaVuSans-2e" d="M 684 794 
L 1344 794 
L 1344 0 
L 684 0 
L 684 794 
z
" transform="scale(0.015625)"/>
       </defs>
       <use xlink:href="#DejaVuSans-30"/>
       <use xlink:href="#DejaVuSans-2e" transform="translate(63.623047 0)"/>
       <use xlink:href="#DejaVuSans-30" transform="translate(95.410156 0)"/>
      </g>
     </g>
    </g>
    <g id="ytick_2">
     <g id="line2d_13">
      <path d="M 45.716875 691.968722 
L 1137.261875 691.968722 
" clip-path="url(#p4805107e41)" style="fill: none; stroke: #b0b0b0; stroke-opacity: 0.3; stroke-width: 0.8; stroke-linecap: square"/>
     </g>
     <g id="line2d_14">
      <g>
       <use xlink:href="#m14538af643" x="45.716875" y="691.968722" style="stroke: #000000; stroke-width: 0.8"/>
      </g>
     </g>
     <g id="text_8">
      <!-- 0.2 -->
      <g transform="translate(22.81375 695.76794) scale(0.1 -0.1)">
       <use xlink:href="#DejaVuSans-30"/>
       <use xlink:href="#DejaVuSans-2e" transform="translate(63.623047 0)"/>
       <use xlink:href="#DejaVuSans-32" transform="translate(95.410156 0)"/>
      </g>
     </g>
    </g>
    <g id="ytick_3">
     <g id="line2d_15">
      <path d="M 45.716875 534.761449 
L 1137.261875 534.761449 
" clip-path="url(#p4805107e41)" style="fill: none; stroke: #b0b0b0; stroke-opacity: 0.3; stroke-width: 0.8; stroke-linecap: square"/>
     </g>
     <g id="line2d_16">
      <g>
       <use xlink:href="#m14538af643" x="45.716875" y="534.761449" style="stroke: #000000; stroke-width: 0.8"/>
      </g>
     </g>
     <g id="text_9">
      <!-- 0.4 -->
      <g transform="translate(22.81375 538.560668) scale(0.1 -0.1)">
       <use xlink:href="#DejaVuSans-30"/>
       <use xlink:href="#DejaVuSans-2e" transform="translate(63.623047 0)"/>
       <use xlink:href="#DejaVuSans-34" transform="translate(95.410156 0)"/>
      </g>
     </g>
    </g>
    <g id="ytick_4">
     <g id="line2d_17">
      <path d="M 45.716875 377.554176 
L 1137.261875 377.554176 
" clip-path="url(#p4805107e41)" style="fill: none; stroke: #b0b0b0; stroke-opacity: 0.3; stroke-width: 0.8; stroke-linecap: square"/>
     </g>
     <g id="line2d_18">
      <g>
       <use xlink:href="#m14538af643" x="45.716875" y="377.554176" style="stroke: #000000; stroke-width: 0.8"/>
      </g>
     </g>
     <g id="text_10">
      <!-- 0.6 -->
      <g transform="translate(22.81375 381.353395) scale(0.1 -0.1)">
       <defs>
        <path id="DejaVuSans-36" d="M 2113 2584 
Q 1688 2584 1439 2293 
Q 1191 2003 1191 1497 
Q 1191 994 1439 701 
Q 1688 409 2113 409 
Q 2538 409 2786 701 
Q 3034 994 3034 1497 
Q 3034 2003 2786 2293 
Q 2538 2584 2113 2584 
z
M 3366 4563 
L 3366 3988 
Q 3128 4100 2886 4159 
Q 2644 4219 2406 4219 
Q 1781 4219 1451 3797 
Q 1122 3375 1075 2522 
Q 1259 2794 1537 2939 
Q 1816 3084 2150 3084 
Q 2853 3084 3261 2657 
Q 3669 2231 3669 1497 
Q 3669 778 3244 343 
Q 2819 -91 2113 -91 
Q 1303 -91 875 529 
Q 447 1150 447 2328 
Q 447 3434 972 4092 
Q 1497 4750 2381 4750 
Q 2619 4750 2861 4703 
Q 3103 4656 3366 4563 
z
" transform="scale(0.015625)"/>
       </defs>
       <use xlink:href="#DejaVuSans-30"/>
       <use xlink:href="#DejaVuSans-2e" transform="translate(63.623047 0)"/>
       <use xlink:href="#DejaVuSans-36" transform="translate(95.410156 0)"/>
      </g>
     </g>
    </g>
    <g id="ytick_5">
     <g id="line2d_19">
      <path d="M 45.716875 220.346903 
L 1137.261875 220.346903 
" clip-path="url(#p4805107e41)" style="fill: none; stroke: #b0b0b0; stroke-opacity: 0.3; stroke-width: 0.8; stroke-linecap: square"/>
     </g>
     <g id="line2d_20">
      <g>
       <use xlink:href="#m14538af643" x="45.716875" y="220.346903" style="stroke: #000000; stroke-width: 0.8"/>
      </g>
     </g>
     <g id="text_11">
      <!-- 0.8 -->
      <g transform="translate(22.81375 224.146122) scale(0.1 -0.1)">
       <defs>
        <path id="DejaVuSans-38" d="M 2034 2216 
Q 1584 2216 1326 1975 
Q 1069 1734 1069 1313 
Q 1069 891 1326 650 
Q 1584 409 2034 409 
Q 2484 409 2743 651 
Q 3003 894 3003 1313 
Q 3003 1734 2745 1975 
Q 2488 2216 2034 2216 
z
M 1403 2484 
Q 997 2584 770 2862 
Q 544 3141 544 3541 
Q 544 4100 942 4425 
Q 1341 4750 2034 4750 
Q 2731 4750 3128 4425 
Q 3525 4100 3525 3541 
Q 3525 3141 3298 2862 
Q 3072 2584 2669 2484 
Q 3125 2378 3379 2068 
Q 3634 1759 3634 1313 
Q 3634 634 3220 271 
Q 2806 -91 2034 -91 
Q 1263 -91 848 271 
Q 434 634 434 1313 
Q 434 1759 690 2068 
Q 947 2378 1403 2484 
z
M 1172 3481 
Q 1172 3119 1398 2916 
Q 1625 2713 2034 2713 
Q 2441 2713 2670 2916 
Q 2900 3119 2900 3481 
Q 2900 3844 2670 4047 
Q 2441 4250 2034 4250 
Q 1625 4250 1398 4047 
Q 1172 3844 1172 3481 
z
" transform="scale(0.015625)"/>
       </defs>
       <use xlink:href="#DejaVuSans-30"/>
       <use xlink:href="#DejaVuSans-2e" transform="translate(63.623047 0)"/>
       <use xlink:href="#DejaVuSans-38" transform="translate(95.410156 0)"/>
      </g>
     </g>
    </g>
    <g id="ytick_6">
     <g id="line2d_21">
      <path d="M 45.716875 63.139631 
L 1137.261875 63.139631 
" clip-path="url(#p4805107e41)" style="fill: none; stroke: #b0b0b0; stroke-opacity: 0.3; stroke-width: 0.8; stroke-linecap: square"/>
     </g>
     <g id="line2d_22">
      <g>
       <use xlink:href="#m14538af643" x="45.716875" y="63.139631" style="stroke: #000000; stroke-width: 0.8"/>
      </g>
     </g>
     <g id="text_12">
      <!-- 1.0 -->
      <g transform="translate(22.81375 66.938849) scale(0.1 -0.1)">
       <use xlink:href="#DejaVuSans-31"/>
       <use xlink:href="#DejaVuSans-2e" transform="translate(63.623047 0)"/>
       <use xlink:href="#DejaVuSans-30" transform="translate(95.410156 0)"/>
      </g>
     </g>
    </g>
    <g id="text_13">
     <!-- Probabilidad -->
     <g transform="translate(16.318125 493.264063) rotate(-90) scale(0.12 -0.12)">
      <defs>
       <path id="DejaVuSans-50" d="M 1259 4147 
L 1259 2394 
L 2053 2394 
Q 2494 2394 2734 2622 
Q 2975 2850 2975 3272 
Q 2975 3691 2734 3919 
Q 2494 4147 2053 4147 
L 1259 4147 
z
M 628 4666 
L 2053 4666 
Q 2838 4666 3239 4311 
Q 3641 3956 3641 3272 
Q 3641 2581 3239 2228 
Q 2838 1875 2053 1875 
L 1259 1875 
L 1259 0 
L 628 0 
L 628 4666 
z
" transform="scale(0.015625)"/>
       <path id="DejaVuSans-62" d="M 3116 1747 
Q 3116 2381 2855 2742 
Q 2594 3103 2138 3103 
Q 1681 3103 1420 2742 
Q 1159 2381 1159 1747 
Q 1159 1113 1420 752 
Q 1681 391 2138 391 
Q 2594 391 2855 752 
Q 3116 1113 3116 1747 
z
M 1159 2969 
Q 1341 3281 1617 3432 
Q 1894 3584 2278 3584 
Q 2916 3584 3314 3078 
Q 3713 2572 3713 1747 
Q 3713 922 3314 415 
Q 2916 -91 2278 -91 
Q 1894 -91 1617 61 
Q 1341 213 1159 525 
L 1159 0 
L 581 0 
L 581 4863 
L 1159 4863 
L 1159 2969 
z
" transform="scale(0.015625)"/>
       <path id="DejaVuSans-6c" d="M 603 4863 
L 1178 4863 
L 1178 0 
L 603 0 
L 603 4863 
z
" transform="scale(0.015625)"/>
       <path id="DejaVuSans-64" d="M 2906 2969 
L 2906 4863 
L 3481 4863 
L 3481 0 
L 2906 0 
L 2906 525 
Q 2725 213 2448 61 
Q 2172 -91 1784 -91 
Q 1150 -91 751 415 
Q 353 922 353 1747 
Q 353 2572 751 3078 
Q 1150 3584 1784 3584 
Q 2172 3584 2448 3432 
Q 2725 3281 2906 2969 
z
M 947 1747 
Q 947 1113 1208 752 
Q 1469 391 1925 391 
Q 2381 391 2643 752 
Q 2906 1113 2906 1747 
Q 2906 2381 2643 2742 
Q 2381 3103 1925 3103 
Q 1469 3103 1208 2742 
Q 947 2381 947 1747 
z
" transform="scale(0.015625)"/>
      </defs>
      <use xlink:href="#DejaVuSans-50"/>
      <use xlink:href="#DejaVuSans-72" transform="translate(58.552734 0)"/>
      <use xlink:href="#DejaVuSans-6f" transform="translate(97.416016 0)"/>
      <use xlink:href="#DejaVuSans-62" transform="translate(158.597656 0)"/>
      <use xlink:href="#DejaVuSans-61" transform="translate(222.074219 0)"/>
      <use xlink:href="#DejaVuSans-62" transform="translate(283.353516 0)"/>
      <use xlink:href="#DejaVuSans-69" transform="translate(346.830078 0)"/>
      <use xlink:href="#DejaVuSans-6c" transform="translate(374.613281 0)"/>
      <use xlink:href="#DejaVuSans-69" transform="translate(402.396484 0)"/>
      <use xlink:href="#DejaVuSans-64" transform="translate(430.179688 0)"/>
      <use xlink:href="#DejaVuSans-61" transform="translate(493.65625 0)"/>
      <use xlink:href="#DejaVuSans-64" transform="translate(554.935547 0)"/>
     </g>
    </g>
   </g>
   <g id="line2d_23">
    <path d="M 95.332557 651.917843 
L 97.592952 653.670063 
L 99.853348 655.964166 
L 102.113743 658.615089 
L 104.374139 661.768553 
L 106.634534 664.471528 
L 108.89493 673.078473 
L 111.155326 686.017266 
L 113.415721 701.478316 
L 115.676117 706.152459 
L 117.936512 704.657219 
L 120.196908 709.945925 
L 122.457303 714.473318 
L 124.717699 724.646014 
L 126.978094 735.497657 
L 129.23849 754.914566 
L 131.498885 807.846165 
L 133.759281 832.777367 
L 136.019676 838.465819 
L 138.280072 845.07361 
L 140.540467 844.177386 
L 142.800863 837.475853 
L 145.061258 842.722244 
L 147.321654 836.205648 
L 149.582049 835.135153 
L 151.842445 840.30893 
L 154.102841 837.381749 
L 156.363236 843.787897 
L 158.623632 833.065021 
L 160.884027 839.808125 
L 163.144423 837.975216 
L 165.404818 842.767408 
L 167.665214 842.549307 
L 169.925609 839.436819 
L 172.186005 835.036377 
L 174.4464 841.864456 
L 176.706796 844.527913 
L 178.967191 844.044954 
L 181.227587 842.384353 
L 183.487982 837.021636 
L 185.748378 847.92507 
L 188.008773 848.021233 
L 190.269169 843.570455 
L 192.529564 843.544879 
L 194.78996 845.106689 
L 197.050356 847.864756 
L 201.571147 847.387522 
L 203.831542 844.317705 
L 206.091938 848.50668 
L 208.352333 837.442483 
L 210.612729 847.527515 
L 212.873124 837.206272 
L 215.13352 840.656394 
L 217.393915 848.638824 
L 219.654311 846.719538 
L 221.914706 841.850345 
L 224.175102 834.662555 
L 226.435497 836.96275 
L 228.695893 839.659144 
L 230.956288 837.60362 
L 233.216684 845.865693 
L 235.477079 845.984268 
L 237.737475 831.689941 
L 239.997871 797.674737 
L 242.258266 805.003915 
L 244.518662 834.49104 
L 246.779057 840.266938 
L 249.039453 830.079506 
L 251.299848 843.239029 
L 253.560244 832.923477 
L 255.820639 848.972523 
L 258.081035 844.022462 
L 260.34143 847.64342 
L 262.601826 848.660674 
L 264.862221 848.817742 
L 267.122617 835.195054 
L 269.383012 848.426806 
L 271.643408 842.941265 
L 273.903803 842.89433 
L 276.164199 847.692534 
L 278.424595 841.808793 
L 280.68499 838.00567 
L 282.945386 841.585012 
L 285.205781 846.650813 
L 287.466177 846.038604 
L 289.726572 841.739742 
L 291.986968 836.876332 
L 294.247363 844.357021 
L 296.507759 847.536897 
L 298.768154 842.815816 
L 301.02855 847.493561 
L 303.288945 847.506786 
L 305.549341 842.084911 
L 307.809736 840.290053 
L 310.070132 835.62957 
L 312.330527 829.646738 
L 314.590923 838.83454 
L 316.851318 846.657759 
L 319.111714 842.721674 
L 321.37211 848.338454 
L 323.632505 848.395042 
L 325.892901 848.252679 
L 328.153296 838.829972 
L 330.413692 839.795556 
L 332.674087 848.848464 
L 334.934483 847.833904 
L 337.194878 849.137007 
L 339.455274 848.73415 
L 341.715669 847.058438 
L 343.976065 848.70156 
L 346.23646 848.769191 
L 348.496856 844.3624 
L 350.757251 847.067353 
L 353.017647 845.128912 
L 355.278042 846.910841 
L 357.538438 844.695942 
L 359.798833 846.718827 
L 362.059229 844.862275 
L 364.319625 848.724185 
L 366.58002 848.583103 
L 368.840416 840.838249 
L 371.100811 847.069049 
L 373.361207 848.813429 
L 377.881998 848.234466 
L 380.142393 848.353255 
L 382.402789 848.662923 
L 384.663184 848.120259 
L 386.92358 848.891388 
L 389.183975 847.579017 
L 393.704766 846.245003 
L 395.965162 848.475508 
L 398.225557 848.751108 
L 400.485953 848.382328 
L 402.746348 848.933725 
L 405.006744 847.286699 
L 407.26714 848.908143 
L 409.527535 848.807636 
L 411.787931 846.202556 
L 414.048326 844.75651 
L 416.308722 846.566027 
L 418.569117 848.012953 
L 420.829513 841.297068 
L 423.089908 844.32671 
L 425.350304 832.484606 
L 427.610699 844.096362 
L 429.871095 843.574207 
L 432.13149 842.793024 
L 434.391886 843.965981 
L 436.652281 845.561344 
L 438.912677 846.957765 
L 441.173072 848.091078 
L 443.433468 848.324503 
L 445.693864 848.202137 
L 447.954259 844.440109 
L 450.214655 849.055036 
L 456.995841 849.11695 
L 459.256237 848.973572 
L 461.516632 849.156468 
L 468.297819 849.083185 
L 470.558214 849.170244 
L 472.81861 849.112862 
L 477.339401 849.122322 
L 479.599796 845.758593 
L 481.860192 849.16929 
L 484.120587 849.094613 
L 490.901774 849.175102 
L 502.203752 849.173358 
L 504.464147 848.988137 
L 506.724543 849.175573 
L 508.984938 848.76556 
L 511.245334 849.17367 
L 545.151267 849.17599 
L 547.411662 848.418739 
L 549.672058 849.175402 
L 551.932453 849.113508 
L 556.453244 849.175994 
L 732.764095 849.17599 
L 735.024491 849.028754 
L 737.284886 849.175994 
L 1087.646193 849.175994 
L 1087.646193 849.175994 
" clip-path="url(#p4805107e41)" style="fill: none; stroke-dasharray: 9.25,4; stroke-dashoffset: 0; stroke: #000000; stroke-width: 2.5"/>
   </g>
   <g id="line2d_24">
    <path d="M 95.332557 651.569877 
L 97.592952 650.739951 
L 99.853348 650.271765 
L 102.113743 649.480679 
L 104.374139 648.477918 
L 106.634534 648.594812 
L 108.89493 645.339154 
L 111.155326 639.114053 
L 113.415721 634.853479 
L 115.676117 633.359293 
L 117.936512 634.573354 
L 120.196908 632.508472 
L 122.457303 632.266531 
L 124.717699 631.303781 
L 126.978094 621.013851 
L 129.23849 601.163327 
L 131.498885 570.945989 
L 133.759281 595.655123 
L 136.019676 614.820234 
L 138.280072 517.277268 
L 140.540467 548.494508 
L 142.800863 617.624338 
L 145.061258 613.756988 
L 147.321654 599.584387 
L 149.582049 524.188508 
L 151.842445 493.91694 
L 154.102841 610.321561 
L 156.363236 685.564435 
L 158.623632 668.272033 
L 160.884027 583.90385 
L 163.144423 486.770623 
L 165.404818 551.425229 
L 167.665214 643.956545 
L 169.925609 698.077687 
L 172.186005 704.436655 
L 174.4464 657.862433 
L 176.706796 554.402941 
L 178.967191 523.392104 
L 181.227587 626.214312 
L 183.487982 637.046125 
L 185.748378 577.033019 
L 188.008773 587.9944 
L 190.269169 569.822047 
L 192.529564 637.699281 
L 194.78996 662.292926 
L 197.050356 644.775953 
L 199.310751 634.324409 
L 201.571147 623.056901 
L 203.831542 561.833178 
L 206.091938 513.44426 
L 208.352333 544.937315 
L 210.612729 610.261357 
L 212.873124 612.642744 
L 215.13352 664.244615 
L 217.393915 646.833082 
L 219.654311 588.128559 
L 221.914706 554.590112 
L 226.435497 613.273388 
L 228.695893 584.27421 
L 230.956288 591.352804 
L 233.216684 654.985568 
L 235.477079 623.496484 
L 237.737475 569.356367 
L 239.997871 583.251233 
L 242.258266 584.781166 
L 244.518662 580.720741 
L 249.039453 514.684393 
L 251.299848 553.454621 
L 253.560244 618.897877 
L 255.820639 628.603757 
L 258.081035 582.073295 
L 260.34143 591.581743 
L 262.601826 587.902173 
L 264.862221 607.332394 
L 267.122617 582.631295 
L 269.383012 507.732978 
L 271.643408 546.880079 
L 273.903803 661.98879 
L 276.164199 693.534259 
L 278.424595 619.364822 
L 280.68499 582.36129 
L 282.945386 557.007271 
L 285.205781 522.399346 
L 287.466177 582.742192 
L 289.726572 616.088783 
L 291.986968 610.077371 
L 294.247363 631.356091 
L 296.507759 600.690315 
L 298.768154 583.505496 
L 301.02855 589.562869 
L 303.288945 584.338373 
L 305.549341 585.030181 
L 307.809736 584.282433 
L 310.070132 603.703657 
L 312.330527 650.576018 
L 314.590923 644.604102 
L 316.851318 619.562699 
L 319.111714 589.05767 
L 321.37211 567.764192 
L 323.632505 595.959821 
L 325.892901 620.07605 
L 328.153296 616.513679 
L 330.413692 542.843501 
L 334.934483 581.244915 
L 337.194878 592.782405 
L 339.455274 571.226372 
L 341.715669 599.110672 
L 343.976065 567.005574 
L 346.23646 511.823458 
L 348.496856 560.527874 
L 350.757251 593.438793 
L 353.017647 594.009912 
L 355.278042 547.37476 
L 357.538438 563.44154 
L 359.798833 605.907033 
L 362.059229 581.834985 
L 364.319625 573.972403 
L 366.58002 622.440851 
L 368.840416 662.003267 
L 371.100811 597.395184 
L 373.361207 540.705343 
L 375.621602 518.662922 
L 377.881998 557.320168 
L 380.142393 552.866964 
L 382.402789 554.864451 
L 384.663184 548.662846 
L 386.92358 617.332946 
L 389.183975 608.693216 
L 391.444371 561.009459 
L 393.704766 524.720272 
L 395.965162 560.160207 
L 398.225557 590.337979 
L 400.485953 581.106305 
L 402.746348 546.865321 
L 405.006744 515.56513 
L 407.26714 519.88544 
L 409.527535 497.435177 
L 411.787931 518.487229 
L 414.048326 564.551497 
L 416.308722 592.685235 
L 418.569117 611.083224 
L 420.829513 593.0146 
L 423.089908 548.159333 
L 425.350304 549.867864 
L 427.610699 547.693583 
L 429.871095 570.271727 
L 432.13149 583.703138 
L 434.391886 586.98166 
L 436.652281 565.346682 
L 438.912677 534.480172 
L 441.173072 492.462555 
L 443.433468 470.144249 
L 445.693864 436.413547 
L 447.954259 359.506335 
L 450.214655 326.841058 
L 452.47505 357.004469 
L 454.735446 379.607655 
L 456.995841 502.318735 
L 459.256237 541.142935 
L 461.516632 518.81786 
L 463.777028 512.109978 
L 466.037423 519.917135 
L 468.297819 414.703397 
L 470.558214 239.829963 
L 472.81861 221.004547 
L 475.079005 183.204542 
L 477.339401 188.840674 
L 479.599796 248.683428 
L 481.860192 262.354157 
L 484.120587 309.409285 
L 486.380983 238.890732 
L 488.641379 239.01784 
L 490.901774 373.700394 
L 493.16217 449.262877 
L 495.422565 352.766384 
L 497.682961 365.205482 
L 499.943356 517.987348 
L 502.203752 490.006697 
L 504.464147 466.578411 
L 506.724543 626.592449 
L 508.984938 601.726036 
L 511.245334 256.868418 
L 513.505729 204.270626 
L 515.766125 140.774914 
L 518.02652 156.105401 
L 520.286916 153.957357 
L 522.547311 156.696103 
L 524.807707 128.586752 
L 527.068102 154.051247 
L 529.328498 161.141788 
L 531.588894 211.834085 
L 533.849289 164.203293 
L 538.37008 90.696042 
L 540.630476 79.367228 
L 542.890871 84.361777 
L 545.151267 79.074829 
L 547.411662 88.176982 
L 549.672058 72.674457 
L 551.932453 93.271277 
L 554.192849 68.364969 
L 556.453244 64.865262 
L 558.71364 65.934224 
L 560.974035 78.342822 
L 563.234431 66.306974 
L 565.494826 66.875422 
L 567.755222 75.22636 
L 570.015617 63.76505 
L 572.276013 71.408391 
L 574.536409 65.575436 
L 576.796804 65.523712 
L 579.0572 69.738653 
L 581.317595 79.210979 
L 583.577991 67.498499 
L 585.838386 67.525907 
L 588.098782 65.059133 
L 590.359177 64.996868 
L 592.619573 74.159646 
L 594.879968 69.379443 
L 597.140364 68.98397 
L 599.400759 67.149737 
L 601.661155 68.690493 
L 603.92155 69.613091 
L 606.181946 66.903767 
L 608.442341 65.03538 
L 610.702737 64.468618 
L 612.963133 63.504369 
L 615.223528 63.708594 
L 617.483924 66.227045 
L 619.744319 66.639151 
L 622.004715 66.052477 
L 624.26511 63.971524 
L 626.525506 64.229067 
L 628.785901 63.25704 
L 631.046297 63.875526 
L 633.306692 64.058387 
L 635.567088 74.80137 
L 637.827483 88.249555 
L 640.087879 68.864218 
L 642.348274 63.355756 
L 644.60867 63.704518 
L 646.869065 65.871115 
L 649.129461 68.334656 
L 651.389856 63.762333 
L 653.650252 65.654615 
L 658.171043 63.407293 
L 660.431439 63.18503 
L 662.691834 66.58738 
L 664.95223 77.914881 
L 667.212625 63.420271 
L 669.473021 63.196602 
L 671.733416 72.659558 
L 673.993812 65.562177 
L 676.254207 75.518619 
L 678.514603 65.272073 
L 680.774998 63.667037 
L 685.295789 63.213047 
L 687.556185 64.005913 
L 689.81658 67.418243 
L 692.076976 76.010559 
L 694.337371 64.163756 
L 696.597767 74.995007 
L 698.858163 67.682532 
L 701.118558 64.681886 
L 703.378954 65.842302 
L 705.639349 63.504884 
L 707.899745 66.642524 
L 710.16014 66.526379 
L 712.420536 63.177861 
L 714.680931 63.22237 
L 716.941327 67.067045 
L 719.201722 63.924298 
L 721.462118 69.216119 
L 723.722513 63.52489 
L 725.982909 67.194808 
L 728.243304 63.367141 
L 730.5037 68.434263 
L 732.764095 64.560587 
L 735.024491 69.808087 
L 737.284886 63.467028 
L 739.545282 63.196789 
L 741.805678 63.188075 
L 744.066073 64.253289 
L 746.326469 63.232959 
L 748.586864 63.267113 
L 750.84726 65.907519 
L 753.107655 64.585137 
L 755.368051 63.602288 
L 757.628446 63.642955 
L 759.888842 63.484317 
L 762.149237 63.188918 
L 764.409633 63.146284 
L 766.670028 64.029995 
L 768.930424 63.198242 
L 771.190819 63.147595 
L 773.451215 64.270811 
L 775.71161 75.431475 
L 777.972006 63.569352 
L 780.232402 69.041129 
L 782.492797 63.142817 
L 784.753193 65.023058 
L 787.013588 63.598353 
L 789.273984 63.223214 
L 791.534379 63.23324 
L 793.794775 63.388787 
L 796.05517 67.236928 
L 798.315566 63.161651 
L 802.836357 63.410198 
L 805.096752 63.628572 
L 807.357148 63.207097 
L 809.617543 63.248045 
L 811.877939 67.450758 
L 814.138334 63.26969 
L 816.39873 63.284683 
L 818.659125 76.153737 
L 820.919521 63.347464 
L 823.179917 63.324741 
L 825.440312 63.142067 
L 827.700708 63.220918 
L 829.961103 63.592309 
L 832.221499 63.229304 
L 834.481894 63.206581 
L 836.74229 63.553469 
L 839.002685 63.271564 
L 841.263081 63.152234 
L 843.523476 63.237644 
L 845.783872 63.881148 
L 848.044267 63.990031 
L 850.304663 63.153686 
L 852.565058 63.941258 
L 854.825454 63.142114 
L 863.867036 63.236988 
L 868.387827 63.142629 
L 872.908618 63.19515 
L 875.169014 63.684887 
L 877.429409 63.168444 
L 879.689805 64.250009 
L 881.9502 63.144597 
L 884.210596 63.843339 
L 886.470991 63.442759 
L 888.731387 63.165914 
L 890.991782 63.999729 
L 893.252178 63.913616 
L 895.512573 63.14188 
L 897.772969 63.143613 
L 902.29376 63.823849 
L 904.554155 63.427814 
L 906.814551 67.909199 
L 909.074947 63.148251 
L 911.335342 63.139818 
L 913.595738 63.351914 
L 915.856133 63.140708 
L 918.116529 63.446133 
L 920.376924 63.139771 
L 922.63732 63.514817 
L 924.897715 63.174348 
L 929.418506 63.152046 
L 931.678902 63.245093 
L 933.939297 63.169803 
L 936.199693 63.452317 
L 938.460088 63.141552 
L 940.720484 63.776154 
L 942.980879 63.82413 
L 945.241275 63.212906 
L 947.501671 63.148017 
L 949.762066 63.227711 
L 954.282857 63.139865 
L 958.803648 63.143519 
L 961.064044 63.638926 
L 963.324439 63.490548 
L 965.584835 63.168819 
L 967.84523 63.424956 
L 970.105626 63.411791 
L 972.366021 63.584813 
L 974.626417 63.288899 
L 976.886812 63.345402 
L 981.407603 63.169241 
L 983.667999 63.437371 
L 985.928394 64.463371 
L 988.18879 63.680577 
L 990.449186 64.070662 
L 992.709581 73.305826 
L 994.969977 74.882283 
L 997.230372 63.191964 
L 999.490768 63.396283 
L 1001.751163 63.151953 
L 1004.011559 63.141083 
L 1006.271954 63.660103 
L 1008.53235 63.140661 
L 1013.053141 63.140099 
L 1015.313536 64.388877 
L 1017.573932 63.143004 
L 1019.834327 64.008069 
L 1022.094723 63.177674 
L 1028.875909 63.146284 
L 1031.136305 63.50048 
L 1033.396701 63.139818 
L 1044.698678 63.151953 
L 1046.959074 63.601633 
L 1049.219469 63.63054 
L 1051.479865 63.180954 
L 1056.000656 63.14113 
L 1058.261051 66.539826 
L 1060.521447 63.139959 
L 1062.781842 63.278311 
L 1065.042238 63.163993 
L 1067.302633 64.413708 
L 1069.563029 63.201849 
L 1074.08382 63.140802 
L 1078.604611 63.200163 
L 1083.125402 63.142161 
L 1085.385798 65.820937 
L 1087.646193 63.139818 
L 1087.646193 63.139818 
" clip-path="url(#p4805107e41)" style="fill: none; stroke: #1f77b4; stroke-width: 2; stroke-linecap: square"/>
   </g>
   <g id="line2d_25">
    <path d="M 95.332557 656.751422 
L 97.592952 657.663232 
L 99.853348 657.55285 
L 102.113743 656.050208 
L 104.374139 655.508664 
L 106.634534 657.613851 
L 108.89493 659.266019 
L 111.155326 664.077367 
L 113.415721 664.800472 
L 115.676117 658.261619 
L 117.936512 652.463568 
L 120.196908 649.028258 
L 124.717699 633.224338 
L 126.978094 628.87573 
L 129.23849 633.34149 
L 131.498885 623.597894 
L 133.759281 615.273264 
L 136.019676 626.361776 
L 138.280072 652.523257 
L 140.540467 571.935491 
L 142.800863 554.658 
L 145.061258 568.730526 
L 147.321654 664.08771 
L 149.582049 692.676867 
L 151.842445 674.730923 
L 154.102841 606.718359 
L 156.363236 575.54722 
L 158.623632 560.509227 
L 160.884027 640.132556 
L 163.144423 671.234495 
L 165.404818 634.472272 
L 167.665214 579.597174 
L 169.925609 510.806197 
L 172.186005 455.415733 
L 174.4464 599.711753 
L 176.706796 640.028827 
L 178.967191 648.392508 
L 181.227587 578.186314 
L 183.487982 544.548565 
L 185.748378 545.379311 
L 188.008773 520.808178 
L 190.269169 575.909054 
L 192.529564 602.213829 
L 194.78996 573.36535 
L 197.050356 560.143926 
L 199.310751 582.773302 
L 201.571147 603.687751 
L 203.831542 598.803983 
L 206.091938 576.263602 
L 208.352333 598.372692 
L 210.612729 606.812062 
L 212.873124 606.529524 
L 215.13352 502.816039 
L 217.393915 554.7045 
L 219.654311 574.129449 
L 221.914706 619.834882 
L 224.175102 616.462985 
L 226.435497 605.433342 
L 228.695893 599.746774 
L 233.216684 582.833529 
L 235.477079 553.853421 
L 237.737475 604.076126 
L 239.997871 620.481525 
L 242.258266 618.894902 
L 244.518662 606.614887 
L 246.779057 637.747257 
L 249.039453 649.066231 
L 251.299848 669.93554 
L 253.560244 648.758956 
L 255.820639 554.00283 
L 258.081035 566.438719 
L 260.34143 568.307973 
L 262.601826 565.089023 
L 264.862221 607.910891 
L 267.122617 624.555514 
L 269.383012 616.095389 
L 271.643408 600.444626 
L 273.903803 495.416584 
L 276.164199 534.905629 
L 278.424595 626.244015 
L 280.68499 614.480444 
L 282.945386 613.851019 
L 285.205781 609.222591 
L 287.466177 579.35528 
L 289.726572 600.877299 
L 291.986968 591.074553 
L 294.247363 593.226486 
L 296.507759 601.052429 
L 298.768154 615.585529 
L 301.02855 621.716294 
L 303.288945 600.308663 
L 305.549341 572.967839 
L 307.809736 576.175966 
L 310.070132 579.616196 
L 312.330527 568.0628 
L 314.590923 582.099578 
L 316.851318 602.939581 
L 319.111714 584.881826 
L 321.37211 543.400237 
L 323.632505 572.600172 
L 325.892901 571.264134 
L 328.153296 590.826686 
L 330.413692 614.874207 
L 332.674087 604.284287 
L 334.934483 586.366946 
L 337.194878 547.97249 
L 339.455274 597.4794 
L 341.715669 574.660018 
L 343.976065 586.734308 
L 346.23646 627.833543 
L 348.496856 629.146461 
L 350.757251 608.0086 
L 353.017647 603.507233 
L 355.278042 593.587851 
L 357.538438 595.562005 
L 359.798833 597.372906 
L 362.059229 623.953871 
L 364.319625 632.31952 
L 366.58002 588.354524 
L 368.840416 554.543355 
L 371.100811 571.134402 
L 373.361207 621.661431 
L 375.621602 639.035226 
L 377.881998 641.64164 
L 380.142393 593.235575 
L 382.402789 571.977095 
L 384.663184 596.890969 
L 386.92358 574.127903 
L 389.183975 565.932887 
L 391.444371 606.537067 
L 393.704766 627.811992 
L 395.965162 631.999572 
L 398.225557 596.672829 
L 400.485953 577.712412 
L 402.746348 585.435915 
L 405.006744 621.828831 
L 407.26714 599.760502 
L 409.527535 621.871771 
L 411.787931 627.766944 
L 414.048326 623.89683 
L 416.308722 622.677943 
L 418.569117 598.367632 
L 420.829513 596.560854 
L 423.089908 599.040067 
L 425.350304 621.707088 
L 427.610699 615.53186 
L 429.871095 597.960798 
L 432.13149 605.23769 
L 434.391886 621.303814 
L 436.652281 647.310428 
L 441.173072 688.633847 
L 443.433468 703.630389 
L 445.693864 725.039566 
L 447.954259 753.84479 
L 450.214655 780.96799 
L 452.47505 795.956285 
L 454.735446 807.385642 
L 456.995841 805.743383 
L 459.256237 799.64471 
L 461.516632 801.221805 
L 466.037423 820.544191 
L 468.297819 833.949999 
L 470.558214 831.107297 
L 472.81861 832.803106 
L 475.079005 832.101365 
L 477.339401 829.851734 
L 479.599796 826.473563 
L 481.860192 830.167717 
L 484.120587 836.250417 
L 486.380983 833.527099 
L 488.641379 841.36857 
L 490.901774 843.212461 
L 493.16217 825.832672 
L 495.422565 841.495533 
L 497.682961 845.03855 
L 499.943356 832.305725 
L 502.203752 843.978476 
L 504.464147 840.095184 
L 506.724543 845.562981 
L 508.984938 835.245508 
L 511.245334 841.488473 
L 513.505729 844.517759 
L 515.766125 844.372679 
L 518.02652 841.198761 
L 520.286916 841.44121 
L 522.547311 845.446042 
L 524.807707 846.915509 
L 527.068102 836.640142 
L 529.328498 842.015751 
L 531.588894 845.701183 
L 533.849289 840.934976 
L 536.109685 837.3428 
L 538.37008 845.177026 
L 540.630476 848.083501 
L 542.890871 843.369769 
L 545.151267 844.589022 
L 547.411662 835.018554 
L 549.672058 843.185475 
L 551.932453 821.093269 
L 554.192849 844.522343 
L 556.453244 847.988885 
L 558.71364 846.446388 
L 560.974035 835.661007 
L 563.234431 847.870227 
L 565.494826 846.122284 
L 567.755222 840.399459 
L 570.015617 848.611408 
L 572.276013 841.013647 
L 574.536409 847.012686 
L 576.796804 847.823833 
L 579.0572 844.77304 
L 581.317595 833.43217 
L 583.577991 845.582848 
L 585.838386 846.288579 
L 588.098782 847.608021 
L 590.359177 848.455323 
L 592.619573 839.193533 
L 594.879968 845.513443 
L 597.140364 846.043349 
L 599.400759 847.906283 
L 601.661155 845.522058 
L 603.92155 844.947543 
L 606.181946 845.906942 
L 608.442341 847.812004 
L 612.963133 849.074811 
L 615.223528 848.982369 
L 617.483924 846.987623 
L 619.744319 846.584425 
L 622.004715 846.411293 
L 624.26511 848.911881 
L 626.525506 848.218806 
L 628.785901 849.138552 
L 631.046297 848.674903 
L 633.306692 848.568301 
L 635.567088 837.625829 
L 637.827483 828.241688 
L 640.087879 843.594623 
L 642.348274 849.049607 
L 644.60867 848.870132 
L 646.869065 846.809109 
L 649.129461 845.384614 
L 651.389856 848.774561 
L 653.650252 847.236215 
L 655.910648 847.892859 
L 658.171043 848.953192 
L 660.431439 849.169704 
L 662.691834 846.957522 
L 664.95223 834.537892 
L 667.212625 849.011266 
L 669.473021 849.158227 
L 671.733416 842.963838 
L 673.993812 846.839171 
L 676.254207 836.850372 
L 678.514603 847.603189 
L 680.774998 848.834288 
L 683.035394 849.048177 
L 685.295789 849.140263 
L 687.556185 848.653034 
L 689.81658 845.093029 
L 692.076976 836.317065 
L 694.337371 848.562614 
L 696.597767 837.510744 
L 698.858163 846.020175 
L 701.118558 847.917738 
L 703.378954 847.488257 
L 705.639349 849.046947 
L 707.899745 846.79019 
L 710.16014 846.341793 
L 712.420536 849.169472 
L 714.680931 849.150211 
L 716.941327 845.299218 
L 719.201722 848.4222 
L 721.462118 843.303483 
L 723.722513 849.088488 
L 725.982909 846.358422 
L 728.243304 849.112081 
L 730.5037 845.679693 
L 732.764095 848.188426 
L 735.024491 844.722572 
L 737.284886 849.07033 
L 741.805678 849.16172 
L 744.066073 848.570225 
L 746.326469 849.137223 
L 748.586864 849.123266 
L 750.84726 846.528033 
L 753.107655 848.137044 
L 755.368051 848.899002 
L 757.628446 848.793413 
L 759.888842 848.918761 
L 762.149237 849.156068 
L 764.409633 849.173902 
L 766.670028 848.561028 
L 768.930424 849.152469 
L 771.190819 849.173975 
L 773.451215 848.455338 
L 775.71161 836.943834 
L 777.972006 848.960452 
L 780.232402 844.983288 
L 782.492797 849.175538 
L 784.753193 847.435932 
L 787.013588 848.815348 
L 789.273984 849.141691 
L 793.794775 849.027005 
L 796.05517 846.211445 
L 798.315566 849.166226 
L 805.096752 848.917869 
L 807.357148 849.13296 
L 809.617543 849.100977 
L 811.877939 845.854045 
L 814.138334 849.094533 
L 816.39873 849.047407 
L 818.659125 836.383642 
L 820.919521 848.97401 
L 827.700708 849.113844 
L 829.961103 848.876803 
L 832.221499 849.120746 
L 834.481894 849.122528 
L 836.74229 848.921024 
L 841.263081 849.171864 
L 843.523476 849.087692 
L 845.783872 848.694026 
L 848.044267 848.618699 
L 850.304663 849.168887 
L 852.565058 848.557905 
L 854.825454 849.175664 
L 872.908618 849.150748 
L 875.169014 848.817189 
L 877.429409 849.166042 
L 879.689805 848.460034 
L 881.9502 849.174067 
L 884.210596 848.6927 
L 886.470991 849.015228 
L 888.731387 849.168122 
L 890.991782 848.510433 
L 893.252178 848.628705 
L 895.512573 849.174919 
L 897.772969 849.17462 
L 900.033364 848.930545 
L 902.29376 848.49365 
L 904.554155 848.972465 
L 906.814551 844.414885 
L 909.074947 849.172528 
L 915.856133 849.175771 
L 918.116529 849.026288 
L 920.376924 849.17597 
L 922.63732 848.828212 
L 924.897715 849.153497 
L 933.939297 849.167189 
L 936.199693 848.983321 
L 938.460088 849.17495 
L 940.720484 848.795599 
L 942.980879 848.690221 
L 945.241275 849.143383 
L 954.282857 849.175947 
L 958.803648 849.173258 
L 961.064044 848.84541 
L 963.324439 848.849932 
L 965.584835 849.165173 
L 967.84523 849.029479 
L 970.105626 849.033886 
L 972.366021 848.86089 
L 974.626417 849.076093 
L 976.886812 848.976141 
L 981.407603 849.16166 
L 983.667999 848.943233 
L 985.928394 847.862813 
L 988.18879 848.848193 
L 990.449186 848.546132 
L 992.709581 839.010302 
L 994.969977 837.43888 
L 997.230372 849.126994 
L 999.490768 848.991085 
L 1001.751163 849.167594 
L 1004.011559 849.175637 
L 1006.271954 848.664038 
L 1008.53235 849.175648 
L 1013.053141 849.175755 
L 1015.313536 848.319953 
L 1017.573932 849.174656 
L 1019.834327 848.660174 
L 1022.094723 849.154612 
L 1028.875909 849.173331 
L 1031.136305 848.929793 
L 1033.396701 849.175893 
L 1044.698678 849.168175 
L 1046.959074 848.716495 
L 1049.219469 848.724639 
L 1051.479865 849.155261 
L 1056.000656 849.175214 
L 1058.261051 846.915882 
L 1060.521447 849.175819 
L 1062.781842 849.085086 
L 1065.042238 849.162442 
L 1067.302633 848.08708 
L 1069.563029 849.133272 
L 1074.08382 849.175095 
L 1078.604611 849.136568 
L 1083.125402 849.174763 
L 1085.385798 846.494681 
L 1087.646193 849.175957 
L 1087.646193 849.175957 
" clip-path="url(#p4805107e41)" style="fill: none; stroke: #ff7f0e; stroke-width: 2; stroke-linecap: square"/>
   </g>
   <g id="line2d_26">
    <path d="M 95.332557 650.428483 
L 99.853348 646.878832 
L 102.113743 646.521637 
L 104.374139 644.912502 
L 106.634534 639.98741 
L 108.89493 632.983943 
L 113.415721 609.535347 
L 115.676117 612.894219 
L 117.936512 618.973472 
L 120.196908 619.184982 
L 122.457303 622.692139 
L 124.717699 621.493469 
L 126.978094 625.280399 
L 129.23849 621.248249 
L 131.498885 608.277551 
L 133.759281 566.961838 
L 136.019676 531.019773 
L 138.280072 595.793475 
L 140.540467 646.060221 
L 142.800863 600.909439 
L 145.061258 585.457818 
L 147.321654 510.789893 
L 149.582049 558.667146 
L 151.842445 601.710856 
L 154.102841 556.245935 
L 156.363236 505.76803 
L 158.623632 548.821321 
L 160.884027 546.823061 
L 163.144423 614.68727 
L 165.404818 582.002713 
L 167.665214 544.564565 
L 169.925609 562.34688 
L 172.186005 615.778814 
L 174.4464 511.228984 
L 176.706796 571.707934 
L 178.967191 594.838034 
L 181.227587 563.882623 
L 183.487982 592.051335 
L 185.748378 640.330222 
L 188.008773 653.843799 
L 190.269169 621.36601 
L 192.529564 527.209605 
L 194.78996 529.902601 
L 197.050356 557.88297 
L 199.310751 545.92103 
L 201.571147 536.535426 
L 206.091938 672.453089 
L 208.352333 629.915175 
L 210.612729 546.066668 
L 212.873124 554.289068 
L 215.13352 602.950568 
L 217.393915 560.491189 
L 219.654311 601.690077 
L 221.914706 594.392313 
L 224.175102 575.366303 
L 226.435497 554.998141 
L 228.695893 586.987493 
L 230.956288 590.277142 
L 233.216684 526.98282 
L 235.477079 587.333397 
L 237.737475 605.545199 
L 239.997871 609.260095 
L 242.258266 601.987607 
L 244.518662 588.840912 
L 246.779057 585.287841 
L 249.039453 616.837445 
L 251.299848 544.0384 
L 253.560244 510.087309 
L 255.820639 579.088485 
L 258.081035 618.133121 
L 260.34143 603.13446 
L 262.601826 609.015765 
L 264.862221 546.606584 
L 267.122617 568.285742 
L 269.383012 638.41243 
L 271.643408 620.40169 
L 273.903803 610.367874 
L 276.164199 534.535152 
L 278.424595 523.250004 
L 280.68499 575.820176 
L 282.945386 598.224267 
L 285.205781 632.394857 
L 287.466177 602.531529 
L 289.726572 551.961748 
L 291.986968 572.639387 
L 294.247363 541.727992 
L 296.507759 561.387972 
L 298.768154 568.760792 
L 301.02855 551.894914 
L 303.288945 578.513782 
L 305.549341 610.584678 
L 307.809736 609.919201 
L 310.070132 591.718221 
L 312.330527 562.382089 
L 314.590923 545.129358 
L 316.851318 541.507603 
L 319.111714 594.006468 
L 321.37211 651.16473 
L 323.632505 593.712546 
L 325.892901 571.074737 
L 328.153296 564.497266 
L 330.413692 613.154338 
L 332.674087 595.144887 
L 334.934483 595.221864 
L 337.194878 620.775705 
L 339.455274 593.227704 
L 341.715669 589.838472 
L 343.976065 608.226178 
L 346.23646 622.241428 
L 348.496856 576.630823 
L 350.757251 562.152868 
L 353.017647 568.021571 
L 355.278042 622.794158 
L 357.538438 606.968147 
L 359.798833 560.668826 
L 362.059229 560.016467 
L 366.58002 551.289125 
L 368.840416 553.282723 
L 371.100811 595.068965 
L 373.361207 599.487405 
L 375.621602 604.439834 
L 377.881998 563.471337 
L 380.142393 616.211791 
L 382.402789 635.16312 
L 384.663184 616.993507 
L 386.92358 570.315416 
L 389.183975 588.462516 
L 391.444371 596.183607 
L 393.704766 611.890357 
L 395.965162 570.032316 
L 398.225557 574.905731 
L 400.485953 603.466589 
L 402.746348 629.432723 
L 405.006744 625.986988 
L 407.26714 642.113528 
L 409.527535 642.553041 
L 411.787931 618.210918 
L 414.048326 577.462764 
L 416.308722 548.738417 
L 418.569117 553.203849 
L 420.829513 579.795121 
L 423.089908 619.141528 
L 425.350304 606.608024 
L 427.610699 603.345806 
L 429.871095 598.860861 
L 434.391886 558.416186 
L 436.652281 552.449143 
L 438.912677 561.152989 
L 441.173072 581.480109 
L 443.433468 588.568471 
L 445.693864 601.012371 
L 447.954259 652.876388 
L 450.214655 653.803577 
L 452.47505 608.626336 
L 454.735446 574.574585 
L 456.995841 453.4885 
L 459.256237 420.906384 
L 461.516632 441.471486 
L 463.777028 438.629807 
L 466.037423 421.0423 
L 468.297819 512.931049 
L 470.558214 690.560143 
L 472.81861 707.747082 
L 475.079005 746.188776 
L 477.339401 742.852873 
L 479.599796 689.752026 
L 481.860192 668.976468 
L 484.120587 615.913278 
L 486.380983 689.103275 
L 488.641379 681.11273 
L 490.901774 544.579651 
L 493.16217 486.398693 
L 495.422565 567.237559 
L 497.682961 551.248224 
L 499.943356 411.22749 
L 502.203752 427.509107 
L 504.464147 455.005877 
L 506.724543 289.336591 
L 508.984938 324.930504 
L 511.245334 663.137071 
L 513.505729 712.703599 
L 515.766125 776.350864 
L 518.02652 764.197278 
L 520.286916 766.093554 
L 522.547311 759.350183 
L 524.807707 785.989501 
L 527.068102 770.800318 
L 529.328498 758.334655 
L 531.588894 703.957084 
L 533.849289 756.3593 
L 536.109685 797.635587 
L 538.37008 825.620068 
L 540.630476 834.040934 
L 542.890871 833.760084 
L 545.151267 837.827798 
L 547.411662 839.053354 
L 549.672058 845.632297 
L 551.932453 847.189541 
L 554.192849 848.604242 
L 556.453244 848.637458 
L 558.71364 849.110965 
L 560.974035 847.487774 
L 563.234431 847.314439 
L 565.494826 848.493882 
L 567.755222 845.901374 
L 570.015617 849.115099 
L 572.276013 849.069568 
L 574.536409 848.903498 
L 576.796804 848.144116 
L 579.0572 847.005818 
L 581.317595 848.848427 
L 583.577991 848.410208 
L 585.838386 847.677177 
L 588.098782 848.824445 
L 590.359177 848.039419 
L 592.619573 848.138432 
L 594.879968 846.599925 
L 599.400759 846.435613 
L 601.661155 847.2803 
L 603.92155 846.971716 
L 606.181946 848.68088 
L 610.702737 848.553056 
L 612.963133 848.912367 
L 615.223528 848.800678 
L 617.483924 848.276988 
L 619.744319 848.268078 
L 622.004715 849.027868 
L 624.26511 848.608173 
L 626.525506 849.043721 
L 628.785901 849.096008 
L 633.306692 848.864892 
L 635.567088 849.064401 
L 637.827483 845.025026 
L 640.087879 849.032721 
L 642.348274 849.086269 
L 646.869065 848.811385 
L 649.129461 847.776472 
L 651.389856 848.954724 
L 653.650252 848.600793 
L 655.910648 849.034435 
L 660.431439 849.13688 
L 662.691834 847.947234 
L 664.95223 849.038802 
L 669.473021 849.136766 
L 671.733416 845.959674 
L 673.993812 849.090238 
L 676.254207 849.122651 
L 678.514603 848.616375 
L 680.774998 848.99032 
L 685.295789 849.138319 
L 687.556185 848.832692 
L 692.076976 849.163983 
L 694.337371 848.765268 
L 696.597767 848.985842 
L 698.858163 847.798021 
L 701.118558 848.891995 
L 703.378954 848.161125 
L 705.639349 848.939752 
L 707.899745 848.062231 
L 712.420536 849.144243 
L 721.462118 848.97202 
L 723.722513 848.878215 
L 725.982909 847.942988 
L 728.243304 849.012396 
L 730.5037 847.379383 
L 732.764095 848.742598 
L 735.024491 847.108196 
L 737.284886 848.954305 
L 739.545282 849.1292 
L 741.805678 849.14187 
L 744.066073 848.668101 
L 746.326469 849.121427 
L 750.84726 849.056064 
L 753.107655 848.769461 
L 755.368051 848.990308 
L 764.409633 849.17142 
L 766.670028 848.900642 
L 768.930424 849.140912 
L 771.190819 849.170047 
L 773.451215 848.765457 
L 775.71161 849.116278 
L 777.972006 848.961851 
L 780.232402 847.540363 
L 782.492797 849.173263 
L 784.753193 849.032657 
L 791.534379 849.161598 
L 793.794775 849.075812 
L 796.05517 848.046189 
L 798.315566 849.163758 
L 805.096752 848.945207 
L 807.357148 849.151534 
L 809.617543 849.14256 
L 811.877939 848.187944 
L 814.138334 849.127381 
L 816.39873 849.159471 
L 818.659125 848.95425 
L 820.919521 849.170143 
L 823.179917 849.112927 
L 827.700708 849.156808 
L 829.961103 849.022514 
L 834.481894 849.162468 
L 836.74229 849.017098 
L 839.002685 849.175392 
L 843.523476 849.166318 
L 845.783872 848.916474 
L 848.044267 848.882884 
L 850.304663 849.168989 
L 852.565058 848.992491 
L 854.825454 849.173846 
L 875.169014 848.989573 
L 877.429409 849.157144 
L 879.689805 848.781619 
L 881.9502 849.172939 
L 884.210596 848.955562 
L 888.731387 849.157602 
L 890.991782 848.981485 
L 893.252178 848.94931 
L 895.512573 849.17481 
L 915.856133 849.175148 
L 918.116529 849.019238 
L 920.376924 849.175866 
L 931.678902 849.126885 
L 933.939297 849.154571 
L 936.199693 849.056004 
L 938.460088 849.175104 
L 940.720484 848.919895 
L 954.282857 849.175793 
L 958.803648 849.174817 
L 961.064044 849.007316 
L 963.324439 849.151156 
L 965.584835 849.157608 
L 967.84523 849.037162 
L 985.928394 849.165414 
L 988.18879 848.962816 
L 990.449186 848.874868 
L 992.709581 849.175474 
L 1013.053141 849.175731 
L 1015.313536 848.782991 
L 1017.573932 849.173935 
L 1019.834327 848.823377 
L 1022.094723 849.159275 
L 1028.875909 849.171999 
L 1031.136305 849.061357 
L 1033.396701 849.175868 
L 1056.000656 849.17527 
L 1058.261051 848.047492 
L 1060.521447 849.175835 
L 1067.302633 848.990853 
L 1069.563029 849.156498 
L 1083.125402 849.17463 
L 1087.646193 849.17585 
L 1087.646193 849.17585 
" clip-path="url(#p4805107e41)" style="fill: none; stroke: #2ca02c; stroke-width: 2; stroke-linecap: square"/>
   </g>
   <g id="patch_3">
    <path d="M 45.716875 888.477813 
L 45.716875 23.837812 
" style="fill: none; stroke: #000000; stroke-width: 0.8; stroke-linejoin: miter; stroke-linecap: square"/>
   </g>
   <g id="patch_4">
    <path d="M 1137.261875 888.477813 
L 1137.261875 23.837812 
" style="fill: none; stroke: #000000; stroke-width: 0.8; stroke-linejoin: miter; stroke-linecap: square"/>
   </g>
   <g id="patch_5">
    <path d="M 45.716875 888.477813 
L 1137.261875 888.477813 
" style="fill: none; stroke: #000000; stroke-width: 0.8; stroke-linejoin: miter; stroke-linecap: square"/>
   </g>
   <g id="patch_6">
    <path d="M 45.716875 23.837812 
L 1137.261875 23.837812 
" style="fill: none; stroke: #000000; stroke-width: 0.8; stroke-linejoin: miter; stroke-linecap: square"/>
   </g>
   <g id="text_14">
    <!-- Link 1: Evolucin de Probabilidades de Accin -->
    <g transform="translate(410.401562 17.837812) scale(0.14 -0.14)">
     <defs>
      <path id="DejaVuSans-Bold-4c" d="M 588 4666 
L 1791 4666 
L 1791 909 
L 3903 909 
L 3903 0 
L 588 0 
L 588 4666 
z
" transform="scale(0.015625)"/>
      <path id="DejaVuSans-Bold-69" d="M 538 3500 
L 1656 3500 
L 1656 0 
L 538 0 
L 538 3500 
z
M 538 4863 
L 1656 4863 
L 1656 3950 
L 538 3950 
L 538 4863 
z
" transform="scale(0.015625)"/>
      <path id="DejaVuSans-Bold-6e" d="M 4056 2131 
L 4056 0 
L 2931 0 
L 2931 347 
L 2931 1631 
Q 2931 2084 2911 2256 
Q 2891 2428 2841 2509 
Q 2775 2619 2662 2680 
Q 2550 2741 2406 2741 
Q 2056 2741 1856 2470 
Q 1656 2200 1656 1722 
L 1656 0 
L 538 0 
L 538 3500 
L 1656 3500 
L 1656 2988 
Q 1909 3294 2193 3439 
Q 2478 3584 2822 3584 
Q 3428 3584 3742 3212 
Q 4056 2841 4056 2131 
z
" transform="scale(0.015625)"/>
      <path id="DejaVuSans-Bold-6b" d="M 538 4863 
L 1656 4863 
L 1656 2216 
L 2944 3500 
L 4244 3500 
L 2534 1894 
L 4378 0 
L 3022 0 
L 1656 1459 
L 1656 0 
L 538 0 
L 538 4863 
z
" transform="scale(0.015625)"/>
      <path id="DejaVuSans-Bold-20" transform="scale(0.015625)"/>
      <path id="DejaVuSans-Bold-31" d="M 750 831 
L 1813 831 
L 1813 3847 
L 722 3622 
L 722 4441 
L 1806 4666 
L 2950 4666 
L 2950 831 
L 4013 831 
L 4013 0 
L 750 0 
L 750 831 
z
" transform="scale(0.015625)"/>
      <path id="DejaVuSans-Bold-3a" d="M 716 3500 
L 1844 3500 
L 1844 2291 
L 716 2291 
L 716 3500 
z
M 716 1209 
L 1844 1209 
L 1844 0 
L 716 0 
L 716 1209 
z
" transform="scale(0.015625)"/>
      <path id="DejaVuSans-Bold-45" d="M 588 4666 
L 3834 4666 
L 3834 3756 
L 1791 3756 
L 1791 2888 
L 3713 2888 
L 3713 1978 
L 1791 1978 
L 1791 909 
L 3903 909 
L 3903 0 
L 588 0 
L 588 4666 
z
" transform="scale(0.015625)"/>
      <path id="DejaVuSans-Bold-76" d="M 97 3500 
L 1216 3500 
L 2088 1081 
L 2956 3500 
L 4078 3500 
L 2700 0 
L 1472 0 
L 97 3500 
z
" transform="scale(0.015625)"/>
      <path id="DejaVuSans-Bold-6f" d="M 2203 2784 
Q 1831 2784 1636 2517 
Q 1441 2250 1441 1747 
Q 1441 1244 1636 976 
Q 1831 709 2203 709 
Q 2569 709 2762 976 
Q 2956 1244 2956 1747 
Q 2956 2250 2762 2517 
Q 2569 2784 2203 2784 
z
M 2203 3584 
Q 3106 3584 3614 3096 
Q 4122 2609 4122 1747 
Q 4122 884 3614 396 
Q 3106 -91 2203 -91 
Q 1297 -91 786 396 
Q 275 884 275 1747 
Q 275 2609 786 3096 
Q 1297 3584 2203 3584 
z
" transform="scale(0.015625)"/>
      <path id="DejaVuSans-Bold-6c" d="M 538 4863 
L 1656 4863 
L 1656 0 
L 538 0 
L 538 4863 
z
" transform="scale(0.015625)"/>
      <path id="DejaVuSans-Bold-75" d="M 500 1363 
L 500 3500 
L 1625 3500 
L 1625 3150 
Q 1625 2866 1622 2436 
Q 1619 2006 1619 1863 
Q 1619 1441 1641 1255 
Q 1663 1069 1716 984 
Q 1784 875 1895 815 
Q 2006 756 2150 756 
Q 2500 756 2700 1025 
Q 2900 1294 2900 1772 
L 2900 3500 
L 4019 3500 
L 4019 0 
L 2900 0 
L 2900 506 
Q 2647 200 2364 54 
Q 2081 -91 1741 -91 
Q 1134 -91 817 281 
Q 500 653 500 1363 
z
" transform="scale(0.015625)"/>
      <path id="DejaVuSans-Bold-63" d="M 3366 3391 
L 3366 2478 
Q 3138 2634 2908 2709 
Q 2678 2784 2431 2784 
Q 1963 2784 1702 2511 
Q 1441 2238 1441 1747 
Q 1441 1256 1702 982 
Q 1963 709 2431 709 
Q 2694 709 2930 787 
Q 3166 866 3366 1019 
L 3366 103 
Q 3103 6 2833 -42 
Q 2563 -91 2291 -91 
Q 1344 -91 809 395 
Q 275 881 275 1747 
Q 275 2613 809 3098 
Q 1344 3584 2291 3584 
Q 2566 3584 2833 3536 
Q 3100 3488 3366 3391 
z
" transform="scale(0.015625)"/>
      <path id="DejaVuSans-Bold-f3" d="M 2203 2784 
Q 1831 2784 1636 2517 
Q 1441 2250 1441 1747 
Q 1441 1244 1636 976 
Q 1831 709 2203 709 
Q 2569 709 2762 976 
Q 2956 1244 2956 1747 
Q 2956 2250 2762 2517 
Q 2569 2784 2203 2784 
z
M 2203 3584 
Q 3106 3584 3614 3096 
Q 4122 2609 4122 1747 
Q 4122 884 3614 396 
Q 3106 -91 2203 -91 
Q 1297 -91 786 396 
Q 275 884 275 1747 
Q 275 2609 786 3096 
Q 1297 3584 2203 3584 
z
M 2694 5119 
L 3578 5119 
L 2425 3944 
L 1813 3944 
L 2694 5119 
z
" transform="scale(0.015625)"/>
      <path id="DejaVuSans-Bold-64" d="M 2919 2988 
L 2919 4863 
L 4044 4863 
L 4044 0 
L 2919 0 
L 2919 506 
Q 2688 197 2409 53 
Q 2131 -91 1766 -91 
Q 1119 -91 703 423 
Q 288 938 288 1747 
Q 288 2556 703 3070 
Q 1119 3584 1766 3584 
Q 2128 3584 2408 3439 
Q 2688 3294 2919 2988 
z
M 2181 722 
Q 2541 722 2730 984 
Q 2919 1247 2919 1747 
Q 2919 2247 2730 2509 
Q 2541 2772 2181 2772 
Q 1825 2772 1636 2509 
Q 1447 2247 1447 1747 
Q 1447 1247 1636 984 
Q 1825 722 2181 722 
z
" transform="scale(0.015625)"/>
      <path id="DejaVuSans-Bold-65" d="M 4031 1759 
L 4031 1441 
L 1416 1441 
Q 1456 1047 1700 850 
Q 1944 653 2381 653 
Q 2734 653 3104 758 
Q 3475 863 3866 1075 
L 3866 213 
Q 3469 63 3072 -14 
Q 2675 -91 2278 -91 
Q 1328 -91 801 392 
Q 275 875 275 1747 
Q 275 2603 792 3093 
Q 1309 3584 2216 3584 
Q 3041 3584 3536 3087 
Q 4031 2591 4031 1759 
z
M 2881 2131 
Q 2881 2450 2695 2645 
Q 2509 2841 2209 2841 
Q 1884 2841 1681 2658 
Q 1478 2475 1428 2131 
L 2881 2131 
z
" transform="scale(0.015625)"/>
      <path id="DejaVuSans-Bold-50" d="M 588 4666 
L 2584 4666 
Q 3475 4666 3951 4270 
Q 4428 3875 4428 3144 
Q 4428 2409 3951 2014 
Q 3475 1619 2584 1619 
L 1791 1619 
L 1791 0 
L 588 0 
L 588 4666 
z
M 1791 3794 
L 1791 2491 
L 2456 2491 
Q 2806 2491 2997 2661 
Q 3188 2831 3188 3144 
Q 3188 3456 2997 3625 
Q 2806 3794 2456 3794 
L 1791 3794 
z
" transform="scale(0.015625)"/>
      <path id="DejaVuSans-Bold-72" d="M 3138 2547 
Q 2991 2616 2845 2648 
Q 2700 2681 2553 2681 
Q 2122 2681 1889 2404 
Q 1656 2128 1656 1613 
L 1656 0 
L 538 0 
L 538 3500 
L 1656 3500 
L 1656 2925 
Q 1872 3269 2151 3426 
Q 2431 3584 2822 3584 
Q 2878 3584 2943 3579 
Q 3009 3575 3134 3559 
L 3138 2547 
z
" transform="scale(0.015625)"/>
      <path id="DejaVuSans-Bold-62" d="M 2400 722 
Q 2759 722 2948 984 
Q 3138 1247 3138 1747 
Q 3138 2247 2948 2509 
Q 2759 2772 2400 2772 
Q 2041 2772 1848 2508 
Q 1656 2244 1656 1747 
Q 1656 1250 1848 986 
Q 2041 722 2400 722 
z
M 1656 2988 
Q 1888 3294 2169 3439 
Q 2450 3584 2816 3584 
Q 3463 3584 3878 3070 
Q 4294 2556 4294 1747 
Q 4294 938 3878 423 
Q 3463 -91 2816 -91 
Q 2450 -91 2169 54 
Q 1888 200 1656 506 
L 1656 0 
L 538 0 
L 538 4863 
L 1656 4863 
L 1656 2988 
z
" transform="scale(0.015625)"/>
      <path id="DejaVuSans-Bold-61" d="M 2106 1575 
Q 1756 1575 1579 1456 
Q 1403 1338 1403 1106 
Q 1403 894 1545 773 
Q 1688 653 1941 653 
Q 2256 653 2472 879 
Q 2688 1106 2688 1447 
L 2688 1575 
L 2106 1575 
z
M 3816 1997 
L 3816 0 
L 2688 0 
L 2688 519 
Q 2463 200 2181 54 
Q 1900 -91 1497 -91 
Q 953 -91 614 226 
Q 275 544 275 1050 
Q 275 1666 698 1953 
Q 1122 2241 2028 2241 
L 2688 2241 
L 2688 2328 
Q 2688 2594 2478 2717 
Q 2269 2841 1825 2841 
Q 1466 2841 1156 2769 
Q 847 2697 581 2553 
L 581 3406 
Q 941 3494 1303 3539 
Q 1666 3584 2028 3584 
Q 2975 3584 3395 3211 
Q 3816 2838 3816 1997 
z
" transform="scale(0.015625)"/>
      <path id="DejaVuSans-Bold-73" d="M 3272 3391 
L 3272 2541 
Q 2913 2691 2578 2766 
Q 2244 2841 1947 2841 
Q 1628 2841 1473 2761 
Q 1319 2681 1319 2516 
Q 1319 2381 1436 2309 
Q 1553 2238 1856 2203 
L 2053 2175 
Q 2913 2066 3209 1816 
Q 3506 1566 3506 1031 
Q 3506 472 3093 190 
Q 2681 -91 1863 -91 
Q 1516 -91 1145 -36 
Q 775 19 384 128 
L 384 978 
Q 719 816 1070 734 
Q 1422 653 1784 653 
Q 2113 653 2278 743 
Q 2444 834 2444 1013 
Q 2444 1163 2330 1236 
Q 2216 1309 1875 1350 
L 1678 1375 
Q 931 1469 631 1722 
Q 331 1975 331 2491 
Q 331 3047 712 3315 
Q 1094 3584 1881 3584 
Q 2191 3584 2531 3537 
Q 2872 3491 3272 3391 
z
" transform="scale(0.015625)"/>
      <path id="DejaVuSans-Bold-41" d="M 3419 850 
L 1538 850 
L 1241 0 
L 31 0 
L 1759 4666 
L 3194 4666 
L 4922 0 
L 3713 0 
L 3419 850 
z
M 1838 1716 
L 3116 1716 
L 2478 3572 
L 1838 1716 
z
" transform="scale(0.015625)"/>
     </defs>
     <use xlink:href="#DejaVuSans-Bold-4c"/>
     <use xlink:href="#DejaVuSans-Bold-69" transform="translate(63.720703 0)"/>
     <use xlink:href="#DejaVuSans-Bold-6e" transform="translate(97.998047 0)"/>
     <use xlink:href="#DejaVuSans-Bold-6b" transform="translate(169.189453 0)"/>
     <use xlink:href="#DejaVuSans-Bold-20" transform="translate(235.693359 0)"/>
     <use xlink:href="#DejaVuSans-Bold-31" transform="translate(270.507812 0)"/>
     <use xlink:href="#DejaVuSans-Bold-3a" transform="translate(340.087891 0)"/>
     <use xlink:href="#DejaVuSans-Bold-20" transform="translate(380.078125 0)"/>
     <use xlink:href="#DejaVuSans-Bold-45" transform="translate(414.892578 0)"/>
     <use xlink:href="#DejaVuSans-Bold-76" transform="translate(483.203125 0)"/>
     <use xlink:href="#DejaVuSans-Bold-6f" transform="translate(548.388672 0)"/>
     <use xlink:href="#DejaVuSans-Bold-6c" transform="translate(617.089844 0)"/>
     <use xlink:href="#DejaVuSans-Bold-75" transform="translate(651.367188 0)"/>
     <use xlink:href="#DejaVuSans-Bold-63" transform="translate(722.558594 0)"/>
     <use xlink:href="#DejaVuSans-Bold-69" transform="translate(781.835938 0)"/>
     <use xlink:href="#DejaVuSans-Bold-f3" transform="translate(816.113281 0)"/>
     <use xlink:href="#DejaVuSans-Bold-6e" transform="translate(884.814453 0)"/>
     <use xlink:href="#DejaVuSans-Bold-20" transform="translate(956.005859 0)"/>
     <use xlink:href="#DejaVuSans-Bold-64" transform="translate(990.820312 0)"/>
     <use xlink:href="#DejaVuSans-Bold-65" transform="translate(1062.402344 0)"/>
     <use xlink:href="#DejaVuSans-Bold-20" transform="translate(1130.224609 0)"/>
     <use xlink:href="#DejaVuSans-Bold-50" transform="translate(1165.039062 0)"/>
     <use xlink:href="#DejaVuSans-Bold-72" transform="translate(1238.330078 0)"/>
     <use xlink:href="#DejaVuSans-Bold-6f" transform="translate(1287.646484 0)"/>
     <use xlink:href="#DejaVuSans-Bold-62" transform="translate(1356.347656 0)"/>
     <use xlink:href="#DejaVuSans-Bold-61" transform="translate(1427.929688 0)"/>
     <use xlink:href="#DejaVuSans-Bold-62" transform="translate(1495.410156 0)"/>
     <use xlink:href="#DejaVuSans-Bold-69" transform="translate(1566.992188 0)"/>
     <use xlink:href="#DejaVuSans-Bold-6c" transform="translate(1601.269531 0)"/>
     <use xlink:href="#DejaVuSans-Bold-69" transform="translate(1635.546875 0)"/>
     <use xlink:href="#DejaVuSans-Bold-64" transform="translate(1669.824219 0)"/>
     <use xlink:href="#DejaVuSans-Bold-61" transform="translate(1741.40625 0)"/>
     <use xlink:href="#DejaVuSans-Bold-64" transform="translate(1808.886719 0)"/>
     <use xlink:href="#DejaVuSans-Bold-65" transform="translate(1880.46875 0)"/>
     <use xlink:href="#DejaVuSans-Bold-73" transform="translate(1948.291016 0)"/>
     <use xlink:href="#DejaVuSans-Bold-20" transform="translate(2007.8125 0)"/>
     <use xlink:href="#DejaVuSans-Bold-64" transform="translate(2042.626953 0)"/>
     <use xlink:href="#DejaVuSans-Bold-65" transform="translate(2114.208984 0)"/>
     <use xlink:href="#DejaVuSans-Bold-20" transform="translate(2182.03125 0)"/>
     <use xlink:href="#DejaVuSans-Bold-41" transform="translate(2216.845703 0)"/>
     <use xlink:href="#DejaVuSans-Bold-63" transform="translate(2294.238281 0)"/>
     <use xlink:href="#DejaVuSans-Bold-63" transform="translate(2353.515625 0)"/>
     <use xlink:href="#DejaVuSans-Bold-69" transform="translate(2412.792969 0)"/>
     <use xlink:href="#DejaVuSans-Bold-f3" transform="translate(2447.070312 0)"/>
     <use xlink:href="#DejaVuSans-Bold-6e" transform="translate(2515.771484 0)"/>
    </g>
   </g>
   <g id="legend_1">
    <g id="patch_7">
     <path d="M 53.416875 97.221562 
L 130.301719 97.221562 
Q 132.501719 97.221562 132.501719 95.021562 
L 132.501719 31.537812 
Q 132.501719 29.337812 130.301719 29.337812 
L 53.416875 29.337812 
Q 51.216875 29.337812 51.216875 31.537812 
L 51.216875 95.021562 
Q 51.216875 97.221562 53.416875 97.221562 
z
" style="fill: #ffffff; opacity: 0.8; stroke: #cccccc; stroke-linejoin: miter"/>
    </g>
    <g id="line2d_27">
     <path d="M 55.616875 38.246094 
L 66.616875 38.246094 
L 77.616875 38.246094 
" style="fill: none; stroke-dasharray: 9.25,4; stroke-dashoffset: 0; stroke: #000000; stroke-width: 2.5"/>
    </g>
    <g id="text_15">
     <!-- No TX -->
     <g transform="translate(86.416875 42.096094) scale(0.11 -0.11)">
      <defs>
       <path id="DejaVuSans-4e" d="M 628 4666 
L 1478 4666 
L 3547 763 
L 3547 4666 
L 4159 4666 
L 4159 0 
L 3309 0 
L 1241 3903 
L 1241 0 
L 628 0 
L 628 4666 
z
" transform="scale(0.015625)"/>
       <path id="DejaVuSans-54" d="M -19 4666 
L 3928 4666 
L 3928 4134 
L 2272 4134 
L 2272 0 
L 1638 0 
L 1638 4134 
L -19 4134 
L -19 4666 
z
" transform="scale(0.015625)"/>
       <path id="DejaVuSans-58" d="M 403 4666 
L 1081 4666 
L 2241 2931 
L 3406 4666 
L 4084 4666 
L 2584 2425 
L 4184 0 
L 3506 0 
L 2194 1984 
L 872 0 
L 191 0 
L 1856 2491 
L 403 4666 
z
" transform="scale(0.015625)"/>
      </defs>
      <use xlink:href="#DejaVuSans-4e"/>
      <use xlink:href="#DejaVuSans-6f" transform="translate(74.804688 0)"/>
      <use xlink:href="#DejaVuSans-20" transform="translate(135.986328 0)"/>
      <use xlink:href="#DejaVuSans-54" transform="translate(167.773438 0)"/>
      <use xlink:href="#DejaVuSans-58" transform="translate(228.857422 0)"/>
     </g>
    </g>
    <g id="line2d_28">
     <path d="M 55.616875 54.392031 
L 66.616875 54.392031 
L 77.616875 54.392031 
" style="fill: none; stroke: #1f77b4; stroke-width: 2; stroke-linecap: square"/>
    </g>
    <g id="text_16">
     <!-- Canal 0 -->
     <g transform="translate(86.416875 58.242031) scale(0.11 -0.11)">
      <defs>
       <path id="DejaVuSans-43" d="M 4122 4306 
L 4122 3641 
Q 3803 3938 3442 4084 
Q 3081 4231 2675 4231 
Q 1875 4231 1450 3742 
Q 1025 3253 1025 2328 
Q 1025 1406 1450 917 
Q 1875 428 2675 428 
Q 3081 428 3442 575 
Q 3803 722 4122 1019 
L 4122 359 
Q 3791 134 3420 21 
Q 3050 -91 2638 -91 
Q 1578 -91 968 557 
Q 359 1206 359 2328 
Q 359 3453 968 4101 
Q 1578 4750 2638 4750 
Q 3056 4750 3426 4639 
Q 3797 4528 4122 4306 
z
" transform="scale(0.015625)"/>
      </defs>
      <use xlink:href="#DejaVuSans-43"/>
      <use xlink:href="#DejaVuSans-61" transform="translate(69.824219 0)"/>
      <use xlink:href="#DejaVuSans-6e" transform="translate(131.103516 0)"/>
      <use xlink:href="#DejaVuSans-61" transform="translate(194.482422 0)"/>
      <use xlink:href="#DejaVuSans-6c" transform="translate(255.761719 0)"/>
      <use xlink:href="#DejaVuSans-20" transform="translate(283.544922 0)"/>
      <use xlink:href="#DejaVuSans-30" transform="translate(315.332031 0)"/>
     </g>
    </g>
    <g id="line2d_29">
     <path d="M 55.616875 70.537969 
L 66.616875 70.537969 
L 77.616875 70.537969 
" style="fill: none; stroke: #ff7f0e; stroke-width: 2; stroke-linecap: square"/>
    </g>
    <g id="text_17">
     <!-- Canal 1 -->
     <g transform="translate(86.416875 74.387969) scale(0.11 -0.11)">
      <use xlink:href="#DejaVuSans-43"/>
      <use xlink:href="#DejaVuSans-61" transform="translate(69.824219 0)"/>
      <use xlink:href="#DejaVuSans-6e" transform="translate(131.103516 0)"/>
      <use xlink:href="#DejaVuSans-61" transform="translate(194.482422 0)"/>
      <use xlink:href="#DejaVuSans-6c" transform="translate(255.761719 0)"/>
      <use xlink:href="#DejaVuSans-20" transform="translate(283.544922 0)"/>
      <use xlink:href="#DejaVuSans-31" transform="translate(315.332031 0)"/>
     </g>
    </g>
    <g id="line2d_30">
     <path d="M 55.616875 86.683906 
L 66.616875 86.683906 
L 77.616875 86.683906 
" style="fill: none; stroke: #2ca02c; stroke-width: 2; stroke-linecap: square"/>
    </g>
    <g id="text_18">
     <!-- Canal 2 -->
     <g transform="translate(86.416875 90.533906) scale(0.11 -0.11)">
      <use xlink:href="#DejaVuSans-43"/>
      <use xlink:href="#DejaVuSans-61" transform="translate(69.824219 0)"/>
      <use xlink:href="#DejaVuSans-6e" transform="translate(131.103516 0)"/>
      <use xlink:href="#DejaVuSans-61" transform="translate(194.482422 0)"/>
      <use xlink:href="#DejaVuSans-6c" transform="translate(255.761719 0)"/>
      <use xlink:href="#DejaVuSans-20" transform="translate(283.544922 0)"/>
      <use xlink:href="#DejaVuSans-32" transform="translate(315.332031 0)"/>
     </g>
    </g>
   </g>
  </g>
 </g>
 <defs>
  <clipPath id="p4805107e41">
   <rect x="45.716875" y="23.837812" width="1091.545" height="864.64"/>
  </clipPath>
 </defs>
</svg>
