<?xml version="1.0" encoding="utf-8" standalone="no"?>
<!DOCTYPE svg PUBLIC "-//W3C//DTD SVG 1.1//EN"
  "http://www.w3.org/Graphics/SVG/1.1/DTD/svg11.dtd">
<svg xmlns:xlink="http://www.w3.org/1999/xlink" width="1144.461875pt" height="927.969688pt" viewBox="0 0 1144.461875 927.969688" xmlns="http://www.w3.org/2000/svg" version="1.1">
 <metadata>
  <rdf:RDF xmlns:dc="http://purl.org/dc/elements/1.1/" xmlns:cc="http://creativecommons.org/ns#" xmlns:rdf="http://www.w3.org/1999/02/22-rdf-syntax-ns#">
   <cc:Work>
    <dc:type rdf:resource="http://purl.org/dc/dcmitype/StillImage"/>
    <dc:date>2025-10-17T20:07:16.666285</dc:date>
    <dc:format>image/svg+xml</dc:format>
    <dc:creator>
     <cc:Agent>
      <dc:title>Matplotlib v3.10.1, https://matplotlib.org/</dc:title>
     </cc:Agent>
    </dc:creator>
   </cc:Work>
  </rdf:RDF>
 </metadata>
 <defs>
  <style type="text/css">*{stroke-linejoin: round; stroke-linecap: butt}</style>
 </defs>
 <g id="figure_1">
  <g id="patch_1">
   <path d="M 0 927.969688 
L 1144.461875 927.969688 
L 1144.461875 0 
L 0 0 
z
" style="fill: #ffffff"/>
  </g>
  <g id="axes_1">
   <g id="patch_2">
    <path d="M 45.716875 888.477813 
L 1137.261875 888.477813 
L 1137.261875 23.837812 
L 45.716875 23.837812 
z
" style="fill: #ffffff"/>
   </g>
   <g id="matplotlib.axis_1">
    <g id="xtick_1">
     <g id="line2d_1">
      <path d="M 95.332557 888.477813 
L 95.332557 23.837812 
" clip-path="url(#pee5c1438dc)" style="fill: none; stroke: #b0b0b0; stroke-opacity: 0.3; stroke-width: 0.8; stroke-linecap: square"/>
     </g>
     <g id="line2d_2">
      <defs>
       <path id="m9a43d5c1cc" d="M 0 0 
L 0 3.5 
" style="stroke: #000000; stroke-width: 0.8"/>
      </defs>
      <g>
       <use xlink:href="#m9a43d5c1cc" x="95.332557" y="888.477813" style="stroke: #000000; stroke-width: 0.8"/>
      </g>
     </g>
     <g id="text_1">
      <!-- 0 -->
      <g transform="translate(92.151307 903.07625) scale(0.1 -0.1)">
       <defs>
        <path id="DejaVuSans-30" d="M 2034 4250 
Q 1547 4250 1301 3770 
Q 1056 3291 1056 2328 
Q 1056 1369 1301 889 
Q 1547 409 2034 409 
Q 2525 409 2770 889 
Q 3016 1369 3016 2328 
Q 3016 3291 2770 3770 
Q 2525 4250 2034 4250 
z
M 2034 4750 
Q 2819 4750 3233 4129 
Q 3647 3509 3647 2328 
Q 3647 1150 3233 529 
Q 2819 -91 2034 -91 
Q 1250 -91 836 529 
Q 422 1150 422 2328 
Q 422 3509 836 4129 
Q 1250 4750 2034 4750 
z
" transform="scale(0.015625)"/>
       </defs>
       <use xlink:href="#DejaVuSans-30"/>
      </g>
     </g>
    </g>
    <g id="xtick_2">
     <g id="line2d_3">
      <path d="M 321.37211 888.477813 
L 321.37211 23.837812 
" clip-path="url(#pee5c1438dc)" style="fill: none; stroke: #b0b0b0; stroke-opacity: 0.3; stroke-width: 0.8; stroke-linecap: square"/>
     </g>
     <g id="line2d_4">
      <g>
       <use xlink:href="#m9a43d5c1cc" x="321.37211" y="888.477813" style="stroke: #000000; stroke-width: 0.8"/>
      </g>
     </g>
     <g id="text_2">
      <!-- 100 -->
      <g transform="translate(311.82836 903.07625) scale(0.1 -0.1)">
       <defs>
        <path id="DejaVuSans-31" d="M 794 531 
L 1825 531 
L 1825 4091 
L 703 3866 
L 703 4441 
L 1819 4666 
L 2450 4666 
L 2450 531 
L 3481 531 
L 3481 0 
L 794 0 
L 794 531 
z
" transform="scale(0.015625)"/>
       </defs>
       <use xlink:href="#DejaVuSans-31"/>
       <use xlink:href="#DejaVuSans-30" transform="translate(63.623047 0)"/>
       <use xlink:href="#DejaVuSans-30" transform="translate(127.246094 0)"/>
      </g>
     </g>
    </g>
    <g id="xtick_3">
     <g id="line2d_5">
      <path d="M 547.411662 888.477813 
L 547.411662 23.837812 
" clip-path="url(#pee5c1438dc)" style="fill: none; stroke: #b0b0b0; stroke-opacity: 0.3; stroke-width: 0.8; stroke-linecap: square"/>
     </g>
     <g id="line2d_6">
      <g>
       <use xlink:href="#m9a43d5c1cc" x="547.411662" y="888.477813" style="stroke: #000000; stroke-width: 0.8"/>
      </g>
     </g>
     <g id="text_3">
      <!-- 200 -->
      <g transform="translate(537.867912 903.07625) scale(0.1 -0.1)">
       <defs>
        <path id="DejaVuSans-32" d="M 1228 531 
L 3431 531 
L 3431 0 
L 469 0 
L 469 531 
Q 828 903 1448 1529 
Q 2069 2156 2228 2338 
Q 2531 2678 2651 2914 
Q 2772 3150 2772 3378 
Q 2772 3750 2511 3984 
Q 2250 4219 1831 4219 
Q 1534 4219 1204 4116 
Q 875 4013 500 3803 
L 500 4441 
Q 881 4594 1212 4672 
Q 1544 4750 1819 4750 
Q 2544 4750 2975 4387 
Q 3406 4025 3406 3419 
Q 3406 3131 3298 2873 
Q 3191 2616 2906 2266 
Q 2828 2175 2409 1742 
Q 1991 1309 1228 531 
z
" transform="scale(0.015625)"/>
       </defs>
       <use xlink:href="#DejaVuSans-32"/>
       <use xlink:href="#DejaVuSans-30" transform="translate(63.623047 0)"/>
       <use xlink:href="#DejaVuSans-30" transform="translate(127.246094 0)"/>
      </g>
     </g>
    </g>
    <g id="xtick_4">
     <g id="line2d_7">
      <path d="M 773.451215 888.477813 
L 773.451215 23.837812 
" clip-path="url(#pee5c1438dc)" style="fill: none; stroke: #b0b0b0; stroke-opacity: 0.3; stroke-width: 0.8; stroke-linecap: square"/>
     </g>
     <g id="line2d_8">
      <g>
       <use xlink:href="#m9a43d5c1cc" x="773.451215" y="888.477813" style="stroke: #000000; stroke-width: 0.8"/>
      </g>
     </g>
     <g id="text_4">
      <!-- 300 -->
      <g transform="translate(763.907465 903.07625) scale(0.1 -0.1)">
       <defs>
        <path id="DejaVuSans-33" d="M 2597 2516 
Q 3050 2419 3304 2112 
Q 3559 1806 3559 1356 
Q 3559 666 3084 287 
Q 2609 -91 1734 -91 
Q 1441 -91 1130 -33 
Q 819 25 488 141 
L 488 750 
Q 750 597 1062 519 
Q 1375 441 1716 441 
Q 2309 441 2620 675 
Q 2931 909 2931 1356 
Q 2931 1769 2642 2001 
Q 2353 2234 1838 2234 
L 1294 2234 
L 1294 2753 
L 1863 2753 
Q 2328 2753 2575 2939 
Q 2822 3125 2822 3475 
Q 2822 3834 2567 4026 
Q 2313 4219 1838 4219 
Q 1578 4219 1281 4162 
Q 984 4106 628 3988 
L 628 4550 
Q 988 4650 1302 4700 
Q 1616 4750 1894 4750 
Q 2613 4750 3031 4423 
Q 3450 4097 3450 3541 
Q 3450 3153 3228 2886 
Q 3006 2619 2597 2516 
z
" transform="scale(0.015625)"/>
       </defs>
       <use xlink:href="#DejaVuSans-33"/>
       <use xlink:href="#DejaVuSans-30" transform="translate(63.623047 0)"/>
       <use xlink:href="#DejaVuSans-30" transform="translate(127.246094 0)"/>
      </g>
     </g>
    </g>
    <g id="xtick_5">
     <g id="line2d_9">
      <path d="M 999.490768 888.477813 
L 999.490768 23.837812 
" clip-path="url(#pee5c1438dc)" style="fill: none; stroke: #b0b0b0; stroke-opacity: 0.3; stroke-width: 0.8; stroke-linecap: square"/>
     </g>
     <g id="line2d_10">
      <g>
       <use xlink:href="#m9a43d5c1cc" x="999.490768" y="888.477813" style="stroke: #000000; stroke-width: 0.8"/>
      </g>
     </g>
     <g id="text_5">
      <!-- 400 -->
      <g transform="translate(989.947018 903.07625) scale(0.1 -0.1)">
       <defs>
        <path id="DejaVuSans-34" d="M 2419 4116 
L 825 1625 
L 2419 1625 
L 2419 4116 
z
M 2253 4666 
L 3047 4666 
L 3047 1625 
L 3713 1625 
L 3713 1100 
L 3047 1100 
L 3047 0 
L 2419 0 
L 2419 1100 
L 313 1100 
L 313 1709 
L 2253 4666 
z
" transform="scale(0.015625)"/>
       </defs>
       <use xlink:href="#DejaVuSans-34"/>
       <use xlink:href="#DejaVuSans-30" transform="translate(63.623047 0)"/>
       <use xlink:href="#DejaVuSans-30" transform="translate(127.246094 0)"/>
      </g>
     </g>
    </g>
    <g id="text_6">
     <!-- Iteraciones (x10) -->
     <g transform="translate(540.499688 918.274063) scale(0.12 -0.12)">
      <defs>
       <path id="DejaVuSans-49" d="M 628 4666 
L 1259 4666 
L 1259 0 
L 628 0 
L 628 4666 
z
" transform="scale(0.015625)"/>
       <path id="DejaVuSans-74" d="M 1172 4494 
L 1172 3500 
L 2356 3500 
L 2356 3053 
L 1172 3053 
L 1172 1153 
Q 1172 725 1289 603 
Q 1406 481 1766 481 
L 2356 481 
L 2356 0 
L 1766 0 
Q 1100 0 847 248 
Q 594 497 594 1153 
L 594 3053 
L 172 3053 
L 172 3500 
L 594 3500 
L 594 4494 
L 1172 4494 
z
" transform="scale(0.015625)"/>
       <path id="DejaVuSans-65" d="M 3597 1894 
L 3597 1613 
L 953 1613 
Q 991 1019 1311 708 
Q 1631 397 2203 397 
Q 2534 397 2845 478 
Q 3156 559 3463 722 
L 3463 178 
Q 3153 47 2828 -22 
Q 2503 -91 2169 -91 
Q 1331 -91 842 396 
Q 353 884 353 1716 
Q 353 2575 817 3079 
Q 1281 3584 2069 3584 
Q 2775 3584 3186 3129 
Q 3597 2675 3597 1894 
z
M 3022 2063 
Q 3016 2534 2758 2815 
Q 2500 3097 2075 3097 
Q 1594 3097 1305 2825 
Q 1016 2553 972 2059 
L 3022 2063 
z
" transform="scale(0.015625)"/>
       <path id="DejaVuSans-72" d="M 2631 2963 
Q 2534 3019 2420 3045 
Q 2306 3072 2169 3072 
Q 1681 3072 1420 2755 
Q 1159 2438 1159 1844 
L 1159 0 
L 581 0 
L 581 3500 
L 1159 3500 
L 1159 2956 
Q 1341 3275 1631 3429 
Q 1922 3584 2338 3584 
Q 2397 3584 2469 3576 
Q 2541 3569 2628 3553 
L 2631 2963 
z
" transform="scale(0.015625)"/>
       <path id="DejaVuSans-61" d="M 2194 1759 
Q 1497 1759 1228 1600 
Q 959 1441 959 1056 
Q 959 750 1161 570 
Q 1363 391 1709 391 
Q 2188 391 2477 730 
Q 2766 1069 2766 1631 
L 2766 1759 
L 2194 1759 
z
M 3341 1997 
L 3341 0 
L 2766 0 
L 2766 531 
Q 2569 213 2275 61 
Q 1981 -91 1556 -91 
Q 1019 -91 701 211 
Q 384 513 384 1019 
Q 384 1609 779 1909 
Q 1175 2209 1959 2209 
L 2766 2209 
L 2766 2266 
Q 2766 2663 2505 2880 
Q 2244 3097 1772 3097 
Q 1472 3097 1187 3025 
Q 903 2953 641 2809 
L 641 3341 
Q 956 3463 1253 3523 
Q 1550 3584 1831 3584 
Q 2591 3584 2966 3190 
Q 3341 2797 3341 1997 
z
" transform="scale(0.015625)"/>
       <path id="DejaVuSans-63" d="M 3122 3366 
L 3122 2828 
Q 2878 2963 2633 3030 
Q 2388 3097 2138 3097 
Q 1578 3097 1268 2742 
Q 959 2388 959 1747 
Q 959 1106 1268 751 
Q 1578 397 2138 397 
Q 2388 397 2633 464 
Q 2878 531 3122 666 
L 3122 134 
Q 2881 22 2623 -34 
Q 2366 -91 2075 -91 
Q 1284 -91 818 406 
Q 353 903 353 1747 
Q 353 2603 823 3093 
Q 1294 3584 2113 3584 
Q 2378 3584 2631 3529 
Q 2884 3475 3122 3366 
z
" transform="scale(0.015625)"/>
       <path id="DejaVuSans-69" d="M 603 3500 
L 1178 3500 
L 1178 0 
L 603 0 
L 603 3500 
z
M 603 4863 
L 1178 4863 
L 1178 4134 
L 603 4134 
L 603 4863 
z
" transform="scale(0.015625)"/>
       <path id="DejaVuSans-6f" d="M 1959 3097 
Q 1497 3097 1228 2736 
Q 959 2375 959 1747 
Q 959 1119 1226 758 
Q 1494 397 1959 397 
Q 2419 397 2687 759 
Q 2956 1122 2956 1747 
Q 2956 2369 2687 2733 
Q 2419 3097 1959 3097 
z
M 1959 3584 
Q 2709 3584 3137 3096 
Q 3566 2609 3566 1747 
Q 3566 888 3137 398 
Q 2709 -91 1959 -91 
Q 1206 -91 779 398 
Q 353 888 353 1747 
Q 353 2609 779 3096 
Q 1206 3584 1959 3584 
z
" transform="scale(0.015625)"/>
       <path id="DejaVuSans-6e" d="M 3513 2113 
L 3513 0 
L 2938 0 
L 2938 2094 
Q 2938 2591 2744 2837 
Q 2550 3084 2163 3084 
Q 1697 3084 1428 2787 
Q 1159 2491 1159 1978 
L 1159 0 
L 581 0 
L 581 3500 
L 1159 3500 
L 1159 2956 
Q 1366 3272 1645 3428 
Q 1925 3584 2291 3584 
Q 2894 3584 3203 3211 
Q 3513 2838 3513 2113 
z
" transform="scale(0.015625)"/>
       <path id="DejaVuSans-73" d="M 2834 3397 
L 2834 2853 
Q 2591 2978 2328 3040 
Q 2066 3103 1784 3103 
Q 1356 3103 1142 2972 
Q 928 2841 928 2578 
Q 928 2378 1081 2264 
Q 1234 2150 1697 2047 
L 1894 2003 
Q 2506 1872 2764 1633 
Q 3022 1394 3022 966 
Q 3022 478 2636 193 
Q 2250 -91 1575 -91 
Q 1294 -91 989 -36 
Q 684 19 347 128 
L 347 722 
Q 666 556 975 473 
Q 1284 391 1588 391 
Q 1994 391 2212 530 
Q 2431 669 2431 922 
Q 2431 1156 2273 1281 
Q 2116 1406 1581 1522 
L 1381 1569 
Q 847 1681 609 1914 
Q 372 2147 372 2553 
Q 372 3047 722 3315 
Q 1072 3584 1716 3584 
Q 2034 3584 2315 3537 
Q 2597 3491 2834 3397 
z
" transform="scale(0.015625)"/>
       <path id="DejaVuSans-20" transform="scale(0.015625)"/>
       <path id="DejaVuSans-28" d="M 1984 4856 
Q 1566 4138 1362 3434 
Q 1159 2731 1159 2009 
Q 1159 1288 1364 580 
Q 1569 -128 1984 -844 
L 1484 -844 
Q 1016 -109 783 600 
Q 550 1309 550 2009 
Q 550 2706 781 3412 
Q 1013 4119 1484 4856 
L 1984 4856 
z
" transform="scale(0.015625)"/>
       <path id="DejaVuSans-78" d="M 3513 3500 
L 2247 1797 
L 3578 0 
L 2900 0 
L 1881 1375 
L 863 0 
L 184 0 
L 1544 1831 
L 300 3500 
L 978 3500 
L 1906 2253 
L 2834 3500 
L 3513 3500 
z
" transform="scale(0.015625)"/>
       <path id="DejaVuSans-29" d="M 513 4856 
L 1013 4856 
Q 1481 4119 1714 3412 
Q 1947 2706 1947 2009 
Q 1947 1309 1714 600 
Q 1481 -109 1013 -844 
L 513 -844 
Q 928 -128 1133 580 
Q 1338 1288 1338 2009 
Q 1338 2731 1133 3434 
Q 928 4138 513 4856 
z
" transform="scale(0.015625)"/>
      </defs>
      <use xlink:href="#DejaVuSans-49"/>
      <use xlink:href="#DejaVuSans-74" transform="translate(29.492188 0)"/>
      <use xlink:href="#DejaVuSans-65" transform="translate(68.701172 0)"/>
      <use xlink:href="#DejaVuSans-72" transform="translate(130.224609 0)"/>
      <use xlink:href="#DejaVuSans-61" transform="translate(171.337891 0)"/>
      <use xlink:href="#DejaVuSans-63" transform="translate(232.617188 0)"/>
      <use xlink:href="#DejaVuSans-69" transform="translate(287.597656 0)"/>
      <use xlink:href="#DejaVuSans-6f" transform="translate(315.380859 0)"/>
      <use xlink:href="#DejaVuSans-6e" transform="translate(376.5625 0)"/>
      <use xlink:href="#DejaVuSans-65" transform="translate(439.941406 0)"/>
      <use xlink:href="#DejaVuSans-73" transform="translate(501.464844 0)"/>
      <use xlink:href="#DejaVuSans-20" transform="translate(553.564453 0)"/>
      <use xlink:href="#DejaVuSans-28" transform="translate(585.351562 0)"/>
      <use xlink:href="#DejaVuSans-78" transform="translate(624.365234 0)"/>
      <use xlink:href="#DejaVuSans-31" transform="translate(683.544922 0)"/>
      <use xlink:href="#DejaVuSans-30" transform="translate(747.167969 0)"/>
      <use xlink:href="#DejaVuSans-29" transform="translate(810.791016 0)"/>
     </g>
    </g>
   </g>
   <g id="matplotlib.axis_2">
    <g id="ytick_1">
     <g id="line2d_11">
      <path d="M 45.716875 849.175994 
L 1137.261875 849.175994 
" clip-path="url(#pee5c1438dc)" style="fill: none; stroke: #b0b0b0; stroke-opacity: 0.3; stroke-width: 0.8; stroke-linecap: square"/>
     </g>
     <g id="line2d_12">
      <defs>
       <path id="m42ecf888cc" d="M 0 0 
L -3.5 0 
" style="stroke: #000000; stroke-width: 0.8"/>
      </defs>
      <g>
       <use xlink:href="#m42ecf888cc" x="45.716875" y="849.175994" style="stroke: #000000; stroke-width: 0.8"/>
      </g>
     </g>
     <g id="text_7">
      <!-- 0.0 -->
      <g transform="translate(22.81375 852.975213) scale(0.1 -0.1)">
       <defs>
        <path id="DejaVuSans-2e" d="M 684 794 
L 1344 794 
L 1344 0 
L 684 0 
L 684 794 
z
" transform="scale(0.015625)"/>
       </defs>
       <use xlink:href="#DejaVuSans-30"/>
       <use xlink:href="#DejaVuSans-2e" transform="translate(63.623047 0)"/>
       <use xlink:href="#DejaVuSans-30" transform="translate(95.410156 0)"/>
      </g>
     </g>
    </g>
    <g id="ytick_2">
     <g id="line2d_13">
      <path d="M 45.716875 691.968722 
L 1137.261875 691.968722 
" clip-path="url(#pee5c1438dc)" style="fill: none; stroke: #b0b0b0; stroke-opacity: 0.3; stroke-width: 0.8; stroke-linecap: square"/>
     </g>
     <g id="line2d_14">
      <g>
       <use xlink:href="#m42ecf888cc" x="45.716875" y="691.968722" style="stroke: #000000; stroke-width: 0.8"/>
      </g>
     </g>
     <g id="text_8">
      <!-- 0.2 -->
      <g transform="translate(22.81375 695.76794) scale(0.1 -0.1)">
       <use xlink:href="#DejaVuSans-30"/>
       <use xlink:href="#DejaVuSans-2e" transform="translate(63.623047 0)"/>
       <use xlink:href="#DejaVuSans-32" transform="translate(95.410156 0)"/>
      </g>
     </g>
    </g>
    <g id="ytick_3">
     <g id="line2d_15">
      <path d="M 45.716875 534.761449 
L 1137.261875 534.761449 
" clip-path="url(#pee5c1438dc)" style="fill: none; stroke: #b0b0b0; stroke-opacity: 0.3; stroke-width: 0.8; stroke-linecap: square"/>
     </g>
     <g id="line2d_16">
      <g>
       <use xlink:href="#m42ecf888cc" x="45.716875" y="534.761449" style="stroke: #000000; stroke-width: 0.8"/>
      </g>
     </g>
     <g id="text_9">
      <!-- 0.4 -->
      <g transform="translate(22.81375 538.560668) scale(0.1 -0.1)">
       <use xlink:href="#DejaVuSans-30"/>
       <use xlink:href="#DejaVuSans-2e" transform="translate(63.623047 0)"/>
       <use xlink:href="#DejaVuSans-34" transform="translate(95.410156 0)"/>
      </g>
     </g>
    </g>
    <g id="ytick_4">
     <g id="line2d_17">
      <path d="M 45.716875 377.554176 
L 1137.261875 377.554176 
" clip-path="url(#pee5c1438dc)" style="fill: none; stroke: #b0b0b0; stroke-opacity: 0.3; stroke-width: 0.8; stroke-linecap: square"/>
     </g>
     <g id="line2d_18">
      <g>
       <use xlink:href="#m42ecf888cc" x="45.716875" y="377.554176" style="stroke: #000000; stroke-width: 0.8"/>
      </g>
     </g>
     <g id="text_10">
      <!-- 0.6 -->
      <g transform="translate(22.81375 381.353395) scale(0.1 -0.1)">
       <defs>
        <path id="DejaVuSans-36" d="M 2113 2584 
Q 1688 2584 1439 2293 
Q 1191 2003 1191 1497 
Q 1191 994 1439 701 
Q 1688 409 2113 409 
Q 2538 409 2786 701 
Q 3034 994 3034 1497 
Q 3034 2003 2786 2293 
Q 2538 2584 2113 2584 
z
M 3366 4563 
L 3366 3988 
Q 3128 4100 2886 4159 
Q 2644 4219 2406 4219 
Q 1781 4219 1451 3797 
Q 1122 3375 1075 2522 
Q 1259 2794 1537 2939 
Q 1816 3084 2150 3084 
Q 2853 3084 3261 2657 
Q 3669 2231 3669 1497 
Q 3669 778 3244 343 
Q 2819 -91 2113 -91 
Q 1303 -91 875 529 
Q 447 1150 447 2328 
Q 447 3434 972 4092 
Q 1497 4750 2381 4750 
Q 2619 4750 2861 4703 
Q 3103 4656 3366 4563 
z
" transform="scale(0.015625)"/>
       </defs>
       <use xlink:href="#DejaVuSans-30"/>
       <use xlink:href="#DejaVuSans-2e" transform="translate(63.623047 0)"/>
       <use xlink:href="#DejaVuSans-36" transform="translate(95.410156 0)"/>
      </g>
     </g>
    </g>
    <g id="ytick_5">
     <g id="line2d_19">
      <path d="M 45.716875 220.346903 
L 1137.261875 220.346903 
" clip-path="url(#pee5c1438dc)" style="fill: none; stroke: #b0b0b0; stroke-opacity: 0.3; stroke-width: 0.8; stroke-linecap: square"/>
     </g>
     <g id="line2d_20">
      <g>
       <use xlink:href="#m42ecf888cc" x="45.716875" y="220.346903" style="stroke: #000000; stroke-width: 0.8"/>
      </g>
     </g>
     <g id="text_11">
      <!-- 0.8 -->
      <g transform="translate(22.81375 224.146122) scale(0.1 -0.1)">
       <defs>
        <path id="DejaVuSans-38" d="M 2034 2216 
Q 1584 2216 1326 1975 
Q 1069 1734 1069 1313 
Q 1069 891 1326 650 
Q 1584 409 2034 409 
Q 2484 409 2743 651 
Q 3003 894 3003 1313 
Q 3003 1734 2745 1975 
Q 2488 2216 2034 2216 
z
M 1403 2484 
Q 997 2584 770 2862 
Q 544 3141 544 3541 
Q 544 4100 942 4425 
Q 1341 4750 2034 4750 
Q 2731 4750 3128 4425 
Q 3525 4100 3525 3541 
Q 3525 3141 3298 2862 
Q 3072 2584 2669 2484 
Q 3125 2378 3379 2068 
Q 3634 1759 3634 1313 
Q 3634 634 3220 271 
Q 2806 -91 2034 -91 
Q 1263 -91 848 271 
Q 434 634 434 1313 
Q 434 1759 690 2068 
Q 947 2378 1403 2484 
z
M 1172 3481 
Q 1172 3119 1398 2916 
Q 1625 2713 2034 2713 
Q 2441 2713 2670 2916 
Q 2900 3119 2900 3481 
Q 2900 3844 2670 4047 
Q 2441 4250 2034 4250 
Q 1625 4250 1398 4047 
Q 1172 3844 1172 3481 
z
" transform="scale(0.015625)"/>
       </defs>
       <use xlink:href="#DejaVuSans-30"/>
       <use xlink:href="#DejaVuSans-2e" transform="translate(63.623047 0)"/>
       <use xlink:href="#DejaVuSans-38" transform="translate(95.410156 0)"/>
      </g>
     </g>
    </g>
    <g id="ytick_6">
     <g id="line2d_21">
      <path d="M 45.716875 63.139631 
L 1137.261875 63.139631 
" clip-path="url(#pee5c1438dc)" style="fill: none; stroke: #b0b0b0; stroke-opacity: 0.3; stroke-width: 0.8; stroke-linecap: square"/>
     </g>
     <g id="line2d_22">
      <g>
       <use xlink:href="#m42ecf888cc" x="45.716875" y="63.139631" style="stroke: #000000; stroke-width: 0.8"/>
      </g>
     </g>
     <g id="text_12">
      <!-- 1.0 -->
      <g transform="translate(22.81375 66.938849) scale(0.1 -0.1)">
       <use xlink:href="#DejaVuSans-31"/>
       <use xlink:href="#DejaVuSans-2e" transform="translate(63.623047 0)"/>
       <use xlink:href="#DejaVuSans-30" transform="translate(95.410156 0)"/>
      </g>
     </g>
    </g>
    <g id="text_13">
     <!-- Probabilidad -->
     <g transform="translate(16.318125 493.264063) rotate(-90) scale(0.12 -0.12)">
      <defs>
       <path id="DejaVuSans-50" d="M 1259 4147 
L 1259 2394 
L 2053 2394 
Q 2494 2394 2734 2622 
Q 2975 2850 2975 3272 
Q 2975 3691 2734 3919 
Q 2494 4147 2053 4147 
L 1259 4147 
z
M 628 4666 
L 2053 4666 
Q 2838 4666 3239 4311 
Q 3641 3956 3641 3272 
Q 3641 2581 3239 2228 
Q 2838 1875 2053 1875 
L 1259 1875 
L 1259 0 
L 628 0 
L 628 4666 
z
" transform="scale(0.015625)"/>
       <path id="DejaVuSans-62" d="M 3116 1747 
Q 3116 2381 2855 2742 
Q 2594 3103 2138 3103 
Q 1681 3103 1420 2742 
Q 1159 2381 1159 1747 
Q 1159 1113 1420 752 
Q 1681 391 2138 391 
Q 2594 391 2855 752 
Q 3116 1113 3116 1747 
z
M 1159 2969 
Q 1341 3281 1617 3432 
Q 1894 3584 2278 3584 
Q 2916 3584 3314 3078 
Q 3713 2572 3713 1747 
Q 3713 922 3314 415 
Q 2916 -91 2278 -91 
Q 1894 -91 1617 61 
Q 1341 213 1159 525 
L 1159 0 
L 581 0 
L 581 4863 
L 1159 4863 
L 1159 2969 
z
" transform="scale(0.015625)"/>
       <path id="DejaVuSans-6c" d="M 603 4863 
L 1178 4863 
L 1178 0 
L 603 0 
L 603 4863 
z
" transform="scale(0.015625)"/>
       <path id="DejaVuSans-64" d="M 2906 2969 
L 2906 4863 
L 3481 4863 
L 3481 0 
L 2906 0 
L 2906 525 
Q 2725 213 2448 61 
Q 2172 -91 1784 -91 
Q 1150 -91 751 415 
Q 353 922 353 1747 
Q 353 2572 751 3078 
Q 1150 3584 1784 3584 
Q 2172 3584 2448 3432 
Q 2725 3281 2906 2969 
z
M 947 1747 
Q 947 1113 1208 752 
Q 1469 391 1925 391 
Q 2381 391 2643 752 
Q 2906 1113 2906 1747 
Q 2906 2381 2643 2742 
Q 2381 3103 1925 3103 
Q 1469 3103 1208 2742 
Q 947 2381 947 1747 
z
" transform="scale(0.015625)"/>
      </defs>
      <use xlink:href="#DejaVuSans-50"/>
      <use xlink:href="#DejaVuSans-72" transform="translate(58.552734 0)"/>
      <use xlink:href="#DejaVuSans-6f" transform="translate(97.416016 0)"/>
      <use xlink:href="#DejaVuSans-62" transform="translate(158.597656 0)"/>
      <use xlink:href="#DejaVuSans-61" transform="translate(222.074219 0)"/>
      <use xlink:href="#DejaVuSans-62" transform="translate(283.353516 0)"/>
      <use xlink:href="#DejaVuSans-69" transform="translate(346.830078 0)"/>
      <use xlink:href="#DejaVuSans-6c" transform="translate(374.613281 0)"/>
      <use xlink:href="#DejaVuSans-69" transform="translate(402.396484 0)"/>
      <use xlink:href="#DejaVuSans-64" transform="translate(430.179688 0)"/>
      <use xlink:href="#DejaVuSans-61" transform="translate(493.65625 0)"/>
      <use xlink:href="#DejaVuSans-64" transform="translate(554.935547 0)"/>
     </g>
    </g>
   </g>
   <g id="line2d_23">
    <path d="M 95.332557 651.202469 
L 99.853348 654.240654 
L 104.374139 657.270453 
L 106.634534 659.093114 
L 108.89493 665.021775 
L 113.415721 684.00659 
L 115.676117 685.677921 
L 117.936512 683.474147 
L 120.196908 682.891198 
L 122.457303 685.448606 
L 124.717699 682.531508 
L 126.978094 685.897654 
L 129.23849 683.276493 
L 131.498885 684.245439 
L 133.759281 688.574732 
L 138.280072 706.798962 
L 140.540467 713.720767 
L 142.800863 716.836866 
L 145.061258 714.778836 
L 147.321654 708.704022 
L 149.582049 705.853781 
L 151.842445 716.647364 
L 154.102841 726.140808 
L 156.363236 732.627551 
L 158.623632 732.742888 
L 160.884027 726.415838 
L 163.144423 717.84156 
L 165.404818 717.806433 
L 167.665214 715.537337 
L 169.925609 720.390956 
L 172.186005 716.504772 
L 174.4464 720.680088 
L 176.706796 728.439948 
L 178.967191 738.160821 
L 181.227587 746.045516 
L 183.487982 751.097733 
L 185.748378 754.732238 
L 188.008773 762.606075 
L 192.529564 776.534358 
L 194.78996 782.119088 
L 197.050356 788.161562 
L 199.310751 844.20641 
L 201.571147 842.35571 
L 203.831542 823.103338 
L 206.091938 841.960543 
L 208.352333 845.657982 
L 210.612729 845.810376 
L 212.873124 847.480235 
L 215.13352 847.927301 
L 217.393915 842.001544 
L 219.654311 837.327455 
L 221.914706 788.311949 
L 224.175102 790.20689 
L 226.435497 792.583153 
L 228.695893 792.240189 
L 230.956288 789.108956 
L 233.216684 794.1723 
L 235.477079 797.103794 
L 237.737475 798.176697 
L 239.997871 793.366848 
L 242.258266 792.406646 
L 244.518662 800.638241 
L 246.779057 804.371605 
L 249.039453 803.28792 
L 251.299848 805.457349 
L 253.560244 801.980449 
L 255.820639 797.316259 
L 258.081035 797.387198 
L 260.34143 800.123877 
L 262.601826 804.61754 
L 264.862221 805.832857 
L 267.122617 799.369429 
L 269.383012 803.39051 
L 271.643408 805.414014 
L 273.903803 812.825071 
L 276.164199 809.023896 
L 278.424595 799.929157 
L 280.68499 800.747487 
L 282.945386 800.610148 
L 285.205781 799.311585 
L 287.466177 803.336198 
L 289.726572 799.497837 
L 291.986968 795.363568 
L 294.247363 795.631804 
L 296.507759 800.260666 
L 298.768154 806.003786 
L 301.02855 806.206866 
L 303.288945 812.870107 
L 305.549341 814.912062 
L 307.809736 813.18901 
L 310.070132 812.969707 
L 312.330527 815.8629 
L 314.590923 811.393599 
L 316.851318 814.427759 
L 319.111714 814.840107 
L 321.37211 808.263957 
L 323.632505 808.423468 
L 325.892901 805.057815 
L 328.153296 803.260017 
L 330.413692 806.779598 
L 332.674087 809.231436 
L 334.934483 805.056406 
L 337.194878 814.922472 
L 339.455274 814.787744 
L 341.715669 809.831986 
L 343.976065 808.550093 
L 346.23646 814.628139 
L 348.496856 816.740219 
L 350.757251 816.515273 
L 353.017647 818.055432 
L 355.278042 820.310329 
L 357.538438 825.959658 
L 359.798833 829.13965 
L 362.059229 829.515164 
L 364.319625 830.200902 
L 368.840416 828.446675 
L 371.100811 829.224751 
L 373.361207 831.960832 
L 375.621602 829.371669 
L 377.881998 832.725466 
L 382.402789 832.549234 
L 384.663184 833.567318 
L 386.92358 834.047749 
L 389.183975 832.994301 
L 391.444371 834.767444 
L 393.704766 835.957391 
L 395.965162 836.579023 
L 398.225557 836.526854 
L 400.485953 834.887852 
L 402.746348 835.428346 
L 405.006744 830.17098 
L 407.26714 834.520156 
L 409.527535 826.912401 
L 411.787931 825.998839 
L 414.048326 825.929281 
L 416.308722 830.069245 
L 418.569117 830.254633 
L 420.829513 828.577724 
L 423.089908 833.369258 
L 425.350304 834.554712 
L 427.610699 837.399581 
L 429.871095 838.228585 
L 434.391886 840.094264 
L 436.652281 834.182204 
L 438.912677 840.382835 
L 441.173072 838.606587 
L 443.433468 837.252409 
L 445.693864 839.570423 
L 447.954259 838.639649 
L 450.214655 835.930461 
L 452.47505 835.839917 
L 454.735446 833.267346 
L 456.995841 832.54761 
L 459.256237 835.945063 
L 461.516632 834.667087 
L 463.777028 833.159278 
L 466.037423 831.8016 
L 468.297819 831.658252 
L 470.558214 830.768724 
L 472.81861 831.184143 
L 475.079005 830.664342 
L 477.339401 830.978602 
L 479.599796 830.61931 
L 481.860192 826.159818 
L 484.120587 830.187011 
L 486.380983 832.947828 
L 488.641379 829.179756 
L 490.901774 832.237464 
L 493.16217 831.932592 
L 495.422565 832.271944 
L 497.682961 831.544611 
L 499.943356 833.540235 
L 504.464147 835.56077 
L 506.724543 834.224694 
L 508.984938 831.002503 
L 511.245334 831.789811 
L 513.505729 832.024472 
L 515.766125 833.068005 
L 518.02652 833.059354 
L 520.286916 831.776388 
L 522.547311 833.543967 
L 524.807707 833.292834 
L 527.068102 831.589129 
L 529.328498 831.749827 
L 531.588894 834.694259 
L 533.849289 834.145245 
L 536.109685 825.261193 
L 538.37008 826.619536 
L 540.630476 829.770649 
L 542.890871 828.064006 
L 545.151267 829.14608 
L 547.411662 831.717668 
L 549.672058 831.082612 
L 554.192849 822.52954 
L 556.453244 824.032009 
L 558.71364 825.944915 
L 560.974035 829.642155 
L 563.234431 827.71585 
L 565.494826 826.182671 
L 567.755222 827.567212 
L 570.015617 828.738378 
L 572.276013 829.135144 
L 574.536409 828.990359 
L 576.796804 831.146077 
L 579.0572 829.950816 
L 581.317595 831.793216 
L 583.577991 833.037549 
L 585.838386 832.9223 
L 588.098782 835.057385 
L 590.359177 835.312406 
L 592.619573 835.765517 
L 594.879968 831.64571 
L 597.140364 837.29778 
L 599.400759 835.487437 
L 601.661155 835.034774 
L 603.92155 837.734177 
L 606.181946 837.007744 
L 608.442341 840.64565 
L 610.702737 840.343411 
L 612.963133 839.751855 
L 615.223528 838.394851 
L 617.483924 843.160901 
L 619.744319 848.269048 
L 624.26511 847.638586 
L 626.525506 848.725119 
L 628.785901 849.169237 
L 655.910648 849.175994 
L 658.171043 848.093809 
L 660.431439 849.175994 
L 698.858163 849.175994 
L 701.118558 837.280637 
L 703.378954 849.175994 
L 721.462118 849.175994 
L 723.722513 837.339871 
L 725.982909 849.175994 
L 732.764095 849.175994 
L 735.024491 837.000721 
L 737.284886 849.175994 
L 739.545282 849.175994 
L 741.805678 837.339926 
L 744.066073 849.175994 
L 746.326469 837.571155 
L 748.586864 849.175994 
L 818.659125 849.175994 
L 820.919521 840.231482 
L 823.179917 849.175994 
L 924.897715 849.175994 
L 927.158111 848.043267 
L 929.418506 849.175994 
L 976.886812 849.175994 
L 979.147208 848.367863 
L 981.407603 849.175994 
L 1046.959074 849.175994 
L 1049.219469 848.265637 
L 1051.479865 849.175994 
L 1080.865007 849.175994 
L 1083.125402 845.141239 
L 1085.385798 849.175994 
L 1087.646193 849.175994 
L 1087.646193 849.175994 
" clip-path="url(#pee5c1438dc)" style="fill: none; stroke-dasharray: 9.25,4; stroke-dashoffset: 0; stroke: #000000; stroke-width: 2.5"/>
   </g>
   <g id="line2d_24">
    <path d="M 95.332557 651.153977 
L 97.592952 652.211367 
L 99.853348 651.409669 
L 104.374139 650.145969 
L 106.634534 649.023597 
L 108.89493 644.533942 
L 111.155326 638.446772 
L 113.415721 636.054 
L 115.676117 637.532583 
L 117.936512 642.27465 
L 120.196908 643.828477 
L 122.457303 643.805543 
L 124.717699 643.196545 
L 129.23849 629.165178 
L 131.498885 629.70411 
L 133.759281 636.086421 
L 136.019676 640.062138 
L 138.280072 630.880291 
L 140.540467 616.26628 
L 142.800863 610.484698 
L 145.061258 606.97808 
L 147.321654 612.136163 
L 149.582049 608.343892 
L 151.842445 594.910583 
L 154.102841 595.706378 
L 156.363236 604.695455 
L 158.623632 606.139697 
L 160.884027 606.294869 
L 163.144423 597.884102 
L 165.404818 603.3645 
L 167.665214 619.681209 
L 172.186005 655.138983 
L 174.4464 665.28064 
L 176.706796 658.796006 
L 178.967191 640.763153 
L 181.227587 635.271159 
L 183.487982 627.186338 
L 185.748378 611.113818 
L 188.008773 611.366348 
L 190.269169 613.320544 
L 192.529564 620.120207 
L 194.78996 626.330878 
L 197.050356 627.939404 
L 199.310751 682.43312 
L 201.571147 658.418946 
L 203.831542 577.682192 
L 206.091938 549.290631 
L 208.352333 485.423762 
L 210.612729 482.848105 
L 215.13352 657.619661 
L 217.393915 679.276506 
L 219.654311 641.970982 
L 221.914706 610.253767 
L 224.175102 602.032233 
L 226.435497 607.405833 
L 228.695893 601.461208 
L 230.956288 613.304122 
L 233.216684 636.641446 
L 235.477079 634.37775 
L 237.737475 616.439934 
L 239.997871 611.944822 
L 242.258266 614.868655 
L 244.518662 624.474484 
L 246.779057 617.341965 
L 251.299848 572.382173 
L 253.560244 580.38983 
L 255.820639 600.706197 
L 258.081035 611.550638 
L 260.34143 620.43458 
L 262.601826 612.995324 
L 264.862221 613.056559 
L 267.122617 601.264713 
L 269.383012 575.011779 
L 271.643408 557.547303 
L 273.903803 575.547993 
L 276.164199 600.441229 
L 278.424595 601.197481 
L 280.68499 592.905249 
L 282.945386 579.349915 
L 285.205781 562.600604 
L 287.466177 556.435847 
L 289.726572 565.997824 
L 291.986968 563.562346 
L 294.247363 565.805733 
L 296.507759 570.907454 
L 298.768154 582.555044 
L 301.02855 579.553415 
L 303.288945 557.408787 
L 305.549341 551.758061 
L 307.809736 561.243787 
L 312.330527 609.431806 
L 314.590923 620.113156 
L 316.851318 612.460352 
L 319.111714 611.615058 
L 321.37211 611.483382 
L 323.632505 619.759756 
L 325.892901 624.431709 
L 328.153296 625.049281 
L 330.413692 610.697028 
L 332.674087 597.432361 
L 334.934483 586.007221 
L 337.194878 583.356438 
L 339.455274 582.777917 
L 341.715669 584.104351 
L 343.976065 579.471987 
L 346.23646 558.292944 
L 348.496856 554.732658 
L 350.757251 569.01379 
L 353.017647 582.322825 
L 355.278042 574.837702 
L 357.538438 573.371206 
L 359.798833 580.478449 
L 362.059229 582.369841 
L 364.319625 595.942954 
L 366.58002 605.605638 
L 368.840416 601.115445 
L 371.100811 570.798103 
L 373.361207 557.934648 
L 375.621602 549.343737 
L 377.881998 546.80514 
L 380.142393 541.14502 
L 382.402789 542.7814 
L 384.663184 541.550098 
L 386.92358 566.261995 
L 389.183975 578.411154 
L 391.444371 594.607689 
L 393.704766 586.96552 
L 395.965162 573.953288 
L 398.225557 576.704638 
L 400.485953 581.622045 
L 402.746348 575.639377 
L 405.006744 564.552129 
L 407.26714 551.739766 
L 409.527535 559.458724 
L 411.787931 560.557905 
L 414.048326 568.194968 
L 416.308722 573.12547 
L 418.569117 573.988263 
L 420.829513 576.660176 
L 423.089908 565.483161 
L 427.610699 556.727614 
L 429.871095 549.660547 
L 432.13149 551.706267 
L 434.391886 579.564589 
L 436.652281 590.00032 
L 438.912677 567.960148 
L 441.173072 558.032473 
L 443.433468 566.156462 
L 445.693864 563.156449 
L 447.954259 565.014389 
L 450.214655 575.202886 
L 452.47505 583.788736 
L 454.735446 574.723666 
L 456.995841 569.23795 
L 459.256237 549.562885 
L 461.516632 546.655379 
L 463.777028 555.060969 
L 466.037423 573.142852 
L 468.297819 581.085198 
L 470.558214 577.412 
L 472.81861 589.836856 
L 475.079005 575.011451 
L 477.339401 556.489961 
L 479.599796 555.525079 
L 481.860192 559.290715 
L 484.120587 560.127669 
L 486.380983 548.421514 
L 488.641379 554.379257 
L 490.901774 556.866529 
L 493.16217 570.6073 
L 495.422565 583.104612 
L 497.682961 600.483794 
L 499.943356 601.77783 
L 502.203752 600.643604 
L 504.464147 595.973314 
L 506.724543 588.80746 
L 508.984938 577.417271 
L 511.245334 555.282623 
L 513.505729 534.938425 
L 515.766125 522.817612 
L 518.02652 547.567694 
L 520.286916 579.065574 
L 522.547311 590.46005 
L 524.807707 598.849827 
L 527.068102 604.326992 
L 529.328498 581.895095 
L 531.588894 580.04423 
L 533.849289 578.355119 
L 536.109685 574.916553 
L 538.37008 581.821703 
L 540.630476 579.314636 
L 542.890871 593.671106 
L 545.151267 594.796828 
L 547.411662 599.385386 
L 549.672058 592.845935 
L 551.932453 581.805398 
L 554.192849 565.088836 
L 556.453244 551.801047 
L 558.71364 569.738581 
L 560.974035 577.808738 
L 563.234431 580.009771 
L 565.494826 578.565623 
L 567.755222 576.219491 
L 570.015617 577.914013 
L 572.276013 574.287011 
L 574.536409 579.966012 
L 576.796804 587.093401 
L 579.0572 579.297418 
L 581.317595 581.562614 
L 583.577991 591.001371 
L 585.838386 601.194623 
L 588.098782 590.473754 
L 590.359177 587.560767 
L 594.879968 583.621734 
L 597.140364 561.54551 
L 599.400759 543.913705 
L 601.661155 528.081884 
L 603.92155 530.084431 
L 606.181946 546.37734 
L 608.442341 573.560228 
L 610.702737 586.866944 
L 612.963133 583.204967 
L 615.223528 574.780778 
L 617.483924 564.612052 
L 619.744319 527.27597 
L 622.004715 508.084551 
L 624.26511 546.937683 
L 626.525506 546.193424 
L 628.785901 518.788882 
L 631.046297 501.460885 
L 633.306692 521.649606 
L 635.567088 530.35036 
L 637.827483 376.999671 
L 640.087879 423.806861 
L 642.348274 400.00517 
L 644.60867 239.002285 
L 646.869065 272.597517 
L 649.129461 162.83467 
L 651.389856 280.008521 
L 653.650252 283.999512 
L 655.910648 222.266631 
L 658.171043 184.65956 
L 660.431439 150.978075 
L 662.691834 146.490693 
L 664.95223 182.803025 
L 667.212625 145.683396 
L 669.473021 245.67196 
L 671.733416 105.834251 
L 673.993812 68.627244 
L 676.254207 123.574212 
L 678.514603 182.275853 
L 680.774998 105.62206 
L 683.035394 140.456184 
L 685.295789 101.298518 
L 687.556185 75.882935 
L 689.81658 88.682602 
L 692.076976 477.101615 
L 694.337371 95.701366 
L 696.597767 94.334383 
L 698.858163 128.124234 
L 701.118558 88.230861 
L 703.378954 161.816307 
L 705.639349 116.783849 
L 707.899745 83.409428 
L 710.16014 63.508632 
L 712.420536 71.40497 
L 714.680931 103.892775 
L 716.941327 107.145294 
L 719.201722 119.238769 
L 721.462118 88.502412 
L 723.722513 122.415342 
L 725.982909 86.709548 
L 728.243304 102.503068 
L 730.5037 92.506709 
L 732.764095 95.808422 
L 735.024491 124.633288 
L 737.284886 128.846824 
L 739.545282 183.785172 
L 741.805678 77.728881 
L 744.066073 65.628612 
L 746.326469 91.181657 
L 748.586864 104.591891 
L 750.84726 93.7977 
L 753.107655 109.488708 
L 755.368051 258.962629 
L 757.628446 64.885596 
L 759.888842 67.925035 
L 762.149237 79.465476 
L 764.409633 162.869152 
L 766.670028 66.048448 
L 768.930424 75.812002 
L 773.451215 151.697994 
L 775.71161 90.052585 
L 777.972006 75.40135 
L 780.232402 66.525208 
L 782.492797 78.269219 
L 784.753193 102.580794 
L 787.013588 77.520111 
L 789.273984 108.766634 
L 791.534379 239.999846 
L 793.794775 137.039685 
L 796.05517 101.19849 
L 798.315566 293.712139 
L 800.575961 80.727559 
L 802.836357 157.401873 
L 805.096752 95.675504 
L 807.357148 78.65251 
L 809.617543 76.61691 
L 811.877939 93.08612 
L 814.138334 94.307537 
L 816.39873 105.782105 
L 818.659125 88.206217 
L 820.919521 85.646209 
L 823.179917 92.521373 
L 825.440312 92.587481 
L 827.700708 106.485251 
L 829.961103 144.361437 
L 832.221499 99.150849 
L 834.481894 97.614122 
L 836.74229 67.119987 
L 839.002685 144.090964 
L 841.263081 98.475111 
L 843.523476 113.293324 
L 845.783872 67.967857 
L 848.044267 88.072597 
L 850.304663 471.469676 
L 852.565058 72.923003 
L 854.825454 76.000158 
L 857.085849 63.145065 
L 859.346245 239.882389 
L 861.60664 111.91861 
L 863.867036 106.783695 
L 866.127432 97.978392 
L 868.387827 92.906351 
L 870.648223 189.204803 
L 872.908618 111.342619 
L 875.169014 102.055918 
L 877.429409 153.176297 
L 879.689805 63.884287 
L 884.210596 99.071904 
L 886.470991 339.781982 
L 888.731387 83.755004 
L 890.991782 75.98479 
L 893.252178 96.345199 
L 895.512573 87.386833 
L 897.772969 112.069284 
L 900.033364 77.557124 
L 902.29376 102.1157 
L 904.554155 135.670218 
L 906.814551 81.092063 
L 909.074947 99.601419 
L 911.335342 88.848831 
L 913.595738 75.435129 
L 915.856133 77.745748 
L 918.116529 100.294633 
L 920.376924 76.13167 
L 922.63732 63.769314 
L 924.897715 90.60501 
L 927.158111 87.758739 
L 929.418506 640.774702 
L 931.678902 63.147455 
L 933.939297 102.000586 
L 936.199693 101.155012 
L 938.460088 83.319802 
L 940.720484 63.815088 
L 942.980879 329.868128 
L 945.241275 80.484541 
L 947.501671 125.45539 
L 949.762066 77.100416 
L 952.022462 65.667733 
L 954.282857 76.160483 
L 956.543253 89.72097 
L 958.803648 127.938094 
L 961.064044 87.174783 
L 963.324439 144.660442 
L 965.584835 76.12853 
L 967.84523 147.380448 
L 970.105626 112.314973 
L 972.366021 63.139631 
L 974.626417 101.075037 
L 976.886812 109.941621 
L 979.147208 87.703314 
L 981.407603 124.549331 
L 983.667999 149.41305 
L 988.18879 66.002018 
L 990.449186 87.704954 
L 992.709581 89.379236 
L 994.969977 86.287136 
L 997.230372 105.619062 
L 999.490768 112.521588 
L 1001.751163 101.699613 
L 1004.011559 158.700829 
L 1006.271954 87.71156 
L 1008.53235 102.512298 
L 1010.792745 109.544086 
L 1013.053141 92.913473 
L 1015.313536 64.098398 
L 1017.573932 73.224117 
L 1019.834327 183.678304 
L 1022.094723 115.094761 
L 1024.355118 120.448754 
L 1026.615514 75.424494 
L 1028.875909 96.254213 
L 1031.136305 78.423407 
L 1033.396701 114.600104 
L 1035.657096 111.04619 
L 1037.917492 88.630035 
L 1040.177887 96.323928 
L 1042.438283 107.421858 
L 1044.698678 105.701708 
L 1046.959074 101.43509 
L 1049.219469 199.648265 
L 1051.479865 91.802813 
L 1053.74026 75.440845 
L 1056.000656 143.01905 
L 1058.261051 76.781967 
L 1060.521447 77.79274 
L 1062.781842 88.006677 
L 1065.042238 153.000885 
L 1067.302633 100.923472 
L 1069.563029 259.915259 
L 1071.823424 102.030243 
L 1074.08382 137.373454 
L 1076.344216 100.355211 
L 1078.604611 208.778389 
L 1080.865007 71.86046 
L 1083.125402 85.850668 
L 1085.385798 123.596045 
L 1087.646193 101.211468 
L 1087.646193 101.211468 
" clip-path="url(#pee5c1438dc)" style="fill: none; stroke: #1f77b4; stroke-width: 2; stroke-linecap: square"/>
   </g>
   <g id="line2d_25">
    <path d="M 95.332557 659.115228 
L 97.592952 657.76504 
L 99.853348 658.142897 
L 102.113743 657.064155 
L 104.374139 656.493376 
L 106.634534 659.944264 
L 108.89493 663.777506 
L 111.155326 668.477524 
L 113.415721 668.138296 
L 115.676117 666.016688 
L 120.196908 667.249841 
L 122.457303 663.556391 
L 124.717699 658.78721 
L 126.978094 651.808257 
L 129.23849 652.94759 
L 131.498885 649.033435 
L 133.759281 642.497381 
L 136.019676 640.670012 
L 138.280072 645.502689 
L 140.540467 643.189307 
L 142.800863 642.95252 
L 145.061258 643.712075 
L 147.321654 655.4434 
L 149.582049 670.707792 
L 151.842445 680.069408 
L 154.102841 672.571576 
L 156.363236 662.115394 
L 158.623632 652.662171 
L 160.884027 660.16429 
L 163.144423 661.561387 
L 165.404818 657.755401 
L 167.665214 651.752575 
L 169.925609 640.221269 
L 172.186005 620.390821 
L 174.4464 612.90537 
L 176.706796 616.374998 
L 178.967191 626.720705 
L 183.487982 611.810218 
L 185.748378 609.348644 
L 188.008773 592.067428 
L 190.269169 579.353921 
L 192.529564 574.120032 
L 194.78996 574.760866 
L 197.050356 593.328294 
L 199.310751 605.966886 
L 201.571147 597.027237 
L 203.831542 585.032782 
L 206.091938 543.662534 
L 208.352333 594.329602 
L 210.612729 613.385456 
L 212.873124 575.072709 
L 215.13352 481.139059 
L 217.393915 516.803788 
L 219.654311 544.424573 
L 221.914706 609.787783 
L 224.175102 625.911815 
L 226.435497 628.369289 
L 228.695893 634.294541 
L 230.956288 632.812186 
L 233.216684 620.090737 
L 235.477079 601.836394 
L 237.737475 599.107955 
L 239.997871 598.792996 
L 242.258266 598.880421 
L 244.518662 588.021621 
L 246.779057 598.117657 
L 249.039453 609.56067 
L 251.299848 631.883591 
L 253.560244 633.498489 
L 255.820639 608.938132 
L 258.081035 592.452243 
L 260.34143 585.435985 
L 262.601826 575.525317 
L 264.862221 573.738357 
L 267.122617 584.518541 
L 269.383012 597.330155 
L 271.643408 610.924094 
L 273.903803 594.359751 
L 276.164199 585.125805 
L 278.424595 606.376789 
L 280.68499 618.056917 
L 282.945386 625.895183 
L 285.205781 624.443398 
L 287.466177 623.732873 
L 289.726572 623.756744 
L 291.986968 622.471094 
L 294.247363 625.364029 
L 296.507759 622.344197 
L 298.768154 623.591686 
L 301.02855 629.369286 
L 303.288945 628.66696 
L 305.549341 619.627705 
L 310.070132 606.909419 
L 312.330527 601.326276 
L 314.590923 597.384198 
L 316.851318 588.31976 
L 319.111714 574.772415 
L 321.37211 556.51177 
L 323.632505 558.118446 
L 325.892901 557.394193 
L 328.153296 569.908839 
L 330.413692 581.249038 
L 332.674087 594.127907 
L 334.934483 605.152069 
L 337.194878 592.937342 
L 339.455274 581.742524 
L 341.715669 575.399755 
L 343.976065 582.033893 
L 346.23646 592.884587 
L 348.496856 606.384355 
L 350.757251 609.95031 
L 353.017647 609.299638 
L 355.278042 603.067603 
L 357.538438 597.771846 
L 359.798833 600.680054 
L 362.059229 608.772161 
L 364.319625 606.025075 
L 366.58002 593.055314 
L 368.840416 588.558562 
L 371.100811 596.316641 
L 375.621602 615.875656 
L 377.881998 630.735708 
L 382.402789 629.618044 
L 384.663184 630.658918 
L 386.92358 603.330439 
L 391.444371 570.899278 
L 393.704766 574.967996 
L 395.965162 595.646877 
L 398.225557 610.971249 
L 400.485953 602.856584 
L 402.746348 587.390275 
L 405.006744 590.867119 
L 407.26714 583.531451 
L 409.527535 580.246605 
L 411.787931 585.972926 
L 414.048326 598.84451 
L 416.308722 609.542281 
L 418.569117 615.252977 
L 420.829513 606.284983 
L 423.089908 599.99251 
L 425.350304 599.105894 
L 427.610699 597.129748 
L 429.871095 588.036168 
L 432.13149 580.956966 
L 434.391886 585.22855 
L 436.652281 608.763634 
L 438.912677 621.02212 
L 441.173072 604.881034 
L 443.433468 582.287335 
L 445.693864 567.994303 
L 447.954259 569.671701 
L 450.214655 581.737464 
L 452.47505 584.828837 
L 454.735446 591.18866 
L 456.995841 603.203565 
L 459.256237 609.381979 
L 461.516632 611.873163 
L 463.777028 597.796818 
L 466.037423 589.243342 
L 468.297819 585.41523 
L 470.558214 585.246424 
L 472.81861 584.306702 
L 475.079005 591.033535 
L 477.339401 596.080768 
L 479.599796 596.747206 
L 481.860192 606.116904 
L 484.120587 608.509067 
L 486.380983 624.856042 
L 488.641379 628.767761 
L 490.901774 622.36097 
L 493.16217 606.18177 
L 495.422565 594.823557 
L 497.682961 588.251872 
L 499.943356 589.855924 
L 502.203752 585.15155 
L 504.464147 585.476511 
L 506.724543 584.659165 
L 508.984938 588.872864 
L 511.245334 604.546819 
L 513.505729 625.446628 
L 515.766125 635.778045 
L 518.02652 624.711131 
L 520.286916 607.468544 
L 522.547311 602.975516 
L 524.807707 601.226037 
L 527.068102 591.402185 
L 529.328498 589.178945 
L 531.588894 588.965771 
L 533.849289 592.150801 
L 536.109685 599.118239 
L 538.37008 610.31027 
L 540.630476 606.2758 
L 542.890871 592.691419 
L 545.151267 588.960734 
L 547.411662 589.526348 
L 549.672058 584.903636 
L 551.932453 585.355424 
L 554.192849 593.303275 
L 556.453244 608.718586 
L 558.71364 589.044036 
L 560.974035 580.881278 
L 563.234431 577.65865 
L 565.494826 584.074506 
L 567.755222 597.291338 
L 570.015617 601.161406 
L 572.276013 596.311675 
L 574.536409 587.139549 
L 576.796804 585.363764 
L 579.0572 603.481957 
L 581.317595 614.798308 
L 583.577991 617.15217 
L 585.838386 612.342801 
L 588.098782 611.857655 
L 590.359177 591.607863 
L 592.619573 575.304951 
L 594.879968 579.165157 
L 597.140364 582.612273 
L 599.400759 592.309674 
L 601.661155 628.623693 
L 603.92155 631.324232 
L 606.181946 606.244527 
L 608.442341 575.265362 
L 610.702737 585.35177 
L 612.963133 600.603148 
L 615.223528 596.7458 
L 617.483924 585.248978 
L 619.744319 612.020534 
L 622.004715 637.248945 
L 624.26511 618.138088 
L 626.525506 616.955534 
L 628.785901 612.174769 
L 631.046297 582.736641 
L 633.306692 629.893647 
L 635.567088 682.529412 
L 637.827483 706.274378 
L 640.087879 640.942336 
L 642.348274 720.225887 
L 644.60867 786.973615 
L 646.869065 761.588697 
L 649.129461 781.306315 
L 651.389856 688.120461 
L 653.650252 780.741076 
L 655.910648 737.684377 
L 658.171043 808.365135 
L 660.431439 788.430811 
L 662.691834 825.55602 
L 664.95223 787.973307 
L 667.212625 816.13086 
L 669.473021 769.894323 
L 671.733416 814.40905 
L 673.993812 846.805442 
L 676.254207 831.488805 
L 678.514603 788.566376 
L 680.774998 821.874095 
L 683.035394 814.109052 
L 687.556185 842.239731 
L 689.81658 836.64926 
L 692.076976 575.729566 
L 694.337371 829.980413 
L 696.597767 832.205826 
L 698.858163 831.956183 
L 701.118558 841.618423 
L 703.378954 776.978603 
L 705.639349 822.520252 
L 707.899745 832.922906 
L 710.16014 848.996827 
L 712.420536 841.843039 
L 714.680931 827.485378 
L 716.941327 823.429828 
L 719.201722 808.729347 
L 721.462118 835.866095 
L 723.722513 829.92938 
L 725.982909 837.031973 
L 728.243304 820.087943 
L 730.5037 827.439001 
L 732.764095 836.305015 
L 735.024491 812.587971 
L 737.284886 812.999979 
L 739.545282 745.928224 
L 741.805678 847.879164 
L 744.066073 846.710537 
L 746.326469 845.219843 
L 748.586864 815.026549 
L 750.84726 832.635438 
L 753.107655 808.327151 
L 755.368051 673.136323 
L 757.628446 847.593023 
L 759.888842 845.26715 
L 762.149237 835.603335 
L 764.409633 770.993422 
L 766.670028 846.318242 
L 768.930424 842.965939 
L 771.190819 818.008144 
L 773.451215 772.187155 
L 775.71161 827.976102 
L 777.972006 839.760563 
L 780.232402 845.868475 
L 782.492797 834.135308 
L 784.753193 824.442504 
L 787.013588 839.18964 
L 789.273984 815.062996 
L 791.534379 693.767907 
L 793.794775 795.225175 
L 796.05517 838.798825 
L 798.315566 641.963158 
L 800.575961 832.139595 
L 802.836357 780.32667 
L 805.096752 828.827011 
L 807.357148 833.830553 
L 809.617543 835.699049 
L 811.877939 842.759277 
L 814.138334 830.412312 
L 816.39873 806.551575 
L 818.659125 836.184702 
L 820.919521 839.182023 
L 823.179917 819.800922 
L 825.440312 819.845976 
L 827.700708 818.330754 
L 829.961103 792.273705 
L 832.221499 837.668066 
L 834.481894 828.172446 
L 836.74229 845.195659 
L 839.002685 779.420833 
L 841.263081 813.840479 
L 843.523476 835.318992 
L 845.783872 844.347736 
L 848.044267 839.893574 
L 850.304663 453.116687 
L 852.565058 839.406764 
L 854.825454 836.315478 
L 857.085849 849.170537 
L 859.346245 684.709642 
L 861.60664 825.187812 
L 863.867036 841.538986 
L 866.127432 814.337309 
L 868.387827 823.573217 
L 870.648223 735.373454 
L 872.908618 813.707005 
L 875.169014 810.288386 
L 877.429409 771.43782 
L 879.689805 848.431359 
L 881.9502 836.088816 
L 884.210596 825.539278 
L 886.470991 583.794827 
L 888.731387 841.135226 
L 890.991782 848.471404 
L 893.252178 827.913557 
L 895.512573 833.896087 
L 897.772969 800.24632 
L 900.033364 841.044721 
L 902.29376 823.300155 
L 904.554155 776.645402 
L 906.814551 832.513211 
L 909.074947 826.352081 
L 911.335342 834.647384 
L 913.595738 843.669882 
L 915.856133 834.56993 
L 918.116529 824.302735 
L 920.376924 845.736909 
L 922.63732 848.546274 
L 924.897715 821.758433 
L 927.158111 836.905887 
L 929.418506 283.635055 
L 931.678902 849.168147 
L 933.939297 822.517859 
L 936.199693 823.442402 
L 938.460088 828.995821 
L 940.720484 848.500567 
L 942.980879 582.643711 
L 945.241275 844.084194 
L 947.501671 795.562224 
L 949.762066 835.215226 
L 952.022462 846.647866 
L 954.282857 848.429422 
L 956.543253 822.594584 
L 958.803648 784.377531 
L 961.064044 825.140887 
L 963.324439 768.831083 
L 965.584835 836.187058 
L 967.84523 764.9352 
L 970.105626 822.456393 
L 972.366021 849.175908 
L 974.626417 811.240527 
L 976.886812 815.03623 
L 979.147208 837.588426 
L 981.407603 812.45411 
L 983.667999 775.184205 
L 985.928394 826.630865 
L 988.18879 846.313594 
L 990.449186 848.637138 
L 992.709581 828.686348 
L 994.969977 826.028458 
L 997.230372 810.094702 
L 999.490768 824.358119 
L 1001.751163 842.484491 
L 1004.011559 753.65749 
L 1006.271954 836.982005 
L 1008.53235 822.085125 
L 1010.792745 815.732907 
L 1015.313536 848.217211 
L 1017.573932 839.09148 
L 1019.834327 729.564968 
L 1022.094723 809.519578 
L 1024.355118 804.142903 
L 1026.615514 849.165082 
L 1028.875909 816.061368 
L 1031.136305 846.174043 
L 1033.396701 810.956774 
L 1035.657096 825.830627 
L 1037.917492 835.966159 
L 1040.177887 827.791814 
L 1042.438283 817.1756 
L 1044.698678 817.797857 
L 1046.959074 810.904529 
L 1049.219469 761.794468 
L 1051.479865 824.151568 
L 1053.74026 847.420307 
L 1056.000656 769.425821 
L 1058.261051 835.534207 
L 1060.521447 846.804739 
L 1062.781842 836.568237 
L 1065.042238 794.996798 
L 1067.302633 828.537904 
L 1069.563029 652.400366 
L 1071.823424 822.574151 
L 1074.08382 774.942235 
L 1076.344216 848.23722 
L 1078.604611 703.606553 
L 1080.865007 840.455233 
L 1083.125402 838.746749 
L 1085.385798 800.812862 
L 1087.646193 824.299733 
L 1087.646193 824.299733 
" clip-path="url(#pee5c1438dc)" style="fill: none; stroke: #ff7f0e; stroke-width: 2; stroke-linecap: square"/>
   </g>
   <g id="line2d_26">
    <path d="M 95.332557 649.19594 
L 99.853348 646.874381 
L 102.113743 647.09388 
L 104.374139 646.757815 
L 106.634534 642.606662 
L 108.89493 637.334355 
L 111.155326 629.457554 
L 113.415721 622.468728 
L 115.676117 621.440386 
L 117.936512 618.257114 
L 120.196908 616.698133 
L 122.457303 617.857073 
L 124.717699 626.152374 
L 126.978094 636.862233 
L 129.23849 645.278388 
L 131.498885 647.68463 
L 133.759281 643.509091 
L 136.019676 632.139001 
L 138.280072 627.485648 
L 140.540467 637.491307 
L 142.800863 640.393495 
L 145.061258 645.198623 
L 147.321654 634.384028 
L 149.582049 625.762149 
L 151.842445 619.040212 
L 154.102841 616.248851 
L 156.363236 611.22919 
L 158.623632 619.122857 
L 160.884027 617.792629 
L 163.144423 633.380564 
L 165.404818 631.74128 
L 167.665214 623.696493 
L 169.925609 612.29438 
L 172.186005 618.633049 
L 174.4464 611.801527 
L 176.706796 607.056673 
L 178.967191 605.02297 
L 181.227587 610.196186 
L 183.487982 620.573331 
L 185.748378 635.472925 
L 188.008773 644.627739 
L 190.269169 648.386675 
L 192.529564 639.893028 
L 194.78996 627.456811 
L 197.050356 601.238336 
L 199.310751 478.061225 
L 201.571147 512.865738 
L 203.831542 624.849319 
L 206.091938 675.753924 
L 208.352333 685.256281 
L 210.612729 668.6237 
L 212.873124 617.550688 
L 215.13352 623.981584 
L 217.393915 572.585789 
L 219.654311 586.944577 
L 221.914706 602.314138 
L 226.435497 582.309332 
L 228.695893 582.671658 
L 230.956288 575.44232 
L 233.216684 559.763141 
L 235.477079 577.349664 
L 237.737475 596.943021 
L 239.997871 606.562929 
L 242.258266 604.511891 
L 246.779057 590.836384 
L 249.039453 603.250675 
L 251.299848 600.944507 
L 253.560244 594.798819 
L 255.820639 603.707031 
L 258.081035 609.277547 
L 260.34143 604.67313 
L 262.601826 617.529417 
L 264.862221 618.03984 
L 267.122617 625.514914 
L 269.383012 634.935164 
L 271.643408 636.782211 
L 273.903803 627.934789 
L 276.164199 616.076695 
L 278.424595 603.164187 
L 280.68499 598.957984 
L 282.945386 604.812349 
L 285.205781 624.31205 
L 287.466177 627.162678 
L 289.726572 621.41518 
L 291.986968 629.27064 
L 294.247363 623.866048 
L 296.507759 617.155309 
L 298.768154 598.517112 
L 301.02855 595.538064 
L 303.288945 611.721762 
L 305.549341 624.369795 
L 307.809736 623.10394 
L 310.070132 605.130143 
L 312.330527 584.046676 
L 314.590923 581.776655 
L 319.111714 609.440028 
L 321.37211 634.408507 
L 323.632505 624.365976 
L 325.892901 623.783894 
L 328.153296 612.449459 
L 330.413692 611.941941 
L 332.674087 609.87591 
L 334.934483 614.451912 
L 337.194878 619.451403 
L 339.455274 631.359394 
L 341.715669 641.331554 
L 343.976065 640.611659 
L 346.23646 644.861949 
L 348.496856 632.810382 
L 350.757251 615.188252 
L 353.017647 600.989719 
L 355.278042 612.451989 
L 357.538438 613.56485 
L 359.798833 600.369429 
L 362.059229 590.010417 
L 364.319625 578.498695 
L 366.58002 582.738491 
L 368.840416 592.546953 
L 371.100811 614.328107 
L 373.361207 614.620319 
L 375.621602 616.076555 
L 377.881998 600.401265 
L 380.142393 606.675256 
L 382.402789 605.718948 
L 384.663184 604.891271 
L 386.92358 607.027438 
L 389.183975 612.350649 
L 391.444371 610.393197 
L 393.704766 612.776763 
L 395.965162 604.488395 
L 398.225557 586.464866 
L 400.485953 591.30115 
L 402.746348 612.209579 
L 405.006744 625.077368 
L 407.26714 640.876252 
L 409.527535 644.049873 
L 411.787931 638.137927 
L 416.308722 597.930626 
L 418.569117 591.171746 
L 420.829513 599.14471 
L 423.089908 611.822704 
L 425.350304 616.004849 
L 427.610699 619.410666 
L 429.871095 634.7423 
L 432.13149 638.82669 
L 434.391886 605.780229 
L 436.652281 577.721454 
L 438.912677 581.302495 
L 441.173072 609.147464 
L 443.433468 624.97139 
L 445.693864 639.946439 
L 447.954259 637.341898 
L 450.214655 617.796798 
L 452.47505 606.210162 
L 454.735446 611.48795 
L 456.995841 605.678468 
L 459.256237 615.777713 
L 461.516632 617.471977 
L 463.777028 624.650575 
L 466.037423 616.479852 
L 468.297819 612.508913 
L 470.558214 617.240461 
L 472.81861 605.339896 
L 475.079005 613.958238 
L 477.339401 627.11831 
L 479.599796 627.775963 
L 481.860192 619.100158 
L 486.380983 604.442247 
L 488.641379 598.340857 
L 490.901774 599.202642 
L 493.16217 601.945956 
L 495.422565 600.467536 
L 497.682961 590.38729 
L 499.943356 585.493636 
L 502.203752 590.322471 
L 504.464147 593.657003 
L 506.724543 602.976289 
L 508.984938 613.374985 
L 511.245334 619.048364 
L 513.505729 618.258097 
L 515.766125 619.003949 
L 518.02652 605.329449 
L 520.286916 592.357134 
L 522.547311 583.688076 
L 524.807707 577.298948 
L 527.068102 583.34934 
L 529.328498 607.843753 
L 533.849289 606.016454 
L 536.109685 611.371595 
L 538.37008 591.916145 
L 540.630476 595.306595 
L 542.890871 596.24107 
L 545.151267 597.763975 
L 547.411662 590.0382 
L 549.672058 601.835434 
L 551.932453 616.593092 
L 554.192849 629.745971 
L 556.453244 626.11597 
L 558.71364 625.940067 
L 560.974035 622.335436 
L 563.234431 625.283327 
L 565.494826 621.844808 
L 567.755222 609.589554 
L 570.015617 602.85382 
L 572.276013 610.933815 
L 574.536409 614.571664 
L 576.796804 607.064357 
L 579.0572 597.937419 
L 581.317595 582.513464 
L 583.577991 569.476518 
L 585.838386 564.207865 
L 588.098782 573.278815 
L 590.359177 596.186605 
L 592.619573 614.032053 
L 594.879968 616.234983 
L 597.140364 629.212053 
L 599.400759 638.956796 
L 601.661155 618.927276 
L 603.92155 611.524752 
L 606.181946 621.038026 
L 608.442341 621.196361 
L 610.702737 598.105475 
L 612.963133 587.10762 
L 615.223528 600.746162 
L 617.483924 617.645703 
L 619.744319 623.102066 
L 622.004715 617.39315 
L 624.26511 597.953161 
L 626.525506 598.793535 
L 628.785901 630.534739 
L 631.046297 677.294164 
L 633.306692 609.970269 
L 635.567088 548.611824 
L 637.827483 678.221775 
L 640.087879 696.742551 
L 642.348274 641.260527 
L 644.60867 735.515766 
L 646.869065 727.305359 
L 649.129461 817.35233 
L 651.389856 793.362638 
L 653.650252 696.751019 
L 655.910648 801.54057 
L 658.171043 769.549046 
L 660.431439 822.082794 
L 662.691834 789.444875 
L 664.95223 790.715298 
L 667.212625 799.67736 
L 669.473021 745.925331 
L 671.733416 841.248332 
L 673.993812 846.058953 
L 676.254207 806.42859 
L 678.514603 790.649355 
L 680.774998 833.995431 
L 683.035394 806.926366 
L 685.295789 832.00367 
L 687.556185 843.368963 
L 689.81658 836.159799 
L 692.076976 708.660439 
L 694.337371 835.809872 
L 696.597767 834.951402 
L 698.858163 801.411214 
L 701.118558 843.537651 
L 703.378954 822.696691 
L 705.639349 822.187545 
L 707.899745 845.159244 
L 710.16014 848.986184 
L 712.420536 848.243638 
L 714.680931 830.113429 
L 716.941327 830.916524 
L 719.201722 833.523558 
L 721.462118 837.123084 
L 723.722513 820.983054 
L 725.982909 837.750124 
L 728.243304 838.900619 
L 730.5037 841.545933 
L 732.764095 829.378219 
L 735.024491 836.445632 
L 737.284886 819.644857 
L 739.545282 831.778192 
L 741.805678 847.719597 
L 744.066073 849.152521 
L 746.326469 836.694973 
L 748.586864 841.873164 
L 750.84726 835.058453 
L 753.107655 843.675733 
L 755.368051 829.392681 
L 757.628446 849.012979 
L 759.888842 848.299417 
L 762.149237 846.422769 
L 764.409633 827.629084 
L 766.670028 849.124937 
L 768.930424 842.713736 
L 771.190819 829.611371 
L 773.451215 837.606529 
L 775.71161 843.462896 
L 780.232402 849.097988 
L 782.492797 849.087088 
L 784.753193 834.468391 
L 787.013588 844.781913 
L 789.273984 837.66196 
L 791.534379 827.723907 
L 793.794775 829.226808 
L 796.05517 821.494311 
L 798.315566 825.816352 
L 800.575961 848.624478 
L 802.836357 823.764746 
L 805.096752 836.989832 
L 807.357148 849.008585 
L 809.617543 849.175621 
L 811.877939 825.646187 
L 814.138334 836.771758 
L 816.39873 849.157928 
L 818.659125 837.100693 
L 820.919521 845.607899 
L 823.179917 849.169276 
L 825.440312 849.058143 
L 829.961103 824.856482 
L 832.221499 824.672685 
L 834.481894 835.705037 
L 836.74229 849.175987 
L 839.002685 837.97988 
L 841.263081 849.175982 
L 843.523476 812.879264 
L 845.783872 849.175987 
L 848.044267 833.525411 
L 850.304663 836.905306 
L 852.565058 849.161834 
L 857.085849 849.175994 
L 861.60664 824.38519 
L 863.867036 813.168978 
L 866.127432 849.175912 
L 868.387827 845.012085 
L 870.648223 836.913391 
L 872.908618 836.442051 
L 875.169014 849.147323 
L 877.429409 836.877479 
L 879.689805 849.175994 
L 881.9502 843.874155 
L 884.210596 836.880402 
L 886.470991 837.914795 
L 888.731387 836.601374 
L 890.991782 837.035435 
L 893.252178 837.232859 
L 895.512573 840.208711 
L 897.772969 849.175994 
L 900.033364 842.88978 
L 902.29376 836.07579 
L 904.554155 849.175994 
L 906.814551 847.886368 
L 909.074947 835.538091 
L 911.335342 837.995397 
L 913.595738 842.386604 
L 915.856133 849.175994 
L 918.116529 836.894243 
L 920.376924 839.623019 
L 922.63732 849.175994 
L 924.897715 849.128188 
L 927.158111 837.959763 
L 929.418506 837.081856 
L 931.678902 849.175994 
L 933.939297 836.973185 
L 936.199693 836.894198 
L 938.460088 849.175994 
L 940.720484 849.175994 
L 942.980879 848.979712 
L 945.241275 836.922908 
L 947.501671 840.474001 
L 949.762066 849.175994 
L 952.022462 849.175994 
L 954.282857 836.901753 
L 956.543253 849.175994 
L 961.064044 849.175994 
L 963.324439 848.000071 
L 965.584835 849.175994 
L 967.84523 849.175994 
L 970.105626 826.720281 
L 972.366021 849.175994 
L 974.626417 849.175994 
L 976.886812 836.513782 
L 979.147208 837.007949 
L 981.407603 824.488172 
L 983.667999 836.894355 
L 985.928394 827.904452 
L 988.18879 849.175994 
L 990.449186 825.149562 
L 992.709581 843.426023 
L 994.969977 849.175984 
L 997.230372 845.777881 
L 999.490768 824.611875 
L 1001.751163 817.307557 
L 1004.011559 849.133316 
L 1006.271954 836.798025 
L 1008.53235 836.894182 
L 1010.792745 836.214656 
L 1013.053141 836.899096 
L 1015.313536 849.175994 
L 1017.573932 849.175994 
L 1019.834327 848.248333 
L 1022.094723 836.87725 
L 1026.615514 836.902026 
L 1028.875909 849.175994 
L 1031.136305 836.894178 
L 1033.396701 835.934699 
L 1035.657096 824.614785 
L 1037.917492 836.895453 
L 1040.177887 837.375847 
L 1042.438283 836.894178 
L 1044.698678 837.992044 
L 1046.959074 849.15201 
L 1049.219469 800.9592 
L 1051.479865 845.53723 
L 1053.74026 838.6305 
L 1056.000656 849.046744 
L 1058.261051 849.175444 
L 1060.521447 836.894178 
L 1062.781842 836.916724 
L 1065.042238 813.493928 
L 1067.302633 832.030268 
L 1069.563029 849.175994 
L 1071.823424 836.887178 
L 1074.08382 849.175994 
L 1076.344216 812.89917 
L 1078.604611 849.106701 
L 1080.865007 849.175994 
L 1083.125402 840.928931 
L 1085.385798 837.082665 
L 1087.646193 835.980383 
L 1087.646193 835.980383 
" clip-path="url(#pee5c1438dc)" style="fill: none; stroke: #2ca02c; stroke-width: 2; stroke-linecap: square"/>
   </g>
   <g id="patch_3">
    <path d="M 45.716875 888.477813 
L 45.716875 23.837812 
" style="fill: none; stroke: #000000; stroke-width: 0.8; stroke-linejoin: miter; stroke-linecap: square"/>
   </g>
   <g id="patch_4">
    <path d="M 1137.261875 888.477813 
L 1137.261875 23.837812 
" style="fill: none; stroke: #000000; stroke-width: 0.8; stroke-linejoin: miter; stroke-linecap: square"/>
   </g>
   <g id="patch_5">
    <path d="M 45.716875 888.477813 
L 1137.261875 888.477813 
" style="fill: none; stroke: #000000; stroke-width: 0.8; stroke-linejoin: miter; stroke-linecap: square"/>
   </g>
   <g id="patch_6">
    <path d="M 45.716875 23.837812 
L 1137.261875 23.837812 
" style="fill: none; stroke: #000000; stroke-width: 0.8; stroke-linejoin: miter; stroke-linecap: square"/>
   </g>
   <g id="text_14">
    <!-- Link 2: Evolucin de Probabilidades de Accin -->
    <g transform="translate(410.401562 17.837812) scale(0.14 -0.14)">
     <defs>
      <path id="DejaVuSans-Bold-4c" d="M 588 4666 
L 1791 4666 
L 1791 909 
L 3903 909 
L 3903 0 
L 588 0 
L 588 4666 
z
" transform="scale(0.015625)"/>
      <path id="DejaVuSans-Bold-69" d="M 538 3500 
L 1656 3500 
L 1656 0 
L 538 0 
L 538 3500 
z
M 538 4863 
L 1656 4863 
L 1656 3950 
L 538 3950 
L 538 4863 
z
" transform="scale(0.015625)"/>
      <path id="DejaVuSans-Bold-6e" d="M 4056 2131 
L 4056 0 
L 2931 0 
L 2931 347 
L 2931 1631 
Q 2931 2084 2911 2256 
Q 2891 2428 2841 2509 
Q 2775 2619 2662 2680 
Q 2550 2741 2406 2741 
Q 2056 2741 1856 2470 
Q 1656 2200 1656 1722 
L 1656 0 
L 538 0 
L 538 3500 
L 1656 3500 
L 1656 2988 
Q 1909 3294 2193 3439 
Q 2478 3584 2822 3584 
Q 3428 3584 3742 3212 
Q 4056 2841 4056 2131 
z
" transform="scale(0.015625)"/>
      <path id="DejaVuSans-Bold-6b" d="M 538 4863 
L 1656 4863 
L 1656 2216 
L 2944 3500 
L 4244 3500 
L 2534 1894 
L 4378 0 
L 3022 0 
L 1656 1459 
L 1656 0 
L 538 0 
L 538 4863 
z
" transform="scale(0.015625)"/>
      <path id="DejaVuSans-Bold-20" transform="scale(0.015625)"/>
      <path id="DejaVuSans-Bold-32" d="M 1844 884 
L 3897 884 
L 3897 0 
L 506 0 
L 506 884 
L 2209 2388 
Q 2438 2594 2547 2791 
Q 2656 2988 2656 3200 
Q 2656 3528 2436 3728 
Q 2216 3928 1850 3928 
Q 1569 3928 1234 3808 
Q 900 3688 519 3450 
L 519 4475 
Q 925 4609 1322 4679 
Q 1719 4750 2100 4750 
Q 2938 4750 3402 4381 
Q 3866 4013 3866 3353 
Q 3866 2972 3669 2642 
Q 3472 2313 2841 1759 
L 1844 884 
z
" transform="scale(0.015625)"/>
      <path id="DejaVuSans-Bold-3a" d="M 716 3500 
L 1844 3500 
L 1844 2291 
L 716 2291 
L 716 3500 
z
M 716 1209 
L 1844 1209 
L 1844 0 
L 716 0 
L 716 1209 
z
" transform="scale(0.015625)"/>
      <path id="DejaVuSans-Bold-45" d="M 588 4666 
L 3834 4666 
L 3834 3756 
L 1791 3756 
L 1791 2888 
L 3713 2888 
L 3713 1978 
L 1791 1978 
L 1791 909 
L 3903 909 
L 3903 0 
L 588 0 
L 588 4666 
z
" transform="scale(0.015625)"/>
      <path id="DejaVuSans-Bold-76" d="M 97 3500 
L 1216 3500 
L 2088 1081 
L 2956 3500 
L 4078 3500 
L 2700 0 
L 1472 0 
L 97 3500 
z
" transform="scale(0.015625)"/>
      <path id="DejaVuSans-Bold-6f" d="M 2203 2784 
Q 1831 2784 1636 2517 
Q 1441 2250 1441 1747 
Q 1441 1244 1636 976 
Q 1831 709 2203 709 
Q 2569 709 2762 976 
Q 2956 1244 2956 1747 
Q 2956 2250 2762 2517 
Q 2569 2784 2203 2784 
z
M 2203 3584 
Q 3106 3584 3614 3096 
Q 4122 2609 4122 1747 
Q 4122 884 3614 396 
Q 3106 -91 2203 -91 
Q 1297 -91 786 396 
Q 275 884 275 1747 
Q 275 2609 786 3096 
Q 1297 3584 2203 3584 
z
" transform="scale(0.015625)"/>
      <path id="DejaVuSans-Bold-6c" d="M 538 4863 
L 1656 4863 
L 1656 0 
L 538 0 
L 538 4863 
z
" transform="scale(0.015625)"/>
      <path id="DejaVuSans-Bold-75" d="M 500 1363 
L 500 3500 
L 1625 3500 
L 1625 3150 
Q 1625 2866 1622 2436 
Q 1619 2006 1619 1863 
Q 1619 1441 1641 1255 
Q 1663 1069 1716 984 
Q 1784 875 1895 815 
Q 2006 756 2150 756 
Q 2500 756 2700 1025 
Q 2900 1294 2900 1772 
L 2900 3500 
L 4019 3500 
L 4019 0 
L 2900 0 
L 2900 506 
Q 2647 200 2364 54 
Q 2081 -91 1741 -91 
Q 1134 -91 817 281 
Q 500 653 500 1363 
z
" transform="scale(0.015625)"/>
      <path id="DejaVuSans-Bold-63" d="M 3366 3391 
L 3366 2478 
Q 3138 2634 2908 2709 
Q 2678 2784 2431 2784 
Q 1963 2784 1702 2511 
Q 1441 2238 1441 1747 
Q 1441 1256 1702 982 
Q 1963 709 2431 709 
Q 2694 709 2930 787 
Q 3166 866 3366 1019 
L 3366 103 
Q 3103 6 2833 -42 
Q 2563 -91 2291 -91 
Q 1344 -91 809 395 
Q 275 881 275 1747 
Q 275 2613 809 3098 
Q 1344 3584 2291 3584 
Q 2566 3584 2833 3536 
Q 3100 3488 3366 3391 
z
" transform="scale(0.015625)"/>
      <path id="DejaVuSans-Bold-f3" d="M 2203 2784 
Q 1831 2784 1636 2517 
Q 1441 2250 1441 1747 
Q 1441 1244 1636 976 
Q 1831 709 2203 709 
Q 2569 709 2762 976 
Q 2956 1244 2956 1747 
Q 2956 2250 2762 2517 
Q 2569 2784 2203 2784 
z
M 2203 3584 
Q 3106 3584 3614 3096 
Q 4122 2609 4122 1747 
Q 4122 884 3614 396 
Q 3106 -91 2203 -91 
Q 1297 -91 786 396 
Q 275 884 275 1747 
Q 275 2609 786 3096 
Q 1297 3584 2203 3584 
z
M 2694 5119 
L 3578 5119 
L 2425 3944 
L 1813 3944 
L 2694 5119 
z
" transform="scale(0.015625)"/>
      <path id="DejaVuSans-Bold-64" d="M 2919 2988 
L 2919 4863 
L 4044 4863 
L 4044 0 
L 2919 0 
L 2919 506 
Q 2688 197 2409 53 
Q 2131 -91 1766 -91 
Q 1119 -91 703 423 
Q 288 938 288 1747 
Q 288 2556 703 3070 
Q 1119 3584 1766 3584 
Q 2128 3584 2408 3439 
Q 2688 3294 2919 2988 
z
M 2181 722 
Q 2541 722 2730 984 
Q 2919 1247 2919 1747 
Q 2919 2247 2730 2509 
Q 2541 2772 2181 2772 
Q 1825 2772 1636 2509 
Q 1447 2247 1447 1747 
Q 1447 1247 1636 984 
Q 1825 722 2181 722 
z
" transform="scale(0.015625)"/>
      <path id="DejaVuSans-Bold-65" d="M 4031 1759 
L 4031 1441 
L 1416 1441 
Q 1456 1047 1700 850 
Q 1944 653 2381 653 
Q 2734 653 3104 758 
Q 3475 863 3866 1075 
L 3866 213 
Q 3469 63 3072 -14 
Q 2675 -91 2278 -91 
Q 1328 -91 801 392 
Q 275 875 275 1747 
Q 275 2603 792 3093 
Q 1309 3584 2216 3584 
Q 3041 3584 3536 3087 
Q 4031 2591 4031 1759 
z
M 2881 2131 
Q 2881 2450 2695 2645 
Q 2509 2841 2209 2841 
Q 1884 2841 1681 2658 
Q 1478 2475 1428 2131 
L 2881 2131 
z
" transform="scale(0.015625)"/>
      <path id="DejaVuSans-Bold-50" d="M 588 4666 
L 2584 4666 
Q 3475 4666 3951 4270 
Q 4428 3875 4428 3144 
Q 4428 2409 3951 2014 
Q 3475 1619 2584 1619 
L 1791 1619 
L 1791 0 
L 588 0 
L 588 4666 
z
M 1791 3794 
L 1791 2491 
L 2456 2491 
Q 2806 2491 2997 2661 
Q 3188 2831 3188 3144 
Q 3188 3456 2997 3625 
Q 2806 3794 2456 3794 
L 1791 3794 
z
" transform="scale(0.015625)"/>
      <path id="DejaVuSans-Bold-72" d="M 3138 2547 
Q 2991 2616 2845 2648 
Q 2700 2681 2553 2681 
Q 2122 2681 1889 2404 
Q 1656 2128 1656 1613 
L 1656 0 
L 538 0 
L 538 3500 
L 1656 3500 
L 1656 2925 
Q 1872 3269 2151 3426 
Q 2431 3584 2822 3584 
Q 2878 3584 2943 3579 
Q 3009 3575 3134 3559 
L 3138 2547 
z
" transform="scale(0.015625)"/>
      <path id="DejaVuSans-Bold-62" d="M 2400 722 
Q 2759 722 2948 984 
Q 3138 1247 3138 1747 
Q 3138 2247 2948 2509 
Q 2759 2772 2400 2772 
Q 2041 2772 1848 2508 
Q 1656 2244 1656 1747 
Q 1656 1250 1848 986 
Q 2041 722 2400 722 
z
M 1656 2988 
Q 1888 3294 2169 3439 
Q 2450 3584 2816 3584 
Q 3463 3584 3878 3070 
Q 4294 2556 4294 1747 
Q 4294 938 3878 423 
Q 3463 -91 2816 -91 
Q 2450 -91 2169 54 
Q 1888 200 1656 506 
L 1656 0 
L 538 0 
L 538 4863 
L 1656 4863 
L 1656 2988 
z
" transform="scale(0.015625)"/>
      <path id="DejaVuSans-Bold-61" d="M 2106 1575 
Q 1756 1575 1579 1456 
Q 1403 1338 1403 1106 
Q 1403 894 1545 773 
Q 1688 653 1941 653 
Q 2256 653 2472 879 
Q 2688 1106 2688 1447 
L 2688 1575 
L 2106 1575 
z
M 3816 1997 
L 3816 0 
L 2688 0 
L 2688 519 
Q 2463 200 2181 54 
Q 1900 -91 1497 -91 
Q 953 -91 614 226 
Q 275 544 275 1050 
Q 275 1666 698 1953 
Q 1122 2241 2028 2241 
L 2688 2241 
L 2688 2328 
Q 2688 2594 2478 2717 
Q 2269 2841 1825 2841 
Q 1466 2841 1156 2769 
Q 847 2697 581 2553 
L 581 3406 
Q 941 3494 1303 3539 
Q 1666 3584 2028 3584 
Q 2975 3584 3395 3211 
Q 3816 2838 3816 1997 
z
" transform="scale(0.015625)"/>
      <path id="DejaVuSans-Bold-73" d="M 3272 3391 
L 3272 2541 
Q 2913 2691 2578 2766 
Q 2244 2841 1947 2841 
Q 1628 2841 1473 2761 
Q 1319 2681 1319 2516 
Q 1319 2381 1436 2309 
Q 1553 2238 1856 2203 
L 2053 2175 
Q 2913 2066 3209 1816 
Q 3506 1566 3506 1031 
Q 3506 472 3093 190 
Q 2681 -91 1863 -91 
Q 1516 -91 1145 -36 
Q 775 19 384 128 
L 384 978 
Q 719 816 1070 734 
Q 1422 653 1784 653 
Q 2113 653 2278 743 
Q 2444 834 2444 1013 
Q 2444 1163 2330 1236 
Q 2216 1309 1875 1350 
L 1678 1375 
Q 931 1469 631 1722 
Q 331 1975 331 2491 
Q 331 3047 712 3315 
Q 1094 3584 1881 3584 
Q 2191 3584 2531 3537 
Q 2872 3491 3272 3391 
z
" transform="scale(0.015625)"/>
      <path id="DejaVuSans-Bold-41" d="M 3419 850 
L 1538 850 
L 1241 0 
L 31 0 
L 1759 4666 
L 3194 4666 
L 4922 0 
L 3713 0 
L 3419 850 
z
M 1838 1716 
L 3116 1716 
L 2478 3572 
L 1838 1716 
z
" transform="scale(0.015625)"/>
     </defs>
     <use xlink:href="#DejaVuSans-Bold-4c"/>
     <use xlink:href="#DejaVuSans-Bold-69" transform="translate(63.720703 0)"/>
     <use xlink:href="#DejaVuSans-Bold-6e" transform="translate(97.998047 0)"/>
     <use xlink:href="#DejaVuSans-Bold-6b" transform="translate(169.189453 0)"/>
     <use xlink:href="#DejaVuSans-Bold-20" transform="translate(235.693359 0)"/>
     <use xlink:href="#DejaVuSans-Bold-32" transform="translate(270.507812 0)"/>
     <use xlink:href="#DejaVuSans-Bold-3a" transform="translate(340.087891 0)"/>
     <use xlink:href="#DejaVuSans-Bold-20" transform="translate(380.078125 0)"/>
     <use xlink:href="#DejaVuSans-Bold-45" transform="translate(414.892578 0)"/>
     <use xlink:href="#DejaVuSans-Bold-76" transform="translate(483.203125 0)"/>
     <use xlink:href="#DejaVuSans-Bold-6f" transform="translate(548.388672 0)"/>
     <use xlink:href="#DejaVuSans-Bold-6c" transform="translate(617.089844 0)"/>
     <use xlink:href="#DejaVuSans-Bold-75" transform="translate(651.367188 0)"/>
     <use xlink:href="#DejaVuSans-Bold-63" transform="translate(722.558594 0)"/>
     <use xlink:href="#DejaVuSans-Bold-69" transform="translate(781.835938 0)"/>
     <use xlink:href="#DejaVuSans-Bold-f3" transform="translate(816.113281 0)"/>
     <use xlink:href="#DejaVuSans-Bold-6e" transform="translate(884.814453 0)"/>
     <use xlink:href="#DejaVuSans-Bold-20" transform="translate(956.005859 0)"/>
     <use xlink:href="#DejaVuSans-Bold-64" transform="translate(990.820312 0)"/>
     <use xlink:href="#DejaVuSans-Bold-65" transform="translate(1062.402344 0)"/>
     <use xlink:href="#DejaVuSans-Bold-20" transform="translate(1130.224609 0)"/>
     <use xlink:href="#DejaVuSans-Bold-50" transform="translate(1165.039062 0)"/>
     <use xlink:href="#DejaVuSans-Bold-72" transform="translate(1238.330078 0)"/>
     <use xlink:href="#DejaVuSans-Bold-6f" transform="translate(1287.646484 0)"/>
     <use xlink:href="#DejaVuSans-Bold-62" transform="translate(1356.347656 0)"/>
     <use xlink:href="#DejaVuSans-Bold-61" transform="translate(1427.929688 0)"/>
     <use xlink:href="#DejaVuSans-Bold-62" transform="translate(1495.410156 0)"/>
     <use xlink:href="#DejaVuSans-Bold-69" transform="translate(1566.992188 0)"/>
     <use xlink:href="#DejaVuSans-Bold-6c" transform="translate(1601.269531 0)"/>
     <use xlink:href="#DejaVuSans-Bold-69" transform="translate(1635.546875 0)"/>
     <use xlink:href="#DejaVuSans-Bold-64" transform="translate(1669.824219 0)"/>
     <use xlink:href="#DejaVuSans-Bold-61" transform="translate(1741.40625 0)"/>
     <use xlink:href="#DejaVuSans-Bold-64" transform="translate(1808.886719 0)"/>
     <use xlink:href="#DejaVuSans-Bold-65" transform="translate(1880.46875 0)"/>
     <use xlink:href="#DejaVuSans-Bold-73" transform="translate(1948.291016 0)"/>
     <use xlink:href="#DejaVuSans-Bold-20" transform="translate(2007.8125 0)"/>
     <use xlink:href="#DejaVuSans-Bold-64" transform="translate(2042.626953 0)"/>
     <use xlink:href="#DejaVuSans-Bold-65" transform="translate(2114.208984 0)"/>
     <use xlink:href="#DejaVuSans-Bold-20" transform="translate(2182.03125 0)"/>
     <use xlink:href="#DejaVuSans-Bold-41" transform="translate(2216.845703 0)"/>
     <use xlink:href="#DejaVuSans-Bold-63" transform="translate(2294.238281 0)"/>
     <use xlink:href="#DejaVuSans-Bold-63" transform="translate(2353.515625 0)"/>
     <use xlink:href="#DejaVuSans-Bold-69" transform="translate(2412.792969 0)"/>
     <use xlink:href="#DejaVuSans-Bold-f3" transform="translate(2447.070312 0)"/>
     <use xlink:href="#DejaVuSans-Bold-6e" transform="translate(2515.771484 0)"/>
    </g>
   </g>
   <g id="legend_1">
    <g id="patch_7">
     <path d="M 53.416875 97.221562 
L 130.301719 97.221562 
Q 132.501719 97.221562 132.501719 95.021562 
L 132.501719 31.537812 
Q 132.501719 29.337812 130.301719 29.337812 
L 53.416875 29.337812 
Q 51.216875 29.337812 51.216875 31.537812 
L 51.216875 95.021562 
Q 51.216875 97.221562 53.416875 97.221562 
z
" style="fill: #ffffff; opacity: 0.8; stroke: #cccccc; stroke-linejoin: miter"/>
    </g>
    <g id="line2d_27">
     <path d="M 55.616875 38.246094 
L 66.616875 38.246094 
L 77.616875 38.246094 
" style="fill: none; stroke-dasharray: 9.25,4; stroke-dashoffset: 0; stroke: #000000; stroke-width: 2.5"/>
    </g>
    <g id="text_15">
     <!-- No TX -->
     <g transform="translate(86.416875 42.096094) scale(0.11 -0.11)">
      <defs>
       <path id="DejaVuSans-4e" d="M 628 4666 
L 1478 4666 
L 3547 763 
L 3547 4666 
L 4159 4666 
L 4159 0 
L 3309 0 
L 1241 3903 
L 1241 0 
L 628 0 
L 628 4666 
z
" transform="scale(0.015625)"/>
       <path id="DejaVuSans-54" d="M -19 4666 
L 3928 4666 
L 3928 4134 
L 2272 4134 
L 2272 0 
L 1638 0 
L 1638 4134 
L -19 4134 
L -19 4666 
z
" transform="scale(0.015625)"/>
       <path id="DejaVuSans-58" d="M 403 4666 
L 1081 4666 
L 2241 2931 
L 3406 4666 
L 4084 4666 
L 2584 2425 
L 4184 0 
L 3506 0 
L 2194 1984 
L 872 0 
L 191 0 
L 1856 2491 
L 403 4666 
z
" transform="scale(0.015625)"/>
      </defs>
      <use xlink:href="#DejaVuSans-4e"/>
      <use xlink:href="#DejaVuSans-6f" transform="translate(74.804688 0)"/>
      <use xlink:href="#DejaVuSans-20" transform="translate(135.986328 0)"/>
      <use xlink:href="#DejaVuSans-54" transform="translate(167.773438 0)"/>
      <use xlink:href="#DejaVuSans-58" transform="translate(228.857422 0)"/>
     </g>
    </g>
    <g id="line2d_28">
     <path d="M 55.616875 54.392031 
L 66.616875 54.392031 
L 77.616875 54.392031 
" style="fill: none; stroke: #1f77b4; stroke-width: 2; stroke-linecap: square"/>
    </g>
    <g id="text_16">
     <!-- Canal 0 -->
     <g transform="translate(86.416875 58.242031) scale(0.11 -0.11)">
      <defs>
       <path id="DejaVuSans-43" d="M 4122 4306 
L 4122 3641 
Q 3803 3938 3442 4084 
Q 3081 4231 2675 4231 
Q 1875 4231 1450 3742 
Q 1025 3253 1025 2328 
Q 1025 1406 1450 917 
Q 1875 428 2675 428 
Q 3081 428 3442 575 
Q 3803 722 4122 1019 
L 4122 359 
Q 3791 134 3420 21 
Q 3050 -91 2638 -91 
Q 1578 -91 968 557 
Q 359 1206 359 2328 
Q 359 3453 968 4101 
Q 1578 4750 2638 4750 
Q 3056 4750 3426 4639 
Q 3797 4528 4122 4306 
z
" transform="scale(0.015625)"/>
      </defs>
      <use xlink:href="#DejaVuSans-43"/>
      <use xlink:href="#DejaVuSans-61" transform="translate(69.824219 0)"/>
      <use xlink:href="#DejaVuSans-6e" transform="translate(131.103516 0)"/>
      <use xlink:href="#DejaVuSans-61" transform="translate(194.482422 0)"/>
      <use xlink:href="#DejaVuSans-6c" transform="translate(255.761719 0)"/>
      <use xlink:href="#DejaVuSans-20" transform="translate(283.544922 0)"/>
      <use xlink:href="#DejaVuSans-30" transform="translate(315.332031 0)"/>
     </g>
    </g>
    <g id="line2d_29">
     <path d="M 55.616875 70.537969 
L 66.616875 70.537969 
L 77.616875 70.537969 
" style="fill: none; stroke: #ff7f0e; stroke-width: 2; stroke-linecap: square"/>
    </g>
    <g id="text_17">
     <!-- Canal 1 -->
     <g transform="translate(86.416875 74.387969) scale(0.11 -0.11)">
      <use xlink:href="#DejaVuSans-43"/>
      <use xlink:href="#DejaVuSans-61" transform="translate(69.824219 0)"/>
      <use xlink:href="#DejaVuSans-6e" transform="translate(131.103516 0)"/>
      <use xlink:href="#DejaVuSans-61" transform="translate(194.482422 0)"/>
      <use xlink:href="#DejaVuSans-6c" transform="translate(255.761719 0)"/>
      <use xlink:href="#DejaVuSans-20" transform="translate(283.544922 0)"/>
      <use xlink:href="#DejaVuSans-31" transform="translate(315.332031 0)"/>
     </g>
    </g>
    <g id="line2d_30">
     <path d="M 55.616875 86.683906 
L 66.616875 86.683906 
L 77.616875 86.683906 
" style="fill: none; stroke: #2ca02c; stroke-width: 2; stroke-linecap: square"/>
    </g>
    <g id="text_18">
     <!-- Canal 2 -->
     <g transform="translate(86.416875 90.533906) scale(0.11 -0.11)">
      <use xlink:href="#DejaVuSans-43"/>
      <use xlink:href="#DejaVuSans-61" transform="translate(69.824219 0)"/>
      <use xlink:href="#DejaVuSans-6e" transform="translate(131.103516 0)"/>
      <use xlink:href="#DejaVuSans-61" transform="translate(194.482422 0)"/>
      <use xlink:href="#DejaVuSans-6c" transform="translate(255.761719 0)"/>
      <use xlink:href="#DejaVuSans-20" transform="translate(283.544922 0)"/>
      <use xlink:href="#DejaVuSans-32" transform="translate(315.332031 0)"/>
     </g>
    </g>
   </g>
  </g>
 </g>
 <defs>
  <clipPath id="pee5c1438dc">
   <rect x="45.716875" y="23.837812" width="1091.545" height="864.64"/>
  </clipPath>
 </defs>
</svg>
